M48
;Layer_Color=9474304
;FILE_FORMAT=2:5
INCH,LZ
;TYPE=PLATED
T1F00S00C0.00787
T2F00S00C0.01181
T3F00S00C0.04528
T4F00S00C0.04724
T5F00S00C0.07087
T6F00S00C0.15748
%
T01
X0083465Y0311024
Y0314173
Y0317323
Y0320472
Y0323622
Y0326772
Y0329921
Y0333071
Y0336221
Y033937
X0086614
Y0336221
Y0333071
Y0329921
Y0326772
Y0323622
Y0320472
Y0317323
Y0314173
Y0311024
Y0307874
Y0345669
Y0348819
X0083465
Y0345669
Y0351969
Y0355118
Y0358268
Y0361417
X0086614
Y0358268
Y0355118
Y0351969
Y0364567
Y0367717
X0083465
Y0364567
Y0370866
X0086614
Y0374016
Y0377165
X0092913
Y0374016
X0089764
Y0370866
X0092913
Y0367717
X0089764
Y0364567
X0092913
Y0361417
X0089764
Y0358268
Y0355118
X0092913
Y0358268
X0096063
Y0355118
Y0351969
X0092913
X0089764
Y0348819
Y0345669
X0092913
Y0348819
X0096063
Y0345669
X0099213
Y0348819
X0102362
Y0345669
X0105512
Y0348819
Y0351969
X0102362
X0099213
Y0355118
Y0358268
X0102362
Y0355118
X0105512
Y0358268
Y0361417
X0102362
X0099213
X0096063
Y0364567
Y0367717
Y0370866
Y0374016
X0099213
Y0370866
X0102362
Y0374016
Y0377165
X0099213
Y0367717
Y0364567
X0102362
Y0367717
X0105512
Y0364567
X0108661
Y0367717
X0111811
Y0364567
Y0361417
X0108661
Y0358268
Y0355118
X0111811
Y0358268
X0114961
Y0355118
Y0351969
X0111811
X0108661
Y0348819
Y0345669
X0111811
Y0348819
X0114961
Y0345669
Y033937
X0111811
X0108661
X0105512
X0102362
X0099213
X0096063
X0092913
X0089764
Y0336221
X0092913
Y0333071
X0089764
Y0329921
X0092913
Y0326772
X0089764
Y0323622
Y0320472
X0092913
Y0323622
X0096063
Y0320472
Y0317323
X0092913
X0089764
Y0314173
Y0311024
X0092913
Y0314173
X0096063
Y0311024
Y0307874
X0092913
X0089764
X0099213
X0102362
Y0311024
X0099213
Y0314173
X0102362
Y0317323
X0099213
Y0320472
Y0323622
X0102362
Y0320472
X0105512
Y0323622
Y0326772
X0102362
X0099213
X0096063
Y0329921
Y0333071
Y0336221
X0099213
X0102362
Y0333071
X0099213
Y0329921
X0102362
X0105512
Y0333071
Y0336221
X0108661
X0111811
Y0333071
X0108661
Y0329921
X0111811
Y0326772
X0108661
Y0323622
Y0320472
X0111811
Y0323622
X0114961
Y0320472
Y0317323
X0111811
X0108661
X0105512
Y0314173
Y0311024
Y0307874
X0108661
X0111811
Y0311024
X0108661
Y0314173
X0111811
X0114961
Y0311024
Y0307874
X012126
Y0311024
Y0314173
Y0317323
Y0320472
Y0323622
Y0326772
Y0329921
Y0333071
Y0336221
Y033937
X0124409
X0127559
Y0336221
X0124409
Y0333071
Y0329921
X0127559
Y0333071
X0130709
Y0329921
Y0326772
X0127559
X0124409
Y0323622
Y0320472
X0127559
Y0323622
X0130709
Y0320472
Y0317323
X0127559
X0124409
Y0314173
Y0311024
X0127559
Y0314173
X0130709
Y0311024
Y0307874
X0127559
X0124409
X0133858
X0137008
Y0311024
X0133858
Y0314173
X0137008
Y0317323
X0133858
Y0320472
Y0323622
X0137008
Y0320472
X0140157
Y0323622
X0143307
Y0320472
Y0317323
X0140157
Y0314173
Y0311024
X0143307
Y0314173
X0146457
Y0311024
Y0307874
X0143307
X0140157
X0149606
Y0311024
Y0314173
X0152756
Y0311024
Y0317323
X0149606
X0146457
Y0320472
Y0323622
Y0326772
X0143307
X0140157
X0137008
X0133858
Y0329921
Y0333071
X0137008
Y0329921
X0140157
Y0333071
X0143307
Y0329921
X0146457
Y0333071
Y0336221
X0143307
X0140157
X0137008
X0133858
X0130709
Y033937
X0133858
X0137008
X0140157
X0143307
X0146457
X0149606
X0152756
Y0336221
X0149606
Y0333071
Y0329921
X0152756
Y0333071
Y0326772
X0149606
Y0323622
Y0320472
X0152756
Y0323622
Y0345669
X0149606
Y0348819
X0152756
Y0351969
X0149606
X0146457
X0143307
X0140157
X0137008
X0133858
X0130709
X0127559
X0124409
X012126
Y0348819
Y0345669
X0124409
Y0348819
X0127559
Y0345669
X0130709
Y0348819
X0133858
Y0345669
X0137008
Y0348819
X0140157
Y0345669
X0143307
Y0348819
X0146457
Y0345669
Y0355118
Y0358268
X0143307
X0140157
Y0355118
X0143307
X0137008
X0133858
Y0358268
X0137008
Y0361417
X0133858
X0130709
X0127559
X0124409
X012126
Y0358268
Y0355118
X0124409
Y0358268
X0127559
Y0355118
X0130709
Y0358268
Y0364567
Y0367717
X0127559
X0124409
Y0364567
X0127559
X012126
Y0367717
X0114961
Y0364567
Y0361417
Y0370866
Y0374016
X0111811
X0108661
Y0370866
X0111811
X0105512
Y0374016
X0111811Y0377165
X012126
Y0374016
X0124409
Y0370866
X0127559
Y0374016
X0130709
Y0370866
X0133858
Y0374016
X0137008
Y0370866
Y0367717
X0133858
Y0364567
X0137008
X0140157
Y0367717
X0143307
Y0364567
Y0361417
X0140157
X0146457
Y0364567
Y0367717
Y0370866
Y0374016
X0143307
X0140157
Y0370866
X0143307
X0140157Y0377165
X0133858
X0127559
X0146457
X0149606
Y0364567
X0152756
Y0361417
X0149606
Y0358268
Y0355118
X0152756
Y0358268
X0114961Y0336221
Y0333071
Y0329921
Y0326772
X0280315
X0283465
Y0323622
X0280315
Y0320472
X0283465
Y0317323
X0280315
Y0314173
Y0311024
X0283465
Y0314173
X0286614
Y0311024
Y0307874
X0283465
X0289764
X0292913
Y0311024
X0289764
Y0314173
X0292913
Y0317323
X0289764
X0286614
Y0320472
Y0323622
Y0326772
Y0329921
Y0333071
X0283465
X0280315
Y0329921
X0283465
Y0336221
X0280315
Y033937
X0283465
X0286614
Y0336221
X0289764
X0292913
Y0333071
X0289764
Y0329921
X0292913
Y0326772
X0289764
Y0323622
Y0320472
X0292913
Y0323622
X0296063
Y0320472
Y0317323
Y0314173
Y0311024
Y0307874
X0299213
X0302362
Y0311024
X0299213
Y0314173
X0302362
Y0317323
X0299213
Y0320472
Y0323622
X0302362
Y0320472
X0305512
Y0323622
Y0326772
X0302362
X0299213
X0296063
Y0329921
Y0333071
Y0336221
Y033937
X0292913
X0289764
Y0345669
Y0348819
X0292913
Y0345669
X0296063
Y0348819
Y0351969
X0292913
X0289764
X0286614
X0283465
X0280315
Y0348819
Y0345669
X0283465
Y0348819
X0286614
Y0345669
Y0355118
Y0358268
X0283465
X0280315
Y0355118
X0283465
Y0361417
X0280315
Y0364567
Y0367717
X0283465
Y0364567
X0286614
Y0367717
Y0370866
Y0374016
X0283465
X0280315
Y0370866
X0283465
Y0377165
X0289764
Y0374016
Y0370866
X0292913
Y0374016
X0296063
Y0370866
Y0367717
Y0364567
X0292913
X0289764
Y0367717
X0292913
Y0361417
X0289764
X0286614
X0289764Y0358268
Y0355118
X0292913
Y0358268
X0296063
Y0355118
X0299213
Y0358268
X0302362
Y0355118
Y0351969
X0299213
Y0348819
Y0345669
X0302362
Y0348819
X0305512
Y0345669
X0308661
Y0348819
X0311811
Y0345669
Y033937
X0308661
X0305512
X0302362
X0299213
Y0336221
X0302362
Y0333071
X0299213
Y0329921
X0302362
X0305512
Y0333071
Y0336221
X0308661
X0311811
Y0333071
X0308661
Y0329921
X0311811
Y0326772
X0308661
Y0323622
Y0320472
X0311811
Y0323622
X031811
Y0320472
Y0317323
Y0314173
Y0311024
Y0307874
X032126
Y0311024
Y0314173
Y0317323
Y0320472
Y0323622
Y0326772
X031811
Y0329921
Y0333071
Y0336221
Y033937
X032126
Y0336221
Y0333071
Y0329921
X032441
Y0333071
X0327559
Y0329921
Y0326772
X032441
Y0323622
Y0320472
X0327559
Y0323622
X0330709
Y0320472
Y0317323
X0327559
X032441
Y0314173
Y0311024
X0327559
Y0314173
X0330709
Y0311024
Y0307874
X0327559
X032441
X0333858
X0337008
Y0311024
X0333858
Y0314173
X0337008
Y0317323
X0333858
Y0320472
Y0323622
X0337008
Y0320472
X0340158
Y0323622
X0343307
Y0320472
Y0317323
X0340158
Y0314173
Y0311024
X0343307
Y0314173
X0346457
Y0311024
Y0307874
X0343307
X0340158
X0349606Y0311024
Y0314173
Y0317323
X0346457
Y0320472
Y0323622
Y0326772
X0343307
X0340158
X0337008
X0333858
X0330709
Y0329921
Y0333071
Y0336221
X0327559
X032441
Y033937
X0327559
X0330709
X0333858
X0337008
Y0336221
X0333858
Y0333071
Y0329921
X0337008
Y0333071
X0340158
Y0329921
X0343307
Y0333071
Y0336221
X0340158
Y033937
X0343307
X0346457
Y0336221
Y0333071
Y0329921
X0349606
Y0333071
Y0336221
Y033937
Y0345669
Y0348819
X0346457
Y0345669
X0343307
X0340158
Y0348819
X0343307
Y0351969
X0340158
X0337008
X0333858
X0330709
X0327559
X032441
X032126
X031811
Y0348819
Y0345669
X032126
Y0348819
X032441
Y0345669
X0327559
Y0348819
X0330709
Y0345669
X0333858
Y0348819
X0337008
Y0345669
Y0355118
X0333858
Y0358268
X0337008
Y0361417
X0333858
X0330709
X0327559
X032441
X032126
X031811
Y0358268
Y0355118
X032126
Y0358268
X032441
Y0355118
X0327559
Y0358268
X0330709
Y0355118
Y0364567
Y0367717
X0327559
X032441
Y0364567
X0327559
X032126
Y0367717
Y0370866
Y0374016
X031811
Y0377165
X032441
Y0374016
Y0370866
X0327559
Y0374016
X0330709
Y0370866
X0333858
Y0374016
X0337008
Y0370866
Y0367717
X0333858
Y0364567
X0337008
X0340158
Y0367717
X0343307
Y0364567
Y0361417
X0340158
Y0358268
Y0355118
X0343307
Y0358268
X0346457
Y0355118
Y0351969
X0349606
Y0355118
Y0358268
Y0361417
X0346457
Y0364567
X0349606
X0343307Y0370866
X0340158
Y0374016
X0343307
Y0377165
X0346457
X0337008
X0330709
X0308661
Y0374016
Y0370866
X0311811
Y0374016
X0305512
Y0370866
X0302362
X0299213
Y0374016
X0302362
X0299213Y0377165
X0296063
X0299213Y0367717
Y0364567
X0302362
Y0367717
X0305512
Y0364567
Y0361417
X0302362
X0299213
X0296063
X0305512Y0358268
Y0355118
Y0351969
X0308661
X0311811
Y0355118
X0308661
Y0358268
X0311811
Y0361417
X0308661
Y0364567
Y0367717
X0311811
Y0364567
X031811
Y0367717
X0311811Y0317323
X0308661
X0305512
Y0314173
Y0311024
Y0307874
X0308661
X0311811
Y0311024
X0308661
Y0314173
X0311811
X0349606Y0320472
Y0323622
Y0326772
Y0507874
Y0511024
Y0514173
X0346457
Y0511024
Y0507874
Y0504724
X0343307Y0507874
X0340158
Y0504724
Y0511024
X0343307
Y0514173
X0340158
Y0517323
X0343307
X0346457
Y0520472
Y0523622
X0349606
Y0520472
Y0517323
Y0526772
Y0529921
Y0533071
Y0536221
X0346457
Y0533071
Y0529921
Y0526772
X0343307
X0340158
Y0529921
X0343307
Y0533071
X0340158
Y0536221
X0343307
Y054252
X0340158
Y0545669
X0343307
Y0548819
X0340158
Y0551968
X0343307
X0346457
X0349606
Y0555118
Y0558268
Y0561417
X0346457
Y0558268
Y0555118
X0343307
Y0558268
X0340158
Y0555118
X0337008
Y0558268
X0333858
Y0555118
Y0551968
X0337008
Y0548819
Y0545669
X0333858
Y0548819
X0330709
Y0545669
Y054252
X0333858
X0337008
Y0536221
X0333858
Y0533071
X0337008
Y0529921
X0333858
Y0526772
X0337008
Y0523622
Y0520472
X0333858
Y0523622
X0330709
Y0520472
Y0517323
X0333858
X0337008
Y0514173
Y0511024
X0333858
Y0514173
X0330709
Y0511024
Y0507874
Y0504724
X0333858
Y0507874
X0337008
X0327559
X032441
Y0511024
X0327559
Y0514173
X032441
Y0517323
X0327559
Y0520472
Y0523622
X032441
Y0520472
X032126
Y0523622
Y0526772
X032441
X0327559
X0330709
Y0529921
Y0533071
Y0536221
X0327559
X032441
Y0533071
X0327559
Y0529921
X032441
X032126
Y0533071
Y0536221
X031811
Y0533071
Y0529921
Y0526772
Y0523622
Y0520472
Y0517323
X032126
Y0514173
Y0511024
Y0507874
Y0504724
X031811Y0507874
Y0511024
Y0514173
X0311811
X0308661
Y0511024
Y0507874
X0311811
Y0504724
X0305512
Y0507874
Y0511024
Y0514173
Y0517323
X0308661
X0311811
Y0520472
Y0523622
X0308661
Y0520472
X0305512
Y0523622
Y0526772
X0308661
X0311811
Y0529921
Y0533071
X0308661
Y0529921
X0305512
Y0533071
Y0536221
X0308661
X0311811
Y054252
X0308661
Y0545669
X0311811
Y0548819
X0308661
Y0551968
X0311811
Y0555118
Y0558268
X0308661
Y0555118
X0305512
Y0558268
Y0561417
X0308661
X0311811
X031811
X032126
X032441
X0327559
X0330709
X0333858
X0337008
X0340158
X0343307
X0330709Y0558268
Y0555118
Y0551968
X0327559
X032441
Y0555118
X0327559
Y0558268
X032441
X032126
Y0555118
Y0551968
Y0548819
Y0545669
X032441
X0327559
Y0548819
X032441
Y054252
X0327559
X032126
X031811
Y0545669
Y0548819
Y0551968
Y0555118
Y0558268
X0302362
Y0555118
X0299213
Y0558268
Y0561417
X0302362
X0296063
Y0558268
Y0555118
Y0551968
X0299213
X0302362
X0305512
Y0548819
Y0545669
Y054252
X0302362
X0299213
Y0545669
X0302362
Y0548819
X0299213
X0296063
Y0545669
Y054252
X0292913
X0289764
Y0545669
X0292913
Y0548819
X0289764
Y0551968
X0292913
Y0555118
Y0558268
X0289764
Y0555118
X0286614
Y0558268
Y0561417
X0289764
X0292913
X0283465
X0280315
Y0558268
X0283465
Y0555118
X0280315
Y0551968
X0283465
X0286614
Y0548819
Y0545669
Y054252
X0283465
X0280315
Y0545669
X0283465
Y0548819
X0280315
Y0536221
X0283465
X0286614
X0289764
X0292913
X0296063
X0299213
X0302362
Y0533071
Y0529921
X0299213
Y0533071
X0296063
Y0529921
Y0526772
X0299213
X0302362
Y0523622
Y0520472
X0299213
Y0523622
X0296063
Y0520472
Y0517323
X0299213
X0302362
Y0514173
Y0511024
X0299213
Y0514173
X0296063
Y0511024
Y0507874
X0299213
X0302362
X0299213Y0504724
X0292913
Y0507874
X0289764
Y0511024
X0292913
Y0514173
X0289764
Y0517323
X0292913
Y0520472
Y0523622
X0289764
Y0520472
X0286614
Y0523622
Y0526772
X0289764
X0292913
Y0529921
Y0533071
X0289764
Y0529921
X0286614
Y0533071
X0283465
Y0529921
X0280315
Y0533071
Y0526772
X0283465
Y0523622
Y0520472
X0280315
Y0523622
Y0517323
X0283465
X0286614
Y0514173
Y0511024
Y0507874
Y0504724
X0283465
X0340158Y0520472
X0343307
Y0523622
X0340158
X0346457Y054252
X0349606
Y0545669
Y0548819
X0346457
Y0545669
X0152756
Y0548819
X0149606
Y0545669
Y054252
X0152756
X0146457
Y0545669
Y0548819
Y0551968
X0149606
X0152756
Y0555118
Y0558268
X0149606
Y0555118
X0146457
Y0558268
Y0561417
X0149606
X0152756
X0143307
X0140157
Y0558268
X0143307
Y0555118
X0140157
Y0551968
X0143307
Y0548819
Y0545669
X0140157
Y0548819
X0137008
Y0545669
X0133858
Y0548819
Y0551968
X0137008
Y0555118
Y0558268
X0133858
Y0555118
X0130709
Y0558268
Y0561417
X0133858
X0137008
X0127559
X0124409
Y0558268
X0127559
Y0555118
X0124409
Y0551968
X0127559
X0130709
Y0548819
Y0545669
Y054252
X0133858
X0137008
X0140157
X0143307
Y0536221
X0140157
Y0533071
X0143307
Y0529921
X0140157
Y0526772
X0143307
X0146457
X0149606
X0152756
Y0529921
Y0533071
X0149606
Y0529921
X0146457
Y0533071
Y0536221
X0149606
X0152756
Y0523622
Y0520472
X0149606
Y0523622
X0146457
Y0520472
Y0517323
X0149606
X0152756
Y0514173
Y0511024
X0149606
Y0514173
X0146457
Y0511024
Y0507874
X0149606
Y0504724
X0143307
Y0507874
X0140157
Y0511024
X0143307
Y0514173
X0140157
Y0517323
X0143307
Y0520472
Y0523622
X0140157
Y0520472
X0137008
Y0523622
X0133858
Y0520472
Y0517323
X0137008
Y0514173
Y0511024
X0133858
Y0514173
X0130709
Y0511024
Y0507874
X0133858
Y0504724
X0137008
Y0507874
X0127559
X0124409
Y0504724
Y0511024
X0127559
Y0514173
X0124409
Y0517323
X0127559
X0130709
Y0520472
Y0523622
Y0526772
X0133858
X0137008
Y0529921
Y0533071
X0133858
Y0529921
X0130709
Y0533071
Y0536221
X0133858
X0137008
X0127559
X0124409
Y0533071
X0127559
Y0529921
X0124409
Y0526772
X0127559
Y0523622
Y0520472
X0124409
Y0523622
X012126
Y0520472
Y0517323
Y0514173
Y0511024
Y0507874
X0114961
Y0504724
X0111811Y0507874
X0108661
Y0504724
Y0511024
X0111811
Y0514173
X0108661
Y0517323
X0111811
X0114961
Y0520472
Y0523622
Y0526772
Y0529921
Y0533071
Y0536221
X0111811
X0108661
Y0533071
X0111811
Y0529921
X0108661
Y0526772
X0111811
Y0523622
Y0520472
X0108661
Y0523622
X0105512
Y0520472
Y0517323
Y0514173
Y0511024
Y0507874
X0102362
X0099213
Y0511024
X0102362
Y0514173
X0099213
Y0517323
X0102362
Y0520472
Y0523622
X0099213
Y0520472
X0096063
Y0523622
Y0526772
X0099213
X0102362
X0105512
Y0529921
Y0533071
Y0536221
X0102362
X0099213
Y0533071
X0102362
Y0529921
X0099213
X0096063
Y0533071
Y0536221
X0092913
X0089764
Y0533071
X0092913
Y0529921
X0089764
Y0526772
X0092913
Y0523622
Y0520472
X0089764
Y0523622
Y0517323
X0092913
X0096063
Y0514173
Y0511024
Y0507874
Y0504724
X0092913Y0507874
X0089764
Y0504724
Y0511024
X0092913
Y0514173
X0089764
X0102362Y0504724
X0114961Y0514173
X012126Y0526772
Y0529921
Y0533071
Y0536221
Y054252
X0124409
X0127559
Y0545669
Y0548819
X0124409
Y0545669
X012126
Y0548819
Y0551968
Y0555118
Y0558268
Y0561417
X0114961
Y0558268
Y0555118
Y0551968
Y0548819
Y0545669
Y054252
X0111811
X0108661
Y0545669
X0111811
Y0548819
X0108661
Y0551968
X0111811
Y0555118
Y0558268
X0108661
Y0555118
X0105512
Y0558268
Y0561417
X0108661
X0111811
X0102362
X0099213
Y0558268
X0102362
Y0555118
X0099213
Y0551968
X0102362
X0105512
Y0548819
Y0545669
Y054252
X0102362
X0099213
Y0545669
X0102362
Y0548819
X0099213
X0096063
Y0545669
Y054252
X0092913
X0089764
Y0545669
X0092913
Y0548819
X0089764
Y0551968
X0092913
X0096063
Y0555118
Y0558268
Y0561417
X0092913
X0089764
Y0558268
X0092913
Y0555118
X0089764
X0086614
Y0558268
Y0561417
X0083465
Y0558268
Y0555118
Y0551968
X0086614
Y0548819
Y0545669
Y054252
X0083465
Y0545669
Y0548819
Y0536221
X0086614
Y0533071
Y0529921
Y0526772
Y0523622
Y0520472
Y0517323
X0083465
Y0520472
Y0523622
Y0526772
Y0529921
Y0533071
Y0564567
Y0567717
X0086614
Y0564567
Y0570866
Y0574016
X0083465Y0570866
X0089764
X0092913
Y0574016
X0089764
X0096063
Y0570866
X0099213
X0102362
Y0574016
X0099213
X0105512
Y0570866
X0108661
X0111811
Y0574016
X0108661
X0114961
Y0570866
Y0567717
Y0564567
X0111811
Y0567717
X0108661
Y0564567
X0105512
Y0567717
X0102362
Y0564567
X0099213
Y0567717
X0096063
Y0564567
X0092913
Y0567717
X0089764
Y0564567
X012126
Y0567717
X0124409
X0127559
Y0564567
X0124409
X0130709
Y0567717
X0133858
X0137008
Y0564567
X0133858
X0140157
X0143307
Y0567717
X0140157
Y0570866
X0143307
Y0574016
X0140157
X0137008
Y0570866
X0133858
Y0574016
X0130709
Y0570866
X0127559
Y0574016
X0124409
Y0570866
X012126
Y0574016
X0146457
Y0570866
X0149606
X0152756
Y0567717
Y0564567
X0149606
Y0567717
X0146457
Y0564567
X0149606Y0574016
X0283465
Y0570866
X0280315
Y0567717
X0283465
Y0564567
X0280315
X0286614
Y0567717
X0289764
X0292913
Y0564567
X0289764
X0296063
Y0567717
X0299213
X0302362
Y0564567
X0299213
X0305512
Y0567717
X0308661
X0311811
Y0564567
X0308661
Y0570866
X0311811
Y0574016
X0308661
X0305512
Y0570866
X0302362
Y0574016
X0299213
Y0570866
X0296063
Y0574016
X0292913
Y0570866
X0289764
Y0574016
X0286614
Y0570866
X031811
Y0574016
X032126
Y0570866
X032441
X0327559
Y0574016
X032441
X0330709
Y0570866
X0333858
X0337008
Y0574016
X0333858
X0340158
X0343307
Y0570866
X0340158
Y0567717
X0343307
Y0564567
X0340158
X0337008
Y0567717
X0333858
Y0564567
X0330709
Y0567717
X0327559
Y0564567
X032441
Y0567717
X032126
Y0564567
X031811
Y0567717
X0346457
Y0564567
X0349606
Y0567717
Y0570866
X0346457
Y0574016
T02
X0021654Y0049213
Y0052362
X0024803
X0027953
Y0049213
X0024803
X0031102
Y0052362
X0036614Y0079134
X0040551
X0044094
X0048031
X0051575
Y0085433
X0047244
X0041339
X0036614
X0062205Y0091732
X0075197Y0052362
X0078347
X0081496
X0084646
Y0049213
X0081496
X0078347
X0075197
X0008661Y0091732
X0090177Y0085433
X0094902
X0100807
X0105138
Y0079134
X0101594
X0097658
X0094114
X0090177
X0115748Y0091732
X014372Y0085433
X0148445
X015435
X0158681
Y0079134
X0155138
X0151201
X0147658
X014372
X0138189Y0052362
X0135039
Y0049213
X0138189
X013189
X012874
Y0052362
X013189
X0129134Y0014567
Y0011417
Y0008268
Y0005118
X0111811
Y0008268
Y0011417
Y0014567
X0182283Y0049213
Y0052362
X0185433
X0188583
X0191732
Y0049213
X0188583
X0185433
X0197264Y0079134
X0201201
X0204744
X0208681
X0212224
Y0085433
X0207894
X0201988
X0197264
X0222835Y0091732
X0235827Y0052362
X0238976
X0242126
Y0049213
X0238976
X0235827
X0236221Y0014961
Y0011811
Y0008661
Y0005512
X0218898
Y0008661
Y0011811
Y0014961
X0169291Y0091732
X0250807Y0085433
X0255532
X0261437
X0265768
Y0079134
X0262224
X0258287
X0254744
X0250807
X0245276Y0052362
Y0049213
X028937
X029252
X0295669
X0298819
Y0052362
X0295669
X029252
X028937
X030435Y0079134
X0308287
X0311831
X0315768
X0319311
Y0085433
X031498
X0309075
X030435
X0329921Y0091732
X0357894Y0085433
X0362618
X0368524
X0372854
Y0079134
X0369311
X0365374
X0361831
X0357894
X0352362Y0052362
X0349213
Y0049213
X0352362
X0346063
Y0052362
X0342913
Y0049213
X0343307Y0014961
Y0011811
Y0008661
Y0005512
X0325984
Y0008661
Y0011811
Y0014961
X0396457Y0049213
Y0052362
X0399606
Y0049213
X0383465Y0091732
X0276378
X0411437Y0085433
X0416161
X0422067
X0426398
Y0079134
X0422854
X0418917
X0415374
X0411437
X0405905Y0052362
Y0049213
X0402756
Y0052362
X0433071Y0014961
Y0011811
Y0008661
Y0005512
X0450394
Y0008661
Y0011811
Y0014961
X0438583Y01
X0421654Y0122047
Y0125197
Y0128347
Y0131496
Y0134646
Y0137795
Y0140945
X0415354
Y0137795
Y0134646
Y0131496
Y0128347
Y0125197
Y0122047
X0415748Y0184646
Y0187795
Y0190945
Y0194095
Y0197244
Y0200394
X0391339Y0198819
Y0195669
Y019252
Y018937
Y0186221
Y0202067
X0362205Y0201969
Y0198819
Y0195669
Y019252
Y018937
Y0186221
X0337795
Y018937
Y019252
Y0195669
Y0198819
Y0202067
X0308661Y0201969
Y0198819
Y0195669
Y019252
Y018937
Y0186221
X0284252
Y018937
Y019252
Y0195669
Y0198819
Y0202067
X0255118Y0201969
Y0198819
Y0195669
Y019252
Y018937
Y0186221
X0254724Y0140945
Y0137795
Y0134646
Y0131496
Y0128347
Y0125197
Y0122047
X0261024
Y0125197
Y0128347
Y0131496
Y0134646
Y0137795
Y0140945
X028937Y0141732
X029252
Y0138583
Y0135433
X028937
Y0138583
Y0132283
X029252
Y0129134
Y0125984
X028937
Y0129134
Y0122835
Y0119685
X029252
Y0122835
X0308268Y0122047
Y0125197
Y0128347
Y0131496
Y0134646
Y0137795
Y0140945
X0314567
Y0137795
Y0134646
Y0131496
Y0128347
Y0125197
Y0122047
X0342913Y0122835
Y0119685
X0346063
Y0122835
Y0125984
Y0129134
X0342913
Y0125984
Y0132283
Y0135433
Y0138583
X0346063
Y0135433
Y0132283
Y0141732
X0342913
X0361811Y0140945
Y0137795
Y0134646
Y0131496
Y0128347
Y0125197
Y0122047
X036811
Y0125197
Y0128347
Y0131496
Y0134646
Y0137795
Y0140945
X0396457Y0142126
X0399606
Y0138976
Y0135827
X0396457
Y0138976
Y0132677
Y0129528
X0399606
Y0132677
Y0126378
X0396457
Y0123228
Y0120079
X0399606
Y0123228
X0383858Y0102362
X0382283Y0099213
X032874
X0330315Y0102362
X0276772
X0275197Y0099213
X0255906Y0244094
X0295276
X0334646
X0374016
X0230709Y0202067
Y0198819
Y0195669
Y019252
Y018937
Y0186221
X0201575
Y018937
Y019252
Y0195669
Y0198819
Y0201969
X0177165Y0202067
Y0198819
Y0195669
Y019252
Y018937
Y0186221
X0148031
Y018937
Y019252
Y0195669
Y0198819
Y0201969
X0123622Y0202067
Y0198819
Y0195669
Y019252
Y018937
Y0186221
X0094488
Y018937
Y019252
Y0195669
Y0198819
Y0201969
X0098425Y0244094
X0137795
X0177165
X0182283Y0141339
X0185433
Y0138189
Y0135039
X0182283
Y0138189
Y013189
Y012874
Y0125591
X0185433
Y012874
Y013189
Y0122441
Y0119291
X0182283
Y0122441
X0201181Y0122047
Y0125197
Y0128347
Y0131496
Y0134646
Y0137795
Y0140945
X020748
Y0137795
Y0134646
Y0131496
Y0128347
Y0125197
Y0122047
X0235827Y0122441
Y0125591
Y012874
Y013189
X0238976
Y0135039
Y0138189
X0235827
Y0135039
Y0141339
X0238976
Y012874
Y0125591
Y0122441
Y0119291
X0235827
X0223228Y0102362
X0221654Y0099213
X016811
X0169685Y0102362
X0153937Y0122047
Y0125197
Y0128347
Y0131496
Y0134646
Y0137795
Y0140945
X0148031
Y0137795
Y0134646
Y0131496
Y0128347
Y0125197
Y0122047
X013189Y0122835
Y0119685
X012874
Y0122835
Y0125984
Y0129134
X013189
Y0125984
Y0132283
X012874
Y0135433
Y0138583
X013189
Y0135433
Y0141732
X012874
X0100394Y0140945
Y0137795
Y0134646
Y0131496
Y0128347
Y0125197
Y0122047
X0094095
Y0125197
Y0128347
Y0131496
Y0134646
Y0137795
Y0140945
X0116142Y0102362
X0114567Y0099213
X0061024
X0062598Y0102362
X0075197Y0119685
X0078347
Y0122835
X0075197
Y0125984
X0078347
Y0129134
X0075197
Y0132283
X0078347
Y0135433
Y0138583
X0075197
Y0135433
Y0141732
X0078347
X004685Y0140945
Y0137795
Y0134646
Y0131496
Y0128347
Y0125197
Y0122047
X0040945
Y0125197
Y0128347
Y0131496
Y0134646
Y0137795
Y0140945
X0024803Y0142126
X0021654
Y0138976
Y0135827
X0024803
Y0138976
Y0132677
Y0129528
X0021654
Y0132677
Y0126378
Y0123228
Y0120079
X0024803
Y0123228
Y0126378
X0009055Y0102362
X000748Y0099213
X0016535Y0186221
Y018937
Y019252
Y0195669
Y0198819
Y0202067
X0040945Y0201969
Y0198819
Y0195669
Y019252
Y018937
Y0186221
X0070079
Y018937
Y019252
Y0195669
Y0198819
Y0202067
X0059055Y0244094
Y0283465
X0030728Y0283071
Y0279921
Y0276772
Y0273622
Y0313386
Y0316535
Y0319685
Y0322835
X0059055
Y0362205
X0057874Y038189
X0070592Y0385828
X0030728Y039252
Y0395669
Y0398819
Y0401968
Y0362205
Y0359055
Y0355906
Y0352756
X0008681Y0343307
Y0340158
Y0337008
Y0333858
Y0303937
Y0300787
Y0297638
Y0294488
Y0373622
Y0376772
Y0379921
Y0383071
X0092126Y0402362
X0141339Y038937
X0177165Y0401575
Y0362205
Y0322835
Y0283465
X0137795
X0098425
X0216535
Y0322835
Y0362205
Y0401575
X0254724Y038189
X0266516Y0385828
X0255906Y0362205
Y0322835
Y0283465
X0295276
X0334646
X0374016
Y0322835
X0365354Y0373228
Y0379528
X0369685Y039685
Y0402756
X0390158Y0393307
X0393701
X0396457Y0389764
Y0386221
X0393307Y0382677
X0335433Y038937
X0332677Y0393307
X0335433Y0396457
X0340945
X0402362Y0401181
X0402382Y0404331
Y0362992
Y0359842
Y0356693
Y0353543
Y0323622
Y0320472
Y0317323
Y0314173
Y0283858
Y0280709
Y0277559
Y027441
X0424429Y0294094
Y0297244
Y0300394
Y0303543
Y0333465
Y0336614
Y0339764
Y0342913
X0424409Y0369685
X0424429Y0372835
Y0375984
Y0379134
X0442913Y0395669
X0463386Y0389764
Y0386221
X0463406Y0382677
X0471279Y0387795
X0470098Y0390945
X0470079Y040315
X0481496Y0397638
Y0387795
Y0383858
X0477953Y0360236
X0475984Y0331496
X0478346Y032874
X0480709Y0326378
X0483071Y0320472
X0473228Y032559
X0470079Y033189
X0466929
X0463779
X0441732Y0329134
X0504331Y037874
X0509449
X0512598Y0387008
X0476772Y0411811
Y0415354
X0459055Y040748
X0424429Y0412205
Y0415354
Y0418504
Y0421654
X0402382Y041063
Y040748
Y0471654
Y0474803
Y0477953
Y0481102
Y0511024
Y0514173
Y0517323
Y0520472
Y0550787
Y0553937
Y0557087
Y0560236
X0424429Y0539764
Y0536614
Y0533465
Y0530315
X0435039Y0545276
X0451575Y0546063
X0457874Y0503937
X0468504
X0477165Y0498425
X0480709Y0495276
X0468504Y0484252
X0502756Y0488189
Y0445669
X0512618Y0545276
X0424429Y0500394
Y0497244
Y0494095
Y0490945
X0375197Y05
X0361831Y0496457
X0338976Y0485433
X030002Y0488583
X0297244Y0491732
X0288996
X028624Y0488583
X0255906Y0480315
Y0519685
Y0559055
Y0440945
X0267717
X0259055Y0416142
X0329528Y0409055
X0369685
X0375197Y0416142
X0385039Y0415354
X0388976Y0417717
X0392913
X0396063Y0414567
Y0410236
X0390158Y0406299
X04Y0425591
X0362205Y0440945
X0374016Y0559055
X0216535
Y0519685
Y0480315
X0174409Y0465748
X0178347Y05
X0166555Y0496457
X0100413Y0491732
X0103169Y0488583
X0098051Y0485433
X008939Y0488583
X0092146Y0491732
X0177165Y0559055
X0059055
X0030728Y0559449
Y0556299
Y055315
Y055
Y0519685
Y0516535
Y0513386
Y0510236
Y0480315
Y0477165
Y0474016
Y0470866
X006063Y0465748
X007126Y0440945
X0083858Y0496457
X0084252Y0504724
X0059055Y0519685
X0008681Y0530709
Y0533858
Y0537008
Y0540158
Y0500787
Y0497638
Y0494488
Y0491339
Y0422441
Y0419291
Y0416142
Y0412992
Y0570079
Y0573228
Y0576378
Y0579528
X0009075Y0609449
Y0612598
Y0615748
Y0618898
X0030728Y0598819
Y0595669
Y059252
Y058937
X0059055Y0598425
Y0637795
X0070079Y068189
Y0685039
Y0688189
Y0691339
Y0694488
Y0697638
X0040945
Y0694488
Y0691339
Y0688189
Y0685039
Y0681791
X0016535Y0683465
Y0686614
Y0689764
Y0692913
Y0696063
Y0699213
X0094488Y0697638
Y0694488
Y0691339
Y0688189
Y0685039
Y0681791
X0123622Y068189
Y0685039
Y0688189
Y0691339
Y0694488
Y0697638
X0148031
Y0694488
Y0691339
Y0688189
Y0685039
Y0681791
X0177165Y068189
Y0685039
Y0688189
Y0691339
Y0694488
Y0697638
X0201575
Y0694488
Y0691339
Y0688189
Y0685039
Y0681791
X0230709Y068189
Y0685039
Y0688189
Y0691339
Y0694488
Y0697638
X0177165Y0637795
X0137795
Y0598425
X0098425
Y0637795
X0177165Y0598425
X0216535
X0255906
Y0637795
X0295276
X0334646
X0374016
Y0598425
X0334646
X0295276
X0284252Y068189
Y0685039
Y0688189
Y0691339
Y0694488
Y0697638
X0308661
Y0694488
Y0691339
Y0688189
Y0685039
Y0681791
X0337795Y068189
Y0685039
Y0688189
Y0691339
Y0694488
Y0697638
X0362205
Y0694488
Y0691339
Y0688189
Y0685039
Y0681791
X0391339Y068189
Y0685039
Y0688189
Y0691339
Y0694488
Y0697638
X0255118
Y0694488
Y0691339
Y0688189
Y0685039
Y0681791
X0415748
Y0685039
Y0688189
Y0691339
Y0694488
Y0697638
X0424429Y0618504
Y0615354
Y0612205
Y0609055
X0440571Y0617717
Y0620866
X044372
Y0617717
X0477579Y062874
X0475197Y0586614
X0458661Y0567717
X0424429Y0569685
Y0572835
Y0575984
Y0579134
X0402382Y0590158
Y0593307
Y0596457
Y0599606
X040748Y0741732
Y0744882
Y0748032
Y0751181
X041063
Y0754331
Y075748
Y076063
Y0763779
X040748
Y076063
Y075748
Y0754331
X041063Y0748032
Y0744882
Y0741732
X0423228Y0781496
X0424803Y0784646
X0423622Y0792126
X041063Y0831496
Y0834646
X040748
X0404331
Y0831496
X040748
X0401181
Y0834646
X0433071Y0867323
Y0870472
Y0873622
X0450394
Y0870472
Y0867323
X0343307
Y0870472
Y0873622
X0325984
Y0870472
Y0867323
X0347638Y0834646
X0350787
Y0831496
X0347638
X0353937
X0357087
Y0834646
X0353937
X0342146Y0804724
X0338602
X0334665
X0331122
X0327185
Y0798425
X0331909
X0337815
X0342146
X0338189Y0776772
Y0773622
Y0770472
Y0767323
Y0764173
Y0758661
Y0755512
Y0752362
Y0749213
Y0746063
Y0742913
X033189
Y0746063
Y0749213
Y0752362
Y0755512
Y0758661
Y0764173
Y0767323
Y0770472
Y0773622
Y0776772
X0316142Y0781496
X0317717Y0784646
X0316535Y0792126
X0288602Y0798425
X0284272
X0278366
X0273642
Y0804724
X0277579
X0281122
X0285059
X0288602
X0284646Y0776772
Y0773622
Y0770472
Y0767323
Y0764173
Y0758661
Y0755512
Y0752362
Y0749213
Y0746063
Y0742913
X0278346
Y0746063
Y0749213
Y0752362
Y0755512
Y0758661
Y0764173
Y0767323
Y0770472
Y0773622
Y0776772
X0262598Y0781496
X0264173Y0784646
X0262992Y0792126
X025Y0764567
X024685
Y0761417
Y0758268
Y0755118
X025
Y0758268
Y0761417
Y0751968
X024685
Y0748819
Y0745669
X025
Y0748819
Y074252
X024685
X0300394Y0742126
X0303543
Y0745276
Y0748425
X0300394
Y0745276
Y0751575
X0303543
Y0754724
Y0757874
Y0761024
Y0764173
X0300394
Y0761024
Y0757874
Y0754724
X0353937
X0357087
Y0757874
X0353937
Y0761024
Y0764173
X0357087
Y0761024
Y0751575
X0353937
Y0748425
Y0745276
X0357087
Y0748425
Y0742126
X0353937
X0385433Y0742913
Y0746063
Y0749213
Y0752362
Y0755512
Y0758661
Y0764173
Y0767323
Y0770472
Y0773622
Y0776772
X0391732
Y0773622
Y0770472
Y0767323
Y0764173
Y0758661
Y0755512
Y0752362
Y0749213
Y0746063
Y0742913
X0391358Y0798425
X0395689
Y0804724
X0392146
X0388209
X0384665
X0380728
Y0798425
X0385453
X0370079Y0792126
X037126Y0784646
X0369685Y0781496
X0303543Y0831496
Y0834646
X0300394
X0297244
X0294094
Y0831496
X0297244
X0300394
X025
Y0834646
X024685
Y0831496
X0243701
Y0834646
X0240551
Y0831496
X0235059Y0804724
X0231516
X0227579
X0224035
X0220098
Y0798425
X0224823
X0230728
X0235059
X0231102Y0776772
Y0773622
Y0770472
Y0767323
Y0764173
Y0758661
Y0755512
Y0752362
Y0749213
Y0746063
Y0742913
X0224803
Y0746063
Y0749213
Y0752362
Y0755512
Y0758661
Y0764173
Y0767323
Y0770472
Y0773622
Y0776772
X0209055Y0781496
X021063Y0784646
X0209449Y0792126
X0181516Y0798425
X0177185
X017128
X0166555
Y0804724
X0170492
X0174035
X0177972
X0181516
X0187008Y0831496
Y0834646
X0190157
X0193307
X0196457
Y0831496
X0193307
X0190157
X0142913
X0139764
Y0834646
X0142913
X0136614
Y0831496
X0133465
Y0834646
X0127972Y0804724
X0124429
X0120492
X0116949
X0113012
Y0798425
X0117736
X0123642
X0127972
X0124016Y0776772
Y0773622
Y0770472
Y0767323
Y0764173
Y0758661
Y0755512
Y0752362
Y0749213
Y0746063
Y0742913
X0117717
Y0746063
Y0749213
Y0752362
Y0755512
Y0758661
Y0764173
Y0767323
Y0770472
Y0773622
Y0776772
X0101969Y0781496
X0103543Y0784646
X0102362Y0792126
X008937Y0764173
Y0761024
Y0757874
Y0754724
Y0751575
Y0748425
Y0745276
Y0742126
X0139764
X0142913
Y0745276
Y0748425
X0139764
Y0745276
Y0751575
X0142913
Y0754724
X0139764
Y0757874
X0142913
Y0761024
X0139764
Y0764173
X0142913
X017126Y0763779
Y0766929
Y0770079
Y0773228
Y0776378
X0177559
Y0773228
Y0770079
Y0766929
Y0763779
Y0758661
Y0755512
Y0752362
Y0749213
Y0746063
Y0742913
X017126
Y0746063
Y0749213
Y0752362
Y0755512
Y0758661
X0193307Y0758268
Y0755118
X0196457
Y0758268
Y0761417
Y0764567
X0193307
Y0761417
Y0751968
X0196457
Y0748819
Y0745669
X0193307
Y0748819
Y074252
X0196457
X0155512Y0781496
X0157087Y0784646
X0155905Y0792126
X0129134Y0867323
Y0870472
Y0873622
X0111811
Y0870472
Y0867323
X008937Y0834646
Y0831496
X0218898Y0867323
Y0870472
Y0873622
X0236221
Y0870472
Y0867323
X0086221Y0834646
Y0831496
X0083071
X0079921
Y0834646
X0083071
X0074429Y0804724
X0070886
X0066949
X0063406
X0059469
Y0798425
X0064193
X0070098
X0074429
X0070472Y0776772
Y0773622
Y0770472
Y0767323
Y0764173
Y0758661
Y0755512
Y0752362
Y0749213
Y0746063
Y0742913
X0064173
Y0746063
Y0749213
Y0752362
Y0755512
Y0758661
Y0764173
Y0767323
Y0770472
Y0773622
Y0776772
X0048425Y0781496
X005Y0784646
X0048819Y0792126
X0020886Y0798425
X0016555
X001065
X0005925
Y0804724
X0009862
X0013406
X0017343
X0020886
X0016929Y0776772
Y0773622
Y0770472
Y0767323
Y0764173
Y0758661
Y0755512
Y0752362
Y0749213
Y0746063
Y0742913
X001063
Y0746063
Y0749213
Y0752362
Y0755512
Y0758661
Y0764173
Y0767323
Y0770472
Y0773622
Y0776772
X0032677Y0763779
Y076063
X0035827
Y0763779
Y075748
Y0754331
Y0751181
X0032677
Y0754331
Y075748
Y0748032
Y0744882
X0035827
Y0748032
Y0741732
X0032677
X0086221Y0742126
Y0745276
Y0748425
Y0751575
Y0754724
Y0757874
Y0761024
Y0764173
X0035827Y0831496
Y0834646
X0032677
X0029528
X0026378
Y0831496
X0029528
X0032677
X0111811Y0876772
X0129134
X0218898
X0236221
X0325984
X0343307
X0433071
X0450394
T03
X0526968Y0348307
Y0358307
Y0368307
Y0378307
Y0388307
T04
X051063Y0661811
Y0675591
Y068937
T05
X0050394Y0016732
X0066929
X0083465
Y0038386
X0066929
X0050394
X015748
X0174016
X0190551
Y0016732
X0174016
X015748
X0264567
X0281102
X0297638
Y0038386
X0281102
X0264567
X0371654
X0388189
Y0016732
X0371654
X0404724
Y0038386
Y0845472
Y0867126
X0388189
X0371654
Y0845472
X0388189
X0297638
X0281102
X0264567
Y0867126
X0281102
X0297638
X0190551
X0174016
X015748
Y0845472
X0174016
X0190551
X0083465
X0066929
X0050394
Y0867126
X0066929
X0083465
T06
X0019685Y0019685
X0515748
X0413386Y0244094
X0216535
X0019685
X0413386Y0440945
X0216535
X0019685
Y0637795
X0216535
X0413386
X0515748Y0862205
X0019685
M30
