%
T1C.2F0S0
X47000Y102700
X45400Y102700
X43800Y102700
X46200Y102700
X44600Y102700
X43000Y102700
X44600Y103500
X43000Y103500
X47000Y103500
X45400Y103500
X43800Y103500
X46200Y103500
X42200Y103500
X43800Y104300
X45400Y104300
X42200Y104300
X47000Y104300
X46200Y104300
X44600Y104300
X43000Y104300
X47000Y105100
X43000Y105100
X45400Y105100
X46200Y105100
X43800Y105100
X44600Y105100
X42200Y105100
X44600Y105900
X42200Y105900
X46200Y105900
X47000Y105900
X43000Y105900
X45400Y105900
X43800Y105900
X46200Y106700
X47000Y106700
X43000Y106700
X43800Y106700
X42200Y106700
X45400Y106700
X44600Y106700
X47000Y107500
X45400Y107500
X43800Y107500
X42200Y107500
X46200Y107500
X44600Y107500
X43000Y107500
X46200Y108300
X44600Y108300
X43000Y108300
X47000Y108300
X45400Y108300
X43800Y108300
X42200Y108300
X45400Y109100
X43800Y109100
X42200Y109100
X46200Y109100
X47000Y109100
X44600Y109100
X43000Y109100
X43000Y109900
X46200Y109900
X47000Y109900
X45400Y109900
X43800Y109900
X44600Y109900
X42200Y109900
X42200Y110700
X47000Y110700
X46200Y110700
X44600Y110700
X43800Y110700
X43000Y110700
X45400Y110700
X47000Y112300
X43000Y112300
X45400Y112300
X46200Y112300
X44600Y112300
X43800Y112300
X42200Y112300
X46200Y113100
X43800Y113100
X44600Y113100
X43000Y113100
X42200Y113100
X47000Y113100
X45400Y113100
X44600Y113900
X45400Y113900
X46200Y113900
X43000Y113900
X43800Y113900
X47000Y113900
X42200Y113900
X44600Y114700
X47000Y114700
X45400Y114700
X43000Y114700
X46200Y114700
X42200Y114700
X43800Y114700
X47000Y115500
X43800Y115500
X46200Y115500
X42200Y115500
X45400Y115500
X43000Y115500
X44600Y115500
X43800Y116300
X46200Y116300
X43000Y116300
X44600Y116300
X45400Y116300
X47000Y116300
X42200Y116300
X46200Y117100
X44600Y117100
X43000Y117100
X47000Y117100
X45400Y117100
X43800Y117100
X42200Y117100
X45400Y117900
X43800Y117900
X42200Y117900
X47000Y117900
X46200Y117900
X44600Y117900
X43000Y117900
X47000Y118700
X44600Y118700
X43000Y118700
X45400Y118700
X46200Y118700
X43800Y118700
X42200Y118700
X44600Y119500
X47000Y119500
X46200Y119500
X43000Y119500
X43800Y119500
X45400Y119500
X44600Y120300
X47000Y120300
X46200Y120300
X43000Y120300
X43800Y152700
X45400Y152700
X47000Y152700
X44600Y153500
X46200Y153500
X43800Y153500
X45400Y153500
X47000Y153500
X45400Y154300
X47000Y154300
X44600Y154300
X43800Y154300
X46200Y154300
X46200Y155100
X43800Y155100
X45400Y155100
X44600Y155100
X47000Y155100
X43000Y155900
X42200Y155900
X45400Y155900
X44600Y155900
X43800Y155900
X46200Y155900
X47000Y155900
X42200Y156700
X44600Y156700
X45400Y156700
X46200Y156700
X43000Y156700
X43800Y156700
X47000Y156700
X43800Y157500
X42200Y157500
X46200Y157500
X45400Y157500
X43000Y157500
X47000Y157500
X44600Y157500
X43000Y158300
X44600Y158300
X46200Y158300
X42200Y158300
X43800Y158300
X45400Y158300
X47000Y158300
X43800Y159100
X45400Y159100
X47000Y159100
X43000Y159100
X44600Y159100
X42200Y159100
X46200Y159100
X44600Y159900
X46200Y159900
X42200Y159900
X43800Y159900
X45400Y159900
X43000Y159900
X47000Y159900
X45400Y160700
X47000Y160700
X42200Y160700
X43000Y160700
X44600Y160700
X43800Y160700
X46200Y160700
X46200Y162300
X42200Y162300
X43800Y162300
X43000Y162300
X44600Y162300
X45400Y162300
X47000Y162300
X47000Y163100
X45400Y163100
X43000Y163100
X44600Y163100
X43800Y163100
X42200Y163100
X46200Y163100
X46200Y163900
X43800Y163900
X45400Y163900
X42200Y163900
X44600Y163900
X43000Y163900
X47000Y163900
X43800Y164700
X45400Y164700
X42200Y164700
X44600Y164700
X47000Y164700
X46200Y164700
X43000Y164700
X42200Y165500
X43000Y165500
X45400Y165500
X43800Y165500
X44600Y165500
X46200Y165500
X47000Y165500
X43800Y166300
X44600Y166300
X46200Y166300
X47000Y166300
X45400Y166300
X43000Y166300
X42200Y166300
X45400Y167100
X44600Y167100
X43000Y167100
X46200Y167100
X42200Y167100
X43800Y167100
X47000Y167100
X42200Y167900
X43800Y167900
X45400Y167900
X47000Y167900
X43000Y167900
X44600Y167900
X46200Y167900
X43000Y168700
X46200Y168700
X42200Y168700
X43800Y168700
X45400Y168700
X44600Y168700
X47000Y168700
X45400Y169500
X42200Y169500
X43000Y169500
X43800Y169500
X44600Y169500
X46200Y169500
X47000Y169500
X46200Y170300
X45400Y170300
X43000Y170300
X44600Y170300
X43800Y170300
X47000Y170300
X47800Y170300
X49400Y170300
X48600Y170300
X50200Y170300
X51800Y170300
X53400Y170300
X52600Y170300
X48600Y169500
X50200Y169500
X47800Y169500
X49400Y169500
X52600Y169500
X51800Y169500
X53400Y169500
X47800Y168700
X49400Y168700
X48600Y168700
X50200Y168700
X51800Y168700
X53400Y168700
X52600Y168700
X48600Y167900
X50200Y167900
X47800Y167900
X49400Y167900
X52600Y167900
X51800Y167900
X53400Y167900
X47800Y167100
X49400Y167100
X48600Y167100
X50200Y167100
X51800Y167100
X53400Y167100
X52600Y167100
X48600Y166300
X50200Y166300
X47800Y166300
X49400Y166300
X52600Y166300
X51800Y166300
X53400Y166300
X47800Y165500
X49400Y165500
X48600Y165500
X50200Y165500
X51800Y165500
X53400Y165500
X52600Y165500
X48600Y164700
X50200Y164700
X47800Y164700
X49400Y164700
X52600Y164700
X51800Y164700
X53400Y164700
X47800Y163900
X49400Y163900
X48600Y163900
X50200Y163900
X51800Y163900
X53400Y163900
X52600Y163900
X48600Y163100
X50200Y163100
X47800Y163100
X49400Y163100
X52600Y163100
X51800Y163100
X53400Y163100
X47800Y162300
X49400Y162300
X48600Y162300
X50200Y162300
X51800Y162300
X53400Y162300
X52600Y162300
X48600Y160700
X50200Y160700
X47800Y160700
X49400Y160700
X52600Y160700
X51800Y160700
X53400Y160700
X47800Y159900
X49400Y159900
X48600Y159900
X50200Y159900
X51800Y159900
X53400Y159900
X52600Y159900
X48600Y159100
X50200Y159100
X47800Y159100
X49400Y159100
X52600Y159100
X51800Y159100
X53400Y159100
X47800Y158300
X49400Y158300
X48600Y158300
X50200Y158300
X51800Y158300
X53400Y158300
X52600Y158300
X48600Y157500
X50200Y157500
X47800Y157500
X49400Y157500
X52600Y157500
X51800Y157500
X53400Y157500
X47800Y156700
X49400Y156700
X48600Y156700
X50200Y156700
X51800Y156700
X53400Y156700
X52600Y156700
X48600Y155900
X50200Y155900
X47800Y155900
X49400Y155900
X52600Y155900
X51800Y155900
X53400Y155900
X49400Y155100
X47800Y155100
X48600Y155100
X50200Y155100
X51800Y155100
X53400Y155100
X52600Y155100
X48600Y154300
X47800Y154300
X52600Y154300
X51800Y154300
X49400Y154300
X53400Y154300
X50200Y153500
X51800Y153500
X48600Y153500
X47800Y153500
X53400Y153500
X52600Y153500
X49400Y153500
X50200Y152700
X52600Y152700
X48600Y152700
X51800Y120300
X53400Y120300
X49400Y120300
X53400Y119500
X51800Y119500
X52600Y119500
X49400Y119500
X50200Y119500
X47800Y119500
X48600Y119500
X53400Y118700
X47800Y118700
X48600Y118700
X49400Y118700
X50200Y118700
X52600Y118700
X49400Y117900
X50200Y117900
X51800Y117900
X53400Y117900
X47800Y117900
X52600Y117900
X48600Y117900
X47800Y117100
X53400Y117100
X48600Y117100
X51800Y117100
X49400Y117100
X50200Y117100
X52600Y117100
X52600Y116300
X50200Y116300
X51800Y116300
X47800Y116300
X53400Y116300
X48600Y116300
X49400Y116300
X53400Y115500
X52600Y115500
X51800Y115500
X49400Y115500
X47800Y115500
X50200Y115500
X48600Y115500
X51800Y114700
X47800Y114700
X53400Y114700
X50200Y114700
X48600Y114700
X52600Y114700
X49400Y114700
X51800Y113900
X53400Y113900
X52600Y113900
X49400Y113900
X47800Y113900
X50200Y113900
X48600Y113900
X51800Y113100
X47800Y113100
X53400Y113100
X52600Y113100
X48600Y113100
X49400Y113100
X50200Y113100
X53400Y112300
X52600Y112300
X49400Y112300
X51800Y112300
X47800Y112300
X50200Y112300
X48600Y112300
X51800Y110700
X53400Y110700
X47800Y110700
X50200Y110700
X48600Y110700
X49400Y110700
X52600Y110700
X53400Y109900
X48600Y109900
X52600Y109900
X49400Y109900
X51800Y109900
X47800Y109900
X50200Y109900
X47800Y109100
X52600Y109100
X48600Y109100
X53400Y109100
X50200Y109100
X49400Y109100
X51800Y109100
X53400Y108300
X49400Y108300
X52600Y108300
X47800Y108300
X48600Y108300
X50200Y108300
X51800Y108300
X53400Y107500
X48600Y107500
X51800Y107500
X47800Y107500
X49400Y107500
X52600Y107500
X50200Y107500
X53400Y106700
X49400Y106700
X47800Y106700
X52600Y106700
X51800Y106700
X48600Y106700
X50200Y106700
X53400Y105900
X49400Y105900
X47800Y105900
X50200Y105900
X48600Y105900
X51800Y105900
X52600Y105900
X47800Y105100
X52600Y105100
X53400Y105100
X51800Y105100
X49400Y105100
X48600Y105100
X50200Y105100
X51800Y104300
X49400Y104300
X52600Y104300
X48600Y104300
X53400Y104300
X50200Y104300
X47800Y104300
X51800Y103500
X53400Y103500
X49400Y103500
X47800Y103500
X52600Y103500
X50200Y103500
X48600Y103500
X52600Y102700
X53400Y102700
X48600Y102700
X51800Y102700
X50200Y102700
X49400Y102700
X47800Y102700
X56600Y102700
X55000Y102700
X59000Y102700
X55800Y102700
X54200Y102700
X57400Y102700
X58200Y102700
X55800Y103500
X54200Y103500
X59800Y103500
X57400Y103500
X55000Y103500
X58200Y103500
X56600Y103500
X59000Y103500
X59000Y104300
X55800Y104300
X54200Y104300
X55000Y104300
X57400Y104300
X56600Y104300
X59800Y104300
X58200Y104300
X59800Y105100
X57400Y105100
X55800Y105100
X55000Y105100
X58200Y105100
X56600Y105100
X54200Y105100
X59000Y105100
X59000Y105900
X55800Y105900
X55000Y105900
X54200Y105900
X56600Y105900
X57400Y105900
X59800Y105900
X58200Y105900
X55800Y106700
X58200Y106700
X55000Y106700
X56600Y106700
X59800Y106700
X59000Y106700
X54200Y106700
X57400Y106700
X57400Y107500
X55800Y107500
X54200Y107500
X59000Y107500
X59800Y107500
X58200Y107500
X56600Y107500
X55000Y107500
X56600Y108300
X55000Y108300
X59000Y108300
X57400Y108300
X55800Y108300
X54200Y108300
X59800Y108300
X58200Y108300
X55800Y109100
X57400Y109100
X54200Y109100
X59000Y109100
X59800Y109100
X58200Y109100
X56600Y109100
X55000Y109100
X55000Y109900
X59800Y109900
X59000Y109900
X57400Y109900
X56600Y109900
X55800Y109900
X54200Y109900
X58200Y109900
X54200Y110700
X57400Y110700
X59800Y110700
X58200Y110700
X55800Y110700
X56600Y110700
X55000Y110700
X59000Y110700
X59800Y112300
X58200Y112300
X59000Y112300
X56600Y112300
X57400Y112300
X55800Y112300
X55000Y112300
X54200Y112300
X59800Y113100
X55800Y113100
X58200Y113100
X56600Y113100
X54200Y113100
X55000Y113100
X59000Y113100
X57400Y113100
X56600Y113900
X59000Y113900
X57400Y113900
X59800Y113900
X55800Y113900
X58200Y113900
X54200Y113900
X55000Y113900
X55800Y114700
X58200Y114700
X54200Y114700
X56600Y114700
X59800Y114700
X55000Y114700
X59000Y114700
X57400Y114700
X59000Y115500
X58200Y115500
X57400Y115500
X56600Y115500
X55800Y115500
X54200Y115500
X55000Y115500
X59800Y115500
X55800Y116300
X58200Y116300
X54200Y116300
X59800Y116300
X56600Y116300
X55000Y116300
X59000Y116300
X57400Y116300
X59000Y117100
X57400Y117100
X59800Y117100
X55800Y117100
X55000Y117100
X56600Y117100
X54200Y117100
X58200Y117100
X56600Y117900
X55000Y117900
X58200Y117900
X55800Y117900
X57400Y117900
X54200Y117900
X55000Y118700
X54200Y118700
X55800Y118700
X57400Y118700
X56600Y118700
X58200Y118700
X58200Y119500
X57400Y119500
X55800Y119500
X56600Y119500
X55000Y119500
X54200Y119500
X59000Y120300
X56600Y120300
X55000Y120300
X58200Y120300
X55000Y152700
X55800Y152700
X59000Y152700
X57400Y152700
X59000Y153500
X58200Y153500
X55000Y153500
X55800Y153500
X56600Y153500
X57400Y153500
X54200Y153500
X55000Y154300
X55800Y154300
X56600Y154300
X54200Y154300
X58200Y154300
X57400Y154300
X59000Y154300
X59800Y154300
X59000Y155100
X57400Y155100
X58200Y155100
X59800Y155100
X55000Y155100
X55800Y155100
X54200Y155100
X56600Y155100
X54200Y155900
X55000Y155900
X58200Y155900
X57400Y155900
X55800Y155900
X56600Y155900
X59800Y155900
X59000Y155900
X55800Y156700
X57400Y156700
X58200Y156700
X56600Y156700
X59000Y156700
X55000Y156700
X59800Y156700
X54200Y156700
X59000Y157500
X55800Y157500
X55000Y157500
X54200Y157500
X58200Y157500
X56600Y157500
X59800Y157500
X57400Y157500
X55000Y158300
X56600Y158300
X58200Y158300
X59800Y158300
X54200Y158300
X55800Y158300
X57400Y158300
X59000Y158300
X55800Y159100
X57400Y159100
X59000Y159100
X55000Y159100
X54200Y159100
X56600Y159100
X58200Y159100
X59800Y159100
X56600Y159900
X58200Y159900
X59800Y159900
X54200Y159900
X55800Y159900
X55000Y159900
X57400Y159900
X59000Y159900
X54200Y160700
X59000Y160700
X55000Y160700
X55800Y160700
X56600Y160700
X58200Y160700
X57400Y160700
X59800Y160700
X56600Y162300
X59800Y162300
X54200Y162300
X55800Y162300
X57400Y162300
X58200Y162300
X55000Y162300
X59000Y162300
X55000Y163100
X54200Y163100
X59000Y163100
X55800Y163100
X57400Y163100
X56600Y163100
X58200Y163100
X59800Y163100
X55000Y163900
X59800Y163900
X55800Y163900
X56600Y163900
X57400Y163900
X58200Y163900
X59000Y163900
X54200Y163900
X56600Y164700
X59000Y164700
X55800Y164700
X57400Y164700
X58200Y164700
X54200Y164700
X55000Y164700
X59800Y164700
X56600Y165500
X55000Y165500
X59800Y165500
X57400Y165500
X54200Y165500
X55800Y165500
X59000Y165500
X58200Y165500
X59000Y166300
X58200Y166300
X54200Y166300
X55000Y166300
X56600Y166300
X55800Y166300
X57400Y166300
X59800Y166300
X55800Y167100
X56600Y167100
X59000Y167100
X59800Y167100
X57400Y167100
X54200Y167100
X55000Y167100
X58200Y167100
X54200Y167900
X55800Y167900
X57400Y167900
X59000Y167900
X55000Y167900
X56600Y167900
X58200Y167900
X59800Y167900
X55000Y168700
X58200Y168700
X59800Y168700
X54200Y168700
X55800Y168700
X57400Y168700
X56600Y168700
X59000Y168700
X54200Y169500
X55000Y169500
X55800Y169500
X56600Y169500
X59000Y169500
X57400Y169500
X58200Y169500
X59800Y169500
X57400Y170300
X54200Y170300
X55000Y170300
X58200Y170300
X59000Y170300
X56600Y170300
X55800Y170300
X93000Y170300
X94600Y170300
X96200Y170300
X97800Y170300
X93800Y170300
X95400Y170300
X97000Y170300
X92200Y169500
X93800Y169500
X95400Y169500
X97000Y169500
X93000Y169500
X94600Y169500
X96200Y169500
X97800Y169500
X93000Y168700
X94600Y168700
X96200Y168700
X97800Y168700
X92200Y168700
X93800Y168700
X95400Y168700
X97000Y168700
X92200Y167900
X93800Y167900
X95400Y167900
X97000Y167900
X93000Y167900
X94600Y167900
X96200Y167900
X97800Y167900
X93000Y167100
X94600Y167100
X96200Y167100
X97800Y167100
X92200Y167100
X93800Y167100
X95400Y167100
X97000Y167100
X92200Y166300
X93800Y166300
X95400Y166300
X97000Y166300
X93000Y166300
X94600Y166300
X96200Y166300
X97800Y166300
X93000Y165500
X94600Y165500
X96200Y165500
X97800Y165500
X92200Y165500
X93800Y165500
X95400Y165500
X97000Y165500
X92200Y164700
X93800Y164700
X95400Y164700
X97000Y164700
X93000Y164700
X94600Y164700
X96200Y164700
X97800Y164700
X93000Y163900
X94600Y163900
X96200Y163900
X97800Y163900
X92200Y163900
X93800Y163900
X95400Y163900
X97000Y163900
X92200Y163100
X93800Y163100
X95400Y163100
X97000Y163100
X93000Y163100
X94600Y163100
X96200Y163100
X97800Y163100
X93000Y162300
X94600Y162300
X96200Y162300
X97800Y162300
X92200Y162300
X93800Y162300
X95400Y162300
X97000Y162300
X92200Y160700
X93800Y160700
X95400Y160700
X97000Y160700
X93000Y160700
X94600Y160700
X96200Y160700
X97800Y160700
X93000Y159900
X94600Y159900
X96200Y159900
X97800Y159900
X92200Y159900
X93800Y159900
X95400Y159900
X97000Y159900
X92200Y159100
X93800Y159100
X95400Y159100
X97000Y159100
X93000Y159100
X94600Y159100
X96200Y159100
X97800Y159100
X93000Y158300
X94600Y158300
X96200Y158300
X97800Y158300
X92200Y158300
X93800Y158300
X95400Y158300
X97000Y158300
X94600Y157500
X93000Y157500
X97000Y157500
X92200Y157500
X95400Y157500
X97800Y157500
X96200Y157500
X93800Y157500
X96200Y156700
X94600Y156700
X97000Y156700
X95400Y156700
X93000Y156700
X93800Y156700
X97800Y156700
X92200Y156700
X93000Y155900
X97000Y155900
X92200Y155900
X95400Y155900
X97800Y155900
X96200Y155900
X93800Y155900
X94600Y155900
X94600Y155100
X97000Y155100
X95400Y155100
X93800Y155100
X97800Y155100
X96200Y155100
X97000Y154300
X95400Y154300
X97800Y154300
X96200Y154300
X93800Y154300
X94600Y154300
X94600Y153500
X97000Y153500
X95400Y153500
X93800Y153500
X97800Y153500
X96200Y153500
X97000Y152700
X95400Y152700
X93000Y152700
X93800Y152700
X96200Y120300
X94600Y120300
X93000Y120300
X97000Y120300
X97800Y119500
X96200Y119500
X94600Y119500
X93000Y119500
X95400Y119500
X92200Y119500
X93800Y119500
X97000Y119500
X93800Y118700
X97000Y118700
X95400Y118700
X92200Y118700
X96200Y118700
X93000Y118700
X94600Y118700
X97800Y118700
X93800Y117900
X93000Y117900
X97000Y117900
X97800Y117900
X92200Y117900
X95400Y117900
X96200Y117900
X94600Y117900
X93800Y117100
X93000Y117100
X96200Y117100
X95400Y117100
X97000Y117100
X92200Y117100
X94600Y117100
X97800Y117100
X97000Y116300
X94600Y116300
X96200Y116300
X93000Y116300
X95400Y116300
X93800Y116300
X92200Y116300
X97800Y116300
X97800Y115500
X97000Y115500
X93800Y115500
X92200Y115500
X95400Y115500
X96200Y115500
X94600Y115500
X93000Y115500
X97000Y114700
X94600Y114700
X93000Y114700
X95400Y114700
X93800Y114700
X96200Y114700
X92200Y114700
X97800Y114700
X97000Y113900
X95400Y113900
X92200Y113900
X97800Y113900
X96200Y113900
X94600Y113900
X93800Y113900
X93000Y113900
X94600Y113100
X96200Y113100
X95400Y113100
X93000Y113100
X97000Y113100
X93800Y113100
X92200Y113100
X97800Y113100
X93800Y112300
X97000Y112300
X92200Y112300
X96200Y112300
X94600Y112300
X95400Y112300
X97800Y112300
X93000Y112300
X94600Y110700
X95400Y110700
X97000Y110700
X93800Y110700
X92200Y110700
X93000Y110700
X96200Y110700
X97800Y110700
X92200Y109900
X97000Y109900
X96200Y109900
X95400Y109900
X94600Y109900
X93800Y109900
X97800Y109900
X93000Y109900
X97000Y109100
X95400Y109100
X93000Y109100
X94600Y109100
X96200Y109100
X93800Y109100
X92200Y109100
X97800Y109100
X95400Y108300
X92200Y108300
X96200Y108300
X94600Y108300
X93800Y108300
X93000Y108300
X97800Y108300
X97000Y108300
X95400Y107500
X97800Y107500
X93000Y107500
X96200Y107500
X93800Y107500
X94600Y107500
X97000Y107500
X92200Y107500
X92200Y106700
X96200Y106700
X97800Y106700
X95400Y106700
X97000Y106700
X93000Y106700
X94600Y106700
X93800Y106700
X93000Y105900
X93800Y105900
X97800Y105900
X94600Y105900
X95400Y105900
X97000Y105900
X96200Y105900
X92200Y105900
X96200Y105100
X92200Y105100
X97800Y105100
X95400Y105100
X97000Y105100
X93800Y105100
X93000Y105100
X94600Y105100
X93800Y104300
X97800Y104300
X92200Y104300
X96200Y104300
X95400Y104300
X93000Y104300
X94600Y104300
X97000Y104300
X94600Y103500
X97000Y103500
X92200Y103500
X97800Y103500
X93000Y103500
X96200Y103500
X95400Y103500
X93800Y103500
X93000Y102700
X96200Y102700
X95400Y102700
X97000Y102700
X93800Y102700
X94600Y102700
X97800Y102700
X102600Y102700
X103400Y102700
X98600Y102700
X101800Y102700
X99400Y102700
X104200Y102700
X100200Y102700
X102600Y103500
X99400Y103500
X104200Y103500
X100200Y103500
X98600Y103500
X101800Y103500
X103400Y103500
X98600Y104300
X99400Y104300
X101800Y104300
X104200Y104300
X103400Y104300
X100200Y104300
X102600Y104300
X100200Y105100
X104200Y105100
X98600Y105100
X99400Y105100
X101800Y105100
X102600Y105100
X103400Y105100
X99400Y105900
X103400Y105900
X101800Y105900
X104200Y105900
X100200Y105900
X98600Y105900
X102600Y105900
X98600Y106700
X99400Y106700
X100200Y106700
X103400Y106700
X101800Y106700
X104200Y106700
X102600Y106700
X100200Y107500
X98600Y107500
X104200Y107500
X102600Y107500
X101800Y107500
X99400Y107500
X103400Y107500
X99400Y108300
X102600Y108300
X103400Y108300
X100200Y108300
X98600Y108300
X101800Y108300
X104200Y108300
X98600Y109100
X100200Y109100
X104200Y109100
X102600Y109100
X101800Y109100
X99400Y109100
X103400Y109100
X103400Y109900
X100200Y109900
X98600Y109900
X101800Y109900
X99400Y109900
X104200Y109900
X102600Y109900
X103400Y110700
X104200Y110700
X100200Y110700
X102600Y110700
X101800Y110700
X99400Y110700
X98600Y110700
X103400Y112300
X101800Y112300
X100200Y112300
X99400Y112300
X98600Y112300
X104200Y112300
X102600Y112300
X102600Y113100
X101800Y113100
X99400Y113100
X98600Y113100
X103400Y113100
X104200Y113100
X100200Y113100
X103400Y113900
X99400Y113900
X100200Y113900
X98600Y113900
X101800Y113900
X104200Y113900
X102600Y113900
X102600Y114700
X101800Y114700
X99400Y114700
X98600Y114700
X104200Y114700
X103400Y114700
X100200Y114700
X99400Y115500
X100200Y115500
X98600Y115500
X104200Y115500
X103400Y115500
X102600Y115500
X101800Y115500
X101800Y116300
X104200Y116300
X99400Y116300
X102600Y116300
X100200Y116300
X98600Y116300
X103400Y116300
X99400Y117100
X103400Y117100
X98600Y117100
X102600Y117100
X104200Y117100
X100200Y117100
X101800Y117100
X100200Y117900
X99400Y117900
X103400Y117900
X104200Y117900
X102600Y117900
X98600Y117900
X101800Y117900
X99400Y118700
X98600Y118700
X103400Y118700
X102600Y118700
X104200Y118700
X100200Y118700
X101800Y119500
X100200Y119500
X98600Y119500
X104200Y119500
X102600Y119500
X103400Y119500
X99400Y119500
X101800Y120300
X103400Y120300
X99400Y120300
X102600Y152700
X100200Y152700
X98600Y152700
X102600Y153500
X104200Y153500
X100200Y153500
X103400Y153500
X101800Y153500
X98600Y153500
X99400Y153500
X104200Y154300
X102600Y154300
X98600Y154300
X99400Y154300
X103400Y154300
X101800Y154300
X101800Y155100
X99400Y155100
X104200Y155100
X100200Y155100
X102600Y155100
X103400Y155100
X98600Y155100
X99400Y155900
X104200Y155900
X102600Y155900
X103400Y155900
X100200Y155900
X98600Y155900
X101800Y155900
X102600Y156700
X101800Y156700
X104200Y156700
X99400Y156700
X100200Y156700
X103400Y156700
X98600Y156700
X101800Y157500
X99400Y157500
X104200Y157500
X102600Y157500
X103400Y157500
X98600Y157500
X100200Y157500
X102600Y158300
X104200Y158300
X100200Y158300
X99400Y158300
X103400Y158300
X98600Y158300
X101800Y158300
X103400Y159100
X104200Y159100
X99400Y159100
X100200Y159100
X98600Y159100
X102600Y159100
X101800Y159100
X104200Y159900
X100200Y159900
X101800Y159900
X99400Y159900
X103400Y159900
X98600Y159900
X102600Y159900
X104200Y160700
X101800Y160700
X100200Y160700
X98600Y160700
X99400Y160700
X103400Y160700
X102600Y160700
X102600Y162300
X99400Y162300
X100200Y162300
X104200Y162300
X98600Y162300
X101800Y162300
X103400Y162300
X101800Y163100
X100200Y163100
X104200Y163100
X103400Y163100
X98600Y163100
X99400Y163100
X102600Y163100
X99400Y163900
X104200Y163900
X100200Y163900
X98600Y163900
X102600Y163900
X101800Y163900
X103400Y163900
X101800Y164700
X104200Y164700
X98600Y164700
X100200Y164700
X99400Y164700
X102600Y164700
X103400Y164700
X104200Y165500
X98600Y165500
X101800Y165500
X100200Y165500
X99400Y165500
X102600Y165500
X103400Y165500
X102600Y166300
X98600Y166300
X103400Y166300
X100200Y166300
X99400Y166300
X101800Y166300
X104200Y166300
X100200Y167100
X104200Y167100
X101800Y167100
X102600Y167100
X99400Y167100
X103400Y167100
X98600Y167100
X100200Y167900
X98600Y167900
X99400Y167900
X101800Y167900
X102600Y167900
X104200Y167900
X103400Y167900
X98600Y168700
X100200Y168700
X101800Y168700
X103400Y168700
X102600Y168700
X99400Y168700
X104200Y168700
X98600Y169500
X101800Y169500
X102600Y169500
X100200Y169500
X104200Y169500
X99400Y169500
X103400Y169500
X98600Y170300
X103400Y170300
X102600Y170300
X99400Y170300
X101800Y170300
X100200Y170300
X104200Y170300
X105000Y170300
X106600Y170300
X108200Y170300
X105800Y170300
X107400Y170300
X109000Y170300
X105800Y169500
X107400Y169500
X109000Y169500
X105000Y169500
X106600Y169500
X108200Y169500
X109800Y169500
X105000Y168700
X106600Y168700
X108200Y168700
X109800Y168700
X105800Y168700
X107400Y168700
X109000Y168700
X105800Y167900
X107400Y167900
X109000Y167900
X105000Y167900
X106600Y167900
X108200Y167900
X109800Y167900
X105000Y167100
X106600Y167100
X108200Y167100
X109800Y167100
X105800Y167100
X107400Y167100
X109000Y167100
X105800Y166300
X107400Y166300
X109000Y166300
X105000Y166300
X106600Y166300
X108200Y166300
X109800Y166300
X106600Y165500
X108200Y165500
X109800Y165500
X105800Y165500
X107400Y165500
X105000Y165500
X109000Y165500
X107400Y164700
X109000Y164700
X105000Y164700
X105800Y164700
X106600Y164700
X108200Y164700
X109800Y164700
X109800Y163900
X105800Y163900
X105000Y163900
X107400Y163900
X108200Y163900
X109000Y163900
X106600Y163900
X105000Y163100
X106600Y163100
X109000Y163100
X108200Y163100
X105800Y163100
X107400Y163100
X109800Y163100
X105800Y162300
X109800Y162300
X108200Y162300
X107400Y162300
X106600Y162300
X109000Y162300
X105000Y162300
X105000Y160700
X109000Y160700
X106600Y160700
X107400Y160700
X108200Y160700
X105800Y160700
X109800Y160700
X109800Y159900
X108200Y159900
X105800Y159900
X107400Y159900
X105000Y159900
X109000Y159900
X106600Y159900
X109000Y159100
X106600Y159100
X105800Y159100
X107400Y159100
X108200Y159100
X105000Y159100
X109800Y159100
X107400Y158300
X108200Y158300
X105000Y158300
X106600Y158300
X109000Y158300
X109800Y158300
X105800Y158300
X105800Y157500
X107400Y157500
X109000Y157500
X105000Y157500
X106600Y157500
X108200Y157500
X109800Y157500
X105000Y156700
X106600Y156700
X108200Y156700
X109800Y156700
X105800Y156700
X107400Y156700
X109000Y156700
X105800Y155900
X107400Y155900
X109000Y155900
X105000Y155900
X106600Y155900
X108200Y155900
X109800Y155900
X105000Y155100
X106600Y155100
X108200Y155100
X109800Y155100
X105800Y155100
X107400Y155100
X109000Y155100
X105800Y154300
X107400Y154300
X109000Y154300
X105000Y154300
X106600Y154300
X108200Y154300
X109800Y154300
X106600Y153500
X109800Y153500
X108200Y153500
X105800Y153500
X107400Y153500
X105000Y153500
X109000Y153500
X105800Y152700
X107400Y152700
X109000Y152700
X105000Y152700
X108200Y120300
X106600Y120300
X105000Y120300
X109000Y120300
X105800Y119500
X108200Y119500
X106600Y119500
X105000Y119500
X107400Y119500
X106600Y118700
X105000Y118700
X107400Y118700
X105800Y118700
X108200Y118700
X107400Y117900
X105800Y117900
X108200Y117900
X106600Y117900
X105000Y117900
X106600Y117100
X105000Y117100
X109000Y117100
X107400Y117100
X105800Y117100
X109800Y117100
X108200Y117100
X109000Y116300
X107400Y116300
X106600Y116300
X105000Y116300
X105800Y116300
X109800Y116300
X108200Y116300
X108200Y115500
X105800Y115500
X105000Y115500
X106600Y115500
X109000Y115500
X107400Y115500
X109800Y115500
X107400Y114700
X109000Y114700
X106600Y114700
X105000Y114700
X105800Y114700
X109800Y114700
X108200Y114700
X105000Y113900
X105800Y113900
X109800Y113900
X108200Y113900
X106600Y113900
X107400Y113900
X109000Y113900
X109000Y113100
X105000Y113100
X106600Y113100
X105800Y113100
X107400Y113100
X108200Y113100
X109800Y113100
X109800Y112300
X105000Y112300
X106600Y112300
X107400Y112300
X108200Y112300
X109000Y112300
X105800Y112300
X105000Y110700
X107400Y110700
X109000Y110700
X106600Y110700
X105800Y110700
X108200Y110700
X109800Y110700
X105800Y109900
X106600Y109900
X107400Y109900
X105000Y109900
X109800Y109900
X109000Y109900
X108200Y109900
X105800Y109100
X106600Y109100
X107400Y109100
X108200Y109100
X109000Y109100
X105000Y109100
X109800Y109100
X105000Y108300
X105800Y108300
X109800Y108300
X107400Y108300
X106600Y108300
X109000Y108300
X108200Y108300
X106600Y107500
X105000Y107500
X105800Y107500
X108200Y107500
X109800Y107500
X107400Y107500
X109000Y107500
X107400Y106700
X108200Y106700
X105000Y106700
X109000Y106700
X106600Y106700
X105800Y106700
X109800Y106700
X106600Y105900
X109000Y105900
X105000Y105900
X107400Y105900
X108200Y105900
X109800Y105900
X105800Y105900
X109000Y105100
X109800Y105100
X105800Y105100
X108200Y105100
X106600Y105100
X105000Y105100
X107400Y105100
X109000Y104300
X105000Y104300
X107400Y104300
X108200Y104300
X106600Y104300
X109800Y104300
X105800Y104300
X109800Y103500
X106600Y103500
X108200Y103500
X109000Y103500
X105000Y103500
X105800Y103500
X107400Y103500
X107400Y102700
X108200Y102700
X106600Y102700
X105000Y102700
X105800Y102700
X109000Y102700
T2C.3F95S300
X26500Y37000
X27300Y37000
X28100Y37000
X27300Y37800
X28100Y37800
X26500Y37800
X23200Y47800
X22900Y49700
X23300Y50500
X27300Y51000
X26500Y51000
X26500Y51800
X27300Y51800
X27300Y52600
X26500Y52600
X27300Y53400
X26500Y53400
X27300Y54200
X26500Y54200
X27300Y55000
X26500Y55000
X27300Y55800
X26500Y55800
X27300Y56600
X26500Y56600
X27300Y57400
X26500Y57400
X27300Y58200
X26500Y58200
X27300Y59000
X26500Y59000
X27300Y59800
X26500Y59800
X27300Y60600
X26500Y60600
X25200Y71800
X25200Y72600
X25200Y73400
X25200Y74200
X25200Y75000
X25200Y75825
X23205Y99300
X23205Y100100
X23205Y100900
X23205Y101700
X23205Y109300
X23205Y110100
X23205Y110900
X23205Y111700
X23205Y119400
X23205Y120200
X23205Y121000
X23205Y121800
X23205Y129400
X23205Y130200
X23205Y131000
X23205Y131800
X23205Y149300
X23205Y150100
X23205Y150900
X23205Y151700
X23205Y159300
X23205Y160100
X23205Y160900
X23205Y161700
X23205Y169300
X23205Y170100
X23205Y170900
X23205Y171700
X23305Y179300
X23305Y180100
X23305Y180900
X23305Y181700
X25200Y198100
X25200Y198900
X25200Y199700
X25200Y200500
X25200Y201300
X25200Y202100
X23700Y213200
X25300Y213200
X23700Y214000
X25300Y214000
X24500Y214300
X26100Y214300
X23700Y214800
X25300Y214800
X23700Y215600
X25300Y215600
X26100Y215800
X24500Y215800
X23700Y216400
X25300Y216400
X23700Y217200
X25300Y217200
X25300Y218000
X23700Y218000
X26100Y218000
X24500Y218000
X23700Y218800
X25300Y218800
X23700Y219600
X25300Y219600
X24500Y219900
X26100Y219900
X23700Y220400
X25300Y220400
X23700Y221200
X25300Y221200
X26100Y221400
X24500Y221400
X23700Y222000
X25300Y222000
X23600Y226600
X25100Y226600
X21800Y226800
X27100Y227300
X23700Y227350
X24400Y227350
X25100Y227350
X23100Y227350
X22500Y227350
X25700Y227350
X26300Y227350
X21800Y227400
X27100Y227900
X21800Y228000
X25100Y228100
X23600Y228100
X27100Y228500
X21800Y228600
X25700Y228900
X25100Y228900
X23100Y228900
X26300Y228900
X24400Y228900
X22500Y228900
X23700Y228900
X27100Y229100
X21800Y229200
X27100Y229700
X21800Y229800
X27100Y230300
X21800Y230400
X22000Y231400
X22800Y231400
X23600Y231400
X24400Y231400
X25200Y231400
X26000Y231400
X26800Y231400
X27700Y235700
X26000Y236500
X27700Y236500
X31000Y246500
X31000Y241500
X29300Y236500
X30100Y236500
X28500Y236500
X29300Y235700
X28500Y235700
X30100Y235700
X33400Y225700
X33700Y223800
X33300Y223000
X29300Y222500
X30100Y222500
X30100Y221700
X29300Y221700
X29300Y220900
X30100Y220900
X29300Y220100
X30100Y220100
X29300Y219300
X30100Y219300
X30100Y218500
X29300Y218500
X29300Y217700
X30100Y217700
X30100Y216900
X29300Y216900
X30100Y216100
X29300Y216100
X30100Y215300
X29300Y215300
X29300Y214500
X30100Y214500
X30100Y213700
X29300Y213700
X30100Y212900
X29300Y212900
X31400Y201700
X31400Y200900
X31400Y200100
X31400Y199300
X31400Y198500
X31400Y197675
X33500Y189000
X33500Y184000
X31000Y181500
X33500Y179000
X28805Y176600
X31000Y176500
X28805Y175800
X28805Y175000
X28805Y174200
X33500Y174000
X31000Y171500
X33500Y169000
X28805Y166600
X31000Y166500
X28805Y165800
X28805Y165000
X28805Y164200
X33500Y164000
X31000Y161500
X33500Y159000
X31000Y156500
X28805Y156500
X28805Y155700
X28805Y154900
X28805Y154100
X33500Y154000
X31000Y151500
X33500Y149000
X31000Y146500
X28805Y146500
X28805Y145700
X28805Y144900
X28805Y144100
X33500Y144000
X31000Y141500
X33500Y139000
X31000Y131500
X28805Y126600
X28805Y125800
X28805Y125000
X28805Y124200
X31000Y121500
X33500Y119000
X28805Y116500
X31000Y116500
X28805Y115700
X28805Y114900
X28805Y114100
X33500Y114000
X31000Y111500
X33500Y109000
X28805Y106500
X31000Y106500
X28805Y105700
X28805Y104900
X28805Y104100
X33500Y104000
X31000Y101500
X33500Y99000
X31000Y96500
X28805Y96400
X28805Y95600
X28805Y94800
X33500Y94000
X28805Y94000
X31000Y91500
X33500Y89000
X31000Y86500
X33500Y84000
X31400Y75800
X31400Y75000
X31400Y74200
X31400Y73400
X31400Y72600
X31400Y71800
X32900Y60300
X31300Y60300
X32900Y59500
X31300Y59500
X30500Y59200
X32100Y59200
X32900Y58700
X31300Y58700
X32900Y57900
X31300Y57900
X30500Y57700
X32100Y57700
X32900Y57100
X31300Y57100
X32900Y56300
X31300Y56300
X32900Y55500
X31300Y55500
X32100Y55500
X30500Y55500
X31300Y54700
X32900Y54700
X31300Y53900
X32900Y53900
X32100Y53600
X30500Y53600
X31300Y53100
X32900Y53100
X31300Y52300
X32900Y52300
X32100Y52100
X30500Y52100
X32900Y51500
X31300Y51500
X33000Y46900
X31500Y46900
X29500Y46200
X33500Y46150
X34100Y46150
X32900Y46150
X30900Y46150
X31500Y46150
X32200Y46150
X30300Y46150
X29500Y45600
X33000Y45400
X31500Y45400
X29500Y45000
X32200Y44600
X30300Y44600
X33500Y44600
X30900Y44600
X32900Y44600
X34100Y44600
X31500Y44600
X29500Y44400
X29500Y43800
X29500Y43200
X33800Y42100
X31400Y42100
X32200Y42100
X29800Y42100
X33000Y42100
X30600Y42100
X28900Y37800
X28900Y37000
X31000Y31500
X36000Y31500
X40100Y37000
X40100Y37800
X34600Y42100
X34900Y43100
X34900Y43700
X34900Y44300
X34900Y44900
X34900Y45500
X34900Y46100
X34900Y46700
X36800Y47800
X36500Y49700
X36900Y50500
X40100Y50900
X40100Y51700
X40100Y52500
X40100Y53300
X40100Y54100
X40100Y54900
X40100Y55700
X40100Y56500
X40100Y57300
X40100Y58100
X40100Y58900
X40100Y59700
X40100Y60500
X38800Y71800
X38800Y72600
X38800Y73400
X38800Y74200
X38800Y75000
X38800Y75825
X38500Y84000
X36000Y86500
X38500Y89000
X36000Y91500
X38500Y94000
X36000Y96500
X38500Y99000
X36000Y101500
X38500Y104000
X36000Y106500
X38500Y109000
X36000Y111500
X38500Y114000
X36000Y116500
X35700Y121500
X38930Y122500
X39100Y136500
X36400Y142800
X38500Y144000
X36000Y146500
X38500Y149000
X36000Y151500
X38500Y154000
X36000Y156500
X38500Y159000
X36000Y161500
X38500Y164000
X36000Y166500
X38500Y169000
X36000Y171500
X38500Y174000
X36000Y176500
X38500Y179000
X36000Y181500
X38500Y184000
X36000Y186500
X38500Y189000
X38800Y197700
X38800Y198500
X38800Y199300
X38800Y200100
X38800Y200900
X38800Y201700
X37300Y213200
X38900Y213200
X38900Y214000
X37300Y214000
X39700Y214300
X38100Y214300
X38900Y214800
X37300Y214800
X38900Y215600
X37300Y215600
X39700Y215800
X38100Y215800
X38900Y216400
X37300Y216400
X38900Y217200
X37300Y217200
X39700Y218000
X38100Y218000
X37300Y218000
X38900Y218000
X37300Y218800
X38900Y218800
X37300Y219600
X38900Y219600
X38100Y219900
X39700Y219900
X37300Y220400
X38900Y220400
X37300Y221200
X38900Y221200
X39700Y221400
X38100Y221400
X38900Y222000
X37300Y222000
X37200Y226600
X38700Y226600
X35300Y226800
X40700Y227300
X38000Y227350
X38700Y227350
X39300Y227350
X37300Y227350
X39900Y227350
X36700Y227350
X36100Y227350
X35300Y227400
X40700Y227900
X35300Y228000
X37200Y228100
X38700Y228100
X40700Y228500
X35300Y228600
X38000Y228900
X37300Y228900
X36100Y228900
X39900Y228900
X36700Y228900
X39300Y228900
X38700Y228900
X40700Y229100
X35300Y229200
X40700Y229700
X35300Y229800
X40700Y230300
X35300Y230400
X38000Y231400
X39600Y231400
X36400Y231400
X38800Y231400
X40400Y231400
X35600Y231400
X37200Y231400
X36000Y236500
X36000Y241500
X36000Y246500
X41000Y246500
X46000Y246500
X41000Y241500
X46000Y241500
X46000Y236500
X42900Y236500
X41300Y236500
X43700Y236500
X42100Y236500
X42900Y235700
X41300Y235700
X42100Y235700
X43700Y235700
X47000Y225700
X46900Y223000
X42900Y222600
X43700Y222600
X43700Y221800
X42900Y221800
X42900Y221000
X43700Y221000
X42900Y220200
X43700Y220200
X42900Y219400
X43700Y219400
X42900Y218600
X43700Y218600
X43700Y217800
X42900Y217800
X43700Y217000
X42900Y217000
X43700Y216200
X42900Y216200
X43700Y215400
X42900Y215400
X42900Y214600
X43700Y214600
X43700Y213800
X42900Y213800
X43700Y213000
X42900Y213000
X45000Y201700
X45000Y200900
X45000Y200100
X45000Y199300
X45000Y198500
X45000Y197675
X43500Y189000
X41000Y186500
X46000Y186500
X43500Y184000
X41000Y181500
X46000Y181500
X43500Y179000
X46000Y176500
X41000Y176500
X43500Y174000
X42400Y152700
X42300Y150600
X44405Y149400
X46505Y149400
X43705Y148600
X45905Y147800
X42700Y135200
X44100Y131300
X44400Y126700
X43500Y99000
X41000Y96500
X46000Y96500
X43500Y94000
X41000Y91500
X46000Y91500
X43500Y89000
X46000Y86500
X41000Y86500
X43500Y84000
X45000Y75800
X45000Y75000
X45000Y74200
X45000Y73400
X45000Y72600
X45000Y71800
X40900Y60500
X44900Y60300
X46500Y60300
X40900Y59700
X46500Y59500
X44900Y59500
X45700Y59200
X44100Y59200
X40900Y58900
X44900Y58700
X46500Y58700
X40900Y58100
X46500Y57900
X44900Y57900
X44100Y57700
X45700Y57700
X40900Y57300
X46500Y57100
X44900Y57100
X40900Y56500
X46500Y56300
X44900Y56300
X40900Y55700
X45700Y55500
X44900Y55500
X46500Y55500
X44100Y55500
X40900Y54900
X46500Y54700
X44900Y54700
X40900Y54100
X46500Y53900
X44900Y53900
X45700Y53600
X44100Y53600
X40900Y53300
X46500Y53100
X44900Y53100
X40900Y52500
X46500Y52300
X44900Y52300
X45700Y52100
X44100Y52100
X40900Y51700
X46500Y51500
X44900Y51500
X40900Y50900
X45100Y46900
X46600Y46900
X43100Y46200
X47100Y46150
X43900Y46150
X46500Y46150
X45800Y46150
X45100Y46150
X44500Y46150
X43100Y45600
X46600Y45400
X45100Y45400
X43100Y45000
X45100Y44600
X44500Y44600
X45800Y44600
X43900Y44600
X46500Y44600
X47100Y44600
X43100Y44400
X43100Y43800
X43100Y43200
X45800Y42100
X44200Y42100
X43400Y42100
X46600Y42100
X45000Y42100
X40900Y37800
X42500Y37800
X41700Y37800
X42500Y37000
X40900Y37000
X41700Y37000
X46000Y36500
X41000Y31500
X46000Y31500
X46000Y26500
X49400Y25800
X49400Y26600
X49400Y27400
X49400Y28200
X51000Y31500
X51000Y36500
X47400Y42100
X48200Y42100
X48500Y43100
X48500Y43700
X48500Y44300
X47700Y44600
X48500Y44900
X48500Y45500
X48500Y46100
X47700Y46150
X48500Y46700
X50400Y47800
X50100Y49700
X50500Y50500
X52400Y71800
X52400Y72600
X52400Y73400
X52400Y74200
X52400Y75000
X52400Y75825
X48500Y84000
X53500Y84000
X51000Y86500
X48500Y89000
X53500Y89000
X51000Y91500
X48500Y94000
X53500Y94000
X51000Y96500
X53500Y99000
X48500Y99000
X48500Y144000
X53500Y144000
X51000Y146500
X47205Y148600
X53500Y174000
X48500Y174000
X51000Y176500
X48500Y179000
X53500Y179000
X51000Y181500
X53500Y184000
X48500Y184000
X51000Y186500
X53500Y189000
X48500Y189000
X52400Y197700
X52400Y198500
X52400Y199300
X52400Y200100
X52400Y200900
X52400Y201700
X52500Y213200
X50900Y213200
X52500Y214000
X50900Y214000
X51700Y214300
X53300Y214300
X50900Y214800
X52500Y214800
X52500Y215600
X50900Y215600
X53300Y215800
X51700Y215800
X50900Y216400
X52500Y216400
X52500Y217200
X50900Y217200
X52500Y218000
X53300Y218000
X51700Y218000
X50900Y218000
X50900Y218800
X52500Y218800
X50900Y219600
X52500Y219600
X51700Y219900
X53300Y219900
X50900Y220400
X52500Y220400
X50900Y221200
X52500Y221200
X53300Y221400
X51700Y221400
X50900Y222000
X52500Y222000
X47300Y223800
X50800Y226600
X52300Y226600
X48900Y226800
X53500Y227350
X52900Y227350
X52300Y227350
X50300Y227350
X50900Y227350
X51600Y227350
X49700Y227350
X48900Y227400
X48900Y228000
X52300Y228100
X50800Y228100
X48900Y228600
X49700Y228900
X50300Y228900
X50900Y228900
X52900Y228900
X53500Y228900
X52300Y228900
X51600Y228900
X48900Y229200
X48900Y229800
X48900Y230400
X49200Y231400
X50000Y231400
X50800Y231400
X51600Y231400
X52400Y231400
X53200Y231400
X51000Y236500
X51000Y241500
X49400Y244800
X49400Y245600
X49400Y246400
X49400Y247200
X53800Y247200
X56000Y246500
X53800Y246400
X53800Y245600
X53800Y244800
X56000Y241500
X54900Y236500
X57300Y236500
X56500Y236500
X55700Y236500
X56500Y235700
X55700Y235700
X54900Y235700
X57300Y235700
X54000Y231400
X54300Y230300
X54300Y229700
X54300Y229100
X54300Y228500
X54300Y227900
X54300Y227300
X56500Y222600
X57300Y222600
X57300Y221800
X56500Y221800
X56500Y221000
X57300Y221000
X56500Y220200
X57300Y220200
X56500Y219400
X57300Y219400
X56500Y218600
X57300Y218600
X56500Y217800
X57300Y217800
X56500Y217000
X57300Y217000
X56500Y216200
X57300Y216200
X57300Y215400
X56500Y215400
X56500Y214600
X57300Y214600
X57300Y213800
X56500Y213800
X56500Y213000
X57300Y213000
X58600Y201700
X58600Y200900
X58600Y200100
X58600Y199300
X58600Y198500
X58600Y197675
X58500Y189000
X56000Y186500
X58500Y184000
X56000Y181500
X58500Y179000
X56000Y176500
X58500Y174000
X58800Y134700
X56900Y123400
X58500Y99000
X56000Y96500
X58500Y94000
X56000Y91500
X58500Y89000
X56000Y86500
X58500Y84000
X58600Y75800
X58600Y75000
X58600Y74200
X58600Y73400
X58600Y72600
X58600Y71800
X53700Y60500
X54500Y60500
X58500Y60300
X54500Y59700
X53700Y59700
X58500Y59500
X57700Y59200
X59300Y59200
X53700Y58900
X54500Y58900
X58500Y58700
X54500Y58100
X53700Y58100
X58500Y57900
X57700Y57700
X59300Y57700
X54500Y57300
X53700Y57300
X58500Y57100
X53700Y56500
X54500Y56500
X58500Y56300
X54500Y55700
X53700Y55700
X59300Y55500
X58500Y55500
X53700Y54900
X54500Y54900
X58500Y54700
X53700Y54100
X54500Y54100
X58500Y53900
X59300Y53600
X57700Y53600
X54500Y53300
X53700Y53300
X58500Y53100
X53700Y52500
X54500Y52500
X58500Y52300
X59300Y52100
X57700Y52100
X53700Y51700
X54500Y51700
X58500Y51500
X53700Y50900
X54500Y50900
X58700Y46900
X56700Y46200
X58100Y46150
X57500Y46150
X58700Y46150
X59400Y46150
X56700Y45600
X58700Y45400
X56700Y45000
X58100Y44600
X58700Y44600
X59400Y44600
X57500Y44600
X56700Y44400
X56700Y43800
X56700Y43200
X58600Y42100
X57800Y42100
X57000Y42100
X59400Y42100
X53700Y37800
X55300Y37800
X56100Y37800
X54500Y37800
X54500Y37000
X53700Y37000
X55300Y37000
X56100Y37000
X56000Y31500
X53800Y28200
X53800Y27400
X53800Y26600
X56000Y26500
X53800Y25800
X61000Y26500
X66000Y26500
X61000Y31500
X66000Y31500
X61800Y42100
X60200Y42100
X61000Y42100
X62100Y43100
X62100Y43700
X62100Y44300
X60100Y44600
X61300Y44600
X60700Y44600
X62100Y44900
X60200Y45400
X62100Y45500
X62100Y46100
X60100Y46150
X60700Y46150
X61300Y46150
X62100Y46700
X60200Y46900
X64000Y47800
X63700Y49700
X64100Y50500
X60100Y51500
X60100Y52300
X60100Y53100
X60100Y53900
X60100Y54700
X60100Y55500
X60100Y56300
X60100Y57100
X60100Y57900
X60100Y58700
X60100Y59500
X60100Y60300
X66000Y71800
X66000Y72600
X66000Y73400
X66000Y74200
X66000Y75000
X66000Y75825
X63500Y84000
X66000Y86500
X61000Y86500
X63500Y89000
X66000Y91500
X61000Y91500
X63500Y94000
X61000Y96500
X66000Y96500
X63500Y99000
X66000Y101500
X63500Y104000
X66000Y106500
X63500Y109000
X66000Y111500
X63500Y114000
X66000Y116500
X63500Y119000
X61000Y126500
X66000Y126500
X63500Y129000
X66000Y131500
X61000Y131500
X63500Y134000
X65300Y142800
X63305Y150600
X66000Y156500
X63500Y159000
X66000Y161500
X63500Y164000
X66000Y166500
X63500Y169000
X66000Y171500
X63500Y174000
X66000Y176500
X61000Y176500
X63500Y179000
X61000Y181500
X66000Y181500
X63500Y184000
X61000Y186500
X66000Y186500
X63500Y189000
X66000Y197700
X66000Y198500
X66000Y199300
X66000Y200100
X66000Y200900
X66000Y201700
X66100Y213200
X64500Y213200
X66100Y214000
X64500Y214000
X65300Y214300
X64500Y214800
X66100Y214800
X66100Y215600
X64500Y215600
X65300Y215800
X66100Y216400
X64500Y216400
X64500Y217200
X66100Y217200
X66100Y218000
X65300Y218000
X64500Y218000
X64500Y218800
X66100Y218800
X66100Y219600
X64500Y219600
X65300Y219900
X66100Y220400
X64500Y220400
X64500Y221200
X66100Y221200
X65300Y221400
X64500Y222000
X66100Y222000
X60500Y223000
X60900Y223800
X60600Y225700
X65900Y226600
X64400Y226600
X62500Y226800
X64500Y227350
X63900Y227350
X65200Y227350
X65900Y227350
X63300Y227350
X62500Y227400
X62500Y228000
X65900Y228100
X64400Y228100
X62500Y228600
X63300Y228900
X64500Y228900
X63900Y228900
X65200Y228900
X65900Y228900
X62500Y229200
X62500Y229800
X62500Y230400
X62800Y231400
X63600Y231400
X66000Y231400
X64400Y231400
X65200Y231400
X66000Y236500
X61000Y236500
X66000Y241500
X61000Y246500
X66000Y246500
X71000Y246500
X71000Y241500
X69300Y236500
X70900Y236500
X70100Y236500
X68500Y236500
X69300Y235700
X70100Y235700
X68500Y235700
X70900Y235700
X67600Y231400
X66800Y231400
X67900Y230300
X67900Y229700
X67900Y229100
X67100Y228900
X66500Y228900
X67900Y228500
X67900Y227900
X66500Y227350
X67100Y227350
X67900Y227300
X70100Y222700
X70900Y222700
X70900Y221900
X70100Y221900
X66900Y221400
X70100Y221100
X70900Y221100
X70100Y220300
X70900Y220300
X66900Y219900
X70100Y219500
X70900Y219500
X70900Y218700
X70100Y218700
X66900Y218000
X70100Y217900
X70900Y217900
X70900Y217100
X70100Y217100
X70100Y216300
X70900Y216300
X66900Y215800
X70900Y215500
X70100Y215500
X70900Y214700
X70100Y214700
X66900Y214300
X70900Y213900
X70100Y213900
X70900Y213100
X70100Y213100
X72200Y201700
X72200Y200900
X72200Y200100
X72200Y199300
X72200Y198500
X72200Y197675
X68500Y189000
X71000Y186500
X68500Y184000
X71000Y181500
X68500Y179000
X71000Y176500
X68500Y174000
X71000Y171500
X68500Y169000
X71000Y166500
X68500Y164000
X71000Y161500
X68500Y159000
X71000Y156500
X68500Y154000
X66300Y151500
X71000Y146500
X71000Y141500
X68500Y134000
X71000Y131500
X68500Y129000
X71000Y126500
X68500Y119000
X71000Y116500
X68500Y114000
X71000Y111500
X68500Y109000
X71000Y106500
X68500Y104000
X71000Y101500
X68500Y99000
X71000Y96500
X68500Y94000
X71000Y91500
X68500Y89000
X71000Y86500
X68500Y84000
X72200Y75800
X72200Y75000
X72200Y74200
X72200Y73400
X72200Y72600
X72200Y71800
X67300Y60400
X68100Y60400
X72100Y60300
X67300Y59600
X68100Y59600
X72100Y59500
X71300Y59200
X68100Y58800
X67300Y58800
X72100Y58700
X67300Y58000
X68100Y58000
X72100Y57900
X71300Y57700
X67300Y57200
X68100Y57200
X72100Y57100
X67300Y56400
X68100Y56400
X72100Y56300
X68100Y55600
X67300Y55600
X72100Y55500
X71300Y55500
X68100Y54800
X67300Y54800
X72100Y54700
X68100Y54000
X67300Y54000
X72100Y53900
X71300Y53600
X68100Y53200
X67300Y53200
X72100Y53100
X67300Y52400
X68100Y52400
X72100Y52300
X71300Y52100
X67300Y51600
X68100Y51600
X72100Y51500
X67300Y50800
X68100Y50800
X72300Y46900
X70300Y46200
X71100Y46150
X72300Y46150
X71700Y46150
X70300Y45600
X72300Y45400
X70300Y45000
X72300Y44600
X71700Y44600
X71100Y44600
X70300Y44400
X70300Y43800
X70300Y43200
X71400Y42100
X72200Y42100
X70600Y42100
X68100Y37800
X69700Y37800
X67300Y37800
X68900Y37800
X67300Y37000
X68900Y37000
X69700Y37000
X68100Y37000
X71000Y31500
X71000Y26500
X76600Y25900
X76600Y26700
X76600Y27500
X76600Y28300
X76000Y31500
X73000Y42100
X73800Y42100
X74600Y42100
X75400Y42100
X75700Y43100
X75700Y43700
X75700Y44300
X73700Y44600
X74300Y44600
X73000Y44600
X74900Y44600
X75700Y44900
X73800Y45400
X75700Y45500
X75700Y46100
X74300Y46150
X73700Y46150
X73000Y46150
X74900Y46150
X75700Y46700
X73800Y46900
X77600Y47800
X77300Y49700
X77700Y50500
X73700Y51500
X72900Y52100
X73700Y52300
X73700Y53100
X72900Y53600
X73700Y53900
X73700Y54700
X73700Y55500
X72900Y55500
X73700Y56300
X73700Y57100
X72900Y57700
X73700Y57900
X73700Y58700
X72900Y59200
X73700Y59500
X73700Y60300
X73500Y94000
X78500Y94000
X76000Y96500
X78500Y99000
X73500Y99000
X76000Y101500
X78500Y104000
X73500Y104000
X76000Y106500
X78500Y109000
X73500Y109000
X76000Y111500
X73500Y114000
X78500Y114000
X76000Y116500
X78500Y119000
X73500Y119000
X76000Y126500
X73500Y129000
X78500Y129000
X76000Y141500
X73500Y144000
X78500Y144000
X76000Y146500
X78500Y154000
X73500Y154000
X76000Y156500
X78500Y159000
X73500Y159000
X76000Y161500
X73500Y164000
X78500Y164000
X76000Y166500
X78500Y169000
X73500Y169000
X76000Y171500
X73500Y174000
X78500Y174000
X76000Y176500
X78500Y179000
X73500Y179000
X76000Y181500
X78100Y213200
X78100Y214000
X78900Y214300
X78100Y214800
X78100Y215600
X78900Y215800
X78100Y216400
X78100Y217200
X78100Y218000
X78900Y218000
X78100Y218800
X78100Y219600
X78900Y219900
X78100Y220400
X78100Y221200
X78900Y221400
X78100Y222000
X74100Y223000
X74500Y223800
X74200Y225700
X78000Y226600
X76100Y226800
X77500Y227350
X78100Y227350
X76900Y227350
X78800Y227350
X76100Y227400
X76100Y228000
X78000Y228100
X76100Y228600
X78100Y228900
X77500Y228900
X78800Y228900
X76900Y228900
X76100Y229200
X76100Y229800
X76100Y230400
X78000Y231400
X78800Y231400
X77200Y231400
X76400Y231400
X76000Y236500
X76000Y241500
X76600Y244800
X76600Y245600
X76600Y246400
X76600Y247200
X81000Y247200
X81000Y246400
X81000Y245600
X81000Y244800
X81000Y241500
X81000Y236500
X84500Y236500
X83700Y236500
X82900Y236500
X82100Y236500
X83700Y235700
X82100Y235700
X82900Y235700
X84500Y235700
X79600Y231400
X81200Y231400
X80400Y231400
X81500Y230300
X81500Y229700
X81500Y229100
X80100Y228900
X80700Y228900
X79500Y228900
X81500Y228500
X79500Y228100
X81500Y227900
X80700Y227350
X80100Y227350
X79500Y227350
X81500Y227300
X79500Y226600
X83700Y222700
X84500Y222700
X79700Y222000
X84500Y221900
X83700Y221900
X80500Y221400
X79700Y221200
X83700Y221100
X84500Y221100
X79700Y220400
X83700Y220300
X84500Y220300
X80500Y219900
X79700Y219600
X83700Y219500
X84500Y219500
X79700Y218800
X83700Y218700
X84500Y218700
X80500Y218000
X79700Y218000
X84500Y217900
X83700Y217900
X79700Y217200
X84500Y217100
X83700Y217100
X79700Y216400
X84500Y216300
X83700Y216300
X80500Y215800
X79700Y215600
X84500Y215500
X83700Y215500
X79700Y214800
X83700Y214700
X84500Y214700
X80500Y214300
X79700Y214000
X84500Y213900
X83700Y213900
X79700Y213200
X83700Y213100
X84500Y213100
X79600Y201700
X79600Y200900
X79600Y200100
X79600Y199300
X79600Y198500
X79600Y197700
X83500Y189000
X83500Y184000
X81000Y181500
X83500Y179000
X81000Y176500
X83500Y174000
X81000Y171500
X83500Y169000
X81000Y166500
X83500Y164000
X81000Y161500
X83500Y159000
X81000Y156500
X83500Y154000
X81000Y146500
X83500Y144000
X81000Y141500
X83500Y139000
X81000Y136500
X81000Y126500
X83500Y119000
X81000Y116500
X83500Y114000
X81000Y111500
X83500Y109000
X81000Y106500
X83500Y104000
X81000Y101500
X83500Y99000
X81000Y96500
X83500Y94000
X81000Y91500
X83500Y89000
X81000Y86500
X83500Y84000
X79600Y75825
X79600Y75000
X79600Y74200
X79600Y73400
X79600Y72600
X79600Y71800
X81700Y60400
X80900Y60400
X80900Y59600
X81700Y59600
X84900Y59200
X81700Y58800
X80900Y58800
X81700Y58000
X80900Y58000
X84900Y57700
X81700Y57200
X80900Y57200
X80900Y56400
X81700Y56400
X81700Y55600
X80900Y55600
X84900Y55500
X81700Y54800
X80900Y54800
X81700Y54000
X80900Y54000
X85000Y53600
X81700Y53200
X80900Y53200
X81700Y52400
X80900Y52400
X85000Y52100
X81700Y51600
X80900Y51600
X81700Y50800
X80900Y50800
X83900Y46200
X84700Y46150
X83900Y45600
X83900Y45000
X84700Y44600
X83900Y44400
X83900Y43800
X83900Y43200
X84200Y42100
X85000Y42100
X80900Y37800
X82500Y37800
X81700Y37800
X83300Y37800
X82500Y37000
X80900Y37000
X81700Y37000
X83300Y37000
X81000Y31500
X81000Y28300
X81000Y27500
X81000Y26700
X81000Y25900
X86000Y26500
X91000Y26500
X91000Y31500
X86000Y31500
X88200Y42100
X85800Y42100
X86600Y42100
X87400Y42100
X89000Y42100
X89300Y43100
X89300Y43700
X89300Y44300
X87300Y44600
X85900Y44600
X87900Y44600
X86600Y44600
X88500Y44600
X85300Y44600
X89300Y44900
X85900Y45400
X87400Y45400
X89300Y45500
X89300Y46100
X88500Y46150
X85300Y46150
X87900Y46150
X85900Y46150
X86600Y46150
X87300Y46150
X89300Y46700
X87400Y46900
X85900Y46900
X91200Y47800
X90900Y49700
X91300Y50500
X85700Y51500
X87300Y51500
X86500Y52100
X85700Y52300
X87300Y52300
X85700Y53100
X87300Y53100
X86500Y53600
X85700Y53900
X87300Y53900
X85700Y54700
X87300Y54700
X86500Y55500
X85700Y55500
X87300Y55500
X85700Y56300
X87300Y56300
X85700Y57100
X87300Y57100
X86500Y57700
X85700Y57900
X87300Y57900
X85700Y58700
X87300Y58700
X86500Y59200
X85700Y59500
X87300Y59500
X87300Y60300
X85700Y60300
X85800Y71800
X85800Y72600
X85800Y73400
X85800Y74200
X85800Y75000
X85800Y75800
X88500Y84000
X86000Y86500
X91000Y86500
X88500Y89000
X86000Y91500
X91000Y91500
X88500Y94000
X91000Y96500
X86000Y96500
X88500Y99000
X86000Y101500
X88500Y104000
X86000Y106500
X88500Y109000
X86000Y111500
X88500Y114000
X86000Y116500
X85700Y121500
X88695Y122500
X86800Y130200
X86000Y136500
X89000Y136500
X88500Y139000
X91000Y141500
X86000Y141500
X88500Y144000
X86000Y146500
X91000Y146500
X88500Y154000
X86000Y156500
X88500Y159000
X86000Y161500
X88500Y164000
X86000Y166500
X88500Y169000
X86000Y171500
X88500Y174000
X91000Y176500
X86000Y176500
X88500Y179000
X91000Y181500
X86000Y181500
X88500Y184000
X86000Y186500
X91000Y186500
X88500Y189000
X85800Y197675
X85800Y198500
X85800Y199300
X85800Y200100
X85800Y200900
X85800Y201700
X87700Y223000
X88100Y223800
X87800Y225700
X91600Y226600
X89700Y226800
X91100Y227350
X90500Y227350
X89700Y227400
X89700Y228000
X91600Y228100
X89700Y228600
X90500Y228900
X91100Y228900
X89700Y229200
X89700Y229800
X89700Y230400
X90000Y231400
X91600Y231400
X90800Y231400
X86000Y236500
X91000Y236500
X91000Y241500
X86000Y241500
X86000Y246500
X91000Y246500
X96000Y246500
X96000Y241500
X97300Y236500
X96500Y236500
X95700Y236500
X97300Y235700
X96500Y235700
X95700Y235700
X94800Y231400
X94000Y231400
X93200Y231400
X92400Y231400
X95100Y230300
X95100Y229700
X95100Y229100
X91700Y228900
X92400Y228900
X94300Y228900
X93100Y228900
X93700Y228900
X95100Y228500
X93100Y228100
X95100Y227900
X91700Y227350
X94300Y227350
X92400Y227350
X93700Y227350
X93100Y227350
X95100Y227300
X93100Y226600
X97300Y222600
X91700Y222000
X93300Y222000
X97300Y221800
X94100Y221400
X92500Y221400
X91700Y221200
X93300Y221200
X97300Y221000
X91700Y220400
X93300Y220400
X97300Y220200
X92500Y219900
X94100Y219900
X91700Y219600
X93300Y219600
X97300Y219400
X91700Y218800
X93300Y218800
X97300Y218600
X92500Y218000
X94100Y218000
X93300Y218000
X91700Y218000
X97300Y217800
X93300Y217200
X91700Y217200
X97300Y217000
X93300Y216400
X91700Y216400
X97300Y216200
X92500Y215800
X94100Y215800
X93300Y215600
X91700Y215600
X97300Y215400
X93300Y214800
X91700Y214800
X97300Y214600
X94100Y214300
X92500Y214300
X91700Y214000
X93300Y214000
X97300Y213800
X93300Y213200
X91700Y213200
X97300Y213000
X93200Y201700
X93200Y200900
X93200Y200100
X93200Y199300
X93200Y198500
X93200Y197700
X93500Y189000
X96000Y186500
X93500Y184000
X96000Y181500
X93500Y179000
X96000Y176500
X93500Y174000
X94405Y149400
X96500Y149400
X93705Y148600
X97205Y148600
X92600Y135200
X93500Y99000
X96000Y96500
X93500Y94000
X96000Y91500
X93500Y89000
X96000Y86500
X93500Y84000
X93200Y75825
X93200Y75000
X93200Y74200
X93200Y73400
X93200Y72600
X93200Y71800
X94500Y60500
X95300Y60500
X95300Y59700
X94500Y59700
X94500Y58900
X95300Y58900
X95300Y58100
X94500Y58100
X94500Y57300
X95300Y57300
X94500Y56500
X95300Y56500
X95300Y55700
X94500Y55700
X95300Y54900
X94500Y54900
X95300Y54100
X94500Y54100
X94500Y53300
X95300Y53300
X95300Y52500
X94500Y52500
X95300Y51700
X94500Y51700
X95300Y50900
X94500Y50900
X97500Y46200
X97500Y45600
X97500Y45000
X97500Y44400
X97500Y43800
X97500Y43200
X97800Y42100
X95300Y37800
X96100Y37800
X94500Y37800
X96900Y37800
X96100Y37000
X94500Y37000
X96900Y37000
X95300Y37000
X96000Y31500
X96000Y26500
X103800Y25900
X101000Y26500
X103800Y26700
X103800Y27500
X103800Y28300
X101000Y31500
X99400Y42100
X101800Y42100
X101000Y42100
X102600Y42100
X98600Y42100
X100200Y42100
X102900Y43100
X102900Y43700
X102900Y44300
X100200Y44600
X99500Y44600
X102100Y44600
X100900Y44600
X101500Y44600
X98300Y44600
X98900Y44600
X102900Y44900
X99500Y45400
X101000Y45400
X102900Y45500
X102900Y46100
X98900Y46150
X99500Y46150
X100200Y46150
X101500Y46150
X102100Y46150
X100900Y46150
X98300Y46150
X102900Y46700
X101000Y46900
X99500Y46900
X100900Y51500
X99300Y51500
X98500Y52100
X100100Y52100
X100900Y52300
X99300Y52300
X100900Y53100
X99300Y53100
X100100Y53600
X98500Y53600
X100900Y53900
X99300Y53900
X100900Y54700
X99300Y54700
X100100Y55500
X99300Y55500
X100900Y55500
X98500Y55500
X99300Y56300
X100900Y56300
X99300Y57100
X100900Y57100
X98500Y57700
X100100Y57700
X99300Y57900
X100900Y57900
X99300Y58700
X100900Y58700
X100100Y59200
X98500Y59200
X99300Y59500
X100900Y59500
X100900Y60300
X99300Y60300
X99400Y71800
X99400Y72600
X99400Y73400
X99400Y74200
X99400Y75000
X99400Y75800
X103500Y84000
X98500Y84000
X101000Y86500
X103500Y89000
X98500Y89000
X101000Y91500
X98500Y94000
X103500Y94000
X101000Y96500
X98500Y99000
X103500Y99000
X98500Y144000
X103500Y144000
X101000Y146500
X103500Y174000
X98500Y174000
X101000Y176500
X98500Y179000
X103500Y179000
X101000Y181500
X98500Y184000
X103500Y184000
X101000Y186500
X98500Y189000
X103500Y189000
X99400Y197675
X99400Y198500
X99400Y199300
X99400Y200100
X99400Y200900
X99400Y201700
X98100Y213000
X98100Y213800
X98100Y214600
X98100Y215400
X98100Y216200
X98100Y217000
X98100Y217800
X98100Y218600
X98100Y219400
X98100Y220200
X98100Y221000
X98100Y221800
X98100Y222600
X101300Y223000
X101700Y223800
X101400Y225700
X103300Y226800
X104100Y227350
X103300Y227400
X103300Y228000
X103300Y228600
X104100Y228900
X103300Y229200
X103300Y229800
X103300Y230400
X103600Y231400
X98100Y235700
X98100Y236500
X101000Y236500
X101000Y241500
X103800Y244800
X103800Y245600
X103800Y246400
X101000Y246500
X103800Y247200
X108200Y247200
X108200Y246400
X108200Y245600
X108200Y244800
X106000Y241500
X106000Y236500
X110100Y236500
X109300Y236500
X110100Y235700
X109300Y235700
X108400Y231400
X107600Y231400
X106800Y231400
X106000Y231400
X105200Y231400
X104400Y231400
X108700Y230300
X108700Y229700
X108700Y229100
X106000Y228900
X105300Y228900
X107900Y228900
X104700Y228900
X106700Y228900
X107300Y228900
X108700Y228500
X106700Y228100
X105200Y228100
X108700Y227900
X107900Y227350
X107300Y227350
X104700Y227350
X106700Y227350
X106000Y227350
X105300Y227350
X108700Y227300
X105200Y226600
X106700Y226600
X106900Y222000
X105300Y222000
X107700Y221400
X106100Y221400
X105300Y221200
X106900Y221200
X105300Y220400
X106900Y220400
X106100Y219900
X107700Y219900
X105300Y219600
X106900Y219600
X105300Y218800
X106900Y218800
X107700Y218000
X106100Y218000
X105300Y218000
X106900Y218000
X105300Y217200
X106900Y217200
X106900Y216400
X105300Y216400
X107700Y215800
X106100Y215800
X106900Y215600
X105300Y215600
X105300Y214800
X106900Y214800
X107700Y214300
X106100Y214300
X105300Y214000
X106900Y214000
X105300Y213200
X106900Y213200
X106800Y201700
X106800Y200900
X106800Y200100
X106800Y199300
X106800Y198500
X106800Y197700
X108500Y189000
X106000Y186500
X108500Y184000
X106000Y181500
X108500Y179000
X106000Y176500
X108500Y174000
X107100Y147800
X104700Y128400
X106200Y125200
X107600Y125200
X105500Y124400
X106200Y123400
X108500Y99000
X106000Y96500
X108500Y94000
X106000Y91500
X108500Y89000
X106000Y86500
X108500Y84000
X106800Y75825
X106800Y75000
X106800Y74200
X106800Y73400
X106800Y72600
X106800Y71800
X108100Y60500
X108900Y60500
X108900Y59700
X108100Y59700
X108100Y58900
X108900Y58900
X108900Y58100
X108100Y58100
X108100Y57300
X108900Y57300
X108900Y56500
X108100Y56500
X108100Y55700
X108900Y55700
X108900Y54900
X108100Y54900
X108900Y54100
X108100Y54100
X108900Y53300
X108100Y53300
X108100Y52500
X108900Y52500
X108900Y51700
X108100Y51700
X108900Y50900
X108100Y50900
X104900Y50500
X104500Y49700
X104800Y47800
X108900Y37800
X110500Y37800
X109700Y37800
X108100Y37800
X110500Y37000
X109700Y37000
X108100Y37000
X108900Y37000
X106000Y31500
X108200Y28300
X108200Y27500
X108200Y26700
X108200Y25900
X116000Y26500
X111000Y26500
X116000Y31500
X111000Y31500
X111400Y42100
X112200Y42100
X116200Y42100
X115400Y42100
X113000Y42100
X114600Y42100
X113800Y42100
X116500Y43100
X111100Y43200
X116500Y43700
X111100Y43800
X116500Y44300
X111100Y44400
X111900Y44600
X114500Y44600
X115700Y44600
X113800Y44600
X112500Y44600
X113100Y44600
X115100Y44600
X116500Y44900
X111100Y45000
X114600Y45400
X113100Y45400
X116500Y45500
X111100Y45600
X116500Y46100
X115100Y46150
X112500Y46150
X113800Y46150
X114500Y46150
X111900Y46150
X113100Y46150
X115700Y46150
X111100Y46200
X116500Y46700
X113100Y46900
X114600Y46900
X114500Y51500
X112900Y51500
X113700Y52100
X112100Y52100
X114500Y52300
X112900Y52300
X112900Y53100
X114500Y53100
X113700Y53600
X112100Y53600
X112900Y53900
X114500Y53900
X112900Y54700
X114500Y54700
X113700Y55500
X112100Y55500
X112900Y55500
X114500Y55500
X112900Y56300
X114500Y56300
X112900Y57100
X114500Y57100
X112100Y57700
X113700Y57700
X112900Y57900
X114500Y57900
X112900Y58700
X114500Y58700
X112100Y59200
X113700Y59200
X112900Y59500
X114500Y59500
X114500Y60300
X112900Y60300
X113000Y71800
X113000Y72600
X113000Y73400
X113000Y74200
X113000Y75000
X113000Y75800
X113500Y84000
X116000Y86500
X111000Y86500
X113500Y89000
X116000Y91500
X111000Y91500
X113500Y94000
X116000Y96500
X111000Y96500
X113500Y99000
X116000Y101500
X113500Y104000
X116000Y106500
X113500Y109000
X116000Y111500
X113500Y114000
X116000Y116500
X113800Y119300
X113800Y120900
X114900Y125300
X114900Y126800
X114900Y128400
X116300Y130200
X111000Y134700
X113000Y136500
X112905Y150600
X116300Y151500
X116000Y156500
X113500Y159000
X116000Y161500
X113500Y164000
X116000Y166500
X113500Y169000
X116000Y171500
X113500Y174000
X116000Y176500
X111000Y176500
X113500Y179000
X111000Y181500
X116000Y181500
X113500Y184000
X111000Y186500
X116000Y186500
X113500Y189000
X113000Y197675
X113000Y198500
X113000Y199300
X113000Y200100
X113000Y200900
X113000Y201700
X110900Y213000
X111700Y213000
X110900Y213800
X111700Y213800
X111700Y214600
X110900Y214600
X110900Y215400
X111700Y215400
X110900Y216200
X111700Y216200
X110900Y217000
X111700Y217000
X110900Y217800
X111700Y217800
X111700Y218600
X110900Y218600
X111700Y219400
X110900Y219400
X110900Y220200
X111700Y220200
X111700Y221000
X110900Y221000
X110900Y221800
X111700Y221800
X111700Y222600
X110900Y222600
X114900Y223000
X115300Y223800
X115000Y225700
X116900Y226800
X116900Y227400
X116900Y228000
X116900Y228600
X116900Y229200
X116900Y229800
X116900Y230400
X111700Y235700
X110900Y235700
X110900Y236500
X116000Y236500
X111700Y236500
X111000Y241500
X116000Y241500
X116000Y246500
X111000Y246500
X121000Y246500
X121000Y241500
X121000Y236500
X122900Y236500
X122900Y235700
X122000Y231400
X121200Y231400
X120400Y231400
X119600Y231400
X118800Y231400
X118000Y231400
X117200Y231400
X122300Y230300
X122300Y229700
X122300Y229100
X119600Y228900
X117700Y228900
X118900Y228900
X121500Y228900
X118300Y228900
X120300Y228900
X120900Y228900
X122300Y228500
X120300Y228100
X118800Y228100
X122300Y227900
X121500Y227350
X120900Y227350
X118300Y227350
X117700Y227350
X120300Y227350
X119600Y227350
X118900Y227350
X122300Y227300
X118800Y226600
X120300Y226600
X118900Y222000
X120500Y222000
X121300Y221400
X119700Y221400
X118900Y221200
X120500Y221200
X118900Y220400
X120500Y220400
X119700Y219900
X121300Y219900
X118900Y219600
X120500Y219600
X118900Y218800
X120500Y218800
X119700Y218000
X121300Y218000
X118900Y218000
X120500Y218000
X120500Y217200
X118900Y217200
X120500Y216400
X118900Y216400
X121300Y215800
X119700Y215800
X120500Y215600
X118900Y215600
X120500Y214800
X118900Y214800
X121300Y214300
X119700Y214300
X120500Y214000
X118900Y214000
X118900Y213200
X120500Y213200
X120400Y201700
X120400Y200900
X120400Y200100
X120400Y199300
X120400Y198500
X120400Y197700
X118500Y189000
X121000Y186500
X118500Y184000
X121000Y181500
X118500Y179000
X123205Y176800
X123205Y176000
X123205Y175200
X123205Y174400
X118500Y174000
X121000Y171500
X118500Y169000
X123205Y166800
X121000Y166500
X123205Y166000
X123205Y165200
X123205Y164400
X118500Y164000
X121000Y161500
X118500Y159000
X123205Y156700
X121000Y156500
X123205Y155900
X123205Y155100
X123205Y154300
X118500Y154000
X123205Y146700
X123205Y145900
X123205Y145100
X123205Y144300
X122600Y132600
X119800Y130600
X120800Y130600
X118800Y130000
X121600Y129800
X123205Y128800
X121600Y128700
X123205Y128000
X120100Y127700
X123205Y127200
X123200Y126400
X120100Y124400
X121000Y124400
X121700Y123500
X121700Y122600
X120900Y121700
X123205Y116700
X121000Y116500
X123205Y115900
X123205Y115100
X123205Y114300
X118500Y114000
X121000Y111500
X118500Y109000
X123205Y106700
X121000Y106500
X123205Y105900
X123205Y105100
X123205Y104300
X118500Y104000
X121000Y101500
X118500Y99000
X123205Y96600
X121000Y96500
X123205Y95800
X123205Y95000
X123205Y94200
X118500Y94000
X121000Y91500
X118500Y89000
X121000Y86500
X118500Y84000
X120400Y75825
X120400Y75000
X120400Y74200
X120400Y73400
X120400Y72600
X120400Y71800
X121700Y60600
X122500Y60600
X122500Y59800
X121700Y59800
X122500Y59000
X121700Y59000
X122500Y58200
X121700Y58200
X121700Y57400
X122500Y57400
X121700Y56600
X122500Y56600
X121700Y55800
X122500Y55800
X121700Y55000
X122500Y55000
X121700Y54200
X122500Y54200
X122500Y53400
X121700Y53400
X121700Y52600
X122500Y52600
X121700Y51800
X122500Y51800
X121700Y51000
X122500Y51000
X118500Y50500
X118100Y49700
X118400Y47800
X122500Y37800
X123300Y37800
X121700Y37800
X123300Y37000
X122500Y37000
X121700Y37000
X121000Y31500
X121000Y26500
X126000Y26500
X126000Y31500
X124100Y37000
X124100Y37800
X129000Y42100
X128200Y42100
X127400Y42100
X126600Y42100
X125800Y42100
X125000Y42100
X124700Y43200
X124700Y43800
X124700Y44400
X125500Y44600
X128100Y44600
X129300Y44600
X127400Y44600
X126100Y44600
X126700Y44600
X128700Y44600
X124700Y45000
X126700Y45400
X128200Y45400
X124700Y45600
X128100Y46150
X127400Y46150
X125500Y46150
X126700Y46150
X126100Y46150
X129300Y46150
X128700Y46150
X124700Y46200
X128200Y46900
X126700Y46900
X126500Y51500
X128100Y51500
X125700Y52100
X127300Y52100
X128100Y52300
X126500Y52300
X128100Y53100
X126500Y53100
X125700Y53600
X127300Y53600
X128100Y53900
X126500Y53900
X128100Y54700
X126500Y54700
X127300Y55500
X125700Y55500
X128100Y55500
X126500Y55500
X128100Y56300
X126500Y56300
X126500Y57100
X128100Y57100
X127300Y57700
X125700Y57700
X128100Y57900
X126500Y57900
X128100Y58700
X126500Y58700
X127300Y59200
X125700Y59200
X126500Y59500
X128100Y59500
X126500Y60300
X128100Y60300
X126600Y71400
X126600Y72200
X126600Y73000
X126600Y73800
X126600Y74600
X126600Y75400
X128805Y99200
X128805Y100000
X128805Y100800
X128805Y101600
X128805Y109200
X128805Y110000
X128805Y110800
X128805Y111600
X128800Y118400
X128805Y119200
X128805Y120000
X128805Y120800
X128805Y129200
X128805Y130000
X128805Y130800
X128805Y131600
X128805Y149200
X128805Y150000
X128805Y150800
X128805Y151600
X128805Y159200
X128805Y160000
X128805Y160800
X128805Y161600
X128805Y169200
X128805Y170000
X128805Y170800
X128805Y171600
X128805Y179200
X128805Y180000
X128805Y180800
X128805Y181600
X126600Y197675
X126600Y198500
X126600Y199300
X126600Y200100
X126600Y200900
X126600Y201700
X125300Y212900
X124500Y212900
X124500Y213700
X125300Y213700
X125300Y214500
X124500Y214500
X124500Y215300
X125300Y215300
X125300Y216100
X124500Y216100
X125300Y216900
X124500Y216900
X125300Y217700
X124500Y217700
X125300Y218500
X124500Y218500
X125300Y219300
X124500Y219300
X124500Y220100
X125300Y220100
X125300Y220900
X124500Y220900
X124500Y221700
X125300Y221700
X125300Y222500
X124500Y222500
X128500Y223000
X128900Y223800
X128600Y225700
X123700Y235700
X124500Y235700
X125300Y235700
X125300Y236500
X124500Y236500
X123700Y236500
X126000Y241500
X126000Y246500
X131000Y247200
X135400Y247200
X131000Y246400
X135400Y246400
X131000Y245600
X135400Y245600
X131000Y244800
X135400Y244800
X131000Y241500
X131000Y236500
X132905Y182200
X133705Y182200
X133705Y181400
X132905Y181400
X135700Y163200
X131500Y163000
X133500Y154000
X133500Y125000
X133200Y108100
X133500Y104000
X133500Y99000
X133500Y94000
X133500Y89000
X133500Y84000
X133500Y79000
X133500Y74000
X133500Y69000
X133500Y64000
X133500Y59000
X133500Y54000
X132400Y49900
X130000Y46700
X130000Y46100
X130000Y45500
X130000Y44900
X130000Y44300
X130000Y43700
X130000Y43100
X129800Y42100
X131000Y36500
X131000Y31500
X131000Y28300
X135400Y28300
X135400Y27500
X131000Y27500
X135400Y26700
X131000Y26700
X131000Y25900
X135400Y25900
X138500Y29000
X138500Y34000
X138500Y39000
X139100Y40100
X139800Y40800
X140500Y41500
X141200Y42200
X141900Y42900
X138300Y49000
X138300Y59000
X138300Y64000
X141200Y65700
X139800Y65800
X140500Y66300
X141900Y66300
X139100Y66300
X138500Y69000
X138500Y74000
X138500Y79000
X138500Y84000
X138500Y89000
X138500Y94000
X138500Y99000
X138500Y104000
X141200Y107200
X139600Y108500
X141900Y108700
X138800Y108800
X140400Y108800
X142400Y116000
X138705Y121700
X138700Y122600
X140705Y123000
X138700Y123500
X140405Y123800
X140400Y126900
X137600Y128000
X142100Y129100
X142100Y130000
X140000Y147500
X142200Y151100
X137300Y152500
X140000Y152500
X137500Y168700
X141700Y173500
X142305Y184200
X138500Y199000
X138500Y204000
X138500Y209000
X138500Y214000
X138500Y219000
X138500Y239000
X138500Y244000
X143500Y244000
X148500Y239000
X143500Y239000
X143500Y234000
X148500Y229000
X143100Y150300
X148700Y148500
X148700Y137700
X143300Y125500
X143300Y123000
X143300Y122000
X142600Y108000
X143300Y107400
X144000Y105900
X148500Y104000
X148500Y99000
X148500Y94000
X148500Y89000
X148500Y84000
X148500Y79000
X148500Y74000
X148500Y69000
X143300Y66300
X142600Y65700
X144000Y65700
X148500Y64000
X148500Y59000
X148500Y54000
X148500Y49000
X144000Y45000
X143300Y44300
X148500Y44000
X142600Y43600
X143500Y39000
X143500Y34000
X143500Y29000
X153500Y39000
X153500Y44000
X153500Y49000
X153500Y54000
X153500Y59000
X153500Y64000
X153500Y69000
X153500Y74000
X153500Y79000
X153500Y84000
X153500Y89000
X153500Y94000
X153500Y99000
X153500Y104000
X153500Y109000
X150400Y120700
X149100Y120700
X151200Y122800
X151205Y163000
X153500Y164000
X153500Y169000
X153500Y204000
X153500Y219000
X153500Y224000
X153500Y229000
X153500Y234000
X153500Y239000
T3C.9F197S550
X151500Y148900
X151500Y153300
T4C1.15F139S550
X154850Y112970
X154850Y115510
X154850Y118050
X154850Y120590
X154850Y123130
T5C1.2F139S550
X150700Y192600
X150700Y196100
X150700Y199600
T6C1.8F81S550
X33800Y28750
X38000Y28750
X42200Y28750
X38000Y34250
X33800Y34250
X42200Y34250
X38000Y239250
X33800Y239250
X42200Y239250
X42200Y244750
X38000Y244750
X33800Y244750
X61000Y244750
X65200Y244750
X69400Y244750
X61000Y239250
X65200Y239250
X69400Y239250
X61000Y34250
X69400Y34250
X65200Y34250
X69400Y28750
X65200Y28750
X61000Y28750
X88200Y28750
X96600Y28750
X92400Y28750
X88200Y34250
X96600Y34250
X92400Y34250
X92400Y239250
X96600Y239250
X88200Y239250
X96600Y244750
X92400Y244750
X88200Y244750
X115400Y244750
X119600Y244750
X123800Y244750
X119600Y239250
X115400Y239250
X123800Y239250
X119600Y34250
X115400Y34250
X123800Y34250
X123800Y28750
X119600Y28750
X115400Y28750
T7C4.F35S900
X26000Y29500
X26000Y86500
X26000Y136500
X26000Y186500
X26000Y243500
X76000Y186500
X126000Y186500
X76000Y136500
X126000Y136500
X126000Y86500
X76000Y86500
X152000Y29500
X152000Y243500
M30
