*
*
G04 PADS 9.5 Build Number: 522968 generated Gerber (RS-274-X) file*
G04 PC Version=2.1*
*
%IN "RockerBox_Rev01.pcb"*%
*
%MOMM*%
*
%FSLAX33Y33*%
*
*
*
*
G04 PC Standard Apertures*
*
*
G04 Thermal Relief Aperture macro.*
%AMTER*
1,1,$1,0,0*
1,0,$1-$2,0,0*
21,0,$3,$4,0,0,45*
21,0,$3,$4,0,0,135*
%
*
*
G04 Annular Aperture macro.*
%AMANN*
1,1,$1,0,0*
1,0,$2,0,0*
%
*
*
G04 Odd Aperture macro.*
%AMODD*
1,1,$1,0,0*
1,0,$1-0.005,0,0*
%
*
*
G04 PC Custom Aperture Macros*
*
*
*
*
*
*
G04 PC Aperture Table*
*
%ADD010C,0.0254*%
%ADD011C,0.3*%
%ADD029C,0.2*%
%ADD033C,0.1*%
%ADD035C,0.25*%
%ADD036C,0.15*%
%ADD042C,0.05*%
*
*
*
*
G04 PC Circuitry*
G04 Layer Name RockerBox_Rev01.pcb - circuitry*
%LPD*%
*
G54D10*
G01X153057Y205966D02*
X151900D01*
X151887Y205978*
X151887D02*
Y206455D01*
X151551*
Y205033*
X151551D02*
X151887D01*
X151887D02*
Y205510D01*
X151887D02*
X151900Y205523D01*
X153057*
X153057D02*
Y205966D01*
Y207923D02*
X152721D01*
Y207127*
X152721D02*
X152708Y207114D01*
X152708D02*
X152431D01*
X152431D02*
X152419Y207127D01*
X152419D02*
Y207838D01*
X152125*
Y207127*
X152125D02*
X152112Y207114D01*
X152112D02*
X151900D01*
X151900D02*
X151887Y207127D01*
X151887D02*
Y207902D01*
X151551*
Y206672*
X153057*
X153057D02*
Y207923D01*
X153078Y208936D02*
X153057Y209125D01*
X153057D02*
X153015Y209271D01*
X153015D02*
X152953Y209396D01*
X152953D02*
X152849Y209500D01*
X152849D02*
X152724Y209583D01*
X152724D02*
X152568Y209623D01*
X152447Y209242*
X152447D02*
X152563Y209203D01*
X152563D02*
X152566Y209202D01*
X152672Y209138*
X152672D02*
X152677Y209133D01*
X152719Y209048*
X152719D02*
X152721Y209044D01*
X152721D02*
X152742Y208916D01*
X152742D02*
Y208912D01*
X152742D02*
X152721Y208785D01*
X152718Y208779*
X152718D02*
X152654Y208694D01*
X152654D02*
X152650Y208690D01*
X152650D02*
X152522Y208626D01*
X152522D02*
X152518Y208625D01*
X152518D02*
X152305Y208604D01*
X152305D02*
X152302D01*
X152302D02*
X152132Y208625D01*
X152132D02*
X152130Y208626D01*
X152002Y208668*
X152002D02*
X151996Y208672D01*
X151996D02*
X151911Y208779D01*
X151909Y208783*
X151866Y208910*
X151866D02*
Y208914D01*
X151866D02*
Y208916D01*
X151866D02*
X151887Y209044D01*
X151887D02*
X151890Y209050D01*
X151975Y209156*
X151975D02*
X151980Y209160D01*
X151980D02*
X152076Y209199D01*
X152076D02*
X151997Y209598D01*
X151800Y209499*
X151800D02*
X151654Y209375D01*
X151654D02*
X151550Y209166D01*
X151550D02*
X151529Y208915D01*
X151529D02*
X151550Y208746D01*
X151550D02*
X151571Y208599D01*
X151571D02*
X151634Y208475D01*
X151738Y208349*
X151738D02*
X151843Y208266D01*
X151967Y208203*
X151967D02*
X152304Y208161D01*
X152304D02*
X152556Y208182D01*
X152556D02*
X152765Y208266D01*
X152765D02*
X152911Y208391D01*
X152911D02*
X153015Y208537D01*
X153015D02*
X153057Y208725D01*
X153057D02*
X153078Y208936D01*
X153057Y211306D02*
X151551D01*
Y210863*
X151551D02*
X152070D01*
X152070D02*
X152082Y210851D01*
X152082D02*
Y210319D01*
X152082D02*
X152070Y210306D01*
X151551*
Y209863*
X151551D02*
X153057D01*
X153057D02*
Y210306D01*
X153057D02*
X152453D01*
X152440Y210319*
Y210851*
X152453Y210863*
X152453D02*
X153057D01*
X153057D02*
Y211306D01*
Y213072D02*
X151551D01*
Y212651*
X152389*
X152396Y212627*
X152396D02*
X151551Y212057D01*
Y211629*
X151551D02*
X153057D01*
X153057D02*
Y212051D01*
X153057D02*
X152219D01*
X152212Y212074*
X153057Y212645*
X153057D02*
Y213072D01*
X153078Y214127D02*
X153057Y214359D01*
X153057D02*
X152995Y214546D01*
X152995D02*
X152870Y214692D01*
X152870D02*
X152723Y214797D01*
X152723D02*
X152535Y214859D01*
X152535D02*
X152304Y214880D01*
X152304D02*
X152114Y214859D01*
X152114D02*
X151967Y214838D01*
X151967D02*
X151843Y214776D01*
X151738Y214693*
X151738D02*
X151634Y214567D01*
X151571Y214442*
X151571D02*
X151550Y214296D01*
X151550D02*
X151529Y214106D01*
X151529D02*
X151550Y213938D01*
X151550D02*
X151592Y213791D01*
X151592D02*
X151655Y213666D01*
X151739Y213561*
X151739D02*
X151843Y213457D01*
X151843D02*
X151988Y213395D01*
X151988D02*
X152135Y213374D01*
X152135D02*
X152304Y213353D01*
X152304D02*
X152556Y213374D01*
X152744Y213457*
X152744D02*
X152890Y213562D01*
X152890D02*
X152994Y213729D01*
X152994D02*
X153057Y213896D01*
X153057D02*
X153078Y214127D01*
X152742Y214125D02*
X152721Y213997D01*
X152721D02*
X152718Y213992D01*
X152633Y213885*
X152633D02*
X152629Y213882D01*
X152501Y213818*
X152497Y213817*
X152305Y213795*
X152305D02*
X152302D01*
X152302D02*
X152111Y213817D01*
X152107Y213818*
X151979Y213882*
X151975Y213885*
X151975D02*
X151890Y213992D01*
X151887Y213997*
X151887D02*
X151866Y214103D01*
X151866D02*
Y214106D01*
Y214108*
X151887Y214236*
X151890Y214241*
X151890D02*
X151975Y214348D01*
X151979Y214351*
X151979D02*
X152107Y214415D01*
X152107D02*
X152111Y214416D01*
X152111D02*
X152281Y214438D01*
X152284*
X152497Y214416*
X152497D02*
X152500Y214415D01*
X152500D02*
X152649Y214352D01*
X152649D02*
X152654Y214348D01*
X152654D02*
X152718Y214262D01*
X152718D02*
X152721Y214257D01*
X152742Y214129*
X152742D02*
Y214125D01*
X153057Y216041D02*
X153036Y216189D01*
X153015Y216294*
X153015D02*
X152995Y216354D01*
X152995D02*
X152912Y216437D01*
X152912D02*
X152829Y216499D01*
X152829D02*
X152726Y216540D01*
X152726D02*
X152623Y216561D01*
X152623D02*
X152499Y216540D01*
X152499D02*
X152375Y216478D01*
X152375D02*
X152294Y216397D01*
X152294D02*
X152252Y216251D01*
X152252D02*
X152228Y216250D01*
X152228D02*
X152187Y216354D01*
X152187D02*
X152126Y216415D01*
X152023Y216477*
X151900Y216497*
X151900D02*
X151777Y216477D01*
X151777D02*
X151654Y216374D01*
X151571Y216250*
X151571D02*
X151551Y216041D01*
X151551D02*
Y215161D01*
X151551D02*
X153057D01*
X153057D02*
Y216041D01*
X152721Y215978D02*
Y215617D01*
X152708Y215604*
X152708D02*
X152410D01*
X152410D02*
X152397Y215617D01*
X152397D02*
Y215872D01*
X152397D02*
X152398Y215874D01*
X152398D02*
X152419Y215981D01*
X152419*
X152419D02*
X152440Y216066D01*
X152440D02*
X152447Y216075D01*
X152447D02*
X152490Y216096D01*
X152491Y216097*
X152491D02*
X152555Y216118D01*
X152555D02*
X152563D01*
X152563D02*
X152627Y216097D01*
X152629Y216096*
X152671Y216075*
X152671D02*
X152677Y216069D01*
X152677D02*
X152719Y215984D01*
X152719D02*
X152721Y215978D01*
X152125Y215936D02*
Y215617D01*
X152112Y215604*
X152112D02*
X151857D01*
X151844Y215617*
X151844D02*
Y215936D01*
X151844D02*
X151846Y215943D01*
X151846D02*
X151889Y216007D01*
X151891Y216008*
X151891D02*
X151933Y216051D01*
X151933D02*
X151942Y216055D01*
X151942D02*
X152048D01*
X152048D02*
X152057Y216051D01*
X152057D02*
X152100Y216008D01*
X152100D02*
X152103Y216004D01*
X152103D02*
X152124Y215940D01*
X152124D02*
X152125Y215936D01*
X153057Y217285D02*
X151551D01*
Y216842*
X153057*
X153057D02*
Y217285D01*
Y218476D02*
X151900D01*
X151900D02*
X151887Y218489D01*
Y218966*
X151551*
Y217544*
X151551D02*
X151887D01*
X151887D02*
Y218021D01*
X151900Y218033*
X151900D02*
X153057D01*
X153057D02*
Y218476D01*
X151536Y208862D02*
Y208994D01*
Y214053D02*
Y214165D01*
X151561Y205033D02*
Y206455D01*
Y206672D02*
Y207902D01*
Y208669D02*
Y209188D01*
Y209863D02*
Y210306D01*
Y210863D02*
Y211306D01*
Y211629D02*
Y212064D01*
Y212651D02*
Y213072D01*
Y213900D02*
Y214372D01*
Y215161D02*
Y216149D01*
Y216842D02*
Y217285D01*
Y217544D02*
Y218966D01*
X151587Y205033D02*
Y206455D01*
Y206672D02*
Y207902D01*
Y208568D02*
Y209239D01*
Y209863D02*
Y210306D01*
Y210863D02*
Y211306D01*
Y211629D02*
Y212081D01*
Y212651D02*
Y213072D01*
Y213811D02*
Y214473D01*
Y215161D02*
Y216273D01*
Y216842D02*
Y217285D01*
Y217544D02*
Y218966D01*
X151612Y205033D02*
Y206455D01*
Y206672D02*
Y207902D01*
Y208518D02*
Y209290D01*
Y209863D02*
Y210306D01*
Y210863D02*
Y211306D01*
Y211629D02*
Y212098D01*
Y212651D02*
Y213072D01*
Y213752D02*
Y214524D01*
Y215161D02*
Y216311D01*
Y216842D02*
Y217285D01*
Y217544D02*
Y218966D01*
X151638Y205033D02*
Y206455D01*
Y206672D02*
Y207902D01*
Y208470D02*
Y209341D01*
Y209863D02*
Y210306D01*
Y210863D02*
Y211306D01*
Y211629D02*
Y212115D01*
Y212651D02*
Y213072D01*
Y213701D02*
Y214572D01*
Y215161D02*
Y216350D01*
Y216842D02*
Y217285D01*
Y217544D02*
Y218966D01*
X151663Y205033D02*
Y206455D01*
Y206672D02*
Y207902D01*
Y208439D02*
Y209382D01*
Y209863D02*
Y210306D01*
Y210863D02*
Y211306D01*
Y211629D02*
Y212132D01*
Y212651D02*
Y213072D01*
Y213656D02*
Y214602D01*
Y215161D02*
Y216382D01*
Y216842D02*
Y217285D01*
Y217544D02*
Y218966D01*
X151688Y205033D02*
Y206455D01*
Y206672D02*
Y207902D01*
Y208409D02*
Y209404D01*
Y209863D02*
Y210306D01*
Y210863D02*
Y211306D01*
Y211629D02*
Y212150D01*
Y212651D02*
Y213072D01*
Y213624D02*
Y214633D01*
Y215161D02*
Y216403D01*
Y216842D02*
Y217285D01*
Y217544D02*
Y218966D01*
X151714Y205033D02*
Y206455D01*
Y206672D02*
Y207902D01*
Y208378D02*
Y209425D01*
Y209863D02*
Y210306D01*
Y210863D02*
Y211306D01*
Y211629D02*
Y212167D01*
Y212651D02*
Y213072D01*
Y213593D02*
Y214663D01*
Y215161D02*
Y216424D01*
Y216842D02*
Y217285D01*
Y217544D02*
Y218966D01*
X151739Y205033D02*
Y206455D01*
Y206672D02*
Y207902D01*
Y208348D02*
Y209447D01*
Y209863D02*
Y210306D01*
Y210863D02*
Y211306D01*
Y211629D02*
Y212184D01*
Y212651D02*
Y213072D01*
Y213561D02*
Y214693D01*
Y215161D02*
Y216445D01*
Y216842D02*
Y217285D01*
Y217544D02*
Y218966D01*
X151765Y205033D02*
Y206455D01*
Y206672D02*
Y207902D01*
Y208328D02*
Y209469D01*
Y209863D02*
Y210306D01*
Y210863D02*
Y211306D01*
Y211629D02*
Y212201D01*
Y212651D02*
Y213072D01*
Y213535D02*
Y214714D01*
Y215161D02*
Y216466D01*
Y216842D02*
Y217285D01*
Y217544D02*
Y218966D01*
X151790Y205033D02*
Y206455D01*
Y206672D02*
Y207902D01*
Y208308D02*
Y209491D01*
Y209863D02*
Y210306D01*
Y210863D02*
Y211306D01*
Y211629D02*
Y212218D01*
Y212651D02*
Y213072D01*
Y213510D02*
Y214734D01*
Y215161D02*
Y216479D01*
Y216842D02*
Y217285D01*
Y217544D02*
Y218966D01*
X151815Y205033D02*
Y206455D01*
Y206672D02*
Y207902D01*
Y208287D02*
Y209507D01*
Y209863D02*
Y210306D01*
Y210863D02*
Y211306D01*
Y211629D02*
Y212235D01*
Y212651D02*
Y213072D01*
Y213485D02*
Y214754D01*
Y215161D02*
Y216483D01*
Y216842D02*
Y217285D01*
Y217544D02*
Y218966D01*
X151841Y205033D02*
Y206455D01*
Y206672D02*
Y207902D01*
Y208267D02*
Y209520D01*
Y209863D02*
Y210306D01*
Y210863D02*
Y211306D01*
Y211629D02*
Y212252D01*
Y212651D02*
Y213072D01*
Y213459D02*
Y214774D01*
Y215161D02*
Y216487D01*
Y216842D02*
Y217285D01*
Y217544D02*
Y218966D01*
X151866Y205033D02*
Y206455D01*
Y206672D02*
Y207902D01*
Y208254D02*
Y208911D01*
Y208919D02*
Y209532D01*
Y209863D02*
Y210306D01*
Y210863D02*
Y211306D01*
Y211629D02*
Y212270D01*
Y212651D02*
Y213072D01*
Y213447D02*
Y214102D01*
Y214110D02*
Y214788D01*
Y215161D02*
Y215604D01*
Y215972D02*
Y216492D01*
Y216842D02*
Y217285D01*
Y217544D02*
Y218966D01*
X151892Y205520D02*
Y205968D01*
Y206672D02*
Y207117D01*
Y208241D02*
Y208834D01*
Y209052D02*
Y209545D01*
Y209863D02*
Y210306D01*
Y210863D02*
Y211306D01*
Y211629D02*
Y212287D01*
Y212651D02*
Y213072D01*
Y213436D02*
Y213989D01*
Y214244D02*
Y214800D01*
Y215161D02*
Y215604D01*
Y216009D02*
Y216496D01*
Y216842D02*
Y217285D01*
Y218031D02*
Y218479D01*
X151917Y205523D02*
Y205966D01*
Y206672D02*
Y207114D01*
Y208228D02*
Y208771D01*
Y209084D02*
Y209558D01*
Y209863D02*
Y210306D01*
Y210863D02*
Y211306D01*
Y211629D02*
Y212304D01*
Y212651D02*
Y213072D01*
Y213425D02*
Y213957D01*
Y214276D02*
Y214813D01*
Y215161D02*
Y215604D01*
Y216035D02*
Y216494D01*
Y216842D02*
Y217285D01*
Y218033D02*
Y218476D01*
X151942Y205523D02*
Y205966D01*
Y206672D02*
Y207114D01*
Y208216D02*
Y208740D01*
Y209116D02*
Y209571D01*
Y209863D02*
Y210306D01*
Y210863D02*
Y211306D01*
Y211629D02*
Y212321D01*
Y212651D02*
Y213072D01*
Y213414D02*
Y213926D01*
Y214307D02*
Y214826D01*
Y215161D02*
Y215604D01*
Y216055D02*
Y216490D01*
Y216842D02*
Y217285D01*
Y218033D02*
Y218476D01*
X151968Y205523D02*
Y205966D01*
Y206672D02*
Y207114D01*
Y208203D02*
Y208708D01*
Y209148D02*
Y209583D01*
Y209863D02*
Y210306D01*
Y210863D02*
Y211306D01*
Y211629D02*
Y212338D01*
Y212651D02*
Y213072D01*
Y213404D02*
Y213894D01*
Y214339D02*
Y214838D01*
Y215161D02*
Y215604D01*
Y216055D02*
Y216486D01*
Y216842D02*
Y217285D01*
Y218033D02*
Y218476D01*
X151993Y205523D02*
Y205966D01*
Y206672D02*
Y207114D01*
Y208200D02*
Y208676D01*
Y209166D02*
Y209596D01*
Y209863D02*
Y210306D01*
Y210863D02*
Y211306D01*
Y211629D02*
Y212355D01*
Y212651D02*
Y213072D01*
Y213394D02*
Y213875D01*
Y214358D02*
Y214842D01*
Y215161D02*
Y215604D01*
Y216055D02*
Y216482D01*
Y216842D02*
Y217285D01*
Y218033D02*
Y218476D01*
X152019Y205523D02*
Y205966D01*
Y206672D02*
Y207114D01*
Y208197D02*
Y208663D01*
Y209176D02*
Y209489D01*
Y209863D02*
Y210306D01*
Y210863D02*
Y211306D01*
Y211629D02*
Y212372D01*
Y212651D02*
Y213072D01*
Y213390D02*
Y213862D01*
Y214371D02*
Y214846D01*
Y215161D02*
Y215604D01*
Y216055D02*
Y216477D01*
Y216842D02*
Y217285D01*
Y218033D02*
Y218476D01*
X152044Y205523D02*
Y205966D01*
Y206672D02*
Y207114D01*
Y208194D02*
Y208654D01*
Y209186D02*
Y209362D01*
Y209863D02*
Y210306D01*
Y210863D02*
Y211306D01*
Y211629D02*
Y212390D01*
Y212651D02*
Y213072D01*
Y213387D02*
Y213849D01*
Y214384D02*
Y214849D01*
Y215161D02*
Y215604D01*
Y216055D02*
Y216464D01*
Y216842D02*
Y217285D01*
Y218033D02*
Y218476D01*
X152069Y205523D02*
Y205966D01*
Y206672D02*
Y207114D01*
Y208191D02*
Y208646D01*
Y209196D02*
Y209235D01*
Y209863D02*
Y210306D01*
Y210863D02*
Y211306D01*
Y211629D02*
Y212407D01*
Y212651D02*
Y213072D01*
Y213383D02*
Y213837D01*
Y214396D02*
Y214853D01*
Y215161D02*
Y215604D01*
Y216039D02*
Y216449D01*
Y216842D02*
Y217285D01*
Y218033D02*
Y218476D01*
X152095Y205523D02*
Y205966D01*
Y206672D02*
Y207114D01*
Y208187D02*
Y208637D01*
Y209863D02*
Y211306D01*
Y211629D02*
Y212424D01*
Y212651D02*
Y213072D01*
Y213380D02*
Y213824D01*
Y214409D02*
Y214857D01*
Y215161D02*
Y215604D01*
Y216014D02*
Y216434D01*
Y216842D02*
Y217285D01*
Y218033D02*
Y218476D01*
X152120Y205523D02*
Y205966D01*
Y206672D02*
Y207117D01*
Y208184D02*
Y208629D01*
Y209863D02*
Y211306D01*
Y211629D02*
Y212441D01*
Y212651D02*
Y213072D01*
Y213376D02*
Y213816D01*
Y214418D02*
Y214860D01*
Y215161D02*
Y215607D01*
Y215952D02*
Y216418D01*
Y216842D02*
Y217285D01*
Y218033D02*
Y218476D01*
X152146Y205523D02*
Y205966D01*
Y206672D02*
Y207838D01*
Y208181D02*
Y208624D01*
Y209863D02*
Y211306D01*
Y211629D02*
Y212458D01*
Y212651D02*
Y213072D01*
Y213373D02*
Y213813D01*
Y214421D02*
Y214863D01*
Y215161D02*
Y216395D01*
Y216842D02*
Y217285D01*
Y218033D02*
Y218476D01*
X152171Y205523D02*
Y205966D01*
Y206672D02*
Y207838D01*
Y208178D02*
Y208620D01*
Y209863D02*
Y211306D01*
Y211629D02*
Y212475D01*
Y212651D02*
Y213072D01*
Y213369D02*
Y213810D01*
Y214424D02*
Y214866D01*
Y215161D02*
Y216370D01*
Y216842D02*
Y217285D01*
Y218033D02*
Y218476D01*
X152196Y205523D02*
Y205966D01*
Y206672D02*
Y207838D01*
Y208175D02*
Y208617D01*
Y209863D02*
Y211306D01*
Y211629D02*
Y212493D01*
Y212651D02*
Y213072D01*
Y213366D02*
Y213807D01*
Y214427D02*
Y214868D01*
Y215161D02*
Y216330D01*
Y216842D02*
Y217285D01*
Y218033D02*
Y218476D01*
X152222Y205523D02*
Y205966D01*
Y206672D02*
Y207838D01*
Y208171D02*
Y208614D01*
Y209863D02*
Y211306D01*
Y211629D02*
Y212051D01*
Y212081D02*
Y212510D01*
Y212651D02*
Y213072D01*
Y213363D02*
Y213804D01*
Y214430D02*
Y214871D01*
Y215161D02*
Y216266D01*
Y216842D02*
Y217285D01*
Y218033D02*
Y218476D01*
X152247Y205523D02*
Y205966D01*
Y206672D02*
Y207838D01*
Y208168D02*
Y208611D01*
Y209863D02*
Y211306D01*
Y211629D02*
Y212051D01*
Y212098D02*
Y212527D01*
Y212651D02*
Y213072D01*
Y213360D02*
Y213802D01*
Y214433D02*
Y214874D01*
Y215161D02*
Y216244D01*
Y216842D02*
Y217285D01*
Y218033D02*
Y218476D01*
X152273Y205523D02*
Y205966D01*
Y206672D02*
Y207838D01*
Y208165D02*
Y208608D01*
Y209863D02*
Y211306D01*
Y211629D02*
Y212051D01*
Y212115D02*
Y212544D01*
Y212651D02*
Y213072D01*
Y213357D02*
Y213799D01*
Y214437D02*
Y214877D01*
Y215161D02*
Y216323D01*
Y216842D02*
Y217285D01*
Y218033D02*
Y218476D01*
X152298Y205523D02*
Y205966D01*
Y206672D02*
Y207838D01*
Y208162D02*
Y208604D01*
Y209863D02*
Y211306D01*
Y211629D02*
Y212051D01*
Y212132D02*
Y212561D01*
Y212651D02*
Y213072D01*
Y213353D02*
Y213796D01*
Y214436D02*
Y214880D01*
Y215161D02*
Y216401D01*
Y216842D02*
Y217285D01*
Y218033D02*
Y218476D01*
X152323Y205523D02*
Y205966D01*
Y206672D02*
Y207838D01*
Y208163D02*
Y208606D01*
Y209863D02*
Y211306D01*
Y211629D02*
Y212051D01*
Y212149D02*
Y212578D01*
Y212651D02*
Y213072D01*
Y213354D02*
Y213797D01*
Y214434D02*
Y214879D01*
Y215161D02*
Y216427D01*
Y216842D02*
Y217285D01*
Y218033D02*
Y218476D01*
X152349Y205523D02*
Y205966D01*
Y206672D02*
Y207838D01*
Y208165D02*
Y208608D01*
Y209863D02*
Y211306D01*
Y211629D02*
Y212051D01*
Y212166D02*
Y212595D01*
Y212651D02*
Y213072D01*
Y213356D02*
Y213800D01*
Y214431D02*
Y214876D01*
Y215161D02*
Y216452D01*
Y216842D02*
Y217285D01*
Y218033D02*
Y218476D01*
X152374Y205523D02*
Y205966D01*
Y206672D02*
Y207838D01*
Y208167D02*
Y208611D01*
Y209863D02*
Y211306D01*
Y211629D02*
Y212051D01*
Y212184D02*
Y212613D01*
Y212651D02*
Y213072D01*
Y213359D02*
Y213803D01*
Y214429D02*
Y214874D01*
Y215161D02*
Y216477D01*
Y216842D02*
Y217285D01*
Y218033D02*
Y218476D01*
X152400Y205523D02*
Y205966D01*
Y206672D02*
Y207838D01*
Y208169D02*
Y208613D01*
Y209863D02*
Y211306D01*
Y211629D02*
Y212051D01*
Y212201D02*
Y212631D01*
Y212645D02*
Y213072D01*
Y213361D02*
Y213806D01*
Y214426D02*
Y214872D01*
Y215161D02*
Y215610D01*
Y215883D02*
Y216491D01*
Y216842D02*
Y217285D01*
Y218033D02*
Y218476D01*
X152425Y205523D02*
Y205966D01*
Y206672D02*
Y207116D01*
Y208171D02*
Y208616D01*
Y209863D02*
Y211306D01*
Y211629D02*
Y212051D01*
Y212218D02*
Y213072D01*
Y213363D02*
Y213809D01*
Y214424D02*
Y214869D01*
Y215161D02*
Y215604D01*
Y216005D02*
Y216503D01*
Y216842D02*
Y217285D01*
Y218033D02*
Y218476D01*
X152450Y205523D02*
Y205966D01*
Y206672D02*
Y207114D01*
Y208173D02*
Y208618D01*
Y209241D02*
Y209251D01*
Y209863D02*
Y210306D01*
Y210863D02*
Y211306D01*
Y211629D02*
Y212051D01*
Y212235D02*
Y213072D01*
Y213365D02*
Y213812D01*
Y214421D02*
Y214867D01*
Y215161D02*
Y215604D01*
Y216076D02*
Y216516D01*
Y216842D02*
Y217285D01*
Y218033D02*
Y218476D01*
X152476Y205523D02*
Y205966D01*
Y206672D02*
Y207114D01*
Y208176D02*
Y208621D01*
Y209232D02*
Y209332D01*
Y209863D02*
Y210306D01*
Y210863D02*
Y211306D01*
Y211629D02*
Y212051D01*
Y212252D02*
Y213072D01*
Y213367D02*
Y213814D01*
Y214418D02*
Y214865D01*
Y215161D02*
Y215604D01*
Y216089D02*
Y216529D01*
Y216842D02*
Y217285D01*
Y218033D02*
Y218476D01*
X152501Y205523D02*
Y205966D01*
Y206672D02*
Y207114D01*
Y208178D02*
Y208623D01*
Y209224D02*
Y209412D01*
Y209863D02*
Y210306D01*
Y210863D02*
Y211306D01*
Y211629D02*
Y212051D01*
Y212269D02*
Y213072D01*
Y213369D02*
Y213818D01*
Y214415D02*
Y214862D01*
Y215161D02*
Y215604D01*
Y216100D02*
Y216541D01*
Y216842D02*
Y217285D01*
Y218033D02*
Y218476D01*
X152527Y205523D02*
Y205966D01*
Y206672D02*
Y207114D01*
Y208180D02*
Y208629D01*
Y209215D02*
Y209492D01*
Y209863D02*
Y210306D01*
Y210863D02*
Y211306D01*
Y211629D02*
Y212051D01*
Y212286D02*
Y213072D01*
Y213371D02*
Y213831D01*
Y214404D02*
Y214860D01*
Y215161D02*
Y215604D01*
Y216108D02*
Y216545D01*
Y216842D02*
Y217285D01*
Y218033D02*
Y218476D01*
X152552Y205523D02*
Y205966D01*
Y206672D02*
Y207114D01*
Y208182D02*
Y208641D01*
Y209207D02*
Y209573D01*
Y209863D02*
Y210306D01*
Y210863D02*
Y211306D01*
Y211629D02*
Y212051D01*
Y212304D02*
Y213072D01*
Y213373D02*
Y213843D01*
Y214393D02*
Y214854D01*
Y215161D02*
Y215604D01*
Y216117D02*
Y216549D01*
Y216842D02*
Y217285D01*
Y218033D02*
Y218476D01*
X152577Y205523D02*
Y205966D01*
Y206672D02*
Y207114D01*
Y208191D02*
Y208654D01*
Y209195D02*
Y209620D01*
Y209863D02*
Y210306D01*
Y210863D02*
Y211306D01*
Y211629D02*
Y212051D01*
Y212321D02*
Y213072D01*
Y213383D02*
Y213856D01*
Y214382D02*
Y214845D01*
Y215161D02*
Y215604D01*
Y216113D02*
Y216553D01*
Y216842D02*
Y217285D01*
Y218033D02*
Y218476D01*
X152603Y205523D02*
Y205966D01*
Y206672D02*
Y207114D01*
Y208201D02*
Y208667D01*
Y209180D02*
Y209614D01*
Y209863D02*
Y210306D01*
Y210863D02*
Y211306D01*
Y211629D02*
Y212051D01*
Y212338D02*
Y213072D01*
Y213394D02*
Y213869D01*
Y214372D02*
Y214837D01*
Y215161D02*
Y215604D01*
Y216105D02*
Y216558D01*
Y216842D02*
Y217285D01*
Y218033D02*
Y218476D01*
X152628Y205523D02*
Y205966D01*
Y206672D02*
Y207114D01*
Y208211D02*
Y208679D01*
Y209164D02*
Y209607D01*
Y209863D02*
Y210306D01*
Y210863D02*
Y211306D01*
Y211629D02*
Y212051D01*
Y212355D02*
Y213072D01*
Y213406D02*
Y213882D01*
Y214361D02*
Y214828D01*
Y215161D02*
Y215604D01*
Y216096D02*
Y216560D01*
Y216842D02*
Y217285D01*
Y218033D02*
Y218476D01*
X152654Y205523D02*
Y205966D01*
Y206672D02*
Y207114D01*
Y208221D02*
Y208693D01*
Y209149D02*
Y209601D01*
Y209863D02*
Y210306D01*
Y210863D02*
Y211306D01*
Y211629D02*
Y212051D01*
Y212372D02*
Y213072D01*
Y213417D02*
Y213911D01*
Y214349D02*
Y214820D01*
Y215161D02*
Y215604D01*
Y216084D02*
Y216555D01*
Y216842D02*
Y217285D01*
Y218033D02*
Y218476D01*
X152679Y205523D02*
Y205966D01*
Y206672D02*
Y207114D01*
Y208231D02*
Y208727D01*
Y209129D02*
Y209595D01*
Y209863D02*
Y210306D01*
Y210863D02*
Y211306D01*
Y211629D02*
Y212051D01*
Y212389D02*
Y213072D01*
Y213428D02*
Y213943D01*
Y214315D02*
Y214811D01*
Y215161D02*
Y215604D01*
Y216065D02*
Y216550D01*
Y216842D02*
Y217285D01*
Y218033D02*
Y218476D01*
X152704Y205523D02*
Y205966D01*
Y206672D02*
Y207114D01*
Y208241D02*
Y208761D01*
Y209078D02*
Y209588D01*
Y209863D02*
Y210306D01*
Y210863D02*
Y211306D01*
Y211629D02*
Y212051D01*
Y212406D02*
Y213072D01*
Y213440D02*
Y213975D01*
Y214281D02*
Y214803D01*
Y215161D02*
Y215604D01*
Y216014D02*
Y216545D01*
Y216842D02*
Y217285D01*
Y218033D02*
Y218476D01*
X152730Y205523D02*
Y205966D01*
Y206672D02*
Y207923D01*
Y208252D02*
Y208840D01*
Y208989D02*
Y209580D01*
Y209863D02*
Y210306D01*
Y210863D02*
Y211306D01*
Y211629D02*
Y212051D01*
Y212424D02*
Y213072D01*
Y213451D02*
Y214052D01*
Y214202D02*
Y214792D01*
Y215161D02*
Y216539D01*
Y216842D02*
Y217285D01*
Y218033D02*
Y218476D01*
X152755Y205523D02*
Y205966D01*
Y206672D02*
Y207923D01*
Y208262D02*
Y209563D01*
Y209863D02*
Y210306D01*
Y210863D02*
Y211306D01*
Y211629D02*
Y212051D01*
Y212441D02*
Y213072D01*
Y213465D02*
Y214774D01*
Y215161D02*
Y216529D01*
Y216842D02*
Y217285D01*
Y218033D02*
Y218476D01*
X152781Y205523D02*
Y205966D01*
Y206672D02*
Y207923D01*
Y208279D02*
Y209546D01*
Y209863D02*
Y210306D01*
Y210863D02*
Y211306D01*
Y211629D02*
Y212051D01*
Y212458D02*
Y213072D01*
Y213483D02*
Y214756D01*
Y215161D02*
Y216519D01*
Y216842D02*
Y217285D01*
Y218033D02*
Y218476D01*
X152806Y205523D02*
Y205966D01*
Y206672D02*
Y207923D01*
Y208301D02*
Y209529D01*
Y209863D02*
Y210306D01*
Y210863D02*
Y211306D01*
Y211629D02*
Y212051D01*
Y212475D02*
Y213072D01*
Y213501D02*
Y214738D01*
Y215161D02*
Y216508D01*
Y216842D02*
Y217285D01*
Y218033D02*
Y218476D01*
X152831Y205523D02*
Y205966D01*
Y206672D02*
Y207923D01*
Y208323D02*
Y209512D01*
Y209863D02*
Y210306D01*
Y210863D02*
Y211306D01*
Y211629D02*
Y212051D01*
Y212492D02*
Y213072D01*
Y213520D02*
Y214720D01*
Y215161D02*
Y216498D01*
Y216842D02*
Y217285D01*
Y218033D02*
Y218476D01*
X152857Y205523D02*
Y205966D01*
Y206672D02*
Y207923D01*
Y208344D02*
Y209492D01*
Y209863D02*
Y210306D01*
Y210863D02*
Y211306D01*
Y211629D02*
Y212051D01*
Y212509D02*
Y213072D01*
Y213538D02*
Y214701D01*
Y215161D02*
Y216478D01*
Y216842D02*
Y217285D01*
Y218033D02*
Y218476D01*
X152882Y205523D02*
Y205966D01*
Y206672D02*
Y207923D01*
Y208366D02*
Y209467D01*
Y209863D02*
Y210306D01*
Y210863D02*
Y211306D01*
Y211629D02*
Y212051D01*
Y212526D02*
Y213072D01*
Y213556D02*
Y214678D01*
Y215161D02*
Y216459D01*
Y216842D02*
Y217285D01*
Y218033D02*
Y218476D01*
X152908Y205523D02*
Y205966D01*
Y206672D02*
Y207923D01*
Y208388D02*
Y209442D01*
Y209863D02*
Y210306D01*
Y210863D02*
Y211306D01*
Y211629D02*
Y212051D01*
Y212544D02*
Y213072D01*
Y213589D02*
Y214648D01*
Y215161D02*
Y216440D01*
Y216842D02*
Y217285D01*
Y218033D02*
Y218476D01*
X152933Y205523D02*
Y205966D01*
Y206672D02*
Y207923D01*
Y208421D02*
Y209416D01*
Y209863D02*
Y210306D01*
Y210863D02*
Y211306D01*
Y211629D02*
Y212051D01*
Y212561D02*
Y213072D01*
Y213630D02*
Y214618D01*
Y215161D02*
Y216416D01*
Y216842D02*
Y217285D01*
Y218033D02*
Y218476D01*
X152958Y205523D02*
Y205966D01*
Y206672D02*
Y207923D01*
Y208457D02*
Y209385D01*
Y209863D02*
Y210306D01*
Y210863D02*
Y211306D01*
Y211629D02*
Y212051D01*
Y212578D02*
Y213072D01*
Y213671D02*
Y214589D01*
Y215161D02*
Y216391D01*
Y216842D02*
Y217285D01*
Y218033D02*
Y218476D01*
X152984Y205523D02*
Y205966D01*
Y206672D02*
Y207923D01*
Y208492D02*
Y209335D01*
Y209863D02*
Y210306D01*
Y210863D02*
Y211306D01*
Y211629D02*
Y212051D01*
Y212595D02*
Y213072D01*
Y213711D02*
Y214559D01*
Y215161D02*
Y216365D01*
Y216842D02*
Y217285D01*
Y218033D02*
Y218476D01*
X153009Y205523D02*
Y205966D01*
Y206672D02*
Y207923D01*
Y208528D02*
Y209284D01*
Y209863D02*
Y210306D01*
Y210863D02*
Y211306D01*
Y211629D02*
Y212051D01*
Y212612D02*
Y213072D01*
Y213768D02*
Y214503D01*
Y215161D02*
Y216311D01*
Y216842D02*
Y217285D01*
Y218033D02*
Y218476D01*
X153035Y205523D02*
Y205966D01*
Y206672D02*
Y207923D01*
Y208623D02*
Y209204D01*
Y209863D02*
Y210306D01*
Y210863D02*
Y211306D01*
Y211629D02*
Y212051D01*
Y212629D02*
Y213072D01*
Y213835D02*
Y214427D01*
Y215161D02*
Y216196D01*
Y216842D02*
Y217285D01*
Y218033D02*
Y218476D01*
X153060Y208752D02*
Y209100D01*
Y213925D02*
Y214329D01*
*
G04 PC Custom Flashes*
G04 Layer Name RockerBox_Rev01.pcb - flashes*
%LPD*%
*
*
G04 PC Circuitry*
G04 Layer Name RockerBox_Rev01.pcb - circuitry*
%LPD*%
*
G54D10*
G54D11*
G54D29*
X41500Y171000D02*
X60500D01*
Y152000*
X41500*
Y171000*
X60500Y170800D02*
X60300Y171000D01*
X60500Y170600D02*
X60100Y171000D01*
X60500Y170400D02*
X59900Y171000D01*
X60500Y170200D02*
X59700Y171000D01*
X60500Y170000D02*
X59500Y171000D01*
X110500Y102000D02*
X91500D01*
Y121000*
X110500*
Y102000*
X91500Y102200D02*
X91700Y102000D01*
X91500Y102400D02*
X91900Y102000D01*
X91500Y102600D02*
X92100Y102000D01*
X91500Y102800D02*
X92300Y102000D01*
X91500Y103000D02*
X92500Y102000D01*
X60500D02*
X41500D01*
Y121000*
X60500*
Y102000*
X41500Y102200D02*
X41700Y102000D01*
X41500Y102400D02*
X41900Y102000D01*
X41500Y102600D02*
X42100Y102000D01*
X41500Y102800D02*
X42300Y102000D01*
X41500Y103000D02*
X42500Y102000D01*
X91500Y171000D02*
X110500D01*
Y152000*
X91500*
Y171000*
X110500Y170800D02*
X110300Y171000D01*
X110500Y170600D02*
X110100Y171000D01*
X110500Y170400D02*
X109900Y171000D01*
X110500Y170200D02*
X109700Y171000D01*
X110500Y170000D02*
X109500Y171000D01*
X10700Y7978D02*
X10938Y6600D01*
X11177Y7978D02*
X10938Y6600D01*
X11177Y7978D02*
X11415Y6600D01*
X11654Y7978D02*
X11415Y6600D01*
X12084Y7125D02*
X12656D01*
X12656D02*
Y7256D01*
X12656D02*
X12609Y7387D01*
X12609D02*
X12561Y7453D01*
X12465Y7518*
X12465D02*
X12322D01*
X12322D02*
X12227Y7453D01*
X12131Y7321*
X12131D02*
X12084Y7125D01*
Y6993*
X12084D02*
X12131Y6796D01*
X12131D02*
X12227Y6665D01*
X12227D02*
X12322Y6600D01*
X12322D02*
X12465D01*
X12465D02*
X12561Y6665D01*
X12561D02*
X12656Y6796D01*
X14184Y7518D02*
Y6600D01*
Y7125D02*
X14231Y7321D01*
X14231D02*
X14327Y7453D01*
X14422Y7518*
X14422D02*
X14565D01*
X14995Y7125D02*
X15568D01*
Y7256*
X15520Y7387*
X15520D02*
X15472Y7453D01*
X15472D02*
X15377Y7518D01*
X15377D02*
X15234D01*
X15234D02*
X15138Y7453D01*
X15138D02*
X15043Y7321D01*
X15043D02*
X14995Y7125D01*
Y6993*
X14995D02*
X15043Y6796D01*
X15043D02*
X15138Y6665D01*
X15138D02*
X15234Y6600D01*
X15377*
X15472Y6665*
X15472D02*
X15568Y6796D01*
X16522Y7321D02*
X16475Y7453D01*
X16331Y7518*
X16331D02*
X16188D01*
X16188D02*
X16045Y7453D01*
X15997Y7321*
X15997D02*
X16045Y7190D01*
X16045D02*
X16140Y7125D01*
X16140D02*
X16379Y7059D01*
X16379D02*
X16475Y6993D01*
X16475D02*
X16522Y6862D01*
X16522D02*
Y6796D01*
X16522D02*
X16475Y6665D01*
X16475D02*
X16331Y6600D01*
X16331D02*
X16188D01*
X16188D02*
X16045Y6665D01*
X16045D02*
X15997Y6796D01*
X16952Y7125D02*
X17525D01*
Y7256*
X17477Y7387*
X17477D02*
X17429Y7453D01*
X17429D02*
X17334Y7518D01*
X17334D02*
X17190D01*
X17190D02*
X17095Y7453D01*
X17000Y7321*
X17000D02*
X16952Y7125D01*
Y6993*
X16952D02*
X17000Y6796D01*
X17000D02*
X17095Y6665D01*
X17095D02*
X17190Y6600D01*
X17190D02*
X17334D01*
X17429Y6665*
X17429D02*
X17525Y6796D01*
X17954Y7518D02*
Y6600D01*
Y7125D02*
X18002Y7321D01*
X18002D02*
X18097Y7453D01*
X18097D02*
X18193Y7518D01*
X18193D02*
X18336D01*
X18765D02*
X19052Y6600D01*
X19338Y7518D02*
X19052Y6600D01*
X19768Y7125D02*
X20340D01*
X20340D02*
Y7256D01*
X20340D02*
X20293Y7387D01*
X20293D02*
X20245Y7453D01*
X20150Y7518*
X20150D02*
X20006D01*
X20006D02*
X19911Y7453D01*
X19815Y7321*
X19815D02*
X19768Y7125D01*
Y6993*
X19768D02*
X19815Y6796D01*
X19815D02*
X19911Y6665D01*
X19911D02*
X20006Y6600D01*
X20006D02*
X20150D01*
X20245Y6665*
X20245D02*
X20340Y6796D01*
X22440Y7518D02*
Y6600D01*
Y7321D02*
X22345Y7453D01*
X22250Y7518*
X22250D02*
X22106D01*
X22106D02*
X22011Y7453D01*
X21915Y7321*
X21915D02*
X21868Y7125D01*
Y6993*
X21868D02*
X21915Y6796D01*
X21915D02*
X22011Y6665D01*
X22011D02*
X22106Y6600D01*
X22106D02*
X22250D01*
X22345Y6665*
X22345D02*
X22440Y6796D01*
X22870Y7978D02*
Y6600D01*
X23300Y7978D02*
Y6600D01*
X24827Y7518D02*
Y6600D01*
Y7125D02*
X24875Y7321D01*
X24875D02*
X24970Y7453D01*
X25065Y7518*
X25065D02*
X25209D01*
X25638Y7978D02*
X25686Y7912D01*
X25686D02*
X25734Y7978D01*
X25686Y8043*
X25686D02*
X25638Y7978D01*
X25686Y7518D02*
Y6600D01*
X26736Y7518D02*
Y6468D01*
X26736D02*
X26688Y6271D01*
X26688D02*
X26640Y6206D01*
X26640D02*
X26545Y6140D01*
X26545D02*
X26402D01*
X26402D02*
X26306Y6206D01*
X26736Y7321D02*
X26640Y7453D01*
X26640D02*
X26545Y7518D01*
X26545D02*
X26402D01*
X26402D02*
X26306Y7453D01*
X26306D02*
X26211Y7321D01*
X26211D02*
X26163Y7125D01*
X26163D02*
Y6993D01*
X26163D02*
X26211Y6796D01*
X26211D02*
X26306Y6665D01*
X26306D02*
X26402Y6600D01*
X26545*
X26640Y6665*
X26640D02*
X26736Y6796D01*
X27165Y7978D02*
Y6600D01*
Y7256D02*
X27309Y7453D01*
X27404Y7518*
X27404D02*
X27547D01*
X27547D02*
X27643Y7453D01*
X27690Y7256*
X27690D02*
Y6600D01*
X28263Y7978D02*
Y6862D01*
X28263D02*
X28311Y6665D01*
X28311D02*
X28406Y6600D01*
X28406D02*
X28502D01*
X28120Y7518D02*
X28454D01*
X29456Y7321D02*
X29409Y7453D01*
X29265Y7518*
X29265D02*
X29122D01*
X29122D02*
X28979Y7453D01*
X28979D02*
X28931Y7321D01*
X28931D02*
X28979Y7190D01*
X28979D02*
X29075Y7125D01*
X29313Y7059*
X29313D02*
X29409Y6993D01*
X29409D02*
X29456Y6862D01*
X29456D02*
Y6796D01*
X29456D02*
X29409Y6665D01*
X29409D02*
X29265Y6600D01*
X29265D02*
X29122D01*
X29122D02*
X28979Y6665D01*
X28979D02*
X28931Y6796D01*
X31222Y7518D02*
X31127Y7453D01*
X31031Y7321*
X31031D02*
X30984Y7125D01*
Y6993*
X30984D02*
X31031Y6796D01*
X31031D02*
X31127Y6665D01*
X31127D02*
X31222Y6600D01*
X31222D02*
X31365D01*
X31365D02*
X31461Y6665D01*
X31461D02*
X31556Y6796D01*
X31556D02*
X31604Y6993D01*
X31604D02*
Y7125D01*
X31604D02*
X31556Y7321D01*
X31556D02*
X31461Y7453D01*
X31365Y7518*
X31365D02*
X31222D01*
X32415Y7978D02*
X32320D01*
X32225Y7912*
X32225D02*
X32177Y7715D01*
X32177D02*
Y6600D01*
X32034Y7518D02*
X32368D01*
X34515Y7978D02*
Y6600D01*
Y7321D02*
X34420Y7453D01*
X34325Y7518*
X34325D02*
X34181D01*
X34181D02*
X34086Y7453D01*
X33990Y7321*
X33990D02*
X33943Y7125D01*
Y6993*
X33943D02*
X33990Y6796D01*
X33990D02*
X34086Y6665D01*
X34086D02*
X34181Y6600D01*
X34181D02*
X34325D01*
X34420Y6665*
X34420D02*
X34515Y6796D01*
X34945Y7978D02*
X34993Y7912D01*
X34993D02*
X35040Y7978D01*
X35040D02*
X34993Y8043D01*
X34993D02*
X34945Y7978D01*
X34993Y7518D02*
Y6600D01*
X35995Y7321D02*
X35947Y7453D01*
X35947D02*
X35804Y7518D01*
X35804D02*
X35661D01*
X35661D02*
X35518Y7453D01*
X35470Y7321*
X35470D02*
X35518Y7190D01*
X35518D02*
X35613Y7125D01*
X35613D02*
X35852Y7059D01*
X35947Y6993*
X35947D02*
X35995Y6862D01*
X35995D02*
Y6796D01*
X35995D02*
X35947Y6665D01*
X35947D02*
X35804Y6600D01*
X35804D02*
X35661D01*
X35518Y6665*
X35518D02*
X35470Y6796D01*
X36425Y7518D02*
Y6140D01*
Y7321D02*
X36520Y7453D01*
X36615Y7518*
X36615D02*
X36759D01*
X36759D02*
X36854Y7453D01*
X36854D02*
X36950Y7321D01*
X36950D02*
X36997Y7125D01*
X36997D02*
Y6993D01*
X36997D02*
X36950Y6796D01*
X36950D02*
X36854Y6665D01*
X36854D02*
X36759Y6600D01*
X36615*
X36615D02*
X36520Y6665D01*
X36520D02*
X36425Y6796D01*
X37665Y7518D02*
X37570Y7453D01*
X37475Y7321*
X37475D02*
X37427Y7125D01*
Y6993*
X37427D02*
X37475Y6796D01*
X37475D02*
X37570Y6665D01*
X37570D02*
X37665Y6600D01*
X37665D02*
X37809D01*
X37904Y6665*
X37904D02*
X38000Y6796D01*
X38000D02*
X38047Y6993D01*
X38047D02*
Y7125D01*
X38047D02*
X38000Y7321D01*
X38000D02*
X37904Y7453D01*
X37904D02*
X37809Y7518D01*
X37809D02*
X37665D01*
X39002Y7321D02*
X38954Y7453D01*
X38954D02*
X38811Y7518D01*
X38811D02*
X38668D01*
X38668D02*
X38525Y7453D01*
X38477Y7321*
X38477D02*
X38525Y7190D01*
X38525D02*
X38620Y7125D01*
X38859Y7059*
X38954Y6993*
X38954D02*
X39002Y6862D01*
X39002D02*
Y6796D01*
X39002D02*
X38954Y6665D01*
X38954D02*
X38811Y6600D01*
X38668*
X38525Y6665*
X38525D02*
X38477Y6796D01*
X40004Y7518D02*
Y6600D01*
Y7321D02*
X39909Y7453D01*
X39813Y7518*
X39813D02*
X39670D01*
X39670D02*
X39575Y7453D01*
X39479Y7321*
X39479D02*
X39431Y7125D01*
X39431D02*
Y6993D01*
X39431D02*
X39479Y6796D01*
X39479D02*
X39575Y6665D01*
X39575D02*
X39670Y6600D01*
X39813*
X39813D02*
X39909Y6665D01*
X39909D02*
X40004Y6796D01*
X40434Y7978D02*
Y6600D01*
X42486Y7321D02*
X42438Y7453D01*
X42438D02*
X42295Y7518D01*
X42295D02*
X42152D01*
X42152D02*
X42009Y7453D01*
X41961Y7321*
X41961D02*
X42009Y7190D01*
X42009D02*
X42104Y7125D01*
X42104D02*
X42343Y7059D01*
X42438Y6993*
X42438D02*
X42486Y6862D01*
X42486D02*
Y6796D01*
X42486D02*
X42438Y6665D01*
X42438D02*
X42295Y6600D01*
X42152*
X42009Y6665*
X42009D02*
X41961Y6796D01*
X42915Y7518D02*
Y6862D01*
X42915D02*
X42963Y6665D01*
X42963D02*
X43059Y6600D01*
X43202*
X43297Y6665*
X43297D02*
X43440Y6862D01*
Y7518D02*
Y6600D01*
X44443Y7321D02*
X44347Y7453D01*
X44347D02*
X44252Y7518D01*
X44252D02*
X44109D01*
X44109D02*
X44013Y7453D01*
X44013D02*
X43918Y7321D01*
X43918D02*
X43870Y7125D01*
Y6993*
X43870D02*
X43918Y6796D01*
X43918D02*
X44013Y6665D01*
X44013D02*
X44109Y6600D01*
X44252*
X44347Y6665*
X44347D02*
X44443Y6796D01*
X44872Y7978D02*
Y6600D01*
Y7256D02*
X45015Y7453D01*
X45015D02*
X45111Y7518D01*
X45111D02*
X45254D01*
X45254D02*
X45350Y7453D01*
X45397Y7256*
X45397D02*
Y6600D01*
X47497Y7518D02*
Y6600D01*
Y7321D02*
X47402Y7453D01*
X47306Y7518*
X47306D02*
X47163D01*
X47163D02*
X47068Y7453D01*
X46972Y7321*
X46972D02*
X46925Y7125D01*
Y6993*
X46925D02*
X46972Y6796D01*
X46972D02*
X47068Y6665D01*
X47068D02*
X47163Y6600D01*
X47163D02*
X47306D01*
X47306D02*
X47402Y6665D01*
X47402D02*
X47497Y6796D01*
X48452Y7321D02*
X48404Y7453D01*
X48404D02*
X48261Y7518D01*
X48261D02*
X48118D01*
X48118D02*
X47975Y7453D01*
X47927Y7321*
X47927D02*
X47975Y7190D01*
X47975D02*
X48070Y7125D01*
X48309Y7059*
X48404Y6993*
X48404D02*
X48452Y6862D01*
X48452D02*
Y6796D01*
X48452D02*
X48404Y6665D01*
X48404D02*
X48261Y6600D01*
X48118*
X47975Y6665*
X47975D02*
X47927Y6796D01*
X50552Y7321D02*
X50456Y7453D01*
X50456D02*
X50361Y7518D01*
X50361D02*
X50218D01*
X50218D02*
X50122Y7453D01*
X50122D02*
X50027Y7321D01*
X50027D02*
X49979Y7125D01*
X49979D02*
Y6993D01*
X49979D02*
X50027Y6796D01*
X50027D02*
X50122Y6665D01*
X50122D02*
X50218Y6600D01*
X50361*
X50456Y6665*
X50456D02*
X50552Y6796D01*
X51220Y7518D02*
X51125Y7453D01*
X51029Y7321*
X51029D02*
X50981Y7125D01*
X50981D02*
Y6993D01*
X50981D02*
X51029Y6796D01*
X51029D02*
X51125Y6665D01*
X51125D02*
X51220Y6600D01*
X51363*
X51363D02*
X51459Y6665D01*
X51459D02*
X51554Y6796D01*
X51554D02*
X51602Y6993D01*
X51602D02*
Y7125D01*
X51554Y7321*
X51554D02*
X51459Y7453D01*
X51363Y7518*
X51363D02*
X51220D01*
X52031D02*
Y6140D01*
Y7321D02*
X52127Y7453D01*
X52222Y7518*
X52222D02*
X52365D01*
X52365D02*
X52461Y7453D01*
X52556Y7321*
X52556D02*
X52604Y7125D01*
X52604D02*
Y6993D01*
X52604D02*
X52556Y6796D01*
X52556D02*
X52461Y6665D01*
X52461D02*
X52365Y6600D01*
X52365D02*
X52222D01*
X52222D02*
X52127Y6665D01*
X52127D02*
X52031Y6796D01*
X53081Y7518D02*
X53368Y6600D01*
X53654Y7518D02*
X53368Y6600D01*
X53272Y6337*
X53272D02*
X53177Y6206D01*
X53081Y6140*
X53081D02*
X53034D01*
X54084Y7978D02*
X54131Y7912D01*
X54131D02*
X54179Y7978D01*
X54179D02*
X54131Y8043D01*
X54131D02*
X54084Y7978D01*
X54131Y7518D02*
Y6600D01*
X54609Y7518D02*
Y6600D01*
Y7256D02*
X54752Y7453D01*
X54847Y7518*
X54847D02*
X54990D01*
X54990D02*
X55086Y7453D01*
X55134Y7256*
Y6600*
X56136Y7518D02*
Y6468D01*
X56136D02*
X56088Y6271D01*
X56088D02*
X56040Y6206D01*
X56040D02*
X55945Y6140D01*
X55945D02*
X55802D01*
X55802D02*
X55706Y6206D01*
X56136Y7321D02*
X56040Y7453D01*
X56040D02*
X55945Y7518D01*
X55945D02*
X55802D01*
X55802D02*
X55706Y7453D01*
X55706D02*
X55611Y7321D01*
X55611D02*
X55563Y7125D01*
X55563D02*
Y6993D01*
X55563D02*
X55611Y6796D01*
X55611D02*
X55706Y6665D01*
X55706D02*
X55802Y6600D01*
X55945*
X56040Y6665*
X56040D02*
X56136Y6796D01*
X58236Y7518D02*
Y6600D01*
Y7321D02*
X58140Y7453D01*
X58140D02*
X58045Y7518D01*
X58045D02*
X57902D01*
X57902D02*
X57806Y7453D01*
X57806D02*
X57711Y7321D01*
X57711D02*
X57663Y7125D01*
X57663D02*
Y6993D01*
X57663D02*
X57711Y6796D01*
X57711D02*
X57806Y6665D01*
X57806D02*
X57902Y6600D01*
X58045*
X58140Y6665*
X58140D02*
X58236Y6796D01*
X58665Y7518D02*
Y6600D01*
Y7256D02*
X58809Y7453D01*
X58904Y7518*
X58904D02*
X59047D01*
X59047D02*
X59143Y7453D01*
X59190Y7256*
X59190D02*
Y6600D01*
X60193Y7978D02*
Y6600D01*
Y7321D02*
X60097Y7453D01*
X60097D02*
X60002Y7518D01*
X60002D02*
X59859D01*
X59859D02*
X59763Y7453D01*
X59763D02*
X59668Y7321D01*
X59668D02*
X59620Y7125D01*
Y6993*
X59620D02*
X59668Y6796D01*
X59668D02*
X59763Y6665D01*
X59763D02*
X59859Y6600D01*
X60002*
X60097Y6665*
X60097D02*
X60193Y6796D01*
X61720Y7518D02*
Y6140D01*
Y7321D02*
X61815Y7453D01*
X61815D02*
X61911Y7518D01*
X61911D02*
X62054D01*
X62054D02*
X62150Y7453D01*
X62245Y7321*
X62245D02*
X62293Y7125D01*
Y6993*
X62293D02*
X62245Y6796D01*
X62245D02*
X62150Y6665D01*
X62150D02*
X62054Y6600D01*
X62054D02*
X61911D01*
X61815Y6665*
X61815D02*
X61720Y6796D01*
X63295Y7518D02*
Y6600D01*
Y7321D02*
X63200Y7453D01*
X63104Y7518*
X63104D02*
X62961D01*
X62961D02*
X62865Y7453D01*
X62865D02*
X62770Y7321D01*
X62770D02*
X62722Y7125D01*
X62722D02*
Y6993D01*
X62722D02*
X62770Y6796D01*
X62770D02*
X62865Y6665D01*
X62865D02*
X62961Y6600D01*
X63104*
X63104D02*
X63200Y6665D01*
X63200D02*
X63295Y6796D01*
X64250Y7321D02*
X64202Y7453D01*
X64059Y7518*
X64059D02*
X63915D01*
X63915D02*
X63772Y7453D01*
X63772D02*
X63725Y7321D01*
X63725D02*
X63772Y7190D01*
X63772D02*
X63868Y7125D01*
X64106Y7059*
X64106D02*
X64202Y6993D01*
X64202D02*
X64250Y6862D01*
X64250D02*
Y6796D01*
X64250D02*
X64202Y6665D01*
X64202D02*
X64059Y6600D01*
X63915*
X63915D02*
X63772Y6665D01*
X63772D02*
X63725Y6796D01*
X65204Y7321D02*
X65156Y7453D01*
X65156D02*
X65013Y7518D01*
X65013D02*
X64870D01*
X64870D02*
X64727Y7453D01*
X64679Y7321*
X64679D02*
X64727Y7190D01*
X64727D02*
X64822Y7125D01*
X64822D02*
X65061Y7059D01*
X65156Y6993*
X65156D02*
X65204Y6862D01*
X65204D02*
Y6796D01*
X65204D02*
X65156Y6665D01*
X65156D02*
X65013Y6600D01*
X65013D02*
X64870D01*
X64727Y6665*
X64727D02*
X64679Y6796D01*
X65634Y7978D02*
X65681Y7912D01*
X65681D02*
X65729Y7978D01*
X65729D02*
X65681Y8043D01*
X65681D02*
X65634Y7978D01*
X65681Y7518D02*
Y6600D01*
X66159Y7518D02*
Y6600D01*
Y7256D02*
X66302Y7453D01*
X66397Y7518*
X66397D02*
X66540D01*
X66540D02*
X66636Y7453D01*
X66684Y7256*
Y6600*
X67686Y7518D02*
Y6468D01*
X67686D02*
X67638Y6271D01*
X67638D02*
X67590Y6206D01*
X67590D02*
X67495Y6140D01*
X67495D02*
X67352D01*
X67352D02*
X67256Y6206D01*
X67686Y7321D02*
X67590Y7453D01*
X67590D02*
X67495Y7518D01*
X67495D02*
X67352D01*
X67352D02*
X67256Y7453D01*
X67256D02*
X67161Y7321D01*
X67161D02*
X67113Y7125D01*
X67113D02*
Y6993D01*
X67113D02*
X67161Y6796D01*
X67161D02*
X67256Y6665D01*
X67256D02*
X67352Y6600D01*
X67495*
X67590Y6665*
X67590D02*
X67686Y6796D01*
X69452Y7518D02*
X69356Y7453D01*
X69356D02*
X69261Y7321D01*
X69261D02*
X69213Y7125D01*
X69213D02*
Y6993D01*
X69213D02*
X69261Y6796D01*
X69261D02*
X69356Y6665D01*
X69356D02*
X69452Y6600D01*
X69595*
X69690Y6665*
X69690D02*
X69786Y6796D01*
X69786D02*
X69834Y6993D01*
X69834D02*
Y7125D01*
X69786Y7321*
X69786D02*
X69690Y7453D01*
X69690D02*
X69595Y7518D01*
X69595D02*
X69452D01*
X70263D02*
Y6600D01*
Y7256D02*
X70406Y7453D01*
X70406D02*
X70502Y7518D01*
X70502D02*
X70645D01*
X70645D02*
X70740Y7453D01*
X70740D02*
X70788Y7256D01*
X70788D02*
Y6600D01*
X72459Y7978D02*
Y6862D01*
X72459D02*
X72506Y6665D01*
X72506D02*
X72602Y6600D01*
X72697*
X72315Y7518D02*
X72650D01*
X73365D02*
X73270Y7453D01*
X73175Y7321*
X73175D02*
X73127Y7125D01*
Y6993*
X73127D02*
X73175Y6796D01*
X73175D02*
X73270Y6665D01*
X73270D02*
X73365Y6600D01*
X73365D02*
X73509D01*
X73604Y6665*
X73604D02*
X73700Y6796D01*
X73700D02*
X73747Y6993D01*
X73747D02*
Y7125D01*
X73747D02*
X73700Y7321D01*
X73700D02*
X73604Y7453D01*
X73604D02*
X73509Y7518D01*
X73509D02*
X73365D01*
X75418Y7978D02*
Y6862D01*
X75418D02*
X75465Y6665D01*
X75465D02*
X75561Y6600D01*
X75656*
X75275Y7518D02*
X75609D01*
X76086Y7978D02*
Y6600D01*
Y7256D02*
X76229Y7453D01*
X76229D02*
X76325Y7518D01*
X76325D02*
X76468D01*
X76468D02*
X76563Y7453D01*
X76563D02*
X76611Y7256D01*
Y6600*
X77040Y7978D02*
X77088Y7912D01*
X77088D02*
X77136Y7978D01*
X77088Y8043*
X77088D02*
X77040Y7978D01*
X77088Y7518D02*
Y6600D01*
X77565Y7518D02*
Y6600D01*
Y7125D02*
X77613Y7321D01*
X77613D02*
X77709Y7453D01*
X77804Y7518*
X77804D02*
X77947D01*
X78950Y7978D02*
Y6600D01*
Y7321D02*
X78854Y7453D01*
X78854D02*
X78759Y7518D01*
X78759D02*
X78615D01*
X78615D02*
X78520Y7453D01*
X78425Y7321*
X78425D02*
X78377Y7125D01*
Y6993*
X78377D02*
X78425Y6796D01*
X78425D02*
X78520Y6665D01*
X78520D02*
X78615Y6600D01*
X78615D02*
X78759D01*
X78854Y6665*
X78854D02*
X78950Y6796D01*
X80477Y7518D02*
Y6140D01*
Y7321D02*
X80572Y7453D01*
X80572D02*
X80668Y7518D01*
X80668D02*
X80811D01*
X80811D02*
X80906Y7453D01*
X80906D02*
X81002Y7321D01*
X81002D02*
X81050Y7125D01*
Y6993*
X81050D02*
X81002Y6796D01*
X81002D02*
X80906Y6665D01*
X80906D02*
X80811Y6600D01*
X80668*
X80572Y6665*
X80572D02*
X80477Y6796D01*
X82052Y7518D02*
Y6600D01*
Y7321D02*
X81956Y7453D01*
X81956D02*
X81861Y7518D01*
X81861D02*
X81718D01*
X81718D02*
X81622Y7453D01*
X81622D02*
X81527Y7321D01*
X81527D02*
X81479Y7125D01*
X81479D02*
Y6993D01*
X81479D02*
X81527Y6796D01*
X81527D02*
X81622Y6665D01*
X81622D02*
X81718Y6600D01*
X81861*
X81956Y6665*
X81956D02*
X82052Y6796D01*
X82481Y7518D02*
Y6600D01*
Y7125D02*
X82529Y7321D01*
X82529D02*
X82625Y7453D01*
X82720Y7518*
X82720D02*
X82863D01*
X83436Y7978D02*
Y6862D01*
X83436D02*
X83484Y6665D01*
X83484D02*
X83579Y6600D01*
X83579D02*
X83675D01*
X83293Y7518D02*
X83627D01*
X84104Y7978D02*
X84152Y7912D01*
X84152D02*
X84200Y7978D01*
X84152Y8043*
X84152D02*
X84104Y7978D01*
X84152Y7518D02*
Y6600D01*
X84629Y7125D02*
X85202D01*
Y7256*
X85154Y7387*
X85154D02*
X85106Y7453D01*
X85106D02*
X85011Y7518D01*
X85011D02*
X84868D01*
X84868D02*
X84772Y7453D01*
X84772D02*
X84677Y7321D01*
X84677D02*
X84629Y7125D01*
X84629D02*
Y6993D01*
X84629D02*
X84677Y6796D01*
X84677D02*
X84772Y6665D01*
X84772D02*
X84868Y6600D01*
X85011*
X85106Y6665*
X85106D02*
X85202Y6796D01*
X86156Y7321D02*
X86109Y7453D01*
X85965Y7518*
X85965D02*
X85822D01*
X85822D02*
X85679Y7453D01*
X85679D02*
X85631Y7321D01*
X85631D02*
X85679Y7190D01*
X85679D02*
X85775Y7125D01*
X86013Y7059*
X86013D02*
X86109Y6993D01*
X86109D02*
X86156Y6862D01*
X86156D02*
Y6796D01*
X86156D02*
X86109Y6665D01*
X86109D02*
X85965Y6600D01*
X85965D02*
X85822D01*
X85822D02*
X85679Y6665D01*
X85679D02*
X85631Y6796D01*
X86634Y6731D02*
X86586Y6665D01*
X86586D02*
X86634Y6600D01*
X86681Y6665*
X86681D02*
X86634Y6731D01*
X10750Y11428D02*
Y10050D01*
Y11428D02*
X11179D01*
X11179D02*
X11322Y11362D01*
X11322D02*
X11370Y11296D01*
X11370D02*
X11418Y11165D01*
X11418D02*
Y10968D01*
X11418D02*
X11370Y10837D01*
X11370D02*
X11322Y10771D01*
X11322D02*
X11179Y10706D01*
X11179D02*
X10750D01*
X11847Y10968D02*
Y10050D01*
Y10575D02*
X11895Y10771D01*
X11895D02*
X11990Y10903D01*
X11990D02*
X12086Y10968D01*
X12086D02*
X12229D01*
X12659Y11428D02*
X12706Y11362D01*
X12706D02*
X12754Y11428D01*
X12754D02*
X12706Y11493D01*
X12706D02*
X12659Y11428D01*
X12706Y10968D02*
Y10050D01*
X13184Y10968D02*
Y10050D01*
Y10706D02*
X13327Y10903D01*
X13422Y10968*
X13422D02*
X13565D01*
X13565D02*
X13661Y10903D01*
X13709Y10706*
Y10050*
X14281Y11428D02*
Y10312D01*
X14281D02*
X14329Y10115D01*
X14329D02*
X14425Y10050D01*
X14520*
X14138Y10968D02*
X14472D01*
X14950Y10575D02*
X15522D01*
X15522D02*
Y10706D01*
X15522D02*
X15475Y10837D01*
X15475D02*
X15427Y10903D01*
X15331Y10968*
X15331D02*
X15188D01*
X15188D02*
X15093Y10903D01*
X14997Y10771*
X14997D02*
X14950Y10575D01*
Y10443*
X14950D02*
X14997Y10246D01*
X14997D02*
X15093Y10115D01*
X15093D02*
X15188Y10050D01*
X15188D02*
X15331D01*
X15331D02*
X15427Y10115D01*
X15427D02*
X15522Y10246D01*
X16525Y11428D02*
Y10050D01*
Y10771D02*
X16429Y10903D01*
X16429D02*
X16334Y10968D01*
X16334D02*
X16190D01*
X16190D02*
X16095Y10903D01*
X16000Y10771*
X16000D02*
X15952Y10575D01*
Y10443*
X15952D02*
X16000Y10246D01*
X16000D02*
X16095Y10115D01*
X16095D02*
X16190Y10050D01*
X16190D02*
X16334D01*
X16429Y10115*
X16429D02*
X16525Y10246D01*
X18625Y10771D02*
X18529Y10903D01*
X18529D02*
X18434Y10968D01*
X18434D02*
X18290D01*
X18290D02*
X18195Y10903D01*
X18100Y10771*
X18100D02*
X18052Y10575D01*
Y10443*
X18052D02*
X18100Y10246D01*
X18100D02*
X18195Y10115D01*
X18195D02*
X18290Y10050D01*
X18290D02*
X18434D01*
X18529Y10115*
X18529D02*
X18625Y10246D01*
X19293Y10968D02*
X19197Y10903D01*
X19197D02*
X19102Y10771D01*
X19102D02*
X19054Y10575D01*
X19054D02*
Y10443D01*
X19054D02*
X19102Y10246D01*
X19102D02*
X19197Y10115D01*
X19197D02*
X19293Y10050D01*
X19436*
X19531Y10115*
X19531D02*
X19627Y10246D01*
X19627D02*
X19675Y10443D01*
X19675D02*
Y10575D01*
X19627Y10771*
X19627D02*
X19531Y10903D01*
X19531D02*
X19436Y10968D01*
X19436D02*
X19293D01*
X20104D02*
Y9590D01*
Y10771D02*
X20200Y10903D01*
X20295Y10968*
X20295D02*
X20438D01*
X20438D02*
X20534Y10903D01*
X20629Y10771*
X20629D02*
X20677Y10575D01*
Y10443*
X20677D02*
X20629Y10246D01*
X20629D02*
X20534Y10115D01*
X20534D02*
X20438Y10050D01*
X20438D02*
X20295D01*
X20200Y10115*
X20200D02*
X20104Y10246D01*
X21106Y11428D02*
X21154Y11362D01*
X21154D02*
X21202Y11428D01*
X21154Y11493*
X21154D02*
X21106Y11428D01*
X21154Y10968D02*
Y10050D01*
X21631Y10575D02*
X22204D01*
X22204D02*
Y10706D01*
X22204D02*
X22156Y10837D01*
X22156D02*
X22109Y10903D01*
X22013Y10968*
X22013D02*
X21870D01*
X21870D02*
X21775Y10903D01*
X21679Y10771*
X21679D02*
X21631Y10575D01*
X21631D02*
Y10443D01*
X21631D02*
X21679Y10246D01*
X21679D02*
X21775Y10115D01*
X21775D02*
X21870Y10050D01*
X22013*
X22013D02*
X22109Y10115D01*
X22109D02*
X22204Y10246D01*
X23159Y10771D02*
X23111Y10903D01*
X22968Y10968*
X22968D02*
X22825D01*
X22825D02*
X22681Y10903D01*
X22681D02*
X22634Y10771D01*
X22634D02*
X22681Y10640D01*
X22681D02*
X22777Y10575D01*
X23015Y10509*
X23015D02*
X23111Y10443D01*
X23111D02*
X23159Y10312D01*
X23159D02*
Y10246D01*
X23159D02*
X23111Y10115D01*
X23111D02*
X22968Y10050D01*
X22825*
X22681Y10115*
X22681D02*
X22634Y10246D01*
X24925Y10968D02*
X24829Y10903D01*
X24829D02*
X24734Y10771D01*
X24734D02*
X24686Y10575D01*
Y10443*
X24686D02*
X24734Y10246D01*
X24734D02*
X24829Y10115D01*
X24829D02*
X24925Y10050D01*
X25068*
X25163Y10115*
X25163D02*
X25259Y10246D01*
X25259D02*
X25306Y10443D01*
X25306D02*
Y10575D01*
X25306D02*
X25259Y10771D01*
X25259D02*
X25163Y10903D01*
X25163D02*
X25068Y10968D01*
X25068D02*
X24925D01*
X26118Y11428D02*
X26022D01*
X26022D02*
X25927Y11362D01*
X25927D02*
X25879Y11165D01*
X25879D02*
Y10050D01*
X25736Y10968D02*
X26070D01*
X27788Y11428D02*
Y10312D01*
X27788D02*
X27836Y10115D01*
X27836D02*
X27931Y10050D01*
X27931D02*
X28027D01*
X27645Y10968D02*
X27979D01*
X28456Y11428D02*
Y10050D01*
Y10706D02*
X28600Y10903D01*
X28695Y10968*
X28695D02*
X28838D01*
X28838D02*
X28934Y10903D01*
X28981Y10706*
X28981D02*
Y10050D01*
X29411Y11428D02*
X29459Y11362D01*
X29459D02*
X29506Y11428D01*
X29506D02*
X29459Y11493D01*
X29459D02*
X29411Y11428D01*
X29459Y10968D02*
Y10050D01*
X30461Y10771D02*
X30413Y10903D01*
X30413D02*
X30270Y10968D01*
X30270D02*
X30127D01*
X30127D02*
X29984Y10903D01*
X29936Y10771*
X29936D02*
X29984Y10640D01*
X29984D02*
X30079Y10575D01*
X30079D02*
X30318Y10509D01*
X30413Y10443*
X30413D02*
X30461Y10312D01*
X30461D02*
Y10246D01*
X30461D02*
X30413Y10115D01*
X30413D02*
X30270Y10050D01*
X30127*
X29984Y10115*
X29984D02*
X29936Y10246D01*
X32561Y11428D02*
Y10050D01*
Y10771D02*
X32465Y10903D01*
X32465D02*
X32370Y10968D01*
X32370D02*
X32227D01*
X32227D02*
X32131Y10903D01*
X32131D02*
X32036Y10771D01*
X32036D02*
X31988Y10575D01*
X31988D02*
Y10443D01*
X31988D02*
X32036Y10246D01*
X32036D02*
X32131Y10115D01*
X32131D02*
X32227Y10050D01*
X32370*
X32465Y10115*
X32465D02*
X32561Y10246D01*
X33229Y10968D02*
X33134Y10903D01*
X33038Y10771*
X33038D02*
X32990Y10575D01*
X32990D02*
Y10443D01*
X32990D02*
X33038Y10246D01*
X33038D02*
X33134Y10115D01*
X33134D02*
X33229Y10050D01*
X33229D02*
X33372D01*
X33372D02*
X33468Y10115D01*
X33468D02*
X33563Y10246D01*
X33563D02*
X33611Y10443D01*
X33611D02*
Y10575D01*
X33563Y10771*
X33563D02*
X33468Y10903D01*
X33372Y10968*
X33372D02*
X33229D01*
X34613Y10771D02*
X34518Y10903D01*
X34422Y10968*
X34422D02*
X34279D01*
X34279D02*
X34184Y10903D01*
X34088Y10771*
X34088D02*
X34040Y10575D01*
X34040D02*
Y10443D01*
X34040D02*
X34088Y10246D01*
X34088D02*
X34184Y10115D01*
X34184D02*
X34279Y10050D01*
X34279D02*
X34422D01*
X34422D02*
X34518Y10115D01*
X34518D02*
X34613Y10246D01*
X35043Y10968D02*
Y10312D01*
X35043D02*
X35090Y10115D01*
X35090D02*
X35186Y10050D01*
X35329*
X35329D02*
X35425Y10115D01*
X35425D02*
X35568Y10312D01*
Y10968D02*
Y10050D01*
X35997Y10968D02*
Y10050D01*
Y10706D02*
X36140Y10903D01*
X36140D02*
X36236Y10968D01*
X36236D02*
X36379D01*
X36379D02*
X36475Y10903D01*
X36522Y10706*
X36522D02*
Y10050D01*
Y10706D02*
X36665Y10903D01*
X36665D02*
X36761Y10968D01*
X36761D02*
X36904D01*
X36904D02*
X37000Y10903D01*
X37047Y10706*
X37047D02*
Y10050D01*
X37477Y10575D02*
X38050D01*
Y10706*
X38002Y10837*
X38002D02*
X37954Y10903D01*
X37954D02*
X37859Y10968D01*
X37859D02*
X37715D01*
X37715D02*
X37620Y10903D01*
X37525Y10771*
X37525D02*
X37477Y10575D01*
Y10443*
X37477D02*
X37525Y10246D01*
X37525D02*
X37620Y10115D01*
X37620D02*
X37715Y10050D01*
X37715D02*
X37859D01*
X37954Y10115*
X37954D02*
X38050Y10246D01*
X38479Y10968D02*
Y10050D01*
Y10706D02*
X38622Y10903D01*
X38622D02*
X38718Y10968D01*
X38718D02*
X38861D01*
X38861D02*
X38956Y10903D01*
X38956D02*
X39004Y10706D01*
X39004D02*
Y10050D01*
X39577Y11428D02*
Y10312D01*
X39577D02*
X39625Y10115D01*
X39625D02*
X39720Y10050D01*
X39815*
X39434Y10968D02*
X39768D01*
X41915D02*
Y10050D01*
Y10771D02*
X41820Y10903D01*
X41725Y10968*
X41725D02*
X41581D01*
X41581D02*
X41486Y10903D01*
X41390Y10771*
X41390D02*
X41343Y10575D01*
Y10443*
X41343D02*
X41390Y10246D01*
X41390D02*
X41486Y10115D01*
X41486D02*
X41581Y10050D01*
X41581D02*
X41725D01*
X41820Y10115*
X41820D02*
X41915Y10246D01*
X42345Y10968D02*
Y10050D01*
Y10575D02*
X42393Y10771D01*
X42393D02*
X42488Y10903D01*
X42488D02*
X42584Y10968D01*
X42584D02*
X42727D01*
X43156Y10575D02*
X43729D01*
X43729D02*
Y10706D01*
X43729D02*
X43681Y10837D01*
X43681D02*
X43634Y10903D01*
X43538Y10968*
X43538D02*
X43395D01*
X43395D02*
X43300Y10903D01*
X43204Y10771*
X43204D02*
X43156Y10575D01*
X43156D02*
Y10443D01*
X43156D02*
X43204Y10246D01*
X43204D02*
X43300Y10115D01*
X43300D02*
X43395Y10050D01*
X43538*
X43538D02*
X43634Y10115D01*
X43634D02*
X43729Y10246D01*
X45256Y10968D02*
Y10312D01*
X45256D02*
X45304Y10115D01*
X45304D02*
X45400Y10050D01*
X45543*
X45638Y10115*
X45638D02*
X45781Y10312D01*
Y10968D02*
Y10050D01*
X46211Y10968D02*
Y10050D01*
Y10706D02*
X46354Y10903D01*
X46354D02*
X46450Y10968D01*
X46450D02*
X46593D01*
X46593D02*
X46688Y10903D01*
X46688D02*
X46736Y10706D01*
Y10050*
X47738Y10771D02*
X47643Y10903D01*
X47547Y10968*
X47547D02*
X47404D01*
X47404D02*
X47309Y10903D01*
X47213Y10771*
X47213D02*
X47165Y10575D01*
X47165D02*
Y10443D01*
X47165D02*
X47213Y10246D01*
X47213D02*
X47309Y10115D01*
X47309D02*
X47404Y10050D01*
X47404D02*
X47547D01*
X47547D02*
X47643Y10115D01*
X47643D02*
X47738Y10246D01*
X48406Y10968D02*
X48311Y10903D01*
X48215Y10771*
X48215D02*
X48168Y10575D01*
Y10443*
X48168D02*
X48215Y10246D01*
X48215D02*
X48311Y10115D01*
X48311D02*
X48406Y10050D01*
X48406D02*
X48550D01*
X48645Y10115*
X48645D02*
X48740Y10246D01*
X48740D02*
X48788Y10443D01*
X48788D02*
Y10575D01*
X48788D02*
X48740Y10771D01*
X48740D02*
X48645Y10903D01*
X48550Y10968*
X48550D02*
X48406D01*
X49218D02*
Y10050D01*
Y10706D02*
X49361Y10903D01*
X49456Y10968*
X49456D02*
X49600D01*
X49600D02*
X49695Y10903D01*
X49743Y10706*
Y10050*
X50315Y11428D02*
Y10312D01*
X50315D02*
X50363Y10115D01*
X50363D02*
X50459Y10050D01*
X50554*
X50172Y10968D02*
X50506D01*
X50984D02*
Y10050D01*
Y10575D02*
X51031Y10771D01*
X51031D02*
X51127Y10903D01*
X51222Y10968*
X51222D02*
X51365D01*
X52034D02*
X51938Y10903D01*
X51938D02*
X51843Y10771D01*
X51843D02*
X51795Y10575D01*
Y10443*
X51795D02*
X51843Y10246D01*
X51843D02*
X51938Y10115D01*
X51938D02*
X52034Y10050D01*
X52177*
X52272Y10115*
X52272D02*
X52368Y10246D01*
X52368D02*
X52415Y10443D01*
X52415D02*
Y10575D01*
X52415D02*
X52368Y10771D01*
X52368D02*
X52272Y10903D01*
X52272D02*
X52177Y10968D01*
X52177D02*
X52034D01*
X52845Y11428D02*
Y10050D01*
X53275Y11428D02*
Y10050D01*
X53704Y10575D02*
X54277D01*
Y10706*
X54229Y10837*
X54229D02*
X54181Y10903D01*
X54181D02*
X54086Y10968D01*
X54086D02*
X53943D01*
X53943D02*
X53847Y10903D01*
X53847D02*
X53752Y10771D01*
X53752D02*
X53704Y10575D01*
X53704D02*
Y10443D01*
X53704D02*
X53752Y10246D01*
X53752D02*
X53847Y10115D01*
X53847D02*
X53943Y10050D01*
X54086*
X54181Y10115*
X54181D02*
X54277Y10246D01*
X55279Y11428D02*
Y10050D01*
Y10771D02*
X55184Y10903D01*
X55088Y10968*
X55088D02*
X54945D01*
X54945D02*
X54850Y10903D01*
X54754Y10771*
X54754D02*
X54706Y10575D01*
X54706D02*
Y10443D01*
X54706D02*
X54754Y10246D01*
X54754D02*
X54850Y10115D01*
X54850D02*
X54945Y10050D01*
X55088*
X55088D02*
X55184Y10115D01*
X55184D02*
X55279Y10246D01*
X57379Y10968D02*
Y10050D01*
Y10771D02*
X57284Y10903D01*
X57188Y10968*
X57188D02*
X57045D01*
X57045D02*
X56950Y10903D01*
X56854Y10771*
X56854D02*
X56806Y10575D01*
X56806D02*
Y10443D01*
X56806D02*
X56854Y10246D01*
X56854D02*
X56950Y10115D01*
X56950D02*
X57045Y10050D01*
X57188*
X57188D02*
X57284Y10115D01*
X57284D02*
X57379Y10246D01*
X57809Y10968D02*
Y10050D01*
Y10706D02*
X57952Y10903D01*
X58047Y10968*
X58047D02*
X58190D01*
X58190D02*
X58286Y10903D01*
X58334Y10706*
Y10050*
X59336Y11428D02*
Y10050D01*
Y10771D02*
X59240Y10903D01*
X59240D02*
X59145Y10968D01*
X59145D02*
X59002D01*
X59002D02*
X58906Y10903D01*
X58906D02*
X58811Y10771D01*
X58811D02*
X58763Y10575D01*
X58763D02*
Y10443D01*
X58763D02*
X58811Y10246D01*
X58811D02*
X58906Y10115D01*
X58906D02*
X59002Y10050D01*
X59145*
X59240Y10115*
X59240D02*
X59336Y10246D01*
X60863Y10968D02*
Y10050D01*
Y10706D02*
X61006Y10903D01*
X61006D02*
X61102Y10968D01*
X61102D02*
X61245D01*
X61245D02*
X61340Y10903D01*
X61340D02*
X61388Y10706D01*
X61388D02*
Y10050D01*
Y10706D02*
X61531Y10903D01*
X61531D02*
X61627Y10968D01*
X61627D02*
X61770D01*
X61770D02*
X61865Y10903D01*
X61865D02*
X61913Y10706D01*
X61913D02*
Y10050D01*
X62915Y10968D02*
Y10050D01*
Y10771D02*
X62820Y10903D01*
X62725Y10968*
X62725D02*
X62581D01*
X62581D02*
X62486Y10903D01*
X62390Y10771*
X62390D02*
X62343Y10575D01*
Y10443*
X62343D02*
X62390Y10246D01*
X62390D02*
X62486Y10115D01*
X62486D02*
X62581Y10050D01*
X62581D02*
X62725D01*
X62820Y10115*
X62820D02*
X62915Y10246D01*
X63393Y10968D02*
X63679Y10050D01*
X63965Y10968D02*
X63679Y10050D01*
X63679D02*
X63584Y9787D01*
X63584D02*
X63488Y9656D01*
X63488D02*
X63393Y9590D01*
X63393D02*
X63345D01*
X65493Y11428D02*
Y10050D01*
Y11428D02*
X66161Y10050D01*
Y11428D02*
Y10050D01*
X66877Y11428D02*
X66781Y11362D01*
X66781D02*
X66686Y11231D01*
X66638Y11100*
X66638D02*
X66590Y10903D01*
X66590D02*
Y10575D01*
X66590D02*
X66638Y10378D01*
X66638D02*
X66686Y10246D01*
X66686D02*
X66781Y10115D01*
X66781D02*
X66877Y10050D01*
X67068*
X67163Y10115*
X67163D02*
X67259Y10246D01*
X67259D02*
X67306Y10378D01*
X67306D02*
X67354Y10575D01*
X67354D02*
Y10903D01*
X67354D02*
X67306Y11100D01*
X67306D02*
X67259Y11231D01*
X67163Y11362*
X67163D02*
X67068Y11428D01*
X66877*
X68118D02*
Y10050D01*
X67784Y11428D02*
X68452D01*
X69979D02*
Y10050D01*
Y10771D02*
X70075Y10903D01*
X70170Y10968*
X70170D02*
X70313D01*
X70313D02*
X70409Y10903D01*
X70504Y10771*
X70504D02*
X70552Y10575D01*
Y10443*
X70552D02*
X70504Y10246D01*
X70504D02*
X70409Y10115D01*
X70409D02*
X70313Y10050D01*
X70313D02*
X70170D01*
X70075Y10115*
X70075D02*
X69979Y10246D01*
X70981Y10575D02*
X71554D01*
X71554D02*
Y10706D01*
X71554D02*
X71506Y10837D01*
X71506D02*
X71459Y10903D01*
X71363Y10968*
X71363D02*
X71220D01*
X71220D02*
X71125Y10903D01*
X71029Y10771*
X71029D02*
X70981Y10575D01*
X70981D02*
Y10443D01*
X70981D02*
X71029Y10246D01*
X71029D02*
X71125Y10115D01*
X71125D02*
X71220Y10050D01*
X71363*
X71363D02*
X71459Y10115D01*
X71459D02*
X71554Y10246D01*
X73654Y10771D02*
X73559Y10903D01*
X73463Y10968*
X73463D02*
X73320D01*
X73320D02*
X73225Y10903D01*
X73129Y10771*
X73129D02*
X73081Y10575D01*
X73081D02*
Y10443D01*
X73081D02*
X73129Y10246D01*
X73129D02*
X73225Y10115D01*
X73225D02*
X73320Y10050D01*
X73463*
X73463D02*
X73559Y10115D01*
X73559D02*
X73654Y10246D01*
X74084Y10968D02*
Y10312D01*
X74084D02*
X74131Y10115D01*
X74131D02*
X74227Y10050D01*
X74370*
X74465Y10115*
X74465D02*
X74609Y10312D01*
Y10968D02*
Y10050D01*
X75038Y10968D02*
Y10050D01*
Y10575D02*
X75086Y10771D01*
X75086D02*
X75181Y10903D01*
X75181D02*
X75277Y10968D01*
X75277D02*
X75420D01*
X75850D02*
Y10050D01*
Y10575D02*
X75897Y10771D01*
X75897D02*
X75993Y10903D01*
X76088Y10968*
X76088D02*
X76231D01*
X76661Y10575D02*
X77234D01*
Y10706*
X77186Y10837*
X77186D02*
X77138Y10903D01*
X77138D02*
X77043Y10968D01*
X77043D02*
X76900D01*
X76900D02*
X76804Y10903D01*
X76804D02*
X76709Y10771D01*
X76709D02*
X76661Y10575D01*
Y10443*
X76661D02*
X76709Y10246D01*
X76709D02*
X76804Y10115D01*
X76804D02*
X76900Y10050D01*
X77043*
X77138Y10115*
X77138D02*
X77234Y10246D01*
X77663Y10968D02*
Y10050D01*
Y10706D02*
X77806Y10903D01*
X77806D02*
X77902Y10968D01*
X77902D02*
X78045D01*
X78045D02*
X78140Y10903D01*
X78140D02*
X78188Y10706D01*
X78188D02*
Y10050D01*
X78761Y11428D02*
Y10312D01*
X78761D02*
X78809Y10115D01*
X78809D02*
X78904Y10050D01*
X78904D02*
X79000D01*
X78618Y10968D02*
X78952D01*
X79477Y10181D02*
X79429Y10115D01*
X79429D02*
X79477Y10050D01*
X79525Y10115*
X79525D02*
X79477Y10181D01*
X81434Y11428D02*
X81052Y10050D01*
X81434Y11428D02*
X81815Y10050D01*
X81195Y10509D02*
X81672D01*
X82245Y11428D02*
Y10050D01*
X82675Y11428D02*
Y10050D01*
X84202Y11428D02*
X84250Y11362D01*
X84250D02*
X84297Y11428D01*
X84297D02*
X84250Y11493D01*
X84250D02*
X84202Y11428D01*
X84250Y10968D02*
Y10050D01*
X84727Y10968D02*
Y10050D01*
Y10706D02*
X84870Y10903D01*
X84965Y10968*
X84965D02*
X85109D01*
X85109D02*
X85204Y10903D01*
X85204D02*
X85252Y10706D01*
Y10050*
X86063Y11428D02*
X85968D01*
X85872Y11362*
X85872D02*
X85825Y11165D01*
X85825D02*
Y10050D01*
X85681Y10968D02*
X86015D01*
X86731D02*
X86636Y10903D01*
X86540Y10771*
X86540D02*
X86493Y10575D01*
Y10443*
X86493D02*
X86540Y10246D01*
X86540D02*
X86636Y10115D01*
X86636D02*
X86731Y10050D01*
X86731D02*
X86875D01*
X86970Y10115*
X86970D02*
X87065Y10246D01*
X87065D02*
X87113Y10443D01*
X87113D02*
Y10575D01*
X87113D02*
X87065Y10771D01*
X87065D02*
X86970Y10903D01*
X86875Y10968*
X86875D02*
X86731D01*
X87543D02*
Y10050D01*
Y10575D02*
X87590Y10771D01*
X87590D02*
X87686Y10903D01*
X87781Y10968*
X87781D02*
X87925D01*
X88354D02*
Y10050D01*
Y10706D02*
X88497Y10903D01*
X88497D02*
X88593Y10968D01*
X88593D02*
X88736D01*
X88736D02*
X88831Y10903D01*
X88831D02*
X88879Y10706D01*
X88879D02*
Y10050D01*
Y10706D02*
X89022Y10903D01*
X89022D02*
X89118Y10968D01*
X89118D02*
X89261D01*
X89261D02*
X89356Y10903D01*
X89356D02*
X89404Y10706D01*
X89404D02*
Y10050D01*
X90406Y10968D02*
Y10050D01*
Y10771D02*
X90311Y10903D01*
X90215Y10968*
X90215D02*
X90072D01*
X90072D02*
X89977Y10903D01*
X89881Y10771*
X89881D02*
X89834Y10575D01*
Y10443*
X89834D02*
X89881Y10246D01*
X89881D02*
X89977Y10115D01*
X89977D02*
X90072Y10050D01*
X90072D02*
X90215D01*
X90215D02*
X90311Y10115D01*
X90311D02*
X90406Y10246D01*
X90979Y11428D02*
Y10312D01*
X90979D02*
X91027Y10115D01*
X91027D02*
X91122Y10050D01*
X91122D02*
X91218D01*
X90836Y10968D02*
X91170D01*
X91647Y11428D02*
X91695Y11362D01*
X91695D02*
X91743Y11428D01*
X91695Y11493*
X91695D02*
X91647Y11428D01*
X91695Y10968D02*
Y10050D01*
X92411Y10968D02*
X92315Y10903D01*
X92315D02*
X92220Y10771D01*
X92220D02*
X92172Y10575D01*
X92172D02*
Y10443D01*
X92172D02*
X92220Y10246D01*
X92220D02*
X92315Y10115D01*
X92315D02*
X92411Y10050D01*
X92554*
X92554D02*
X92650Y10115D01*
X92650D02*
X92745Y10246D01*
X92745D02*
X92793Y10443D01*
X92793D02*
Y10575D01*
X92745Y10771*
X92745D02*
X92650Y10903D01*
X92554Y10968*
X92554D02*
X92411D01*
X93222D02*
Y10050D01*
Y10706D02*
X93365Y10903D01*
X93365D02*
X93461Y10968D01*
X93461D02*
X93604D01*
X93604D02*
X93700Y10903D01*
X93747Y10706*
X93747D02*
Y10050D01*
X95275Y11428D02*
X95322Y11362D01*
X95322D02*
X95370Y11428D01*
X95322Y11493*
X95322D02*
X95275Y11428D01*
X95322Y10968D02*
Y10050D01*
X96325Y10771D02*
X96277Y10903D01*
X96134Y10968*
X96134D02*
X95990D01*
X95990D02*
X95847Y10903D01*
X95847D02*
X95800Y10771D01*
X95800D02*
X95847Y10640D01*
X95847D02*
X95943Y10575D01*
X96181Y10509*
X96181D02*
X96277Y10443D01*
X96277D02*
X96325Y10312D01*
X96325D02*
Y10246D01*
X96325D02*
X96277Y10115D01*
X96277D02*
X96134Y10050D01*
X95990*
X95990D02*
X95847Y10115D01*
X95847D02*
X95800Y10246D01*
X98377Y10771D02*
X98329Y10903D01*
X98329D02*
X98186Y10968D01*
X98186D02*
X98043D01*
X98043D02*
X97900Y10903D01*
X97852Y10771*
X97852D02*
X97900Y10640D01*
X97900D02*
X97995Y10575D01*
X98234Y10509*
X98329Y10443*
X98329D02*
X98377Y10312D01*
X98377D02*
Y10246D01*
X98377D02*
X98329Y10115D01*
X98329D02*
X98186Y10050D01*
X98043*
X97900Y10115*
X97900D02*
X97852Y10246D01*
X98950Y11428D02*
Y10312D01*
X98950D02*
X98997Y10115D01*
X98997D02*
X99093Y10050D01*
X99188*
X98806Y10968D02*
X99140D01*
X99618D02*
Y10050D01*
Y10575D02*
X99665Y10771D01*
X99665D02*
X99761Y10903D01*
X99856Y10968*
X99856D02*
X100000D01*
X100429Y11428D02*
X100477Y11362D01*
X100477D02*
X100525Y11428D01*
X100477Y11493*
X100477D02*
X100429Y11428D01*
X100477Y10968D02*
Y10050D01*
X101527Y10771D02*
X101431Y10903D01*
X101431D02*
X101336Y10968D01*
X101336D02*
X101193D01*
X101193D02*
X101097Y10903D01*
X101097D02*
X101002Y10771D01*
X101002D02*
X100954Y10575D01*
X100954D02*
Y10443D01*
X100954D02*
X101002Y10246D01*
X101002D02*
X101097Y10115D01*
X101097D02*
X101193Y10050D01*
X101336*
X101431Y10115*
X101431D02*
X101527Y10246D01*
X102100Y11428D02*
Y10312D01*
X102100D02*
X102147Y10115D01*
X102147D02*
X102243Y10050D01*
X102338*
X101956Y10968D02*
X102290D01*
X102768Y11428D02*
Y10050D01*
X103245Y10968D02*
X103531Y10050D01*
X103818Y10968D02*
X103531Y10050D01*
X103531D02*
X103436Y9787D01*
X103436D02*
X103340Y9656D01*
X103340D02*
X103245Y9590D01*
X103245D02*
X103197D01*
X106061Y11100D02*
X106013Y11231D01*
X106013D02*
X105918Y11362D01*
X105918D02*
X105822Y11428D01*
X105822D02*
X105631D01*
X105631D02*
X105536Y11362D01*
X105536D02*
X105440Y11231D01*
X105440D02*
X105393Y11100D01*
X105345Y10903*
Y10575*
X105393Y10378*
X105440Y10246*
X105440D02*
X105536Y10115D01*
X105536D02*
X105631Y10050D01*
X105631D02*
X105822D01*
X105822D02*
X105918Y10115D01*
X105918D02*
X106013Y10246D01*
X106013D02*
X106061Y10378D01*
X106777Y11428D02*
X106681Y11362D01*
X106681D02*
X106586Y11231D01*
X106538Y11100*
X106538D02*
X106490Y10903D01*
X106490D02*
Y10575D01*
X106490D02*
X106538Y10378D01*
X106538D02*
X106586Y10246D01*
X106586D02*
X106681Y10115D01*
X106681D02*
X106777Y10050D01*
X106968*
X107063Y10115*
X107063D02*
X107159Y10246D01*
X107159D02*
X107206Y10378D01*
X107206D02*
X107254Y10575D01*
X107254D02*
Y10903D01*
X107254D02*
X107206Y11100D01*
X107206D02*
X107159Y11231D01*
X107063Y11362*
X107063D02*
X106968Y11428D01*
X106777*
X107684D02*
Y10050D01*
Y11428D02*
X108352Y10050D01*
Y11428D02*
Y10050D01*
X108781Y11428D02*
Y10050D01*
Y11428D02*
X109402D01*
X108781Y10771D02*
X109163D01*
X109831Y11428D02*
Y10050D01*
X110261Y11428D02*
Y10050D01*
Y11428D02*
X110595D01*
X110738Y11362*
X110738D02*
X110834Y11231D01*
X110881Y11100*
X110881D02*
X110929Y10903D01*
X110929D02*
Y10575D01*
X110929D02*
X110881Y10378D01*
X110881D02*
X110834Y10246D01*
X110834D02*
X110738Y10115D01*
X110738D02*
X110595Y10050D01*
X110261*
X111359Y11428D02*
Y10050D01*
Y11428D02*
X111979D01*
X111359Y10771D02*
X111740D01*
X111359Y10050D02*
X111979D01*
X112409Y11428D02*
Y10050D01*
Y11428D02*
X113077Y10050D01*
Y11428D02*
Y10050D01*
X113840Y11428D02*
Y10050D01*
X113506Y11428D02*
X114175D01*
X114604D02*
Y10050D01*
X115415Y11428D02*
X115034Y10050D01*
X115415Y11428D02*
X115797Y10050D01*
X115177Y10509D02*
X115654D01*
X116227Y11428D02*
Y10050D01*
X116800*
X117277Y10181D02*
X117229Y10115D01*
X117229D02*
X117277Y10050D01*
X117325Y10115*
X117325D02*
X117277Y10181D01*
X118850Y11428D02*
Y10050D01*
X119279Y11428D02*
Y10050D01*
Y11428D02*
X119661Y10050D01*
X120043Y11428D02*
X119661Y10050D01*
X120043Y11428D02*
Y10050D01*
X120472Y11428D02*
Y10050D01*
X122715Y11100D02*
X122668Y11231D01*
X122572Y11362*
X122572D02*
X122477Y11428D01*
X122286*
X122190Y11362*
X122190D02*
X122095Y11231D01*
X122047Y11100*
X122047D02*
X122000Y10903D01*
Y10575*
X122047Y10378*
X122047D02*
X122095Y10246D01*
X122095D02*
X122190Y10115D01*
X122190D02*
X122286Y10050D01*
X122477*
X122572Y10115*
X122572D02*
X122668Y10246D01*
X122668D02*
X122715Y10378D01*
X122715D02*
Y10575D01*
X122477D02*
X122715D01*
X123145Y10968D02*
Y10050D01*
Y10575D02*
X123193Y10771D01*
X123193D02*
X123288Y10903D01*
X123288D02*
X123384Y10968D01*
X123384D02*
X123527D01*
X124195D02*
X124100Y10903D01*
X124004Y10771*
X124004D02*
X123956Y10575D01*
X123956D02*
Y10443D01*
X123956D02*
X124004Y10246D01*
X124004D02*
X124100Y10115D01*
X124100D02*
X124195Y10050D01*
X124338*
X124338D02*
X124434Y10115D01*
X124434D02*
X124529Y10246D01*
X124529D02*
X124577Y10443D01*
X124577D02*
Y10575D01*
X124529Y10771*
X124529D02*
X124434Y10903D01*
X124338Y10968*
X124338D02*
X124195D01*
X125006D02*
Y10312D01*
X125006D02*
X125054Y10115D01*
X125054D02*
X125150Y10050D01*
X125293*
X125388Y10115*
X125388D02*
X125531Y10312D01*
Y10968D02*
Y10050D01*
X125961Y10968D02*
Y9590D01*
Y10771D02*
X126056Y10903D01*
X126056D02*
X126152Y10968D01*
X126152D02*
X126295D01*
X126295D02*
X126390Y10903D01*
X126390D02*
X126486Y10771D01*
X126486D02*
X126534Y10575D01*
Y10443*
X126534D02*
X126486Y10246D01*
X126486D02*
X126390Y10115D01*
X126390D02*
X126295Y10050D01*
X126152*
X126056Y10115*
X126056D02*
X125961Y10246D01*
X128061Y10968D02*
Y10050D01*
Y10575D02*
X128109Y10771D01*
X128109D02*
X128204Y10903D01*
X128204D02*
X128300Y10968D01*
X128300D02*
X128443D01*
X128872Y10575D02*
X129445D01*
Y10706*
X129397Y10837*
X129397D02*
X129350Y10903D01*
X129254Y10968*
X129254D02*
X129111D01*
X129111D02*
X129015Y10903D01*
X129015D02*
X128920Y10771D01*
X128920D02*
X128872Y10575D01*
X128872D02*
Y10443D01*
X128872D02*
X128920Y10246D01*
X128920D02*
X129015Y10115D01*
X129015D02*
X129111Y10050D01*
X129254*
X129254D02*
X129350Y10115D01*
X129350D02*
X129445Y10246D01*
X130400Y10771D02*
X130352Y10903D01*
X130209Y10968*
X130209D02*
X130065D01*
X130065D02*
X129922Y10903D01*
X129922D02*
X129875Y10771D01*
X129875D02*
X129922Y10640D01*
X129922D02*
X130018Y10575D01*
X130256Y10509*
X130256D02*
X130352Y10443D01*
X130352D02*
X130400Y10312D01*
X130400D02*
Y10246D01*
X130400D02*
X130352Y10115D01*
X130352D02*
X130209Y10050D01*
X130065*
X130065D02*
X129922Y10115D01*
X129922D02*
X129875Y10246D01*
X130829Y10575D02*
X131402D01*
Y10706*
X131354Y10837*
X131354D02*
X131306Y10903D01*
X131306D02*
X131211Y10968D01*
X131211D02*
X131068D01*
X131068D02*
X130972Y10903D01*
X130972D02*
X130877Y10771D01*
X130877D02*
X130829Y10575D01*
X130829D02*
Y10443D01*
X130829D02*
X130877Y10246D01*
X130877D02*
X130972Y10115D01*
X130972D02*
X131068Y10050D01*
X131211*
X131306Y10115*
X131306D02*
X131402Y10246D01*
X131831Y10968D02*
Y10050D01*
Y10575D02*
X131879Y10771D01*
X131879D02*
X131975Y10903D01*
X132070Y10968*
X132070D02*
X132213D01*
X132643D02*
X132929Y10050D01*
X133215Y10968D02*
X132929Y10050D01*
X133645Y10575D02*
X134218D01*
Y10706*
X134170Y10837*
X134170D02*
X134122Y10903D01*
X134122D02*
X134027Y10968D01*
X134027D02*
X133884D01*
X133884D02*
X133788Y10903D01*
X133788D02*
X133693Y10771D01*
X133693D02*
X133645Y10575D01*
Y10443*
X133645D02*
X133693Y10246D01*
X133693D02*
X133788Y10115D01*
X133788D02*
X133884Y10050D01*
X134027*
X134122Y10115*
X134122D02*
X134218Y10246D01*
X135172Y10771D02*
X135125Y10903D01*
X134981Y10968*
X134981D02*
X134838D01*
X134838D02*
X134695Y10903D01*
X134647Y10771*
X134647D02*
X134695Y10640D01*
X134695D02*
X134790Y10575D01*
X134790D02*
X135029Y10509D01*
X135029D02*
X135125Y10443D01*
X135125D02*
X135172Y10312D01*
X135172D02*
Y10246D01*
X135172D02*
X135125Y10115D01*
X135125D02*
X134981Y10050D01*
X134981D02*
X134838D01*
X134838D02*
X134695Y10115D01*
X134695D02*
X134647Y10246D01*
X137272Y10968D02*
Y10050D01*
Y10771D02*
X137177Y10903D01*
X137081Y10968*
X137081D02*
X136938D01*
X136938D02*
X136843Y10903D01*
X136747Y10771*
X136747D02*
X136700Y10575D01*
Y10443*
X136700D02*
X136747Y10246D01*
X136747D02*
X136843Y10115D01*
X136843D02*
X136938Y10050D01*
X136938D02*
X137081D01*
X137081D02*
X137177Y10115D01*
X137177D02*
X137272Y10246D01*
X137702Y11428D02*
Y10050D01*
X138131Y11428D02*
Y10050D01*
X139659Y10968D02*
Y10050D01*
Y10575D02*
X139706Y10771D01*
X139706D02*
X139802Y10903D01*
X139897Y10968*
X139897D02*
X140040D01*
X140470Y11428D02*
X140518Y11362D01*
X140518D02*
X140565Y11428D01*
X140565D02*
X140518Y11493D01*
X140518D02*
X140470Y11428D01*
X140518Y10968D02*
Y10050D01*
X141568Y10968D02*
Y9918D01*
X141568D02*
X141520Y9721D01*
X141520D02*
X141472Y9656D01*
X141472D02*
X141377Y9590D01*
X141377D02*
X141234D01*
X141234D02*
X141138Y9656D01*
X141568Y10771D02*
X141472Y10903D01*
X141472D02*
X141377Y10968D01*
X141377D02*
X141234D01*
X141234D02*
X141138Y10903D01*
X141138D02*
X141043Y10771D01*
X141043D02*
X140995Y10575D01*
Y10443*
X140995D02*
X141043Y10246D01*
X141043D02*
X141138Y10115D01*
X141138D02*
X141234Y10050D01*
X141377*
X141472Y10115*
X141472D02*
X141568Y10246D01*
X141997Y11428D02*
Y10050D01*
Y10706D02*
X142140Y10903D01*
X142140D02*
X142236Y10968D01*
X142236D02*
X142379D01*
X142379D02*
X142475Y10903D01*
X142522Y10706*
X142522D02*
Y10050D01*
X143095Y11428D02*
Y10312D01*
X143095D02*
X143143Y10115D01*
X143143D02*
X143238Y10050D01*
X143238D02*
X143334D01*
X142952Y10968D02*
X143286D01*
X144288Y10771D02*
X144240Y10903D01*
X144240D02*
X144097Y10968D01*
X144097D02*
X143954D01*
X143954D02*
X143811Y10903D01*
X143763Y10771*
X143763D02*
X143811Y10640D01*
X143811D02*
X143906Y10575D01*
X143906D02*
X144145Y10509D01*
X144240Y10443*
X144240D02*
X144288Y10312D01*
X144288D02*
Y10246D01*
X144288D02*
X144240Y10115D01*
X144240D02*
X144097Y10050D01*
X144097D02*
X143954D01*
X143954D02*
X143811Y10115D01*
X143811D02*
X143763Y10246D01*
X145815Y10575D02*
X146388D01*
X146388D02*
Y10706D01*
X146388D02*
X146340Y10837D01*
X146340D02*
X146293Y10903D01*
X146197Y10968*
X146197D02*
X146054D01*
X146054D02*
X145959Y10903D01*
X145863Y10771*
X145863D02*
X145815Y10575D01*
X145815D02*
Y10443D01*
X145815D02*
X145863Y10246D01*
X145863D02*
X145959Y10115D01*
X145959D02*
X146054Y10050D01*
X146054D02*
X146197D01*
X146197D02*
X146293Y10115D01*
X146293D02*
X146388Y10246D01*
X146818Y10968D02*
X147104Y10050D01*
X147390Y10968D02*
X147104Y10050D01*
X147820Y10575D02*
X148393D01*
Y10706*
X148345Y10837*
X148345D02*
X148297Y10903D01*
X148297D02*
X148202Y10968D01*
X148202D02*
X148059D01*
X148059D02*
X147963Y10903D01*
X147963D02*
X147868Y10771D01*
X147868D02*
X147820Y10575D01*
Y10443*
X147820D02*
X147868Y10246D01*
X147868D02*
X147963Y10115D01*
X147963D02*
X148059Y10050D01*
X148202*
X148297Y10115*
X148297D02*
X148393Y10246D01*
X148822Y10968D02*
Y10050D01*
Y10706D02*
X148965Y10903D01*
X148965D02*
X149061Y10968D01*
X149061D02*
X149204D01*
X149204D02*
X149300Y10903D01*
X149347Y10706*
X149347D02*
Y10050D01*
X150875Y11428D02*
X150922Y11362D01*
X150922D02*
X150970Y11428D01*
X150922Y11493*
X150922D02*
X150875Y11428D01*
X150922Y10968D02*
Y10050D01*
X151400Y10968D02*
Y10050D01*
Y10706D02*
X151543Y10903D01*
X151638Y10968*
X151638D02*
X151781D01*
X151781D02*
X151877Y10903D01*
X151925Y10706*
Y10050*
X153595Y11428D02*
Y10312D01*
X153595D02*
X153643Y10115D01*
X153643D02*
X153738Y10050D01*
X153738D02*
X153834D01*
X153452Y10968D02*
X153786D01*
X154263Y11428D02*
Y10050D01*
Y10706D02*
X154406Y10903D01*
X154406D02*
X154502Y10968D01*
X154502D02*
X154645D01*
X154645D02*
X154740Y10903D01*
X154740D02*
X154788Y10706D01*
X154788D02*
Y10050D01*
X155218Y10575D02*
X155790D01*
X155790D02*
Y10706D01*
X155790D02*
X155743Y10837D01*
X155743D02*
X155695Y10903D01*
X155600Y10968*
X155600D02*
X155456D01*
X155456D02*
X155361Y10903D01*
X155265Y10771*
X155265D02*
X155218Y10575D01*
Y10443*
X155218D02*
X155265Y10246D01*
X155265D02*
X155361Y10115D01*
X155361D02*
X155456Y10050D01*
X155456D02*
X155600D01*
X155695Y10115*
X155695D02*
X155790Y10246D01*
X157318Y10575D02*
X157890D01*
X157890D02*
Y10706D01*
X157890D02*
X157843Y10837D01*
X157843D02*
X157795Y10903D01*
X157700Y10968*
X157700D02*
X157556D01*
X157556D02*
X157461Y10903D01*
X157365Y10771*
X157365D02*
X157318Y10575D01*
Y10443*
X157318D02*
X157365Y10246D01*
X157365D02*
X157461Y10115D01*
X157461D02*
X157556Y10050D01*
X157556D02*
X157700D01*
X157795Y10115*
X157795D02*
X157890Y10246D01*
X158320Y10968D02*
X158606Y10050D01*
X158893Y10968D02*
X158606Y10050D01*
X159322Y10575D02*
X159895D01*
Y10706*
X159847Y10837*
X159847D02*
X159800Y10903D01*
X159704Y10968*
X159704D02*
X159561D01*
X159561D02*
X159465Y10903D01*
X159465D02*
X159370Y10771D01*
X159370D02*
X159322Y10575D01*
X159322D02*
Y10443D01*
X159322D02*
X159370Y10246D01*
X159370D02*
X159465Y10115D01*
X159465D02*
X159561Y10050D01*
X159704*
X159704D02*
X159800Y10115D01*
X159800D02*
X159895Y10246D01*
X160325Y10968D02*
Y10050D01*
Y10706D02*
X160468Y10903D01*
X160563Y10968*
X160563D02*
X160706D01*
X160706D02*
X160802Y10903D01*
X160850Y10706*
Y10050*
X161422Y11428D02*
Y10312D01*
X161422D02*
X161470Y10115D01*
X161470D02*
X161565Y10050D01*
X161565D02*
X161661D01*
X161279Y10968D02*
X161613D01*
X163427D02*
X163331Y10903D01*
X163331D02*
X163236Y10771D01*
X163236D02*
X163188Y10575D01*
X163188D02*
Y10443D01*
X163188D02*
X163236Y10246D01*
X163236D02*
X163331Y10115D01*
X163331D02*
X163427Y10050D01*
X163570*
X163665Y10115*
X163665D02*
X163761Y10246D01*
X163761D02*
X163809Y10443D01*
X163809D02*
Y10575D01*
X163761Y10771*
X163761D02*
X163665Y10903D01*
X163665D02*
X163570Y10968D01*
X163570D02*
X163427D01*
X164620Y11428D02*
X164525D01*
X164429Y11362*
X164429D02*
X164381Y11165D01*
X164381D02*
Y10050D01*
X164238Y10968D02*
X164572D01*
X166147Y11428D02*
X166195Y11362D01*
X166195D02*
X166243Y11428D01*
X166195Y11493*
X166195D02*
X166147Y11428D01*
X166195Y10968D02*
Y10050D01*
X166672Y10968D02*
Y10050D01*
Y10706D02*
X166815Y10903D01*
X166815D02*
X166911Y10968D01*
X166911D02*
X167054D01*
X167054D02*
X167150Y10903D01*
X167197Y10706*
X167197D02*
Y10050D01*
X168200Y11428D02*
Y10050D01*
Y10771D02*
X168104Y10903D01*
X168104D02*
X168009Y10968D01*
X168009D02*
X167865D01*
X167865D02*
X167770Y10903D01*
X167675Y10771*
X167675D02*
X167627Y10575D01*
Y10443*
X167627D02*
X167675Y10246D01*
X167675D02*
X167770Y10115D01*
X167770D02*
X167865Y10050D01*
X167865D02*
X168009D01*
X168104Y10115*
X168104D02*
X168200Y10246D01*
X168629Y10968D02*
Y10312D01*
X168629D02*
X168677Y10115D01*
X168677D02*
X168772Y10050D01*
X168772D02*
X168915D01*
X168915D02*
X169011Y10115D01*
X169011D02*
X169154Y10312D01*
Y10968D02*
Y10050D01*
X170109Y10771D02*
X170061Y10903D01*
X169918Y10968*
X169918D02*
X169775D01*
X169775D02*
X169631Y10903D01*
X169631D02*
X169584Y10771D01*
X169584D02*
X169631Y10640D01*
X169631D02*
X169727Y10575D01*
X169965Y10509*
X169965D02*
X170061Y10443D01*
X170061D02*
X170109Y10312D01*
X170109D02*
Y10246D01*
X170109D02*
X170061Y10115D01*
X170061D02*
X169918Y10050D01*
X169775*
X169631Y10115*
X169631D02*
X169584Y10246D01*
X170681Y11428D02*
Y10312D01*
X170681D02*
X170729Y10115D01*
X170729D02*
X170825Y10050D01*
X170920*
X170538Y10968D02*
X170872D01*
X171350D02*
Y10050D01*
Y10575D02*
X171397Y10771D01*
X171397D02*
X171493Y10903D01*
X171588Y10968*
X171588D02*
X171731D01*
X172161Y11428D02*
X172209Y11362D01*
X172209D02*
X172256Y11428D01*
X172256D02*
X172209Y11493D01*
X172209D02*
X172161Y11428D01*
X172209Y10968D02*
Y10050D01*
X173259Y10968D02*
Y10050D01*
Y10771D02*
X173163Y10903D01*
X173163D02*
X173068Y10968D01*
X173068D02*
X172925D01*
X172925D02*
X172829Y10903D01*
X172829D02*
X172734Y10771D01*
X172734D02*
X172686Y10575D01*
Y10443*
X172686D02*
X172734Y10246D01*
X172734D02*
X172829Y10115D01*
X172829D02*
X172925Y10050D01*
X173068*
X173163Y10115*
X173163D02*
X173259Y10246D01*
X173688Y11428D02*
Y10050D01*
X175215Y10968D02*
Y9590D01*
Y10771D02*
X175311Y10903D01*
X175406Y10968*
X175406D02*
X175550D01*
X175550D02*
X175645Y10903D01*
X175740Y10771*
X175740D02*
X175788Y10575D01*
X175788D02*
Y10443D01*
X175788D02*
X175740Y10246D01*
X175740D02*
X175645Y10115D01*
X175645D02*
X175550Y10050D01*
X175406*
X175406D02*
X175311Y10115D01*
X175311D02*
X175215Y10246D01*
X176218Y10968D02*
Y10050D01*
Y10575D02*
X176265Y10771D01*
X176265D02*
X176361Y10903D01*
X176456Y10968*
X176456D02*
X176600D01*
X177268D02*
X177172Y10903D01*
X177172D02*
X177077Y10771D01*
X177077D02*
X177029Y10575D01*
X177029D02*
Y10443D01*
X177029D02*
X177077Y10246D01*
X177077D02*
X177172Y10115D01*
X177172D02*
X177268Y10050D01*
X177411*
X177506Y10115*
X177506D02*
X177602Y10246D01*
X177602D02*
X177650Y10443D01*
X177650D02*
Y10575D01*
X177602Y10771*
X177602D02*
X177506Y10903D01*
X177506D02*
X177411Y10968D01*
X177411D02*
X177268D01*
X178079D02*
Y9590D01*
Y10771D02*
X178175Y10903D01*
X178270Y10968*
X178270D02*
X178413D01*
X178413D02*
X178509Y10903D01*
X178604Y10771*
X178604D02*
X178652Y10575D01*
Y10443*
X178652D02*
X178604Y10246D01*
X178604D02*
X178509Y10115D01*
X178509D02*
X178413Y10050D01*
X178413D02*
X178270D01*
X178175Y10115*
X178175D02*
X178079Y10246D01*
X179081Y10575D02*
X179654D01*
X179654D02*
Y10706D01*
X179654D02*
X179606Y10837D01*
X179606D02*
X179559Y10903D01*
X179463Y10968*
X179463D02*
X179320D01*
X179320D02*
X179225Y10903D01*
X179129Y10771*
X179129D02*
X179081Y10575D01*
X179081D02*
Y10443D01*
X179081D02*
X179129Y10246D01*
X179129D02*
X179225Y10115D01*
X179225D02*
X179320Y10050D01*
X179463*
X179463D02*
X179559Y10115D01*
X179559D02*
X179654Y10246D01*
X180084Y10968D02*
Y10050D01*
Y10575D02*
X180131Y10771D01*
X180131D02*
X180227Y10903D01*
X180322Y10968*
X180322D02*
X180465D01*
X181038Y11428D02*
Y10312D01*
X181038D02*
X181086Y10115D01*
X181086D02*
X181181Y10050D01*
X181181D02*
X181277D01*
X180895Y10968D02*
X181229D01*
X181754D02*
X182040Y10050D01*
X182327Y10968D02*
X182040Y10050D01*
X182040D02*
X181945Y9787D01*
X181945D02*
X181850Y9656D01*
X181754Y9590*
X181754D02*
X181706D01*
X183854Y10968D02*
Y10050D01*
Y10575D02*
X183902Y10771D01*
X183902D02*
X183997Y10903D01*
X183997D02*
X184093Y10968D01*
X184093D02*
X184236D01*
X184665Y11428D02*
X184713Y11362D01*
X184713D02*
X184761Y11428D01*
X184713Y11493*
X184713D02*
X184665Y11428D01*
X184713Y10968D02*
Y10050D01*
X185763Y10968D02*
Y9918D01*
X185763D02*
X185715Y9721D01*
X185715D02*
X185668Y9656D01*
X185572Y9590*
X185572D02*
X185429D01*
X185429D02*
X185334Y9656D01*
X185763Y10771D02*
X185668Y10903D01*
X185572Y10968*
X185572D02*
X185429D01*
X185429D02*
X185334Y10903D01*
X185238Y10771*
X185238D02*
X185190Y10575D01*
X185190D02*
Y10443D01*
X185190D02*
X185238Y10246D01*
X185238D02*
X185334Y10115D01*
X185334D02*
X185429Y10050D01*
X185429D02*
X185572D01*
X185572D02*
X185668Y10115D01*
X185668D02*
X185763Y10246D01*
X186193Y11428D02*
Y10050D01*
Y10706D02*
X186336Y10903D01*
X186431Y10968*
X186431D02*
X186575D01*
X186575D02*
X186670Y10903D01*
X186718Y10706*
Y10050*
X187290Y11428D02*
Y10312D01*
X187290D02*
X187338Y10115D01*
X187338D02*
X187434Y10050D01*
X187529*
X187147Y10968D02*
X187481D01*
X188484Y10771D02*
X188436Y10903D01*
X188293Y10968*
X188293D02*
X188150D01*
X188150D02*
X188006Y10903D01*
X188006D02*
X187959Y10771D01*
X187959D02*
X188006Y10640D01*
X188006D02*
X188102Y10575D01*
X188340Y10509*
X188340D02*
X188436Y10443D01*
X188436D02*
X188484Y10312D01*
X188484D02*
Y10246D01*
X188484D02*
X188436Y10115D01*
X188436D02*
X188293Y10050D01*
X188150*
X188006Y10115*
X188006D02*
X187959Y10246D01*
X188961Y10181D02*
X188913Y10115D01*
X188913D02*
X188961Y10050D01*
X189009Y10115*
X189009D02*
X188961Y10181D01*
X21000Y248500D02*
X157000D01*
Y24500*
X21000*
Y248500*
G54D33*
X10100Y5100D02*
X195100D01*
X10100D02*
X5100D01*
X10350D02*
X195100D01*
X10100Y57600D02*
X5100D01*
Y292100D02*
Y5100D01*
X10100Y98637D02*
X5100D01*
X10100Y148637D02*
X5100D01*
X10100Y198637D02*
X5100D01*
X195100Y5100D02*
Y292100D01*
X10100Y248675D02*
X5100D01*
X195100Y292100D02*
X5100D01*
X10100Y57600D02*
Y5100D01*
Y12600D02*
X195100D01*
X10100Y5100D02*
X195100D01*
Y57600D02*
Y5100D01*
X10100D02*
X195100D01*
X10100Y292100D02*
Y5100D01*
Y12600D02*
X5100D01*
G54D35*
X59525Y171600D02*
G75*
G03X59525I-125J0D01*
G01X92725Y101400D02*
G03X92725I-125J0D01*
G01X42725D02*
G03X42725I-125J0D01*
G01X109525Y171600D02*
G03X109525I-125J0D01*
G01X138925Y188200D02*
G03X138925I-125J0D01*
G01X119480Y123600D02*
G03X119480I-125J0D01*
G01X38225Y123250D02*
G03X38225I-125J0D01*
G01X88225D02*
G03X88225I-125J0D01*
G01X114025Y149750D02*
G03X114025I-125J0D01*
G01X64025D02*
G03X64025I-125J0D01*
G01X64275Y150000D02*
G03X64275I-125J0D01*
G01X37975Y123000D02*
G03X37975I-125J0D01*
G01X87975D02*
G03X87975I-125J0D01*
G01X114275Y150000D02*
G03X114275I-125J0D01*
G01X64475Y150350D02*
G03X64475I-125J0D01*
G01X37775Y122650D02*
G03X37775I-125J0D01*
G01X87775D02*
G03X87775I-125J0D01*
G01X114475Y150350D02*
G03X114475I-125J0D01*
G01X119275Y129800D02*
G03X119275I-125J0D01*
G54D36*
G01X136707Y121483D02*
Y120583D01*
X136707D02*
X137507D01*
X137507D02*
Y119283D01*
X146057Y130883D02*
X147007D01*
X147007D02*
Y129983D01*
X153520Y126050D02*
G03X153520I-820J0D01*
G01X156020Y126100D02*
G03X156020I-820J0D01*
G01Y128600D02*
G03X156020I-820J0D01*
G01X153520Y128550D02*
G03X153520I-820J0D01*
G01X132520Y128000D02*
G03X132520I-820J0D01*
G01X134920Y128800D02*
G03X134920I-820J0D01*
G01X135720Y134400D02*
G03X135720I-820J0D01*
G01X133220D02*
G03X133220I-820J0D01*
G01X134520Y132200D02*
G03X134520I-820J0D01*
G01X141770Y135700D02*
G03X141770I-820J0D01*
G01X139820Y137300D02*
G03X139820I-820J0D01*
G01X138570Y134300D02*
G03X138570I-820J0D01*
G01X145370Y114000D02*
G03X145370I-820J0D01*
G01X147870D02*
G03X147870I-820J0D01*
G01X145370Y116500D02*
G03X145370I-820J0D01*
G01X147870D02*
G03X147870I-820J0D01*
G01X151320Y129850D02*
G03X151320I-820J0D01*
G01X156100Y124400D02*
Y111700D01*
X153600*
Y124400*
X156100*
X153520Y131050D02*
G03X153520I-820J0D01*
G01X125400Y129050D02*
X126600D01*
X125400Y131750D02*
X126600D01*
X87000Y134400D02*
X84150D01*
X85200Y131250D02*
X87000D01*
X141600Y149150D02*
Y151900D01*
X138400Y150850D02*
Y149150D01*
X136150Y175650D02*
Y174350D01*
X137850Y175650D02*
Y174350D01*
X140950Y192050D02*
Y193350D01*
X139250Y192050D02*
Y193350D01*
X149050Y164250D02*
X150350D01*
X149050Y165950D02*
X150350D01*
X146150Y171550D02*
X144850D01*
X146150Y169850D02*
X144850D01*
X107350Y43200D02*
Y44400D01*
X104650Y43200D02*
Y44400D01*
X111100Y38350D02*
X112300D01*
X111100Y41050D02*
X112300D01*
X98850Y230300D02*
Y229100D01*
X101550Y230300D02*
Y229100D01*
X95100Y235150D02*
X93900D01*
X95100Y232450D02*
X93900D01*
X141900Y190650D02*
Y191600D01*
X141650*
Y196200*
X141900*
X144300Y190650D02*
Y191600D01*
X144550*
Y196200*
X144300*
X135200Y35000D02*
Y34050D01*
X136300*
Y26950*
X135200*
X131203Y35000D02*
Y34050D01*
X130103*
Y26950*
X131203*
X153500Y141450D02*
Y140250D01*
X142100*
Y141450*
X153500Y143750D02*
Y144950D01*
X142100*
Y143750*
X141750Y186750D02*
Y181200D01*
X146850Y182650D02*
Y186750D01*
X151800Y173800D02*
Y176650D01*
X148600Y175400D02*
Y174000D01*
X142300Y188000D02*
X141813D01*
Y181400*
X142300*
X156020Y131100D02*
G03X156020I-820J0D01*
G01X149620Y135900D02*
G03X149620I-820J0D01*
G01X150800Y147250D02*
X152700D01*
X150800Y154950D02*
X152700D01*
X156200Y147250D02*
Y154950D01*
X147350Y147250D02*
Y153350D01*
X126300Y211425D02*
X129975D01*
Y197975*
X126300*
X120700Y211425D02*
X117025D01*
Y197975*
X120700*
X25500Y62075D02*
X21825D01*
Y75525*
X25500*
X31100Y62075D02*
X34775D01*
Y75525*
X31100*
X79900Y62075D02*
X76225D01*
Y75525*
X79900*
X85500Y62075D02*
X89175D01*
Y75525*
X85500*
X52350Y79500D02*
Y78300D01*
X55050Y79500D02*
Y78300D01*
X149100Y166550D02*
X150300D01*
X149100Y169250D02*
X150300D01*
X110050Y79500D02*
Y78300D01*
X112750Y79500D02*
Y78300D01*
X103450Y79500D02*
Y78300D01*
X106150Y79500D02*
Y78300D01*
X106750Y79500D02*
Y78300D01*
X109450Y79500D02*
Y78300D01*
X102750Y194000D02*
Y195200D01*
X100050Y194000D02*
Y195200D01*
X99450Y194000D02*
Y195200D01*
X96750Y194000D02*
Y195200D01*
X96150Y194000D02*
Y195200D01*
X93450Y194000D02*
Y195200D01*
X48250Y194000D02*
Y195200D01*
X45550Y194000D02*
Y195200D01*
X41650Y194000D02*
Y195200D01*
X38950Y194000D02*
Y195200D01*
X148150Y172150D02*
X153700D01*
X152250Y177250D02*
X148150D01*
X145450Y169250D02*
X139900D01*
X141350Y164150D02*
X145450D01*
X89150Y44150D02*
Y49700D01*
X84050Y48250D02*
Y44150D01*
X33350Y60950D02*
X27800D01*
X29250Y55850D02*
X33350D01*
X34750Y44150D02*
Y49700D01*
X29650Y48250D02*
Y44150D01*
X117050Y229350D02*
Y223800D01*
X122150Y225250D02*
Y229350D01*
X62650D02*
Y223800D01*
X67750Y225250D02*
Y229350D01*
X33350Y55350D02*
X27800D01*
X29250Y50250D02*
X33350D01*
X87750Y55350D02*
X82200D01*
X83650Y50250D02*
X87750D01*
Y60950D02*
X82200D01*
X83650Y55850D02*
X87750D01*
X118450Y218150D02*
X124000D01*
X122550Y223250D02*
X118450D01*
X26200Y50200D02*
X24600D01*
X27250Y48200D02*
X24600D01*
X80600Y50200D02*
X79000D01*
X81650Y48200D02*
X79000D01*
X125600Y223300D02*
X127200D01*
X124550Y225300D02*
X127200D01*
X149750Y190800D02*
X146900D01*
Y193550*
Y198650D02*
Y201400D01*
X147900*
X32057Y79515D02*
Y78315D01*
X34757Y79515D02*
Y78315D01*
X80200Y41050D02*
X79000D01*
X80200Y38350D02*
X79000D01*
X83450Y43200D02*
Y44400D01*
X80750Y43200D02*
Y44400D01*
X25457Y79515D02*
Y78315D01*
X28157Y79515D02*
Y78315D01*
X79000Y57550D02*
X77800D01*
X79000Y54850D02*
X77800D01*
X79000Y60850D02*
X77800D01*
X79000Y58150D02*
X77800D01*
X79000Y54250D02*
X77800D01*
X79000Y51550D02*
X77800D01*
X71600Y232450D02*
X72800D01*
X71600Y235150D02*
X72800D01*
X68350Y230300D02*
Y229100D01*
X71050Y230300D02*
Y229100D01*
X72800Y219250D02*
X74000D01*
X72800Y221950D02*
X74000D01*
X72800Y215950D02*
X74000D01*
X72800Y218650D02*
X74000D01*
X72800Y212650D02*
X74000D01*
X72800Y215350D02*
X74000D01*
X58000Y232450D02*
X59200D01*
X58000Y235150D02*
X59200D01*
X54750Y230300D02*
Y229100D01*
X57450Y230300D02*
Y229100D01*
X59200Y219250D02*
X60400D01*
X59200Y221950D02*
X60400D01*
X59200Y215950D02*
X60400D01*
X59200Y218650D02*
X60400D01*
X59200Y212650D02*
X60400D01*
X59200Y215350D02*
X60400D01*
X44400Y232450D02*
X45600D01*
X44400Y235150D02*
X45600D01*
X41150Y230300D02*
Y229100D01*
X43850Y230300D02*
Y229100D01*
X45600Y212650D02*
X46800D01*
X45600Y215350D02*
X46800D01*
X45600Y215950D02*
X46800D01*
X45600Y218650D02*
X46800D01*
X45600Y219250D02*
X46800D01*
X45600Y221950D02*
X46800D01*
X30800Y232450D02*
X32000D01*
X30800Y235150D02*
X32000D01*
X27550Y230300D02*
Y229100D01*
X30250Y230300D02*
Y229100D01*
X80150Y43200D02*
Y44400D01*
X77450Y43200D02*
Y44400D01*
X32000Y212650D02*
X33200D01*
X32000Y215350D02*
X33200D01*
X32000Y215950D02*
X33200D01*
X32000Y218650D02*
X33200D01*
X32000Y219250D02*
X33200D01*
X32000Y221950D02*
X33200D01*
X126000Y232450D02*
X127200D01*
X126000Y235150D02*
X127200D01*
X122750Y230300D02*
Y229100D01*
X125450Y230300D02*
Y229100D01*
X127200Y215950D02*
X128400D01*
X127200Y218650D02*
X128400D01*
X127200Y219250D02*
X128400D01*
X127200Y221950D02*
X128400D01*
X127200Y212650D02*
X128400D01*
X127200Y215350D02*
X128400D01*
X112400Y232450D02*
X113600D01*
X112400Y235150D02*
X113600D01*
X109150Y230300D02*
Y229100D01*
X111850Y230300D02*
Y229100D01*
X83900Y38350D02*
X85100D01*
X83900Y41050D02*
X85100D01*
X113600Y212550D02*
X114800D01*
X113600Y215250D02*
X114800D01*
X113600Y215950D02*
X114800D01*
X113600Y218650D02*
X114800D01*
X113600Y219250D02*
X114800D01*
X113600Y221950D02*
X114800D01*
X98800Y232450D02*
X100000D01*
X98800Y235150D02*
X100000D01*
X82850Y79500D02*
Y78300D01*
X85550Y79500D02*
Y78300D01*
X76250Y79500D02*
Y78300D01*
X78950Y79500D02*
Y78300D01*
X79550Y79500D02*
Y78300D01*
X82250Y79500D02*
Y78300D01*
X126050Y230300D02*
Y229100D01*
X128750Y230300D02*
Y229100D01*
X122300Y235150D02*
X121100D01*
X122300Y232450D02*
X121100D01*
X119750Y194000D02*
Y195200D01*
X117050Y194000D02*
Y195200D01*
X126350Y194000D02*
Y195200D01*
X123650Y194000D02*
Y195200D01*
X123050Y194000D02*
Y195200D01*
X120350Y194000D02*
Y195200D01*
X71650Y230300D02*
Y229100D01*
X74350Y230300D02*
Y229100D01*
X67900Y235150D02*
X66700D01*
X67900Y232450D02*
X66700D01*
X75550Y194000D02*
Y195200D01*
X72850Y194000D02*
Y195200D01*
X72250Y194000D02*
Y195200D01*
X69550Y194000D02*
Y195200D01*
X68950Y194000D02*
Y195200D01*
X66250Y194000D02*
Y195200D01*
X39350Y43200D02*
Y44400D01*
X36650Y43200D02*
Y44400D01*
X43100Y38350D02*
X44300D01*
X43100Y41050D02*
X44300D01*
X42050Y79500D02*
Y78300D01*
X44750Y79500D02*
Y78300D01*
X35450Y79500D02*
Y78300D01*
X38150Y79500D02*
Y78300D01*
X38750Y79500D02*
Y78300D01*
X41450Y79500D02*
Y78300D01*
X97500Y38350D02*
X98700D01*
X97500Y41050D02*
X98700D01*
X96450Y79500D02*
Y78300D01*
X99150Y79500D02*
Y78300D01*
X89850Y79500D02*
Y78300D01*
X92550Y79500D02*
Y78300D01*
X93150Y79500D02*
Y78300D01*
X95850Y79500D02*
Y78300D01*
X112450Y230300D02*
Y229100D01*
X115150Y230300D02*
Y229100D01*
X108700Y235150D02*
X107500D01*
X108700Y232450D02*
X107500D01*
X116350Y194000D02*
Y195200D01*
X113650Y194000D02*
Y195200D01*
X113050Y194000D02*
Y195200D01*
X110350Y194000D02*
Y195200D01*
X109750Y194000D02*
Y195200D01*
X107050Y194000D02*
Y195200D01*
X58050Y230300D02*
Y229100D01*
X60750Y230300D02*
Y229100D01*
X54300Y235150D02*
X53100D01*
X54300Y232450D02*
X53100D01*
X61950Y194000D02*
Y195200D01*
X59250Y194000D02*
Y195200D01*
X58650Y194000D02*
Y195200D01*
X55950Y194000D02*
Y195200D01*
X55350Y194000D02*
Y195200D01*
X52650Y194000D02*
Y195200D01*
X81500Y235150D02*
X80300D01*
X81500Y232450D02*
X80300D01*
X93750Y43200D02*
Y44400D01*
X91050Y43200D02*
Y44400D01*
X67000Y50200D02*
X65400D01*
X68050Y48200D02*
X65400D01*
X144350Y179500D02*
Y189900D01*
X57600Y223300D02*
X59200D01*
X56550Y225300D02*
X59200D01*
X53400Y50200D02*
X51800D01*
X54450Y48200D02*
X51800D01*
X107800Y50200D02*
X106200D01*
X108850Y48200D02*
X106200D01*
X98400Y223300D02*
X100000D01*
X97350Y225300D02*
X100000D01*
X121400Y50200D02*
X119800D01*
X122450Y48200D02*
X119800D01*
X84800Y223300D02*
X86400D01*
X83750Y225300D02*
X86400D01*
X30400Y223300D02*
X32000D01*
X29350Y225300D02*
X32000D01*
X44450Y230300D02*
Y229100D01*
X47150Y230300D02*
Y229100D01*
X40700Y235150D02*
X39500D01*
X40700Y232450D02*
X39500D01*
X66550Y43200D02*
Y44400D01*
X63850Y43200D02*
Y44400D01*
X70300Y38350D02*
X71500D01*
X70300Y41050D02*
X71500D01*
X120950Y43200D02*
Y44400D01*
X118250Y43200D02*
Y44400D01*
X124700Y38350D02*
X125900D01*
X124700Y41050D02*
X125900D01*
X85250Y230300D02*
Y229100D01*
X87950Y230300D02*
Y229100D01*
X30850Y230300D02*
Y229100D01*
X33550Y230300D02*
Y229100D01*
X27100Y235150D02*
X25900D01*
X27100Y232450D02*
X25900D01*
X25750Y43200D02*
Y44400D01*
X23050Y43200D02*
Y44400D01*
X29500Y38350D02*
X30700D01*
X29500Y41050D02*
X30700D01*
X95550Y230300D02*
Y229100D01*
X98250Y230300D02*
Y229100D01*
X85200Y232450D02*
X86400D01*
X85200Y235150D02*
X86400D01*
X81950Y230300D02*
Y229100D01*
X84650Y230300D02*
Y229100D01*
X93800Y41050D02*
X92600D01*
X93800Y38350D02*
X92600D01*
X97050Y43200D02*
Y44400D01*
X94350Y43200D02*
Y44400D01*
X107400Y41050D02*
X106200D01*
X107400Y38350D02*
X106200D01*
X110650Y43200D02*
Y44400D01*
X107950Y43200D02*
Y44400D01*
X121000Y41050D02*
X119800D01*
X121000Y38350D02*
X119800D01*
X124250Y43200D02*
Y44400D01*
X121550Y43200D02*
Y44400D01*
X25800Y41050D02*
X24600D01*
X25800Y38350D02*
X24600D01*
X29050Y43200D02*
Y44400D01*
X26350Y43200D02*
Y44400D01*
X39400Y41050D02*
X38200D01*
X39400Y38350D02*
X38200D01*
X42650Y43200D02*
Y44400D01*
X39950Y43200D02*
Y44400D01*
X53000Y41050D02*
X51800D01*
X53000Y38350D02*
X51800D01*
X56250Y43200D02*
Y44400D01*
X53550Y43200D02*
Y44400D01*
X66600Y41050D02*
X65400D01*
X66600Y38350D02*
X65400D01*
X69850Y43200D02*
Y44400D01*
X67150Y43200D02*
Y44400D01*
X52950Y43200D02*
Y44400D01*
X50250Y43200D02*
Y44400D01*
X56700Y38350D02*
X57900D01*
X56700Y41050D02*
X57900D01*
X44950Y194000D02*
Y195200D01*
X42250Y194000D02*
Y195200D01*
X69250Y79500D02*
Y78300D01*
X71950Y79500D02*
Y78300D01*
X62650Y79500D02*
Y78300D01*
X65350Y79500D02*
Y78300D01*
X65950Y79500D02*
Y78300D01*
X68650Y79500D02*
Y78300D01*
X123650Y79500D02*
Y78300D01*
X126350Y79500D02*
Y78300D01*
X117050Y79500D02*
Y78300D01*
X119750Y79500D02*
Y78300D01*
X120350Y79500D02*
Y78300D01*
X123050Y79500D02*
Y78300D01*
X89150Y194000D02*
Y195200D01*
X86450Y194000D02*
Y195200D01*
X85850Y194000D02*
Y195200D01*
X83150Y194000D02*
Y195200D01*
X82550Y194000D02*
Y195200D01*
X79850Y194000D02*
Y195200D01*
X34750Y194000D02*
Y195200D01*
X32050Y194000D02*
Y195200D01*
X31450Y194000D02*
Y195200D01*
X28750Y194000D02*
Y195200D01*
X28150Y194000D02*
Y195200D01*
X25450Y194000D02*
Y195200D01*
X38050Y194000D02*
Y195200D01*
X35350Y194000D02*
Y195200D01*
X26600Y181750D02*
X25400D01*
X26600Y179050D02*
X25400D01*
X26600Y166750D02*
X25400D01*
X26600Y164050D02*
X25400D01*
X26600Y176750D02*
X25400D01*
X26600Y174050D02*
X25400D01*
X26600Y171750D02*
X25400D01*
X26600Y169050D02*
X25400D01*
X26600Y161750D02*
X25400D01*
X26600Y159050D02*
X25400D01*
X26600Y156750D02*
X25400D01*
X26600Y154050D02*
X25400D01*
X26600Y151750D02*
X25400D01*
X26600Y149050D02*
X25400D01*
X26600Y146750D02*
X25400D01*
X26600Y144050D02*
X25400D01*
X28757Y79515D02*
Y78315D01*
X31457Y79515D02*
Y78315D01*
X51550Y194000D02*
Y195200D01*
X48850Y194000D02*
Y195200D01*
X125400Y124050D02*
X126600D01*
X125400Y126750D02*
X126600D01*
X100150Y79500D02*
Y78300D01*
X102850Y79500D02*
Y78300D01*
X113750Y79500D02*
Y78300D01*
X116450Y79500D02*
Y78300D01*
X125400Y94050D02*
X126600D01*
X125400Y96750D02*
X126600D01*
X125400Y99050D02*
X126600D01*
X125400Y101750D02*
X126600D01*
X125400Y109050D02*
X126600D01*
X125400Y111750D02*
X126600D01*
X125400Y104050D02*
X126600D01*
X125400Y106750D02*
X126600D01*
X125400Y114050D02*
X126600D01*
X125400Y116750D02*
X126600D01*
X125400Y119050D02*
X126600D01*
X125400Y121750D02*
X126600D01*
X58950Y79500D02*
Y78300D01*
X61650Y79500D02*
Y78300D01*
X45350Y79500D02*
Y78300D01*
X48050Y79500D02*
Y78300D01*
X26600Y131750D02*
X25400D01*
X26600Y129050D02*
X25400D01*
X26600Y126750D02*
X25400D01*
X26600Y124050D02*
X25400D01*
X26600Y121750D02*
X25400D01*
X26600Y119050D02*
X25400D01*
X26600Y111750D02*
X25400D01*
X26600Y109050D02*
X25400D01*
X26600Y106750D02*
X25400D01*
X26600Y104050D02*
X25400D01*
X26600Y101750D02*
X25400D01*
X26600Y99050D02*
X25400D01*
X26600Y96750D02*
X25400D01*
X26600Y94050D02*
X25400D01*
X26600Y116750D02*
X25400D01*
X26600Y114050D02*
X25400D01*
X125400Y179050D02*
X126600D01*
X125400Y181750D02*
X126600D01*
X125400Y169050D02*
X126600D01*
X125400Y171750D02*
X126600D01*
X106450Y194000D02*
Y195200D01*
X103750Y194000D02*
Y195200D01*
X92850Y194000D02*
Y195200D01*
X90150Y194000D02*
Y195200D01*
X125400Y144050D02*
X126600D01*
X125400Y146750D02*
X126600D01*
X125400Y149050D02*
X126600D01*
X125400Y151750D02*
X126600D01*
X125400Y154050D02*
X126600D01*
X125400Y156750D02*
X126600D01*
X125400Y159050D02*
X126600D01*
X125400Y161750D02*
X126600D01*
X125400Y164050D02*
X126600D01*
X125400Y166750D02*
X126600D01*
X125400Y174050D02*
X126600D01*
X125400Y176750D02*
X126600D01*
X100000Y212650D02*
X101200D01*
X100000Y215350D02*
X101200D01*
X100000Y215950D02*
X101200D01*
X100000Y218650D02*
X101200D01*
X100000Y219250D02*
X101200D01*
X100000Y221950D02*
X101200D01*
X86400Y212650D02*
X87600D01*
X86400Y215350D02*
X87600D01*
X86400Y215950D02*
X87600D01*
X86400Y218650D02*
X87600D01*
X86400Y219250D02*
X87600D01*
X86400Y221950D02*
X87600D01*
X92600Y57550D02*
X91400D01*
X92600Y54850D02*
X91400D01*
X92600Y60850D02*
X91400D01*
X92600Y58150D02*
X91400D01*
X92600Y54250D02*
X91400D01*
X92600Y51550D02*
X91400D01*
X106200Y57550D02*
X105000D01*
X106200Y54850D02*
X105000D01*
X106200Y60850D02*
X105000D01*
X106200Y58150D02*
X105000D01*
X106200Y54250D02*
X105000D01*
X106200Y51550D02*
X105000D01*
X119800Y57550D02*
X118600D01*
X119800Y54850D02*
X118600D01*
X119800Y60850D02*
X118600D01*
X119800Y58150D02*
X118600D01*
X119800Y54250D02*
X118600D01*
X119800Y51550D02*
X118600D01*
X24600Y57550D02*
X23400D01*
X24600Y54850D02*
X23400D01*
X24600Y60850D02*
X23400D01*
X24600Y58150D02*
X23400D01*
X24600Y54250D02*
X23400D01*
X24600Y51550D02*
X23400D01*
X38200Y57550D02*
X37000D01*
X38200Y54850D02*
X37000D01*
X38200Y60850D02*
X37000D01*
X38200Y58150D02*
X37000D01*
X38200Y54250D02*
X37000D01*
X38200Y51550D02*
X37000D01*
X51800Y57550D02*
X50600D01*
X51800Y54850D02*
X50600D01*
X51800Y60850D02*
X50600D01*
X51800Y58150D02*
X50600D01*
X51800Y54250D02*
X50600D01*
X51800Y51550D02*
X50600D01*
X65400Y57550D02*
X64200D01*
X65400Y54850D02*
X64200D01*
X65400Y60850D02*
X64200D01*
X65400Y58150D02*
X64200D01*
X65400Y54250D02*
X64200D01*
X65400Y51550D02*
X64200D01*
X55650Y79500D02*
Y78300D01*
X58350Y79500D02*
Y78300D01*
X49050Y79500D02*
Y78300D01*
X51750Y79500D02*
Y78300D01*
X138800Y172250D02*
Y173200D01*
X138550*
Y177800*
X138800*
X141200Y172250D02*
Y173200D01*
X141450*
Y177800*
X141200*
X144800Y178750D02*
Y177800D01*
X145050*
Y173200*
X144800*
X142400Y178750D02*
Y177800D01*
X142150*
Y173200*
X142400*
X118450Y212550D02*
X124000D01*
X122550Y217650D02*
X118450D01*
X64050Y218150D02*
X69600D01*
X68150Y223250D02*
X64050D01*
Y212550D02*
X69600D01*
X68150Y217650D02*
X64050D01*
X48350Y44150D02*
Y49700D01*
X43250Y48250D02*
Y44150D01*
X102750D02*
Y49700D01*
X97650Y48250D02*
Y44150D01*
X103450Y229350D02*
Y223800D01*
X108550Y225250D02*
Y229350D01*
X49050D02*
Y223800D01*
X54150Y225250D02*
Y229350D01*
X46950Y55350D02*
X41400D01*
X42850Y50250D02*
X46950D01*
Y60950D02*
X41400D01*
X42850Y55850D02*
X46950D01*
X101350Y55350D02*
X95800D01*
X97250Y50250D02*
X101350D01*
Y60950D02*
X95800D01*
X97250Y55850D02*
X101350D01*
X104850Y218150D02*
X110400D01*
X108950Y223250D02*
X104850D01*
Y212550D02*
X110400D01*
X108950Y217650D02*
X104850D01*
X50450Y218150D02*
X56000D01*
X54550Y223250D02*
X50450D01*
Y212550D02*
X56000D01*
X54550Y217650D02*
X50450D01*
X61950Y44150D02*
Y49700D01*
X56850Y48250D02*
Y44150D01*
X116350D02*
Y49700D01*
X111250Y48250D02*
Y44150D01*
X89850Y229350D02*
Y223800D01*
X94950Y225250D02*
Y229350D01*
X35450D02*
Y223800D01*
X40550Y225250D02*
Y229350D01*
X60550Y55350D02*
X55000D01*
X56450Y50250D02*
X60550D01*
Y60950D02*
X55000D01*
X56450Y55850D02*
X60550D01*
X114950Y55350D02*
X109400D01*
X110850Y50250D02*
X114950D01*
Y60950D02*
X109400D01*
X110850Y55850D02*
X114950D01*
X91250Y218150D02*
X96800D01*
X95350Y223250D02*
X91250D01*
Y212550D02*
X96800D01*
X95350Y217650D02*
X91250D01*
X36850Y218150D02*
X42400D01*
X40950Y223250D02*
X36850D01*
Y212550D02*
X42400D01*
X40950Y217650D02*
X36850D01*
X75550Y44150D02*
Y49700D01*
X70450Y48250D02*
Y44150D01*
X129950D02*
Y49700D01*
X124850Y48250D02*
Y44150D01*
X76250Y229350D02*
Y223800D01*
X81350Y225250D02*
Y229350D01*
X21850D02*
Y223800D01*
X26950Y225250D02*
Y229350D01*
X74150Y55350D02*
X68600D01*
X70050Y50250D02*
X74150D01*
Y60950D02*
X68600D01*
X70050Y55850D02*
X74150D01*
X128550Y55350D02*
X123000D01*
X124450Y50250D02*
X128550D01*
Y60950D02*
X123000D01*
X124450Y55850D02*
X128550D01*
X77650Y218150D02*
X83200D01*
X81750Y223250D02*
X77650D01*
Y212550D02*
X83200D01*
X81750Y217650D02*
X77650D01*
X23250Y218150D02*
X28800D01*
X27350Y223250D02*
X23250D01*
Y212550D02*
X28800D01*
X27350Y217650D02*
X23250D01*
X71200Y223300D02*
X72800D01*
X70150Y225300D02*
X72800D01*
X39800Y50200D02*
X38200D01*
X40850Y48200D02*
X38200D01*
X94200Y50200D02*
X92600D01*
X95250Y48200D02*
X92600D01*
X112000Y223300D02*
X113600D01*
X110950Y225300D02*
X113600D01*
X44000Y223300D02*
X45600D01*
X42950Y225300D02*
X45600D01*
X107100Y62075D02*
X103425D01*
Y75525*
X107100*
X112700Y62075D02*
X116375D01*
Y75525*
X112700*
X99100Y211425D02*
X102775D01*
Y197975*
X99100*
X93500Y211425D02*
X89825D01*
Y197975*
X93500*
X44700Y211425D02*
X48375D01*
Y197975*
X44700*
X39100Y211425D02*
X35425D01*
Y197975*
X39100*
X66300Y62075D02*
X62625D01*
Y75525*
X66300*
X71900Y62075D02*
X75575D01*
Y75525*
X71900*
X120700Y62075D02*
X117025D01*
Y75525*
X120700*
X126300Y62075D02*
X129975D01*
Y75525*
X126300*
X85500Y211425D02*
X89175D01*
Y197975*
X85500*
X79900Y211425D02*
X76225D01*
Y197975*
X79900*
X31100Y211425D02*
X34775D01*
Y197975*
X31100*
X25500Y211425D02*
X21825D01*
Y197975*
X25500*
X71900Y211425D02*
X75575D01*
Y197975*
X71900*
X66300Y211425D02*
X62625D01*
Y197975*
X66300*
X39100Y62075D02*
X35425D01*
Y75525*
X39100*
X44700Y62075D02*
X48375D01*
Y75525*
X44700*
X93500Y62075D02*
X89825D01*
Y75525*
X93500*
X99100Y62075D02*
X102775D01*
Y75525*
X99100*
X112700Y211425D02*
X116375D01*
Y197975*
X112700*
X107100Y211425D02*
X103425D01*
Y197975*
X107100*
X58300Y211425D02*
X61975D01*
Y197975*
X58300*
X52700Y211425D02*
X49025D01*
Y197975*
X52700*
Y62075D02*
X49025D01*
Y75525*
X52700*
X58300Y62075D02*
X61975D01*
Y75525*
X58300*
X45100Y33000D02*
Y26650D01*
X30900Y33000D02*
Y30000D01*
X72300Y33000D02*
Y26650D01*
X58100Y33000D02*
Y30000D01*
X30900Y240500D02*
Y246850D01*
X45100Y240500D02*
Y243500D01*
X99500Y33000D02*
Y26650D01*
X85300Y33000D02*
Y30000D01*
X126700Y33000D02*
Y26650D01*
X112500Y33000D02*
Y30000D01*
X85300Y240500D02*
Y246850D01*
X99500Y240500D02*
Y243500D01*
X112500Y240500D02*
Y246850D01*
X126700Y240500D02*
Y243500D01*
X58100Y240500D02*
Y246850D01*
X72300Y240500D02*
Y243500D01*
X80800Y35000D02*
Y34050D01*
X81900*
Y26950*
X80800*
X76803Y35000D02*
Y34050D01*
X75703*
Y26950*
X76803*
X108000Y35000D02*
Y34050D01*
X109100*
Y26950*
X108000*
X104003Y35000D02*
Y34050D01*
X102903*
Y26950*
X104003*
X53600Y35000D02*
Y34050D01*
X54700*
Y26950*
X53600*
X49603Y35000D02*
Y34050D01*
X48503*
Y26950*
X49603*
X61550Y142200D02*
X64000D01*
X61550Y145400D02*
X63050D01*
X40450Y130800D02*
X38000D01*
X40450Y127600D02*
X38950D01*
X65000Y138600D02*
X67850D01*
X66800Y141750D02*
X65000D01*
X37000Y134374D02*
X34150D01*
X35200Y131224D02*
X37000D01*
X115015Y138613D02*
X117865D01*
X116815Y141763D02*
X115015D01*
X60400Y138150D02*
Y136950D01*
X49000*
Y138150*
X60400Y140450D02*
Y141650D01*
X49000*
Y140450*
X41600Y134850D02*
Y136050D01*
X53000*
Y134850*
X41600Y132550D02*
Y131350D01*
X53000*
Y132550*
X145450Y162850D02*
X139900D01*
X141350Y157750D02*
X145450D01*
X91600Y134850D02*
Y136050D01*
X103000*
Y134850*
X91600Y132550D02*
Y131350D01*
X103000*
Y132550*
X110400Y138150D02*
Y136950D01*
X99000*
Y138150*
X110400Y140450D02*
Y141650D01*
X99000*
Y140450*
X120055Y121500D02*
X117605D01*
X120055Y118300D02*
X118555D01*
X90450Y130800D02*
X88000D01*
X90450Y127600D02*
X88950D01*
X111550Y142200D02*
X114000D01*
X111550Y145400D02*
X113050D01*
X51620Y150000D02*
G03X51620I-820J0D01*
G01X154720Y133400D02*
G03X154720I-820J0D01*
G01X152220D02*
G03X152220I-820J0D01*
G01X149720D02*
G03X149720I-820J0D01*
G01X133120Y121000D02*
G03X133120I-820J0D01*
G01Y123500D02*
G03X133120I-820J0D01*
G01X49120Y150000D02*
G03X49120I-820J0D01*
G01X54520Y123000D02*
G03X54520I-820J0D01*
G01X104520D02*
G03X104520I-820J0D01*
G01X99120Y150000D02*
G03X99120I-820J0D01*
G01X52020Y123000D02*
G03X52020I-820J0D01*
G01X102020D02*
G03X102020I-820J0D01*
G01X101620Y150000D02*
G03X101620I-820J0D01*
G01X29850Y186500D02*
G03X29850I-3850J0D01*
G01Y136500D02*
G03X29850I-3850J0D01*
G01X79850D02*
G03X79850I-3850J0D01*
G01Y186500D02*
G03X79850I-3850J0D01*
G01X129850D02*
G03X129850I-3850J0D01*
G01Y136500D02*
G03X129850I-3850J0D01*
G01X29850Y86500D02*
G03X29850I-3850J0D01*
G01X79850D02*
G03X79850I-3850J0D01*
G01X129850D02*
G03X129850I-3850J0D01*
G01X29850Y29500D02*
G03X29850I-3850J0D01*
G01X155850D02*
G03X155850I-3850J0D01*
G01X29850Y243500D02*
G03X29850I-3850J0D01*
G01X155850D02*
G03X155850I-3850J0D01*
G01X49600Y238500D02*
Y239450D01*
X48500*
Y246550*
X49600*
X53596Y238500D02*
Y239450D01*
X53596D02*
X54696D01*
X54696D02*
Y246550D01*
X54696D02*
X53596D01*
X104000Y238500D02*
Y239450D01*
X102900*
Y246550*
X104000*
X107996Y238500D02*
Y239450D01*
X107996D02*
X109096D01*
X109096D02*
Y246550D01*
X109096D02*
X107996D01*
X76800Y238500D02*
Y239450D01*
X75700*
Y246550*
X76800*
X80796Y238500D02*
Y239450D01*
X80796D02*
X81896D01*
X81896D02*
Y246550D01*
X81896D02*
X80796D01*
X131200Y238500D02*
Y239450D01*
X130100*
Y246550*
X131200*
X135196Y238500D02*
Y239450D01*
X135196D02*
X136296D01*
X136296D02*
Y246550D01*
X136296D02*
X135196D01*
X132620Y130500D02*
G03X132620I-820J0D01*
G01X134970Y120042D02*
Y119339D01*
X135004Y119198*
X135004D02*
X135072Y119104D01*
X135072D02*
X135174Y119058D01*
X135174D02*
X135242D01*
X135242D02*
X135345Y119104D01*
X135345D02*
X135413Y119198D01*
X135413D02*
X135447Y119339D01*
Y120042*
X135754Y119854D02*
X135822Y119901D01*
X135822D02*
X135924Y120042D01*
X135924D02*
Y119058D01*
X136435Y120042D02*
X136333Y119995D01*
X136333D02*
X136265Y119854D01*
X136265D02*
X136231Y119620D01*
X136231D02*
Y119479D01*
X136231D02*
X136265Y119245D01*
X136265D02*
X136333Y119104D01*
X136333D02*
X136435Y119058D01*
X136435D02*
X136504D01*
X136606Y119104*
X136606D02*
X136674Y119245D01*
X136674D02*
X136708Y119479D01*
X136708D02*
Y119620D01*
X136708D02*
X136674Y119854D01*
X136674D02*
X136606Y119995D01*
X136606D02*
X136504Y120042D01*
X136435*
X128248Y128534D02*
Y127550D01*
X128009Y128534D02*
X128487D01*
X128794D02*
Y127550D01*
Y128534D02*
X129100D01*
X129100D02*
X129203Y128487D01*
X129203D02*
X129237Y128441D01*
X129271Y128347*
Y128206*
X129271D02*
X129237Y128112D01*
X129237D02*
X129203Y128066D01*
X129100Y128019*
X129100D02*
X128794D01*
X129578Y128347D02*
X129646Y128394D01*
X129748Y128534*
X129748D02*
Y127550D01*
X130225Y128534D02*
X130123Y128487D01*
X130123D02*
X130089Y128394D01*
Y128300*
X130123Y128206*
X130123D02*
X130191Y128159D01*
X130191D02*
X130328Y128112D01*
X130328D02*
X130430Y128066D01*
X130498Y127972*
X130498D02*
X130532Y127878D01*
X130532D02*
Y127737D01*
X130532D02*
X130498Y127644D01*
X130498D02*
X130464Y127597D01*
X130362Y127550*
X130225*
X130225D02*
X130123Y127597D01*
X130123D02*
X130089Y127644D01*
X130055Y127737*
X130055D02*
Y127878D01*
X130055D02*
X130089Y127972D01*
X130157Y128066*
X130157D02*
X130259Y128112D01*
X130259D02*
X130396Y128159D01*
X130396D02*
X130464Y128206D01*
X130464D02*
X130498Y128300D01*
X130498D02*
Y128394D01*
X130498D02*
X130464Y128487D01*
X130464D02*
X130362Y128534D01*
X130362D02*
X130225D01*
X133083Y130757D02*
Y129772D01*
X132845Y130757D02*
X133322D01*
X133629D02*
Y129772D01*
Y130757D02*
X133935D01*
X133935D02*
X134038Y130710D01*
X134072Y130663*
X134072D02*
X134106Y130569D01*
X134106D02*
Y130429D01*
X134072Y130335*
X134038Y130288*
X134038D02*
X133935Y130241D01*
X133935D02*
X133629D01*
X134413Y130569D02*
X134481Y130616D01*
X134481D02*
X134583Y130757D01*
X134583D02*
Y129772D01*
X135333Y130429D02*
X135299Y130288D01*
X135299D02*
X135231Y130194D01*
X135231D02*
X135129Y130147D01*
X135129D02*
X135095D01*
X135095D02*
X134992Y130194D01*
X134992D02*
X134924Y130288D01*
X134924D02*
X134890Y130429D01*
Y130476*
X134924Y130616*
X134924D02*
X134992Y130710D01*
X134992D02*
X135095Y130757D01*
X135129*
X135231Y130710*
X135299Y130616*
X135299D02*
X135333Y130429D01*
X135333D02*
Y130194D01*
X135333D02*
X135299Y129960D01*
X135299D02*
X135231Y129819D01*
X135231D02*
X135129Y129772D01*
X135129D02*
X135060D01*
X135060D02*
X134958Y129819D01*
X134958D02*
X134924Y129913D01*
X142319Y137878D02*
Y136894D01*
X142080Y137878D02*
X142557D01*
X142864D02*
Y136894D01*
Y137878D02*
X143171D01*
X143273Y137831*
X143273D02*
X143307Y137784D01*
X143307D02*
X143341Y137690D01*
X143341D02*
Y137550D01*
X143341D02*
X143307Y137456D01*
X143307D02*
X143273Y137409D01*
X143273D02*
X143171Y137362D01*
X143171D02*
X142864D01*
X143648Y137690D02*
X143716Y137737D01*
X143716D02*
X143819Y137878D01*
Y136894*
X144194Y137878D02*
X144569D01*
X144364Y137503*
X144364D02*
X144466D01*
X144466D02*
X144535Y137456D01*
X144535D02*
X144569Y137409D01*
X144569D02*
X144603Y137269D01*
Y137175*
X144569Y137034*
X144569D02*
X144500Y136940D01*
X144500D02*
X144398Y136894D01*
X144398D02*
X144296D01*
X144194Y136940*
X144194D02*
X144160Y136987D01*
X144160D02*
X144125Y137081D01*
X139599Y133798D02*
Y132814D01*
X139360Y133798D02*
X139837D01*
X140144D02*
Y132814D01*
Y133798D02*
X140451D01*
X140553Y133751*
X140553D02*
X140587Y133704D01*
X140587D02*
X140621Y133610D01*
X140621D02*
Y133470D01*
X140621D02*
X140587Y133376D01*
X140587D02*
X140553Y133329D01*
X140553D02*
X140451Y133282D01*
X140451D02*
X140144D01*
X140928Y133610D02*
X140996Y133657D01*
X140996D02*
X141099Y133798D01*
Y132814*
X141440Y133564D02*
Y133610D01*
X141440D02*
X141474Y133704D01*
X141474D02*
X141508Y133751D01*
X141508D02*
X141576Y133798D01*
X141712*
X141712D02*
X141780Y133751D01*
X141780D02*
X141815Y133704D01*
X141815D02*
X141849Y133610D01*
X141849D02*
Y133517D01*
X141815Y133423*
X141746Y133282*
X141746D02*
X141405Y132814D01*
X141405D02*
X141883D01*
X136286Y136143D02*
X137270D01*
X136286Y135905D02*
Y136382D01*
Y136689D02*
X137270D01*
X136286D02*
Y136995D01*
X136286D02*
X136333Y137098D01*
X136380Y137132*
X136474Y137166*
X136614*
X136614D02*
X136708Y137132D01*
X136755Y137098*
X136802Y136995*
X136802D02*
Y136689D01*
X136520Y137507D02*
X136474D01*
X136380Y137541*
X136333Y137575*
X136286Y137643*
X136286D02*
Y137780D01*
X136286D02*
X136333Y137848D01*
X136380Y137882*
X136474Y137916*
X136567*
X136567D02*
X136661Y137882D01*
X136661D02*
X136802Y137814D01*
X137270Y137473*
X137270D02*
Y137950D01*
X136286Y138598D02*
X136942Y138257D01*
X136942D02*
Y138768D01*
X136286Y138598D02*
X137270D01*
X142707Y112038D02*
Y111054D01*
X142469Y112038D02*
X142946D01*
X143253D02*
Y111054D01*
Y112038D02*
X143560D01*
X143662Y111991*
X143662D02*
X143696Y111944D01*
X143696D02*
X143730Y111850D01*
X143730D02*
Y111710D01*
X143696Y111616*
X143696D02*
X143662Y111569D01*
X143662D02*
X143560Y111522D01*
X143560D02*
X143253D01*
X144105Y112038D02*
X144480D01*
X144275Y111663*
X144275D02*
X144378D01*
X144446Y111616*
X144446D02*
X144480Y111569D01*
X144480D02*
X144514Y111429D01*
X144514D02*
Y111335D01*
X144514D02*
X144480Y111194D01*
X144480D02*
X144412Y111100D01*
X144412D02*
X144310Y111054D01*
X144207*
X144207D02*
X144105Y111100D01*
X144105D02*
X144071Y111147D01*
X144071D02*
X144037Y111241D01*
X146804Y112038D02*
Y111054D01*
X146566Y112038D02*
X147043D01*
X147350D02*
Y111054D01*
Y112038D02*
X147657D01*
X147759Y111991*
X147759D02*
X147793Y111944D01*
X147793D02*
X147827Y111850D01*
X147827D02*
Y111710D01*
X147827D02*
X147793Y111616D01*
X147793D02*
X147759Y111569D01*
X147759D02*
X147657Y111522D01*
X147657D02*
X147350D01*
X148543Y111897D02*
X148509Y111991D01*
X148509D02*
X148407Y112038D01*
X148338*
X148338D02*
X148236Y111991D01*
X148236D02*
X148168Y111850D01*
X148168D02*
X148134Y111616D01*
X148134D02*
Y111382D01*
X148168Y111194*
X148168D02*
X148236Y111100D01*
X148236D02*
X148338Y111054D01*
X148338D02*
X148372D01*
X148372D02*
X148475Y111100D01*
X148475D02*
X148543Y111194D01*
X148543D02*
X148577Y111335D01*
X148577D02*
Y111382D01*
X148577D02*
X148543Y111522D01*
X148543D02*
X148475Y111616D01*
X148475D02*
X148372Y111663D01*
X148372D02*
X148338D01*
X148338D02*
X148236Y111616D01*
X148236D02*
X148168Y111522D01*
X148168D02*
X148134Y111382D01*
X141330Y114758D02*
Y113774D01*
X141092Y114758D02*
X141569D01*
X141876D02*
Y113774D01*
Y114758D02*
X142182D01*
X142182D02*
X142285Y114711D01*
X142285D02*
X142319Y114664D01*
X142319D02*
X142353Y114570D01*
X142353D02*
Y114430D01*
X142319Y114336*
X142319D02*
X142285Y114289D01*
X142285D02*
X142182Y114242D01*
X142182D02*
X141876D01*
X143103Y114758D02*
X142762D01*
X142762D02*
X142728Y114336D01*
X142728D02*
X142762Y114383D01*
X142762D02*
X142864Y114430D01*
X142864D02*
X142967D01*
X143069Y114383*
X143137Y114289*
X143137D02*
X143171Y114149D01*
X143171D02*
X143137Y114055D01*
X143137D02*
X143103Y113914D01*
X143103D02*
X143035Y113820D01*
X143035D02*
X142932Y113774D01*
X142932D02*
X142830D01*
X142830D02*
X142728Y113820D01*
X142728D02*
X142694Y113867D01*
X142694D02*
X142660Y113961D01*
X149507Y114758D02*
Y113774D01*
X149269Y114758D02*
X149746D01*
X150053D02*
Y113774D01*
Y114758D02*
X150360D01*
X150462Y114711*
X150462D02*
X150496Y114664D01*
X150496D02*
X150530Y114570D01*
X150530D02*
Y114430D01*
X150496Y114336*
X150496D02*
X150462Y114289D01*
X150462D02*
X150360Y114242D01*
X150360D02*
X150053D01*
X151314Y114758D02*
X150973Y113774D01*
X150837Y114758D02*
X151314D01*
X154465Y110338D02*
X155215D01*
X155215D02*
X155356Y110304D01*
X155356D02*
X155403Y110270D01*
X155450Y110202*
Y110134*
X155403Y110065*
X155403D02*
X155356Y110031D01*
X155356D02*
X155215Y109997D01*
X155215D02*
X155121D01*
X154653Y110645D02*
X154606Y110713D01*
X154606D02*
X154465Y110815D01*
X154465D02*
X155450D01*
X50459Y173163D02*
Y172460D01*
X50459D02*
X50493Y172319D01*
X50493D02*
X50561Y172225D01*
X50561D02*
X50664Y172179D01*
X50732*
X50834Y172225*
X50834D02*
X50902Y172319D01*
X50902D02*
X50936Y172460D01*
X50936D02*
Y173163D01*
X51243Y172975D02*
X51311Y173022D01*
X51311D02*
X51414Y173163D01*
Y172179*
X100626Y99873D02*
Y99170D01*
X100660Y99029*
X100660D02*
X100728Y98935D01*
X100728D02*
X100830Y98889D01*
X100830D02*
X100898D01*
X100898D02*
X101001Y98935D01*
X101001D02*
X101069Y99029D01*
X101069D02*
X101103Y99170D01*
Y99873*
X101478D02*
X101853D01*
X101648Y99498*
X101648D02*
X101751D01*
X101819Y99451*
X101819D02*
X101853Y99404D01*
X101853D02*
X101887Y99264D01*
X101887D02*
Y99170D01*
X101887D02*
X101853Y99029D01*
X101853D02*
X101785Y98935D01*
X101785D02*
X101682Y98889D01*
X101682D02*
X101580D01*
X101580D02*
X101478Y98935D01*
X101478D02*
X101444Y98982D01*
X101444D02*
X101410Y99076D01*
X50306Y99873D02*
Y99170D01*
X50340Y99029*
X50340D02*
X50408Y98935D01*
X50408D02*
X50510Y98889D01*
X50510D02*
X50578D01*
X50578D02*
X50681Y98935D01*
X50681D02*
X50749Y99029D01*
X50749D02*
X50783Y99170D01*
Y99873*
X51124Y99639D02*
Y99685D01*
X51124D02*
X51158Y99779D01*
X51158D02*
X51192Y99826D01*
X51192D02*
X51260Y99873D01*
X51260D02*
X51397D01*
X51465Y99826*
X51465D02*
X51499Y99779D01*
X51499D02*
X51533Y99685D01*
X51533D02*
Y99592D01*
X51499Y99498*
X51431Y99357*
X51431D02*
X51090Y98889D01*
X51567*
X100609Y173163D02*
Y172460D01*
X100643Y172319*
X100643D02*
X100711Y172225D01*
X100711D02*
X100813Y172179D01*
X100813D02*
X100881D01*
X100881D02*
X100984Y172225D01*
X100984D02*
X101052Y172319D01*
X101052D02*
X101086Y172460D01*
Y173163*
X101734D02*
X101393Y172507D01*
X101904*
X101734Y173163D02*
Y172179D01*
X82389Y135744D02*
Y135041D01*
X82389D02*
X82423Y134900D01*
X82423D02*
X82492Y134806D01*
X82492D02*
X82594Y134760D01*
X82662*
X82662D02*
X82764Y134806D01*
X82764D02*
X82833Y134900D01*
X82833D02*
X82867Y135041D01*
Y135744*
X83242D02*
X83617D01*
X83412Y135369*
X83412D02*
X83514D01*
X83514D02*
X83583Y135322D01*
X83583D02*
X83617Y135275D01*
X83617D02*
X83651Y135135D01*
Y135041*
X83617Y134900*
X83617D02*
X83548Y134806D01*
X83548D02*
X83446Y134760D01*
X83446D02*
X83344D01*
X83242Y134806*
X83242D02*
X83208Y134853D01*
X83208D02*
X83173Y134947D01*
X83992Y135510D02*
Y135556D01*
X83992D02*
X84026Y135650D01*
X84026D02*
X84060Y135697D01*
X84060D02*
X84128Y135744D01*
X84264*
X84264D02*
X84333Y135697D01*
X84333D02*
X84367Y135650D01*
X84367D02*
X84401Y135556D01*
X84401D02*
Y135463D01*
X84367Y135369*
X84298Y135228*
X84298D02*
X83958Y134760D01*
X84435*
X136915Y151467D02*
X137900D01*
X136915D02*
Y151705D01*
X136915D02*
X136962Y151808D01*
X136962D02*
X137056Y151876D01*
X137150Y151910*
X137290Y151944*
X137290D02*
X137525D01*
X137525D02*
X137665Y151910D01*
X137665D02*
X137759Y151876D01*
X137853Y151808*
X137900Y151705*
X137900D02*
Y151467D01*
X137056Y152660D02*
X136962Y152626D01*
X136962D02*
X136915Y152524D01*
X136915D02*
Y152455D01*
X136915D02*
X136962Y152353D01*
X136962D02*
X137103Y152285D01*
X137337Y152251*
X137337D02*
X137572D01*
X137759Y152285*
X137853Y152353*
X137853D02*
X137900Y152455D01*
X137900D02*
Y152490D01*
X137853Y152592*
X137759Y152660*
X137618Y152694*
X137618D02*
X137572D01*
X137572D02*
X137431Y152660D01*
X137337Y152592*
X137337D02*
X137290Y152490D01*
X137290D02*
Y152455D01*
X137290D02*
X137337Y152353D01*
X137337D02*
X137431Y152285D01*
X137572Y152251*
X134501Y174012D02*
X135485D01*
X134501D02*
Y174319D01*
X134501D02*
X134548Y174421D01*
X134548D02*
X134595Y174455D01*
X134595D02*
X134689Y174489D01*
X134689D02*
X134782D01*
X134782D02*
X134876Y174455D01*
X134876D02*
X134923Y174421D01*
X134923D02*
X134970Y174319D01*
Y174012*
Y174251D02*
X135485Y174489D01*
X134689Y174796D02*
X134642Y174864D01*
X134642D02*
X134501Y174967D01*
X134501D02*
X135485D01*
X134735Y175307D02*
X134689D01*
X134689D02*
X134595Y175342D01*
X134548Y175376*
X134501Y175444*
X134501D02*
Y175580D01*
X134501D02*
X134548Y175648D01*
X134548D02*
X134595Y175682D01*
X134595D02*
X134689Y175717D01*
X134782*
X134782D02*
X134876Y175682D01*
X134876D02*
X135017Y175614D01*
X135017D02*
X135485Y175273D01*
X135485D02*
Y175751D01*
X137901Y191687D02*
X138885D01*
X137901D02*
Y191994D01*
X137901D02*
X137948Y192096D01*
X137948D02*
X137995Y192130D01*
X137995D02*
X138089Y192164D01*
X138089D02*
X138182D01*
X138182D02*
X138276Y192130D01*
X138276D02*
X138323Y192096D01*
X138323D02*
X138370Y191994D01*
Y191687*
Y191926D02*
X138885Y192164D01*
X138089Y192471D02*
X138042Y192539D01*
X138042D02*
X137901Y192642D01*
X137901D02*
X138885D01*
X137901Y193017D02*
Y193392D01*
X137901D02*
X138276Y193187D01*
X138276D02*
Y193289D01*
X138276D02*
X138323Y193357D01*
X138323D02*
X138370Y193392D01*
X138510Y193426*
X138510D02*
X138604D01*
X138604D02*
X138745Y193392D01*
X138839Y193323*
X138839D02*
X138885Y193221D01*
X138885D02*
Y193119D01*
X138885D02*
X138839Y193017D01*
X138792Y192982*
X138792D02*
X138698Y192948D01*
X142501Y197901D02*
X143485D01*
X142501D02*
Y198139D01*
X142501D02*
X142548Y198242D01*
X142642Y198310*
X142735Y198344*
X142735D02*
X142876Y198378D01*
X142876D02*
X143110D01*
X143110D02*
X143251Y198344D01*
X143251D02*
X143345Y198310D01*
X143439Y198242*
X143485Y198139*
X143485D02*
Y197901D01*
X142501Y198855D02*
X142548Y198753D01*
X142642Y198719*
X142735*
X142735D02*
X142829Y198753D01*
X142829D02*
X142876Y198821D01*
X142876D02*
X142923Y198957D01*
X142923D02*
X142970Y199060D01*
X143064Y199128*
X143157Y199162*
X143157D02*
X143298D01*
X143298D02*
X143392Y199128D01*
X143439Y199094*
X143485Y198992*
X143485D02*
Y198855D01*
X143485D02*
X143439Y198753D01*
X143392Y198719*
X143298Y198685*
X143157*
X143157D02*
X143064Y198719D01*
X142970Y198787*
X142970D02*
X142923Y198889D01*
X142923D02*
X142876Y199026D01*
X142876D02*
X142829Y199094D01*
X142829D02*
X142735Y199128D01*
X142735D02*
X142642D01*
X142548Y199094*
X142501Y198992*
X142501D02*
Y198855D01*
X143034Y146723D02*
X143307Y146254D01*
X143307D02*
Y145739D01*
X143579Y146723D02*
X143307Y146254D01*
X143886Y146535D02*
X143954Y146582D01*
X143954D02*
X144057Y146723D01*
Y145739*
X135234Y188073D02*
Y187370D01*
X135268Y187229*
X135268D02*
X135336Y187135D01*
X135336D02*
X135438Y187089D01*
X135438D02*
X135506D01*
X135506D02*
X135609Y187135D01*
X135609D02*
X135677Y187229D01*
X135677D02*
X135711Y187370D01*
Y188073*
X136052Y187839D02*
Y187885D01*
X136052D02*
X136086Y187979D01*
X136086D02*
X136120Y188026D01*
X136120D02*
X136188Y188073D01*
X136188D02*
X136325D01*
X136393Y188026*
X136393D02*
X136427Y187979D01*
X136427D02*
X136461Y187885D01*
X136461D02*
Y187792D01*
X136427Y187698*
X136359Y187557*
X136359D02*
X136018Y187089D01*
X136495*
X136972Y188073D02*
X136870Y188026D01*
X136870D02*
X136836Y187932D01*
X136836D02*
Y187839D01*
X136870Y187745*
X136938Y187698*
X136938D02*
X137075Y187651D01*
X137075D02*
X137177Y187604D01*
X137177D02*
X137245Y187510D01*
X137245D02*
X137279Y187417D01*
X137279D02*
Y187276D01*
X137279D02*
X137245Y187182D01*
X137245D02*
X137211Y187135D01*
X137211D02*
X137109Y187089D01*
X136972*
X136972D02*
X136870Y187135D01*
X136870D02*
X136836Y187182D01*
X136836D02*
X136802Y187276D01*
X136802D02*
Y187417D01*
X136836Y187510*
X136836D02*
X136904Y187604D01*
X136904D02*
X137006Y187651D01*
X137006D02*
X137143Y187698D01*
X137211Y187745*
X137245Y187839*
Y187932*
X137245D02*
X137211Y188026D01*
X137211D02*
X137109Y188073D01*
X136972*
X154609Y176837D02*
Y176134D01*
X154643Y175993*
X154643D02*
X154711Y175900D01*
X154813Y175853*
X154813D02*
X154881D01*
X154881D02*
X154984Y175900D01*
X155052Y175993*
X155052D02*
X155086Y176134D01*
Y176837*
X155836D02*
X155495D01*
X155495D02*
X155461Y176415D01*
X155461D02*
X155495Y176462D01*
X155495D02*
X155597Y176509D01*
X155597D02*
X155700D01*
X155802Y176462*
X155802D02*
X155870Y176368D01*
X155870D02*
X155904Y176228D01*
X155904D02*
X155870Y176134D01*
X155836Y175993*
X155836D02*
X155768Y175900D01*
X155665Y175853*
X155665D02*
X155563D01*
X155563D02*
X155461Y175900D01*
X155427Y175946*
X155427D02*
X155393Y176040D01*
X135201Y189498D02*
Y188795D01*
X135235Y188654*
X135235D02*
X135303Y188560D01*
X135303D02*
X135405Y188514D01*
X135405D02*
X135473D01*
X135473D02*
X135576Y188560D01*
X135576D02*
X135644Y188654D01*
X135644D02*
X135678Y188795D01*
Y189498*
X136155D02*
X136053Y189451D01*
X136053D02*
X136019Y189357D01*
X136019D02*
Y189264D01*
X136053Y189170*
X136121Y189123*
X136121D02*
X136257Y189076D01*
X136257D02*
X136360Y189029D01*
X136360D02*
X136428Y188935D01*
X136428D02*
X136462Y188842D01*
X136462D02*
Y188701D01*
X136462D02*
X136428Y188607D01*
X136428D02*
X136394Y188560D01*
X136394D02*
X136292Y188514D01*
X136155*
X136155D02*
X136053Y188560D01*
X136053D02*
X136019Y188607D01*
X136019D02*
X135985Y188701D01*
X135985D02*
Y188842D01*
X136019Y188935*
X136019D02*
X136087Y189029D01*
X136087D02*
X136189Y189076D01*
X136189D02*
X136326Y189123D01*
X136394Y189170*
X136428Y189264*
Y189357*
X136428D02*
X136394Y189451D01*
X136394D02*
X136292Y189498D01*
X136155*
X154937Y157585D02*
X155687D01*
X155687D02*
X155828Y157551D01*
X155875Y157517*
X155921Y157448*
X155921D02*
Y157380D01*
X155921D02*
X155875Y157312D01*
X155828Y157278*
X155687Y157244*
X155687D02*
X155593D01*
X155171Y157926D02*
X155125D01*
X155031Y157960*
X154984Y157994*
X154937Y158062*
X154937D02*
Y158198D01*
X154937D02*
X154984Y158267D01*
X155031Y158301*
X155125Y158335*
X155218*
X155218D02*
X155312Y158301D01*
X155312D02*
X155453Y158232D01*
X155453D02*
X155921Y157892D01*
X155921D02*
Y158369D01*
X119700Y190843D02*
Y189859D01*
X120109*
X120484Y190843D02*
X120859D01*
X120654Y190468*
X120654D02*
X120757D01*
X120825Y190421*
X120825D02*
X120859Y190374D01*
X120859D02*
X120893Y190234D01*
Y190140*
X120859Y189999*
X120859D02*
X120791Y189905D01*
X120791D02*
X120688Y189859D01*
X120688D02*
X120586D01*
X120586D02*
X120484Y189905D01*
X120484D02*
X120450Y189952D01*
X120450D02*
X120416Y190046D01*
X30093Y83553D02*
Y82569D01*
X30093D02*
X30502D01*
X30809Y83365D02*
X30877Y83412D01*
X30877D02*
X30980Y83553D01*
Y82569*
X81620Y83553D02*
Y82569D01*
X82029*
X82370Y83319D02*
Y83365D01*
X82370D02*
X82404Y83459D01*
X82404D02*
X82438Y83506D01*
X82438D02*
X82506Y83553D01*
X82506D02*
X82642D01*
X82642D02*
X82711Y83506D01*
X82711D02*
X82745Y83459D01*
X82745D02*
X82779Y83365D01*
X82779D02*
Y83272D01*
X82745Y83178*
X82677Y83037*
X82677D02*
X82336Y82569D01*
X82813*
X154568Y178498D02*
Y177795D01*
X154602Y177654*
X154602D02*
X154670Y177560D01*
X154670D02*
X154772Y177514D01*
X154772D02*
X154840D01*
X154840D02*
X154943Y177560D01*
X154943D02*
X155011Y177654D01*
X155011D02*
X155045Y177795D01*
Y178498*
X155761Y178357D02*
X155727Y178451D01*
X155727D02*
X155625Y178498D01*
X155556*
X155556D02*
X155454Y178451D01*
X155454D02*
X155386Y178310D01*
X155386D02*
X155352Y178076D01*
X155352D02*
Y177842D01*
X155386Y177654*
X155386D02*
X155454Y177560D01*
X155454D02*
X155556Y177514D01*
X155556D02*
X155590D01*
X155590D02*
X155693Y177560D01*
X155693D02*
X155761Y177654D01*
X155761D02*
X155795Y177795D01*
Y177842*
X155761Y177982*
X155761D02*
X155693Y178076D01*
X155693D02*
X155590Y178123D01*
X155590D02*
X155556D01*
X155556D02*
X155454Y178076D01*
X155454D02*
X155386Y177982D01*
X155386D02*
X155352Y177842D01*
X136078Y167798D02*
Y167095D01*
X136112Y166954*
X136112D02*
X136180Y166860D01*
X136180D02*
X136282Y166814D01*
X136282D02*
X136350D01*
X136350D02*
X136453Y166860D01*
X136453D02*
X136521Y166954D01*
X136521D02*
X136555Y167095D01*
Y167798*
X137305Y167470D02*
X137271Y167329D01*
X137271D02*
X137203Y167235D01*
X137203D02*
X137100Y167189D01*
X137100D02*
X137066D01*
X137066D02*
X136964Y167235D01*
X136964D02*
X136896Y167329D01*
X136896D02*
X136862Y167470D01*
Y167517*
X136896Y167657*
X136896D02*
X136964Y167751D01*
X136964D02*
X137066Y167798D01*
X137066D02*
X137100D01*
X137100D02*
X137203Y167751D01*
X137203D02*
X137271Y167657D01*
X137271D02*
X137305Y167470D01*
Y167235*
X137305D02*
X137271Y167001D01*
X137271D02*
X137203Y166860D01*
X137203D02*
X137100Y166814D01*
X137100D02*
X137032D01*
X137032D02*
X136930Y166860D01*
X136930D02*
X136896Y166954D01*
X151420Y202276D02*
X152170D01*
X152170D02*
X152311Y202242D01*
X152311D02*
X152358Y202208D01*
X152358D02*
X152405Y202140D01*
Y202072*
X152358Y202004*
X152311Y201970*
X152170Y201935*
X152170D02*
X152077D01*
X151420Y202651D02*
Y203026D01*
X151420D02*
X151795Y202822D01*
X151795D02*
Y202924D01*
X151795D02*
X151842Y202992D01*
X151842D02*
X151889Y203026D01*
X151889D02*
X152030Y203060D01*
X152030D02*
X152123D01*
X152123D02*
X152264Y203026D01*
X152264D02*
X152358Y202958D01*
X152358D02*
X152405Y202856D01*
Y202754*
X152358Y202651*
X152358D02*
X152311Y202617D01*
X152311D02*
X152217Y202583D01*
X135201Y190998D02*
Y190295D01*
X135235Y190154*
X135235D02*
X135303Y190060D01*
X135303D02*
X135405Y190014D01*
X135405D02*
X135473D01*
X135473D02*
X135576Y190060D01*
X135576D02*
X135644Y190154D01*
X135644D02*
X135678Y190295D01*
Y190998*
X136462D02*
X136121Y190014D01*
X135985Y190998D02*
X136462D01*
X139501Y179384D02*
X140485D01*
X139501D02*
Y179622D01*
X139501D02*
X139548Y179725D01*
X139642Y179793*
X139735Y179827*
X139735D02*
X139876Y179861D01*
X139876D02*
X140110D01*
X140110D02*
X140251Y179827D01*
X140251D02*
X140345Y179793D01*
X140439Y179725*
X140485Y179622*
X140485D02*
Y179384D01*
X139501Y180611D02*
Y180270D01*
X139501D02*
X139923Y180236D01*
X139876Y180270*
X139876D02*
X139829Y180372D01*
X139829D02*
Y180475D01*
X139829D02*
X139876Y180577D01*
X139876D02*
X139970Y180645D01*
X140110Y180679*
X140110D02*
X140204Y180645D01*
X140204D02*
X140345Y180611D01*
X140439Y180543*
X140485Y180440*
X140485D02*
Y180338D01*
X140485D02*
X140439Y180236D01*
X140392Y180202*
X140298Y180168*
X146001Y177751D02*
X146985D01*
X146001D02*
Y177989D01*
X146001D02*
X146048Y178092D01*
X146142Y178160*
X146235Y178194*
X146235D02*
X146376Y178228D01*
X146376D02*
X146610D01*
X146610D02*
X146751Y178194D01*
X146751D02*
X146845Y178160D01*
X146939Y178092*
X146985Y177989*
X146985D02*
Y177751D01*
X146001Y179012D02*
X146985Y178671D01*
X146001Y178535D02*
Y179012D01*
X108581Y83553D02*
Y82569D01*
X108581D02*
X108990D01*
X109297Y83365D02*
X109365Y83412D01*
X109365D02*
X109467Y83553D01*
X109467D02*
Y82569D01*
X109979Y83553D02*
X109877Y83506D01*
X109877D02*
X109808Y83365D01*
X109808D02*
X109774Y83131D01*
X109774D02*
Y82990D01*
X109774D02*
X109808Y82756D01*
X109808D02*
X109877Y82615D01*
X109877D02*
X109979Y82569D01*
X110047*
X110047D02*
X110149Y82615D01*
X110149D02*
X110217Y82756D01*
X110217D02*
X110252Y82990D01*
X110252D02*
Y83131D01*
X110252D02*
X110217Y83365D01*
X110217D02*
X110149Y83506D01*
X110149D02*
X110047Y83553D01*
X110047D02*
X109979D01*
X96495Y190843D02*
Y189859D01*
X96904*
X97210Y190655D02*
X97279Y190702D01*
X97279D02*
X97381Y190843D01*
Y189859*
X97688Y190655D02*
X97756Y190702D01*
X97756D02*
X97858Y190843D01*
X97858D02*
Y189859D01*
X40581Y190843D02*
Y189859D01*
X40581D02*
X40990D01*
X41297Y190655D02*
X41365Y190702D01*
X41365D02*
X41467Y190843D01*
X41467D02*
Y189859D01*
X41808Y190609D02*
Y190655D01*
X41808D02*
X41842Y190749D01*
X41842D02*
X41877Y190796D01*
X41877D02*
X41945Y190843D01*
X42081*
X42081D02*
X42149Y190796D01*
X42149D02*
X42183Y190749D01*
X42183D02*
X42217Y190655D01*
X42217D02*
Y190562D01*
X42217D02*
X42183Y190468D01*
X42183D02*
X42115Y190327D01*
X42115D02*
X41774Y189859D01*
X41774D02*
X42252D01*
X67781Y83553D02*
Y82569D01*
X67781D02*
X68190D01*
X68497Y83365D02*
X68565Y83412D01*
X68565D02*
X68667Y83553D01*
X68667D02*
Y82569D01*
X69042Y83553D02*
X69417D01*
X69417D02*
X69213Y83178D01*
X69315*
X69315D02*
X69383Y83131D01*
X69383D02*
X69417Y83084D01*
X69417D02*
X69452Y82944D01*
Y82850*
X69417Y82709*
X69417D02*
X69349Y82615D01*
X69349D02*
X69247Y82569D01*
X69247D02*
X69145D01*
X69042Y82615*
X69042D02*
X69008Y82662D01*
X69008D02*
X68974Y82756D01*
X120804Y83553D02*
Y82569D01*
X120804D02*
X121213D01*
X121520Y83365D02*
X121588Y83412D01*
X121588D02*
X121690Y83553D01*
X121690D02*
Y82569D01*
X122338Y83553D02*
X121997Y82897D01*
X121997D02*
X122509D01*
X122338Y83553D02*
Y82569D01*
X81364Y190843D02*
Y189859D01*
X81364D02*
X81773D01*
X82080Y190655D02*
X82148Y190702D01*
X82148D02*
X82250Y190843D01*
X82250D02*
Y189859D01*
X83000Y190843D02*
X82660D01*
X82625Y190421*
X82625D02*
X82660Y190468D01*
X82762Y190515*
X82864*
X82864D02*
X82966Y190468D01*
X82966D02*
X83035Y190374D01*
X83035D02*
X83069Y190234D01*
X83035Y190140*
X83000Y189999*
X83000D02*
X82932Y189905D01*
X82932D02*
X82830Y189859D01*
X82728*
X82625Y189905*
X82625D02*
X82591Y189952D01*
X82591D02*
X82557Y190046D01*
X29718Y190843D02*
Y189859D01*
X29718D02*
X30127D01*
X30434Y190655D02*
X30502Y190702D01*
X30502D02*
X30605Y190843D01*
Y189859*
X31320Y190702D02*
X31286Y190796D01*
X31286D02*
X31184Y190843D01*
X31184D02*
X31116D01*
X31014Y190796*
X31014D02*
X30945Y190655D01*
X30945D02*
X30911Y190421D01*
X30911D02*
Y190187D01*
X30911D02*
X30945Y189999D01*
X30945D02*
X31014Y189905D01*
X31014D02*
X31116Y189859D01*
X31150*
X31252Y189905*
X31252D02*
X31320Y189999D01*
X31320D02*
X31355Y190140D01*
Y190187*
X31320Y190327*
X31320D02*
X31252Y190421D01*
X31252D02*
X31150Y190468D01*
X31116*
X31014Y190421*
X31014D02*
X30945Y190327D01*
X30945D02*
X30911Y190187D01*
X68003Y190843D02*
Y189859D01*
X68412*
X69060Y190843D02*
X68719Y190187D01*
X69230*
X69060Y190843D02*
Y189859D01*
X40803Y83553D02*
Y82569D01*
X41212*
X41962Y83553D02*
X41621D01*
X41587Y83131*
X41587D02*
X41621Y83178D01*
X41723Y83225*
X41723D02*
X41825D01*
X41825D02*
X41928Y83178D01*
X41996Y83084*
X41996D02*
X42030Y82944D01*
X41996Y82850*
X41962Y82709*
X41962D02*
X41894Y82615D01*
X41894D02*
X41791Y82569D01*
X41791D02*
X41689D01*
X41689D02*
X41587Y82615D01*
X41587D02*
X41553Y82662D01*
X41553D02*
X41519Y82756D01*
X95237Y83553D02*
Y82569D01*
X95646*
X96362Y83412D02*
X96328Y83506D01*
X96328D02*
X96225Y83553D01*
X96225D02*
X96157D01*
X96157D02*
X96055Y83506D01*
X96055D02*
X95987Y83365D01*
X95987D02*
X95953Y83131D01*
X95953D02*
Y82897D01*
X95987Y82709*
X95987D02*
X96055Y82615D01*
X96055D02*
X96157Y82569D01*
X96157D02*
X96191D01*
X96191D02*
X96294Y82615D01*
X96294D02*
X96362Y82709D01*
X96362D02*
X96396Y82850D01*
Y82897*
X96362Y83037*
X96362D02*
X96294Y83131D01*
X96294D02*
X96191Y83178D01*
X96191D02*
X96157D01*
X96157D02*
X96055Y83131D01*
X96055D02*
X95987Y83037D01*
X95987D02*
X95953Y82897D01*
X110180Y190843D02*
Y189859D01*
X110589*
X111373Y190843D02*
X111032Y189859D01*
X110896Y190843D02*
X111373D01*
X54420D02*
Y189859D01*
X54829*
X55306Y190843D02*
X55204Y190796D01*
X55204D02*
X55170Y190702D01*
X55170D02*
Y190609D01*
X55204Y190515*
X55272Y190468*
X55272D02*
X55408Y190421D01*
X55408D02*
X55511Y190374D01*
X55511D02*
X55579Y190280D01*
X55579D02*
X55613Y190187D01*
Y190046*
X55613D02*
X55579Y189952D01*
X55579D02*
X55545Y189905D01*
X55545D02*
X55442Y189859D01*
X55442D02*
X55306D01*
X55306D02*
X55204Y189905D01*
X55204D02*
X55170Y189952D01*
X55170D02*
X55136Y190046D01*
X55136D02*
Y190187D01*
X55170Y190280*
X55170D02*
X55238Y190374D01*
X55238D02*
X55340Y190421D01*
X55340D02*
X55477Y190468D01*
X55545Y190515*
X55579Y190609*
Y190702*
X55579D02*
X55545Y190796D01*
X55545D02*
X55442Y190843D01*
X55442D02*
X55306D01*
X54437Y83553D02*
Y82569D01*
X54846*
X55596Y83225D02*
X55562Y83084D01*
X55562D02*
X55494Y82990D01*
X55494D02*
X55391Y82944D01*
X55391D02*
X55357D01*
X55357D02*
X55255Y82990D01*
X55255D02*
X55187Y83084D01*
X55187D02*
X55153Y83225D01*
Y83272*
X55187Y83412*
X55187D02*
X55255Y83506D01*
X55255D02*
X55357Y83553D01*
X55357D02*
X55391D01*
X55391D02*
X55494Y83506D01*
X55494D02*
X55562Y83412D01*
X55562D02*
X55596Y83225D01*
Y82990*
X55596D02*
X55562Y82756D01*
X55562D02*
X55494Y82615D01*
X55494D02*
X55391Y82569D01*
X55391D02*
X55323D01*
X55323D02*
X55221Y82615D01*
X55221D02*
X55187Y82709D01*
X64969Y144678D02*
X64901Y144631D01*
X64901D02*
X64833Y144537D01*
X64833D02*
X64799Y144444D01*
X64765Y144303*
Y144069*
X64799Y143928*
X64833Y143834*
X64833D02*
X64901Y143740D01*
X64901D02*
X64969Y143694D01*
X64969D02*
X65105D01*
X65105D02*
X65174Y143740D01*
X65174D02*
X65242Y143834D01*
X65242D02*
X65276Y143928D01*
X65310Y144069*
Y144303*
X65276Y144444*
X65242Y144537*
X65242D02*
X65174Y144631D01*
X65174D02*
X65105Y144678D01*
X65105D02*
X64969D01*
X65071Y143881D02*
X65276Y143600D01*
X65958Y144678D02*
X65617Y144022D01*
X66128*
X65958Y144678D02*
Y143694D01*
X66878Y144350D02*
X66844Y144209D01*
X66844D02*
X66776Y144115D01*
X66776D02*
X66674Y144069D01*
X66640*
X66537Y144115*
X66537D02*
X66469Y144209D01*
X66469D02*
X66435Y144350D01*
Y144397*
X66469Y144537*
X66469D02*
X66537Y144631D01*
X66537D02*
X66640Y144678D01*
X66674*
X66776Y144631*
X66776D02*
X66844Y144537D01*
X66844D02*
X66878Y144350D01*
X66878D02*
Y144115D01*
X66878D02*
X66844Y143881D01*
X66844D02*
X66776Y143740D01*
X66776D02*
X66674Y143694D01*
X66605*
X66605D02*
X66503Y143740D01*
X66503D02*
X66469Y143834D01*
X35182Y129718D02*
X35114Y129671D01*
X35114D02*
X35046Y129577D01*
X35046D02*
X35012Y129484D01*
X34977Y129343*
X34977D02*
Y129109D01*
X34977D02*
X35012Y128968D01*
X35046Y128874*
X35046D02*
X35114Y128780D01*
X35114D02*
X35182Y128734D01*
X35182D02*
X35318D01*
X35318D02*
X35387Y128780D01*
X35387D02*
X35455Y128874D01*
X35455D02*
X35489Y128968D01*
X35523Y129109*
Y129343*
X35489Y129484*
X35455Y129577*
X35455D02*
X35387Y129671D01*
X35387D02*
X35318Y129718D01*
X35318D02*
X35182D01*
X35284Y128921D02*
X35489Y128640D01*
X36273Y129718D02*
X35932D01*
X35932D02*
X35898Y129296D01*
X35898D02*
X35932Y129343D01*
X35932D02*
X36034Y129390D01*
X36034D02*
X36137D01*
X36239Y129343*
X36307Y129249*
X36307D02*
X36341Y129109D01*
X36341D02*
X36307Y129015D01*
X36307D02*
X36273Y128874D01*
X36273D02*
X36205Y128780D01*
X36205D02*
X36102Y128734D01*
X36102D02*
X36000D01*
X36000D02*
X35898Y128780D01*
X35898D02*
X35864Y128827D01*
X35864D02*
X35830Y128921D01*
X36852Y129718D02*
X36750Y129671D01*
X36750D02*
X36682Y129530D01*
X36682D02*
X36648Y129296D01*
X36648D02*
Y129155D01*
X36648D02*
X36682Y128921D01*
X36682D02*
X36750Y128780D01*
X36750D02*
X36852Y128734D01*
X36852D02*
X36921D01*
X37023Y128780*
X37023D02*
X37091Y128921D01*
X37091D02*
X37125Y129155D01*
X37125D02*
Y129296D01*
X37125D02*
X37091Y129530D01*
X37091D02*
X37023Y129671D01*
X37023D02*
X36921Y129718D01*
X36852*
X68879Y142732D02*
Y142029D01*
X68913Y141888*
X68913D02*
X68981Y141795D01*
X69083Y141748*
X69083D02*
X69151D01*
X69151D02*
X69254Y141795D01*
X69322Y141888*
X69322D02*
X69356Y142029D01*
Y142732*
X69731D02*
X70106D01*
X70106D02*
X69901Y142357D01*
X69901D02*
X70004D01*
X70004D02*
X70072Y142310D01*
X70072D02*
X70106Y142263D01*
X70106D02*
X70140Y142123D01*
Y142029*
X70106Y141888*
X70106D02*
X70038Y141795D01*
X69935Y141748*
X69935D02*
X69833D01*
X69833D02*
X69731Y141795D01*
X69697Y141841*
X69697D02*
X69663Y141935D01*
X70651Y142732D02*
X70549Y142685D01*
X70549D02*
X70481Y142545D01*
X70447Y142310*
X70447D02*
Y142170D01*
X70481Y141935*
X70481D02*
X70549Y141795D01*
X70549D02*
X70651Y141748D01*
X70651D02*
X70720D01*
X70822Y141795*
X70890Y141935*
X70890D02*
X70924Y142170D01*
X70924D02*
Y142310D01*
X70924D02*
X70890Y142545D01*
X70822Y142685*
X70822D02*
X70720Y142732D01*
X70720D02*
X70651D01*
X32462Y135932D02*
Y135229D01*
X32462D02*
X32496Y135088D01*
X32496D02*
X32564Y134995D01*
X32564D02*
X32667Y134948D01*
X32735*
X32837Y134995*
X32837D02*
X32905Y135088D01*
X32905D02*
X32939Y135229D01*
X32939D02*
Y135932D01*
X33314D02*
X33689D01*
X33689D02*
X33485Y135557D01*
X33485D02*
X33587D01*
X33587D02*
X33655Y135510D01*
X33655D02*
X33689Y135463D01*
X33689D02*
X33723Y135323D01*
X33723D02*
Y135229D01*
X33723D02*
X33689Y135088D01*
X33689D02*
X33621Y134995D01*
X33621D02*
X33519Y134948D01*
X33417*
X33314Y134995*
X33314D02*
X33280Y135041D01*
X33280D02*
X33246Y135135D01*
X34030Y135745D02*
X34098Y135791D01*
X34098D02*
X34201Y135932D01*
X34201D02*
Y134948D01*
X118699Y142747D02*
Y142044D01*
X118733Y141903*
X118733D02*
X118801Y141810D01*
X118801D02*
X118903Y141763D01*
X118903D02*
X118972D01*
X119074Y141810*
X119142Y141903*
X119142D02*
X119176Y142044D01*
X119176D02*
Y142747D01*
X119551D02*
X119926D01*
X119926D02*
X119722Y142372D01*
X119722D02*
X119824D01*
X119824D02*
X119892Y142325D01*
X119892D02*
X119926Y142278D01*
X119926D02*
X119960Y142138D01*
X119960D02*
Y142044D01*
X119960D02*
X119926Y141903D01*
X119926D02*
X119858Y141810D01*
X119756Y141763*
X119653*
X119653D02*
X119551Y141810D01*
X119551D02*
X119517Y141856D01*
X119517D02*
X119483Y141950D01*
X120335Y142747D02*
X120710D01*
X120710D02*
X120506Y142372D01*
X120506D02*
X120608D01*
X120608D02*
X120676Y142325D01*
X120676D02*
X120710Y142278D01*
X120710D02*
X120744Y142138D01*
X120744D02*
Y142044D01*
X120744D02*
X120710Y141903D01*
X120710D02*
X120642Y141810D01*
X120642D02*
X120540Y141763D01*
X120438*
X120335Y141810*
X120335D02*
X120301Y141856D01*
X120301D02*
X120267Y141950D01*
X54277Y144678D02*
X54549Y144209D01*
X54549D02*
Y143694D01*
X54822Y144678D02*
X54549Y144209D01*
X55163Y144444D02*
Y144490D01*
X55163D02*
X55197Y144584D01*
X55197D02*
X55231Y144631D01*
X55231D02*
X55299Y144678D01*
X55299D02*
X55436D01*
X55504Y144631*
X55504D02*
X55538Y144584D01*
X55538D02*
X55572Y144490D01*
X55572D02*
Y144397D01*
X55538Y144303*
X55470Y144162*
X55470D02*
X55129Y143694D01*
X55606*
X46267Y129718D02*
X46539Y129249D01*
X46539D02*
Y128734D01*
X46812Y129718D02*
X46539Y129249D01*
X47187Y129718D02*
X47562D01*
X47562D02*
X47357Y129343D01*
X47357D02*
X47460D01*
X47528Y129296*
X47528D02*
X47562Y129249D01*
X47562D02*
X47596Y129109D01*
X47596D02*
Y129015D01*
X47596D02*
X47562Y128874D01*
X47562D02*
X47494Y128780D01*
X47494D02*
X47392Y128734D01*
X47289*
X47289D02*
X47187Y128780D01*
X47187D02*
X47153Y128827D01*
X47153D02*
X47119Y128921D01*
X142486Y156332D02*
Y155629D01*
X142520Y155488*
X142520D02*
X142588Y155395D01*
X142690Y155348*
X142690D02*
X142758D01*
X142758D02*
X142861Y155395D01*
X142929Y155488*
X142929D02*
X142963Y155629D01*
Y156332*
X143304Y156098D02*
Y156145D01*
X143338Y156238*
X143338D02*
X143372Y156285D01*
X143372D02*
X143440Y156332D01*
X143440D02*
X143577D01*
X143577D02*
X143645Y156285D01*
X143645D02*
X143679Y156238D01*
X143679D02*
X143713Y156145D01*
Y156051*
X143679Y155957*
X143679D02*
X143611Y155816D01*
X143611D02*
X143270Y155348D01*
X143747*
X144497Y156004D02*
X144463Y155863D01*
X144463D02*
X144395Y155770D01*
X144292Y155723*
X144292D02*
X144258D01*
X144258D02*
X144156Y155770D01*
X144156D02*
X144088Y155863D01*
X144088D02*
X144054Y156004D01*
Y156051*
X144088Y156191*
X144088D02*
X144156Y156285D01*
X144156D02*
X144258Y156332D01*
X144258D02*
X144292D01*
X144292D02*
X144395Y156285D01*
X144395D02*
X144463Y156191D01*
X144463D02*
X144497Y156004D01*
X144497D02*
Y155770D01*
X144497D02*
X144463Y155535D01*
X144463D02*
X144395Y155395D01*
X144292Y155348*
X144292D02*
X144224D01*
X144224D02*
X144122Y155395D01*
X144122D02*
X144088Y155488D01*
X96570Y129718D02*
X96842Y129249D01*
X96842D02*
Y128734D01*
X97115Y129718D02*
X96842Y129249D01*
X97763Y129718D02*
X97422Y129062D01*
X97933*
X97763Y129718D02*
Y128734D01*
X103220Y144678D02*
X103492Y144209D01*
X103492D02*
Y143694D01*
X103765Y144678D02*
X103492Y144209D01*
X104515Y144678D02*
X104174D01*
X104174D02*
X104140Y144256D01*
X104140D02*
X104174Y144303D01*
X104174D02*
X104276Y144350D01*
X104276D02*
X104379D01*
X104481Y144303*
X104549Y144209*
X104549D02*
X104583Y144069D01*
X104583D02*
X104549Y143975D01*
X104549D02*
X104515Y143834D01*
X104515D02*
X104447Y143740D01*
X104447D02*
X104345Y143694D01*
X104242*
X104242D02*
X104140Y143740D01*
X104140D02*
X104106Y143787D01*
X104106D02*
X104072Y143881D01*
X118660Y117571D02*
X118592Y117524D01*
X118592D02*
X118524Y117431D01*
X118490Y117337*
X118456Y117196*
X118456D02*
Y116962D01*
X118490Y116821*
X118490D02*
X118524Y116728D01*
X118592Y116634*
X118660Y116587*
X118660D02*
X118796D01*
X118796D02*
X118865Y116634D01*
X118933Y116728*
X118967Y116821*
X118967D02*
X119001Y116962D01*
X119001D02*
Y117196D01*
X119001D02*
X118967Y117337D01*
X118933Y117431*
X118865Y117524*
X118865D02*
X118796Y117571D01*
X118796D02*
X118660D01*
X118762Y116774D02*
X118967Y116493D01*
X119751Y117571D02*
X119410D01*
X119410D02*
X119376Y117149D01*
X119376D02*
X119410Y117196D01*
X119410D02*
X119512Y117243D01*
X119512D02*
X119615D01*
X119615D02*
X119717Y117196D01*
X119717D02*
X119785Y117103D01*
X119785D02*
X119819Y116962D01*
X119819D02*
X119785Y116868D01*
X119785D02*
X119751Y116728D01*
X119751D02*
X119683Y116634D01*
X119581Y116587*
X119478*
X119478D02*
X119376Y116634D01*
X119376D02*
X119342Y116681D01*
X119308Y116774*
X120126Y117384D02*
X120194Y117431D01*
X120194D02*
X120296Y117571D01*
X120296D02*
Y116587D01*
X85502Y129718D02*
X85434Y129671D01*
X85434D02*
X85366Y129577D01*
X85366D02*
X85332Y129484D01*
X85297Y129343*
X85297D02*
Y129109D01*
X85297D02*
X85332Y128968D01*
X85366Y128874*
X85366D02*
X85434Y128780D01*
X85434D02*
X85502Y128734D01*
X85502D02*
X85638D01*
X85638D02*
X85707Y128780D01*
X85707D02*
X85775Y128874D01*
X85775D02*
X85809Y128968D01*
X85843Y129109*
Y129343*
X85809Y129484*
X85775Y129577*
X85775D02*
X85707Y129671D01*
X85707D02*
X85638Y129718D01*
X85638D02*
X85502D01*
X85604Y128921D02*
X85809Y128640D01*
X86593Y129718D02*
X86252D01*
X86252D02*
X86218Y129296D01*
X86218D02*
X86252Y129343D01*
X86252D02*
X86354Y129390D01*
X86354D02*
X86457D01*
X86559Y129343*
X86627Y129249*
X86627D02*
X86661Y129109D01*
X86661D02*
X86627Y129015D01*
X86627D02*
X86593Y128874D01*
X86593D02*
X86525Y128780D01*
X86525D02*
X86422Y128734D01*
X86422D02*
X86320D01*
X86320D02*
X86218Y128780D01*
X86218D02*
X86184Y128827D01*
X86184D02*
X86150Y128921D01*
X87002Y129484D02*
Y129530D01*
X87002D02*
X87036Y129624D01*
X87036D02*
X87070Y129671D01*
X87070D02*
X87138Y129718D01*
X87138D02*
X87275D01*
X87343Y129671*
X87343D02*
X87377Y129624D01*
X87377D02*
X87411Y129530D01*
X87411D02*
Y129437D01*
X87411D02*
X87377Y129343D01*
X87377D02*
X87309Y129202D01*
X87309D02*
X86968Y128734D01*
X87445*
X115272Y144678D02*
X115204Y144631D01*
X115204D02*
X115136Y144537D01*
X115136D02*
X115102Y144444D01*
X115067Y144303*
X115067D02*
Y144069D01*
X115067D02*
X115102Y143928D01*
X115136Y143834*
X115136D02*
X115204Y143740D01*
X115204D02*
X115272Y143694D01*
X115272D02*
X115408D01*
X115408D02*
X115477Y143740D01*
X115477D02*
X115545Y143834D01*
X115545D02*
X115579Y143928D01*
X115613Y144069*
Y144303*
X115579Y144444*
X115545Y144537*
X115545D02*
X115477Y144631D01*
X115477D02*
X115408Y144678D01*
X115408D02*
X115272D01*
X115374Y143881D02*
X115579Y143600D01*
X116363Y144678D02*
X116022D01*
X116022D02*
X115988Y144256D01*
X115988D02*
X116022Y144303D01*
X116022D02*
X116124Y144350D01*
X116124D02*
X116227D01*
X116329Y144303*
X116397Y144209*
X116397D02*
X116431Y144069D01*
X116431D02*
X116397Y143975D01*
X116397D02*
X116363Y143834D01*
X116363D02*
X116295Y143740D01*
X116295D02*
X116192Y143694D01*
X116192D02*
X116090D01*
X116090D02*
X115988Y143740D01*
X115988D02*
X115954Y143787D01*
X115954D02*
X115920Y143881D01*
X116806Y144678D02*
X117181D01*
X117181D02*
X116977Y144303D01*
X117079*
X117147Y144256*
X117147D02*
X117181Y144209D01*
X117181D02*
X117215Y144069D01*
X117215D02*
Y143975D01*
X117215D02*
X117181Y143834D01*
X117181D02*
X117113Y143740D01*
X117113D02*
X117011Y143694D01*
X116908*
X116908D02*
X116806Y143740D01*
X116806D02*
X116772Y143787D01*
X116772D02*
X116738Y143881D01*
X50381Y148758D02*
Y147774D01*
X50142Y148758D02*
X50619D01*
X50926D02*
Y147774D01*
Y148758D02*
X51233D01*
X51335Y148711*
X51335D02*
X51369Y148664D01*
X51369D02*
X51403Y148570D01*
X51403D02*
Y148430D01*
X51403D02*
X51369Y148336D01*
X51369D02*
X51335Y148289D01*
X51335D02*
X51233Y148242D01*
X51233D02*
X50926D01*
X51710Y148570D02*
X51778Y148617D01*
X51778D02*
X51881Y148758D01*
Y147774*
X152940Y136518D02*
Y135534D01*
X152701Y136518D02*
X153178D01*
X153485D02*
Y135534D01*
Y136518D02*
X153792D01*
X153894Y136471*
X153894D02*
X153928Y136424D01*
X153928D02*
X153962Y136330D01*
X153962D02*
Y136190D01*
X153962D02*
X153928Y136096D01*
X153928D02*
X153894Y136049D01*
X153894D02*
X153792Y136002D01*
X153792D02*
X153485D01*
X154269Y136330D02*
X154337Y136377D01*
X154337D02*
X154440Y136518D01*
Y135534*
X154780Y136284D02*
Y136330D01*
X154780D02*
X154815Y136424D01*
X154815D02*
X154849Y136471D01*
X154849D02*
X154917Y136518D01*
X155053*
X155053D02*
X155121Y136471D01*
X155121D02*
X155155Y136424D01*
X155155D02*
X155190Y136330D01*
X155190D02*
Y136237D01*
X155155Y136143*
X155155D02*
X155087Y136002D01*
X155087D02*
X154746Y135534D01*
X154746D02*
X155224D01*
X155974Y136518D02*
X155633D01*
X155599Y136096*
X155599D02*
X155633Y136143D01*
X155735Y136190*
X155837*
X155837D02*
X155940Y136143D01*
X156008Y136049*
X156008D02*
X156042Y135909D01*
X156008Y135815*
X155974Y135674*
X155974D02*
X155905Y135580D01*
X155905D02*
X155803Y135534D01*
X155803D02*
X155701D01*
X155599Y135580*
X155599D02*
X155565Y135627D01*
X155565D02*
X155530Y135721D01*
X129837Y118838D02*
Y117854D01*
X129598Y118838D02*
X130075D01*
X130382D02*
Y117854D01*
Y118838D02*
X130689D01*
X130791Y118791*
X130791D02*
X130825Y118744D01*
X130825D02*
X130859Y118650D01*
X130859D02*
Y118510D01*
X130859D02*
X130825Y118416D01*
X130825D02*
X130791Y118369D01*
X130791D02*
X130689Y118322D01*
X130689D02*
X130382D01*
X131166Y118650D02*
X131234Y118697D01*
X131234D02*
X131337Y118838D01*
Y117854*
X131677Y118604D02*
Y118650D01*
X131677D02*
X131712Y118744D01*
X131712D02*
X131746Y118791D01*
X131746D02*
X131814Y118838D01*
X131950*
X131950D02*
X132018Y118791D01*
X132018D02*
X132052Y118744D01*
X132052D02*
X132087Y118650D01*
X132087D02*
Y118557D01*
X132052Y118463*
X132052D02*
X131984Y118322D01*
X131984D02*
X131643Y117854D01*
X131643D02*
X132121D01*
X132598Y118838D02*
X132496Y118791D01*
X132496D02*
X132462Y118697D01*
X132462D02*
Y118604D01*
X132496Y118510*
X132564Y118463*
X132700Y118416*
X132700D02*
X132802Y118369D01*
X132802D02*
X132871Y118275D01*
X132871D02*
X132905Y118182D01*
Y118041*
X132905D02*
X132871Y117947D01*
X132871D02*
X132837Y117900D01*
X132837D02*
X132734Y117854D01*
X132734D02*
X132598D01*
X132496Y117900*
X132496D02*
X132462Y117947D01*
X132462D02*
X132427Y118041D01*
X132427D02*
Y118182D01*
X132427D02*
X132462Y118275D01*
X132462D02*
X132530Y118369D01*
X132530D02*
X132632Y118416D01*
X132632D02*
X132768Y118463D01*
X132768D02*
X132837Y118510D01*
X132871Y118604*
Y118697*
X132871D02*
X132837Y118791D01*
X132837D02*
X132734Y118838D01*
X132734D02*
X132598D01*
X128494Y122918D02*
Y121934D01*
X128255Y122918D02*
X128732D01*
X129039D02*
Y121934D01*
Y122918D02*
X129346D01*
X129448Y122871*
X129448D02*
X129482Y122824D01*
X129482D02*
X129516Y122730D01*
X129516D02*
Y122590D01*
X129516D02*
X129482Y122496D01*
X129482D02*
X129448Y122449D01*
X129448D02*
X129346Y122402D01*
X129346D02*
X129039D01*
X129823Y122730D02*
X129891Y122777D01*
X129891D02*
X129994Y122918D01*
Y121934*
X130335Y122684D02*
Y122730D01*
X130335D02*
X130369Y122824D01*
X130369D02*
X130403Y122871D01*
X130403D02*
X130471Y122918D01*
X130607*
X130607D02*
X130675Y122871D01*
X130675D02*
X130710Y122824D01*
X130710D02*
X130744Y122730D01*
X130744D02*
Y122637D01*
X130710Y122543*
X130641Y122402*
X130641D02*
X130300Y121934D01*
X130300D02*
X130778D01*
X131528Y122590D02*
X131494Y122449D01*
X131494D02*
X131425Y122355D01*
X131425D02*
X131323Y122309D01*
X131323D02*
X131289D01*
X131289D02*
X131187Y122355D01*
X131187D02*
X131119Y122449D01*
X131119D02*
X131085Y122590D01*
Y122637*
X131119Y122777*
X131119D02*
X131187Y122871D01*
X131187D02*
X131289Y122918D01*
X131289D02*
X131323D01*
X131323D02*
X131425Y122871D01*
X131425D02*
X131494Y122777D01*
X131494D02*
X131528Y122590D01*
Y122355*
X131528D02*
X131494Y122121D01*
X131494D02*
X131425Y121980D01*
X131425D02*
X131323Y121934D01*
X131323D02*
X131255D01*
X131153Y121980*
X131153D02*
X131119Y122074D01*
X45892Y148758D02*
Y147774D01*
X45653Y148758D02*
X46130D01*
X46437D02*
Y147774D01*
Y148758D02*
X46744D01*
X46846Y148711*
X46846D02*
X46880Y148664D01*
X46880D02*
X46914Y148570D01*
X46914D02*
Y148430D01*
X46914D02*
X46880Y148336D01*
X46880D02*
X46846Y148289D01*
X46846D02*
X46744Y148242D01*
X46744D02*
X46437D01*
X47221Y148570D02*
X47289Y148617D01*
X47289D02*
X47392Y148758D01*
Y147774*
X48039Y148758D02*
X47698Y148102D01*
X47698D02*
X48210D01*
X48039Y148758D02*
Y147774D01*
X53902Y125638D02*
Y124654D01*
X53663Y125638D02*
X54140D01*
X54447D02*
Y124654D01*
Y125638D02*
X54754D01*
X54856Y125591*
X54856D02*
X54890Y125544D01*
X54890D02*
X54924Y125450D01*
X54924D02*
Y125310D01*
X54924D02*
X54890Y125216D01*
X54890D02*
X54856Y125169D01*
X54856D02*
X54754Y125122D01*
X54754D02*
X54447D01*
X55231Y125450D02*
X55299Y125497D01*
X55299D02*
X55402Y125638D01*
Y124654*
X56152Y125638D02*
X55811D01*
X55777Y125216*
X55777D02*
X55811Y125263D01*
X55913Y125310*
X56015*
X56015D02*
X56117Y125263D01*
X56117D02*
X56186Y125169D01*
X56186D02*
X56220Y125029D01*
X56186Y124935*
X56152Y124794*
X56152D02*
X56083Y124700D01*
X56083D02*
X55981Y124654D01*
X55981D02*
X55879D01*
X55777Y124700*
X55777D02*
X55742Y124747D01*
X55742D02*
X55708Y124841D01*
X104256Y125638D02*
Y124654D01*
X104017Y125638D02*
X104494D01*
X104801D02*
Y124654D01*
Y125638D02*
X105108D01*
X105210Y125591*
X105210D02*
X105244Y125544D01*
X105244D02*
X105278Y125450D01*
X105278D02*
Y125310D01*
X105278D02*
X105244Y125216D01*
X105244D02*
X105210Y125169D01*
X105210D02*
X105108Y125122D01*
X105108D02*
X104801D01*
X105585Y125450D02*
X105653Y125497D01*
X105653D02*
X105756Y125638D01*
Y124654*
X106472Y125497D02*
X106437Y125591D01*
X106437D02*
X106335Y125638D01*
X106335D02*
X106267D01*
X106165Y125591*
X106165D02*
X106097Y125450D01*
X106097D02*
X106062Y125216D01*
X106062D02*
Y124982D01*
X106062D02*
X106097Y124794D01*
X106097D02*
X106165Y124700D01*
X106165D02*
X106267Y124654D01*
X106301*
X106301D02*
X106403Y124700D01*
X106403D02*
X106472Y124794D01*
X106472D02*
X106506Y124935D01*
Y124982*
X106472Y125122*
X106472D02*
X106403Y125216D01*
X106403D02*
X106301Y125263D01*
X106301D02*
X106267D01*
X106165Y125216*
X106165D02*
X106097Y125122D01*
X106097D02*
X106062Y124982D01*
X96229Y148758D02*
Y147774D01*
X95990Y148758D02*
X96467D01*
X96774D02*
Y147774D01*
Y148758D02*
X97081D01*
X97183Y148711*
X97183D02*
X97217Y148664D01*
X97217D02*
X97251Y148570D01*
X97251D02*
Y148430D01*
X97251D02*
X97217Y148336D01*
X97217D02*
X97183Y148289D01*
X97183D02*
X97081Y148242D01*
X97081D02*
X96774D01*
X97558Y148570D02*
X97626Y148617D01*
X97626D02*
X97729Y148758D01*
Y147774*
X98513Y148758D02*
X98172Y147774D01*
X98035Y148758D02*
X98513D01*
X48700Y125638D02*
Y124654D01*
X48462Y125638D02*
X48939D01*
X49246D02*
Y124654D01*
Y125638D02*
X49552D01*
X49552D02*
X49655Y125591D01*
X49655D02*
X49689Y125544D01*
X49689D02*
X49723Y125450D01*
X49723D02*
Y125310D01*
X49689Y125216*
X49689D02*
X49655Y125169D01*
X49655D02*
X49552Y125122D01*
X49552D02*
X49246D01*
X50371Y125638D02*
X50030Y124982D01*
X50541*
X50371Y125638D02*
Y124654D01*
X99037Y125638D02*
Y124654D01*
X98799Y125638D02*
X99276D01*
X99583D02*
Y124654D01*
Y125638D02*
X99890D01*
X99992Y125591*
X99992D02*
X100026Y125544D01*
X100026D02*
X100060Y125450D01*
X100060D02*
Y125310D01*
X100026Y125216*
X100026D02*
X99992Y125169D01*
X99992D02*
X99890Y125122D01*
X99890D02*
X99583D01*
X100537Y125638D02*
X100435Y125591D01*
X100435D02*
X100401Y125497D01*
X100401D02*
Y125404D01*
X100435Y125310*
X100503Y125263*
X100503D02*
X100640Y125216D01*
X100640D02*
X100742Y125169D01*
X100742D02*
X100810Y125075D01*
X100810D02*
X100844Y124982D01*
X100844D02*
Y124841D01*
X100844D02*
X100810Y124747D01*
X100810D02*
X100776Y124700D01*
X100776D02*
X100674Y124654D01*
X100537*
X100537D02*
X100435Y124700D01*
X100435D02*
X100401Y124747D01*
X100401D02*
X100367Y124841D01*
X100367D02*
Y124982D01*
X100401Y125075*
X100401D02*
X100469Y125169D01*
X100469D02*
X100571Y125216D01*
X100571D02*
X100708Y125263D01*
X100776Y125310*
X100810Y125404*
Y125497*
X100810D02*
X100776Y125591D01*
X100776D02*
X100674Y125638D01*
X100537*
X100564Y148758D02*
Y147774D01*
X100326Y148758D02*
X100803D01*
X101110D02*
Y147774D01*
Y148758D02*
X101417D01*
X101519Y148711*
X101519D02*
X101553Y148664D01*
X101553D02*
X101587Y148570D01*
X101587D02*
Y148430D01*
X101587D02*
X101553Y148336D01*
X101553D02*
X101519Y148289D01*
X101519D02*
X101417Y148242D01*
X101417D02*
X101110D01*
X102337Y148430D02*
X102303Y148289D01*
X102303D02*
X102235Y148195D01*
X102235D02*
X102132Y148149D01*
X102132D02*
X102098D01*
X102098D02*
X101996Y148195D01*
X101996D02*
X101928Y148289D01*
X101928D02*
X101894Y148430D01*
Y148477*
X101928Y148617*
X101928D02*
X101996Y148711D01*
X101996D02*
X102098Y148758D01*
X102098D02*
X102132D01*
X102132D02*
X102235Y148711D01*
X102235D02*
X102303Y148617D01*
X102303D02*
X102337Y148430D01*
X102337D02*
Y148195D01*
X102337D02*
X102303Y147961D01*
X102303D02*
X102235Y147820D01*
X102235D02*
X102132Y147774D01*
X102132D02*
X102064D01*
X102064D02*
X101962Y147820D01*
X101962D02*
X101928Y147914D01*
X119349Y127772D02*
Y127069D01*
X119383Y126928*
X119383D02*
X119451Y126835D01*
X119553Y126788*
X119553D02*
X119621D01*
X119621D02*
X119724Y126835D01*
X119792Y126928*
X119792D02*
X119826Y127069D01*
Y127772*
X120167Y127538D02*
Y127585D01*
X120201Y127678*
X120201D02*
X120235Y127725D01*
X120235D02*
X120303Y127772D01*
X120303D02*
X120440D01*
X120440D02*
X120508Y127725D01*
X120508D02*
X120542Y127678D01*
X120542D02*
X120576Y127585D01*
Y127491*
X120542Y127397*
X120542D02*
X120474Y127256D01*
X120474D02*
X120133Y126788D01*
X120610*
X121394Y127772D02*
X121053Y126788D01*
X120917Y127772D02*
X121394D01*
X33287Y121633D02*
X33560Y121164D01*
X33560D02*
Y120649D01*
X33832Y121633D02*
X33560Y121164D01*
X34344Y121633D02*
X34275Y121586D01*
X34275D02*
X34207Y121492D01*
X34207D02*
X34173Y121399D01*
X34173D02*
X34139Y121258D01*
X34139D02*
Y121024D01*
X34139D02*
X34173Y120883D01*
X34173D02*
X34207Y120789D01*
X34207D02*
X34275Y120695D01*
X34275D02*
X34344Y120649D01*
X34480*
X34548Y120695*
X34548D02*
X34616Y120789D01*
X34616D02*
X34650Y120883D01*
X34650D02*
X34685Y121024D01*
Y121258*
X34650Y121399*
X34650D02*
X34616Y121492D01*
X34616D02*
X34548Y121586D01*
X34548D02*
X34480Y121633D01*
X34344*
X34991Y121445D02*
X35060Y121492D01*
X35060D02*
X35162Y121633D01*
Y120649*
X35673Y121633D02*
X35571Y121586D01*
X35571D02*
X35503Y121445D01*
X35503D02*
X35469Y121211D01*
X35469D02*
Y121070D01*
X35469D02*
X35503Y120836D01*
X35503D02*
X35571Y120695D01*
X35571D02*
X35673Y120649D01*
X35673D02*
X35741D01*
X35741D02*
X35844Y120695D01*
X35844D02*
X35912Y120836D01*
X35912D02*
X35946Y121070D01*
X35946D02*
Y121211D01*
X35946D02*
X35912Y121445D01*
X35912D02*
X35844Y121586D01*
X35844D02*
X35741Y121633D01*
X35741D02*
X35673D01*
X83760Y118913D02*
X84033Y118444D01*
X84033D02*
Y117929D01*
X84306Y118913D02*
X84033Y118444D01*
X84817Y118913D02*
X84749Y118866D01*
X84749D02*
X84681Y118772D01*
X84681D02*
X84647Y118679D01*
X84612Y118538*
X84612D02*
Y118304D01*
X84612D02*
X84647Y118163D01*
X84681Y118069*
X84681D02*
X84749Y117975D01*
X84749D02*
X84817Y117929D01*
X84817D02*
X84953D01*
X84953D02*
X85022Y117975D01*
X85022D02*
X85090Y118069D01*
X85090D02*
X85124Y118163D01*
X85158Y118304*
Y118538*
X85124Y118679*
X85090Y118772*
X85090D02*
X85022Y118866D01*
X85022D02*
X84953Y118913D01*
X84953D02*
X84817D01*
X85465Y118725D02*
X85533Y118772D01*
X85533D02*
X85635Y118913D01*
X85635D02*
Y117929D01*
X85942Y118725D02*
X86010Y118772D01*
X86010D02*
X86112Y118913D01*
X86112D02*
Y117929D01*
X116247Y151403D02*
X116520Y150934D01*
X116520D02*
Y150419D01*
X116792Y151403D02*
X116520Y150934D01*
X117304Y151403D02*
X117235Y151356D01*
X117235D02*
X117167Y151262D01*
X117167D02*
X117133Y151169D01*
X117133D02*
X117099Y151028D01*
X117099D02*
Y150794D01*
X117099D02*
X117133Y150653D01*
X117133D02*
X117167Y150559D01*
X117167D02*
X117235Y150465D01*
X117235D02*
X117304Y150419D01*
X117440*
X117508Y150465*
X117508D02*
X117576Y150559D01*
X117576D02*
X117610Y150653D01*
X117610D02*
X117645Y150794D01*
Y151028*
X117610Y151169*
X117610D02*
X117576Y151262D01*
X117576D02*
X117508Y151356D01*
X117508D02*
X117440Y151403D01*
X117304*
X117951Y151215D02*
X118020Y151262D01*
X118020D02*
X118122Y151403D01*
Y150419*
X118463Y151169D02*
Y151215D01*
X118463D02*
X118497Y151309D01*
X118497D02*
X118531Y151356D01*
X118531D02*
X118599Y151403D01*
X118599D02*
X118735D01*
X118735D02*
X118804Y151356D01*
X118804D02*
X118838Y151309D01*
X118838D02*
X118872Y151215D01*
X118872D02*
Y151122D01*
X118838Y151028*
X118770Y150887*
X118770D02*
X118429Y150419D01*
X118906*
X66182Y151403D02*
X66455Y150934D01*
X66455D02*
Y150419D01*
X66728Y151403D02*
X66455Y150934D01*
X67239Y151403D02*
X67171Y151356D01*
X67171D02*
X67103Y151262D01*
X67103D02*
X67069Y151169D01*
X67035Y151028*
Y150794*
X67069Y150653*
X67103Y150559*
X67103D02*
X67171Y150465D01*
X67171D02*
X67239Y150419D01*
X67239D02*
X67376D01*
X67444Y150465*
X67444D02*
X67512Y150559D01*
X67512D02*
X67546Y150653D01*
X67546D02*
X67580Y150794D01*
X67580D02*
Y151028D01*
X67580D02*
X67546Y151169D01*
X67546D02*
X67512Y151262D01*
X67512D02*
X67444Y151356D01*
X67444D02*
X67376Y151403D01*
X67239*
X68330Y151075D02*
X68296Y150934D01*
X68296D02*
X68228Y150840D01*
X68228D02*
X68126Y150794D01*
X68092*
X67989Y150840*
X67989D02*
X67921Y150934D01*
X67921D02*
X67887Y151075D01*
Y151122*
X67921Y151262*
X67921D02*
X67989Y151356D01*
X67989D02*
X68092Y151403D01*
X68126*
X68228Y151356*
X68228D02*
X68296Y151262D01*
X68296D02*
X68330Y151075D01*
X68330D02*
Y150840D01*
X68330D02*
X68296Y150606D01*
X68296D02*
X68228Y150465D01*
X68228D02*
X68126Y150419D01*
X68057*
X68057D02*
X67955Y150465D01*
X67955D02*
X67921Y150559D01*
X66148Y152763D02*
X66421Y152294D01*
X66421D02*
Y151779D01*
X66694Y152763D02*
X66421Y152294D01*
X67205Y152763D02*
X67137Y152716D01*
X67137D02*
X67069Y152622D01*
X67069D02*
X67035Y152529D01*
X67001Y152388*
Y152154*
X67035Y152013*
X67069Y151919*
X67069D02*
X67137Y151825D01*
X67137D02*
X67205Y151779D01*
X67205D02*
X67342D01*
X67410Y151825*
X67410D02*
X67478Y151919D01*
X67478D02*
X67512Y152013D01*
X67512D02*
X67546Y152154D01*
X67546D02*
Y152388D01*
X67546D02*
X67512Y152529D01*
X67512D02*
X67478Y152622D01*
X67478D02*
X67410Y152716D01*
X67410D02*
X67342Y152763D01*
X67205*
X68296D02*
X67955D01*
X67955D02*
X67921Y152341D01*
X67921D02*
X67955Y152388D01*
X67955D02*
X68057Y152435D01*
X68057D02*
X68160D01*
X68262Y152388*
X68262D02*
X68330Y152294D01*
X68330D02*
X68364Y152154D01*
X68364D02*
X68330Y152060D01*
X68330D02*
X68296Y151919D01*
X68296D02*
X68228Y151825D01*
X68228D02*
X68126Y151779D01*
X68023*
X68023D02*
X67921Y151825D01*
X67921D02*
X67887Y151872D01*
X67887D02*
X67853Y151966D01*
X33542Y120273D02*
X33815Y119804D01*
X33815D02*
Y119289D01*
X34088Y120273D02*
X33815Y119804D01*
X34599Y120273D02*
X34531Y120226D01*
X34531D02*
X34463Y120132D01*
X34463D02*
X34429Y120039D01*
X34395Y119898*
Y119664*
X34429Y119523*
X34463Y119429*
X34463D02*
X34531Y119335D01*
X34531D02*
X34599Y119289D01*
X34599D02*
X34736D01*
X34804Y119335*
X34804D02*
X34872Y119429D01*
X34872D02*
X34906Y119523D01*
X34906D02*
X34940Y119664D01*
X34940D02*
Y119898D01*
X34940D02*
X34906Y120039D01*
X34906D02*
X34872Y120132D01*
X34872D02*
X34804Y120226D01*
X34804D02*
X34736Y120273D01*
X34599*
X35656Y120132D02*
X35622Y120226D01*
X35622D02*
X35520Y120273D01*
X35452*
X35349Y120226*
X35349D02*
X35281Y120085D01*
X35281D02*
X35247Y119851D01*
X35247D02*
Y119617D01*
X35247D02*
X35281Y119429D01*
X35281D02*
X35349Y119335D01*
X35349D02*
X35452Y119289D01*
X35486*
X35588Y119335*
X35588D02*
X35656Y119429D01*
X35656D02*
X35690Y119570D01*
X35690D02*
Y119617D01*
X35690D02*
X35656Y119757D01*
X35656D02*
X35588Y119851D01*
X35588D02*
X35486Y119898D01*
X35452*
X35349Y119851*
X35349D02*
X35281Y119757D01*
X35281D02*
X35247Y119617D01*
X83845Y120273D02*
X84118Y119804D01*
X84118D02*
Y119289D01*
X84391Y120273D02*
X84118Y119804D01*
X84902Y120273D02*
X84834Y120226D01*
X84834D02*
X84766Y120132D01*
X84766D02*
X84732Y120039D01*
X84698Y119898*
Y119664*
X84732Y119523*
X84766Y119429*
X84766D02*
X84834Y119335D01*
X84834D02*
X84902Y119289D01*
X84902D02*
X85039D01*
X85107Y119335*
X85107D02*
X85175Y119429D01*
X85175D02*
X85209Y119523D01*
X85209D02*
X85243Y119664D01*
X85243D02*
Y119898D01*
X85243D02*
X85209Y120039D01*
X85209D02*
X85175Y120132D01*
X85175D02*
X85107Y120226D01*
X85107D02*
X85039Y120273D01*
X84902*
X86027D02*
X85686Y119289D01*
X85550Y120273D02*
X86027D01*
X116485Y152763D02*
X116758Y152294D01*
X116758D02*
Y151779D01*
X117031Y152763D02*
X116758Y152294D01*
X117542Y152763D02*
X117474Y152716D01*
X117474D02*
X117406Y152622D01*
X117406D02*
X117372Y152529D01*
X117338Y152388*
Y152154*
X117372Y152013*
X117406Y151919*
X117406D02*
X117474Y151825D01*
X117474D02*
X117542Y151779D01*
X117542D02*
X117679D01*
X117747Y151825*
X117747D02*
X117815Y151919D01*
X117815D02*
X117849Y152013D01*
X117849D02*
X117883Y152154D01*
X117883D02*
Y152388D01*
X117883D02*
X117849Y152529D01*
X117849D02*
X117815Y152622D01*
X117815D02*
X117747Y152716D01*
X117747D02*
X117679Y152763D01*
X117542*
X118360D02*
X118258Y152716D01*
X118258D02*
X118224Y152622D01*
X118224D02*
Y152529D01*
X118224D02*
X118258Y152435D01*
X118258D02*
X118326Y152388D01*
X118326D02*
X118463Y152341D01*
X118463D02*
X118565Y152294D01*
X118565D02*
X118633Y152200D01*
X118633D02*
X118667Y152107D01*
X118667D02*
Y151966D01*
X118667D02*
X118633Y151872D01*
X118633D02*
X118599Y151825D01*
X118599D02*
X118497Y151779D01*
X118360*
X118360D02*
X118258Y151825D01*
X118258D02*
X118224Y151872D01*
X118224D02*
X118190Y151966D01*
X118190D02*
Y152107D01*
X118224Y152200*
X118224D02*
X118292Y152294D01*
X118292D02*
X118395Y152341D01*
X118395D02*
X118531Y152388D01*
X118599Y152435*
X118599D02*
X118633Y152529D01*
X118633D02*
Y152622D01*
X118633D02*
X118599Y152716D01*
X118599D02*
X118497Y152763D01*
X118360*
X66319Y154123D02*
X66592Y153654D01*
X66592D02*
Y153139D01*
X66864Y154123D02*
X66592Y153654D01*
X67376Y154123D02*
X67307Y154076D01*
X67307D02*
X67239Y153982D01*
X67239D02*
X67205Y153889D01*
X67205D02*
X67171Y153748D01*
X67171D02*
Y153514D01*
X67171D02*
X67205Y153373D01*
X67205D02*
X67239Y153279D01*
X67239D02*
X67307Y153185D01*
X67307D02*
X67376Y153139D01*
X67512*
X67512D02*
X67580Y153185D01*
X67580D02*
X67648Y153279D01*
X67648D02*
X67682Y153373D01*
X67682D02*
X67717Y153514D01*
Y153748*
X67682Y153889*
X67682D02*
X67648Y153982D01*
X67648D02*
X67580Y154076D01*
X67580D02*
X67512Y154123D01*
X67512D02*
X67376D01*
X68023Y153935D02*
X68092Y153982D01*
X68092D02*
X68194Y154123D01*
Y153139*
X33525Y118913D02*
X33798Y118444D01*
X33798D02*
Y117929D01*
X34071Y118913D02*
X33798Y118444D01*
X34582Y118913D02*
X34514Y118866D01*
X34514D02*
X34446Y118772D01*
X34446D02*
X34412Y118679D01*
X34378Y118538*
Y118304*
X34412Y118163*
X34446Y118069*
X34446D02*
X34514Y117975D01*
X34514D02*
X34582Y117929D01*
X34582D02*
X34719D01*
X34787Y117975*
X34787D02*
X34855Y118069D01*
X34855D02*
X34889Y118163D01*
X34889D02*
X34923Y118304D01*
X34923D02*
Y118538D01*
X34923D02*
X34889Y118679D01*
X34889D02*
X34855Y118772D01*
X34855D02*
X34787Y118866D01*
X34787D02*
X34719Y118913D01*
X34582*
X35264Y118679D02*
Y118725D01*
X35264D02*
X35298Y118819D01*
X35298D02*
X35332Y118866D01*
X35332D02*
X35400Y118913D01*
X35400D02*
X35537D01*
X35605Y118866*
X35605D02*
X35639Y118819D01*
X35639D02*
X35673Y118725D01*
X35673D02*
Y118632D01*
X35673D02*
X35639Y118538D01*
X35639D02*
X35571Y118397D01*
X35571D02*
X35230Y117929D01*
X35707*
X83845Y121633D02*
X84118Y121164D01*
X84118D02*
Y120649D01*
X84391Y121633D02*
X84118Y121164D01*
X84902Y121633D02*
X84834Y121586D01*
X84834D02*
X84766Y121492D01*
X84766D02*
X84732Y121399D01*
X84698Y121258*
Y121024*
X84732Y120883*
X84766Y120789*
X84766D02*
X84834Y120695D01*
X84834D02*
X84902Y120649D01*
X84902D02*
X85039D01*
X85107Y120695*
X85107D02*
X85175Y120789D01*
X85175D02*
X85209Y120883D01*
X85209D02*
X85243Y121024D01*
X85243D02*
Y121258D01*
X85243D02*
X85209Y121399D01*
X85209D02*
X85175Y121492D01*
X85175D02*
X85107Y121586D01*
X85107D02*
X85039Y121633D01*
X84902*
X85618D02*
X85993D01*
X85993D02*
X85789Y121258D01*
X85891*
X85959Y121211*
X85959D02*
X85993Y121164D01*
X85993D02*
X86027Y121024D01*
X86027D02*
Y120930D01*
X86027D02*
X85993Y120789D01*
X85993D02*
X85925Y120695D01*
X85925D02*
X85823Y120649D01*
X85720*
X85720D02*
X85618Y120695D01*
X85618D02*
X85584Y120742D01*
X85584D02*
X85550Y120836D01*
X116468Y154123D02*
X116741Y153654D01*
X116741D02*
Y153139D01*
X117014Y154123D02*
X116741Y153654D01*
X117525Y154123D02*
X117457Y154076D01*
X117457D02*
X117389Y153982D01*
X117389D02*
X117355Y153889D01*
X117321Y153748*
Y153514*
X117355Y153373*
X117389Y153279*
X117389D02*
X117457Y153185D01*
X117457D02*
X117525Y153139D01*
X117525D02*
X117662D01*
X117730Y153185*
X117730D02*
X117798Y153279D01*
X117798D02*
X117832Y153373D01*
X117832D02*
X117866Y153514D01*
X117866D02*
Y153748D01*
X117866D02*
X117832Y153889D01*
X117832D02*
X117798Y153982D01*
X117798D02*
X117730Y154076D01*
X117730D02*
X117662Y154123D01*
X117525*
X118514D02*
X118173Y153467D01*
X118684*
X118514Y154123D02*
Y153139D01*
X121912Y129038D02*
Y128335D01*
X121946Y128194*
X121946D02*
X122014Y128100D01*
X122014D02*
X122116Y128054D01*
X122116D02*
X122184D01*
X122184D02*
X122287Y128100D01*
X122287D02*
X122355Y128194D01*
X122355D02*
X122389Y128335D01*
Y129038*
X122764D02*
X123139D01*
X122934Y128663*
X122934D02*
X123037D01*
X123105Y128616*
X123105D02*
X123139Y128569D01*
X123139D02*
X123173Y128429D01*
Y128335*
X123139Y128194*
X123139D02*
X123071Y128100D01*
X123071D02*
X122968Y128054D01*
X122968D02*
X122866D01*
X122866D02*
X122764Y128100D01*
X122764D02*
X122730Y128147D01*
X122730D02*
X122696Y128241D01*
X123821Y129038D02*
X123480Y128382D01*
X123991*
X123821Y129038D02*
Y128054D01*
X129674Y132522D02*
Y131537D01*
X129435Y132522D02*
X129913D01*
X130219D02*
Y131537D01*
Y132522D02*
X130526D01*
X130526D02*
X130629Y132475D01*
X130663Y132428*
X130697Y132334*
X130697D02*
Y132194D01*
X130663Y132100*
X130629Y132053*
X130526Y132006*
X130526D02*
X130219D01*
X131038Y132287D02*
Y132334D01*
X131038D02*
X131072Y132428D01*
X131106Y132475*
X131174Y132522*
X131174D02*
X131310D01*
X131310D02*
X131379Y132475D01*
X131413Y132428*
X131447Y132334*
X131447D02*
Y132240D01*
X131447D02*
X131413Y132147D01*
X131344Y132006*
X131344D02*
X131004Y131537D01*
X131004D02*
X131481D01*
X132231Y132522D02*
X131890D01*
X131856Y132100*
X131890Y132147*
X131992Y132194*
X131992D02*
X132094D01*
X132094D02*
X132197Y132147D01*
X132265Y132053*
X132299Y131912*
X132299D02*
X132265Y131819D01*
X132231Y131678*
X132163Y131584*
X132163D02*
X132060Y131537D01*
X132060D02*
X131958D01*
X131958D02*
X131856Y131584D01*
X131856D02*
X131822Y131631D01*
X131822D02*
X131788Y131725D01*
X57028Y134809D02*
Y133824D01*
Y134809D02*
X57334D01*
X57334D02*
X57437Y134762D01*
X57471Y134715*
X57471D02*
X57505Y134621D01*
X57505D02*
Y134528D01*
X57471Y134434*
X57437Y134387*
X57334Y134340*
X57334D02*
X57028D01*
X57266D02*
X57505Y133824D01*
X57880Y134809D02*
X58255D01*
X58050Y134434*
X58050D02*
X58153D01*
X58221Y134387*
X58255Y134340*
X58255D02*
X58289Y134199D01*
X58289D02*
Y134106D01*
X58255Y133965*
X58255D02*
X58187Y133871D01*
X58187D02*
X58084Y133824D01*
X58084D02*
X57982D01*
X57982D02*
X57880Y133871D01*
X57880D02*
X57846Y133918D01*
X57846D02*
X57812Y134012D01*
X58630Y134574D02*
Y134621D01*
X58630D02*
X58664Y134715D01*
X58664D02*
X58698Y134762D01*
X58698D02*
X58766Y134809D01*
X58766D02*
X58903D01*
X58971Y134762*
X59005Y134715*
X59005D02*
X59039Y134621D01*
X59039D02*
Y134528D01*
X59005Y134434*
X58937Y134293*
X58937D02*
X58596Y133824D01*
X58596D02*
X59073D01*
X42409Y129399D02*
Y128415D01*
Y129399D02*
X42716D01*
X42818Y129352*
X42818D02*
X42852Y129305D01*
X42852D02*
X42886Y129211D01*
X42886D02*
Y129118D01*
X42886D02*
X42852Y129024D01*
X42852D02*
X42818Y128977D01*
X42818D02*
X42716Y128930D01*
X42716D02*
X42409D01*
X42647D02*
X42886Y128415D01*
X43261Y129399D02*
X43636D01*
X43636D02*
X43432Y129024D01*
X43534*
X43602Y128977*
X43602D02*
X43636Y128930D01*
X43636D02*
X43670Y128790D01*
X43670D02*
Y128696D01*
X43670D02*
X43636Y128555D01*
X43636D02*
X43568Y128461D01*
X43568D02*
X43466Y128415D01*
X43363*
X43363D02*
X43261Y128461D01*
X43261D02*
X43227Y128508D01*
X43227D02*
X43193Y128602D01*
X44045Y129399D02*
X44420D01*
X44420D02*
X44216Y129024D01*
X44318*
X44386Y128977*
X44386D02*
X44420Y128930D01*
X44420D02*
X44454Y128790D01*
X44454D02*
Y128696D01*
X44454D02*
X44420Y128555D01*
X44420D02*
X44352Y128461D01*
X44352D02*
X44250Y128415D01*
X44147*
X44147D02*
X44045Y128461D01*
X44045D02*
X44011Y128508D01*
X44011D02*
X43977Y128602D01*
X109089Y134980D02*
Y133996D01*
Y134980D02*
X109396D01*
X109498Y134933*
X109498D02*
X109532Y134886D01*
X109532D02*
X109566Y134792D01*
X109566D02*
Y134699D01*
X109532Y134605*
X109498Y134558*
X109498D02*
X109396Y134511D01*
X109396D02*
X109089D01*
X109327D02*
X109566Y133996D01*
X109941Y134980D02*
X110316D01*
X110111Y134605*
X110111D02*
X110214D01*
X110282Y134558*
X110282D02*
X110316Y134511D01*
X110316D02*
X110350Y134371D01*
X110350D02*
Y134277D01*
X110350D02*
X110316Y134136D01*
X110316D02*
X110248Y134042D01*
X110248D02*
X110146Y133996D01*
X110043*
X110043D02*
X109941Y134042D01*
X109941D02*
X109907Y134089D01*
X109907D02*
X109873Y134183D01*
X110998Y134980D02*
X110657Y134324D01*
X111168*
X110998Y134980D02*
Y133996D01*
G54D42*
X100Y250D02*
Y100D01*
X250*
G74*
X0Y0D02*
M02*
