%FSLAX25Y25*%
%MOIN*%
G70*
G01*
G75*
G04 Layer_Color=8388736*
%ADD10R,0.02165X0.00787*%
G04:AMPARAMS|DCode=11|XSize=68.9mil|YSize=55.12mil|CornerRadius=7.99mil|HoleSize=0mil|Usage=FLASHONLY|Rotation=0.000|XOffset=0mil|YOffset=0mil|HoleType=Round|Shape=RoundedRectangle|*
%AMROUNDEDRECTD11*
21,1,0.06890,0.03913,0,0,0.0*
21,1,0.05291,0.05512,0,0,0.0*
1,1,0.01598,0.02646,-0.01957*
1,1,0.01598,-0.02646,-0.01957*
1,1,0.01598,-0.02646,0.01957*
1,1,0.01598,0.02646,0.01957*
%
%ADD11ROUNDEDRECTD11*%
G04:AMPARAMS|DCode=12|XSize=55.12mil|YSize=47.24mil|CornerRadius=7.8mil|HoleSize=0mil|Usage=FLASHONLY|Rotation=0.000|XOffset=0mil|YOffset=0mil|HoleType=Round|Shape=RoundedRectangle|*
%AMROUNDEDRECTD12*
21,1,0.05512,0.03165,0,0,0.0*
21,1,0.03953,0.04724,0,0,0.0*
1,1,0.01559,0.01976,-0.01583*
1,1,0.01559,-0.01976,-0.01583*
1,1,0.01559,-0.01976,0.01583*
1,1,0.01559,0.01976,0.01583*
%
%ADD12ROUNDEDRECTD12*%
G04:AMPARAMS|DCode=13|XSize=45.28mil|YSize=41.34mil|CornerRadius=7.85mil|HoleSize=0mil|Usage=FLASHONLY|Rotation=0.000|XOffset=0mil|YOffset=0mil|HoleType=Round|Shape=RoundedRectangle|*
%AMROUNDEDRECTD13*
21,1,0.04528,0.02563,0,0,0.0*
21,1,0.02957,0.04134,0,0,0.0*
1,1,0.01571,0.01478,-0.01282*
1,1,0.01571,-0.01478,-0.01282*
1,1,0.01571,-0.01478,0.01282*
1,1,0.01571,0.01478,0.01282*
%
%ADD13ROUNDEDRECTD13*%
G04:AMPARAMS|DCode=14|XSize=200.79mil|YSize=171.26mil|CornerRadius=7.71mil|HoleSize=0mil|Usage=FLASHONLY|Rotation=180.000|XOffset=0mil|YOffset=0mil|HoleType=Round|Shape=RoundedRectangle|*
%AMROUNDEDRECTD14*
21,1,0.20079,0.15585,0,0,180.0*
21,1,0.18537,0.17126,0,0,180.0*
1,1,0.01541,-0.09269,0.07792*
1,1,0.01541,0.09269,0.07792*
1,1,0.01541,0.09269,-0.07792*
1,1,0.01541,-0.09269,-0.07792*
%
%ADD14ROUNDEDRECTD14*%
%ADD15C,0.03937*%
%ADD16C,0.01772*%
G04:AMPARAMS|DCode=17|XSize=57.09mil|YSize=19.69mil|CornerRadius=7.87mil|HoleSize=0mil|Usage=FLASHONLY|Rotation=270.000|XOffset=0mil|YOffset=0mil|HoleType=Round|Shape=RoundedRectangle|*
%AMROUNDEDRECTD17*
21,1,0.05709,0.00394,0,0,270.0*
21,1,0.04134,0.01969,0,0,270.0*
1,1,0.01575,-0.00197,-0.02067*
1,1,0.01575,-0.00197,0.02067*
1,1,0.01575,0.00197,0.02067*
1,1,0.01575,0.00197,-0.02067*
%
%ADD17ROUNDEDRECTD17*%
%ADD18O,0.05906X0.01181*%
%ADD19O,0.01181X0.05906*%
G04:AMPARAMS|DCode=20|XSize=90.55mil|YSize=19.69mil|CornerRadius=7.87mil|HoleSize=0mil|Usage=FLASHONLY|Rotation=180.000|XOffset=0mil|YOffset=0mil|HoleType=Round|Shape=RoundedRectangle|*
%AMROUNDEDRECTD20*
21,1,0.09055,0.00394,0,0,180.0*
21,1,0.07480,0.01969,0,0,180.0*
1,1,0.01575,-0.03740,0.00197*
1,1,0.01575,0.03740,0.00197*
1,1,0.01575,0.03740,-0.00197*
1,1,0.01575,-0.03740,-0.00197*
%
%ADD20ROUNDEDRECTD20*%
G04:AMPARAMS|DCode=21|XSize=98.43mil|YSize=78.74mil|CornerRadius=7.87mil|HoleSize=0mil|Usage=FLASHONLY|Rotation=180.000|XOffset=0mil|YOffset=0mil|HoleType=Round|Shape=RoundedRectangle|*
%AMROUNDEDRECTD21*
21,1,0.09843,0.06299,0,0,180.0*
21,1,0.08268,0.07874,0,0,180.0*
1,1,0.01575,-0.04134,0.03150*
1,1,0.01575,0.04134,0.03150*
1,1,0.01575,0.04134,-0.03150*
1,1,0.01575,-0.04134,-0.03150*
%
%ADD21ROUNDEDRECTD21*%
G04:AMPARAMS|DCode=22|XSize=41.34mil|YSize=25.59mil|CornerRadius=7.93mil|HoleSize=0mil|Usage=FLASHONLY|Rotation=180.000|XOffset=0mil|YOffset=0mil|HoleType=Round|Shape=RoundedRectangle|*
%AMROUNDEDRECTD22*
21,1,0.04134,0.00972,0,0,180.0*
21,1,0.02547,0.02559,0,0,180.0*
1,1,0.01587,-0.01274,0.00486*
1,1,0.01587,0.01274,0.00486*
1,1,0.01587,0.01274,-0.00486*
1,1,0.01587,-0.01274,-0.00486*
%
%ADD22ROUNDEDRECTD22*%
G04:AMPARAMS|DCode=23|XSize=192.91mil|YSize=62.99mil|CornerRadius=7.87mil|HoleSize=0mil|Usage=FLASHONLY|Rotation=180.000|XOffset=0mil|YOffset=0mil|HoleType=Round|Shape=RoundedRectangle|*
%AMROUNDEDRECTD23*
21,1,0.19291,0.04724,0,0,180.0*
21,1,0.17716,0.06299,0,0,180.0*
1,1,0.01575,-0.08858,0.02362*
1,1,0.01575,0.08858,0.02362*
1,1,0.01575,0.08858,-0.02362*
1,1,0.01575,-0.08858,-0.02362*
%
%ADD23ROUNDEDRECTD23*%
G04:AMPARAMS|DCode=24|XSize=112.21mil|YSize=39.37mil|CornerRadius=7.87mil|HoleSize=0mil|Usage=FLASHONLY|Rotation=0.000|XOffset=0mil|YOffset=0mil|HoleType=Round|Shape=RoundedRectangle|*
%AMROUNDEDRECTD24*
21,1,0.11221,0.02362,0,0,0.0*
21,1,0.09646,0.03937,0,0,0.0*
1,1,0.01575,0.04823,-0.01181*
1,1,0.01575,-0.04823,-0.01181*
1,1,0.01575,-0.04823,0.01181*
1,1,0.01575,0.04823,0.01181*
%
%ADD24ROUNDEDRECTD24*%
G04:AMPARAMS|DCode=25|XSize=253.94mil|YSize=236.22mil|CornerRadius=8.27mil|HoleSize=0mil|Usage=FLASHONLY|Rotation=0.000|XOffset=0mil|YOffset=0mil|HoleType=Round|Shape=RoundedRectangle|*
%AMROUNDEDRECTD25*
21,1,0.25394,0.21968,0,0,0.0*
21,1,0.23740,0.23622,0,0,0.0*
1,1,0.01654,0.11870,-0.10984*
1,1,0.01654,-0.11870,-0.10984*
1,1,0.01654,-0.11870,0.10984*
1,1,0.01654,0.11870,0.10984*
%
%ADD25ROUNDEDRECTD25*%
G04:AMPARAMS|DCode=26|XSize=358.27mil|YSize=340.55mil|CornerRadius=8.51mil|HoleSize=0mil|Usage=FLASHONLY|Rotation=90.000|XOffset=0mil|YOffset=0mil|HoleType=Round|Shape=RoundedRectangle|*
%AMROUNDEDRECTD26*
21,1,0.35827,0.32352,0,0,90.0*
21,1,0.34124,0.34055,0,0,90.0*
1,1,0.01703,0.16176,0.17062*
1,1,0.01703,0.16176,-0.17062*
1,1,0.01703,-0.16176,-0.17062*
1,1,0.01703,-0.16176,0.17062*
%
%ADD26ROUNDEDRECTD26*%
G04:AMPARAMS|DCode=27|XSize=147.64mil|YSize=41.34mil|CornerRadius=7.85mil|HoleSize=0mil|Usage=FLASHONLY|Rotation=0.000|XOffset=0mil|YOffset=0mil|HoleType=Round|Shape=RoundedRectangle|*
%AMROUNDEDRECTD27*
21,1,0.14764,0.02563,0,0,0.0*
21,1,0.13193,0.04134,0,0,0.0*
1,1,0.01571,0.06597,-0.01282*
1,1,0.01571,-0.06597,-0.01282*
1,1,0.01571,-0.06597,0.01282*
1,1,0.01571,0.06597,0.01282*
%
%ADD27ROUNDEDRECTD27*%
%ADD28C,0.00787*%
%ADD29O,0.03347X0.00984*%
%ADD30O,0.05512X0.02362*%
%ADD31O,0.02362X0.05512*%
%ADD32O,0.06102X0.02362*%
%ADD33O,0.02362X0.06102*%
G04:AMPARAMS|DCode=34|XSize=25.59mil|YSize=19.69mil|CornerRadius=7.87mil|HoleSize=0mil|Usage=FLASHONLY|Rotation=0.000|XOffset=0mil|YOffset=0mil|HoleType=Round|Shape=RoundedRectangle|*
%AMROUNDEDRECTD34*
21,1,0.02559,0.00394,0,0,0.0*
21,1,0.00984,0.01969,0,0,0.0*
1,1,0.01575,0.00492,-0.00197*
1,1,0.01575,-0.00492,-0.00197*
1,1,0.01575,-0.00492,0.00197*
1,1,0.01575,0.00492,0.00197*
%
%ADD34ROUNDEDRECTD34*%
G04:AMPARAMS|DCode=35|XSize=106.3mil|YSize=45.28mil|CornerRadius=7.92mil|HoleSize=0mil|Usage=FLASHONLY|Rotation=0.000|XOffset=0mil|YOffset=0mil|HoleType=Round|Shape=RoundedRectangle|*
%AMROUNDEDRECTD35*
21,1,0.10630,0.02943,0,0,0.0*
21,1,0.09045,0.04528,0,0,0.0*
1,1,0.01585,0.04523,-0.01472*
1,1,0.01585,-0.04523,-0.01472*
1,1,0.01585,-0.04523,0.01472*
1,1,0.01585,0.04523,0.01472*
%
%ADD35ROUNDEDRECTD35*%
G04:AMPARAMS|DCode=36|XSize=106.3mil|YSize=45.28mil|CornerRadius=7.92mil|HoleSize=0mil|Usage=FLASHONLY|Rotation=270.000|XOffset=0mil|YOffset=0mil|HoleType=Round|Shape=RoundedRectangle|*
%AMROUNDEDRECTD36*
21,1,0.10630,0.02943,0,0,270.0*
21,1,0.09045,0.04528,0,0,270.0*
1,1,0.01585,-0.01472,-0.04523*
1,1,0.01585,-0.01472,0.04523*
1,1,0.01585,0.01472,0.04523*
1,1,0.01585,0.01472,-0.04523*
%
%ADD36ROUNDEDRECTD36*%
G04:AMPARAMS|DCode=37|XSize=57.09mil|YSize=45.28mil|CornerRadius=7.92mil|HoleSize=0mil|Usage=FLASHONLY|Rotation=0.000|XOffset=0mil|YOffset=0mil|HoleType=Round|Shape=RoundedRectangle|*
%AMROUNDEDRECTD37*
21,1,0.05709,0.02943,0,0,0.0*
21,1,0.04124,0.04528,0,0,0.0*
1,1,0.01585,0.02062,-0.01472*
1,1,0.01585,-0.02062,-0.01472*
1,1,0.01585,-0.02062,0.01472*
1,1,0.01585,0.02062,0.01472*
%
%ADD37ROUNDEDRECTD37*%
G04:AMPARAMS|DCode=38|XSize=57.09mil|YSize=45.28mil|CornerRadius=7.92mil|HoleSize=0mil|Usage=FLASHONLY|Rotation=90.000|XOffset=0mil|YOffset=0mil|HoleType=Round|Shape=RoundedRectangle|*
%AMROUNDEDRECTD38*
21,1,0.05709,0.02943,0,0,90.0*
21,1,0.04124,0.04528,0,0,90.0*
1,1,0.01585,0.01472,0.02062*
1,1,0.01585,0.01472,-0.02062*
1,1,0.01585,-0.01472,-0.02062*
1,1,0.01585,-0.01472,0.02062*
%
%ADD38ROUNDEDRECTD38*%
G04:AMPARAMS|DCode=39|XSize=68.9mil|YSize=41.34mil|CornerRadius=7.85mil|HoleSize=0mil|Usage=FLASHONLY|Rotation=270.000|XOffset=0mil|YOffset=0mil|HoleType=Round|Shape=RoundedRectangle|*
%AMROUNDEDRECTD39*
21,1,0.06890,0.02563,0,0,270.0*
21,1,0.05319,0.04134,0,0,270.0*
1,1,0.01571,-0.01282,-0.02660*
1,1,0.01571,-0.01282,0.02660*
1,1,0.01571,0.01282,0.02660*
1,1,0.01571,0.01282,-0.02660*
%
%ADD39ROUNDEDRECTD39*%
G04:AMPARAMS|DCode=40|XSize=68.9mil|YSize=41.34mil|CornerRadius=7.85mil|HoleSize=0mil|Usage=FLASHONLY|Rotation=180.000|XOffset=0mil|YOffset=0mil|HoleType=Round|Shape=RoundedRectangle|*
%AMROUNDEDRECTD40*
21,1,0.06890,0.02563,0,0,180.0*
21,1,0.05319,0.04134,0,0,180.0*
1,1,0.01571,-0.02660,0.01282*
1,1,0.01571,0.02660,0.01282*
1,1,0.01571,0.02660,-0.01282*
1,1,0.01571,-0.02660,-0.01282*
%
%ADD40ROUNDEDRECTD40*%
G04:AMPARAMS|DCode=41|XSize=47.24mil|YSize=47.24mil|CornerRadius=7.8mil|HoleSize=0mil|Usage=FLASHONLY|Rotation=0.000|XOffset=0mil|YOffset=0mil|HoleType=Round|Shape=RoundedRectangle|*
%AMROUNDEDRECTD41*
21,1,0.04724,0.03165,0,0,0.0*
21,1,0.03165,0.04724,0,0,0.0*
1,1,0.01559,0.01583,-0.01583*
1,1,0.01559,-0.01583,-0.01583*
1,1,0.01559,-0.01583,0.01583*
1,1,0.01559,0.01583,0.01583*
%
%ADD41ROUNDEDRECTD41*%
G04:AMPARAMS|DCode=42|XSize=39.37mil|YSize=35.43mil|CornerRadius=7.8mil|HoleSize=0mil|Usage=FLASHONLY|Rotation=0.000|XOffset=0mil|YOffset=0mil|HoleType=Round|Shape=RoundedRectangle|*
%AMROUNDEDRECTD42*
21,1,0.03937,0.01984,0,0,0.0*
21,1,0.02378,0.03543,0,0,0.0*
1,1,0.01559,0.01189,-0.00992*
1,1,0.01559,-0.01189,-0.00992*
1,1,0.01559,-0.01189,0.00992*
1,1,0.01559,0.01189,0.00992*
%
%ADD42ROUNDEDRECTD42*%
G04:AMPARAMS|DCode=43|XSize=39.37mil|YSize=35.43mil|CornerRadius=7.8mil|HoleSize=0mil|Usage=FLASHONLY|Rotation=270.000|XOffset=0mil|YOffset=0mil|HoleType=Round|Shape=RoundedRectangle|*
%AMROUNDEDRECTD43*
21,1,0.03937,0.01984,0,0,270.0*
21,1,0.02378,0.03543,0,0,270.0*
1,1,0.01559,-0.00992,-0.01189*
1,1,0.01559,-0.00992,0.01189*
1,1,0.01559,0.00992,0.01189*
1,1,0.01559,0.00992,-0.01189*
%
%ADD43ROUNDEDRECTD43*%
G04:AMPARAMS|DCode=44|XSize=39.37mil|YSize=37.4mil|CornerRadius=7.85mil|HoleSize=0mil|Usage=FLASHONLY|Rotation=270.000|XOffset=0mil|YOffset=0mil|HoleType=Round|Shape=RoundedRectangle|*
%AMROUNDEDRECTD44*
21,1,0.03937,0.02169,0,0,270.0*
21,1,0.02366,0.03740,0,0,270.0*
1,1,0.01571,-0.01085,-0.01183*
1,1,0.01571,-0.01085,0.01183*
1,1,0.01571,0.01085,0.01183*
1,1,0.01571,0.01085,-0.01183*
%
%ADD44ROUNDEDRECTD44*%
G04:AMPARAMS|DCode=45|XSize=39.37mil|YSize=37.4mil|CornerRadius=7.85mil|HoleSize=0mil|Usage=FLASHONLY|Rotation=0.000|XOffset=0mil|YOffset=0mil|HoleType=Round|Shape=RoundedRectangle|*
%AMROUNDEDRECTD45*
21,1,0.03937,0.02169,0,0,0.0*
21,1,0.02366,0.03740,0,0,0.0*
1,1,0.01571,0.01183,-0.01085*
1,1,0.01571,-0.01183,-0.01085*
1,1,0.01571,-0.01183,0.01085*
1,1,0.01571,0.01183,0.01085*
%
%ADD45ROUNDEDRECTD45*%
G04:AMPARAMS|DCode=46|XSize=24.41mil|YSize=24.41mil|CornerRadius=5.86mil|HoleSize=0mil|Usage=FLASHONLY|Rotation=0.000|XOffset=0mil|YOffset=0mil|HoleType=Round|Shape=RoundedRectangle|*
%AMROUNDEDRECTD46*
21,1,0.02441,0.01269,0,0,0.0*
21,1,0.01269,0.02441,0,0,0.0*
1,1,0.01172,0.00635,-0.00635*
1,1,0.01172,-0.00635,-0.00635*
1,1,0.01172,-0.00635,0.00635*
1,1,0.01172,0.00635,0.00635*
%
%ADD46ROUNDEDRECTD46*%
G04:AMPARAMS|DCode=47|XSize=24.41mil|YSize=24.41mil|CornerRadius=5.86mil|HoleSize=0mil|Usage=FLASHONLY|Rotation=270.000|XOffset=0mil|YOffset=0mil|HoleType=Round|Shape=RoundedRectangle|*
%AMROUNDEDRECTD47*
21,1,0.02441,0.01269,0,0,270.0*
21,1,0.01269,0.02441,0,0,270.0*
1,1,0.01172,-0.00635,-0.00635*
1,1,0.01172,-0.00635,0.00635*
1,1,0.01172,0.00635,0.00635*
1,1,0.01172,0.00635,-0.00635*
%
%ADD47ROUNDEDRECTD47*%
G04:AMPARAMS|DCode=48|XSize=17.32mil|YSize=16.54mil|CornerRadius=3.97mil|HoleSize=0mil|Usage=FLASHONLY|Rotation=0.000|XOffset=0mil|YOffset=0mil|HoleType=Round|Shape=RoundedRectangle|*
%AMROUNDEDRECTD48*
21,1,0.01732,0.00860,0,0,0.0*
21,1,0.00939,0.01654,0,0,0.0*
1,1,0.00794,0.00469,-0.00430*
1,1,0.00794,-0.00469,-0.00430*
1,1,0.00794,-0.00469,0.00430*
1,1,0.00794,0.00469,0.00430*
%
%ADD48ROUNDEDRECTD48*%
G04:AMPARAMS|DCode=49|XSize=43.31mil|YSize=21.65mil|CornerRadius=7.9mil|HoleSize=0mil|Usage=FLASHONLY|Rotation=270.000|XOffset=0mil|YOffset=0mil|HoleType=Round|Shape=RoundedRectangle|*
%AMROUNDEDRECTD49*
21,1,0.04331,0.00585,0,0,270.0*
21,1,0.02750,0.02165,0,0,270.0*
1,1,0.01581,-0.00292,-0.01375*
1,1,0.01581,-0.00292,0.01375*
1,1,0.01581,0.00292,0.01375*
1,1,0.01581,0.00292,-0.01375*
%
%ADD49ROUNDEDRECTD49*%
G04:AMPARAMS|DCode=50|XSize=43.31mil|YSize=21.65mil|CornerRadius=7.9mil|HoleSize=0mil|Usage=FLASHONLY|Rotation=180.000|XOffset=0mil|YOffset=0mil|HoleType=Round|Shape=RoundedRectangle|*
%AMROUNDEDRECTD50*
21,1,0.04331,0.00585,0,0,180.0*
21,1,0.02750,0.02165,0,0,180.0*
1,1,0.01581,-0.01375,0.00292*
1,1,0.01581,0.01375,0.00292*
1,1,0.01581,0.01375,-0.00292*
1,1,0.01581,-0.01375,-0.00292*
%
%ADD50ROUNDEDRECTD50*%
G04:AMPARAMS|DCode=51|XSize=129.92mil|YSize=98.43mil|CornerRadius=7.87mil|HoleSize=0mil|Usage=FLASHONLY|Rotation=0.000|XOffset=0mil|YOffset=0mil|HoleType=Round|Shape=RoundedRectangle|*
%AMROUNDEDRECTD51*
21,1,0.12992,0.08268,0,0,0.0*
21,1,0.11417,0.09843,0,0,0.0*
1,1,0.01575,0.05709,-0.04134*
1,1,0.01575,-0.05709,-0.04134*
1,1,0.01575,-0.05709,0.04134*
1,1,0.01575,0.05709,0.04134*
%
%ADD51ROUNDEDRECTD51*%
G04:AMPARAMS|DCode=52|XSize=98.43mil|YSize=66.93mil|CornerRadius=8.03mil|HoleSize=0mil|Usage=FLASHONLY|Rotation=90.000|XOffset=0mil|YOffset=0mil|HoleType=Round|Shape=RoundedRectangle|*
%AMROUNDEDRECTD52*
21,1,0.09843,0.05087,0,0,90.0*
21,1,0.08236,0.06693,0,0,90.0*
1,1,0.01606,0.02543,0.04118*
1,1,0.01606,0.02543,-0.04118*
1,1,0.01606,-0.02543,-0.04118*
1,1,0.01606,-0.02543,0.04118*
%
%ADD52ROUNDEDRECTD52*%
%ADD53C,0.01969*%
%ADD54C,0.00984*%
%ADD55C,0.01181*%
%ADD56C,0.00787*%
%ADD57C,0.03937*%
%ADD58C,0.00591*%
%ADD59C,0.00512*%
%ADD60C,0.01969*%
%ADD61C,0.07284*%
%ADD62C,0.09843*%
%ADD63C,0.07480*%
%ADD64C,0.27559*%
%ADD65C,0.02362*%
%ADD66C,0.00394*%
%ADD67C,0.00197*%
%ADD68C,0.19685*%
%ADD69C,0.00098*%
%ADD70C,0.00167*%
%ADD71C,0.00148*%
%ADD72C,0.00000*%
%ADD73R,0.02559X0.01181*%
G04:AMPARAMS|DCode=74|XSize=74.8mil|YSize=61.02mil|CornerRadius=10.95mil|HoleSize=0mil|Usage=FLASHONLY|Rotation=0.000|XOffset=0mil|YOffset=0mil|HoleType=Round|Shape=RoundedRectangle|*
%AMROUNDEDRECTD74*
21,1,0.07480,0.03913,0,0,0.0*
21,1,0.05291,0.06102,0,0,0.0*
1,1,0.02189,0.02646,-0.01957*
1,1,0.02189,-0.02646,-0.01957*
1,1,0.02189,-0.02646,0.01957*
1,1,0.02189,0.02646,0.01957*
%
%ADD74ROUNDEDRECTD74*%
G04:AMPARAMS|DCode=75|XSize=61.02mil|YSize=53.15mil|CornerRadius=10.75mil|HoleSize=0mil|Usage=FLASHONLY|Rotation=0.000|XOffset=0mil|YOffset=0mil|HoleType=Round|Shape=RoundedRectangle|*
%AMROUNDEDRECTD75*
21,1,0.06102,0.03165,0,0,0.0*
21,1,0.03953,0.05315,0,0,0.0*
1,1,0.02150,0.01976,-0.01583*
1,1,0.02150,-0.01976,-0.01583*
1,1,0.02150,-0.01976,0.01583*
1,1,0.02150,0.01976,0.01583*
%
%ADD75ROUNDEDRECTD75*%
G04:AMPARAMS|DCode=76|XSize=51.18mil|YSize=47.24mil|CornerRadius=10.81mil|HoleSize=0mil|Usage=FLASHONLY|Rotation=0.000|XOffset=0mil|YOffset=0mil|HoleType=Round|Shape=RoundedRectangle|*
%AMROUNDEDRECTD76*
21,1,0.05118,0.02563,0,0,0.0*
21,1,0.02957,0.04724,0,0,0.0*
1,1,0.02161,0.01478,-0.01282*
1,1,0.02161,-0.01478,-0.01282*
1,1,0.02161,-0.01478,0.01282*
1,1,0.02161,0.01478,0.01282*
%
%ADD76ROUNDEDRECTD76*%
G04:AMPARAMS|DCode=77|XSize=206.69mil|YSize=177.16mil|CornerRadius=10.66mil|HoleSize=0mil|Usage=FLASHONLY|Rotation=180.000|XOffset=0mil|YOffset=0mil|HoleType=Round|Shape=RoundedRectangle|*
%AMROUNDEDRECTD77*
21,1,0.20669,0.15585,0,0,180.0*
21,1,0.18537,0.17716,0,0,180.0*
1,1,0.02132,-0.09269,0.07792*
1,1,0.02132,0.09269,0.07792*
1,1,0.02132,0.09269,-0.07792*
1,1,0.02132,-0.09269,-0.07792*
%
%ADD77ROUNDEDRECTD77*%
%ADD78C,0.07874*%
%ADD79C,0.02572*%
G04:AMPARAMS|DCode=80|XSize=62.99mil|YSize=25.59mil|CornerRadius=10.83mil|HoleSize=0mil|Usage=FLASHONLY|Rotation=270.000|XOffset=0mil|YOffset=0mil|HoleType=Round|Shape=RoundedRectangle|*
%AMROUNDEDRECTD80*
21,1,0.06299,0.00394,0,0,270.0*
21,1,0.04134,0.02559,0,0,270.0*
1,1,0.02165,-0.00197,-0.02067*
1,1,0.02165,-0.00197,0.02067*
1,1,0.02165,0.00197,0.02067*
1,1,0.02165,0.00197,-0.02067*
%
%ADD80ROUNDEDRECTD80*%
%ADD81O,0.06299X0.01575*%
%ADD82O,0.01575X0.06299*%
G04:AMPARAMS|DCode=83|XSize=96.46mil|YSize=25.59mil|CornerRadius=10.83mil|HoleSize=0mil|Usage=FLASHONLY|Rotation=180.000|XOffset=0mil|YOffset=0mil|HoleType=Round|Shape=RoundedRectangle|*
%AMROUNDEDRECTD83*
21,1,0.09646,0.00394,0,0,180.0*
21,1,0.07480,0.02559,0,0,180.0*
1,1,0.02165,-0.03740,0.00197*
1,1,0.02165,0.03740,0.00197*
1,1,0.02165,0.03740,-0.00197*
1,1,0.02165,-0.03740,-0.00197*
%
%ADD83ROUNDEDRECTD83*%
G04:AMPARAMS|DCode=84|XSize=104.33mil|YSize=84.65mil|CornerRadius=10.83mil|HoleSize=0mil|Usage=FLASHONLY|Rotation=180.000|XOffset=0mil|YOffset=0mil|HoleType=Round|Shape=RoundedRectangle|*
%AMROUNDEDRECTD84*
21,1,0.10433,0.06299,0,0,180.0*
21,1,0.08268,0.08465,0,0,180.0*
1,1,0.02165,-0.04134,0.03150*
1,1,0.02165,0.04134,0.03150*
1,1,0.02165,0.04134,-0.03150*
1,1,0.02165,-0.04134,-0.03150*
%
%ADD84ROUNDEDRECTD84*%
G04:AMPARAMS|DCode=85|XSize=47.24mil|YSize=31.5mil|CornerRadius=10.89mil|HoleSize=0mil|Usage=FLASHONLY|Rotation=180.000|XOffset=0mil|YOffset=0mil|HoleType=Round|Shape=RoundedRectangle|*
%AMROUNDEDRECTD85*
21,1,0.04724,0.00972,0,0,180.0*
21,1,0.02547,0.03150,0,0,180.0*
1,1,0.02177,-0.01274,0.00486*
1,1,0.02177,0.01274,0.00486*
1,1,0.02177,0.01274,-0.00486*
1,1,0.02177,-0.01274,-0.00486*
%
%ADD85ROUNDEDRECTD85*%
G04:AMPARAMS|DCode=86|XSize=198.82mil|YSize=68.9mil|CornerRadius=10.83mil|HoleSize=0mil|Usage=FLASHONLY|Rotation=180.000|XOffset=0mil|YOffset=0mil|HoleType=Round|Shape=RoundedRectangle|*
%AMROUNDEDRECTD86*
21,1,0.19882,0.04724,0,0,180.0*
21,1,0.17716,0.06890,0,0,180.0*
1,1,0.02165,-0.08858,0.02362*
1,1,0.02165,0.08858,0.02362*
1,1,0.02165,0.08858,-0.02362*
1,1,0.02165,-0.08858,-0.02362*
%
%ADD86ROUNDEDRECTD86*%
G04:AMPARAMS|DCode=87|XSize=118.11mil|YSize=45.28mil|CornerRadius=10.83mil|HoleSize=0mil|Usage=FLASHONLY|Rotation=0.000|XOffset=0mil|YOffset=0mil|HoleType=Round|Shape=RoundedRectangle|*
%AMROUNDEDRECTD87*
21,1,0.11811,0.02362,0,0,0.0*
21,1,0.09646,0.04528,0,0,0.0*
1,1,0.02165,0.04823,-0.01181*
1,1,0.02165,-0.04823,-0.01181*
1,1,0.02165,-0.04823,0.01181*
1,1,0.02165,0.04823,0.01181*
%
%ADD87ROUNDEDRECTD87*%
G04:AMPARAMS|DCode=88|XSize=259.84mil|YSize=242.13mil|CornerRadius=11.22mil|HoleSize=0mil|Usage=FLASHONLY|Rotation=0.000|XOffset=0mil|YOffset=0mil|HoleType=Round|Shape=RoundedRectangle|*
%AMROUNDEDRECTD88*
21,1,0.25984,0.21968,0,0,0.0*
21,1,0.23740,0.24213,0,0,0.0*
1,1,0.02244,0.11870,-0.10984*
1,1,0.02244,-0.11870,-0.10984*
1,1,0.02244,-0.11870,0.10984*
1,1,0.02244,0.11870,0.10984*
%
%ADD88ROUNDEDRECTD88*%
G04:AMPARAMS|DCode=89|XSize=364.17mil|YSize=346.46mil|CornerRadius=11.47mil|HoleSize=0mil|Usage=FLASHONLY|Rotation=90.000|XOffset=0mil|YOffset=0mil|HoleType=Round|Shape=RoundedRectangle|*
%AMROUNDEDRECTD89*
21,1,0.36417,0.32352,0,0,90.0*
21,1,0.34124,0.34646,0,0,90.0*
1,1,0.02293,0.16176,0.17062*
1,1,0.02293,0.16176,-0.17062*
1,1,0.02293,-0.16176,-0.17062*
1,1,0.02293,-0.16176,0.17062*
%
%ADD89ROUNDEDRECTD89*%
G04:AMPARAMS|DCode=90|XSize=153.54mil|YSize=47.24mil|CornerRadius=10.81mil|HoleSize=0mil|Usage=FLASHONLY|Rotation=0.000|XOffset=0mil|YOffset=0mil|HoleType=Round|Shape=RoundedRectangle|*
%AMROUNDEDRECTD90*
21,1,0.15354,0.02563,0,0,0.0*
21,1,0.13193,0.04724,0,0,0.0*
1,1,0.02161,0.06597,-0.01282*
1,1,0.02161,-0.06597,-0.01282*
1,1,0.02161,-0.06597,0.01282*
1,1,0.02161,0.06597,0.01282*
%
%ADD90ROUNDEDRECTD90*%
%ADD91C,0.01587*%
%ADD92O,0.03740X0.01378*%
%ADD93O,0.06102X0.02953*%
%ADD94O,0.02953X0.06102*%
%ADD95O,0.06693X0.02953*%
%ADD96O,0.02953X0.06693*%
G04:AMPARAMS|DCode=97|XSize=31.5mil|YSize=25.59mil|CornerRadius=10.83mil|HoleSize=0mil|Usage=FLASHONLY|Rotation=0.000|XOffset=0mil|YOffset=0mil|HoleType=Round|Shape=RoundedRectangle|*
%AMROUNDEDRECTD97*
21,1,0.03150,0.00394,0,0,0.0*
21,1,0.00984,0.02559,0,0,0.0*
1,1,0.02165,0.00492,-0.00197*
1,1,0.02165,-0.00492,-0.00197*
1,1,0.02165,-0.00492,0.00197*
1,1,0.02165,0.00492,0.00197*
%
%ADD97ROUNDEDRECTD97*%
G04:AMPARAMS|DCode=98|XSize=112.21mil|YSize=51.18mil|CornerRadius=10.88mil|HoleSize=0mil|Usage=FLASHONLY|Rotation=0.000|XOffset=0mil|YOffset=0mil|HoleType=Round|Shape=RoundedRectangle|*
%AMROUNDEDRECTD98*
21,1,0.11221,0.02943,0,0,0.0*
21,1,0.09045,0.05118,0,0,0.0*
1,1,0.02175,0.04523,-0.01472*
1,1,0.02175,-0.04523,-0.01472*
1,1,0.02175,-0.04523,0.01472*
1,1,0.02175,0.04523,0.01472*
%
%ADD98ROUNDEDRECTD98*%
G04:AMPARAMS|DCode=99|XSize=112.21mil|YSize=51.18mil|CornerRadius=10.88mil|HoleSize=0mil|Usage=FLASHONLY|Rotation=270.000|XOffset=0mil|YOffset=0mil|HoleType=Round|Shape=RoundedRectangle|*
%AMROUNDEDRECTD99*
21,1,0.11221,0.02943,0,0,270.0*
21,1,0.09045,0.05118,0,0,270.0*
1,1,0.02175,-0.01472,-0.04523*
1,1,0.02175,-0.01472,0.04523*
1,1,0.02175,0.01472,0.04523*
1,1,0.02175,0.01472,-0.04523*
%
%ADD99ROUNDEDRECTD99*%
G04:AMPARAMS|DCode=100|XSize=62.99mil|YSize=51.18mil|CornerRadius=10.88mil|HoleSize=0mil|Usage=FLASHONLY|Rotation=0.000|XOffset=0mil|YOffset=0mil|HoleType=Round|Shape=RoundedRectangle|*
%AMROUNDEDRECTD100*
21,1,0.06299,0.02943,0,0,0.0*
21,1,0.04124,0.05118,0,0,0.0*
1,1,0.02175,0.02062,-0.01472*
1,1,0.02175,-0.02062,-0.01472*
1,1,0.02175,-0.02062,0.01472*
1,1,0.02175,0.02062,0.01472*
%
%ADD100ROUNDEDRECTD100*%
G04:AMPARAMS|DCode=101|XSize=62.99mil|YSize=51.18mil|CornerRadius=10.88mil|HoleSize=0mil|Usage=FLASHONLY|Rotation=90.000|XOffset=0mil|YOffset=0mil|HoleType=Round|Shape=RoundedRectangle|*
%AMROUNDEDRECTD101*
21,1,0.06299,0.02943,0,0,90.0*
21,1,0.04124,0.05118,0,0,90.0*
1,1,0.02175,0.01472,0.02062*
1,1,0.02175,0.01472,-0.02062*
1,1,0.02175,-0.01472,-0.02062*
1,1,0.02175,-0.01472,0.02062*
%
%ADD101ROUNDEDRECTD101*%
G04:AMPARAMS|DCode=102|XSize=74.8mil|YSize=47.24mil|CornerRadius=10.81mil|HoleSize=0mil|Usage=FLASHONLY|Rotation=270.000|XOffset=0mil|YOffset=0mil|HoleType=Round|Shape=RoundedRectangle|*
%AMROUNDEDRECTD102*
21,1,0.07480,0.02563,0,0,270.0*
21,1,0.05319,0.04724,0,0,270.0*
1,1,0.02161,-0.01282,-0.02660*
1,1,0.02161,-0.01282,0.02660*
1,1,0.02161,0.01282,0.02660*
1,1,0.02161,0.01282,-0.02660*
%
%ADD102ROUNDEDRECTD102*%
G04:AMPARAMS|DCode=103|XSize=74.8mil|YSize=47.24mil|CornerRadius=10.81mil|HoleSize=0mil|Usage=FLASHONLY|Rotation=180.000|XOffset=0mil|YOffset=0mil|HoleType=Round|Shape=RoundedRectangle|*
%AMROUNDEDRECTD103*
21,1,0.07480,0.02563,0,0,180.0*
21,1,0.05319,0.04724,0,0,180.0*
1,1,0.02161,-0.02660,0.01282*
1,1,0.02161,0.02660,0.01282*
1,1,0.02161,0.02660,-0.01282*
1,1,0.02161,-0.02660,-0.01282*
%
%ADD103ROUNDEDRECTD103*%
G04:AMPARAMS|DCode=104|XSize=53.15mil|YSize=53.15mil|CornerRadius=10.75mil|HoleSize=0mil|Usage=FLASHONLY|Rotation=0.000|XOffset=0mil|YOffset=0mil|HoleType=Round|Shape=RoundedRectangle|*
%AMROUNDEDRECTD104*
21,1,0.05315,0.03165,0,0,0.0*
21,1,0.03165,0.05315,0,0,0.0*
1,1,0.02150,0.01583,-0.01583*
1,1,0.02150,-0.01583,-0.01583*
1,1,0.02150,-0.01583,0.01583*
1,1,0.02150,0.01583,0.01583*
%
%ADD104ROUNDEDRECTD104*%
G04:AMPARAMS|DCode=105|XSize=45.28mil|YSize=41.34mil|CornerRadius=10.75mil|HoleSize=0mil|Usage=FLASHONLY|Rotation=0.000|XOffset=0mil|YOffset=0mil|HoleType=Round|Shape=RoundedRectangle|*
%AMROUNDEDRECTD105*
21,1,0.04528,0.01984,0,0,0.0*
21,1,0.02378,0.04134,0,0,0.0*
1,1,0.02150,0.01189,-0.00992*
1,1,0.02150,-0.01189,-0.00992*
1,1,0.02150,-0.01189,0.00992*
1,1,0.02150,0.01189,0.00992*
%
%ADD105ROUNDEDRECTD105*%
G04:AMPARAMS|DCode=106|XSize=45.28mil|YSize=41.34mil|CornerRadius=10.75mil|HoleSize=0mil|Usage=FLASHONLY|Rotation=270.000|XOffset=0mil|YOffset=0mil|HoleType=Round|Shape=RoundedRectangle|*
%AMROUNDEDRECTD106*
21,1,0.04528,0.01984,0,0,270.0*
21,1,0.02378,0.04134,0,0,270.0*
1,1,0.02150,-0.00992,-0.01189*
1,1,0.02150,-0.00992,0.01189*
1,1,0.02150,0.00992,0.01189*
1,1,0.02150,0.00992,-0.01189*
%
%ADD106ROUNDEDRECTD106*%
G04:AMPARAMS|DCode=107|XSize=45.28mil|YSize=43.31mil|CornerRadius=10.81mil|HoleSize=0mil|Usage=FLASHONLY|Rotation=270.000|XOffset=0mil|YOffset=0mil|HoleType=Round|Shape=RoundedRectangle|*
%AMROUNDEDRECTD107*
21,1,0.04528,0.02169,0,0,270.0*
21,1,0.02366,0.04331,0,0,270.0*
1,1,0.02161,-0.01085,-0.01183*
1,1,0.02161,-0.01085,0.01183*
1,1,0.02161,0.01085,0.01183*
1,1,0.02161,0.01085,-0.01183*
%
%ADD107ROUNDEDRECTD107*%
G04:AMPARAMS|DCode=108|XSize=45.28mil|YSize=43.31mil|CornerRadius=10.81mil|HoleSize=0mil|Usage=FLASHONLY|Rotation=0.000|XOffset=0mil|YOffset=0mil|HoleType=Round|Shape=RoundedRectangle|*
%AMROUNDEDRECTD108*
21,1,0.04528,0.02169,0,0,0.0*
21,1,0.02366,0.04331,0,0,0.0*
1,1,0.02161,0.01183,-0.01085*
1,1,0.02161,-0.01183,-0.01085*
1,1,0.02161,-0.01183,0.01085*
1,1,0.02161,0.01183,0.01085*
%
%ADD108ROUNDEDRECTD108*%
G04:AMPARAMS|DCode=109|XSize=30.32mil|YSize=30.32mil|CornerRadius=8.81mil|HoleSize=0mil|Usage=FLASHONLY|Rotation=0.000|XOffset=0mil|YOffset=0mil|HoleType=Round|Shape=RoundedRectangle|*
%AMROUNDEDRECTD109*
21,1,0.03032,0.01269,0,0,0.0*
21,1,0.01269,0.03032,0,0,0.0*
1,1,0.01762,0.00635,-0.00635*
1,1,0.01762,-0.00635,-0.00635*
1,1,0.01762,-0.00635,0.00635*
1,1,0.01762,0.00635,0.00635*
%
%ADD109ROUNDEDRECTD109*%
G04:AMPARAMS|DCode=110|XSize=30.32mil|YSize=30.32mil|CornerRadius=8.81mil|HoleSize=0mil|Usage=FLASHONLY|Rotation=270.000|XOffset=0mil|YOffset=0mil|HoleType=Round|Shape=RoundedRectangle|*
%AMROUNDEDRECTD110*
21,1,0.03032,0.01269,0,0,270.0*
21,1,0.01269,0.03032,0,0,270.0*
1,1,0.01762,-0.00635,-0.00635*
1,1,0.01762,-0.00635,0.00635*
1,1,0.01762,0.00635,0.00635*
1,1,0.01762,0.00635,-0.00635*
%
%ADD110ROUNDEDRECTD110*%
G04:AMPARAMS|DCode=111|XSize=23.23mil|YSize=22.44mil|CornerRadius=6.92mil|HoleSize=0mil|Usage=FLASHONLY|Rotation=0.000|XOffset=0mil|YOffset=0mil|HoleType=Round|Shape=RoundedRectangle|*
%AMROUNDEDRECTD111*
21,1,0.02323,0.00860,0,0,0.0*
21,1,0.00939,0.02244,0,0,0.0*
1,1,0.01384,0.00469,-0.00430*
1,1,0.01384,-0.00469,-0.00430*
1,1,0.01384,-0.00469,0.00430*
1,1,0.01384,0.00469,0.00430*
%
%ADD111ROUNDEDRECTD111*%
G04:AMPARAMS|DCode=112|XSize=49.21mil|YSize=27.56mil|CornerRadius=10.86mil|HoleSize=0mil|Usage=FLASHONLY|Rotation=270.000|XOffset=0mil|YOffset=0mil|HoleType=Round|Shape=RoundedRectangle|*
%AMROUNDEDRECTD112*
21,1,0.04921,0.00585,0,0,270.0*
21,1,0.02750,0.02756,0,0,270.0*
1,1,0.02171,-0.00292,-0.01375*
1,1,0.02171,-0.00292,0.01375*
1,1,0.02171,0.00292,0.01375*
1,1,0.02171,0.00292,-0.01375*
%
%ADD112ROUNDEDRECTD112*%
G04:AMPARAMS|DCode=113|XSize=49.21mil|YSize=27.56mil|CornerRadius=10.86mil|HoleSize=0mil|Usage=FLASHONLY|Rotation=180.000|XOffset=0mil|YOffset=0mil|HoleType=Round|Shape=RoundedRectangle|*
%AMROUNDEDRECTD113*
21,1,0.04921,0.00585,0,0,180.0*
21,1,0.02750,0.02756,0,0,180.0*
1,1,0.02171,-0.01375,0.00292*
1,1,0.02171,0.01375,0.00292*
1,1,0.02171,0.01375,-0.00292*
1,1,0.02171,-0.01375,-0.00292*
%
%ADD113ROUNDEDRECTD113*%
G04:AMPARAMS|DCode=114|XSize=135.83mil|YSize=104.33mil|CornerRadius=10.83mil|HoleSize=0mil|Usage=FLASHONLY|Rotation=0.000|XOffset=0mil|YOffset=0mil|HoleType=Round|Shape=RoundedRectangle|*
%AMROUNDEDRECTD114*
21,1,0.13583,0.08268,0,0,0.0*
21,1,0.11417,0.10433,0,0,0.0*
1,1,0.02165,0.05709,-0.04134*
1,1,0.02165,-0.05709,-0.04134*
1,1,0.02165,-0.05709,0.04134*
1,1,0.02165,0.05709,0.04134*
%
%ADD114ROUNDEDRECTD114*%
G04:AMPARAMS|DCode=115|XSize=104.33mil|YSize=72.84mil|CornerRadius=10.98mil|HoleSize=0mil|Usage=FLASHONLY|Rotation=90.000|XOffset=0mil|YOffset=0mil|HoleType=Round|Shape=RoundedRectangle|*
%AMROUNDEDRECTD115*
21,1,0.10433,0.05087,0,0,90.0*
21,1,0.08236,0.07284,0,0,90.0*
1,1,0.02197,0.02543,0.04118*
1,1,0.02197,0.02543,-0.04118*
1,1,0.02197,-0.02543,-0.04118*
1,1,0.02197,-0.02543,0.04118*
%
%ADD115ROUNDEDRECTD115*%
%ADD116C,0.04528*%
%ADD117C,0.04134*%
%ADD118C,0.07874*%
%ADD119C,0.10433*%
%ADD120C,0.08071*%
%ADD121C,0.28150*%
G36*
X307874Y120276D02*
X317913D01*
Y102559D01*
X307874D01*
Y101378D01*
X302756D01*
Y121457D01*
X307874D01*
Y120276D01*
D02*
G37*
G36*
X254331D02*
X264370D01*
Y102559D01*
X254331D01*
Y101378D01*
X249213D01*
Y121457D01*
X254331D01*
Y120276D01*
D02*
G37*
G36*
X414961D02*
X425000D01*
Y102559D01*
X414961D01*
Y101378D01*
X409842D01*
Y121457D01*
X414961D01*
Y120276D01*
D02*
G37*
G36*
X361417D02*
X371457D01*
Y102559D01*
X361417D01*
Y101378D01*
X356299D01*
Y121457D01*
X361417D01*
Y120276D01*
D02*
G37*
G36*
X93701D02*
X103740D01*
Y102559D01*
X93701D01*
Y101378D01*
X88583D01*
Y121457D01*
X93701D01*
Y120276D01*
D02*
G37*
G36*
X40157D02*
X50197D01*
Y102559D01*
X40157D01*
Y101378D01*
X35039D01*
Y121457D01*
X40157D01*
Y120276D01*
D02*
G37*
G36*
X200787D02*
X210827D01*
Y102559D01*
X200787D01*
Y101378D01*
X195669D01*
Y121457D01*
X200787D01*
Y120276D01*
D02*
G37*
G36*
X147244D02*
X157283D01*
Y102559D01*
X147244D01*
Y101378D01*
X142126D01*
Y121457D01*
X147244D01*
Y120276D01*
D02*
G37*
G36*
X307874Y142323D02*
X317913D01*
Y124606D01*
X307874D01*
Y123425D01*
X302756D01*
Y143504D01*
X307874D01*
Y142323D01*
D02*
G37*
G36*
X254331D02*
X264370D01*
Y124606D01*
X254331D01*
Y123425D01*
X249213D01*
Y143504D01*
X254331D01*
Y142323D01*
D02*
G37*
G36*
X414961D02*
X425000D01*
Y124606D01*
X414961D01*
Y123425D01*
X409842D01*
Y143504D01*
X414961D01*
Y142323D01*
D02*
G37*
G36*
X361417D02*
X371457D01*
Y124606D01*
X361417D01*
Y123425D01*
X356299D01*
Y143504D01*
X361417D01*
Y142323D01*
D02*
G37*
G36*
X93701D02*
X103740D01*
Y124606D01*
X93701D01*
Y123425D01*
X88583D01*
Y143504D01*
X93701D01*
Y142323D01*
D02*
G37*
G36*
X40157D02*
X50197D01*
Y124606D01*
X40157D01*
Y123425D01*
X35039D01*
Y143504D01*
X40157D01*
Y142323D01*
D02*
G37*
G36*
X200787D02*
X210827D01*
Y124606D01*
X200787D01*
Y123425D01*
X195669D01*
Y143504D01*
X200787D01*
Y142323D01*
D02*
G37*
G36*
X147244D02*
X157283D01*
Y124606D01*
X147244D01*
Y123425D01*
X142126D01*
Y143504D01*
X147244D01*
Y142323D01*
D02*
G37*
G36*
X321850Y85827D02*
X320669D01*
Y75787D01*
X302953D01*
Y85827D01*
X301772D01*
Y90945D01*
X321850D01*
Y85827D01*
D02*
G37*
G36*
X268307D02*
X267126D01*
Y75787D01*
X249409D01*
Y85827D01*
X248228D01*
Y90945D01*
X268307D01*
Y85827D01*
D02*
G37*
G36*
X428937D02*
X427756D01*
Y75787D01*
X410039D01*
Y85827D01*
X408858D01*
Y90945D01*
X428937D01*
Y85827D01*
D02*
G37*
G36*
X375394D02*
X374213D01*
Y75787D01*
X356496D01*
Y85827D01*
X355315D01*
Y90945D01*
X375394D01*
Y85827D01*
D02*
G37*
G36*
X107677D02*
X106496D01*
Y75787D01*
X88779D01*
Y85827D01*
X87598D01*
Y90945D01*
X107677D01*
Y85827D01*
D02*
G37*
G36*
X54134D02*
X52953D01*
Y75787D01*
X35236D01*
Y85827D01*
X34055D01*
Y90945D01*
X54134D01*
Y85827D01*
D02*
G37*
G36*
X214764D02*
X213583D01*
Y75787D01*
X195866D01*
Y85827D01*
X194685D01*
Y90945D01*
X214764D01*
Y85827D01*
D02*
G37*
G36*
X161221D02*
X160039D01*
Y75787D01*
X142323D01*
Y85827D01*
X141142D01*
Y90945D01*
X161221D01*
Y85827D01*
D02*
G37*
G36*
X288386Y94193D02*
X281693D01*
Y100295D01*
X288386D01*
Y94193D01*
D02*
G37*
G36*
X234842D02*
X228150D01*
Y100295D01*
X234842D01*
Y94193D01*
D02*
G37*
G36*
X395472D02*
X388779D01*
Y100295D01*
X395472D01*
Y94193D01*
D02*
G37*
G36*
X341929D02*
X335236D01*
Y100295D01*
X341929D01*
Y94193D01*
D02*
G37*
G36*
X74213D02*
X67520D01*
Y100295D01*
X74213D01*
Y94193D01*
D02*
G37*
G36*
X20669D02*
X13976D01*
Y100295D01*
X20669D01*
Y94193D01*
D02*
G37*
G36*
X181299D02*
X174606D01*
Y100295D01*
X181299D01*
Y94193D01*
D02*
G37*
G36*
X127756D02*
X121063D01*
Y100295D01*
X127756D01*
Y94193D01*
D02*
G37*
G36*
X311221Y783563D02*
X304528D01*
Y789665D01*
X311221D01*
Y783563D01*
D02*
G37*
G36*
X257677D02*
X250984D01*
Y789665D01*
X257677D01*
Y783563D01*
D02*
G37*
G36*
X418307D02*
X411614D01*
Y789665D01*
X418307D01*
Y783563D01*
D02*
G37*
G36*
X364764D02*
X358071D01*
Y789665D01*
X364764D01*
Y783563D01*
D02*
G37*
G36*
X97047D02*
X90354D01*
Y789665D01*
X97047D01*
Y783563D01*
D02*
G37*
G36*
X43504D02*
X36811D01*
Y789665D01*
X43504D01*
Y783563D01*
D02*
G37*
G36*
X204134D02*
X197441D01*
Y789665D01*
X204134D01*
Y783563D01*
D02*
G37*
G36*
X150591D02*
X143898D01*
Y789665D01*
X150591D01*
Y783563D01*
D02*
G37*
G36*
X289961Y798032D02*
X291142D01*
Y792913D01*
X271063D01*
Y798032D01*
X272244D01*
Y808071D01*
X289961D01*
Y798032D01*
D02*
G37*
G36*
X236417D02*
X237598D01*
Y792913D01*
X217520D01*
Y798032D01*
X218701D01*
Y808071D01*
X236417D01*
Y798032D01*
D02*
G37*
G36*
X397047D02*
X398228D01*
Y792913D01*
X378150D01*
Y798032D01*
X379331D01*
Y808071D01*
X397047D01*
Y798032D01*
D02*
G37*
G36*
X343504D02*
X344685D01*
Y792913D01*
X324606D01*
Y798032D01*
X325787D01*
Y808071D01*
X343504D01*
Y798032D01*
D02*
G37*
G36*
X75787D02*
X76968D01*
Y792913D01*
X56890D01*
Y798032D01*
X58071D01*
Y808071D01*
X75787D01*
Y798032D01*
D02*
G37*
G36*
X22244D02*
X23425D01*
Y792913D01*
X3347D01*
Y798032D01*
X4528D01*
Y808071D01*
X22244D01*
Y798032D01*
D02*
G37*
G36*
X182874D02*
X184055D01*
Y792913D01*
X163976D01*
Y798032D01*
X165157D01*
Y808071D01*
X182874D01*
Y798032D01*
D02*
G37*
G36*
X129331D02*
X130512D01*
Y792913D01*
X110433D01*
Y798032D01*
X111614D01*
Y808071D01*
X129331D01*
Y798032D01*
D02*
G37*
G36*
X290158Y740354D02*
X285039D01*
Y741535D01*
X275000D01*
Y759252D01*
X285039D01*
Y760433D01*
X290158D01*
Y740354D01*
D02*
G37*
G36*
X236614D02*
X231496D01*
Y741535D01*
X221457D01*
Y759252D01*
X231496D01*
Y760433D01*
X236614D01*
Y740354D01*
D02*
G37*
G36*
X397244D02*
X392126D01*
Y741535D01*
X382087D01*
Y759252D01*
X392126D01*
Y760433D01*
X397244D01*
Y740354D01*
D02*
G37*
G36*
X343701D02*
X338583D01*
Y741535D01*
X328543D01*
Y759252D01*
X338583D01*
Y760433D01*
X343701D01*
Y740354D01*
D02*
G37*
G36*
X75984D02*
X70866D01*
Y741535D01*
X60827D01*
Y759252D01*
X70866D01*
Y760433D01*
X75984D01*
Y740354D01*
D02*
G37*
G36*
X22441D02*
X17323D01*
Y741535D01*
X7283D01*
Y759252D01*
X17323D01*
Y760433D01*
X22441D01*
Y740354D01*
D02*
G37*
G36*
X183071D02*
X177953D01*
Y741535D01*
X167913D01*
Y759252D01*
X177953D01*
Y760433D01*
X183071D01*
Y740354D01*
D02*
G37*
G36*
X129528D02*
X124409D01*
Y741535D01*
X114370D01*
Y759252D01*
X124409D01*
Y760433D01*
X129528D01*
Y740354D01*
D02*
G37*
G36*
X290158Y762402D02*
X285039D01*
Y763583D01*
X275000D01*
Y781299D01*
X285039D01*
Y782480D01*
X290158D01*
Y762402D01*
D02*
G37*
G36*
X236614D02*
X231496D01*
Y763583D01*
X221457D01*
Y781299D01*
X231496D01*
Y782480D01*
X236614D01*
Y762402D01*
D02*
G37*
G36*
X397244D02*
X392126D01*
Y763583D01*
X382087D01*
Y781299D01*
X392126D01*
Y782480D01*
X397244D01*
Y762402D01*
D02*
G37*
G36*
X343701D02*
X338583D01*
Y763583D01*
X328543D01*
Y781299D01*
X338583D01*
Y782480D01*
X343701D01*
Y762402D01*
D02*
G37*
G36*
X75984D02*
X70866D01*
Y763583D01*
X60827D01*
Y781299D01*
X70866D01*
Y782480D01*
X75984D01*
Y762402D01*
D02*
G37*
G36*
X22441D02*
X17323D01*
Y763583D01*
X7283D01*
Y781299D01*
X17323D01*
Y782480D01*
X22441D01*
Y762402D01*
D02*
G37*
G36*
X183071D02*
X177953D01*
Y763583D01*
X167913D01*
Y781299D01*
X177953D01*
Y782480D01*
X183071D01*
Y762402D01*
D02*
G37*
G36*
X129528D02*
X124409D01*
Y763583D01*
X114370D01*
Y781299D01*
X124409D01*
Y782480D01*
X129528D01*
Y762402D01*
D02*
G37*
D73*
X392520Y414567D02*
D03*
Y412992D02*
D03*
Y411417D02*
D03*
Y409842D02*
D03*
X389370D02*
D03*
Y411417D02*
D03*
Y412992D02*
D03*
Y414567D02*
D03*
X393327Y390158D02*
D03*
Y388583D02*
D03*
Y387008D02*
D03*
Y385433D02*
D03*
X390177D02*
D03*
Y387008D02*
D03*
Y388583D02*
D03*
Y390158D02*
D03*
D74*
X367520Y480905D02*
D03*
X356102D02*
D03*
Y490748D02*
D03*
X367520D02*
D03*
X262402Y400984D02*
D03*
X273819D02*
D03*
Y391142D02*
D03*
X262402D02*
D03*
X65551Y400984D02*
D03*
X76968D02*
D03*
Y391142D02*
D03*
X65551D02*
D03*
X170669Y480905D02*
D03*
X159252D02*
D03*
Y490748D02*
D03*
X170669D02*
D03*
D75*
X366732Y489764D02*
D03*
X356890D02*
D03*
Y481890D02*
D03*
X366732D02*
D03*
X263189Y392126D02*
D03*
X273031D02*
D03*
Y400000D02*
D03*
X263189D02*
D03*
X66339Y392126D02*
D03*
X76181D02*
D03*
Y400000D02*
D03*
X66339D02*
D03*
X169882Y489764D02*
D03*
X160039D02*
D03*
Y481890D02*
D03*
X169882D02*
D03*
D76*
X168898Y482677D02*
D03*
X161024D02*
D03*
Y488976D02*
D03*
X168898D02*
D03*
X365748Y482677D02*
D03*
X357874D02*
D03*
Y488976D02*
D03*
X365748D02*
D03*
X264173Y399213D02*
D03*
X272047D02*
D03*
Y392913D02*
D03*
X264173D02*
D03*
X67323Y399213D02*
D03*
X75197D02*
D03*
Y392913D02*
D03*
X67323D02*
D03*
D77*
X135827Y194587D02*
D03*
Y154232D02*
D03*
Y689272D02*
D03*
Y729626D02*
D03*
X350000Y689272D02*
D03*
Y729626D02*
D03*
X296457Y194587D02*
D03*
Y154232D02*
D03*
X82284Y194587D02*
D03*
Y154232D02*
D03*
X189370Y689272D02*
D03*
Y729626D02*
D03*
X403543Y689272D02*
D03*
Y729626D02*
D03*
X242913Y194587D02*
D03*
Y154232D02*
D03*
X28740Y689272D02*
D03*
Y729626D02*
D03*
X242913Y689272D02*
D03*
Y729626D02*
D03*
X403543Y194587D02*
D03*
Y154232D02*
D03*
X189370Y194587D02*
D03*
Y154232D02*
D03*
X82284Y689272D02*
D03*
Y729626D02*
D03*
X296457Y689272D02*
D03*
Y729626D02*
D03*
X350000Y194587D02*
D03*
Y154232D02*
D03*
X28740Y194587D02*
D03*
Y154232D02*
D03*
D78*
X355709Y498622D02*
D03*
X274213Y580118D02*
D03*
Y383268D02*
D03*
X355709Y301772D02*
D03*
X77362Y383268D02*
D03*
X158858Y301772D02*
D03*
Y498622D02*
D03*
X77362Y580118D02*
D03*
X453179Y421193D02*
D03*
X498455Y375918D02*
D03*
X504350Y822441D02*
D03*
Y54724D02*
D03*
D79*
X281890Y509449D02*
D03*
Y512598D02*
D03*
Y515748D02*
D03*
Y518898D02*
D03*
Y522047D02*
D03*
Y525197D02*
D03*
Y528346D02*
D03*
Y531496D02*
D03*
Y534646D02*
D03*
Y537795D02*
D03*
Y540945D02*
D03*
Y544095D02*
D03*
Y547244D02*
D03*
Y550394D02*
D03*
Y553543D02*
D03*
Y556693D02*
D03*
Y559842D02*
D03*
Y562992D02*
D03*
Y566142D02*
D03*
Y569291D02*
D03*
X285039Y506299D02*
D03*
Y509449D02*
D03*
Y512598D02*
D03*
Y515748D02*
D03*
Y518898D02*
D03*
Y522047D02*
D03*
Y525197D02*
D03*
Y528346D02*
D03*
Y531496D02*
D03*
Y534646D02*
D03*
Y537795D02*
D03*
Y540945D02*
D03*
Y544095D02*
D03*
Y547244D02*
D03*
Y550394D02*
D03*
Y553543D02*
D03*
Y556693D02*
D03*
Y559842D02*
D03*
Y562992D02*
D03*
Y566142D02*
D03*
Y569291D02*
D03*
Y572441D02*
D03*
X288189Y506299D02*
D03*
Y509449D02*
D03*
Y512598D02*
D03*
Y515748D02*
D03*
Y518898D02*
D03*
Y522047D02*
D03*
Y525197D02*
D03*
Y528346D02*
D03*
Y531496D02*
D03*
Y534646D02*
D03*
Y537795D02*
D03*
Y540945D02*
D03*
Y544095D02*
D03*
Y547244D02*
D03*
Y550394D02*
D03*
Y553543D02*
D03*
Y556693D02*
D03*
Y559842D02*
D03*
Y562992D02*
D03*
Y566142D02*
D03*
Y569291D02*
D03*
Y572441D02*
D03*
X291339Y506299D02*
D03*
Y509449D02*
D03*
Y512598D02*
D03*
Y515748D02*
D03*
Y518898D02*
D03*
Y522047D02*
D03*
Y525197D02*
D03*
Y528346D02*
D03*
Y531496D02*
D03*
Y534646D02*
D03*
Y537795D02*
D03*
Y540945D02*
D03*
Y544095D02*
D03*
Y547244D02*
D03*
Y550394D02*
D03*
Y553543D02*
D03*
Y556693D02*
D03*
Y559842D02*
D03*
Y562992D02*
D03*
Y566142D02*
D03*
Y569291D02*
D03*
Y572441D02*
D03*
X294488Y506299D02*
D03*
Y509449D02*
D03*
Y512598D02*
D03*
Y515748D02*
D03*
Y518898D02*
D03*
Y522047D02*
D03*
Y525197D02*
D03*
Y528346D02*
D03*
Y531496D02*
D03*
Y534646D02*
D03*
Y537795D02*
D03*
Y540945D02*
D03*
Y544095D02*
D03*
Y547244D02*
D03*
Y550394D02*
D03*
Y553543D02*
D03*
Y556693D02*
D03*
Y559842D02*
D03*
Y562992D02*
D03*
Y566142D02*
D03*
Y569291D02*
D03*
Y572441D02*
D03*
X297638Y506299D02*
D03*
Y509449D02*
D03*
Y512598D02*
D03*
Y515748D02*
D03*
Y518898D02*
D03*
Y522047D02*
D03*
Y525197D02*
D03*
Y528346D02*
D03*
Y531496D02*
D03*
Y534646D02*
D03*
Y537795D02*
D03*
Y540945D02*
D03*
Y544095D02*
D03*
Y547244D02*
D03*
Y550394D02*
D03*
Y553543D02*
D03*
Y556693D02*
D03*
Y559842D02*
D03*
Y562992D02*
D03*
Y566142D02*
D03*
Y569291D02*
D03*
Y572441D02*
D03*
X300787Y506299D02*
D03*
Y509449D02*
D03*
Y512598D02*
D03*
Y515748D02*
D03*
Y518898D02*
D03*
Y522047D02*
D03*
Y525197D02*
D03*
Y528346D02*
D03*
Y531496D02*
D03*
Y534646D02*
D03*
Y537795D02*
D03*
Y540945D02*
D03*
Y544095D02*
D03*
Y547244D02*
D03*
Y550394D02*
D03*
Y553543D02*
D03*
Y556693D02*
D03*
Y559842D02*
D03*
Y562992D02*
D03*
Y566142D02*
D03*
Y569291D02*
D03*
Y572441D02*
D03*
X303937Y506299D02*
D03*
Y509449D02*
D03*
Y512598D02*
D03*
Y515748D02*
D03*
Y518898D02*
D03*
Y522047D02*
D03*
Y525197D02*
D03*
Y528346D02*
D03*
Y531496D02*
D03*
Y534646D02*
D03*
Y537795D02*
D03*
Y540945D02*
D03*
Y544095D02*
D03*
Y547244D02*
D03*
Y550394D02*
D03*
Y553543D02*
D03*
Y556693D02*
D03*
Y559842D02*
D03*
Y562992D02*
D03*
Y566142D02*
D03*
Y569291D02*
D03*
Y572441D02*
D03*
X307087Y506299D02*
D03*
Y509449D02*
D03*
Y512598D02*
D03*
Y515748D02*
D03*
Y518898D02*
D03*
Y522047D02*
D03*
Y525197D02*
D03*
Y528346D02*
D03*
Y531496D02*
D03*
Y534646D02*
D03*
Y537795D02*
D03*
Y540945D02*
D03*
Y544095D02*
D03*
Y547244D02*
D03*
Y550394D02*
D03*
Y553543D02*
D03*
Y556693D02*
D03*
Y559842D02*
D03*
Y562992D02*
D03*
Y566142D02*
D03*
Y569291D02*
D03*
Y572441D02*
D03*
X310236Y506299D02*
D03*
Y509449D02*
D03*
Y512598D02*
D03*
Y515748D02*
D03*
Y518898D02*
D03*
Y522047D02*
D03*
Y525197D02*
D03*
Y528346D02*
D03*
Y531496D02*
D03*
Y534646D02*
D03*
Y537795D02*
D03*
Y540945D02*
D03*
Y544095D02*
D03*
Y547244D02*
D03*
Y550394D02*
D03*
Y553543D02*
D03*
Y556693D02*
D03*
Y559842D02*
D03*
Y562992D02*
D03*
Y566142D02*
D03*
Y569291D02*
D03*
Y572441D02*
D03*
X313386Y506299D02*
D03*
Y509449D02*
D03*
Y512598D02*
D03*
Y515748D02*
D03*
Y518898D02*
D03*
Y522047D02*
D03*
Y525197D02*
D03*
Y528346D02*
D03*
Y531496D02*
D03*
Y534646D02*
D03*
Y537795D02*
D03*
Y540945D02*
D03*
Y544095D02*
D03*
Y547244D02*
D03*
Y550394D02*
D03*
Y553543D02*
D03*
Y556693D02*
D03*
Y559842D02*
D03*
Y562992D02*
D03*
Y566142D02*
D03*
Y569291D02*
D03*
Y572441D02*
D03*
X316535Y506299D02*
D03*
Y509449D02*
D03*
Y512598D02*
D03*
Y515748D02*
D03*
Y518898D02*
D03*
Y522047D02*
D03*
Y525197D02*
D03*
Y528346D02*
D03*
Y531496D02*
D03*
Y534646D02*
D03*
Y537795D02*
D03*
Y540945D02*
D03*
Y544095D02*
D03*
Y547244D02*
D03*
Y550394D02*
D03*
Y553543D02*
D03*
Y556693D02*
D03*
Y559842D02*
D03*
Y562992D02*
D03*
Y566142D02*
D03*
Y569291D02*
D03*
Y572441D02*
D03*
X319685Y506299D02*
D03*
Y509449D02*
D03*
Y512598D02*
D03*
Y515748D02*
D03*
Y518898D02*
D03*
Y522047D02*
D03*
Y525197D02*
D03*
Y528346D02*
D03*
Y531496D02*
D03*
Y534646D02*
D03*
Y537795D02*
D03*
Y540945D02*
D03*
Y544095D02*
D03*
Y547244D02*
D03*
Y550394D02*
D03*
Y553543D02*
D03*
Y556693D02*
D03*
Y559842D02*
D03*
Y562992D02*
D03*
Y566142D02*
D03*
Y569291D02*
D03*
Y572441D02*
D03*
X322835Y506299D02*
D03*
Y509449D02*
D03*
Y512598D02*
D03*
Y515748D02*
D03*
Y518898D02*
D03*
Y522047D02*
D03*
Y525197D02*
D03*
Y528346D02*
D03*
Y531496D02*
D03*
Y534646D02*
D03*
Y537795D02*
D03*
Y540945D02*
D03*
Y544095D02*
D03*
Y547244D02*
D03*
Y550394D02*
D03*
Y553543D02*
D03*
Y556693D02*
D03*
Y559842D02*
D03*
Y562992D02*
D03*
Y566142D02*
D03*
Y569291D02*
D03*
Y572441D02*
D03*
X325984Y506299D02*
D03*
Y509449D02*
D03*
Y512598D02*
D03*
Y515748D02*
D03*
Y518898D02*
D03*
Y522047D02*
D03*
Y525197D02*
D03*
Y528346D02*
D03*
Y531496D02*
D03*
Y534646D02*
D03*
Y537795D02*
D03*
Y540945D02*
D03*
Y544095D02*
D03*
Y547244D02*
D03*
Y550394D02*
D03*
Y553543D02*
D03*
Y556693D02*
D03*
Y559842D02*
D03*
Y562992D02*
D03*
Y566142D02*
D03*
Y569291D02*
D03*
Y572441D02*
D03*
X329134Y506299D02*
D03*
Y509449D02*
D03*
Y512598D02*
D03*
Y515748D02*
D03*
Y518898D02*
D03*
Y522047D02*
D03*
Y525197D02*
D03*
Y528346D02*
D03*
Y531496D02*
D03*
Y534646D02*
D03*
Y537795D02*
D03*
Y540945D02*
D03*
Y544095D02*
D03*
Y547244D02*
D03*
Y550394D02*
D03*
Y553543D02*
D03*
Y556693D02*
D03*
Y559842D02*
D03*
Y562992D02*
D03*
Y566142D02*
D03*
Y569291D02*
D03*
Y572441D02*
D03*
X332283Y506299D02*
D03*
Y509449D02*
D03*
Y512598D02*
D03*
Y515748D02*
D03*
Y518898D02*
D03*
Y522047D02*
D03*
Y525197D02*
D03*
Y528346D02*
D03*
Y531496D02*
D03*
Y534646D02*
D03*
Y537795D02*
D03*
Y540945D02*
D03*
Y544095D02*
D03*
Y547244D02*
D03*
Y550394D02*
D03*
Y553543D02*
D03*
Y556693D02*
D03*
Y559842D02*
D03*
Y562992D02*
D03*
Y566142D02*
D03*
Y569291D02*
D03*
Y572441D02*
D03*
X335433Y506299D02*
D03*
Y509449D02*
D03*
Y512598D02*
D03*
Y515748D02*
D03*
Y518898D02*
D03*
Y522047D02*
D03*
Y525197D02*
D03*
Y528346D02*
D03*
Y531496D02*
D03*
Y534646D02*
D03*
Y537795D02*
D03*
Y540945D02*
D03*
Y544095D02*
D03*
Y547244D02*
D03*
Y550394D02*
D03*
Y553543D02*
D03*
Y556693D02*
D03*
Y559842D02*
D03*
Y562992D02*
D03*
Y566142D02*
D03*
Y569291D02*
D03*
Y572441D02*
D03*
X338583Y506299D02*
D03*
Y509449D02*
D03*
Y512598D02*
D03*
Y515748D02*
D03*
Y518898D02*
D03*
Y522047D02*
D03*
Y525197D02*
D03*
Y528346D02*
D03*
Y531496D02*
D03*
Y534646D02*
D03*
Y537795D02*
D03*
Y540945D02*
D03*
Y544095D02*
D03*
Y547244D02*
D03*
Y550394D02*
D03*
Y553543D02*
D03*
Y556693D02*
D03*
Y559842D02*
D03*
Y562992D02*
D03*
Y566142D02*
D03*
Y569291D02*
D03*
Y572441D02*
D03*
X341732Y506299D02*
D03*
Y509449D02*
D03*
Y512598D02*
D03*
Y515748D02*
D03*
Y518898D02*
D03*
Y522047D02*
D03*
Y525197D02*
D03*
Y528346D02*
D03*
Y531496D02*
D03*
Y534646D02*
D03*
Y537795D02*
D03*
Y540945D02*
D03*
Y544095D02*
D03*
Y547244D02*
D03*
Y550394D02*
D03*
Y553543D02*
D03*
Y556693D02*
D03*
Y559842D02*
D03*
Y562992D02*
D03*
Y566142D02*
D03*
Y569291D02*
D03*
Y572441D02*
D03*
X344882Y506299D02*
D03*
Y509449D02*
D03*
Y512598D02*
D03*
Y515748D02*
D03*
Y518898D02*
D03*
Y522047D02*
D03*
Y525197D02*
D03*
Y528346D02*
D03*
Y531496D02*
D03*
Y534646D02*
D03*
Y537795D02*
D03*
Y540945D02*
D03*
Y544095D02*
D03*
Y547244D02*
D03*
Y550394D02*
D03*
Y553543D02*
D03*
Y556693D02*
D03*
Y559842D02*
D03*
Y562992D02*
D03*
Y566142D02*
D03*
Y569291D02*
D03*
Y572441D02*
D03*
X348031Y509449D02*
D03*
Y512598D02*
D03*
Y515748D02*
D03*
Y518898D02*
D03*
Y522047D02*
D03*
Y525197D02*
D03*
Y528346D02*
D03*
Y531496D02*
D03*
Y534646D02*
D03*
Y537795D02*
D03*
Y540945D02*
D03*
Y544095D02*
D03*
Y547244D02*
D03*
Y550394D02*
D03*
Y553543D02*
D03*
Y556693D02*
D03*
Y559842D02*
D03*
Y562992D02*
D03*
Y566142D02*
D03*
Y569291D02*
D03*
Y372441D02*
D03*
Y369291D02*
D03*
Y366142D02*
D03*
Y362992D02*
D03*
Y359842D02*
D03*
Y356693D02*
D03*
Y353543D02*
D03*
Y350394D02*
D03*
Y347244D02*
D03*
Y344094D02*
D03*
Y340945D02*
D03*
Y337795D02*
D03*
Y334646D02*
D03*
Y331496D02*
D03*
Y328346D02*
D03*
Y325197D02*
D03*
Y322047D02*
D03*
Y318898D02*
D03*
Y315748D02*
D03*
Y312598D02*
D03*
X344882Y375590D02*
D03*
Y372441D02*
D03*
Y369291D02*
D03*
Y366142D02*
D03*
Y362992D02*
D03*
Y359842D02*
D03*
Y356693D02*
D03*
Y353543D02*
D03*
Y350394D02*
D03*
Y347244D02*
D03*
Y344094D02*
D03*
Y340945D02*
D03*
Y337795D02*
D03*
Y334646D02*
D03*
Y331496D02*
D03*
Y328346D02*
D03*
Y325197D02*
D03*
Y322047D02*
D03*
Y318898D02*
D03*
Y315748D02*
D03*
Y312598D02*
D03*
Y309449D02*
D03*
X341732Y375590D02*
D03*
Y372441D02*
D03*
Y369291D02*
D03*
Y366142D02*
D03*
Y362992D02*
D03*
Y359842D02*
D03*
Y356693D02*
D03*
Y353543D02*
D03*
Y350394D02*
D03*
Y347244D02*
D03*
Y344094D02*
D03*
Y340945D02*
D03*
Y337795D02*
D03*
Y334646D02*
D03*
Y331496D02*
D03*
Y328346D02*
D03*
Y325197D02*
D03*
Y322047D02*
D03*
Y318898D02*
D03*
Y315748D02*
D03*
Y312598D02*
D03*
Y309449D02*
D03*
X338583Y375590D02*
D03*
Y372441D02*
D03*
Y369291D02*
D03*
Y366142D02*
D03*
Y362992D02*
D03*
Y359842D02*
D03*
Y356693D02*
D03*
Y353543D02*
D03*
Y350394D02*
D03*
Y347244D02*
D03*
Y344094D02*
D03*
Y340945D02*
D03*
Y337795D02*
D03*
Y334646D02*
D03*
Y331496D02*
D03*
Y328346D02*
D03*
Y325197D02*
D03*
Y322047D02*
D03*
Y318898D02*
D03*
Y315748D02*
D03*
Y312598D02*
D03*
Y309449D02*
D03*
X335433Y375590D02*
D03*
Y372441D02*
D03*
Y369291D02*
D03*
Y366142D02*
D03*
Y362992D02*
D03*
Y359842D02*
D03*
Y356693D02*
D03*
Y353543D02*
D03*
Y350394D02*
D03*
Y347244D02*
D03*
Y344094D02*
D03*
Y340945D02*
D03*
Y337795D02*
D03*
Y334646D02*
D03*
Y331496D02*
D03*
Y328346D02*
D03*
Y325197D02*
D03*
Y322047D02*
D03*
Y318898D02*
D03*
Y315748D02*
D03*
Y312598D02*
D03*
Y309449D02*
D03*
X332283Y375590D02*
D03*
Y372441D02*
D03*
Y369291D02*
D03*
Y366142D02*
D03*
Y362992D02*
D03*
Y359842D02*
D03*
Y356693D02*
D03*
Y353543D02*
D03*
Y350394D02*
D03*
Y347244D02*
D03*
Y344094D02*
D03*
Y340945D02*
D03*
Y337795D02*
D03*
Y334646D02*
D03*
Y331496D02*
D03*
Y328346D02*
D03*
Y325197D02*
D03*
Y322047D02*
D03*
Y318898D02*
D03*
Y315748D02*
D03*
Y312598D02*
D03*
Y309449D02*
D03*
X329134Y375590D02*
D03*
Y372441D02*
D03*
Y369291D02*
D03*
Y366142D02*
D03*
Y362992D02*
D03*
Y359842D02*
D03*
Y356693D02*
D03*
Y353543D02*
D03*
Y350394D02*
D03*
Y347244D02*
D03*
Y344094D02*
D03*
Y340945D02*
D03*
Y337795D02*
D03*
Y334646D02*
D03*
Y331496D02*
D03*
Y328346D02*
D03*
Y325197D02*
D03*
Y322047D02*
D03*
Y318898D02*
D03*
Y315748D02*
D03*
Y312598D02*
D03*
Y309449D02*
D03*
X325984Y375590D02*
D03*
Y372441D02*
D03*
Y369291D02*
D03*
Y366142D02*
D03*
Y362992D02*
D03*
Y359842D02*
D03*
Y356693D02*
D03*
Y353543D02*
D03*
Y350394D02*
D03*
Y347244D02*
D03*
Y344094D02*
D03*
Y340945D02*
D03*
Y337795D02*
D03*
Y334646D02*
D03*
Y331496D02*
D03*
Y328346D02*
D03*
Y325197D02*
D03*
Y322047D02*
D03*
Y318898D02*
D03*
Y315748D02*
D03*
Y312598D02*
D03*
Y309449D02*
D03*
X322835Y375590D02*
D03*
Y372441D02*
D03*
Y369291D02*
D03*
Y366142D02*
D03*
Y362992D02*
D03*
Y359842D02*
D03*
Y356693D02*
D03*
Y353543D02*
D03*
Y350394D02*
D03*
Y347244D02*
D03*
Y344094D02*
D03*
Y340945D02*
D03*
Y337795D02*
D03*
Y334646D02*
D03*
Y331496D02*
D03*
Y328346D02*
D03*
Y325197D02*
D03*
Y322047D02*
D03*
Y318898D02*
D03*
Y315748D02*
D03*
Y312598D02*
D03*
Y309449D02*
D03*
X319685Y375590D02*
D03*
Y372441D02*
D03*
Y369291D02*
D03*
Y366142D02*
D03*
Y362992D02*
D03*
Y359842D02*
D03*
Y356693D02*
D03*
Y353543D02*
D03*
Y350394D02*
D03*
Y347244D02*
D03*
Y344094D02*
D03*
Y340945D02*
D03*
Y337795D02*
D03*
Y334646D02*
D03*
Y331496D02*
D03*
Y328346D02*
D03*
Y325197D02*
D03*
Y322047D02*
D03*
Y318898D02*
D03*
Y315748D02*
D03*
Y312598D02*
D03*
Y309449D02*
D03*
X316535Y375590D02*
D03*
Y372441D02*
D03*
Y369291D02*
D03*
Y366142D02*
D03*
Y362992D02*
D03*
Y359842D02*
D03*
Y356693D02*
D03*
Y353543D02*
D03*
Y350394D02*
D03*
Y347244D02*
D03*
Y344094D02*
D03*
Y340945D02*
D03*
Y337795D02*
D03*
Y334646D02*
D03*
Y331496D02*
D03*
Y328346D02*
D03*
Y325197D02*
D03*
Y322047D02*
D03*
Y318898D02*
D03*
Y315748D02*
D03*
Y312598D02*
D03*
Y309449D02*
D03*
X313386Y375590D02*
D03*
Y372441D02*
D03*
Y369291D02*
D03*
Y366142D02*
D03*
Y362992D02*
D03*
Y359842D02*
D03*
Y356693D02*
D03*
Y353543D02*
D03*
Y350394D02*
D03*
Y347244D02*
D03*
Y344094D02*
D03*
Y340945D02*
D03*
Y337795D02*
D03*
Y334646D02*
D03*
Y331496D02*
D03*
Y328346D02*
D03*
Y325197D02*
D03*
Y322047D02*
D03*
Y318898D02*
D03*
Y315748D02*
D03*
Y312598D02*
D03*
Y309449D02*
D03*
X310236Y375590D02*
D03*
Y372441D02*
D03*
Y369291D02*
D03*
Y366142D02*
D03*
Y362992D02*
D03*
Y359842D02*
D03*
Y356693D02*
D03*
Y353543D02*
D03*
Y350394D02*
D03*
Y347244D02*
D03*
Y344094D02*
D03*
Y340945D02*
D03*
Y337795D02*
D03*
Y334646D02*
D03*
Y331496D02*
D03*
Y328346D02*
D03*
Y325197D02*
D03*
Y322047D02*
D03*
Y318898D02*
D03*
Y315748D02*
D03*
Y312598D02*
D03*
Y309449D02*
D03*
X307087Y375590D02*
D03*
Y372441D02*
D03*
Y369291D02*
D03*
Y366142D02*
D03*
Y362992D02*
D03*
Y359842D02*
D03*
Y356693D02*
D03*
Y353543D02*
D03*
Y350394D02*
D03*
Y347244D02*
D03*
Y344094D02*
D03*
Y340945D02*
D03*
Y337795D02*
D03*
Y334646D02*
D03*
Y331496D02*
D03*
Y328346D02*
D03*
Y325197D02*
D03*
Y322047D02*
D03*
Y318898D02*
D03*
Y315748D02*
D03*
Y312598D02*
D03*
Y309449D02*
D03*
X303937Y375590D02*
D03*
Y372441D02*
D03*
Y369291D02*
D03*
Y366142D02*
D03*
Y362992D02*
D03*
Y359842D02*
D03*
Y356693D02*
D03*
Y353543D02*
D03*
Y350394D02*
D03*
Y347244D02*
D03*
Y344094D02*
D03*
Y340945D02*
D03*
Y337795D02*
D03*
Y334646D02*
D03*
Y331496D02*
D03*
Y328346D02*
D03*
Y325197D02*
D03*
Y322047D02*
D03*
Y318898D02*
D03*
Y315748D02*
D03*
Y312598D02*
D03*
Y309449D02*
D03*
X300787Y375590D02*
D03*
Y372441D02*
D03*
Y369291D02*
D03*
Y366142D02*
D03*
Y362992D02*
D03*
Y359842D02*
D03*
Y356693D02*
D03*
Y353543D02*
D03*
Y350394D02*
D03*
Y347244D02*
D03*
Y344094D02*
D03*
Y340945D02*
D03*
Y337795D02*
D03*
Y334646D02*
D03*
Y331496D02*
D03*
Y328346D02*
D03*
Y325197D02*
D03*
Y322047D02*
D03*
Y318898D02*
D03*
Y315748D02*
D03*
Y312598D02*
D03*
Y309449D02*
D03*
X297638Y375590D02*
D03*
Y372441D02*
D03*
Y369291D02*
D03*
Y366142D02*
D03*
Y362992D02*
D03*
Y359842D02*
D03*
Y356693D02*
D03*
Y353543D02*
D03*
Y350394D02*
D03*
Y347244D02*
D03*
Y344094D02*
D03*
Y340945D02*
D03*
Y337795D02*
D03*
Y334646D02*
D03*
Y331496D02*
D03*
Y328346D02*
D03*
Y325197D02*
D03*
Y322047D02*
D03*
Y318898D02*
D03*
Y315748D02*
D03*
Y312598D02*
D03*
Y309449D02*
D03*
X294488Y375590D02*
D03*
Y372441D02*
D03*
Y369291D02*
D03*
Y366142D02*
D03*
Y362992D02*
D03*
Y359842D02*
D03*
Y356693D02*
D03*
Y353543D02*
D03*
Y350394D02*
D03*
Y347244D02*
D03*
Y344094D02*
D03*
Y340945D02*
D03*
Y337795D02*
D03*
Y334646D02*
D03*
Y331496D02*
D03*
Y328346D02*
D03*
Y325197D02*
D03*
Y322047D02*
D03*
Y318898D02*
D03*
Y315748D02*
D03*
Y312598D02*
D03*
Y309449D02*
D03*
X291339Y375590D02*
D03*
Y372441D02*
D03*
Y369291D02*
D03*
Y366142D02*
D03*
Y362992D02*
D03*
Y359842D02*
D03*
Y356693D02*
D03*
Y353543D02*
D03*
Y350394D02*
D03*
Y347244D02*
D03*
Y344094D02*
D03*
Y340945D02*
D03*
Y337795D02*
D03*
Y334646D02*
D03*
Y331496D02*
D03*
Y328346D02*
D03*
Y325197D02*
D03*
Y322047D02*
D03*
Y318898D02*
D03*
Y315748D02*
D03*
Y312598D02*
D03*
Y309449D02*
D03*
X288189Y375590D02*
D03*
Y372441D02*
D03*
Y369291D02*
D03*
Y366142D02*
D03*
Y362992D02*
D03*
Y359842D02*
D03*
Y356693D02*
D03*
Y353543D02*
D03*
Y350394D02*
D03*
Y347244D02*
D03*
Y344094D02*
D03*
Y340945D02*
D03*
Y337795D02*
D03*
Y334646D02*
D03*
Y331496D02*
D03*
Y328346D02*
D03*
Y325197D02*
D03*
Y322047D02*
D03*
Y318898D02*
D03*
Y315748D02*
D03*
Y312598D02*
D03*
Y309449D02*
D03*
X285039Y375590D02*
D03*
Y372441D02*
D03*
Y369291D02*
D03*
Y366142D02*
D03*
Y362992D02*
D03*
Y359842D02*
D03*
Y356693D02*
D03*
Y353543D02*
D03*
Y350394D02*
D03*
Y347244D02*
D03*
Y344094D02*
D03*
Y340945D02*
D03*
Y337795D02*
D03*
Y334646D02*
D03*
Y331496D02*
D03*
Y328346D02*
D03*
Y325197D02*
D03*
Y322047D02*
D03*
Y318898D02*
D03*
Y315748D02*
D03*
Y312598D02*
D03*
Y309449D02*
D03*
X281890Y372441D02*
D03*
Y369291D02*
D03*
Y366142D02*
D03*
Y362992D02*
D03*
Y359842D02*
D03*
Y356693D02*
D03*
Y353543D02*
D03*
Y350394D02*
D03*
Y347244D02*
D03*
Y344094D02*
D03*
Y340945D02*
D03*
Y337795D02*
D03*
Y334646D02*
D03*
Y331496D02*
D03*
Y328346D02*
D03*
Y325197D02*
D03*
Y322047D02*
D03*
Y318898D02*
D03*
Y315748D02*
D03*
Y312598D02*
D03*
X151181Y372441D02*
D03*
Y369291D02*
D03*
Y366142D02*
D03*
Y362992D02*
D03*
Y359842D02*
D03*
Y356693D02*
D03*
Y353543D02*
D03*
Y350394D02*
D03*
Y347244D02*
D03*
Y344094D02*
D03*
Y340945D02*
D03*
Y337795D02*
D03*
Y334646D02*
D03*
Y331496D02*
D03*
Y328346D02*
D03*
Y325197D02*
D03*
Y322047D02*
D03*
Y318898D02*
D03*
Y315748D02*
D03*
Y312598D02*
D03*
X148031Y375590D02*
D03*
Y372441D02*
D03*
Y369291D02*
D03*
Y366142D02*
D03*
Y362992D02*
D03*
Y359842D02*
D03*
Y356693D02*
D03*
Y353543D02*
D03*
Y350394D02*
D03*
Y347244D02*
D03*
Y344094D02*
D03*
Y340945D02*
D03*
Y337795D02*
D03*
Y334646D02*
D03*
Y331496D02*
D03*
Y328346D02*
D03*
Y325197D02*
D03*
Y322047D02*
D03*
Y318898D02*
D03*
Y315748D02*
D03*
Y312598D02*
D03*
Y309449D02*
D03*
X144882Y375590D02*
D03*
Y372441D02*
D03*
Y369291D02*
D03*
Y366142D02*
D03*
Y362992D02*
D03*
Y359842D02*
D03*
Y356693D02*
D03*
Y353543D02*
D03*
Y350394D02*
D03*
Y347244D02*
D03*
Y344094D02*
D03*
Y340945D02*
D03*
Y337795D02*
D03*
Y334646D02*
D03*
Y331496D02*
D03*
Y328346D02*
D03*
Y325197D02*
D03*
Y322047D02*
D03*
Y318898D02*
D03*
Y315748D02*
D03*
Y312598D02*
D03*
Y309449D02*
D03*
X141732Y375590D02*
D03*
Y372441D02*
D03*
Y369291D02*
D03*
Y366142D02*
D03*
Y362992D02*
D03*
Y359842D02*
D03*
Y356693D02*
D03*
Y353543D02*
D03*
Y350394D02*
D03*
Y347244D02*
D03*
Y344094D02*
D03*
Y340945D02*
D03*
Y337795D02*
D03*
Y334646D02*
D03*
Y331496D02*
D03*
Y328346D02*
D03*
Y325197D02*
D03*
Y322047D02*
D03*
Y318898D02*
D03*
Y315748D02*
D03*
Y312598D02*
D03*
Y309449D02*
D03*
X138583Y375590D02*
D03*
Y372441D02*
D03*
Y369291D02*
D03*
Y366142D02*
D03*
Y362992D02*
D03*
Y359842D02*
D03*
Y356693D02*
D03*
Y353543D02*
D03*
Y350394D02*
D03*
Y347244D02*
D03*
Y344094D02*
D03*
Y340945D02*
D03*
Y337795D02*
D03*
Y334646D02*
D03*
Y331496D02*
D03*
Y328346D02*
D03*
Y325197D02*
D03*
Y322047D02*
D03*
Y318898D02*
D03*
Y315748D02*
D03*
Y312598D02*
D03*
Y309449D02*
D03*
X135433Y375590D02*
D03*
Y372441D02*
D03*
Y369291D02*
D03*
Y366142D02*
D03*
Y362992D02*
D03*
Y359842D02*
D03*
Y356693D02*
D03*
Y353543D02*
D03*
Y350394D02*
D03*
Y347244D02*
D03*
Y344094D02*
D03*
Y340945D02*
D03*
Y337795D02*
D03*
Y334646D02*
D03*
Y331496D02*
D03*
Y328346D02*
D03*
Y325197D02*
D03*
Y322047D02*
D03*
Y318898D02*
D03*
Y315748D02*
D03*
Y312598D02*
D03*
Y309449D02*
D03*
X132283Y375590D02*
D03*
Y372441D02*
D03*
Y369291D02*
D03*
Y366142D02*
D03*
Y362992D02*
D03*
Y359842D02*
D03*
Y356693D02*
D03*
Y353543D02*
D03*
Y350394D02*
D03*
Y347244D02*
D03*
Y344094D02*
D03*
Y340945D02*
D03*
Y337795D02*
D03*
Y334646D02*
D03*
Y331496D02*
D03*
Y328346D02*
D03*
Y325197D02*
D03*
Y322047D02*
D03*
Y318898D02*
D03*
Y315748D02*
D03*
Y312598D02*
D03*
Y309449D02*
D03*
X129134Y375590D02*
D03*
Y372441D02*
D03*
Y369291D02*
D03*
Y366142D02*
D03*
Y362992D02*
D03*
Y359842D02*
D03*
Y356693D02*
D03*
Y353543D02*
D03*
Y350394D02*
D03*
Y347244D02*
D03*
Y344094D02*
D03*
Y340945D02*
D03*
Y337795D02*
D03*
Y334646D02*
D03*
Y331496D02*
D03*
Y328346D02*
D03*
Y325197D02*
D03*
Y322047D02*
D03*
Y318898D02*
D03*
Y315748D02*
D03*
Y312598D02*
D03*
Y309449D02*
D03*
X125984Y375590D02*
D03*
Y372441D02*
D03*
Y369291D02*
D03*
Y366142D02*
D03*
Y362992D02*
D03*
Y359842D02*
D03*
Y356693D02*
D03*
Y353543D02*
D03*
Y350394D02*
D03*
Y347244D02*
D03*
Y344094D02*
D03*
Y340945D02*
D03*
Y337795D02*
D03*
Y334646D02*
D03*
Y331496D02*
D03*
Y328346D02*
D03*
Y325197D02*
D03*
Y322047D02*
D03*
Y318898D02*
D03*
Y315748D02*
D03*
Y312598D02*
D03*
Y309449D02*
D03*
X122835Y375590D02*
D03*
Y372441D02*
D03*
Y369291D02*
D03*
Y366142D02*
D03*
Y362992D02*
D03*
Y359842D02*
D03*
Y356693D02*
D03*
Y353543D02*
D03*
Y350394D02*
D03*
Y347244D02*
D03*
Y344094D02*
D03*
Y340945D02*
D03*
Y337795D02*
D03*
Y334646D02*
D03*
Y331496D02*
D03*
Y328346D02*
D03*
Y325197D02*
D03*
Y322047D02*
D03*
Y318898D02*
D03*
Y315748D02*
D03*
Y312598D02*
D03*
Y309449D02*
D03*
X119685Y375590D02*
D03*
Y372441D02*
D03*
Y369291D02*
D03*
Y366142D02*
D03*
Y362992D02*
D03*
Y359842D02*
D03*
Y356693D02*
D03*
Y353543D02*
D03*
Y350394D02*
D03*
Y347244D02*
D03*
Y344094D02*
D03*
Y340945D02*
D03*
Y337795D02*
D03*
Y334646D02*
D03*
Y331496D02*
D03*
Y328346D02*
D03*
Y325197D02*
D03*
Y322047D02*
D03*
Y318898D02*
D03*
Y315748D02*
D03*
Y312598D02*
D03*
Y309449D02*
D03*
X116535Y375590D02*
D03*
Y372441D02*
D03*
Y369291D02*
D03*
Y366142D02*
D03*
Y362992D02*
D03*
Y359842D02*
D03*
Y356693D02*
D03*
Y353543D02*
D03*
Y350394D02*
D03*
Y347244D02*
D03*
Y344094D02*
D03*
Y340945D02*
D03*
Y337795D02*
D03*
Y334646D02*
D03*
Y331496D02*
D03*
Y328346D02*
D03*
Y325197D02*
D03*
Y322047D02*
D03*
Y318898D02*
D03*
Y315748D02*
D03*
Y312598D02*
D03*
Y309449D02*
D03*
X113386Y375590D02*
D03*
Y372441D02*
D03*
Y369291D02*
D03*
Y366142D02*
D03*
Y362992D02*
D03*
Y359842D02*
D03*
Y356693D02*
D03*
Y353543D02*
D03*
Y350394D02*
D03*
Y347244D02*
D03*
Y344094D02*
D03*
Y340945D02*
D03*
Y337795D02*
D03*
Y334646D02*
D03*
Y331496D02*
D03*
Y328346D02*
D03*
Y325197D02*
D03*
Y322047D02*
D03*
Y318898D02*
D03*
Y315748D02*
D03*
Y312598D02*
D03*
Y309449D02*
D03*
X110236Y375590D02*
D03*
Y372441D02*
D03*
Y369291D02*
D03*
Y366142D02*
D03*
Y362992D02*
D03*
Y359842D02*
D03*
Y356693D02*
D03*
Y353543D02*
D03*
Y350394D02*
D03*
Y347244D02*
D03*
Y344094D02*
D03*
Y340945D02*
D03*
Y337795D02*
D03*
Y334646D02*
D03*
Y331496D02*
D03*
Y328346D02*
D03*
Y325197D02*
D03*
Y322047D02*
D03*
Y318898D02*
D03*
Y315748D02*
D03*
Y312598D02*
D03*
Y309449D02*
D03*
X107087Y375590D02*
D03*
Y372441D02*
D03*
Y369291D02*
D03*
Y366142D02*
D03*
Y362992D02*
D03*
Y359842D02*
D03*
Y356693D02*
D03*
Y353543D02*
D03*
Y350394D02*
D03*
Y347244D02*
D03*
Y344094D02*
D03*
Y340945D02*
D03*
Y337795D02*
D03*
Y334646D02*
D03*
Y331496D02*
D03*
Y328346D02*
D03*
Y325197D02*
D03*
Y322047D02*
D03*
Y318898D02*
D03*
Y315748D02*
D03*
Y312598D02*
D03*
Y309449D02*
D03*
X103937Y375590D02*
D03*
Y372441D02*
D03*
Y369291D02*
D03*
Y366142D02*
D03*
Y362992D02*
D03*
Y359842D02*
D03*
Y356693D02*
D03*
Y353543D02*
D03*
Y350394D02*
D03*
Y347244D02*
D03*
Y344094D02*
D03*
Y340945D02*
D03*
Y337795D02*
D03*
Y334646D02*
D03*
Y331496D02*
D03*
Y328346D02*
D03*
Y325197D02*
D03*
Y322047D02*
D03*
Y318898D02*
D03*
Y315748D02*
D03*
Y312598D02*
D03*
Y309449D02*
D03*
X100787Y375590D02*
D03*
Y372441D02*
D03*
Y369291D02*
D03*
Y366142D02*
D03*
Y362992D02*
D03*
Y359842D02*
D03*
Y356693D02*
D03*
Y353543D02*
D03*
Y350394D02*
D03*
Y347244D02*
D03*
Y344094D02*
D03*
Y340945D02*
D03*
Y337795D02*
D03*
Y334646D02*
D03*
Y331496D02*
D03*
Y328346D02*
D03*
Y325197D02*
D03*
Y322047D02*
D03*
Y318898D02*
D03*
Y315748D02*
D03*
Y312598D02*
D03*
Y309449D02*
D03*
X97638Y375590D02*
D03*
Y372441D02*
D03*
Y369291D02*
D03*
Y366142D02*
D03*
Y362992D02*
D03*
Y359842D02*
D03*
Y356693D02*
D03*
Y353543D02*
D03*
Y350394D02*
D03*
Y347244D02*
D03*
Y344094D02*
D03*
Y340945D02*
D03*
Y337795D02*
D03*
Y334646D02*
D03*
Y331496D02*
D03*
Y328346D02*
D03*
Y325197D02*
D03*
Y322047D02*
D03*
Y318898D02*
D03*
Y315748D02*
D03*
Y312598D02*
D03*
Y309449D02*
D03*
X94488Y375590D02*
D03*
Y372441D02*
D03*
Y369291D02*
D03*
Y366142D02*
D03*
Y362992D02*
D03*
Y359842D02*
D03*
Y356693D02*
D03*
Y353543D02*
D03*
Y350394D02*
D03*
Y347244D02*
D03*
Y344094D02*
D03*
Y340945D02*
D03*
Y337795D02*
D03*
Y334646D02*
D03*
Y331496D02*
D03*
Y328346D02*
D03*
Y325197D02*
D03*
Y322047D02*
D03*
Y318898D02*
D03*
Y315748D02*
D03*
Y312598D02*
D03*
Y309449D02*
D03*
X91339Y375590D02*
D03*
Y372441D02*
D03*
Y369291D02*
D03*
Y366142D02*
D03*
Y362992D02*
D03*
Y359842D02*
D03*
Y356693D02*
D03*
Y353543D02*
D03*
Y350394D02*
D03*
Y347244D02*
D03*
Y344094D02*
D03*
Y340945D02*
D03*
Y337795D02*
D03*
Y334646D02*
D03*
Y331496D02*
D03*
Y328346D02*
D03*
Y325197D02*
D03*
Y322047D02*
D03*
Y318898D02*
D03*
Y315748D02*
D03*
Y312598D02*
D03*
Y309449D02*
D03*
X88189Y375590D02*
D03*
Y372441D02*
D03*
Y369291D02*
D03*
Y366142D02*
D03*
Y362992D02*
D03*
Y359842D02*
D03*
Y356693D02*
D03*
Y353543D02*
D03*
Y350394D02*
D03*
Y347244D02*
D03*
Y344094D02*
D03*
Y340945D02*
D03*
Y337795D02*
D03*
Y334646D02*
D03*
Y331496D02*
D03*
Y328346D02*
D03*
Y325197D02*
D03*
Y322047D02*
D03*
Y318898D02*
D03*
Y315748D02*
D03*
Y312598D02*
D03*
Y309449D02*
D03*
X85039Y372441D02*
D03*
Y369291D02*
D03*
Y366142D02*
D03*
Y362992D02*
D03*
Y359842D02*
D03*
Y356693D02*
D03*
Y353543D02*
D03*
Y350394D02*
D03*
Y347244D02*
D03*
Y344094D02*
D03*
Y340945D02*
D03*
Y337795D02*
D03*
Y334646D02*
D03*
Y331496D02*
D03*
Y328346D02*
D03*
Y325197D02*
D03*
Y322047D02*
D03*
Y318898D02*
D03*
Y315748D02*
D03*
Y312598D02*
D03*
Y509449D02*
D03*
Y512598D02*
D03*
Y515748D02*
D03*
Y518898D02*
D03*
Y522047D02*
D03*
Y525197D02*
D03*
Y528346D02*
D03*
Y531496D02*
D03*
Y534646D02*
D03*
Y537795D02*
D03*
Y540945D02*
D03*
Y544095D02*
D03*
Y547244D02*
D03*
Y550394D02*
D03*
Y553543D02*
D03*
Y556693D02*
D03*
Y559842D02*
D03*
Y562992D02*
D03*
Y566142D02*
D03*
Y569291D02*
D03*
X88189Y506299D02*
D03*
Y509449D02*
D03*
Y512598D02*
D03*
Y515748D02*
D03*
Y518898D02*
D03*
Y522047D02*
D03*
Y525197D02*
D03*
Y528346D02*
D03*
Y531496D02*
D03*
Y534646D02*
D03*
Y537795D02*
D03*
Y540945D02*
D03*
Y544095D02*
D03*
Y547244D02*
D03*
Y550394D02*
D03*
Y553543D02*
D03*
Y556693D02*
D03*
Y559842D02*
D03*
Y562992D02*
D03*
Y566142D02*
D03*
Y569291D02*
D03*
Y572441D02*
D03*
X91339Y506299D02*
D03*
Y509449D02*
D03*
Y512598D02*
D03*
Y515748D02*
D03*
Y518898D02*
D03*
Y522047D02*
D03*
Y525197D02*
D03*
Y528346D02*
D03*
Y531496D02*
D03*
Y534646D02*
D03*
Y537795D02*
D03*
Y540945D02*
D03*
Y544095D02*
D03*
Y547244D02*
D03*
Y550394D02*
D03*
Y553543D02*
D03*
Y556693D02*
D03*
Y559842D02*
D03*
Y562992D02*
D03*
Y566142D02*
D03*
Y569291D02*
D03*
Y572441D02*
D03*
X94488Y506299D02*
D03*
Y509449D02*
D03*
Y512598D02*
D03*
Y515748D02*
D03*
Y518898D02*
D03*
Y522047D02*
D03*
Y525197D02*
D03*
Y528346D02*
D03*
Y531496D02*
D03*
Y534646D02*
D03*
Y537795D02*
D03*
Y540945D02*
D03*
Y544095D02*
D03*
Y547244D02*
D03*
Y550394D02*
D03*
Y553543D02*
D03*
Y556693D02*
D03*
Y559842D02*
D03*
Y562992D02*
D03*
Y566142D02*
D03*
Y569291D02*
D03*
Y572441D02*
D03*
X97638Y506299D02*
D03*
Y509449D02*
D03*
Y512598D02*
D03*
Y515748D02*
D03*
Y518898D02*
D03*
Y522047D02*
D03*
Y525197D02*
D03*
Y528346D02*
D03*
Y531496D02*
D03*
Y534646D02*
D03*
Y537795D02*
D03*
Y540945D02*
D03*
Y544095D02*
D03*
Y547244D02*
D03*
Y550394D02*
D03*
Y553543D02*
D03*
Y556693D02*
D03*
Y559842D02*
D03*
Y562992D02*
D03*
Y566142D02*
D03*
Y569291D02*
D03*
Y572441D02*
D03*
X100787Y506299D02*
D03*
Y509449D02*
D03*
Y512598D02*
D03*
Y515748D02*
D03*
Y518898D02*
D03*
Y522047D02*
D03*
Y525197D02*
D03*
Y528346D02*
D03*
Y531496D02*
D03*
Y534646D02*
D03*
Y537795D02*
D03*
Y540945D02*
D03*
Y544095D02*
D03*
Y547244D02*
D03*
Y550394D02*
D03*
Y553543D02*
D03*
Y556693D02*
D03*
Y559842D02*
D03*
Y562992D02*
D03*
Y566142D02*
D03*
Y569291D02*
D03*
Y572441D02*
D03*
X103937Y506299D02*
D03*
Y509449D02*
D03*
Y512598D02*
D03*
Y515748D02*
D03*
Y518898D02*
D03*
Y522047D02*
D03*
Y525197D02*
D03*
Y528346D02*
D03*
Y531496D02*
D03*
Y534646D02*
D03*
Y537795D02*
D03*
Y540945D02*
D03*
Y544095D02*
D03*
Y547244D02*
D03*
Y550394D02*
D03*
Y553543D02*
D03*
Y556693D02*
D03*
Y559842D02*
D03*
Y562992D02*
D03*
Y566142D02*
D03*
Y569291D02*
D03*
Y572441D02*
D03*
X107087Y506299D02*
D03*
Y509449D02*
D03*
Y512598D02*
D03*
Y515748D02*
D03*
Y518898D02*
D03*
Y522047D02*
D03*
Y525197D02*
D03*
Y528346D02*
D03*
Y531496D02*
D03*
Y534646D02*
D03*
Y537795D02*
D03*
Y540945D02*
D03*
Y544095D02*
D03*
Y547244D02*
D03*
Y550394D02*
D03*
Y553543D02*
D03*
Y556693D02*
D03*
Y559842D02*
D03*
Y562992D02*
D03*
Y566142D02*
D03*
Y569291D02*
D03*
Y572441D02*
D03*
X110236Y506299D02*
D03*
Y509449D02*
D03*
Y512598D02*
D03*
Y515748D02*
D03*
Y518898D02*
D03*
Y522047D02*
D03*
Y525197D02*
D03*
Y528346D02*
D03*
Y531496D02*
D03*
Y534646D02*
D03*
Y537795D02*
D03*
Y540945D02*
D03*
Y544095D02*
D03*
Y547244D02*
D03*
Y550394D02*
D03*
Y553543D02*
D03*
Y556693D02*
D03*
Y559842D02*
D03*
Y562992D02*
D03*
Y566142D02*
D03*
Y569291D02*
D03*
Y572441D02*
D03*
X113386Y506299D02*
D03*
Y509449D02*
D03*
Y512598D02*
D03*
Y515748D02*
D03*
Y518898D02*
D03*
Y522047D02*
D03*
Y525197D02*
D03*
Y528346D02*
D03*
Y531496D02*
D03*
Y534646D02*
D03*
Y537795D02*
D03*
Y540945D02*
D03*
Y544095D02*
D03*
Y547244D02*
D03*
Y550394D02*
D03*
Y553543D02*
D03*
Y556693D02*
D03*
Y559842D02*
D03*
Y562992D02*
D03*
Y566142D02*
D03*
Y569291D02*
D03*
Y572441D02*
D03*
X116535Y506299D02*
D03*
Y509449D02*
D03*
Y512598D02*
D03*
Y515748D02*
D03*
Y518898D02*
D03*
Y522047D02*
D03*
Y525197D02*
D03*
Y528346D02*
D03*
Y531496D02*
D03*
Y534646D02*
D03*
Y537795D02*
D03*
Y540945D02*
D03*
Y544095D02*
D03*
Y547244D02*
D03*
Y550394D02*
D03*
Y553543D02*
D03*
Y556693D02*
D03*
Y559842D02*
D03*
Y562992D02*
D03*
Y566142D02*
D03*
Y569291D02*
D03*
Y572441D02*
D03*
X119685Y506299D02*
D03*
Y509449D02*
D03*
Y512598D02*
D03*
Y515748D02*
D03*
Y518898D02*
D03*
Y522047D02*
D03*
Y525197D02*
D03*
Y528346D02*
D03*
Y531496D02*
D03*
Y534646D02*
D03*
Y537795D02*
D03*
Y540945D02*
D03*
Y544095D02*
D03*
Y547244D02*
D03*
Y550394D02*
D03*
Y553543D02*
D03*
Y556693D02*
D03*
Y559842D02*
D03*
Y562992D02*
D03*
Y566142D02*
D03*
Y569291D02*
D03*
Y572441D02*
D03*
X122835Y506299D02*
D03*
Y509449D02*
D03*
Y512598D02*
D03*
Y515748D02*
D03*
Y518898D02*
D03*
Y522047D02*
D03*
Y525197D02*
D03*
Y528346D02*
D03*
Y531496D02*
D03*
Y534646D02*
D03*
Y537795D02*
D03*
Y540945D02*
D03*
Y544095D02*
D03*
Y547244D02*
D03*
Y550394D02*
D03*
Y553543D02*
D03*
Y556693D02*
D03*
Y559842D02*
D03*
Y562992D02*
D03*
Y566142D02*
D03*
Y569291D02*
D03*
Y572441D02*
D03*
X125984Y506299D02*
D03*
Y509449D02*
D03*
Y512598D02*
D03*
Y515748D02*
D03*
Y518898D02*
D03*
Y522047D02*
D03*
Y525197D02*
D03*
Y528346D02*
D03*
Y531496D02*
D03*
Y534646D02*
D03*
Y537795D02*
D03*
Y540945D02*
D03*
Y544095D02*
D03*
Y547244D02*
D03*
Y550394D02*
D03*
Y553543D02*
D03*
Y556693D02*
D03*
Y559842D02*
D03*
Y562992D02*
D03*
Y566142D02*
D03*
Y569291D02*
D03*
Y572441D02*
D03*
X129134Y506299D02*
D03*
Y509449D02*
D03*
Y512598D02*
D03*
Y515748D02*
D03*
Y518898D02*
D03*
Y522047D02*
D03*
Y525197D02*
D03*
Y528346D02*
D03*
Y531496D02*
D03*
Y534646D02*
D03*
Y537795D02*
D03*
Y540945D02*
D03*
Y544095D02*
D03*
Y547244D02*
D03*
Y550394D02*
D03*
Y553543D02*
D03*
Y556693D02*
D03*
Y559842D02*
D03*
Y562992D02*
D03*
Y566142D02*
D03*
Y569291D02*
D03*
Y572441D02*
D03*
X132283Y506299D02*
D03*
Y509449D02*
D03*
Y512598D02*
D03*
Y515748D02*
D03*
Y518898D02*
D03*
Y522047D02*
D03*
Y525197D02*
D03*
Y528346D02*
D03*
Y531496D02*
D03*
Y534646D02*
D03*
Y537795D02*
D03*
Y540945D02*
D03*
Y544095D02*
D03*
Y547244D02*
D03*
Y550394D02*
D03*
Y553543D02*
D03*
Y556693D02*
D03*
Y559842D02*
D03*
Y562992D02*
D03*
Y566142D02*
D03*
Y569291D02*
D03*
Y572441D02*
D03*
X135433Y506299D02*
D03*
Y509449D02*
D03*
Y512598D02*
D03*
Y515748D02*
D03*
Y518898D02*
D03*
Y522047D02*
D03*
Y525197D02*
D03*
Y528346D02*
D03*
Y531496D02*
D03*
Y534646D02*
D03*
Y537795D02*
D03*
Y540945D02*
D03*
Y544095D02*
D03*
Y547244D02*
D03*
Y550394D02*
D03*
Y553543D02*
D03*
Y556693D02*
D03*
Y559842D02*
D03*
Y562992D02*
D03*
Y566142D02*
D03*
Y569291D02*
D03*
Y572441D02*
D03*
X138583Y506299D02*
D03*
Y509449D02*
D03*
Y512598D02*
D03*
Y515748D02*
D03*
Y518898D02*
D03*
Y522047D02*
D03*
Y525197D02*
D03*
Y528346D02*
D03*
Y531496D02*
D03*
Y534646D02*
D03*
Y537795D02*
D03*
Y540945D02*
D03*
Y544095D02*
D03*
Y547244D02*
D03*
Y550394D02*
D03*
Y553543D02*
D03*
Y556693D02*
D03*
Y559842D02*
D03*
Y562992D02*
D03*
Y566142D02*
D03*
Y569291D02*
D03*
Y572441D02*
D03*
X141732Y506299D02*
D03*
Y509449D02*
D03*
Y512598D02*
D03*
Y515748D02*
D03*
Y518898D02*
D03*
Y522047D02*
D03*
Y525197D02*
D03*
Y528346D02*
D03*
Y531496D02*
D03*
Y534646D02*
D03*
Y537795D02*
D03*
Y540945D02*
D03*
Y544095D02*
D03*
Y547244D02*
D03*
Y550394D02*
D03*
Y553543D02*
D03*
Y556693D02*
D03*
Y559842D02*
D03*
Y562992D02*
D03*
Y566142D02*
D03*
Y569291D02*
D03*
Y572441D02*
D03*
X144882Y506299D02*
D03*
Y509449D02*
D03*
Y512598D02*
D03*
Y515748D02*
D03*
Y518898D02*
D03*
Y522047D02*
D03*
Y525197D02*
D03*
Y528346D02*
D03*
Y531496D02*
D03*
Y534646D02*
D03*
Y537795D02*
D03*
Y540945D02*
D03*
Y544095D02*
D03*
Y547244D02*
D03*
Y550394D02*
D03*
Y553543D02*
D03*
Y556693D02*
D03*
Y559842D02*
D03*
Y562992D02*
D03*
Y566142D02*
D03*
Y569291D02*
D03*
Y572441D02*
D03*
X148031Y506299D02*
D03*
Y509449D02*
D03*
Y512598D02*
D03*
Y515748D02*
D03*
Y518898D02*
D03*
Y522047D02*
D03*
Y525197D02*
D03*
Y528346D02*
D03*
Y531496D02*
D03*
Y534646D02*
D03*
Y537795D02*
D03*
Y540945D02*
D03*
Y544095D02*
D03*
Y547244D02*
D03*
Y550394D02*
D03*
Y553543D02*
D03*
Y556693D02*
D03*
Y559842D02*
D03*
Y562992D02*
D03*
Y566142D02*
D03*
Y569291D02*
D03*
Y572441D02*
D03*
X151181Y509449D02*
D03*
Y512598D02*
D03*
Y515748D02*
D03*
Y518898D02*
D03*
Y522047D02*
D03*
Y525197D02*
D03*
Y528346D02*
D03*
Y531496D02*
D03*
Y534646D02*
D03*
Y537795D02*
D03*
Y540945D02*
D03*
Y544095D02*
D03*
Y547244D02*
D03*
Y550394D02*
D03*
Y553543D02*
D03*
Y556693D02*
D03*
Y559842D02*
D03*
Y562992D02*
D03*
Y566142D02*
D03*
Y569291D02*
D03*
D80*
X472244Y498622D02*
D03*
X468504D02*
D03*
X464764D02*
D03*
Y489567D02*
D03*
X468504D02*
D03*
X472244D02*
D03*
D81*
X453179Y383791D02*
D03*
Y385760D02*
D03*
Y387729D02*
D03*
Y389697D02*
D03*
Y391666D02*
D03*
Y393634D02*
D03*
Y395603D02*
D03*
Y397571D02*
D03*
Y399540D02*
D03*
Y401508D02*
D03*
Y403477D02*
D03*
Y405445D02*
D03*
Y407414D02*
D03*
Y409382D02*
D03*
Y411351D02*
D03*
Y413319D02*
D03*
X498455D02*
D03*
Y411351D02*
D03*
Y409382D02*
D03*
Y407414D02*
D03*
Y405445D02*
D03*
Y403477D02*
D03*
Y401508D02*
D03*
Y399540D02*
D03*
Y397571D02*
D03*
Y395603D02*
D03*
Y393634D02*
D03*
Y391666D02*
D03*
Y389697D02*
D03*
Y387729D02*
D03*
Y385760D02*
D03*
Y383791D02*
D03*
D82*
X461053Y421193D02*
D03*
X463022D02*
D03*
X464990D02*
D03*
X466959D02*
D03*
X468927D02*
D03*
X470896D02*
D03*
X472864D02*
D03*
X474833D02*
D03*
X476801D02*
D03*
X478770D02*
D03*
X480738D02*
D03*
X482707D02*
D03*
X484675D02*
D03*
X486644D02*
D03*
X488612D02*
D03*
X490581D02*
D03*
Y375918D02*
D03*
X488612D02*
D03*
X486644D02*
D03*
X484675D02*
D03*
X482707D02*
D03*
X480738D02*
D03*
X478770D02*
D03*
X476801D02*
D03*
X474833D02*
D03*
X472864D02*
D03*
X470896D02*
D03*
X468927D02*
D03*
X466959D02*
D03*
X464990D02*
D03*
X463022D02*
D03*
X461053D02*
D03*
D83*
X503543Y492126D02*
D03*
Y495276D02*
D03*
Y498425D02*
D03*
Y501575D02*
D03*
Y504724D02*
D03*
D84*
X503937Y515945D02*
D03*
X525591D02*
D03*
Y480905D02*
D03*
X503937D02*
D03*
D85*
X363976Y465945D02*
D03*
Y473425D02*
D03*
X354921Y469685D02*
D03*
X265945Y415945D02*
D03*
Y408465D02*
D03*
X275000Y412205D02*
D03*
X382500Y379331D02*
D03*
Y371850D02*
D03*
X391555Y375590D02*
D03*
X69095Y415945D02*
D03*
Y408465D02*
D03*
X78150Y412205D02*
D03*
X167126Y465945D02*
D03*
Y473425D02*
D03*
X158071Y469685D02*
D03*
D86*
X347835Y451968D02*
D03*
X311221D02*
D03*
X282087Y429921D02*
D03*
X318701D02*
D03*
X85236D02*
D03*
X121850D02*
D03*
X150984Y451968D02*
D03*
X114370D02*
D03*
X517520Y464961D02*
D03*
X480905D02*
D03*
D87*
X468701Y639724D02*
D03*
Y621693D02*
D03*
D88*
X494291Y630709D02*
D03*
D89*
X510827D02*
D03*
D90*
X470079Y620709D02*
D03*
Y640709D02*
D03*
D91*
X40157Y786614D02*
D03*
X254331D02*
D03*
X392126Y97244D02*
D03*
X177953D02*
D03*
X93701Y786614D02*
D03*
X307874D02*
D03*
X338583Y97244D02*
D03*
X124409D02*
D03*
X147244Y786614D02*
D03*
X361417D02*
D03*
X285039Y97244D02*
D03*
X70866D02*
D03*
X200787Y786614D02*
D03*
X414961D02*
D03*
X231496Y97244D02*
D03*
X17323D02*
D03*
D92*
X45866Y789272D02*
D03*
Y787500D02*
D03*
Y785728D02*
D03*
Y783957D02*
D03*
X34449D02*
D03*
Y785728D02*
D03*
Y787500D02*
D03*
Y789272D02*
D03*
X260039D02*
D03*
Y787500D02*
D03*
Y785728D02*
D03*
Y783957D02*
D03*
X248622D02*
D03*
Y785728D02*
D03*
Y787500D02*
D03*
Y789272D02*
D03*
X386417Y94587D02*
D03*
Y96358D02*
D03*
Y98130D02*
D03*
Y99902D02*
D03*
X397835D02*
D03*
Y98130D02*
D03*
Y96358D02*
D03*
Y94587D02*
D03*
X172244D02*
D03*
Y96358D02*
D03*
Y98130D02*
D03*
Y99902D02*
D03*
X183661D02*
D03*
Y98130D02*
D03*
Y96358D02*
D03*
Y94587D02*
D03*
X99410Y789272D02*
D03*
Y787500D02*
D03*
Y785728D02*
D03*
Y783957D02*
D03*
X87992D02*
D03*
Y785728D02*
D03*
Y787500D02*
D03*
Y789272D02*
D03*
X313583D02*
D03*
Y787500D02*
D03*
Y785728D02*
D03*
Y783957D02*
D03*
X302165D02*
D03*
Y785728D02*
D03*
Y787500D02*
D03*
Y789272D02*
D03*
X332874Y94587D02*
D03*
Y96358D02*
D03*
Y98130D02*
D03*
Y99902D02*
D03*
X344291D02*
D03*
Y98130D02*
D03*
Y96358D02*
D03*
Y94587D02*
D03*
X118701D02*
D03*
Y96358D02*
D03*
Y98130D02*
D03*
Y99902D02*
D03*
X130118D02*
D03*
Y98130D02*
D03*
Y96358D02*
D03*
Y94587D02*
D03*
X152953Y789272D02*
D03*
Y787500D02*
D03*
Y785728D02*
D03*
Y783957D02*
D03*
X141535D02*
D03*
Y785728D02*
D03*
Y787500D02*
D03*
Y789272D02*
D03*
X367126D02*
D03*
Y787500D02*
D03*
Y785728D02*
D03*
Y783957D02*
D03*
X355709D02*
D03*
Y785728D02*
D03*
Y787500D02*
D03*
Y789272D02*
D03*
X279331Y94587D02*
D03*
Y96358D02*
D03*
Y98130D02*
D03*
Y99902D02*
D03*
X290748D02*
D03*
Y98130D02*
D03*
Y96358D02*
D03*
Y94587D02*
D03*
X65158D02*
D03*
Y96358D02*
D03*
Y98130D02*
D03*
Y99902D02*
D03*
X76575D02*
D03*
Y98130D02*
D03*
Y96358D02*
D03*
Y94587D02*
D03*
X206496Y789272D02*
D03*
Y787500D02*
D03*
Y785728D02*
D03*
Y783957D02*
D03*
X195079D02*
D03*
Y785728D02*
D03*
Y787500D02*
D03*
Y789272D02*
D03*
X420669D02*
D03*
Y787500D02*
D03*
Y785728D02*
D03*
Y783957D02*
D03*
X409252D02*
D03*
Y785728D02*
D03*
Y787500D02*
D03*
Y789272D02*
D03*
X225787Y94587D02*
D03*
Y96358D02*
D03*
Y98130D02*
D03*
Y99902D02*
D03*
X237205D02*
D03*
Y98130D02*
D03*
Y96358D02*
D03*
Y94587D02*
D03*
X11614D02*
D03*
Y96358D02*
D03*
Y98130D02*
D03*
Y99902D02*
D03*
X23031D02*
D03*
Y98130D02*
D03*
Y96358D02*
D03*
Y94587D02*
D03*
D93*
X402756Y764941D02*
D03*
Y769941D02*
D03*
Y774941D02*
D03*
Y779939D02*
D03*
X380709D02*
D03*
Y774941D02*
D03*
Y769941D02*
D03*
Y764941D02*
D03*
X243701Y140965D02*
D03*
Y135965D02*
D03*
Y130965D02*
D03*
Y125966D02*
D03*
X265748D02*
D03*
Y130965D02*
D03*
Y135965D02*
D03*
Y140965D02*
D03*
X243701Y118917D02*
D03*
Y113917D02*
D03*
Y108917D02*
D03*
Y103919D02*
D03*
X265748D02*
D03*
Y108917D02*
D03*
Y113917D02*
D03*
Y118917D02*
D03*
X29528Y140965D02*
D03*
Y135965D02*
D03*
Y130965D02*
D03*
Y125966D02*
D03*
X51575D02*
D03*
Y130965D02*
D03*
Y135965D02*
D03*
Y140965D02*
D03*
X29528Y118917D02*
D03*
Y113917D02*
D03*
Y108917D02*
D03*
Y103919D02*
D03*
X51575D02*
D03*
Y108917D02*
D03*
Y113917D02*
D03*
Y118917D02*
D03*
X27953Y742894D02*
D03*
Y747894D02*
D03*
Y752894D02*
D03*
Y757892D02*
D03*
X5906D02*
D03*
Y752894D02*
D03*
Y747894D02*
D03*
Y742894D02*
D03*
X27953Y764941D02*
D03*
Y769941D02*
D03*
Y774941D02*
D03*
Y779939D02*
D03*
X5906D02*
D03*
Y774941D02*
D03*
Y769941D02*
D03*
Y764941D02*
D03*
X242126Y742894D02*
D03*
Y747894D02*
D03*
Y752894D02*
D03*
Y757892D02*
D03*
X220079D02*
D03*
Y752894D02*
D03*
Y747894D02*
D03*
Y742894D02*
D03*
X242126Y764941D02*
D03*
Y769941D02*
D03*
Y774941D02*
D03*
Y779939D02*
D03*
X220079D02*
D03*
Y774941D02*
D03*
Y769941D02*
D03*
Y764941D02*
D03*
X404331Y140965D02*
D03*
Y135965D02*
D03*
Y130965D02*
D03*
Y125966D02*
D03*
X426378D02*
D03*
Y130965D02*
D03*
Y135965D02*
D03*
Y140965D02*
D03*
X404331Y118917D02*
D03*
Y113917D02*
D03*
Y108917D02*
D03*
Y103919D02*
D03*
X426378D02*
D03*
Y108917D02*
D03*
Y113917D02*
D03*
Y118917D02*
D03*
X190157Y140965D02*
D03*
Y135965D02*
D03*
Y130965D02*
D03*
Y125966D02*
D03*
X212205D02*
D03*
Y130965D02*
D03*
Y135965D02*
D03*
Y140965D02*
D03*
X190157Y118917D02*
D03*
Y113917D02*
D03*
Y108917D02*
D03*
Y103919D02*
D03*
X212205D02*
D03*
Y108917D02*
D03*
Y113917D02*
D03*
Y118917D02*
D03*
X81496Y742894D02*
D03*
Y747894D02*
D03*
Y752894D02*
D03*
Y757892D02*
D03*
X59449D02*
D03*
Y752894D02*
D03*
Y747894D02*
D03*
Y742894D02*
D03*
X81496Y764941D02*
D03*
Y769941D02*
D03*
Y774941D02*
D03*
Y779939D02*
D03*
X59449D02*
D03*
Y774941D02*
D03*
Y769941D02*
D03*
Y764941D02*
D03*
X295669Y742894D02*
D03*
Y747894D02*
D03*
Y752894D02*
D03*
Y757892D02*
D03*
X273622D02*
D03*
Y752894D02*
D03*
Y747894D02*
D03*
Y742894D02*
D03*
X295669Y764941D02*
D03*
Y769941D02*
D03*
Y774941D02*
D03*
Y779939D02*
D03*
X273622D02*
D03*
Y774941D02*
D03*
Y769941D02*
D03*
Y764941D02*
D03*
X350787Y140965D02*
D03*
Y135965D02*
D03*
Y130965D02*
D03*
Y125966D02*
D03*
X372835D02*
D03*
Y130965D02*
D03*
Y135965D02*
D03*
Y140965D02*
D03*
X350787Y118917D02*
D03*
Y113917D02*
D03*
Y108917D02*
D03*
Y103919D02*
D03*
X372835D02*
D03*
Y108917D02*
D03*
Y113917D02*
D03*
Y118917D02*
D03*
X136614Y140965D02*
D03*
Y135965D02*
D03*
Y130965D02*
D03*
Y125966D02*
D03*
X158661D02*
D03*
Y130965D02*
D03*
Y135965D02*
D03*
Y140965D02*
D03*
X136614Y118917D02*
D03*
Y113917D02*
D03*
Y108917D02*
D03*
Y103919D02*
D03*
X158661D02*
D03*
Y108917D02*
D03*
Y113917D02*
D03*
Y118917D02*
D03*
X135039Y742894D02*
D03*
Y747894D02*
D03*
Y752894D02*
D03*
Y757892D02*
D03*
X112992D02*
D03*
Y752894D02*
D03*
Y747894D02*
D03*
Y742894D02*
D03*
X135039Y764941D02*
D03*
Y769941D02*
D03*
Y774941D02*
D03*
Y779939D02*
D03*
X112992D02*
D03*
Y774941D02*
D03*
Y769941D02*
D03*
Y764941D02*
D03*
X349213Y742894D02*
D03*
Y747894D02*
D03*
Y752894D02*
D03*
Y757892D02*
D03*
X327165D02*
D03*
Y752894D02*
D03*
Y747894D02*
D03*
Y742894D02*
D03*
X349213Y764941D02*
D03*
Y769941D02*
D03*
Y774941D02*
D03*
Y779939D02*
D03*
X327165D02*
D03*
Y774941D02*
D03*
Y769941D02*
D03*
Y764941D02*
D03*
X297244Y140965D02*
D03*
Y135965D02*
D03*
Y130965D02*
D03*
Y125966D02*
D03*
X319291D02*
D03*
Y130965D02*
D03*
Y135965D02*
D03*
Y140965D02*
D03*
X297244Y118917D02*
D03*
Y113917D02*
D03*
Y108917D02*
D03*
Y103919D02*
D03*
X319291D02*
D03*
Y108917D02*
D03*
Y113917D02*
D03*
Y118917D02*
D03*
X83071Y140965D02*
D03*
Y135965D02*
D03*
Y130965D02*
D03*
Y125966D02*
D03*
X105118D02*
D03*
Y130965D02*
D03*
Y135965D02*
D03*
Y140965D02*
D03*
X83071Y118917D02*
D03*
Y113917D02*
D03*
Y108917D02*
D03*
Y103919D02*
D03*
X105118D02*
D03*
Y108917D02*
D03*
Y113917D02*
D03*
Y118917D02*
D03*
X188583Y742894D02*
D03*
Y747894D02*
D03*
Y752894D02*
D03*
Y757892D02*
D03*
X166535D02*
D03*
Y752894D02*
D03*
Y747894D02*
D03*
Y742894D02*
D03*
X188583Y764941D02*
D03*
Y769941D02*
D03*
Y774941D02*
D03*
Y779939D02*
D03*
X166535D02*
D03*
Y774941D02*
D03*
Y769941D02*
D03*
Y764941D02*
D03*
X402756Y742894D02*
D03*
Y747894D02*
D03*
Y752894D02*
D03*
Y757892D02*
D03*
X380709D02*
D03*
Y752894D02*
D03*
Y747894D02*
D03*
Y742894D02*
D03*
D94*
X5886Y787402D02*
D03*
X10886D02*
D03*
X15886D02*
D03*
X20884D02*
D03*
Y809449D02*
D03*
X15886D02*
D03*
X10886D02*
D03*
X5886D02*
D03*
X166516Y787402D02*
D03*
X171516D02*
D03*
X176516D02*
D03*
X181514D02*
D03*
Y809449D02*
D03*
X176516D02*
D03*
X171516D02*
D03*
X166516D02*
D03*
X220059Y787402D02*
D03*
X225059D02*
D03*
X230059D02*
D03*
X235057D02*
D03*
Y809449D02*
D03*
X230059D02*
D03*
X225059D02*
D03*
X220059D02*
D03*
X426398Y96457D02*
D03*
X421398D02*
D03*
X416398D02*
D03*
X411399D02*
D03*
Y74410D02*
D03*
X416398D02*
D03*
X421398D02*
D03*
X426398D02*
D03*
X212224Y96457D02*
D03*
X207224D02*
D03*
X202224D02*
D03*
X197226D02*
D03*
Y74410D02*
D03*
X202224D02*
D03*
X207224D02*
D03*
X212224D02*
D03*
X380689Y787402D02*
D03*
X385689D02*
D03*
X390689D02*
D03*
X395687D02*
D03*
Y809449D02*
D03*
X390689D02*
D03*
X385689D02*
D03*
X380689D02*
D03*
X59429Y787402D02*
D03*
X64429D02*
D03*
X69429D02*
D03*
X74427D02*
D03*
Y809449D02*
D03*
X69429D02*
D03*
X64429D02*
D03*
X59429D02*
D03*
X273602Y787402D02*
D03*
X278602D02*
D03*
X283602D02*
D03*
X288601D02*
D03*
Y809449D02*
D03*
X283602D02*
D03*
X278602D02*
D03*
X273602D02*
D03*
X372854Y96457D02*
D03*
X367854D02*
D03*
X362854D02*
D03*
X357856D02*
D03*
Y74410D02*
D03*
X362854D02*
D03*
X367854D02*
D03*
X372854D02*
D03*
X158681Y96457D02*
D03*
X153681D02*
D03*
X148681D02*
D03*
X143683D02*
D03*
Y74410D02*
D03*
X148681D02*
D03*
X153681D02*
D03*
X158681D02*
D03*
X265768Y96457D02*
D03*
X260768D02*
D03*
X255768D02*
D03*
X250769D02*
D03*
Y74410D02*
D03*
X255768D02*
D03*
X260768D02*
D03*
X265768D02*
D03*
X112972Y787402D02*
D03*
X117972D02*
D03*
X122972D02*
D03*
X127971D02*
D03*
Y809449D02*
D03*
X122972D02*
D03*
X117972D02*
D03*
X112972D02*
D03*
X327146Y787402D02*
D03*
X332146D02*
D03*
X337146D02*
D03*
X342144D02*
D03*
Y809449D02*
D03*
X337146D02*
D03*
X332146D02*
D03*
X327146D02*
D03*
X319311Y96457D02*
D03*
X314311D02*
D03*
X309311D02*
D03*
X304313D02*
D03*
Y74410D02*
D03*
X309311D02*
D03*
X314311D02*
D03*
X319311D02*
D03*
X105138Y96457D02*
D03*
X100138D02*
D03*
X95138D02*
D03*
X90139D02*
D03*
Y74410D02*
D03*
X95138D02*
D03*
X100138D02*
D03*
X105138D02*
D03*
X51595Y96457D02*
D03*
X46595D02*
D03*
X41594D02*
D03*
X36596D02*
D03*
Y74410D02*
D03*
X41594D02*
D03*
X46595D02*
D03*
X51595D02*
D03*
D95*
X470866Y567343D02*
D03*
Y562343D02*
D03*
Y557342D02*
D03*
Y552344D02*
D03*
X492913D02*
D03*
Y557342D02*
D03*
Y562343D02*
D03*
Y567343D02*
D03*
X519685Y583839D02*
D03*
Y588839D02*
D03*
Y593839D02*
D03*
Y598837D02*
D03*
X497638D02*
D03*
Y593839D02*
D03*
Y588839D02*
D03*
Y583839D02*
D03*
X470866Y542146D02*
D03*
Y537146D02*
D03*
Y532146D02*
D03*
Y527147D02*
D03*
X492913D02*
D03*
Y532146D02*
D03*
Y537146D02*
D03*
Y542146D02*
D03*
D96*
X477933Y620079D02*
D03*
X482933D02*
D03*
X487933D02*
D03*
X492931D02*
D03*
Y641339D02*
D03*
X487933D02*
D03*
X482933D02*
D03*
X477933D02*
D03*
D97*
X46063Y795276D02*
D03*
X39764D02*
D03*
X260236D02*
D03*
X253937D02*
D03*
X386221Y88583D02*
D03*
X392520D02*
D03*
X172047D02*
D03*
X178347D02*
D03*
X99606Y795276D02*
D03*
X93307D02*
D03*
X313779D02*
D03*
X307480D02*
D03*
X332677Y88583D02*
D03*
X338976D02*
D03*
X118504D02*
D03*
X124803D02*
D03*
X153150Y795276D02*
D03*
X146850D02*
D03*
X367323D02*
D03*
X361024D02*
D03*
X279134Y88583D02*
D03*
X285433D02*
D03*
X64961D02*
D03*
X71260D02*
D03*
X206693Y795276D02*
D03*
X200394D02*
D03*
X420866D02*
D03*
X414567D02*
D03*
X225590Y88583D02*
D03*
X231890D02*
D03*
X11417D02*
D03*
X17717D02*
D03*
D98*
X115748Y220079D02*
D03*
Y208268D02*
D03*
X141732Y220079D02*
D03*
Y208268D02*
D03*
X129921Y663779D02*
D03*
Y675591D02*
D03*
X142913Y663779D02*
D03*
Y675591D02*
D03*
X155905Y663779D02*
D03*
Y675591D02*
D03*
X344094Y663779D02*
D03*
Y675591D02*
D03*
X357087Y663779D02*
D03*
Y675591D02*
D03*
X370079Y663779D02*
D03*
Y675591D02*
D03*
X289370Y220079D02*
D03*
Y208268D02*
D03*
X276378Y220079D02*
D03*
Y208268D02*
D03*
X302362Y220079D02*
D03*
Y208268D02*
D03*
X75197Y220079D02*
D03*
Y208268D02*
D03*
X62205Y220079D02*
D03*
Y208268D02*
D03*
X88189Y220079D02*
D03*
Y208268D02*
D03*
X183465Y663779D02*
D03*
Y675591D02*
D03*
X196457Y663779D02*
D03*
Y675591D02*
D03*
X209449Y663779D02*
D03*
Y675591D02*
D03*
X396457Y663779D02*
D03*
Y675591D02*
D03*
X409449Y663779D02*
D03*
Y675591D02*
D03*
X383465Y663779D02*
D03*
Y675591D02*
D03*
X235827Y220079D02*
D03*
Y208268D02*
D03*
X222835Y220079D02*
D03*
Y208268D02*
D03*
X248819Y220079D02*
D03*
Y208268D02*
D03*
X22866Y220139D02*
D03*
Y208328D02*
D03*
X48850Y220139D02*
D03*
Y208328D02*
D03*
X35858Y220139D02*
D03*
Y208328D02*
D03*
X277559Y663779D02*
D03*
Y675591D02*
D03*
X331102Y663779D02*
D03*
Y675591D02*
D03*
X101181Y220079D02*
D03*
Y208268D02*
D03*
X154724Y220079D02*
D03*
Y208268D02*
D03*
X370472Y220079D02*
D03*
Y208268D02*
D03*
X316929Y220079D02*
D03*
Y208268D02*
D03*
X114961Y663779D02*
D03*
Y675591D02*
D03*
X61811Y663779D02*
D03*
Y675591D02*
D03*
X22835Y663779D02*
D03*
Y675591D02*
D03*
X35827Y663779D02*
D03*
Y675591D02*
D03*
X48819Y663779D02*
D03*
Y675591D02*
D03*
X237008Y663779D02*
D03*
Y675591D02*
D03*
X250000Y663779D02*
D03*
Y675591D02*
D03*
X262992Y663779D02*
D03*
Y675591D02*
D03*
X396457Y220079D02*
D03*
Y208268D02*
D03*
X383465Y220079D02*
D03*
Y208268D02*
D03*
X409449Y220079D02*
D03*
Y208268D02*
D03*
X182283Y220079D02*
D03*
Y208268D02*
D03*
X169291Y220079D02*
D03*
Y208268D02*
D03*
X195276Y220079D02*
D03*
Y208268D02*
D03*
X88976Y663779D02*
D03*
Y675591D02*
D03*
X75984Y663779D02*
D03*
Y675591D02*
D03*
X101969Y663779D02*
D03*
Y675591D02*
D03*
X290551Y663779D02*
D03*
Y675591D02*
D03*
X303543Y663779D02*
D03*
Y675591D02*
D03*
X316535Y663779D02*
D03*
Y675591D02*
D03*
X342913Y220079D02*
D03*
Y208268D02*
D03*
X329921Y220079D02*
D03*
Y208268D02*
D03*
X355906Y220079D02*
D03*
Y208268D02*
D03*
X128740Y220079D02*
D03*
Y208268D02*
D03*
X120472Y70079D02*
D03*
Y81890D02*
D03*
X151181Y813780D02*
D03*
Y801968D02*
D03*
X365354Y813780D02*
D03*
Y801968D02*
D03*
X281102Y70079D02*
D03*
Y81890D02*
D03*
X66929Y70079D02*
D03*
Y81890D02*
D03*
X204724Y813780D02*
D03*
Y801968D02*
D03*
X187008Y70079D02*
D03*
Y81890D02*
D03*
X133465Y70079D02*
D03*
Y81890D02*
D03*
X79921Y70079D02*
D03*
Y81890D02*
D03*
X26378Y70079D02*
D03*
Y81890D02*
D03*
X418898Y813780D02*
D03*
Y801968D02*
D03*
X401181Y70079D02*
D03*
Y81890D02*
D03*
X347638Y70079D02*
D03*
Y81890D02*
D03*
X294094Y70079D02*
D03*
Y81890D02*
D03*
X245276Y813780D02*
D03*
Y801968D02*
D03*
X298819Y813780D02*
D03*
Y801968D02*
D03*
X352362Y813780D02*
D03*
Y801968D02*
D03*
X405905Y813780D02*
D03*
Y801968D02*
D03*
X227559Y70079D02*
D03*
Y81890D02*
D03*
X31102Y813780D02*
D03*
Y801968D02*
D03*
X84646Y813780D02*
D03*
Y801968D02*
D03*
X138189Y813780D02*
D03*
Y801968D02*
D03*
X191732Y813780D02*
D03*
Y801968D02*
D03*
X240551Y70079D02*
D03*
Y81890D02*
D03*
X13386Y70079D02*
D03*
Y81890D02*
D03*
X44094Y813780D02*
D03*
Y801968D02*
D03*
X258268Y813780D02*
D03*
Y801968D02*
D03*
X388189Y70079D02*
D03*
Y81890D02*
D03*
X174016Y70079D02*
D03*
Y81890D02*
D03*
X97638Y813780D02*
D03*
Y801968D02*
D03*
X311811Y813780D02*
D03*
Y801968D02*
D03*
X334646Y70079D02*
D03*
Y81890D02*
D03*
D99*
X178347Y111811D02*
D03*
X166535D02*
D03*
X178347Y137795D02*
D03*
X166535D02*
D03*
X178347Y124803D02*
D03*
X166535D02*
D03*
X124803Y111811D02*
D03*
X112992D02*
D03*
X124803Y137795D02*
D03*
X112992D02*
D03*
X124803Y124803D02*
D03*
X112992D02*
D03*
X71260Y111811D02*
D03*
X59449D02*
D03*
X71260Y137795D02*
D03*
X59449D02*
D03*
X71260Y124803D02*
D03*
X59449D02*
D03*
X17717Y111811D02*
D03*
X5906D02*
D03*
X17717Y137795D02*
D03*
X5906D02*
D03*
X17717Y124803D02*
D03*
X5906D02*
D03*
X392520Y111811D02*
D03*
X380709D02*
D03*
X392520Y137795D02*
D03*
X380709D02*
D03*
X392520Y124803D02*
D03*
X380709D02*
D03*
X338976Y111811D02*
D03*
X327165D02*
D03*
X338976Y137795D02*
D03*
X327165D02*
D03*
X338976Y124803D02*
D03*
X327165D02*
D03*
X285433Y111811D02*
D03*
X273622D02*
D03*
X285433Y137795D02*
D03*
X273622D02*
D03*
X285433Y124803D02*
D03*
X273622D02*
D03*
X253937Y772047D02*
D03*
X265748D02*
D03*
X253937Y759055D02*
D03*
X265748D02*
D03*
X253937Y746063D02*
D03*
X265748D02*
D03*
X307480Y772047D02*
D03*
X319291D02*
D03*
X307480Y759055D02*
D03*
X319291D02*
D03*
X307480Y746063D02*
D03*
X319291D02*
D03*
X361024Y772047D02*
D03*
X372835D02*
D03*
X361024Y759055D02*
D03*
X372835D02*
D03*
X361024Y745669D02*
D03*
X372835D02*
D03*
X414567Y746063D02*
D03*
X426378D02*
D03*
X414567Y772047D02*
D03*
X426378D02*
D03*
X414567Y759055D02*
D03*
X426378D02*
D03*
X39764Y772047D02*
D03*
X51575D02*
D03*
X39764Y759055D02*
D03*
X51575D02*
D03*
X39764Y746063D02*
D03*
X51575D02*
D03*
X93307Y772047D02*
D03*
X105118D02*
D03*
X93307Y759055D02*
D03*
X105118D02*
D03*
X93307Y746063D02*
D03*
X105118D02*
D03*
X146850D02*
D03*
X158661D02*
D03*
X146850Y759055D02*
D03*
X158661D02*
D03*
X146850Y772047D02*
D03*
X158661D02*
D03*
X200394Y746063D02*
D03*
X212205D02*
D03*
X200394Y759055D02*
D03*
X212205D02*
D03*
X200394Y772047D02*
D03*
X212205D02*
D03*
X231890Y111811D02*
D03*
X220079D02*
D03*
X231890Y137795D02*
D03*
X220079D02*
D03*
X231890Y124803D02*
D03*
X220079D02*
D03*
X407480Y594095D02*
D03*
X419291D02*
D03*
X407480Y554724D02*
D03*
X419291D02*
D03*
X407480Y535039D02*
D03*
X419291D02*
D03*
X407480Y515354D02*
D03*
X419291D02*
D03*
X407480Y495669D02*
D03*
X419291D02*
D03*
X407480Y475984D02*
D03*
X419291D02*
D03*
X407480Y574409D02*
D03*
X419291D02*
D03*
X407480Y613779D02*
D03*
X419291D02*
D03*
X25591Y357874D02*
D03*
X13780D02*
D03*
X25591Y279134D02*
D03*
X13780D02*
D03*
X25591Y298819D02*
D03*
X13780D02*
D03*
X25591Y318504D02*
D03*
X13780D02*
D03*
X25591Y338189D02*
D03*
X13780D02*
D03*
X25591Y377559D02*
D03*
X13780D02*
D03*
X25591Y397244D02*
D03*
X13780D02*
D03*
X25591Y416929D02*
D03*
X13780D02*
D03*
X407480D02*
D03*
X419291D02*
D03*
X407480Y377559D02*
D03*
X419291D02*
D03*
X407480Y357874D02*
D03*
X419291D02*
D03*
X407480Y318504D02*
D03*
X419291D02*
D03*
X407480Y338189D02*
D03*
X419291D02*
D03*
X407480Y298819D02*
D03*
X419291D02*
D03*
X407480Y279134D02*
D03*
X419291D02*
D03*
X407480Y397244D02*
D03*
X419291D02*
D03*
X25591Y475984D02*
D03*
X13780D02*
D03*
X25591Y495669D02*
D03*
X13780D02*
D03*
X25591Y515354D02*
D03*
X13780D02*
D03*
X25591Y535039D02*
D03*
X13780D02*
D03*
X25591Y574409D02*
D03*
X13780D02*
D03*
X25591Y594095D02*
D03*
X13780D02*
D03*
X25591Y554724D02*
D03*
X13780D02*
D03*
X25591Y613779D02*
D03*
X13780D02*
D03*
X500787Y564567D02*
D03*
X512598D02*
D03*
X137008Y59842D02*
D03*
X148819D02*
D03*
X134646Y824016D02*
D03*
X122835D02*
D03*
X348819D02*
D03*
X337008D02*
D03*
X297638Y59842D02*
D03*
X309449D02*
D03*
X83465D02*
D03*
X95276D02*
D03*
X188189Y824016D02*
D03*
X176378D02*
D03*
X402362D02*
D03*
X390551D02*
D03*
X183071Y59842D02*
D03*
X171260D02*
D03*
X129528D02*
D03*
X117717D02*
D03*
X75984D02*
D03*
X64173D02*
D03*
X22441D02*
D03*
X10630D02*
D03*
X397244D02*
D03*
X385433D02*
D03*
X343701D02*
D03*
X331890D02*
D03*
X290158D02*
D03*
X278346D02*
D03*
X249213Y824016D02*
D03*
X261024D02*
D03*
X302756D02*
D03*
X314567D02*
D03*
X244094Y59842D02*
D03*
X255906D02*
D03*
X356299Y824016D02*
D03*
X368110D02*
D03*
X409842D02*
D03*
X421654D02*
D03*
X35039D02*
D03*
X46850D02*
D03*
X88583D02*
D03*
X100394D02*
D03*
X142126D02*
D03*
X153937D02*
D03*
X195669D02*
D03*
X207480D02*
D03*
X236614Y59842D02*
D03*
X224803D02*
D03*
X29921D02*
D03*
X41732D02*
D03*
X27559Y824016D02*
D03*
X15748D02*
D03*
X241732D02*
D03*
X229921D02*
D03*
X404724Y59842D02*
D03*
X416535D02*
D03*
X190551D02*
D03*
X202362D02*
D03*
X81102Y824016D02*
D03*
X69291D02*
D03*
X295276D02*
D03*
X283465D02*
D03*
X351181Y59842D02*
D03*
X362992D02*
D03*
D100*
X451575Y534252D02*
D03*
Y541339D02*
D03*
D101*
X477165Y575197D02*
D03*
X470079D02*
D03*
X505512Y575984D02*
D03*
X512598D02*
D03*
D102*
X484252Y575591D02*
D03*
X496063D02*
D03*
X512598Y553543D02*
D03*
X500787D02*
D03*
D103*
X468898Y668110D02*
D03*
Y656299D02*
D03*
X456693Y586614D02*
D03*
Y598425D02*
D03*
D104*
X448228Y455905D02*
D03*
X439961D02*
D03*
X448228Y463779D02*
D03*
X439961D02*
D03*
X448228Y448032D02*
D03*
X439961D02*
D03*
X448228Y440158D02*
D03*
X439961D02*
D03*
D105*
X517323Y381102D02*
D03*
Y387402D02*
D03*
X380728Y402756D02*
D03*
Y409055D02*
D03*
X374035Y402756D02*
D03*
Y409055D02*
D03*
X362219Y457960D02*
D03*
Y451661D02*
D03*
X268110Y424156D02*
D03*
Y430455D02*
D03*
X438583Y94882D02*
D03*
Y88583D02*
D03*
X71022Y424156D02*
D03*
Y430455D02*
D03*
X164961Y457480D02*
D03*
Y451181D02*
D03*
X375197Y479921D02*
D03*
Y486221D02*
D03*
X254724Y401968D02*
D03*
Y395669D02*
D03*
X375984Y373228D02*
D03*
Y379528D02*
D03*
X463386Y524409D02*
D03*
Y530709D02*
D03*
Y536614D02*
D03*
Y542913D02*
D03*
X57874Y401968D02*
D03*
Y395669D02*
D03*
X178347Y479921D02*
D03*
Y486221D02*
D03*
X380709Y421654D02*
D03*
Y415354D02*
D03*
X400020D02*
D03*
Y421654D02*
D03*
X380728Y396850D02*
D03*
Y390551D02*
D03*
X369685Y373228D02*
D03*
Y379528D02*
D03*
X374035Y396850D02*
D03*
Y390551D02*
D03*
X400807Y382677D02*
D03*
Y388976D02*
D03*
X463386Y549213D02*
D03*
Y555512D02*
D03*
Y561417D02*
D03*
Y567717D02*
D03*
X457874Y493307D02*
D03*
Y499606D02*
D03*
X493701Y435433D02*
D03*
Y441732D02*
D03*
D106*
X431102Y337008D02*
D03*
X437402D02*
D03*
X444488Y94882D02*
D03*
X450787D02*
D03*
D107*
X81102Y795276D02*
D03*
X87402D02*
D03*
X295276D02*
D03*
X301575D02*
D03*
X351181Y88583D02*
D03*
X344882D02*
D03*
X137008D02*
D03*
X130709D02*
D03*
X134646Y795276D02*
D03*
X140945D02*
D03*
X348819D02*
D03*
X355118D02*
D03*
X297638Y88583D02*
D03*
X291339D02*
D03*
X83465D02*
D03*
X77165D02*
D03*
X16535Y604331D02*
D03*
X22835D02*
D03*
X188189Y795276D02*
D03*
X194488D02*
D03*
X402362D02*
D03*
X408661D02*
D03*
X244094Y88583D02*
D03*
X237795D02*
D03*
X29921D02*
D03*
X23622D02*
D03*
X329134Y493307D02*
D03*
X335433D02*
D03*
X348425D02*
D03*
X342126D02*
D03*
X300787Y388583D02*
D03*
X294488D02*
D03*
X281496D02*
D03*
X287795D02*
D03*
X103937D02*
D03*
X97638D02*
D03*
X84646D02*
D03*
X90945D02*
D03*
X132283Y493307D02*
D03*
X138583D02*
D03*
X151575D02*
D03*
X145276D02*
D03*
X267717Y436533D02*
D03*
X261417D02*
D03*
X362205Y444882D02*
D03*
X368504D02*
D03*
X165354D02*
D03*
X171653D02*
D03*
X71161Y436533D02*
D03*
X64861D02*
D03*
X436221Y400787D02*
D03*
X442520D02*
D03*
X416535Y407087D02*
D03*
X410236D02*
D03*
X416535Y387402D02*
D03*
X410236D02*
D03*
X416535Y367717D02*
D03*
X410236D02*
D03*
X416535Y348031D02*
D03*
X410236D02*
D03*
X416535Y328346D02*
D03*
X410236D02*
D03*
X416535Y308661D02*
D03*
X410236D02*
D03*
X416535Y288976D02*
D03*
X410236D02*
D03*
X416535Y269291D02*
D03*
X410236D02*
D03*
X16535Y348031D02*
D03*
X22835D02*
D03*
X16535Y328346D02*
D03*
X22835D02*
D03*
X16535Y308661D02*
D03*
X22835D02*
D03*
X16535Y407087D02*
D03*
X22835D02*
D03*
X16535Y288976D02*
D03*
X22835D02*
D03*
X16535Y269291D02*
D03*
X22835D02*
D03*
X16535Y367717D02*
D03*
X22835D02*
D03*
X16535Y387402D02*
D03*
X22835D02*
D03*
X416535Y603937D02*
D03*
X410236D02*
D03*
X416535Y466142D02*
D03*
X410236D02*
D03*
X416535Y564567D02*
D03*
X410236D02*
D03*
X416535Y544882D02*
D03*
X410236D02*
D03*
X416535Y505512D02*
D03*
X410236D02*
D03*
X416535Y525197D02*
D03*
X410236D02*
D03*
X416535Y485827D02*
D03*
X410236D02*
D03*
X416535Y584252D02*
D03*
X410236D02*
D03*
X16535D02*
D03*
X22835D02*
D03*
X16535Y564567D02*
D03*
X22835D02*
D03*
X16535Y525197D02*
D03*
X22835D02*
D03*
X16535Y485827D02*
D03*
X22835D02*
D03*
X16535Y505512D02*
D03*
X22835D02*
D03*
X511417Y605512D02*
D03*
X505118D02*
D03*
X16535Y544882D02*
D03*
X22835D02*
D03*
X16535Y466142D02*
D03*
X22835D02*
D03*
X27559Y795276D02*
D03*
X33858D02*
D03*
X241732D02*
D03*
X248031D02*
D03*
X404724Y88583D02*
D03*
X398425D02*
D03*
X190551D02*
D03*
X184252D02*
D03*
X473228Y450984D02*
D03*
X479528D02*
D03*
X491929D02*
D03*
X485630D02*
D03*
D108*
X105512Y788976D02*
D03*
Y795276D02*
D03*
X319685Y788976D02*
D03*
Y795276D02*
D03*
X326772Y94882D02*
D03*
Y88583D02*
D03*
X112598Y94882D02*
D03*
Y88583D02*
D03*
X159055Y788976D02*
D03*
Y795276D02*
D03*
X373228Y788976D02*
D03*
Y795276D02*
D03*
X273228Y94882D02*
D03*
Y88583D02*
D03*
X59055Y94882D02*
D03*
Y88583D02*
D03*
X527165Y589764D02*
D03*
Y583465D02*
D03*
X506102Y368307D02*
D03*
Y374606D02*
D03*
X248425Y395669D02*
D03*
Y401968D02*
D03*
X360630Y509449D02*
D03*
Y515748D02*
D03*
X270079Y372836D02*
D03*
Y366537D02*
D03*
X73368Y372836D02*
D03*
Y366537D02*
D03*
X163779Y509449D02*
D03*
Y515748D02*
D03*
X381496Y486221D02*
D03*
Y479921D02*
D03*
X212598Y788976D02*
D03*
Y795276D02*
D03*
X51575Y395669D02*
D03*
Y401968D02*
D03*
X184646Y486221D02*
D03*
Y479921D02*
D03*
X426772Y788976D02*
D03*
Y795276D02*
D03*
X219685Y94882D02*
D03*
Y88583D02*
D03*
X5512Y94882D02*
D03*
Y88583D02*
D03*
X173228Y673228D02*
D03*
Y666929D02*
D03*
X259449Y211417D02*
D03*
Y217717D02*
D03*
X266142Y211417D02*
D03*
Y217717D02*
D03*
X205512Y211024D02*
D03*
Y217323D02*
D03*
X212205Y211024D02*
D03*
Y217323D02*
D03*
X226772Y673228D02*
D03*
Y666929D02*
D03*
X220079Y673228D02*
D03*
Y666929D02*
D03*
X166142Y673228D02*
D03*
Y666929D02*
D03*
X458287Y627559D02*
D03*
Y621260D02*
D03*
X51968Y788976D02*
D03*
Y795276D02*
D03*
X266142Y788976D02*
D03*
Y795276D02*
D03*
X380315Y94882D02*
D03*
Y88583D02*
D03*
X166142Y94882D02*
D03*
Y88583D02*
D03*
X512402Y368307D02*
D03*
Y374606D02*
D03*
D109*
X106693Y784055D02*
D03*
Y780512D02*
D03*
X320866Y784055D02*
D03*
Y780512D02*
D03*
X477953Y367520D02*
D03*
Y363976D02*
D03*
X325590Y99803D02*
D03*
Y103347D02*
D03*
X111417Y99803D02*
D03*
Y103347D02*
D03*
X510630Y403150D02*
D03*
Y399606D02*
D03*
X508858Y383465D02*
D03*
Y387008D02*
D03*
X160236Y784055D02*
D03*
Y780512D02*
D03*
X374410Y784055D02*
D03*
Y780512D02*
D03*
X272047Y99803D02*
D03*
Y103347D02*
D03*
X57874Y99803D02*
D03*
Y103347D02*
D03*
X472441Y367520D02*
D03*
Y363976D02*
D03*
X213779Y784055D02*
D03*
Y780512D02*
D03*
X427953Y784055D02*
D03*
Y780512D02*
D03*
X392933Y424606D02*
D03*
Y421063D02*
D03*
X388996Y424606D02*
D03*
Y421063D02*
D03*
X218504Y99803D02*
D03*
Y103347D02*
D03*
X4331Y99803D02*
D03*
Y103347D02*
D03*
X457874Y542717D02*
D03*
Y539173D02*
D03*
X389784Y400197D02*
D03*
Y396654D02*
D03*
X462992Y572638D02*
D03*
Y576181D02*
D03*
X393721Y400197D02*
D03*
Y396654D02*
D03*
X53150Y784055D02*
D03*
Y780512D02*
D03*
X267323Y784055D02*
D03*
Y780512D02*
D03*
X379134Y99803D02*
D03*
Y103347D02*
D03*
X164961Y99803D02*
D03*
Y103347D02*
D03*
D110*
X439764Y395669D02*
D03*
X436221D02*
D03*
X483661Y430709D02*
D03*
X487205D02*
D03*
D111*
X337953Y386221D02*
D03*
X335276D02*
D03*
X141102D02*
D03*
X138425D02*
D03*
X291968Y495669D02*
D03*
X294646D02*
D03*
X95118D02*
D03*
X97795D02*
D03*
D112*
X512402Y596654D02*
D03*
X508661D02*
D03*
X504921D02*
D03*
Y586024D02*
D03*
X512402D02*
D03*
D113*
X368367Y451824D02*
D03*
Y459304D02*
D03*
X378997D02*
D03*
Y455564D02*
D03*
Y451824D02*
D03*
X261617Y430118D02*
D03*
Y422638D02*
D03*
X250987D02*
D03*
Y426378D02*
D03*
Y430118D02*
D03*
X64767Y430018D02*
D03*
Y422538D02*
D03*
X54137D02*
D03*
Y426278D02*
D03*
Y430018D02*
D03*
X171457Y451772D02*
D03*
Y459252D02*
D03*
X182087D02*
D03*
Y455512D02*
D03*
Y451772D02*
D03*
D114*
X441732Y37008D02*
D03*
Y10236D02*
D03*
Y846850D02*
D03*
Y873622D02*
D03*
X227559Y846850D02*
D03*
Y873622D02*
D03*
X334646Y846850D02*
D03*
Y873622D02*
D03*
X120472Y846850D02*
D03*
Y873622D02*
D03*
Y37008D02*
D03*
Y10236D02*
D03*
X334646Y37008D02*
D03*
Y10236D02*
D03*
X227559Y37008D02*
D03*
Y10236D02*
D03*
D115*
X480709Y674803D02*
D03*
Y659055D02*
D03*
X482677Y586614D02*
D03*
Y602362D02*
D03*
X468504D02*
D03*
Y586614D02*
D03*
D116*
X314173Y494095D02*
D03*
X315748Y387795D02*
D03*
X496260Y362205D02*
D03*
Y352362D02*
D03*
X486417Y362205D02*
D03*
X118898Y387795D02*
D03*
X486417Y352362D02*
D03*
X436221Y417323D02*
D03*
X459646Y432283D02*
D03*
X443701Y424016D02*
D03*
X438583Y432677D02*
D03*
X503150Y438583D02*
D03*
X448425Y432677D02*
D03*
X528346Y419685D02*
D03*
X445276Y410630D02*
D03*
X435827Y407480D02*
D03*
X304331Y494095D02*
D03*
X325590Y387795D02*
D03*
X128740D02*
D03*
X107480Y494095D02*
D03*
X518504Y409646D02*
D03*
X528346Y409842D02*
D03*
X472244Y437795D02*
D03*
X438189Y389764D02*
D03*
Y379921D02*
D03*
X503543Y428740D02*
D03*
X513386D02*
D03*
X523228D02*
D03*
X509842Y414764D02*
D03*
X518504Y419488D02*
D03*
X464567Y444095D02*
D03*
X518504Y399803D02*
D03*
X528346Y400000D02*
D03*
X117323Y494095D02*
D03*
D117*
X513779Y489764D02*
D03*
Y507087D02*
D03*
D118*
X526968Y388307D02*
D03*
Y378307D02*
D03*
Y368307D02*
D03*
Y358307D02*
D03*
Y348307D02*
D03*
D119*
X190551Y845472D02*
D03*
X174016D02*
D03*
X157480D02*
D03*
X190551Y867126D02*
D03*
X174016D02*
D03*
X157480D02*
D03*
X404724Y845472D02*
D03*
X388189D02*
D03*
X371654D02*
D03*
X404724Y867126D02*
D03*
X388189D02*
D03*
X371654D02*
D03*
X297638Y845472D02*
D03*
X281102D02*
D03*
X264567D02*
D03*
X297638Y867126D02*
D03*
X281102D02*
D03*
X264567D02*
D03*
X50394Y38386D02*
D03*
X66929D02*
D03*
X83465D02*
D03*
X50394Y16732D02*
D03*
X66929D02*
D03*
X83465D02*
D03*
X157480Y38386D02*
D03*
X174016D02*
D03*
X190551D02*
D03*
X157480Y16732D02*
D03*
X174016D02*
D03*
X190551D02*
D03*
X371654Y38386D02*
D03*
X388189D02*
D03*
X404724D02*
D03*
X371654Y16732D02*
D03*
X388189D02*
D03*
X404724D02*
D03*
X264567Y38386D02*
D03*
X281102D02*
D03*
X297638D02*
D03*
X264567Y16732D02*
D03*
X281102D02*
D03*
X297638D02*
D03*
X83465Y845472D02*
D03*
X66929D02*
D03*
X50394D02*
D03*
X83465Y867126D02*
D03*
X66929D02*
D03*
X50394D02*
D03*
D120*
X510630Y661811D02*
D03*
Y675591D02*
D03*
Y689370D02*
D03*
D121*
X19685Y440945D02*
D03*
X515748Y862205D02*
D03*
X19685D02*
D03*
X515748Y19685D02*
D03*
X19685D02*
D03*
X413386Y244094D02*
D03*
X216535D02*
D03*
X19685D02*
D03*
X413386Y440945D02*
D03*
Y637795D02*
D03*
X19685D02*
D03*
X216535D02*
D03*
Y440945D02*
D03*
M02*
