%
T1C.2F0S0
X42200Y155900
X42200Y157500
X42200Y156700
X43000Y156700
X43000Y155900
X43000Y157500
X43800Y154300
X43800Y155900
X43800Y157500
X43800Y152700
X43800Y153500
X43800Y155100
X43800Y156700
X44600Y153500
X44600Y155100
X44600Y156700
X44600Y154300
X44600Y155900
X44600Y157500
X45400Y155900
X45400Y157500
X45400Y154300
X45400Y152700
X45400Y153500
X45400Y155100
X45400Y156700
X46200Y153500
X46200Y155100
X46200Y156700
X46200Y154300
X46200Y155900
X46200Y157500
X47000Y155900
X47000Y157500
X47000Y154300
X47000Y152700
X47000Y153500
X47000Y155100
X47000Y156700
X47800Y155100
X47800Y156700
X47800Y153500
X47800Y154300
X47800Y155900
X47800Y157500
X48600Y155900
X48600Y157500
X48600Y154300
X48600Y152700
X48600Y153500
X48600Y155100
X48600Y156700
X49400Y153500
X49400Y155100
X49400Y154300
X49400Y156700
X49400Y155900
X49400Y157500
X50200Y155900
X50200Y157500
X50200Y152700
X50200Y153500
X50200Y155100
X50200Y156700
X51800Y153500
X51800Y155100
X51800Y156700
X51800Y154300
X51800Y155900
X51800Y157500
X52600Y154300
X52600Y155900
X52600Y157500
X52600Y152700
X52600Y153500
X52600Y155100
X52600Y156700
X53400Y153500
X53400Y155100
X53400Y156700
X53400Y154300
X53400Y155900
X53400Y157500
X54200Y155900
X54200Y157500
X54200Y154300
X54200Y153500
X54200Y155100
X54200Y156700
X55000Y152700
X55000Y153500
X55000Y155100
X55000Y156700
X55000Y154300
X55000Y155900
X55000Y157500
X55800Y155900
X55800Y157500
X55800Y154300
X55800Y152700
X55800Y153500
X55800Y155100
X55800Y156700
X56600Y153500
X56600Y155100
X56600Y156700
X56600Y154300
X56600Y155900
X56600Y157500
X57400Y154300
X57400Y155900
X57400Y157500
X57400Y152700
X57400Y153500
X57400Y155100
X57400Y156700
X58200Y156700
X58200Y155100
X58200Y153500
X58200Y154300
X58200Y155900
X58200Y157500
X59000Y157500
X59000Y154300
X59000Y155900
X59000Y152700
X59000Y153500
X59000Y155100
X59000Y156700
X59800Y156700
X59800Y155100
X59800Y154300
X59800Y155900
X59800Y157500
X87100Y143100
X59800Y158300
X59800Y159900
X59800Y162300
X59800Y163900
X59800Y159100
X59800Y160700
X59800Y163100
X59000Y159100
X59000Y160700
X59000Y163100
X59000Y158300
X59000Y159900
X59000Y162300
X59000Y163900
X58200Y158300
X58200Y159900
X58200Y162300
X58200Y163900
X58200Y159100
X58200Y160700
X58200Y163100
X57400Y159100
X57400Y160700
X57400Y163100
X57400Y158300
X57400Y159900
X57400Y162300
X57400Y163900
X56600Y158300
X56600Y159900
X56600Y162300
X56600Y163900
X56600Y159100
X56600Y160700
X56600Y163100
X55800Y159100
X55800Y160700
X55800Y163100
X55800Y158300
X55800Y159900
X55800Y162300
X55800Y163900
X55000Y158300
X55000Y159900
X55000Y162300
X55000Y163900
X55000Y159100
X55000Y160700
X55000Y163100
X54200Y159100
X54200Y160700
X54200Y163100
X54200Y158300
X54200Y159900
X54200Y162300
X54200Y163900
X53400Y158300
X53400Y159900
X53400Y162300
X53400Y163900
X53400Y159100
X53400Y160700
X53400Y163100
X52600Y159100
X52600Y160700
X52600Y163100
X52600Y158300
X52600Y159900
X52600Y162300
X52600Y163900
X51800Y158300
X51800Y159900
X51800Y162300
X51800Y163900
X51800Y159100
X51800Y160700
X51800Y163100
X50200Y158300
X50200Y159100
X50200Y160700
X50200Y163100
X50200Y159900
X50200Y162300
X50200Y163900
X49400Y160700
X49400Y163100
X49400Y159100
X49400Y158300
X49400Y159900
X49400Y162300
X49400Y163900
X48600Y159100
X48600Y160700
X48600Y163100
X48600Y158300
X48600Y159900
X48600Y162300
X48600Y163900
X47800Y159100
X47800Y160700
X47800Y163100
X47800Y158300
X47800Y159900
X47800Y162300
X47800Y163900
X47000Y159900
X47000Y162300
X47000Y163900
X47000Y158300
X47000Y159100
X47000Y160700
X47000Y163100
X46200Y159100
X46200Y160700
X46200Y163100
X46200Y158300
X46200Y159900
X46200Y162300
X46200Y163900
X45400Y159100
X45400Y160700
X45400Y163100
X45400Y158300
X45400Y159900
X45400Y162300
X45400Y163900
X44600Y159100
X44600Y160700
X44600Y163100
X44600Y158300
X44600Y159900
X44600Y162300
X44600Y163900
X43800Y158300
X43800Y159100
X43800Y160700
X43800Y163100
X43800Y159900
X43800Y162300
X43800Y163900
X43000Y158300
X43000Y159100
X43000Y160700
X43000Y163100
X43000Y159900
X43000Y162300
X43000Y163900
X42200Y160700
X42200Y163100
X42200Y158300
X42200Y159100
X42200Y159900
X42200Y162300
X42200Y163900
X42200Y164700
X42200Y165500
X42200Y167100
X42200Y166300
X42200Y167900
X42200Y169500
X42200Y168700
X43000Y164700
X43000Y166300
X43000Y165500
X43000Y167100
X43000Y168700
X43000Y170300
X43000Y167900
X43000Y169500
X43800Y165500
X43800Y167100
X43800Y164700
X43800Y166300
X43800Y167900
X43800Y169500
X43800Y168700
X43800Y170300
X44600Y167100
X44600Y164700
X44600Y166300
X44600Y168700
X44600Y170300
X44600Y165500
X44600Y167900
X44600Y169500
X45400Y165500
X45400Y167100
X45400Y164700
X45400Y166300
X45400Y167900
X45400Y169500
X45400Y168700
X45400Y170300
X46200Y164700
X46200Y166300
X46200Y165500
X46200Y167100
X46200Y168700
X46200Y170300
X46200Y167900
X46200Y169500
X47000Y164700
X47000Y166300
X47000Y165500
X47000Y167100
X47000Y167900
X47000Y169500
X47000Y168700
X47000Y170300
X47800Y165500
X47800Y167100
X47800Y168700
X47800Y170300
X47800Y164700
X47800Y166300
X47800Y167900
X47800Y169500
X48600Y167900
X48600Y169500
X48600Y165500
X48600Y166300
X48600Y164700
X48600Y167100
X48600Y168700
X48600Y170300
X49400Y166300
X49400Y167100
X49400Y168700
X49400Y170300
X49400Y165500
X49400Y164700
X49400Y167900
X49400Y169500
X50200Y165500
X50200Y167100
X50200Y166300
X50200Y167900
X50200Y169500
X50200Y164700
X50200Y168700
X50200Y170300
X51800Y164700
X51800Y165500
X51800Y167100
X51800Y166300
X51800Y168700
X51800Y170300
X51800Y167900
X51800Y169500
X52600Y166300
X52600Y165500
X52600Y167100
X52600Y164700
X52600Y167900
X52600Y169500
X52600Y168700
X52600Y170300
X53400Y165500
X53400Y164700
X53400Y167100
X53400Y166300
X53400Y168700
X53400Y170300
X53400Y167900
X53400Y169500
X54200Y165500
X54200Y164700
X54200Y166300
X54200Y167900
X54200Y169500
X54200Y167100
X54200Y168700
X54200Y170300
X55000Y164700
X55000Y166300
X55000Y165500
X55000Y167100
X55000Y168700
X55000Y170300
X55000Y167900
X55000Y169500
X55800Y166300
X55800Y164700
X55800Y167900
X55800Y169500
X55800Y165500
X55800Y167100
X55800Y168700
X55800Y170300
X56600Y164700
X56600Y166300
X56600Y168700
X56600Y170300
X56600Y165500
X56600Y167100
X56600Y167900
X56600Y169500
X57400Y167900
X57400Y169500
X57400Y167100
X57400Y166300
X57400Y164700
X57400Y165500
X57400Y168700
X57400Y170300
X58200Y167100
X58200Y165500
X58200Y168700
X58200Y166300
X58200Y170300
X58200Y164700
X58200Y167900
X58200Y169500
X59000Y166300
X59000Y167100
X59000Y167900
X59000Y169500
X59000Y165500
X59000Y164700
X59000Y168700
X59000Y170300
X59800Y168700
X59800Y167100
X59800Y165500
X59800Y164700
X59800Y166300
X59800Y167900
X59800Y169500
T2C.3F95S300
X36000Y134000
X36700Y134000
X37400Y134000
X38100Y134000
X43900Y134000
X44600Y134000
X45300Y134000
X46000Y134000
X51900Y134000
X52600Y134000
X53300Y134000
X54000Y134000
X59900Y134000
X60600Y134000
X61300Y134000
X62000Y134000
X68000Y134000
X68700Y134000
X69400Y134000
X70100Y134000
X82000Y132500
X83500Y134000
X84000Y132500
X86000Y136500
X86000Y132500
X88000Y132500
X88500Y134000
X90000Y132500
X90400Y134900
X92000Y132500
X94000Y132500
X94600Y138600
X96000Y132500
X98000Y132500
X100000Y132500
X102000Y132500
X104000Y132500
X105500Y138800
X106000Y132500
X108000Y132500
X114000Y132500
X116000Y132500
X118000Y132500
X120000Y132500
X120000Y136500
X120000Y134500
X120000Y138500
X120000Y144500
X120000Y142500
X120000Y140500
X118500Y141500
X118500Y144000
X113500Y143500
X112200Y143500
X106400Y144800
X102200Y141300
X100800Y141300
X94600Y140100
X90700Y139500
X86000Y141500
X83500Y139000
X78700Y144700
X78700Y143900
X78700Y143100
X78700Y142300
X73300Y143100
X73300Y144700
X73300Y142300
X73300Y143900
X71000Y141500
X68500Y144000
X66000Y141500
X63500Y144000
X61000Y141500
X58500Y144000
X56000Y141500
X53500Y144000
X51000Y141500
X48500Y144000
X46000Y141500
X43500Y144000
X41000Y141500
X38500Y144000
X36000Y141500
X33500Y144000
X31000Y141500
X28800Y143100
X28800Y143900
X28800Y144700
X28800Y142300
X23300Y146300
X23300Y147100
X23300Y147900
X23300Y148700
X28800Y151000
X28800Y150200
X31000Y146500
X31000Y151500
X33500Y149000
X36000Y146500
X36000Y151500
X38500Y149000
X41000Y146500
X44600Y147300
X45905Y148000
X46505Y149500
X47205Y148700
X51000Y146500
X56000Y146500
X63305Y150640
X66000Y146000
X66300Y151500
X83500Y151500
X88500Y151500
X89000Y148200
X93500Y145500
X96600Y147800
X101300Y147500
X102200Y147500
X103500Y149700
X103505Y146600
X106400Y148300
X106400Y145800
X114300Y145600
X118500Y146500
X120000Y146500
X120000Y150500
X120000Y148500
X120000Y156500
X120000Y154500
X120000Y152500
X105200Y151900
X105200Y152800
X101400Y156600
X88500Y156500
X82700Y157400
X73300Y155800
X73300Y155000
X73300Y154200
X73300Y156600
X71000Y156500
X68500Y154000
X66000Y156500
X42400Y152700
X38500Y154000
X36000Y156500
X33500Y154000
X31000Y156500
X28800Y152600
X28800Y151800
X23305Y155900
X23305Y155100
X23305Y156700
X23305Y154300
X23305Y163200
X23305Y162400
X23305Y164000
X28805Y159100
X28805Y158300
X28805Y160700
X28805Y159900
X31000Y161500
X33500Y159000
X33500Y164000
X36000Y161500
X38500Y159000
X38500Y164000
X63500Y159000
X63500Y164000
X66000Y161500
X68500Y164000
X68500Y159000
X71000Y161500
X73305Y163900
X73305Y163100
X73305Y162300
X78705Y159200
X78705Y160000
X78705Y160800
X78705Y158400
X83500Y164000
X83700Y162100
X88500Y161500
X99000Y162000
X108400Y159500
X113500Y159000
X116000Y161500
X118500Y159000
X120000Y162500
X120000Y160500
X120000Y158500
X120000Y166500
X120000Y164500
X111000Y166500
X108500Y169000
X106600Y170400
X104000Y170300
X89400Y167500
X86000Y166500
X83500Y169000
X78705Y167100
X78705Y166300
X78705Y167900
X78705Y168700
X73305Y170300
X73305Y164700
X71000Y166500
X68500Y169000
X66000Y166500
X63500Y169000
X38500Y169000
X36000Y166500
X33500Y169000
X31000Y166500
X28805Y167900
X28805Y168700
X28805Y167100
X28805Y166300
X23305Y164800
X23305Y170300
X23305Y171100
X23305Y172700
X23305Y171900
X28805Y174200
X28805Y175000
X28805Y175800
X28805Y176600
X31000Y171500
X31000Y176500
X33500Y174000
X36000Y171500
X36000Y176500
X38500Y174000
X41000Y176500
X43500Y174000
X46000Y176500
X48500Y174000
X51000Y176500
X53500Y174000
X56000Y176500
X58500Y174000
X61000Y176500
X63500Y174000
X66000Y171500
X66000Y176500
X68500Y174000
X71000Y176500
X71000Y171500
X73305Y171900
X73305Y171100
X73305Y172700
X78705Y174300
X78705Y175100
X78705Y175900
X78705Y176700
X83500Y174000
X86000Y171500
X86000Y176500
X88500Y174000
X91000Y176500
X104000Y175300
X105800Y172800
X105800Y173900
X106000Y176500
X120000Y176500
X120000Y174500
X120000Y172500
X120000Y182500
X120000Y180500
X111000Y177000
X108500Y179000
X107300Y182600
X96000Y181500
X93500Y179000
X91000Y181500
X88500Y179000
X86000Y181500
X83500Y179000
X73305Y179800
X73305Y180600
X73305Y179000
X73305Y178200
X71000Y181500
X68500Y179000
X66000Y181500
X63500Y179000
X61000Y181500
X58500Y179000
X56000Y181500
X53500Y179000
X51000Y181500
X48500Y179000
X46000Y181500
X43500Y179000
X41000Y181500
X38500Y179000
X36000Y181500
X33500Y179000
X31000Y181500
X23305Y178300
X23305Y179900
X23305Y179100
X23305Y180700
X31900Y189100
X32600Y189100
X33300Y189100
X34000Y189100
X39900Y189100
X40600Y189100
X41300Y189100
X42000Y189100
X47900Y189100
X48600Y189100
X49300Y189100
X50000Y189100
X56000Y189100
X56700Y189100
X57400Y189100
X58100Y189100
X63900Y189100
X64600Y189100
X65300Y189100
X66000Y189100
X108500Y184000
X108500Y189000
X120000Y186500
X120000Y184500
X120000Y188500
X120000Y190500
X120000Y192500
X120000Y194500
X116000Y191500
X111000Y191500
X93300Y195600
X93300Y192100
X93300Y192800
X93300Y193500
X93300Y194200
X93300Y194900
X87000Y192100
X87000Y192800
X87000Y193500
X87000Y194200
X87000Y194900
X87000Y195600
X83500Y194300
X83500Y193600
X83500Y192900
X83500Y192200
X78300Y193000
X78300Y193700
X78300Y194400
X78300Y192300
X77600Y194400
X77600Y193700
X77600Y193000
X77600Y192300
X74700Y195600
X74700Y192100
X74700Y192800
X74700Y193500
X74700Y194200
X74700Y194900
X68400Y192100
X68400Y192800
X68400Y193500
X68400Y194200
X68400Y194900
X68400Y195600
X64900Y194300
X64900Y193600
X64900Y192900
X64900Y192200
X59700Y193000
X59700Y193700
X59700Y194400
X59700Y192300
X59000Y193700
X59000Y194400
X59000Y192300
X59000Y193000
X56100Y194900
X56100Y195600
X56100Y192100
X56100Y192800
X56100Y193500
X56100Y194200
X49800Y192100
X49800Y194200
X49800Y194900
X49800Y195600
X49800Y193500
X49800Y192800
X46300Y192200
X46300Y194300
X46300Y193600
X46300Y192900
X41100Y193700
X41100Y194400
X41100Y192300
X41100Y193000
X40400Y192300
X40400Y194400
X40400Y193700
X40400Y193000
X37500Y192100
X37500Y192800
X37500Y193500
X37500Y194200
X37500Y194900
X37500Y195600
X31200Y194900
X31200Y194200
X31200Y195600
X31200Y192100
X31200Y192800
X31200Y193500
X27700Y192200
X27700Y194300
X27700Y193600
X27700Y192900
X22500Y193000
X22500Y194400
X22500Y193700
X22500Y192300
X21800Y193700
X21800Y192300
X21800Y194400
X21800Y193000
X21800Y196300
X21800Y197700
X21800Y197000
X21800Y200300
X21800Y201000
X21800Y201700
X21800Y198400
X22500Y197000
X22500Y197700
X22500Y196300
X22500Y201700
X22500Y201000
X22500Y200300
X22500Y198400
X27700Y202300
X27700Y201600
X27700Y200900
X27700Y200200
X31200Y196900
X31200Y197600
X31900Y197600
X31900Y196900
X32600Y196900
X32600Y197600
X33300Y196900
X33300Y197600
X34000Y197600
X34000Y196900
X34700Y197600
X34700Y196900
X35400Y197600
X35400Y196900
X36100Y197600
X36100Y196900
X36800Y196900
X36800Y197600
X37500Y197600
X37500Y196900
X40400Y197000
X40400Y197700
X40400Y196300
X40400Y198400
X40400Y201700
X40400Y201000
X40400Y200300
X41100Y197700
X41100Y197000
X41100Y196300
X41100Y200300
X41100Y201000
X41100Y201700
X41100Y198400
X46300Y200900
X46300Y200200
X46300Y202300
X46300Y201600
X49800Y196900
X49800Y197600
X50500Y196900
X50500Y197600
X51200Y197600
X51200Y196900
X51900Y197600
X51900Y196900
X52600Y197600
X52600Y196900
X53300Y196900
X53300Y197600
X54000Y196900
X54000Y197600
X54700Y196900
X54700Y197600
X55400Y196900
X55400Y197600
X56100Y197600
X56100Y196900
X59000Y197700
X59000Y197000
X59000Y196300
X59000Y201000
X59000Y201700
X59000Y198400
X59000Y200300
X59700Y197000
X59700Y197700
X59700Y196300
X59700Y200300
X59700Y201000
X59700Y201700
X59700Y198400
X64900Y200900
X64900Y200200
X64900Y202300
X64900Y201600
X68400Y197600
X68400Y196900
X69100Y196900
X69100Y197600
X69800Y197600
X69800Y196900
X70500Y196900
X70500Y197600
X71200Y197600
X71200Y196900
X71900Y196900
X71900Y197600
X72600Y196900
X72600Y197600
X73300Y196900
X73300Y197600
X74000Y197600
X74000Y196900
X74700Y197600
X74700Y196900
X77600Y197000
X77600Y196300
X77600Y197700
X77600Y201000
X77600Y198400
X77600Y200300
X77600Y201700
X78300Y197700
X78300Y197000
X78300Y196300
X78300Y200300
X78300Y201000
X78300Y201700
X78300Y198400
X83500Y200900
X83500Y200200
X83500Y202300
X83500Y201600
X87000Y196900
X87000Y197600
X87700Y196900
X87700Y197600
X88400Y196900
X88400Y197600
X89100Y196900
X89100Y197600
X89800Y197600
X89800Y196900
X90500Y197600
X90500Y196900
X91200Y197600
X91200Y196900
X91900Y197600
X91900Y196900
X92600Y197600
X92600Y196900
X93300Y196900
X93300Y197600
X103100Y197800
X120000Y196500
X120000Y200500
X120000Y198500
X120000Y204500
X120000Y202500
X120000Y206500
X120000Y208500
X103200Y207200
X96900Y207200
X86600Y204300
X86600Y202700
X86600Y203500
X86600Y205100
X79300Y207700
X78300Y205000
X78300Y205700
X78300Y206400
X78300Y204300
X78300Y202400
X77600Y204300
X77600Y206400
X77600Y205700
X77600Y205000
X77600Y202400
X68000Y203500
X68000Y204300
X68000Y205100
X68000Y202700
X60600Y207700
X59700Y204300
X59700Y202400
X59700Y205000
X59700Y205700
X59700Y206400
X59000Y204300
X59000Y206400
X59000Y202400
X59000Y205000
X59000Y205700
X49300Y204200
X49300Y205000
X49300Y202600
X49300Y203400
X42100Y207700
X41100Y205000
X41100Y204300
X41100Y202400
X41100Y205700
X41100Y206400
X40400Y205700
X40400Y206400
X40400Y202400
X40400Y205000
X40400Y204300
X30700Y204300
X30700Y205100
X30700Y203500
X30700Y202700
X22500Y202400
X22500Y205700
X22500Y205000
X22500Y204300
X22500Y206400
X22000Y208500
X21800Y204300
X21800Y205700
X21800Y202400
X21800Y206400
X21800Y205000
X22000Y210500
X22000Y212500
X22000Y214500
X23500Y209000
X23500Y214000
X28500Y214000
X31000Y211500
X32300Y209900
X32300Y210700
X32300Y211500
X32300Y212300
X32300Y214600
X32300Y213800
X33100Y209900
X33100Y211500
X33100Y212300
X33100Y210700
X33100Y213800
X33100Y214600
X33900Y210700
X33900Y209900
X34700Y210700
X34700Y209900
X35100Y212800
X35100Y213500
X35100Y214200
X35500Y210700
X35500Y209900
X36000Y212800
X36000Y213500
X36000Y214200
X36300Y210700
X36300Y209900
X36900Y213500
X36900Y214200
X36900Y212800
X38000Y210700
X38100Y212700
X38100Y213400
X38100Y214100
X38900Y212700
X38900Y213400
X38900Y214100
X40300Y211300
X42800Y211700
X50900Y209900
X50900Y210700
X50900Y211500
X50900Y212300
X50900Y214600
X50900Y213800
X51700Y209900
X51700Y210700
X51700Y212300
X51700Y211500
X51700Y214600
X51700Y213800
X52500Y210700
X52500Y209900
X53300Y210700
X53300Y209900
X53700Y214200
X53700Y213500
X53700Y212800
X54100Y210700
X54100Y209900
X54600Y213500
X54600Y214200
X54600Y212800
X54900Y210700
X54900Y209900
X55500Y212800
X55500Y213500
X55500Y214200
X56600Y210700
X56700Y212700
X56700Y213400
X56700Y214100
X57500Y214100
X57500Y212700
X57500Y213400
X58900Y211300
X61400Y211700
X69500Y210700
X69500Y211500
X69500Y209900
X69500Y212300
X69500Y214600
X69500Y213800
X70300Y209900
X70300Y211500
X70300Y212300
X70300Y210700
X70300Y213800
X70300Y214600
X71100Y209900
X71100Y210700
X71900Y209900
X71900Y210700
X72300Y214200
X72300Y213500
X72300Y212800
X72700Y210700
X72700Y209900
X73200Y214200
X73200Y212800
X73200Y213500
X73500Y209900
X73500Y210700
X74100Y213500
X74100Y212800
X74100Y214200
X75200Y210700
X75300Y214100
X75300Y212700
X75300Y213400
X76100Y213400
X76100Y212700
X76100Y214100
X77500Y211300
X80000Y211700
X88100Y210700
X88100Y211500
X88100Y209900
X88100Y212300
X88100Y214600
X88100Y213800
X88900Y211500
X88900Y210700
X88900Y209900
X88900Y212300
X88900Y213800
X88900Y214600
X89700Y210700
X89700Y209900
X90500Y209900
X90500Y210700
X90900Y214200
X90900Y213500
X90900Y212800
X91300Y210700
X91300Y209900
X91800Y214200
X91800Y213500
X91800Y212800
X92100Y209900
X92100Y210700
X92700Y213500
X92700Y214200
X92700Y212800
X93800Y210700
X93900Y214100
X93900Y212700
X93900Y213400
X94700Y213400
X94700Y212700
X94700Y214100
X96100Y211300
X98600Y211700
X120000Y210500
X120000Y212500
X120000Y214500
X120000Y218500
X120000Y220500
X96600Y217800
X96600Y219400
X96600Y218600
X95800Y217800
X95800Y219400
X95800Y218600
X95000Y219400
X95000Y218600
X94700Y215100
X94700Y215800
X94700Y216500
X94200Y219400
X94200Y218600
X93900Y215800
X93900Y215100
X93900Y216500
X93400Y219400
X92700Y216500
X92700Y215100
X92700Y215800
X92100Y218600
X91800Y215800
X91800Y216500
X91800Y215100
X91300Y219400
X91300Y218600
X90900Y215100
X90900Y215800
X90900Y216500
X90500Y219400
X90500Y218600
X89700Y217800
X89700Y219400
X89700Y218600
X88900Y215400
X88900Y216200
X88900Y217000
X88900Y217800
X88900Y219400
X88900Y218600
X88100Y217800
X88100Y217000
X88100Y216200
X88100Y215400
X88100Y218600
X88100Y219400
X86000Y216500
X86000Y219000
X78000Y219400
X78000Y218600
X78000Y217800
X77200Y217800
X77200Y219400
X77200Y218600
X76400Y219400
X76400Y218600
X76100Y216500
X76100Y215100
X76100Y215800
X75600Y219400
X75600Y218600
X75300Y215800
X75300Y215100
X75300Y216500
X74800Y219400
X74100Y216500
X74100Y215800
X74100Y215100
X73500Y218600
X73200Y216500
X73200Y215100
X73200Y215800
X72700Y219400
X72700Y218600
X72300Y215100
X72300Y215800
X72300Y216500
X71900Y219400
X71900Y218600
X71100Y217800
X71100Y219400
X71100Y218600
X70300Y215400
X70300Y216200
X70300Y217000
X70300Y217800
X70300Y219400
X70300Y218600
X69500Y216200
X69500Y215400
X69500Y217800
X69500Y217000
X69500Y218600
X69500Y219400
X67000Y216500
X67000Y219000
X59400Y219400
X59400Y218600
X59400Y217800
X58600Y219400
X58600Y218600
X58600Y217800
X57800Y219400
X57800Y218600
X57500Y215100
X57500Y215800
X57500Y216500
X57000Y219400
X57000Y218600
X56700Y215100
X56700Y215800
X56700Y216500
X56200Y219400
X55500Y215800
X55500Y216500
X55500Y215100
X54900Y218600
X54600Y216500
X54600Y215800
X54600Y215100
X54100Y218600
X54100Y219400
X53700Y215800
X53700Y216500
X53700Y215100
X53300Y218600
X53300Y219400
X52500Y219400
X52500Y218600
X52500Y217800
X51700Y219400
X51700Y218600
X51700Y217800
X51700Y215400
X51700Y217000
X51700Y216200
X50900Y217800
X50900Y216200
X50900Y218600
X50900Y215400
X50900Y217000
X50900Y219400
X48500Y219000
X48500Y216500
X40800Y218600
X40800Y219400
X40800Y217800
X40000Y217800
X40000Y219400
X40000Y218600
X39200Y218600
X39200Y219400
X38900Y215100
X38900Y216500
X38900Y215800
X38400Y219400
X38400Y218600
X38100Y216500
X38100Y215100
X38100Y215800
X37600Y219400
X36900Y215100
X36900Y216500
X36900Y215800
X36300Y218600
X36000Y215800
X36000Y216500
X36000Y215100
X35500Y219400
X35500Y218600
X35100Y215800
X35100Y216500
X35100Y215100
X34700Y218600
X34700Y219400
X33900Y217800
X33900Y218600
X33900Y219400
X33100Y215400
X33100Y218600
X33100Y217000
X33100Y217800
X33100Y216200
X33100Y219400
X32300Y219400
X32300Y216200
X32300Y217000
X32300Y215400
X32300Y217800
X32300Y218600
X31000Y216500
X28500Y219000
X23500Y219000
X22000Y220500
X22000Y218500
X22000Y216500
X22000Y222500
X22000Y224500
X22000Y226500
X26000Y221500
X31000Y221500
X37600Y223800
X37600Y224600
X37600Y225400
X37600Y223000
X38400Y223800
X38400Y223000
X38400Y224600
X38400Y225400
X39200Y223000
X39200Y224600
X39200Y225400
X39200Y223800
X40000Y223800
X40000Y224600
X40000Y225400
X40000Y223000
X40800Y224600
X40800Y225400
X40800Y223800
X40800Y223000
X48500Y221500
X56200Y223800
X56200Y225400
X56200Y224600
X56200Y223000
X57000Y225400
X57000Y224600
X57000Y223000
X57000Y223800
X57800Y223800
X57800Y225400
X57800Y223000
X57800Y224600
X58600Y223800
X58600Y225400
X58600Y223000
X58600Y224600
X59400Y223800
X59400Y223000
X59400Y224600
X59400Y225400
X67000Y221500
X74800Y223000
X74800Y225400
X74800Y224600
X74800Y223800
X75600Y223000
X75600Y224600
X75600Y225400
X75600Y223800
X76400Y225400
X76400Y224600
X76400Y223000
X76400Y223800
X77200Y223800
X77200Y223000
X77200Y224600
X77200Y225400
X78000Y223800
X78000Y223000
X78000Y225400
X78000Y224600
X86000Y221500
X93400Y223800
X93400Y224600
X93400Y225400
X93400Y223000
X94200Y224600
X94200Y225400
X94200Y223800
X94200Y223000
X95000Y225400
X95000Y224600
X95000Y223800
X95000Y223000
X95800Y224600
X95800Y225400
X95800Y223000
X95800Y223800
X96600Y224600
X96600Y223000
X96600Y225400
X96600Y223800
X120000Y222500
X120000Y224500
X120000Y226500
X120000Y228500
X120000Y230500
X118000Y230500
X116000Y230500
X114000Y230500
X112000Y230500
X110000Y230500
X108000Y230500
X106000Y230500
X104000Y230500
X102000Y230500
X100000Y230500
X98000Y230500
X96000Y230500
X94000Y230500
X92000Y230500
X90000Y230500
X88000Y230500
X86000Y230500
X84000Y230500
X82000Y230500
X80000Y230500
X78000Y230500
X76000Y230500
X74000Y230500
X72000Y230500
X70000Y230500
X68000Y230500
X66000Y230500
X64000Y230500
X62000Y230500
X60000Y230500
X58000Y230500
X56000Y230500
X54000Y230500
X52000Y230500
X50000Y230500
X48000Y230500
X46000Y230500
X44000Y230500
X42000Y230500
X40000Y230500
X38000Y230500
X36000Y230500
X34000Y230500
X32000Y230500
X30000Y230500
X28000Y230500
X26000Y230500
X24000Y230500
X22000Y230500
X22000Y228500
T3C.9F197S550
X116600Y171700
X116600Y176100
T4C1.F197S550
X108700Y196800G85X108700Y194400
X112450Y200600G85X110950Y200600
X114700Y196450G85X114700Y194750
T5C1.15F139S550
X99970Y134150
X102510Y134150
X105050Y134150
X107590Y134150
X110130Y134150
X110570Y175170
X110570Y172630
X108030Y172630
X108030Y175170
T6C1.2F139S550
X26200Y212100
X26200Y215600
X26200Y219100
T7C1.8F81S550
X107950Y205600
X113450Y205600
X113450Y214000
X113450Y209800
X107950Y209800
X107950Y214000
T8C4.F35S900
X26000Y136500
X76000Y136500
X116000Y136500
X76000Y186500
X26000Y186500
X26000Y226500
X116000Y226500
M30
