*
*
G04 PADS VX.0 Build Number: 635560 generated Gerber (RS-274-X) file*
G04 PC Version=2.1*
*
%IN "RockerBox_1_SiC780A_Rev"*%
*
%MOMM*%
*
%FSLAX33Y33*%
*
*
*
*
G04 PC Standard Apertures*
*
*
G04 Thermal Relief Aperture macro.*
%AMTER*
1,1,$1,0,0*
1,0,$1-$2,0,0*
21,0,$3,$4,0,0,45*
21,0,$3,$4,0,0,135*
%
*
*
G04 Annular Aperture macro.*
%AMANN*
1,1,$1,0,0*
1,0,$2,0,0*
%
*
*
G04 Odd Aperture macro.*
%AMODD*
1,1,$1,0,0*
1,0,$1-0.005,0,0*
%
*
*
G04 PC Custom Aperture Macros*
*
*
*
*
*
*
G04 PC Aperture Table*
*
%ADD010C,0.025*%
%ADD033C,0.2*%
%ADD035C,0.15*%
%ADD041C,0.1*%
%ADD042C,0.05*%
%ADD062C,0.25*%
*
*
*
*
G04 PC Circuitry*
G04 Layer Name RockerBox_1_SiC780A_Rev - circuitry*
%LPD*%
*
*
G04 PC Custom Flashes*
G04 Layer Name RockerBox_1_SiC780A_Rev - flashes*
%LPD*%
*
*
G04 PC Circuitry*
G04 Layer Name RockerBox_1_SiC780A_Rev - circuitry*
%LPD*%
*
G54D10*
G54D33*
G01X41500Y171000D02*
X60500D01*
Y152000*
X41500*
Y171000*
X60500Y170800D02*
X60300Y171000D01*
X60500Y170600D02*
X60100Y171000D01*
X60500Y170400D02*
X59900Y171000D01*
X60500Y170200D02*
X59700Y171000D01*
X60500Y170000D02*
X59500Y171000D01*
X77211Y211889D02*
Y211839D01*
X77211D02*
X77011Y211639D01*
X77011D02*
X76961D01*
X71211Y211889D02*
Y211639D01*
X71211D02*
X71461D01*
X77211Y217389D02*
Y217639D01*
X77211D02*
X76961D01*
X71211Y217389D02*
Y217639D01*
X71211D02*
X71461D01*
X95811Y211889D02*
Y211839D01*
X95811D02*
X95611Y211639D01*
X95611D02*
X95561D01*
X89811Y211889D02*
Y211639D01*
X89811D02*
X90061D01*
X95811Y217389D02*
Y217639D01*
X95811D02*
X95561D01*
X89811Y217389D02*
Y217639D01*
X89811D02*
X90061D01*
X40011Y211889D02*
Y211839D01*
X40011D02*
X39811Y211639D01*
X39811D02*
X39761D01*
X34011Y211889D02*
Y211639D01*
X34011D02*
X34261D01*
X40011Y217389D02*
Y217639D01*
X40011D02*
X39761D01*
X34011Y217389D02*
Y217639D01*
X34011D02*
X34261D01*
X58611Y211889D02*
Y211839D01*
X58611D02*
X58411Y211639D01*
X58411D02*
X58361D01*
X52611Y211889D02*
Y211639D01*
X52611D02*
X52861D01*
X58611Y217389D02*
Y217639D01*
X58611D02*
X58361D01*
X52611Y217389D02*
Y217639D01*
X52611D02*
X52861D01*
X10700Y7978D02*
X10938Y6600D01*
X11177Y7978D02*
X10938Y6600D01*
X11177Y7978D02*
X11415Y6600D01*
X11654Y7978D02*
X11415Y6600D01*
X12084Y7125D02*
X12656D01*
X12656D02*
Y7256D01*
X12656D02*
X12609Y7387D01*
X12609D02*
X12561Y7453D01*
X12465Y7518*
X12465D02*
X12322D01*
X12322D02*
X12227Y7453D01*
X12131Y7321*
X12131D02*
X12084Y7125D01*
Y6993*
X12084D02*
X12131Y6796D01*
X12131D02*
X12227Y6665D01*
X12227D02*
X12322Y6600D01*
X12322D02*
X12465D01*
X12465D02*
X12561Y6665D01*
X12561D02*
X12656Y6796D01*
X14184Y7518D02*
Y6600D01*
Y7125D02*
X14231Y7321D01*
X14231D02*
X14327Y7453D01*
X14422Y7518*
X14422D02*
X14565D01*
X14995Y7125D02*
X15568D01*
Y7256*
X15520Y7387*
X15520D02*
X15472Y7453D01*
X15472D02*
X15377Y7518D01*
X15377D02*
X15234D01*
X15234D02*
X15138Y7453D01*
X15138D02*
X15043Y7321D01*
X15043D02*
X14995Y7125D01*
Y6993*
X14995D02*
X15043Y6796D01*
X15043D02*
X15138Y6665D01*
X15138D02*
X15234Y6600D01*
X15377*
X15472Y6665*
X15472D02*
X15568Y6796D01*
X16522Y7321D02*
X16475Y7453D01*
X16331Y7518*
X16331D02*
X16188D01*
X16188D02*
X16045Y7453D01*
X15997Y7321*
X15997D02*
X16045Y7190D01*
X16045D02*
X16140Y7125D01*
X16140D02*
X16379Y7059D01*
X16379D02*
X16475Y6993D01*
X16475D02*
X16522Y6862D01*
X16522D02*
Y6796D01*
X16522D02*
X16475Y6665D01*
X16475D02*
X16331Y6600D01*
X16331D02*
X16188D01*
X16188D02*
X16045Y6665D01*
X16045D02*
X15997Y6796D01*
X16952Y7125D02*
X17525D01*
Y7256*
X17477Y7387*
X17477D02*
X17429Y7453D01*
X17429D02*
X17334Y7518D01*
X17334D02*
X17190D01*
X17190D02*
X17095Y7453D01*
X17000Y7321*
X17000D02*
X16952Y7125D01*
Y6993*
X16952D02*
X17000Y6796D01*
X17000D02*
X17095Y6665D01*
X17095D02*
X17190Y6600D01*
X17190D02*
X17334D01*
X17429Y6665*
X17429D02*
X17525Y6796D01*
X17954Y7518D02*
Y6600D01*
Y7125D02*
X18002Y7321D01*
X18002D02*
X18097Y7453D01*
X18097D02*
X18193Y7518D01*
X18193D02*
X18336D01*
X18765D02*
X19052Y6600D01*
X19338Y7518D02*
X19052Y6600D01*
X19768Y7125D02*
X20340D01*
X20340D02*
Y7256D01*
X20340D02*
X20293Y7387D01*
X20293D02*
X20245Y7453D01*
X20150Y7518*
X20150D02*
X20006D01*
X20006D02*
X19911Y7453D01*
X19815Y7321*
X19815D02*
X19768Y7125D01*
Y6993*
X19768D02*
X19815Y6796D01*
X19815D02*
X19911Y6665D01*
X19911D02*
X20006Y6600D01*
X20006D02*
X20150D01*
X20245Y6665*
X20245D02*
X20340Y6796D01*
X22440Y7518D02*
Y6600D01*
Y7321D02*
X22345Y7453D01*
X22250Y7518*
X22250D02*
X22106D01*
X22106D02*
X22011Y7453D01*
X21915Y7321*
X21915D02*
X21868Y7125D01*
Y6993*
X21868D02*
X21915Y6796D01*
X21915D02*
X22011Y6665D01*
X22011D02*
X22106Y6600D01*
X22106D02*
X22250D01*
X22345Y6665*
X22345D02*
X22440Y6796D01*
X22870Y7978D02*
Y6600D01*
X23300Y7978D02*
Y6600D01*
X24827Y7518D02*
Y6600D01*
Y7125D02*
X24875Y7321D01*
X24875D02*
X24970Y7453D01*
X25065Y7518*
X25065D02*
X25209D01*
X25638Y7978D02*
X25686Y7912D01*
X25686D02*
X25734Y7978D01*
X25686Y8043*
X25686D02*
X25638Y7978D01*
X25686Y7518D02*
Y6600D01*
X26736Y7518D02*
Y6468D01*
X26736D02*
X26688Y6271D01*
X26688D02*
X26640Y6206D01*
X26640D02*
X26545Y6140D01*
X26545D02*
X26402D01*
X26402D02*
X26306Y6206D01*
X26736Y7321D02*
X26640Y7453D01*
X26640D02*
X26545Y7518D01*
X26545D02*
X26402D01*
X26402D02*
X26306Y7453D01*
X26306D02*
X26211Y7321D01*
X26211D02*
X26163Y7125D01*
X26163D02*
Y6993D01*
X26163D02*
X26211Y6796D01*
X26211D02*
X26306Y6665D01*
X26306D02*
X26402Y6600D01*
X26545*
X26640Y6665*
X26640D02*
X26736Y6796D01*
X27165Y7978D02*
Y6600D01*
Y7256D02*
X27309Y7453D01*
X27404Y7518*
X27404D02*
X27547D01*
X27547D02*
X27643Y7453D01*
X27690Y7256*
X27690D02*
Y6600D01*
X28263Y7978D02*
Y6862D01*
X28263D02*
X28311Y6665D01*
X28311D02*
X28406Y6600D01*
X28406D02*
X28502D01*
X28120Y7518D02*
X28454D01*
X29456Y7321D02*
X29409Y7453D01*
X29265Y7518*
X29265D02*
X29122D01*
X29122D02*
X28979Y7453D01*
X28979D02*
X28931Y7321D01*
X28931D02*
X28979Y7190D01*
X28979D02*
X29075Y7125D01*
X29313Y7059*
X29313D02*
X29409Y6993D01*
X29409D02*
X29456Y6862D01*
X29456D02*
Y6796D01*
X29456D02*
X29409Y6665D01*
X29409D02*
X29265Y6600D01*
X29265D02*
X29122D01*
X29122D02*
X28979Y6665D01*
X28979D02*
X28931Y6796D01*
X31222Y7518D02*
X31127Y7453D01*
X31031Y7321*
X31031D02*
X30984Y7125D01*
Y6993*
X30984D02*
X31031Y6796D01*
X31031D02*
X31127Y6665D01*
X31127D02*
X31222Y6600D01*
X31222D02*
X31365D01*
X31365D02*
X31461Y6665D01*
X31461D02*
X31556Y6796D01*
X31556D02*
X31604Y6993D01*
X31604D02*
Y7125D01*
X31604D02*
X31556Y7321D01*
X31556D02*
X31461Y7453D01*
X31365Y7518*
X31365D02*
X31222D01*
X32415Y7978D02*
X32320D01*
X32225Y7912*
X32225D02*
X32177Y7715D01*
X32177D02*
Y6600D01*
X32034Y7518D02*
X32368D01*
X34515Y7978D02*
Y6600D01*
Y7321D02*
X34420Y7453D01*
X34325Y7518*
X34325D02*
X34181D01*
X34181D02*
X34086Y7453D01*
X33990Y7321*
X33990D02*
X33943Y7125D01*
Y6993*
X33943D02*
X33990Y6796D01*
X33990D02*
X34086Y6665D01*
X34086D02*
X34181Y6600D01*
X34181D02*
X34325D01*
X34420Y6665*
X34420D02*
X34515Y6796D01*
X34945Y7978D02*
X34993Y7912D01*
X34993D02*
X35040Y7978D01*
X35040D02*
X34993Y8043D01*
X34993D02*
X34945Y7978D01*
X34993Y7518D02*
Y6600D01*
X35995Y7321D02*
X35947Y7453D01*
X35947D02*
X35804Y7518D01*
X35804D02*
X35661D01*
X35661D02*
X35518Y7453D01*
X35470Y7321*
X35470D02*
X35518Y7190D01*
X35518D02*
X35613Y7125D01*
X35613D02*
X35852Y7059D01*
X35947Y6993*
X35947D02*
X35995Y6862D01*
X35995D02*
Y6796D01*
X35995D02*
X35947Y6665D01*
X35947D02*
X35804Y6600D01*
X35804D02*
X35661D01*
X35518Y6665*
X35518D02*
X35470Y6796D01*
X36425Y7518D02*
Y6140D01*
Y7321D02*
X36520Y7453D01*
X36615Y7518*
X36615D02*
X36759D01*
X36759D02*
X36854Y7453D01*
X36854D02*
X36950Y7321D01*
X36950D02*
X36997Y7125D01*
X36997D02*
Y6993D01*
X36997D02*
X36950Y6796D01*
X36950D02*
X36854Y6665D01*
X36854D02*
X36759Y6600D01*
X36615*
X36615D02*
X36520Y6665D01*
X36520D02*
X36425Y6796D01*
X37665Y7518D02*
X37570Y7453D01*
X37475Y7321*
X37475D02*
X37427Y7125D01*
Y6993*
X37427D02*
X37475Y6796D01*
X37475D02*
X37570Y6665D01*
X37570D02*
X37665Y6600D01*
X37665D02*
X37809D01*
X37904Y6665*
X37904D02*
X38000Y6796D01*
X38000D02*
X38047Y6993D01*
X38047D02*
Y7125D01*
X38047D02*
X38000Y7321D01*
X38000D02*
X37904Y7453D01*
X37904D02*
X37809Y7518D01*
X37809D02*
X37665D01*
X39002Y7321D02*
X38954Y7453D01*
X38954D02*
X38811Y7518D01*
X38811D02*
X38668D01*
X38668D02*
X38525Y7453D01*
X38477Y7321*
X38477D02*
X38525Y7190D01*
X38525D02*
X38620Y7125D01*
X38859Y7059*
X38954Y6993*
X38954D02*
X39002Y6862D01*
X39002D02*
Y6796D01*
X39002D02*
X38954Y6665D01*
X38954D02*
X38811Y6600D01*
X38668*
X38525Y6665*
X38525D02*
X38477Y6796D01*
X40004Y7518D02*
Y6600D01*
Y7321D02*
X39909Y7453D01*
X39813Y7518*
X39813D02*
X39670D01*
X39670D02*
X39575Y7453D01*
X39479Y7321*
X39479D02*
X39431Y7125D01*
X39431D02*
Y6993D01*
X39431D02*
X39479Y6796D01*
X39479D02*
X39575Y6665D01*
X39575D02*
X39670Y6600D01*
X39813*
X39813D02*
X39909Y6665D01*
X39909D02*
X40004Y6796D01*
X40434Y7978D02*
Y6600D01*
X42486Y7321D02*
X42438Y7453D01*
X42438D02*
X42295Y7518D01*
X42295D02*
X42152D01*
X42152D02*
X42009Y7453D01*
X41961Y7321*
X41961D02*
X42009Y7190D01*
X42009D02*
X42104Y7125D01*
X42104D02*
X42343Y7059D01*
X42438Y6993*
X42438D02*
X42486Y6862D01*
X42486D02*
Y6796D01*
X42486D02*
X42438Y6665D01*
X42438D02*
X42295Y6600D01*
X42152*
X42009Y6665*
X42009D02*
X41961Y6796D01*
X42915Y7518D02*
Y6862D01*
X42915D02*
X42963Y6665D01*
X42963D02*
X43059Y6600D01*
X43202*
X43297Y6665*
X43297D02*
X43440Y6862D01*
Y7518D02*
Y6600D01*
X44443Y7321D02*
X44347Y7453D01*
X44347D02*
X44252Y7518D01*
X44252D02*
X44109D01*
X44109D02*
X44013Y7453D01*
X44013D02*
X43918Y7321D01*
X43918D02*
X43870Y7125D01*
Y6993*
X43870D02*
X43918Y6796D01*
X43918D02*
X44013Y6665D01*
X44013D02*
X44109Y6600D01*
X44252*
X44347Y6665*
X44347D02*
X44443Y6796D01*
X44872Y7978D02*
Y6600D01*
Y7256D02*
X45015Y7453D01*
X45015D02*
X45111Y7518D01*
X45111D02*
X45254D01*
X45254D02*
X45350Y7453D01*
X45397Y7256*
X45397D02*
Y6600D01*
X47497Y7518D02*
Y6600D01*
Y7321D02*
X47402Y7453D01*
X47306Y7518*
X47306D02*
X47163D01*
X47163D02*
X47068Y7453D01*
X46972Y7321*
X46972D02*
X46925Y7125D01*
Y6993*
X46925D02*
X46972Y6796D01*
X46972D02*
X47068Y6665D01*
X47068D02*
X47163Y6600D01*
X47163D02*
X47306D01*
X47306D02*
X47402Y6665D01*
X47402D02*
X47497Y6796D01*
X48452Y7321D02*
X48404Y7453D01*
X48404D02*
X48261Y7518D01*
X48261D02*
X48118D01*
X48118D02*
X47975Y7453D01*
X47927Y7321*
X47927D02*
X47975Y7190D01*
X47975D02*
X48070Y7125D01*
X48309Y7059*
X48404Y6993*
X48404D02*
X48452Y6862D01*
X48452D02*
Y6796D01*
X48452D02*
X48404Y6665D01*
X48404D02*
X48261Y6600D01*
X48118*
X47975Y6665*
X47975D02*
X47927Y6796D01*
X50552Y7321D02*
X50456Y7453D01*
X50456D02*
X50361Y7518D01*
X50361D02*
X50218D01*
X50218D02*
X50122Y7453D01*
X50122D02*
X50027Y7321D01*
X50027D02*
X49979Y7125D01*
X49979D02*
Y6993D01*
X49979D02*
X50027Y6796D01*
X50027D02*
X50122Y6665D01*
X50122D02*
X50218Y6600D01*
X50361*
X50456Y6665*
X50456D02*
X50552Y6796D01*
X51220Y7518D02*
X51125Y7453D01*
X51029Y7321*
X51029D02*
X50981Y7125D01*
X50981D02*
Y6993D01*
X50981D02*
X51029Y6796D01*
X51029D02*
X51125Y6665D01*
X51125D02*
X51220Y6600D01*
X51363*
X51363D02*
X51459Y6665D01*
X51459D02*
X51554Y6796D01*
X51554D02*
X51602Y6993D01*
X51602D02*
Y7125D01*
X51554Y7321*
X51554D02*
X51459Y7453D01*
X51363Y7518*
X51363D02*
X51220D01*
X52031D02*
Y6140D01*
Y7321D02*
X52127Y7453D01*
X52222Y7518*
X52222D02*
X52365D01*
X52365D02*
X52461Y7453D01*
X52556Y7321*
X52556D02*
X52604Y7125D01*
X52604D02*
Y6993D01*
X52604D02*
X52556Y6796D01*
X52556D02*
X52461Y6665D01*
X52461D02*
X52365Y6600D01*
X52365D02*
X52222D01*
X52222D02*
X52127Y6665D01*
X52127D02*
X52031Y6796D01*
X53081Y7518D02*
X53368Y6600D01*
X53654Y7518D02*
X53368Y6600D01*
X53272Y6337*
X53272D02*
X53177Y6206D01*
X53081Y6140*
X53081D02*
X53034D01*
X54084Y7978D02*
X54131Y7912D01*
X54131D02*
X54179Y7978D01*
X54179D02*
X54131Y8043D01*
X54131D02*
X54084Y7978D01*
X54131Y7518D02*
Y6600D01*
X54609Y7518D02*
Y6600D01*
Y7256D02*
X54752Y7453D01*
X54847Y7518*
X54847D02*
X54990D01*
X54990D02*
X55086Y7453D01*
X55134Y7256*
Y6600*
X56136Y7518D02*
Y6468D01*
X56136D02*
X56088Y6271D01*
X56088D02*
X56040Y6206D01*
X56040D02*
X55945Y6140D01*
X55945D02*
X55802D01*
X55802D02*
X55706Y6206D01*
X56136Y7321D02*
X56040Y7453D01*
X56040D02*
X55945Y7518D01*
X55945D02*
X55802D01*
X55802D02*
X55706Y7453D01*
X55706D02*
X55611Y7321D01*
X55611D02*
X55563Y7125D01*
X55563D02*
Y6993D01*
X55563D02*
X55611Y6796D01*
X55611D02*
X55706Y6665D01*
X55706D02*
X55802Y6600D01*
X55945*
X56040Y6665*
X56040D02*
X56136Y6796D01*
X58236Y7518D02*
Y6600D01*
Y7321D02*
X58140Y7453D01*
X58140D02*
X58045Y7518D01*
X58045D02*
X57902D01*
X57902D02*
X57806Y7453D01*
X57806D02*
X57711Y7321D01*
X57711D02*
X57663Y7125D01*
X57663D02*
Y6993D01*
X57663D02*
X57711Y6796D01*
X57711D02*
X57806Y6665D01*
X57806D02*
X57902Y6600D01*
X58045*
X58140Y6665*
X58140D02*
X58236Y6796D01*
X58665Y7518D02*
Y6600D01*
Y7256D02*
X58809Y7453D01*
X58904Y7518*
X58904D02*
X59047D01*
X59047D02*
X59143Y7453D01*
X59190Y7256*
X59190D02*
Y6600D01*
X60193Y7978D02*
Y6600D01*
Y7321D02*
X60097Y7453D01*
X60097D02*
X60002Y7518D01*
X60002D02*
X59859D01*
X59859D02*
X59763Y7453D01*
X59763D02*
X59668Y7321D01*
X59668D02*
X59620Y7125D01*
Y6993*
X59620D02*
X59668Y6796D01*
X59668D02*
X59763Y6665D01*
X59763D02*
X59859Y6600D01*
X60002*
X60097Y6665*
X60097D02*
X60193Y6796D01*
X61720Y7518D02*
Y6140D01*
Y7321D02*
X61815Y7453D01*
X61815D02*
X61911Y7518D01*
X61911D02*
X62054D01*
X62054D02*
X62150Y7453D01*
X62245Y7321*
X62245D02*
X62293Y7125D01*
Y6993*
X62293D02*
X62245Y6796D01*
X62245D02*
X62150Y6665D01*
X62150D02*
X62054Y6600D01*
X62054D02*
X61911D01*
X61815Y6665*
X61815D02*
X61720Y6796D01*
X63295Y7518D02*
Y6600D01*
Y7321D02*
X63200Y7453D01*
X63104Y7518*
X63104D02*
X62961D01*
X62961D02*
X62865Y7453D01*
X62865D02*
X62770Y7321D01*
X62770D02*
X62722Y7125D01*
X62722D02*
Y6993D01*
X62722D02*
X62770Y6796D01*
X62770D02*
X62865Y6665D01*
X62865D02*
X62961Y6600D01*
X63104*
X63104D02*
X63200Y6665D01*
X63200D02*
X63295Y6796D01*
X64250Y7321D02*
X64202Y7453D01*
X64059Y7518*
X64059D02*
X63915D01*
X63915D02*
X63772Y7453D01*
X63772D02*
X63725Y7321D01*
X63725D02*
X63772Y7190D01*
X63772D02*
X63868Y7125D01*
X64106Y7059*
X64106D02*
X64202Y6993D01*
X64202D02*
X64250Y6862D01*
X64250D02*
Y6796D01*
X64250D02*
X64202Y6665D01*
X64202D02*
X64059Y6600D01*
X63915*
X63915D02*
X63772Y6665D01*
X63772D02*
X63725Y6796D01*
X65204Y7321D02*
X65156Y7453D01*
X65156D02*
X65013Y7518D01*
X65013D02*
X64870D01*
X64870D02*
X64727Y7453D01*
X64679Y7321*
X64679D02*
X64727Y7190D01*
X64727D02*
X64822Y7125D01*
X64822D02*
X65061Y7059D01*
X65156Y6993*
X65156D02*
X65204Y6862D01*
X65204D02*
Y6796D01*
X65204D02*
X65156Y6665D01*
X65156D02*
X65013Y6600D01*
X65013D02*
X64870D01*
X64727Y6665*
X64727D02*
X64679Y6796D01*
X65634Y7978D02*
X65681Y7912D01*
X65681D02*
X65729Y7978D01*
X65729D02*
X65681Y8043D01*
X65681D02*
X65634Y7978D01*
X65681Y7518D02*
Y6600D01*
X66159Y7518D02*
Y6600D01*
Y7256D02*
X66302Y7453D01*
X66397Y7518*
X66397D02*
X66540D01*
X66540D02*
X66636Y7453D01*
X66684Y7256*
Y6600*
X67686Y7518D02*
Y6468D01*
X67686D02*
X67638Y6271D01*
X67638D02*
X67590Y6206D01*
X67590D02*
X67495Y6140D01*
X67495D02*
X67352D01*
X67352D02*
X67256Y6206D01*
X67686Y7321D02*
X67590Y7453D01*
X67590D02*
X67495Y7518D01*
X67495D02*
X67352D01*
X67352D02*
X67256Y7453D01*
X67256D02*
X67161Y7321D01*
X67161D02*
X67113Y7125D01*
X67113D02*
Y6993D01*
X67113D02*
X67161Y6796D01*
X67161D02*
X67256Y6665D01*
X67256D02*
X67352Y6600D01*
X67495*
X67590Y6665*
X67590D02*
X67686Y6796D01*
X69452Y7518D02*
X69356Y7453D01*
X69356D02*
X69261Y7321D01*
X69261D02*
X69213Y7125D01*
X69213D02*
Y6993D01*
X69213D02*
X69261Y6796D01*
X69261D02*
X69356Y6665D01*
X69356D02*
X69452Y6600D01*
X69595*
X69690Y6665*
X69690D02*
X69786Y6796D01*
X69786D02*
X69834Y6993D01*
X69834D02*
Y7125D01*
X69786Y7321*
X69786D02*
X69690Y7453D01*
X69690D02*
X69595Y7518D01*
X69595D02*
X69452D01*
X70263D02*
Y6600D01*
Y7256D02*
X70406Y7453D01*
X70406D02*
X70502Y7518D01*
X70502D02*
X70645D01*
X70645D02*
X70740Y7453D01*
X70740D02*
X70788Y7256D01*
X70788D02*
Y6600D01*
X72459Y7978D02*
Y6862D01*
X72459D02*
X72506Y6665D01*
X72506D02*
X72602Y6600D01*
X72697*
X72315Y7518D02*
X72650D01*
X73365D02*
X73270Y7453D01*
X73175Y7321*
X73175D02*
X73127Y7125D01*
Y6993*
X73127D02*
X73175Y6796D01*
X73175D02*
X73270Y6665D01*
X73270D02*
X73365Y6600D01*
X73365D02*
X73509D01*
X73604Y6665*
X73604D02*
X73700Y6796D01*
X73700D02*
X73747Y6993D01*
X73747D02*
Y7125D01*
X73747D02*
X73700Y7321D01*
X73700D02*
X73604Y7453D01*
X73604D02*
X73509Y7518D01*
X73509D02*
X73365D01*
X75418Y7978D02*
Y6862D01*
X75418D02*
X75465Y6665D01*
X75465D02*
X75561Y6600D01*
X75656*
X75275Y7518D02*
X75609D01*
X76086Y7978D02*
Y6600D01*
Y7256D02*
X76229Y7453D01*
X76229D02*
X76325Y7518D01*
X76325D02*
X76468D01*
X76468D02*
X76563Y7453D01*
X76563D02*
X76611Y7256D01*
Y6600*
X77040Y7978D02*
X77088Y7912D01*
X77088D02*
X77136Y7978D01*
X77088Y8043*
X77088D02*
X77040Y7978D01*
X77088Y7518D02*
Y6600D01*
X77565Y7518D02*
Y6600D01*
Y7125D02*
X77613Y7321D01*
X77613D02*
X77709Y7453D01*
X77804Y7518*
X77804D02*
X77947D01*
X78950Y7978D02*
Y6600D01*
Y7321D02*
X78854Y7453D01*
X78854D02*
X78759Y7518D01*
X78759D02*
X78615D01*
X78615D02*
X78520Y7453D01*
X78425Y7321*
X78425D02*
X78377Y7125D01*
Y6993*
X78377D02*
X78425Y6796D01*
X78425D02*
X78520Y6665D01*
X78520D02*
X78615Y6600D01*
X78615D02*
X78759D01*
X78854Y6665*
X78854D02*
X78950Y6796D01*
X80477Y7518D02*
Y6140D01*
Y7321D02*
X80572Y7453D01*
X80572D02*
X80668Y7518D01*
X80668D02*
X80811D01*
X80811D02*
X80906Y7453D01*
X80906D02*
X81002Y7321D01*
X81002D02*
X81050Y7125D01*
Y6993*
X81050D02*
X81002Y6796D01*
X81002D02*
X80906Y6665D01*
X80906D02*
X80811Y6600D01*
X80668*
X80572Y6665*
X80572D02*
X80477Y6796D01*
X82052Y7518D02*
Y6600D01*
Y7321D02*
X81956Y7453D01*
X81956D02*
X81861Y7518D01*
X81861D02*
X81718D01*
X81718D02*
X81622Y7453D01*
X81622D02*
X81527Y7321D01*
X81527D02*
X81479Y7125D01*
X81479D02*
Y6993D01*
X81479D02*
X81527Y6796D01*
X81527D02*
X81622Y6665D01*
X81622D02*
X81718Y6600D01*
X81861*
X81956Y6665*
X81956D02*
X82052Y6796D01*
X82481Y7518D02*
Y6600D01*
Y7125D02*
X82529Y7321D01*
X82529D02*
X82625Y7453D01*
X82720Y7518*
X82720D02*
X82863D01*
X83436Y7978D02*
Y6862D01*
X83436D02*
X83484Y6665D01*
X83484D02*
X83579Y6600D01*
X83579D02*
X83675D01*
X83293Y7518D02*
X83627D01*
X84104Y7978D02*
X84152Y7912D01*
X84152D02*
X84200Y7978D01*
X84152Y8043*
X84152D02*
X84104Y7978D01*
X84152Y7518D02*
Y6600D01*
X84629Y7125D02*
X85202D01*
Y7256*
X85154Y7387*
X85154D02*
X85106Y7453D01*
X85106D02*
X85011Y7518D01*
X85011D02*
X84868D01*
X84868D02*
X84772Y7453D01*
X84772D02*
X84677Y7321D01*
X84677D02*
X84629Y7125D01*
X84629D02*
Y6993D01*
X84629D02*
X84677Y6796D01*
X84677D02*
X84772Y6665D01*
X84772D02*
X84868Y6600D01*
X85011*
X85106Y6665*
X85106D02*
X85202Y6796D01*
X86156Y7321D02*
X86109Y7453D01*
X85965Y7518*
X85965D02*
X85822D01*
X85822D02*
X85679Y7453D01*
X85679D02*
X85631Y7321D01*
X85631D02*
X85679Y7190D01*
X85679D02*
X85775Y7125D01*
X86013Y7059*
X86013D02*
X86109Y6993D01*
X86109D02*
X86156Y6862D01*
X86156D02*
Y6796D01*
X86156D02*
X86109Y6665D01*
X86109D02*
X85965Y6600D01*
X85965D02*
X85822D01*
X85822D02*
X85679Y6665D01*
X85679D02*
X85631Y6796D01*
X86634Y6731D02*
X86586Y6665D01*
X86586D02*
X86634Y6600D01*
X86681Y6665*
X86681D02*
X86634Y6731D01*
X10750Y11428D02*
Y10050D01*
Y11428D02*
X11179D01*
X11179D02*
X11322Y11362D01*
X11322D02*
X11370Y11296D01*
X11370D02*
X11418Y11165D01*
X11418D02*
Y10968D01*
X11418D02*
X11370Y10837D01*
X11370D02*
X11322Y10771D01*
X11322D02*
X11179Y10706D01*
X11179D02*
X10750D01*
X11847Y10968D02*
Y10050D01*
Y10575D02*
X11895Y10771D01*
X11895D02*
X11990Y10903D01*
X11990D02*
X12086Y10968D01*
X12086D02*
X12229D01*
X12659Y11428D02*
X12706Y11362D01*
X12706D02*
X12754Y11428D01*
X12754D02*
X12706Y11493D01*
X12706D02*
X12659Y11428D01*
X12706Y10968D02*
Y10050D01*
X13184Y10968D02*
Y10050D01*
Y10706D02*
X13327Y10903D01*
X13422Y10968*
X13422D02*
X13565D01*
X13565D02*
X13661Y10903D01*
X13709Y10706*
Y10050*
X14281Y11428D02*
Y10312D01*
X14281D02*
X14329Y10115D01*
X14329D02*
X14425Y10050D01*
X14520*
X14138Y10968D02*
X14472D01*
X14950Y10575D02*
X15522D01*
X15522D02*
Y10706D01*
X15522D02*
X15475Y10837D01*
X15475D02*
X15427Y10903D01*
X15331Y10968*
X15331D02*
X15188D01*
X15188D02*
X15093Y10903D01*
X14997Y10771*
X14997D02*
X14950Y10575D01*
Y10443*
X14950D02*
X14997Y10246D01*
X14997D02*
X15093Y10115D01*
X15093D02*
X15188Y10050D01*
X15188D02*
X15331D01*
X15331D02*
X15427Y10115D01*
X15427D02*
X15522Y10246D01*
X16525Y11428D02*
Y10050D01*
Y10771D02*
X16429Y10903D01*
X16429D02*
X16334Y10968D01*
X16334D02*
X16190D01*
X16190D02*
X16095Y10903D01*
X16000Y10771*
X16000D02*
X15952Y10575D01*
Y10443*
X15952D02*
X16000Y10246D01*
X16000D02*
X16095Y10115D01*
X16095D02*
X16190Y10050D01*
X16190D02*
X16334D01*
X16429Y10115*
X16429D02*
X16525Y10246D01*
X18625Y10771D02*
X18529Y10903D01*
X18529D02*
X18434Y10968D01*
X18434D02*
X18290D01*
X18290D02*
X18195Y10903D01*
X18100Y10771*
X18100D02*
X18052Y10575D01*
Y10443*
X18052D02*
X18100Y10246D01*
X18100D02*
X18195Y10115D01*
X18195D02*
X18290Y10050D01*
X18290D02*
X18434D01*
X18529Y10115*
X18529D02*
X18625Y10246D01*
X19293Y10968D02*
X19197Y10903D01*
X19197D02*
X19102Y10771D01*
X19102D02*
X19054Y10575D01*
X19054D02*
Y10443D01*
X19054D02*
X19102Y10246D01*
X19102D02*
X19197Y10115D01*
X19197D02*
X19293Y10050D01*
X19436*
X19531Y10115*
X19531D02*
X19627Y10246D01*
X19627D02*
X19675Y10443D01*
X19675D02*
Y10575D01*
X19627Y10771*
X19627D02*
X19531Y10903D01*
X19531D02*
X19436Y10968D01*
X19436D02*
X19293D01*
X20104D02*
Y9590D01*
Y10771D02*
X20200Y10903D01*
X20295Y10968*
X20295D02*
X20438D01*
X20438D02*
X20534Y10903D01*
X20629Y10771*
X20629D02*
X20677Y10575D01*
Y10443*
X20677D02*
X20629Y10246D01*
X20629D02*
X20534Y10115D01*
X20534D02*
X20438Y10050D01*
X20438D02*
X20295D01*
X20200Y10115*
X20200D02*
X20104Y10246D01*
X21106Y11428D02*
X21154Y11362D01*
X21154D02*
X21202Y11428D01*
X21154Y11493*
X21154D02*
X21106Y11428D01*
X21154Y10968D02*
Y10050D01*
X21631Y10575D02*
X22204D01*
X22204D02*
Y10706D01*
X22204D02*
X22156Y10837D01*
X22156D02*
X22109Y10903D01*
X22013Y10968*
X22013D02*
X21870D01*
X21870D02*
X21775Y10903D01*
X21679Y10771*
X21679D02*
X21631Y10575D01*
X21631D02*
Y10443D01*
X21631D02*
X21679Y10246D01*
X21679D02*
X21775Y10115D01*
X21775D02*
X21870Y10050D01*
X22013*
X22013D02*
X22109Y10115D01*
X22109D02*
X22204Y10246D01*
X23159Y10771D02*
X23111Y10903D01*
X22968Y10968*
X22968D02*
X22825D01*
X22825D02*
X22681Y10903D01*
X22681D02*
X22634Y10771D01*
X22634D02*
X22681Y10640D01*
X22681D02*
X22777Y10575D01*
X23015Y10509*
X23015D02*
X23111Y10443D01*
X23111D02*
X23159Y10312D01*
X23159D02*
Y10246D01*
X23159D02*
X23111Y10115D01*
X23111D02*
X22968Y10050D01*
X22825*
X22681Y10115*
X22681D02*
X22634Y10246D01*
X24925Y10968D02*
X24829Y10903D01*
X24829D02*
X24734Y10771D01*
X24734D02*
X24686Y10575D01*
Y10443*
X24686D02*
X24734Y10246D01*
X24734D02*
X24829Y10115D01*
X24829D02*
X24925Y10050D01*
X25068*
X25163Y10115*
X25163D02*
X25259Y10246D01*
X25259D02*
X25306Y10443D01*
X25306D02*
Y10575D01*
X25306D02*
X25259Y10771D01*
X25259D02*
X25163Y10903D01*
X25163D02*
X25068Y10968D01*
X25068D02*
X24925D01*
X26118Y11428D02*
X26022D01*
X26022D02*
X25927Y11362D01*
X25927D02*
X25879Y11165D01*
X25879D02*
Y10050D01*
X25736Y10968D02*
X26070D01*
X27788Y11428D02*
Y10312D01*
X27788D02*
X27836Y10115D01*
X27836D02*
X27931Y10050D01*
X27931D02*
X28027D01*
X27645Y10968D02*
X27979D01*
X28456Y11428D02*
Y10050D01*
Y10706D02*
X28600Y10903D01*
X28695Y10968*
X28695D02*
X28838D01*
X28838D02*
X28934Y10903D01*
X28981Y10706*
X28981D02*
Y10050D01*
X29411Y11428D02*
X29459Y11362D01*
X29459D02*
X29506Y11428D01*
X29506D02*
X29459Y11493D01*
X29459D02*
X29411Y11428D01*
X29459Y10968D02*
Y10050D01*
X30461Y10771D02*
X30413Y10903D01*
X30413D02*
X30270Y10968D01*
X30270D02*
X30127D01*
X30127D02*
X29984Y10903D01*
X29936Y10771*
X29936D02*
X29984Y10640D01*
X29984D02*
X30079Y10575D01*
X30079D02*
X30318Y10509D01*
X30413Y10443*
X30413D02*
X30461Y10312D01*
X30461D02*
Y10246D01*
X30461D02*
X30413Y10115D01*
X30413D02*
X30270Y10050D01*
X30127*
X29984Y10115*
X29984D02*
X29936Y10246D01*
X32561Y11428D02*
Y10050D01*
Y10771D02*
X32465Y10903D01*
X32465D02*
X32370Y10968D01*
X32370D02*
X32227D01*
X32227D02*
X32131Y10903D01*
X32131D02*
X32036Y10771D01*
X32036D02*
X31988Y10575D01*
X31988D02*
Y10443D01*
X31988D02*
X32036Y10246D01*
X32036D02*
X32131Y10115D01*
X32131D02*
X32227Y10050D01*
X32370*
X32465Y10115*
X32465D02*
X32561Y10246D01*
X33229Y10968D02*
X33134Y10903D01*
X33038Y10771*
X33038D02*
X32990Y10575D01*
X32990D02*
Y10443D01*
X32990D02*
X33038Y10246D01*
X33038D02*
X33134Y10115D01*
X33134D02*
X33229Y10050D01*
X33229D02*
X33372D01*
X33372D02*
X33468Y10115D01*
X33468D02*
X33563Y10246D01*
X33563D02*
X33611Y10443D01*
X33611D02*
Y10575D01*
X33563Y10771*
X33563D02*
X33468Y10903D01*
X33372Y10968*
X33372D02*
X33229D01*
X34613Y10771D02*
X34518Y10903D01*
X34422Y10968*
X34422D02*
X34279D01*
X34279D02*
X34184Y10903D01*
X34088Y10771*
X34088D02*
X34040Y10575D01*
X34040D02*
Y10443D01*
X34040D02*
X34088Y10246D01*
X34088D02*
X34184Y10115D01*
X34184D02*
X34279Y10050D01*
X34279D02*
X34422D01*
X34422D02*
X34518Y10115D01*
X34518D02*
X34613Y10246D01*
X35043Y10968D02*
Y10312D01*
X35043D02*
X35090Y10115D01*
X35090D02*
X35186Y10050D01*
X35329*
X35329D02*
X35425Y10115D01*
X35425D02*
X35568Y10312D01*
Y10968D02*
Y10050D01*
X35997Y10968D02*
Y10050D01*
Y10706D02*
X36140Y10903D01*
X36140D02*
X36236Y10968D01*
X36236D02*
X36379D01*
X36379D02*
X36475Y10903D01*
X36522Y10706*
X36522D02*
Y10050D01*
Y10706D02*
X36665Y10903D01*
X36665D02*
X36761Y10968D01*
X36761D02*
X36904D01*
X36904D02*
X37000Y10903D01*
X37047Y10706*
X37047D02*
Y10050D01*
X37477Y10575D02*
X38050D01*
Y10706*
X38002Y10837*
X38002D02*
X37954Y10903D01*
X37954D02*
X37859Y10968D01*
X37859D02*
X37715D01*
X37715D02*
X37620Y10903D01*
X37525Y10771*
X37525D02*
X37477Y10575D01*
Y10443*
X37477D02*
X37525Y10246D01*
X37525D02*
X37620Y10115D01*
X37620D02*
X37715Y10050D01*
X37715D02*
X37859D01*
X37954Y10115*
X37954D02*
X38050Y10246D01*
X38479Y10968D02*
Y10050D01*
Y10706D02*
X38622Y10903D01*
X38622D02*
X38718Y10968D01*
X38718D02*
X38861D01*
X38861D02*
X38956Y10903D01*
X38956D02*
X39004Y10706D01*
X39004D02*
Y10050D01*
X39577Y11428D02*
Y10312D01*
X39577D02*
X39625Y10115D01*
X39625D02*
X39720Y10050D01*
X39815*
X39434Y10968D02*
X39768D01*
X41915D02*
Y10050D01*
Y10771D02*
X41820Y10903D01*
X41725Y10968*
X41725D02*
X41581D01*
X41581D02*
X41486Y10903D01*
X41390Y10771*
X41390D02*
X41343Y10575D01*
Y10443*
X41343D02*
X41390Y10246D01*
X41390D02*
X41486Y10115D01*
X41486D02*
X41581Y10050D01*
X41581D02*
X41725D01*
X41820Y10115*
X41820D02*
X41915Y10246D01*
X42345Y10968D02*
Y10050D01*
Y10575D02*
X42393Y10771D01*
X42393D02*
X42488Y10903D01*
X42488D02*
X42584Y10968D01*
X42584D02*
X42727D01*
X43156Y10575D02*
X43729D01*
X43729D02*
Y10706D01*
X43729D02*
X43681Y10837D01*
X43681D02*
X43634Y10903D01*
X43538Y10968*
X43538D02*
X43395D01*
X43395D02*
X43300Y10903D01*
X43204Y10771*
X43204D02*
X43156Y10575D01*
X43156D02*
Y10443D01*
X43156D02*
X43204Y10246D01*
X43204D02*
X43300Y10115D01*
X43300D02*
X43395Y10050D01*
X43538*
X43538D02*
X43634Y10115D01*
X43634D02*
X43729Y10246D01*
X45256Y10968D02*
Y10312D01*
X45256D02*
X45304Y10115D01*
X45304D02*
X45400Y10050D01*
X45543*
X45638Y10115*
X45638D02*
X45781Y10312D01*
Y10968D02*
Y10050D01*
X46211Y10968D02*
Y10050D01*
Y10706D02*
X46354Y10903D01*
X46354D02*
X46450Y10968D01*
X46450D02*
X46593D01*
X46593D02*
X46688Y10903D01*
X46688D02*
X46736Y10706D01*
Y10050*
X47738Y10771D02*
X47643Y10903D01*
X47547Y10968*
X47547D02*
X47404D01*
X47404D02*
X47309Y10903D01*
X47213Y10771*
X47213D02*
X47165Y10575D01*
X47165D02*
Y10443D01*
X47165D02*
X47213Y10246D01*
X47213D02*
X47309Y10115D01*
X47309D02*
X47404Y10050D01*
X47404D02*
X47547D01*
X47547D02*
X47643Y10115D01*
X47643D02*
X47738Y10246D01*
X48406Y10968D02*
X48311Y10903D01*
X48215Y10771*
X48215D02*
X48168Y10575D01*
Y10443*
X48168D02*
X48215Y10246D01*
X48215D02*
X48311Y10115D01*
X48311D02*
X48406Y10050D01*
X48406D02*
X48550D01*
X48645Y10115*
X48645D02*
X48740Y10246D01*
X48740D02*
X48788Y10443D01*
X48788D02*
Y10575D01*
X48788D02*
X48740Y10771D01*
X48740D02*
X48645Y10903D01*
X48550Y10968*
X48550D02*
X48406D01*
X49218D02*
Y10050D01*
Y10706D02*
X49361Y10903D01*
X49456Y10968*
X49456D02*
X49600D01*
X49600D02*
X49695Y10903D01*
X49743Y10706*
Y10050*
X50315Y11428D02*
Y10312D01*
X50315D02*
X50363Y10115D01*
X50363D02*
X50459Y10050D01*
X50554*
X50172Y10968D02*
X50506D01*
X50984D02*
Y10050D01*
Y10575D02*
X51031Y10771D01*
X51031D02*
X51127Y10903D01*
X51222Y10968*
X51222D02*
X51365D01*
X52034D02*
X51938Y10903D01*
X51938D02*
X51843Y10771D01*
X51843D02*
X51795Y10575D01*
Y10443*
X51795D02*
X51843Y10246D01*
X51843D02*
X51938Y10115D01*
X51938D02*
X52034Y10050D01*
X52177*
X52272Y10115*
X52272D02*
X52368Y10246D01*
X52368D02*
X52415Y10443D01*
X52415D02*
Y10575D01*
X52415D02*
X52368Y10771D01*
X52368D02*
X52272Y10903D01*
X52272D02*
X52177Y10968D01*
X52177D02*
X52034D01*
X52845Y11428D02*
Y10050D01*
X53275Y11428D02*
Y10050D01*
X53704Y10575D02*
X54277D01*
Y10706*
X54229Y10837*
X54229D02*
X54181Y10903D01*
X54181D02*
X54086Y10968D01*
X54086D02*
X53943D01*
X53943D02*
X53847Y10903D01*
X53847D02*
X53752Y10771D01*
X53752D02*
X53704Y10575D01*
X53704D02*
Y10443D01*
X53704D02*
X53752Y10246D01*
X53752D02*
X53847Y10115D01*
X53847D02*
X53943Y10050D01*
X54086*
X54181Y10115*
X54181D02*
X54277Y10246D01*
X55279Y11428D02*
Y10050D01*
Y10771D02*
X55184Y10903D01*
X55088Y10968*
X55088D02*
X54945D01*
X54945D02*
X54850Y10903D01*
X54754Y10771*
X54754D02*
X54706Y10575D01*
X54706D02*
Y10443D01*
X54706D02*
X54754Y10246D01*
X54754D02*
X54850Y10115D01*
X54850D02*
X54945Y10050D01*
X55088*
X55088D02*
X55184Y10115D01*
X55184D02*
X55279Y10246D01*
X57379Y10968D02*
Y10050D01*
Y10771D02*
X57284Y10903D01*
X57188Y10968*
X57188D02*
X57045D01*
X57045D02*
X56950Y10903D01*
X56854Y10771*
X56854D02*
X56806Y10575D01*
X56806D02*
Y10443D01*
X56806D02*
X56854Y10246D01*
X56854D02*
X56950Y10115D01*
X56950D02*
X57045Y10050D01*
X57188*
X57188D02*
X57284Y10115D01*
X57284D02*
X57379Y10246D01*
X57809Y10968D02*
Y10050D01*
Y10706D02*
X57952Y10903D01*
X58047Y10968*
X58047D02*
X58190D01*
X58190D02*
X58286Y10903D01*
X58334Y10706*
Y10050*
X59336Y11428D02*
Y10050D01*
Y10771D02*
X59240Y10903D01*
X59240D02*
X59145Y10968D01*
X59145D02*
X59002D01*
X59002D02*
X58906Y10903D01*
X58906D02*
X58811Y10771D01*
X58811D02*
X58763Y10575D01*
X58763D02*
Y10443D01*
X58763D02*
X58811Y10246D01*
X58811D02*
X58906Y10115D01*
X58906D02*
X59002Y10050D01*
X59145*
X59240Y10115*
X59240D02*
X59336Y10246D01*
X60863Y10968D02*
Y10050D01*
Y10706D02*
X61006Y10903D01*
X61006D02*
X61102Y10968D01*
X61102D02*
X61245D01*
X61245D02*
X61340Y10903D01*
X61340D02*
X61388Y10706D01*
X61388D02*
Y10050D01*
Y10706D02*
X61531Y10903D01*
X61531D02*
X61627Y10968D01*
X61627D02*
X61770D01*
X61770D02*
X61865Y10903D01*
X61865D02*
X61913Y10706D01*
X61913D02*
Y10050D01*
X62915Y10968D02*
Y10050D01*
Y10771D02*
X62820Y10903D01*
X62725Y10968*
X62725D02*
X62581D01*
X62581D02*
X62486Y10903D01*
X62390Y10771*
X62390D02*
X62343Y10575D01*
Y10443*
X62343D02*
X62390Y10246D01*
X62390D02*
X62486Y10115D01*
X62486D02*
X62581Y10050D01*
X62581D02*
X62725D01*
X62820Y10115*
X62820D02*
X62915Y10246D01*
X63393Y10968D02*
X63679Y10050D01*
X63965Y10968D02*
X63679Y10050D01*
X63679D02*
X63584Y9787D01*
X63584D02*
X63488Y9656D01*
X63488D02*
X63393Y9590D01*
X63393D02*
X63345D01*
X65493Y11428D02*
Y10050D01*
Y11428D02*
X66161Y10050D01*
Y11428D02*
Y10050D01*
X66877Y11428D02*
X66781Y11362D01*
X66781D02*
X66686Y11231D01*
X66638Y11100*
X66638D02*
X66590Y10903D01*
X66590D02*
Y10575D01*
X66590D02*
X66638Y10378D01*
X66638D02*
X66686Y10246D01*
X66686D02*
X66781Y10115D01*
X66781D02*
X66877Y10050D01*
X67068*
X67163Y10115*
X67163D02*
X67259Y10246D01*
X67259D02*
X67306Y10378D01*
X67306D02*
X67354Y10575D01*
X67354D02*
Y10903D01*
X67354D02*
X67306Y11100D01*
X67306D02*
X67259Y11231D01*
X67163Y11362*
X67163D02*
X67068Y11428D01*
X66877*
X68118D02*
Y10050D01*
X67784Y11428D02*
X68452D01*
X69979D02*
Y10050D01*
Y10771D02*
X70075Y10903D01*
X70170Y10968*
X70170D02*
X70313D01*
X70313D02*
X70409Y10903D01*
X70504Y10771*
X70504D02*
X70552Y10575D01*
Y10443*
X70552D02*
X70504Y10246D01*
X70504D02*
X70409Y10115D01*
X70409D02*
X70313Y10050D01*
X70313D02*
X70170D01*
X70075Y10115*
X70075D02*
X69979Y10246D01*
X70981Y10575D02*
X71554D01*
X71554D02*
Y10706D01*
X71554D02*
X71506Y10837D01*
X71506D02*
X71459Y10903D01*
X71363Y10968*
X71363D02*
X71220D01*
X71220D02*
X71125Y10903D01*
X71029Y10771*
X71029D02*
X70981Y10575D01*
X70981D02*
Y10443D01*
X70981D02*
X71029Y10246D01*
X71029D02*
X71125Y10115D01*
X71125D02*
X71220Y10050D01*
X71363*
X71363D02*
X71459Y10115D01*
X71459D02*
X71554Y10246D01*
X73654Y10771D02*
X73559Y10903D01*
X73463Y10968*
X73463D02*
X73320D01*
X73320D02*
X73225Y10903D01*
X73129Y10771*
X73129D02*
X73081Y10575D01*
X73081D02*
Y10443D01*
X73081D02*
X73129Y10246D01*
X73129D02*
X73225Y10115D01*
X73225D02*
X73320Y10050D01*
X73463*
X73463D02*
X73559Y10115D01*
X73559D02*
X73654Y10246D01*
X74084Y10968D02*
Y10312D01*
X74084D02*
X74131Y10115D01*
X74131D02*
X74227Y10050D01*
X74370*
X74465Y10115*
X74465D02*
X74609Y10312D01*
Y10968D02*
Y10050D01*
X75038Y10968D02*
Y10050D01*
Y10575D02*
X75086Y10771D01*
X75086D02*
X75181Y10903D01*
X75181D02*
X75277Y10968D01*
X75277D02*
X75420D01*
X75850D02*
Y10050D01*
Y10575D02*
X75897Y10771D01*
X75897D02*
X75993Y10903D01*
X76088Y10968*
X76088D02*
X76231D01*
X76661Y10575D02*
X77234D01*
Y10706*
X77186Y10837*
X77186D02*
X77138Y10903D01*
X77138D02*
X77043Y10968D01*
X77043D02*
X76900D01*
X76900D02*
X76804Y10903D01*
X76804D02*
X76709Y10771D01*
X76709D02*
X76661Y10575D01*
Y10443*
X76661D02*
X76709Y10246D01*
X76709D02*
X76804Y10115D01*
X76804D02*
X76900Y10050D01*
X77043*
X77138Y10115*
X77138D02*
X77234Y10246D01*
X77663Y10968D02*
Y10050D01*
Y10706D02*
X77806Y10903D01*
X77806D02*
X77902Y10968D01*
X77902D02*
X78045D01*
X78045D02*
X78140Y10903D01*
X78140D02*
X78188Y10706D01*
X78188D02*
Y10050D01*
X78761Y11428D02*
Y10312D01*
X78761D02*
X78809Y10115D01*
X78809D02*
X78904Y10050D01*
X78904D02*
X79000D01*
X78618Y10968D02*
X78952D01*
X79477Y10181D02*
X79429Y10115D01*
X79429D02*
X79477Y10050D01*
X79525Y10115*
X79525D02*
X79477Y10181D01*
X81434Y11428D02*
X81052Y10050D01*
X81434Y11428D02*
X81815Y10050D01*
X81195Y10509D02*
X81672D01*
X82245Y11428D02*
Y10050D01*
X82675Y11428D02*
Y10050D01*
X84202Y11428D02*
X84250Y11362D01*
X84250D02*
X84297Y11428D01*
X84297D02*
X84250Y11493D01*
X84250D02*
X84202Y11428D01*
X84250Y10968D02*
Y10050D01*
X84727Y10968D02*
Y10050D01*
Y10706D02*
X84870Y10903D01*
X84965Y10968*
X84965D02*
X85109D01*
X85109D02*
X85204Y10903D01*
X85204D02*
X85252Y10706D01*
Y10050*
X86063Y11428D02*
X85968D01*
X85872Y11362*
X85872D02*
X85825Y11165D01*
X85825D02*
Y10050D01*
X85681Y10968D02*
X86015D01*
X86731D02*
X86636Y10903D01*
X86540Y10771*
X86540D02*
X86493Y10575D01*
Y10443*
X86493D02*
X86540Y10246D01*
X86540D02*
X86636Y10115D01*
X86636D02*
X86731Y10050D01*
X86731D02*
X86875D01*
X86970Y10115*
X86970D02*
X87065Y10246D01*
X87065D02*
X87113Y10443D01*
X87113D02*
Y10575D01*
X87113D02*
X87065Y10771D01*
X87065D02*
X86970Y10903D01*
X86875Y10968*
X86875D02*
X86731D01*
X87543D02*
Y10050D01*
Y10575D02*
X87590Y10771D01*
X87590D02*
X87686Y10903D01*
X87781Y10968*
X87781D02*
X87925D01*
X88354D02*
Y10050D01*
Y10706D02*
X88497Y10903D01*
X88497D02*
X88593Y10968D01*
X88593D02*
X88736D01*
X88736D02*
X88831Y10903D01*
X88831D02*
X88879Y10706D01*
X88879D02*
Y10050D01*
Y10706D02*
X89022Y10903D01*
X89022D02*
X89118Y10968D01*
X89118D02*
X89261D01*
X89261D02*
X89356Y10903D01*
X89356D02*
X89404Y10706D01*
X89404D02*
Y10050D01*
X90406Y10968D02*
Y10050D01*
Y10771D02*
X90311Y10903D01*
X90215Y10968*
X90215D02*
X90072D01*
X90072D02*
X89977Y10903D01*
X89881Y10771*
X89881D02*
X89834Y10575D01*
Y10443*
X89834D02*
X89881Y10246D01*
X89881D02*
X89977Y10115D01*
X89977D02*
X90072Y10050D01*
X90072D02*
X90215D01*
X90215D02*
X90311Y10115D01*
X90311D02*
X90406Y10246D01*
X90979Y11428D02*
Y10312D01*
X90979D02*
X91027Y10115D01*
X91027D02*
X91122Y10050D01*
X91122D02*
X91218D01*
X90836Y10968D02*
X91170D01*
X91647Y11428D02*
X91695Y11362D01*
X91695D02*
X91743Y11428D01*
X91695Y11493*
X91695D02*
X91647Y11428D01*
X91695Y10968D02*
Y10050D01*
X92411Y10968D02*
X92315Y10903D01*
X92315D02*
X92220Y10771D01*
X92220D02*
X92172Y10575D01*
X92172D02*
Y10443D01*
X92172D02*
X92220Y10246D01*
X92220D02*
X92315Y10115D01*
X92315D02*
X92411Y10050D01*
X92554*
X92554D02*
X92650Y10115D01*
X92650D02*
X92745Y10246D01*
X92745D02*
X92793Y10443D01*
X92793D02*
Y10575D01*
X92745Y10771*
X92745D02*
X92650Y10903D01*
X92554Y10968*
X92554D02*
X92411D01*
X93222D02*
Y10050D01*
Y10706D02*
X93365Y10903D01*
X93365D02*
X93461Y10968D01*
X93461D02*
X93604D01*
X93604D02*
X93700Y10903D01*
X93747Y10706*
X93747D02*
Y10050D01*
X95275Y11428D02*
X95322Y11362D01*
X95322D02*
X95370Y11428D01*
X95322Y11493*
X95322D02*
X95275Y11428D01*
X95322Y10968D02*
Y10050D01*
X96325Y10771D02*
X96277Y10903D01*
X96134Y10968*
X96134D02*
X95990D01*
X95990D02*
X95847Y10903D01*
X95847D02*
X95800Y10771D01*
X95800D02*
X95847Y10640D01*
X95847D02*
X95943Y10575D01*
X96181Y10509*
X96181D02*
X96277Y10443D01*
X96277D02*
X96325Y10312D01*
X96325D02*
Y10246D01*
X96325D02*
X96277Y10115D01*
X96277D02*
X96134Y10050D01*
X95990*
X95990D02*
X95847Y10115D01*
X95847D02*
X95800Y10246D01*
X98377Y10771D02*
X98329Y10903D01*
X98329D02*
X98186Y10968D01*
X98186D02*
X98043D01*
X98043D02*
X97900Y10903D01*
X97852Y10771*
X97852D02*
X97900Y10640D01*
X97900D02*
X97995Y10575D01*
X98234Y10509*
X98329Y10443*
X98329D02*
X98377Y10312D01*
X98377D02*
Y10246D01*
X98377D02*
X98329Y10115D01*
X98329D02*
X98186Y10050D01*
X98043*
X97900Y10115*
X97900D02*
X97852Y10246D01*
X98950Y11428D02*
Y10312D01*
X98950D02*
X98997Y10115D01*
X98997D02*
X99093Y10050D01*
X99188*
X98806Y10968D02*
X99140D01*
X99618D02*
Y10050D01*
Y10575D02*
X99665Y10771D01*
X99665D02*
X99761Y10903D01*
X99856Y10968*
X99856D02*
X100000D01*
X100429Y11428D02*
X100477Y11362D01*
X100477D02*
X100525Y11428D01*
X100477Y11493*
X100477D02*
X100429Y11428D01*
X100477Y10968D02*
Y10050D01*
X101527Y10771D02*
X101431Y10903D01*
X101431D02*
X101336Y10968D01*
X101336D02*
X101193D01*
X101193D02*
X101097Y10903D01*
X101097D02*
X101002Y10771D01*
X101002D02*
X100954Y10575D01*
X100954D02*
Y10443D01*
X100954D02*
X101002Y10246D01*
X101002D02*
X101097Y10115D01*
X101097D02*
X101193Y10050D01*
X101336*
X101431Y10115*
X101431D02*
X101527Y10246D01*
X102100Y11428D02*
Y10312D01*
X102100D02*
X102147Y10115D01*
X102147D02*
X102243Y10050D01*
X102338*
X101956Y10968D02*
X102290D01*
X102768Y11428D02*
Y10050D01*
X103245Y10968D02*
X103531Y10050D01*
X103818Y10968D02*
X103531Y10050D01*
X103531D02*
X103436Y9787D01*
X103436D02*
X103340Y9656D01*
X103340D02*
X103245Y9590D01*
X103245D02*
X103197D01*
X106061Y11100D02*
X106013Y11231D01*
X106013D02*
X105918Y11362D01*
X105918D02*
X105822Y11428D01*
X105822D02*
X105631D01*
X105631D02*
X105536Y11362D01*
X105536D02*
X105440Y11231D01*
X105440D02*
X105393Y11100D01*
X105345Y10903*
Y10575*
X105393Y10378*
X105440Y10246*
X105440D02*
X105536Y10115D01*
X105536D02*
X105631Y10050D01*
X105631D02*
X105822D01*
X105822D02*
X105918Y10115D01*
X105918D02*
X106013Y10246D01*
X106013D02*
X106061Y10378D01*
X106777Y11428D02*
X106681Y11362D01*
X106681D02*
X106586Y11231D01*
X106538Y11100*
X106538D02*
X106490Y10903D01*
X106490D02*
Y10575D01*
X106490D02*
X106538Y10378D01*
X106538D02*
X106586Y10246D01*
X106586D02*
X106681Y10115D01*
X106681D02*
X106777Y10050D01*
X106968*
X107063Y10115*
X107063D02*
X107159Y10246D01*
X107159D02*
X107206Y10378D01*
X107206D02*
X107254Y10575D01*
X107254D02*
Y10903D01*
X107254D02*
X107206Y11100D01*
X107206D02*
X107159Y11231D01*
X107063Y11362*
X107063D02*
X106968Y11428D01*
X106777*
X107684D02*
Y10050D01*
Y11428D02*
X108352Y10050D01*
Y11428D02*
Y10050D01*
X108781Y11428D02*
Y10050D01*
Y11428D02*
X109402D01*
X108781Y10771D02*
X109163D01*
X109831Y11428D02*
Y10050D01*
X110261Y11428D02*
Y10050D01*
Y11428D02*
X110595D01*
X110738Y11362*
X110738D02*
X110834Y11231D01*
X110881Y11100*
X110881D02*
X110929Y10903D01*
X110929D02*
Y10575D01*
X110929D02*
X110881Y10378D01*
X110881D02*
X110834Y10246D01*
X110834D02*
X110738Y10115D01*
X110738D02*
X110595Y10050D01*
X110261*
X111359Y11428D02*
Y10050D01*
Y11428D02*
X111979D01*
X111359Y10771D02*
X111740D01*
X111359Y10050D02*
X111979D01*
X112409Y11428D02*
Y10050D01*
Y11428D02*
X113077Y10050D01*
Y11428D02*
Y10050D01*
X113840Y11428D02*
Y10050D01*
X113506Y11428D02*
X114175D01*
X114604D02*
Y10050D01*
X115415Y11428D02*
X115034Y10050D01*
X115415Y11428D02*
X115797Y10050D01*
X115177Y10509D02*
X115654D01*
X116227Y11428D02*
Y10050D01*
X116800*
X117277Y10181D02*
X117229Y10115D01*
X117229D02*
X117277Y10050D01*
X117325Y10115*
X117325D02*
X117277Y10181D01*
X118850Y11428D02*
Y10050D01*
X119279Y11428D02*
Y10050D01*
Y11428D02*
X119661Y10050D01*
X120043Y11428D02*
X119661Y10050D01*
X120043Y11428D02*
Y10050D01*
X120472Y11428D02*
Y10050D01*
X122715Y11100D02*
X122668Y11231D01*
X122572Y11362*
X122572D02*
X122477Y11428D01*
X122286*
X122190Y11362*
X122190D02*
X122095Y11231D01*
X122047Y11100*
X122047D02*
X122000Y10903D01*
Y10575*
X122047Y10378*
X122047D02*
X122095Y10246D01*
X122095D02*
X122190Y10115D01*
X122190D02*
X122286Y10050D01*
X122477*
X122572Y10115*
X122572D02*
X122668Y10246D01*
X122668D02*
X122715Y10378D01*
X122715D02*
Y10575D01*
X122477D02*
X122715D01*
X123145Y10968D02*
Y10050D01*
Y10575D02*
X123193Y10771D01*
X123193D02*
X123288Y10903D01*
X123288D02*
X123384Y10968D01*
X123384D02*
X123527D01*
X124195D02*
X124100Y10903D01*
X124004Y10771*
X124004D02*
X123956Y10575D01*
X123956D02*
Y10443D01*
X123956D02*
X124004Y10246D01*
X124004D02*
X124100Y10115D01*
X124100D02*
X124195Y10050D01*
X124338*
X124338D02*
X124434Y10115D01*
X124434D02*
X124529Y10246D01*
X124529D02*
X124577Y10443D01*
X124577D02*
Y10575D01*
X124529Y10771*
X124529D02*
X124434Y10903D01*
X124338Y10968*
X124338D02*
X124195D01*
X125006D02*
Y10312D01*
X125006D02*
X125054Y10115D01*
X125054D02*
X125150Y10050D01*
X125293*
X125388Y10115*
X125388D02*
X125531Y10312D01*
Y10968D02*
Y10050D01*
X125961Y10968D02*
Y9590D01*
Y10771D02*
X126056Y10903D01*
X126056D02*
X126152Y10968D01*
X126152D02*
X126295D01*
X126295D02*
X126390Y10903D01*
X126390D02*
X126486Y10771D01*
X126486D02*
X126534Y10575D01*
Y10443*
X126534D02*
X126486Y10246D01*
X126486D02*
X126390Y10115D01*
X126390D02*
X126295Y10050D01*
X126152*
X126056Y10115*
X126056D02*
X125961Y10246D01*
X128061Y10968D02*
Y10050D01*
Y10575D02*
X128109Y10771D01*
X128109D02*
X128204Y10903D01*
X128204D02*
X128300Y10968D01*
X128300D02*
X128443D01*
X128872Y10575D02*
X129445D01*
Y10706*
X129397Y10837*
X129397D02*
X129350Y10903D01*
X129254Y10968*
X129254D02*
X129111D01*
X129111D02*
X129015Y10903D01*
X129015D02*
X128920Y10771D01*
X128920D02*
X128872Y10575D01*
X128872D02*
Y10443D01*
X128872D02*
X128920Y10246D01*
X128920D02*
X129015Y10115D01*
X129015D02*
X129111Y10050D01*
X129254*
X129254D02*
X129350Y10115D01*
X129350D02*
X129445Y10246D01*
X130400Y10771D02*
X130352Y10903D01*
X130209Y10968*
X130209D02*
X130065D01*
X130065D02*
X129922Y10903D01*
X129922D02*
X129875Y10771D01*
X129875D02*
X129922Y10640D01*
X129922D02*
X130018Y10575D01*
X130256Y10509*
X130256D02*
X130352Y10443D01*
X130352D02*
X130400Y10312D01*
X130400D02*
Y10246D01*
X130400D02*
X130352Y10115D01*
X130352D02*
X130209Y10050D01*
X130065*
X130065D02*
X129922Y10115D01*
X129922D02*
X129875Y10246D01*
X130829Y10575D02*
X131402D01*
Y10706*
X131354Y10837*
X131354D02*
X131306Y10903D01*
X131306D02*
X131211Y10968D01*
X131211D02*
X131068D01*
X131068D02*
X130972Y10903D01*
X130972D02*
X130877Y10771D01*
X130877D02*
X130829Y10575D01*
X130829D02*
Y10443D01*
X130829D02*
X130877Y10246D01*
X130877D02*
X130972Y10115D01*
X130972D02*
X131068Y10050D01*
X131211*
X131306Y10115*
X131306D02*
X131402Y10246D01*
X131831Y10968D02*
Y10050D01*
Y10575D02*
X131879Y10771D01*
X131879D02*
X131975Y10903D01*
X132070Y10968*
X132070D02*
X132213D01*
X132643D02*
X132929Y10050D01*
X133215Y10968D02*
X132929Y10050D01*
X133645Y10575D02*
X134218D01*
Y10706*
X134170Y10837*
X134170D02*
X134122Y10903D01*
X134122D02*
X134027Y10968D01*
X134027D02*
X133884D01*
X133884D02*
X133788Y10903D01*
X133788D02*
X133693Y10771D01*
X133693D02*
X133645Y10575D01*
Y10443*
X133645D02*
X133693Y10246D01*
X133693D02*
X133788Y10115D01*
X133788D02*
X133884Y10050D01*
X134027*
X134122Y10115*
X134122D02*
X134218Y10246D01*
X135172Y10771D02*
X135125Y10903D01*
X134981Y10968*
X134981D02*
X134838D01*
X134838D02*
X134695Y10903D01*
X134647Y10771*
X134647D02*
X134695Y10640D01*
X134695D02*
X134790Y10575D01*
X134790D02*
X135029Y10509D01*
X135029D02*
X135125Y10443D01*
X135125D02*
X135172Y10312D01*
X135172D02*
Y10246D01*
X135172D02*
X135125Y10115D01*
X135125D02*
X134981Y10050D01*
X134981D02*
X134838D01*
X134838D02*
X134695Y10115D01*
X134695D02*
X134647Y10246D01*
X137272Y10968D02*
Y10050D01*
Y10771D02*
X137177Y10903D01*
X137081Y10968*
X137081D02*
X136938D01*
X136938D02*
X136843Y10903D01*
X136747Y10771*
X136747D02*
X136700Y10575D01*
Y10443*
X136700D02*
X136747Y10246D01*
X136747D02*
X136843Y10115D01*
X136843D02*
X136938Y10050D01*
X136938D02*
X137081D01*
X137081D02*
X137177Y10115D01*
X137177D02*
X137272Y10246D01*
X137702Y11428D02*
Y10050D01*
X138131Y11428D02*
Y10050D01*
X139659Y10968D02*
Y10050D01*
Y10575D02*
X139706Y10771D01*
X139706D02*
X139802Y10903D01*
X139897Y10968*
X139897D02*
X140040D01*
X140470Y11428D02*
X140518Y11362D01*
X140518D02*
X140565Y11428D01*
X140565D02*
X140518Y11493D01*
X140518D02*
X140470Y11428D01*
X140518Y10968D02*
Y10050D01*
X141568Y10968D02*
Y9918D01*
X141568D02*
X141520Y9721D01*
X141520D02*
X141472Y9656D01*
X141472D02*
X141377Y9590D01*
X141377D02*
X141234D01*
X141234D02*
X141138Y9656D01*
X141568Y10771D02*
X141472Y10903D01*
X141472D02*
X141377Y10968D01*
X141377D02*
X141234D01*
X141234D02*
X141138Y10903D01*
X141138D02*
X141043Y10771D01*
X141043D02*
X140995Y10575D01*
Y10443*
X140995D02*
X141043Y10246D01*
X141043D02*
X141138Y10115D01*
X141138D02*
X141234Y10050D01*
X141377*
X141472Y10115*
X141472D02*
X141568Y10246D01*
X141997Y11428D02*
Y10050D01*
Y10706D02*
X142140Y10903D01*
X142140D02*
X142236Y10968D01*
X142236D02*
X142379D01*
X142379D02*
X142475Y10903D01*
X142522Y10706*
X142522D02*
Y10050D01*
X143095Y11428D02*
Y10312D01*
X143095D02*
X143143Y10115D01*
X143143D02*
X143238Y10050D01*
X143238D02*
X143334D01*
X142952Y10968D02*
X143286D01*
X144288Y10771D02*
X144240Y10903D01*
X144240D02*
X144097Y10968D01*
X144097D02*
X143954D01*
X143954D02*
X143811Y10903D01*
X143763Y10771*
X143763D02*
X143811Y10640D01*
X143811D02*
X143906Y10575D01*
X143906D02*
X144145Y10509D01*
X144240Y10443*
X144240D02*
X144288Y10312D01*
X144288D02*
Y10246D01*
X144288D02*
X144240Y10115D01*
X144240D02*
X144097Y10050D01*
X144097D02*
X143954D01*
X143954D02*
X143811Y10115D01*
X143811D02*
X143763Y10246D01*
X145815Y10575D02*
X146388D01*
X146388D02*
Y10706D01*
X146388D02*
X146340Y10837D01*
X146340D02*
X146293Y10903D01*
X146197Y10968*
X146197D02*
X146054D01*
X146054D02*
X145959Y10903D01*
X145863Y10771*
X145863D02*
X145815Y10575D01*
X145815D02*
Y10443D01*
X145815D02*
X145863Y10246D01*
X145863D02*
X145959Y10115D01*
X145959D02*
X146054Y10050D01*
X146054D02*
X146197D01*
X146197D02*
X146293Y10115D01*
X146293D02*
X146388Y10246D01*
X146818Y10968D02*
X147104Y10050D01*
X147390Y10968D02*
X147104Y10050D01*
X147820Y10575D02*
X148393D01*
Y10706*
X148345Y10837*
X148345D02*
X148297Y10903D01*
X148297D02*
X148202Y10968D01*
X148202D02*
X148059D01*
X148059D02*
X147963Y10903D01*
X147963D02*
X147868Y10771D01*
X147868D02*
X147820Y10575D01*
Y10443*
X147820D02*
X147868Y10246D01*
X147868D02*
X147963Y10115D01*
X147963D02*
X148059Y10050D01*
X148202*
X148297Y10115*
X148297D02*
X148393Y10246D01*
X148822Y10968D02*
Y10050D01*
Y10706D02*
X148965Y10903D01*
X148965D02*
X149061Y10968D01*
X149061D02*
X149204D01*
X149204D02*
X149300Y10903D01*
X149347Y10706*
X149347D02*
Y10050D01*
X150875Y11428D02*
X150922Y11362D01*
X150922D02*
X150970Y11428D01*
X150922Y11493*
X150922D02*
X150875Y11428D01*
X150922Y10968D02*
Y10050D01*
X151400Y10968D02*
Y10050D01*
Y10706D02*
X151543Y10903D01*
X151638Y10968*
X151638D02*
X151781D01*
X151781D02*
X151877Y10903D01*
X151925Y10706*
Y10050*
X153595Y11428D02*
Y10312D01*
X153595D02*
X153643Y10115D01*
X153643D02*
X153738Y10050D01*
X153738D02*
X153834D01*
X153452Y10968D02*
X153786D01*
X154263Y11428D02*
Y10050D01*
Y10706D02*
X154406Y10903D01*
X154406D02*
X154502Y10968D01*
X154502D02*
X154645D01*
X154645D02*
X154740Y10903D01*
X154740D02*
X154788Y10706D01*
X154788D02*
Y10050D01*
X155218Y10575D02*
X155790D01*
X155790D02*
Y10706D01*
X155790D02*
X155743Y10837D01*
X155743D02*
X155695Y10903D01*
X155600Y10968*
X155600D02*
X155456D01*
X155456D02*
X155361Y10903D01*
X155265Y10771*
X155265D02*
X155218Y10575D01*
Y10443*
X155218D02*
X155265Y10246D01*
X155265D02*
X155361Y10115D01*
X155361D02*
X155456Y10050D01*
X155456D02*
X155600D01*
X155695Y10115*
X155695D02*
X155790Y10246D01*
X157318Y10575D02*
X157890D01*
X157890D02*
Y10706D01*
X157890D02*
X157843Y10837D01*
X157843D02*
X157795Y10903D01*
X157700Y10968*
X157700D02*
X157556D01*
X157556D02*
X157461Y10903D01*
X157365Y10771*
X157365D02*
X157318Y10575D01*
Y10443*
X157318D02*
X157365Y10246D01*
X157365D02*
X157461Y10115D01*
X157461D02*
X157556Y10050D01*
X157556D02*
X157700D01*
X157795Y10115*
X157795D02*
X157890Y10246D01*
X158320Y10968D02*
X158606Y10050D01*
X158893Y10968D02*
X158606Y10050D01*
X159322Y10575D02*
X159895D01*
Y10706*
X159847Y10837*
X159847D02*
X159800Y10903D01*
X159704Y10968*
X159704D02*
X159561D01*
X159561D02*
X159465Y10903D01*
X159465D02*
X159370Y10771D01*
X159370D02*
X159322Y10575D01*
X159322D02*
Y10443D01*
X159322D02*
X159370Y10246D01*
X159370D02*
X159465Y10115D01*
X159465D02*
X159561Y10050D01*
X159704*
X159704D02*
X159800Y10115D01*
X159800D02*
X159895Y10246D01*
X160325Y10968D02*
Y10050D01*
Y10706D02*
X160468Y10903D01*
X160563Y10968*
X160563D02*
X160706D01*
X160706D02*
X160802Y10903D01*
X160850Y10706*
Y10050*
X161422Y11428D02*
Y10312D01*
X161422D02*
X161470Y10115D01*
X161470D02*
X161565Y10050D01*
X161565D02*
X161661D01*
X161279Y10968D02*
X161613D01*
X163427D02*
X163331Y10903D01*
X163331D02*
X163236Y10771D01*
X163236D02*
X163188Y10575D01*
X163188D02*
Y10443D01*
X163188D02*
X163236Y10246D01*
X163236D02*
X163331Y10115D01*
X163331D02*
X163427Y10050D01*
X163570*
X163665Y10115*
X163665D02*
X163761Y10246D01*
X163761D02*
X163809Y10443D01*
X163809D02*
Y10575D01*
X163761Y10771*
X163761D02*
X163665Y10903D01*
X163665D02*
X163570Y10968D01*
X163570D02*
X163427D01*
X164620Y11428D02*
X164525D01*
X164429Y11362*
X164429D02*
X164381Y11165D01*
X164381D02*
Y10050D01*
X164238Y10968D02*
X164572D01*
X166147Y11428D02*
X166195Y11362D01*
X166195D02*
X166243Y11428D01*
X166195Y11493*
X166195D02*
X166147Y11428D01*
X166195Y10968D02*
Y10050D01*
X166672Y10968D02*
Y10050D01*
Y10706D02*
X166815Y10903D01*
X166815D02*
X166911Y10968D01*
X166911D02*
X167054D01*
X167054D02*
X167150Y10903D01*
X167197Y10706*
X167197D02*
Y10050D01*
X168200Y11428D02*
Y10050D01*
Y10771D02*
X168104Y10903D01*
X168104D02*
X168009Y10968D01*
X168009D02*
X167865D01*
X167865D02*
X167770Y10903D01*
X167675Y10771*
X167675D02*
X167627Y10575D01*
Y10443*
X167627D02*
X167675Y10246D01*
X167675D02*
X167770Y10115D01*
X167770D02*
X167865Y10050D01*
X167865D02*
X168009D01*
X168104Y10115*
X168104D02*
X168200Y10246D01*
X168629Y10968D02*
Y10312D01*
X168629D02*
X168677Y10115D01*
X168677D02*
X168772Y10050D01*
X168772D02*
X168915D01*
X168915D02*
X169011Y10115D01*
X169011D02*
X169154Y10312D01*
Y10968D02*
Y10050D01*
X170109Y10771D02*
X170061Y10903D01*
X169918Y10968*
X169918D02*
X169775D01*
X169775D02*
X169631Y10903D01*
X169631D02*
X169584Y10771D01*
X169584D02*
X169631Y10640D01*
X169631D02*
X169727Y10575D01*
X169965Y10509*
X169965D02*
X170061Y10443D01*
X170061D02*
X170109Y10312D01*
X170109D02*
Y10246D01*
X170109D02*
X170061Y10115D01*
X170061D02*
X169918Y10050D01*
X169775*
X169631Y10115*
X169631D02*
X169584Y10246D01*
X170681Y11428D02*
Y10312D01*
X170681D02*
X170729Y10115D01*
X170729D02*
X170825Y10050D01*
X170920*
X170538Y10968D02*
X170872D01*
X171350D02*
Y10050D01*
Y10575D02*
X171397Y10771D01*
X171397D02*
X171493Y10903D01*
X171588Y10968*
X171588D02*
X171731D01*
X172161Y11428D02*
X172209Y11362D01*
X172209D02*
X172256Y11428D01*
X172256D02*
X172209Y11493D01*
X172209D02*
X172161Y11428D01*
X172209Y10968D02*
Y10050D01*
X173259Y10968D02*
Y10050D01*
Y10771D02*
X173163Y10903D01*
X173163D02*
X173068Y10968D01*
X173068D02*
X172925D01*
X172925D02*
X172829Y10903D01*
X172829D02*
X172734Y10771D01*
X172734D02*
X172686Y10575D01*
Y10443*
X172686D02*
X172734Y10246D01*
X172734D02*
X172829Y10115D01*
X172829D02*
X172925Y10050D01*
X173068*
X173163Y10115*
X173163D02*
X173259Y10246D01*
X173688Y11428D02*
Y10050D01*
X175215Y10968D02*
Y9590D01*
Y10771D02*
X175311Y10903D01*
X175406Y10968*
X175406D02*
X175550D01*
X175550D02*
X175645Y10903D01*
X175740Y10771*
X175740D02*
X175788Y10575D01*
X175788D02*
Y10443D01*
X175788D02*
X175740Y10246D01*
X175740D02*
X175645Y10115D01*
X175645D02*
X175550Y10050D01*
X175406*
X175406D02*
X175311Y10115D01*
X175311D02*
X175215Y10246D01*
X176218Y10968D02*
Y10050D01*
Y10575D02*
X176265Y10771D01*
X176265D02*
X176361Y10903D01*
X176456Y10968*
X176456D02*
X176600D01*
X177268D02*
X177172Y10903D01*
X177172D02*
X177077Y10771D01*
X177077D02*
X177029Y10575D01*
X177029D02*
Y10443D01*
X177029D02*
X177077Y10246D01*
X177077D02*
X177172Y10115D01*
X177172D02*
X177268Y10050D01*
X177411*
X177506Y10115*
X177506D02*
X177602Y10246D01*
X177602D02*
X177650Y10443D01*
X177650D02*
Y10575D01*
X177602Y10771*
X177602D02*
X177506Y10903D01*
X177506D02*
X177411Y10968D01*
X177411D02*
X177268D01*
X178079D02*
Y9590D01*
Y10771D02*
X178175Y10903D01*
X178270Y10968*
X178270D02*
X178413D01*
X178413D02*
X178509Y10903D01*
X178604Y10771*
X178604D02*
X178652Y10575D01*
Y10443*
X178652D02*
X178604Y10246D01*
X178604D02*
X178509Y10115D01*
X178509D02*
X178413Y10050D01*
X178413D02*
X178270D01*
X178175Y10115*
X178175D02*
X178079Y10246D01*
X179081Y10575D02*
X179654D01*
X179654D02*
Y10706D01*
X179654D02*
X179606Y10837D01*
X179606D02*
X179559Y10903D01*
X179463Y10968*
X179463D02*
X179320D01*
X179320D02*
X179225Y10903D01*
X179129Y10771*
X179129D02*
X179081Y10575D01*
X179081D02*
Y10443D01*
X179081D02*
X179129Y10246D01*
X179129D02*
X179225Y10115D01*
X179225D02*
X179320Y10050D01*
X179463*
X179463D02*
X179559Y10115D01*
X179559D02*
X179654Y10246D01*
X180084Y10968D02*
Y10050D01*
Y10575D02*
X180131Y10771D01*
X180131D02*
X180227Y10903D01*
X180322Y10968*
X180322D02*
X180465D01*
X181038Y11428D02*
Y10312D01*
X181038D02*
X181086Y10115D01*
X181086D02*
X181181Y10050D01*
X181181D02*
X181277D01*
X180895Y10968D02*
X181229D01*
X181754D02*
X182040Y10050D01*
X182327Y10968D02*
X182040Y10050D01*
X182040D02*
X181945Y9787D01*
X181945D02*
X181850Y9656D01*
X181754Y9590*
X181754D02*
X181706D01*
X183854Y10968D02*
Y10050D01*
Y10575D02*
X183902Y10771D01*
X183902D02*
X183997Y10903D01*
X183997D02*
X184093Y10968D01*
X184093D02*
X184236D01*
X184665Y11428D02*
X184713Y11362D01*
X184713D02*
X184761Y11428D01*
X184713Y11493*
X184713D02*
X184665Y11428D01*
X184713Y10968D02*
Y10050D01*
X185763Y10968D02*
Y9918D01*
X185763D02*
X185715Y9721D01*
X185715D02*
X185668Y9656D01*
X185572Y9590*
X185572D02*
X185429D01*
X185429D02*
X185334Y9656D01*
X185763Y10771D02*
X185668Y10903D01*
X185572Y10968*
X185572D02*
X185429D01*
X185429D02*
X185334Y10903D01*
X185238Y10771*
X185238D02*
X185190Y10575D01*
X185190D02*
Y10443D01*
X185190D02*
X185238Y10246D01*
X185238D02*
X185334Y10115D01*
X185334D02*
X185429Y10050D01*
X185429D02*
X185572D01*
X185572D02*
X185668Y10115D01*
X185668D02*
X185763Y10246D01*
X186193Y11428D02*
Y10050D01*
Y10706D02*
X186336Y10903D01*
X186431Y10968*
X186431D02*
X186575D01*
X186575D02*
X186670Y10903D01*
X186718Y10706*
Y10050*
X187290Y11428D02*
Y10312D01*
X187290D02*
X187338Y10115D01*
X187338D02*
X187434Y10050D01*
X187529*
X187147Y10968D02*
X187481D01*
X188484Y10771D02*
X188436Y10903D01*
X188293Y10968*
X188293D02*
X188150D01*
X188150D02*
X188006Y10903D01*
X188006D02*
X187959Y10771D01*
X187959D02*
X188006Y10640D01*
X188006D02*
X188102Y10575D01*
X188340Y10509*
X188340D02*
X188436Y10443D01*
X188436D02*
X188484Y10312D01*
X188484D02*
Y10246D01*
X188484D02*
X188436Y10115D01*
X188436D02*
X188293Y10050D01*
X188150*
X188006Y10115*
X188006D02*
X187959Y10246D01*
X188961Y10181D02*
X188913Y10115D01*
X188913D02*
X188961Y10050D01*
X189009Y10115*
X189009D02*
X188961Y10181D01*
X21000Y231500D02*
X121000D01*
Y131500*
X21000*
Y231500*
G54D35*
X108470Y136800D02*
G75*
G03X108470I-820J0D01*
G01X42670Y215000D02*
G03X42670I-820J0D01*
G01X99807Y144283D02*
Y143383D01*
X99807D02*
X100607D01*
X100607D02*
Y142083D01*
X109157Y153683D02*
X110107D01*
X110107D02*
Y152783D01*
X116620Y148850D02*
G03X116620I-820J0D01*
G01X119120Y148900D02*
G03X119120I-820J0D01*
G01Y151400D02*
G03X119120I-820J0D01*
G01X116620Y151350D02*
G03X116620I-820J0D01*
G01X95620Y150800D02*
G03X95620I-820J0D01*
G01X98020Y151600D02*
G03X98020I-820J0D01*
G01X98820Y157200D02*
G03X98820I-820J0D01*
G01X96320D02*
G03X96320I-820J0D01*
G01X97620Y155000D02*
G03X97620I-820J0D01*
G01X104870Y158500D02*
G03X104870I-820J0D01*
G01X103420Y161700D02*
G03X103420I-820J0D01*
G01X110970Y136800D02*
G03X110970I-820J0D01*
G01X108470Y139300D02*
G03X108470I-820J0D01*
G01X110970D02*
G03X110970I-820J0D01*
G01X114420Y152650D02*
G03X114420I-820J0D01*
G01X98700Y135400D02*
X111400D01*
Y132900*
X98700*
Y135400*
X116620Y153850D02*
G03X116620I-820J0D01*
G01X92350Y186000D02*
Y187200D01*
X89650Y186000D02*
Y187200D01*
X105600Y171950D02*
Y174700D01*
X102400Y173650D02*
Y171950D01*
X100450Y180350D02*
Y179050D01*
X102150Y180350D02*
Y179050D01*
X102950Y192350D02*
Y193650D01*
X101250Y192350D02*
Y193650D01*
X92950Y164750D02*
Y166050D01*
X91250Y164750D02*
Y166050D01*
X44100Y224250D02*
X42900D01*
X44100Y221550D02*
X42900D01*
X44100Y220250D02*
X42900D01*
X44100Y217550D02*
X42900D01*
X89900Y221550D02*
X91100D01*
X89900Y224250D02*
X91100D01*
X99900Y228250D02*
X98700D01*
X99900Y225550D02*
X98700D01*
X103900Y190950D02*
Y191900D01*
X103650*
Y196500*
X103900*
X106300Y190950D02*
Y191900D01*
X106550*
Y196500*
X106300*
X116600Y164250D02*
Y163050D01*
X105200*
Y164250*
X116600Y166550D02*
Y167750D01*
X105200*
Y166550*
X119120Y153900D02*
G03X119120I-820J0D01*
G01X112720Y158700D02*
G03X112720I-820J0D01*
G01X115900Y170050D02*
X117800D01*
X115900Y177750D02*
X117800D01*
X121300Y170050D02*
Y177750D01*
X112450Y170050D02*
Y176150D01*
X74311Y206064D02*
X77986D01*
X77986D02*
Y192614D01*
X77986D02*
X74311D01*
X68711Y206064D02*
X65036D01*
X65036D02*
Y192614D01*
X65036D02*
X68711D01*
X43203Y191984D02*
X44403D01*
X43203Y194684D02*
X44403D01*
X66350Y186000D02*
Y187200D01*
X63650Y186000D02*
Y187200D01*
X84349Y185997D02*
Y187197D01*
X81649Y185997D02*
Y187197D01*
X62350Y186000D02*
Y187200D01*
X59650Y186000D02*
Y187200D01*
X54350Y186000D02*
Y187200D01*
X51650Y186000D02*
Y187200D01*
X93450Y175350D02*
Y169800D01*
X98550Y171250D02*
Y175350D01*
X91650Y162650D02*
X86100D01*
X87550Y157550D02*
X91650D01*
X25250Y210300D02*
X22400D01*
Y213050*
Y218150D02*
Y220900D01*
X23400*
X88050Y170800D02*
Y169600D01*
X90750Y170800D02*
Y169600D01*
X74950Y228700D02*
Y227500D01*
X77650Y228700D02*
Y227500D01*
X81300Y228250D02*
X80100D01*
X81300Y225550D02*
X80100D01*
X61803Y195984D02*
X63003D01*
X61803Y198684D02*
X63003D01*
X61803Y199984D02*
X63003D01*
X61803Y202684D02*
X63003D01*
X61803Y203984D02*
X63003D01*
X61803Y206684D02*
X63003D01*
X80403Y199984D02*
X81603D01*
X80403Y202684D02*
X81603D01*
X80403Y203984D02*
X81603D01*
X80403Y206684D02*
X81603D01*
X81300Y224250D02*
X80100D01*
X81300Y221550D02*
X80100D01*
X81300Y220250D02*
X80100D01*
X81300Y217550D02*
X80100D01*
X99900Y220250D02*
X98700D01*
X99900Y217550D02*
X98700D01*
X34100Y225550D02*
X35300D01*
X34100Y228250D02*
X35300D01*
X108638Y179933D02*
Y190333D01*
X89900Y225550D02*
X91100D01*
X89900Y228250D02*
X91100D01*
X99900Y224250D02*
X98700D01*
X99900Y221550D02*
X98700D01*
X71300D02*
X72500D01*
X71300Y224250D02*
X72500D01*
X71300Y225550D02*
X72500D01*
X71300Y228250D02*
X72500D01*
X56350Y228700D02*
Y227500D01*
X59050Y228700D02*
Y227500D01*
X62700Y228250D02*
X61500D01*
X62700Y225550D02*
X61500D01*
X34100Y221550D02*
X35300D01*
X34100Y224250D02*
X35300D01*
X62700D02*
X61500D01*
X62700Y221550D02*
X61500D01*
X93550Y228700D02*
Y227500D01*
X96250Y228700D02*
Y227500D01*
X37750Y228700D02*
Y227500D01*
X40450Y228700D02*
Y227500D01*
X44100Y228250D02*
X42900D01*
X44100Y225550D02*
X42900D01*
X52700Y221550D02*
X53900D01*
X52700Y224250D02*
X53900D01*
X52700Y225550D02*
X53900D01*
X52700Y228250D02*
X53900D01*
X62700Y220250D02*
X61500D01*
X62700Y217550D02*
X61500D01*
X50350Y186000D02*
Y187200D01*
X47650Y186000D02*
Y187200D01*
X35650Y137100D02*
Y135900D01*
X38350Y137100D02*
Y135900D01*
X31650Y137100D02*
Y135900D01*
X34350Y137100D02*
Y135900D01*
X88349Y185997D02*
Y187197D01*
X85649Y185997D02*
Y187197D01*
X70350Y186000D02*
Y187200D01*
X67650Y186000D02*
Y187200D01*
X51650Y137100D02*
Y135900D01*
X54350Y137100D02*
Y135900D01*
X47650Y137100D02*
Y135900D01*
X50350Y137100D02*
Y135900D01*
X43650Y137100D02*
Y135900D01*
X46350Y137100D02*
Y135900D01*
X61803Y191984D02*
X63003D01*
X61803Y194684D02*
X63003D01*
X63650Y137100D02*
Y135900D01*
X66350Y137100D02*
Y135900D01*
X59650Y137100D02*
Y135900D01*
X62350Y137100D02*
Y135900D01*
X55650Y137100D02*
Y135900D01*
X58350Y137100D02*
Y135900D01*
X75400Y154150D02*
X76600D01*
X75400Y156850D02*
X76600D01*
X75400Y150150D02*
X76600D01*
X75400Y152850D02*
X76600D01*
X75400Y146150D02*
X76600D01*
X75400Y148850D02*
X76600D01*
X75400Y166150D02*
X76600D01*
X75400Y168850D02*
X76600D01*
X75400Y162150D02*
X76600D01*
X75400Y164850D02*
X76600D01*
X75400Y158150D02*
X76600D01*
X75400Y160850D02*
X76600D01*
X75400Y178150D02*
X76600D01*
X75400Y180850D02*
X76600D01*
X24603Y203984D02*
X25803D01*
X24603Y206684D02*
X25803D01*
X75400Y174150D02*
X76600D01*
X75400Y176850D02*
X76600D01*
X75400Y170150D02*
X76600D01*
X75400Y172850D02*
X76600D01*
X26600Y144850D02*
X25400D01*
X26600Y142150D02*
X25400D01*
X67650Y137100D02*
Y135900D01*
X70350Y137100D02*
Y135900D01*
X75400Y142150D02*
X76600D01*
X75400Y144850D02*
X76600D01*
X99900Y198650D02*
X98700D01*
X99900Y195950D02*
X98700D01*
X96350Y186000D02*
Y187200D01*
X93650Y186000D02*
Y187200D01*
X26600Y172850D02*
X25400D01*
X26600Y170150D02*
X25400D01*
X26600Y176850D02*
X25400D01*
X26600Y174150D02*
X25400D01*
X26600Y180850D02*
X25400D01*
X26600Y178150D02*
X25400D01*
X26600Y160850D02*
X25400D01*
X26600Y158150D02*
X25400D01*
X26600Y164850D02*
X25400D01*
X26600Y162150D02*
X25400D01*
X26600Y168850D02*
X25400D01*
X26600Y166150D02*
X25400D01*
X26600Y148850D02*
X25400D01*
X26600Y146150D02*
X25400D01*
X26600Y152850D02*
X25400D01*
X26600Y150150D02*
X25400D01*
X26600Y156850D02*
X25400D01*
X26600Y154150D02*
X25400D01*
X39650Y137100D02*
Y135900D01*
X42350Y137100D02*
Y135900D01*
X58350Y186000D02*
Y187200D01*
X55650Y186000D02*
Y187200D01*
X80403Y191984D02*
X81603D01*
X80403Y194684D02*
X81603D01*
X99900Y189950D02*
X98700D01*
X99900Y187250D02*
X98700D01*
X80403Y195984D02*
X81603D01*
X80403Y198684D02*
X81603D01*
X34350Y186000D02*
Y187200D01*
X31650Y186000D02*
Y187200D01*
X24603Y191984D02*
X25803D01*
X24603Y194684D02*
X25803D01*
X42350Y186000D02*
Y187200D01*
X39650Y186000D02*
Y187200D01*
X24603Y195984D02*
X25803D01*
X24603Y198684D02*
X25803D01*
X24603Y199984D02*
X25803D01*
X24603Y202684D02*
X25803D01*
X46350Y186000D02*
Y187200D01*
X43650Y186000D02*
Y187200D01*
X38350Y186000D02*
Y187200D01*
X35650Y186000D02*
Y187200D01*
X43203Y195984D02*
X44403D01*
X43203Y198684D02*
X44403D01*
X43203Y199984D02*
X44403D01*
X43203Y202684D02*
X44403D01*
X43203Y203984D02*
X44403D01*
X43203Y206684D02*
X44403D01*
X37111Y206064D02*
X40786D01*
X40786D02*
Y192614D01*
X40786D02*
X37111D01*
X31511Y206064D02*
X27836D01*
X27836D02*
Y192614D01*
X27836D02*
X31511D01*
X55711Y206064D02*
X59386D01*
X59386D02*
Y192614D01*
X59386D02*
X55711D01*
X50111Y206064D02*
X46436D01*
X46436D02*
Y192614D01*
X46436D02*
X50111D01*
X92911Y206064D02*
X96586D01*
X96586D02*
Y192614D01*
X96586D02*
X92911D01*
X87311Y206064D02*
X83636D01*
X83636D02*
Y192614D01*
X83636D02*
X87311D01*
X109200Y216900D02*
X115550D01*
X109200Y202700D02*
X112200D01*
X111297Y222416D02*
X110347D01*
X110347D02*
Y221316D01*
X110347D02*
X103247D01*
X103247D02*
Y222416D01*
X111297Y226413D02*
X110347D01*
Y227513*
X103247*
Y226413*
X91650Y156250D02*
X86100D01*
X87550Y151150D02*
X91650D01*
X92556Y139127D02*
X90106D01*
X92556Y135927D02*
X91056D01*
X51620Y150000D02*
G03X51620I-820J0D01*
G01X117820Y156200D02*
G03X117820I-820J0D01*
G01X115320D02*
G03X115320I-820J0D01*
G01X112820D02*
G03X112820I-820J0D01*
G01X96220Y143800D02*
G03X96220I-820J0D01*
G01Y146300D02*
G03X96220I-820J0D01*
G01X49120Y150000D02*
G03X49120I-820J0D01*
G01X75831Y209539D02*
G03X75831I-819J0D01*
G01X61270Y215000D02*
G03X61270I-820J0D01*
G01X98470D02*
G03X98470I-820J0D01*
G01X79870D02*
G03X79870I-820J0D01*
G01X38631Y209539D02*
G03X38631I-819J0D01*
G01X29850Y186500D02*
G03X29850I-3850J0D01*
G01Y136500D02*
G03X29850I-3850J0D01*
G01X79850D02*
G03X79850I-3850J0D01*
G01Y186500D02*
G03X79850I-3850J0D01*
G01X119850Y136500D02*
G03X119850I-3850J0D01*
G01X29850Y226500D02*
G03X29850I-3850J0D01*
G01X119850D02*
G03X119850I-3850J0D01*
G01X95720Y153300D02*
G03X95720I-820J0D01*
G01X57231Y209539D02*
G03X57231I-819J0D01*
G01X94431D02*
G03X94431I-819J0D01*
G01X122901Y190809D02*
X107029D01*
X107029D02*
Y202290D01*
X107029D02*
X122901D01*
X122901D02*
Y190809D01*
X106750Y176400D02*
Y174910D01*
X111850Y174900D02*
Y176400D01*
X106750*
Y172900D02*
Y171400D01*
X108250*
X110350D02*
X111850D01*
Y172900*
X104647Y137298D02*
Y136314D01*
X104409Y137298D02*
X104886D01*
X105193D02*
Y136314D01*
Y137298D02*
X105500D01*
X105602Y137251*
X105602D02*
X105636Y137204D01*
X105636D02*
X105670Y137110D01*
X105670D02*
Y136970D01*
X105636Y136876*
X105636D02*
X105602Y136829D01*
X105602D02*
X105500Y136782D01*
X105500D02*
X105193D01*
X106045Y137298D02*
X106420D01*
X106215Y136923*
X106215D02*
X106318D01*
X106386Y136876*
X106386D02*
X106420Y136829D01*
X106420D02*
X106454Y136689D01*
X106454D02*
Y136595D01*
X106454D02*
X106420Y136454D01*
X106420D02*
X106352Y136360D01*
X106352D02*
X106250Y136314D01*
X106147*
X106147D02*
X106045Y136360D01*
X106045D02*
X106011Y136407D01*
X106011D02*
X105977Y136501D01*
X98070Y142842D02*
Y142139D01*
X98104Y141998*
X98104D02*
X98172Y141904D01*
X98172D02*
X98274Y141858D01*
X98274D02*
X98342D01*
X98342D02*
X98445Y141904D01*
X98445D02*
X98513Y141998D01*
X98513D02*
X98547Y142139D01*
Y142842*
X98854Y142654D02*
X98922Y142701D01*
X98922D02*
X99024Y142842D01*
X99024D02*
Y141858D01*
X99535Y142842D02*
X99433Y142795D01*
X99433D02*
X99365Y142654D01*
X99365D02*
X99331Y142420D01*
X99331D02*
Y142279D01*
X99331D02*
X99365Y142045D01*
X99365D02*
X99433Y141904D01*
X99433D02*
X99535Y141858D01*
X99535D02*
X99604D01*
X99706Y141904*
X99706D02*
X99774Y142045D01*
X99774D02*
X99808Y142279D01*
X99808D02*
Y142420D01*
X99808D02*
X99774Y142654D01*
X99774D02*
X99706Y142795D01*
X99706D02*
X99604Y142842D01*
X99535*
X91509Y150498D02*
Y149514D01*
X91270Y150498D02*
X91747D01*
X92054D02*
Y149514D01*
Y150498D02*
X92361D01*
X92463Y150451*
X92463D02*
X92497Y150404D01*
X92497D02*
X92531Y150310D01*
X92531D02*
Y150170D01*
X92531D02*
X92497Y150076D01*
X92497D02*
X92463Y150029D01*
X92463D02*
X92361Y149982D01*
X92361D02*
X92054D01*
X92838Y150310D02*
X92906Y150357D01*
X92906D02*
X93009Y150498D01*
Y149514*
X93486Y150498D02*
X93384Y150451D01*
X93384D02*
X93350Y150357D01*
X93350D02*
Y150264D01*
X93384Y150170*
X93452Y150123*
X93588Y150076*
X93588D02*
X93690Y150029D01*
X93690D02*
X93759Y149935D01*
X93759D02*
X93793Y149842D01*
Y149701*
X93793D02*
X93759Y149607D01*
X93759D02*
X93725Y149560D01*
X93725D02*
X93622Y149514D01*
X93622D02*
X93486D01*
X93384Y149560*
X93384D02*
X93350Y149607D01*
X93350D02*
X93315Y149701D01*
X93315D02*
Y149842D01*
X93315D02*
X93350Y149935D01*
X93350D02*
X93418Y150029D01*
X93418D02*
X93520Y150076D01*
X93520D02*
X93656Y150123D01*
X93656D02*
X93725Y150170D01*
X93759Y150264*
Y150357*
X93759D02*
X93725Y150451D01*
X93725D02*
X93622Y150498D01*
X93622D02*
X93486D01*
X96183Y153557D02*
Y152572D01*
X95945Y153557D02*
X96422D01*
X96729D02*
Y152572D01*
Y153557D02*
X97035D01*
X97035D02*
X97138Y153510D01*
X97172Y153463*
X97172D02*
X97206Y153369D01*
X97206D02*
Y153229D01*
X97172Y153135*
X97138Y153088*
X97138D02*
X97035Y153041D01*
X97035D02*
X96729D01*
X97513Y153369D02*
X97581Y153416D01*
X97581D02*
X97683Y153557D01*
X97683D02*
Y152572D01*
X98433Y153229D02*
X98399Y153088D01*
X98399D02*
X98331Y152994D01*
X98331D02*
X98229Y152947D01*
X98229D02*
X98195D01*
X98195D02*
X98092Y152994D01*
X98092D02*
X98024Y153088D01*
X98024D02*
X97990Y153229D01*
Y153276*
X98024Y153416*
X98024D02*
X98092Y153510D01*
X98092D02*
X98195Y153557D01*
X98229*
X98331Y153510*
X98399Y153416*
X98399D02*
X98433Y153229D01*
X98433D02*
Y152994D01*
X98433D02*
X98399Y152760D01*
X98399D02*
X98331Y152619D01*
X98331D02*
X98229Y152572D01*
X98229D02*
X98160D01*
X98160D02*
X98058Y152619D01*
X98058D02*
X98024Y152713D01*
X103659Y160698D02*
Y159714D01*
X103420Y160698D02*
X103897D01*
X104204D02*
Y159714D01*
Y160698D02*
X104511D01*
X104613Y160651*
X104613D02*
X104647Y160604D01*
X104647D02*
X104681Y160510D01*
X104681D02*
Y160370D01*
X104681D02*
X104647Y160276D01*
X104647D02*
X104613Y160229D01*
X104613D02*
X104511Y160182D01*
X104511D02*
X104204D01*
X104988Y160510D02*
X105056Y160557D01*
X105056D02*
X105159Y160698D01*
Y159714*
X105534Y160698D02*
X105909D01*
X105704Y160323*
X105704D02*
X105806D01*
X105806D02*
X105875Y160276D01*
X105875D02*
X105909Y160229D01*
X105909D02*
X105943Y160089D01*
Y159995*
X105909Y159854*
X105909D02*
X105840Y159760D01*
X105840D02*
X105738Y159714D01*
X105738D02*
X105636D01*
X105534Y159760*
X105534D02*
X105500Y159807D01*
X105500D02*
X105465Y159901D01*
X101259Y163798D02*
Y162814D01*
X101020Y163798D02*
X101497D01*
X101804D02*
Y162814D01*
Y163798D02*
X102111D01*
X102213Y163751*
X102213D02*
X102247Y163704D01*
X102247D02*
X102281Y163610D01*
X102281D02*
Y163470D01*
X102281D02*
X102247Y163376D01*
X102247D02*
X102213Y163329D01*
X102213D02*
X102111Y163282D01*
X102111D02*
X101804D01*
X102588Y163610D02*
X102656Y163657D01*
X102656D02*
X102759Y163798D01*
Y162814*
X103100Y163564D02*
Y163610D01*
X103100D02*
X103134Y163704D01*
X103134D02*
X103168Y163751D01*
X103168D02*
X103236Y163798D01*
X103372*
X103372D02*
X103440Y163751D01*
X103440D02*
X103475Y163704D01*
X103475D02*
X103509Y163610D01*
X103509D02*
Y163517D01*
X103475Y163423*
X103406Y163282*
X103406D02*
X103065Y162814D01*
X103065D02*
X103543D01*
X106630Y141398D02*
Y140414D01*
X106392Y141398D02*
X106869D01*
X107176D02*
Y140414D01*
Y141398D02*
X107482D01*
X107482D02*
X107585Y141351D01*
X107585D02*
X107619Y141304D01*
X107619D02*
X107653Y141210D01*
X107653D02*
Y141070D01*
X107619Y140976*
X107619D02*
X107585Y140929D01*
X107585D02*
X107482Y140882D01*
X107482D02*
X107176D01*
X108403Y141398D02*
X108062D01*
X108062D02*
X108028Y140976D01*
X108028D02*
X108062Y141023D01*
X108062D02*
X108164Y141070D01*
X108164D02*
X108267D01*
X108369Y141023*
X108437Y140929*
X108437D02*
X108471Y140789D01*
X108471D02*
X108437Y140695D01*
X108437D02*
X108403Y140554D01*
X108403D02*
X108335Y140460D01*
X108335D02*
X108232Y140414D01*
X108232D02*
X108130D01*
X108130D02*
X108028Y140460D01*
X108028D02*
X107994Y140507D01*
X107994D02*
X107960Y140601D01*
X109147Y141398D02*
Y140414D01*
X108909Y141398D02*
X109386D01*
X109693D02*
Y140414D01*
Y141398D02*
X110000D01*
X110102Y141351*
X110102D02*
X110136Y141304D01*
X110136D02*
X110170Y141210D01*
X110170D02*
Y141070D01*
X110136Y140976*
X110136D02*
X110102Y140929D01*
X110102D02*
X110000Y140882D01*
X110000D02*
X109693D01*
X110954Y141398D02*
X110613Y140414D01*
X110477Y141398D02*
X110954D01*
X97463Y134698D02*
Y133948D01*
X97463D02*
X97429Y133807D01*
X97429D02*
X97395Y133760D01*
X97395D02*
X97327Y133714D01*
X97259*
X97190Y133760*
X97190D02*
X97156Y133807D01*
X97156D02*
X97122Y133948D01*
X97122D02*
Y134042D01*
X97770Y134510D02*
X97838Y134557D01*
X97838D02*
X97940Y134698D01*
X97940D02*
Y133714D01*
X50459Y173163D02*
Y172460D01*
X50459D02*
X50493Y172319D01*
X50493D02*
X50561Y172225D01*
X50561D02*
X50664Y172179D01*
X50732*
X50834Y172225*
X50834D02*
X50902Y172319D01*
X50902D02*
X50936Y172460D01*
X50936D02*
Y173163D01*
X51243Y172975D02*
X51311Y173022D01*
X51311D02*
X51414Y173163D01*
Y172179*
X103343Y176723D02*
Y175739D01*
Y176723D02*
X103581D01*
X103581D02*
X103684Y176676D01*
X103684D02*
X103752Y176582D01*
X103752D02*
X103786Y176489D01*
X103820Y176348*
Y176114*
X103786Y175973*
X103752Y175879*
X103752D02*
X103684Y175785D01*
X103684D02*
X103581Y175739D01*
X103581D02*
X103343D01*
X104536Y176582D02*
X104502Y176676D01*
X104502D02*
X104400Y176723D01*
X104331*
X104331D02*
X104229Y176676D01*
X104229D02*
X104161Y176535D01*
X104161D02*
X104127Y176301D01*
X104127D02*
Y176067D01*
X104161Y175879*
X104161D02*
X104229Y175785D01*
X104229D02*
X104331Y175739D01*
X104331D02*
X104365D01*
X104365D02*
X104468Y175785D01*
X104468D02*
X104536Y175879D01*
X104536D02*
X104570Y176020D01*
Y176067*
X104536Y176207*
X104536D02*
X104468Y176301D01*
X104468D02*
X104365Y176348D01*
X104365D02*
X104331D01*
X104331D02*
X104229Y176301D01*
X104229D02*
X104161Y176207D01*
X104161D02*
X104127Y176067D01*
X98801Y178712D02*
X99785D01*
X98801D02*
Y179019D01*
X98801D02*
X98848Y179121D01*
X98848D02*
X98895Y179155D01*
X98895D02*
X98989Y179189D01*
X98989D02*
X99082D01*
X99082D02*
X99176Y179155D01*
X99176D02*
X99223Y179121D01*
X99223D02*
X99270Y179019D01*
Y178712*
Y178951D02*
X99785Y179189D01*
X98989Y179496D02*
X98942Y179564D01*
X98942D02*
X98801Y179667D01*
X98801D02*
X99785D01*
X99035Y180007D02*
X98989D01*
X98989D02*
X98895Y180042D01*
X98848Y180076*
X98801Y180144*
X98801D02*
Y180280D01*
X98801D02*
X98848Y180348D01*
X98848D02*
X98895Y180382D01*
X98895D02*
X98989Y180417D01*
X99082*
X99082D02*
X99176Y180382D01*
X99176D02*
X99317Y180314D01*
X99317D02*
X99785Y179973D01*
X99785D02*
Y180451D01*
X99643Y192205D02*
X100628D01*
X99643D02*
Y192512D01*
X99643D02*
X99690Y192614D01*
X99690D02*
X99737Y192649D01*
X99737D02*
X99831Y192683D01*
X99925*
X100018Y192649*
X100018D02*
X100065Y192614D01*
X100065D02*
X100112Y192512D01*
X100112D02*
Y192205D01*
Y192444D02*
X100628Y192683D01*
X99831Y192989D02*
X99784Y193058D01*
X99643Y193160*
X99643D02*
X100628D01*
X99643Y193535D02*
Y193910D01*
X99643D02*
X100018Y193705D01*
X100018D02*
Y193808D01*
X100018D02*
X100065Y193876D01*
X100065D02*
X100112Y193910D01*
X100112D02*
X100253Y193944D01*
X100253D02*
X100347D01*
X100347D02*
X100487Y193910D01*
X100487D02*
X100581Y193842D01*
X100628Y193739*
X100628D02*
Y193637D01*
X100628D02*
X100581Y193535D01*
X100534Y193501*
X100440Y193467*
X102101Y195901D02*
X103085D01*
X102101D02*
Y196139D01*
X102101D02*
X102148Y196242D01*
X102242Y196310*
X102335Y196344*
X102335D02*
X102476Y196378D01*
X102476D02*
X102710D01*
X102710D02*
X102851Y196344D01*
X102851D02*
X102945Y196310D01*
X103039Y196242*
X103085Y196139*
X103085D02*
Y195901D01*
X102101Y196855D02*
X102148Y196753D01*
X102242Y196719*
X102335*
X102335D02*
X102429Y196753D01*
X102429D02*
X102476Y196821D01*
X102476D02*
X102523Y196957D01*
X102523D02*
X102570Y197060D01*
X102664Y197128*
X102757Y197162*
X102757D02*
X102898D01*
X102992Y197128*
X103039Y197094*
X103085Y196992*
X103085D02*
Y196855D01*
X103085D02*
X103039Y196753D01*
X102992Y196719*
X102898Y196685*
X102757*
X102757D02*
X102664Y196719D01*
X102570Y196787*
X102523Y196889*
X102523D02*
X102476Y197026D01*
X102476D02*
X102429Y197094D01*
X102429D02*
X102335Y197128D01*
X102335D02*
X102242D01*
X102148Y197094*
X102101Y196992*
X102101D02*
Y196855D01*
X106134Y169523D02*
X106407Y169054D01*
X106407D02*
Y168539D01*
X106679Y169523D02*
X106407Y169054D01*
X106986Y169335D02*
X107054Y169382D01*
X107054D02*
X107157Y169523D01*
Y168539*
X111001Y178110D02*
X111751D01*
X111751D02*
X111892Y178076D01*
X111939Y178042*
X111985Y177973*
X111985D02*
Y177905D01*
X111985D02*
X111939Y177837D01*
X111939D02*
X111892Y177803D01*
X111751Y177769*
X111751D02*
X111657D01*
X111235Y178451D02*
X111189D01*
X111095Y178485*
X111048Y178519*
X111001Y178587*
X111001D02*
Y178723D01*
X111001D02*
X111048Y178792D01*
X111095Y178826*
X111189Y178860*
X111282*
X111282D02*
X111376Y178826D01*
X111376D02*
X111517Y178757D01*
X111517D02*
X111985Y178417D01*
X111985D02*
Y178894D01*
X70760Y191123D02*
Y190139D01*
X71169*
X71544Y191123D02*
X71919D01*
X71714Y190748*
X71714D02*
X71817D01*
X71885Y190701*
X71885D02*
X71919Y190654D01*
X71919D02*
X71953Y190514D01*
Y190420*
X71919Y190279*
X71919D02*
X71851Y190185D01*
X71851D02*
X71748Y190139D01*
X71748D02*
X71646D01*
X71646D02*
X71544Y190185D01*
X71544D02*
X71510Y190232D01*
X71510D02*
X71476Y190326D01*
X91543Y173673D02*
Y172970D01*
X91577Y172829*
X91577D02*
X91645Y172735D01*
X91645D02*
X91747Y172689D01*
X91747D02*
X91815D01*
X91815D02*
X91918Y172735D01*
X91918D02*
X91986Y172829D01*
X91986D02*
X92020Y172970D01*
Y173673*
X92736Y173532D02*
X92702Y173626D01*
X92702D02*
X92600Y173673D01*
X92531*
X92531D02*
X92429Y173626D01*
X92429D02*
X92361Y173485D01*
X92361D02*
X92327Y173251D01*
X92327D02*
Y173017D01*
X92361Y172829*
X92361D02*
X92429Y172735D01*
X92429D02*
X92531Y172689D01*
X92531D02*
X92565D01*
X92565D02*
X92668Y172735D01*
X92668D02*
X92736Y172829D01*
X92736D02*
X92770Y172970D01*
Y173017*
X92736Y173157*
X92736D02*
X92668Y173251D01*
X92668D02*
X92565Y173298D01*
X92565D02*
X92531D01*
X92531D02*
X92429Y173251D01*
X92429D02*
X92361Y173157D01*
X92361D02*
X92327Y173017D01*
X84218Y161398D02*
Y160695D01*
X84252Y160554*
X84252D02*
X84320Y160460D01*
X84320D02*
X84422Y160414D01*
X84422D02*
X84490D01*
X84490D02*
X84593Y160460D01*
X84593D02*
X84661Y160554D01*
X84661D02*
X84695Y160695D01*
Y161398*
X85445Y161070D02*
X85411Y160929D01*
X85411D02*
X85343Y160835D01*
X85343D02*
X85240Y160789D01*
X85240D02*
X85206D01*
X85206D02*
X85104Y160835D01*
X85104D02*
X85036Y160929D01*
X85036D02*
X85002Y161070D01*
Y161117*
X85036Y161257*
X85036D02*
X85104Y161351D01*
X85104D02*
X85206Y161398D01*
X85206D02*
X85240D01*
X85240D02*
X85343Y161351D01*
X85343D02*
X85411Y161257D01*
X85411D02*
X85445Y161070D01*
Y160835*
X85445D02*
X85411Y160601D01*
X85411D02*
X85343Y160460D01*
X85343D02*
X85240Y160414D01*
X85240D02*
X85172D01*
X85172D02*
X85070Y160460D01*
X85070D02*
X85036Y160554D01*
X31001Y219910D02*
X31751D01*
X31751D02*
X31892Y219876D01*
X31939Y219842*
X31985Y219773*
X31985D02*
Y219705D01*
X31985D02*
X31939Y219637D01*
X31939D02*
X31892Y219603D01*
X31751Y219569*
X31751D02*
X31657D01*
X31001Y220285D02*
Y220660D01*
X31001D02*
X31376Y220455D01*
X31376D02*
Y220557D01*
X31376D02*
X31423Y220626D01*
X31470Y220660*
X31610Y220694*
X31610D02*
X31704D01*
X31704D02*
X31845Y220660D01*
X31939Y220592*
X31985Y220489*
X31985D02*
Y220387D01*
X31985D02*
X31939Y220285D01*
X31892Y220251*
X31798Y220217*
X105301Y189998D02*
Y189295D01*
X105335Y189154*
X105335D02*
X105403Y189060D01*
X105403D02*
X105505Y189014D01*
X105505D02*
X105573D01*
X105573D02*
X105676Y189060D01*
X105676D02*
X105744Y189154D01*
X105744D02*
X105778Y189295D01*
Y189998*
X106562D02*
X106221Y189014D01*
X106085Y189998D02*
X106562D01*
X33121Y191223D02*
Y190239D01*
X33121D02*
X33530D01*
X33837Y191035D02*
X33905Y191082D01*
X33905D02*
X34007Y191223D01*
X34007D02*
Y190239D01*
X34519Y191223D02*
X34417Y191176D01*
X34417D02*
X34348Y191035D01*
X34348D02*
X34314Y190801D01*
X34314D02*
Y190660D01*
X34314D02*
X34348Y190426D01*
X34348D02*
X34417Y190285D01*
X34417D02*
X34519Y190239D01*
X34587*
X34587D02*
X34689Y190285D01*
X34689D02*
X34757Y190426D01*
X34757D02*
X34792Y190660D01*
X34792D02*
Y190801D01*
X34792D02*
X34757Y191035D01*
X34757D02*
X34689Y191176D01*
X34689D02*
X34587Y191223D01*
X34587D02*
X34519D01*
X51904D02*
Y190239D01*
X51904D02*
X52313D01*
X52620Y191035D02*
X52688Y191082D01*
X52688D02*
X52790Y191223D01*
X52790D02*
Y190239D01*
X53438Y191223D02*
X53097Y190567D01*
X53097D02*
X53609D01*
X53438Y191223D02*
Y190239D01*
X89460Y191223D02*
Y190239D01*
X89869*
X90653Y191223D02*
X90312Y190239D01*
X90176Y191223D02*
X90653D01*
X86126Y150412D02*
Y149709D01*
X86160Y149568*
X86160D02*
X86228Y149475D01*
X86330Y149428*
X86330D02*
X86398D01*
X86398D02*
X86501Y149475D01*
X86569Y149568*
X86569D02*
X86603Y149709D01*
Y150412*
X86944Y150178D02*
Y150225D01*
X86978Y150318*
X86978D02*
X87012Y150365D01*
X87012D02*
X87080Y150412D01*
X87080D02*
X87217D01*
X87217D02*
X87285Y150365D01*
X87285D02*
X87319Y150318D01*
X87319D02*
X87353Y150225D01*
Y150131*
X87319Y150037*
X87319D02*
X87251Y149896D01*
X87251D02*
X86910Y149428D01*
X87387*
X88137Y150084D02*
X88103Y149943D01*
X88103D02*
X88035Y149850D01*
X87932Y149803*
X87932D02*
X87898D01*
X87898D02*
X87796Y149850D01*
X87796D02*
X87728Y149943D01*
X87728D02*
X87694Y150084D01*
Y150131*
X87728Y150271*
X87728D02*
X87796Y150365D01*
X87796D02*
X87898Y150412D01*
X87898D02*
X87932D01*
X87932D02*
X88035Y150365D01*
X88035D02*
X88103Y150271D01*
X88103D02*
X88137Y150084D01*
X88137D02*
Y149850D01*
X88137D02*
X88103Y149615D01*
X88103D02*
X88035Y149475D01*
X87932Y149428*
X87932D02*
X87864D01*
X87864D02*
X87762Y149475D01*
X87762D02*
X87728Y149568D01*
X87615Y137998D02*
X87547Y137951D01*
X87547D02*
X87479Y137857D01*
X87479D02*
X87445Y137764D01*
X87411Y137623*
Y137389*
X87445Y137248*
X87479Y137154*
X87479D02*
X87547Y137060D01*
X87547D02*
X87615Y137014D01*
X87615D02*
X87752D01*
X87820Y137060*
X87820D02*
X87888Y137154D01*
X87888D02*
X87922Y137248D01*
X87922D02*
X87956Y137389D01*
X87956D02*
Y137623D01*
X87956D02*
X87922Y137764D01*
X87922D02*
X87888Y137857D01*
X87888D02*
X87820Y137951D01*
X87820D02*
X87752Y137998D01*
X87615*
X87718Y137201D02*
X87922Y136920D01*
X88706Y137998D02*
X88365D01*
X88365D02*
X88331Y137576D01*
X88331D02*
X88365Y137623D01*
X88365D02*
X88468Y137670D01*
X88570*
X88672Y137623*
X88672D02*
X88740Y137529D01*
X88740D02*
X88775Y137389D01*
X88740Y137295*
X88740D02*
X88706Y137154D01*
X88706D02*
X88638Y137060D01*
X88638D02*
X88536Y137014D01*
X88434*
X88331Y137060*
X88331D02*
X88297Y137107D01*
X88297D02*
X88263Y137201D01*
X89081Y137810D02*
X89150Y137857D01*
X89150D02*
X89252Y137998D01*
Y137014*
X51401Y148898D02*
Y147914D01*
X51162Y148898D02*
X51639D01*
X51946D02*
Y147914D01*
Y148898D02*
X52253D01*
X52355Y148851*
X52355D02*
X52389Y148804D01*
X52389D02*
X52423Y148710D01*
X52423D02*
Y148570D01*
X52423D02*
X52389Y148476D01*
X52389D02*
X52355Y148429D01*
X52355D02*
X52253Y148382D01*
X52253D02*
X51946D01*
X52730Y148710D02*
X52798Y148757D01*
X52798D02*
X52901Y148898D01*
Y147914*
X115900Y158598D02*
Y157614D01*
X115661Y158598D02*
X116138D01*
X116445D02*
Y157614D01*
Y158598D02*
X116752D01*
X116854Y158551*
X116854D02*
X116888Y158504D01*
X116888D02*
X116922Y158410D01*
X116922D02*
Y158270D01*
X116922D02*
X116888Y158176D01*
X116888D02*
X116854Y158129D01*
X116854D02*
X116752Y158082D01*
X116752D02*
X116445D01*
X117229Y158410D02*
X117297Y158457D01*
X117297D02*
X117400Y158598D01*
Y157614*
X117740Y158364D02*
Y158410D01*
X117740D02*
X117775Y158504D01*
X117775D02*
X117809Y158551D01*
X117809D02*
X117877Y158598D01*
X118013*
X118013D02*
X118081Y158551D01*
X118081D02*
X118115Y158504D01*
X118115D02*
X118150Y158410D01*
X118150D02*
Y158317D01*
X118115Y158223*
X118115D02*
X118047Y158082D01*
X118047D02*
X117706Y157614D01*
X117706D02*
X118184D01*
X118934Y158598D02*
X118593D01*
X118559Y158176*
X118559D02*
X118593Y158223D01*
X118695Y158270*
X118797*
X118797D02*
X118900Y158223D01*
X118968Y158129*
X118968D02*
X119002Y157989D01*
X118968Y157895*
X118934Y157754*
X118934D02*
X118865Y157660D01*
X118865D02*
X118763Y157614D01*
X118763D02*
X118661D01*
X118559Y157660*
X118559D02*
X118525Y157707D01*
X118525D02*
X118490Y157801D01*
X91217Y143198D02*
Y142214D01*
X90978Y143198D02*
X91455D01*
X91762D02*
Y142214D01*
Y143198D02*
X92069D01*
X92171Y143151*
X92171D02*
X92205Y143104D01*
X92205D02*
X92239Y143010D01*
X92239D02*
Y142870D01*
X92239D02*
X92205Y142776D01*
X92205D02*
X92171Y142729D01*
X92171D02*
X92069Y142682D01*
X92069D02*
X91762D01*
X92546Y143010D02*
X92614Y143057D01*
X92614D02*
X92717Y143198D01*
Y142214*
X93057Y142964D02*
Y143010D01*
X93057D02*
X93092Y143104D01*
X93092D02*
X93126Y143151D01*
X93126D02*
X93194Y143198D01*
X93330*
X93330D02*
X93398Y143151D01*
X93398D02*
X93432Y143104D01*
X93432D02*
X93467Y143010D01*
X93467D02*
Y142917D01*
X93432Y142823*
X93432D02*
X93364Y142682D01*
X93364D02*
X93023Y142214D01*
X93023D02*
X93501D01*
X93978Y143198D02*
X93876Y143151D01*
X93876D02*
X93842Y143057D01*
X93842D02*
Y142964D01*
X93876Y142870*
X93944Y142823*
X94080Y142776*
X94080D02*
X94182Y142729D01*
X94182D02*
X94251Y142635D01*
X94251D02*
X94285Y142542D01*
Y142401*
X94285D02*
X94251Y142307D01*
X94251D02*
X94217Y142260D01*
X94217D02*
X94114Y142214D01*
X94114D02*
X93978D01*
X93876Y142260*
X93876D02*
X93842Y142307D01*
X93842D02*
X93807Y142401D01*
X93807D02*
Y142542D01*
X93807D02*
X93842Y142635D01*
X93842D02*
X93910Y142729D01*
X93910D02*
X94012Y142776D01*
X94012D02*
X94148Y142823D01*
X94148D02*
X94217Y142870D01*
X94251Y142964*
Y143057*
X94251D02*
X94217Y143151D01*
X94217D02*
X94114Y143198D01*
X94114D02*
X93978D01*
X91134Y145198D02*
Y144214D01*
X90895Y145198D02*
X91372D01*
X91679D02*
Y144214D01*
Y145198D02*
X91986D01*
X92088Y145151*
X92088D02*
X92122Y145104D01*
X92122D02*
X92156Y145010D01*
X92156D02*
Y144870D01*
X92156D02*
X92122Y144776D01*
X92122D02*
X92088Y144729D01*
X92088D02*
X91986Y144682D01*
X91986D02*
X91679D01*
X92463Y145010D02*
X92531Y145057D01*
X92531D02*
X92634Y145198D01*
Y144214*
X92975Y144964D02*
Y145010D01*
X92975D02*
X93009Y145104D01*
X93009D02*
X93043Y145151D01*
X93043D02*
X93111Y145198D01*
X93247*
X93247D02*
X93315Y145151D01*
X93315D02*
X93350Y145104D01*
X93350D02*
X93384Y145010D01*
X93384D02*
Y144917D01*
X93350Y144823*
X93281Y144682*
X93281D02*
X92940Y144214D01*
X92940D02*
X93418D01*
X94168Y144870D02*
X94134Y144729D01*
X94134D02*
X94065Y144635D01*
X94065D02*
X93963Y144589D01*
X93963D02*
X93929D01*
X93929D02*
X93827Y144635D01*
X93827D02*
X93759Y144729D01*
X93759D02*
X93725Y144870D01*
Y144917*
X93759Y145057*
X93759D02*
X93827Y145151D01*
X93827D02*
X93929Y145198D01*
X93929D02*
X93963D01*
X93963D02*
X94065Y145151D01*
X94065D02*
X94134Y145057D01*
X94134D02*
X94168Y144870D01*
Y144635*
X94168D02*
X94134Y144401D01*
X94134D02*
X94065Y144260D01*
X94065D02*
X93963Y144214D01*
X93963D02*
X93895D01*
X93793Y144260*
X93793D02*
X93759Y144354D01*
X47892Y148898D02*
Y147914D01*
X47653Y148898D02*
X48130D01*
X48437D02*
Y147914D01*
Y148898D02*
X48744D01*
X48846Y148851*
X48846D02*
X48880Y148804D01*
X48880D02*
X48914Y148710D01*
X48914D02*
Y148570D01*
X48914D02*
X48880Y148476D01*
X48880D02*
X48846Y148429D01*
X48846D02*
X48744Y148382D01*
X48744D02*
X48437D01*
X49221Y148710D02*
X49289Y148757D01*
X49289D02*
X49392Y148898D01*
Y147914*
X50039Y148898D02*
X49698Y148242D01*
X49698D02*
X50210D01*
X50039Y148898D02*
Y147914D01*
X61648Y145123D02*
X61921Y144654D01*
X61921D02*
Y144139D01*
X62194Y145123D02*
X61921Y144654D01*
X62705Y145123D02*
X62637Y145076D01*
X62637D02*
X62569Y144982D01*
X62569D02*
X62535Y144889D01*
X62501Y144748*
Y144514*
X62535Y144373*
X62569Y144279*
X62569D02*
X62637Y144185D01*
X62637D02*
X62705Y144139D01*
X62705D02*
X62842D01*
X62910Y144185*
X62910D02*
X62978Y144279D01*
X62978D02*
X63012Y144373D01*
X63012D02*
X63046Y144514D01*
X63046D02*
Y144748D01*
X63046D02*
X63012Y144889D01*
X63012D02*
X62978Y144982D01*
X62978D02*
X62910Y145076D01*
X62910D02*
X62842Y145123D01*
X62705*
X63796D02*
X63455D01*
X63455D02*
X63421Y144701D01*
X63421D02*
X63455Y144748D01*
X63455D02*
X63557Y144795D01*
X63557D02*
X63660D01*
X63762Y144748*
X63762D02*
X63830Y144654D01*
X63830D02*
X63864Y144514D01*
X63864D02*
X63830Y144420D01*
X63830D02*
X63796Y144279D01*
X63796D02*
X63728Y144185D01*
X63728D02*
X63626Y144139D01*
X63523*
X63523D02*
X63421Y144185D01*
X63421D02*
X63387Y144232D01*
X63387D02*
X63353Y144326D01*
X105126Y200818D02*
X105876D01*
X105876D02*
X106017Y200784D01*
X106064Y200750*
X106110Y200681*
X106110D02*
Y200613D01*
X106110D02*
X106064Y200545D01*
X106017Y200511*
X105876Y200477*
X105876D02*
X105782D01*
X105126Y201568D02*
Y201227D01*
X105126D02*
X105548Y201193D01*
X105501Y201227*
X105501D02*
X105454Y201329D01*
X105454D02*
Y201431D01*
X105454D02*
X105501Y201534D01*
X105501D02*
X105595Y201602D01*
X105735Y201636*
X105735D02*
X105829Y201602D01*
X105829D02*
X105970Y201568D01*
X106064Y201500*
X106110Y201397*
X106110D02*
Y201295D01*
X106110D02*
X106064Y201193D01*
X106017Y201159*
X105923Y201125*
X108918Y177723D02*
Y176973D01*
X108884Y176832*
X108884D02*
X108850Y176785D01*
X108850D02*
X108781Y176739D01*
X108781D02*
X108713D01*
X108713D02*
X108645Y176785D01*
X108645D02*
X108611Y176832D01*
X108611D02*
X108577Y176973D01*
Y177067*
X109565Y177723D02*
X109225Y177067D01*
X109736*
X109565Y177723D02*
Y176739D01*
G54D41*
X10100Y5100D02*
X195100D01*
X10100D02*
X5100D01*
X10350D02*
X195100D01*
X10100Y57600D02*
X5100D01*
Y292100D02*
Y5100D01*
X10100Y98637D02*
X5100D01*
X10100Y148637D02*
X5100D01*
X10100Y198637D02*
X5100D01*
X195100Y5100D02*
Y292100D01*
X10100Y248675D02*
X5100D01*
X195100Y292100D02*
X5100D01*
X10100Y57600D02*
Y5100D01*
Y12600D02*
X195100D01*
X10100Y5100D02*
X195100D01*
Y57600D02*
Y5100D01*
X10100D02*
X195100D01*
X10100Y292100D02*
Y5100D01*
Y12600D02*
X5100D01*
X89400Y176900D02*
X91228D01*
X89409D02*
G03X89409I-9J0D01*
G01X91238D02*
G03X91238I-9J0D01*
G01X89438Y176938D02*
X91381D01*
X89447D02*
G03X89447I-8J0D01*
G01X91390D02*
G03X91390I-8J0D01*
G01X89438Y176976D02*
X91571D01*
X89447D02*
G03X89447I-8J0D01*
G01X91581D02*
G03X91581I-9J0D01*
G01X89514Y177014D02*
X91762D01*
X89523D02*
G03X89523I-8J0D01*
G01X91771D02*
G03X91771I-8J0D01*
G01X89514Y177052D02*
X91838D01*
X89523D02*
G03X89523I-8J0D01*
G01X91847D02*
G03X91847I-8J0D01*
G01X89552Y177090D02*
X91876D01*
X89561D02*
G03X89561I-8J0D01*
G01X91886D02*
G03X91886I-9J0D01*
G01X90695Y177128D02*
X91914D01*
X90704D02*
G03X90704I-8J0D01*
G01X91924D02*
G03X91924I-9J0D01*
G01X88142D02*
X88561D01*
X88152D02*
G03X88152I-9J0D01*
G01X88571D02*
G03X88571I-9J0D01*
G01X84561D02*
X85018D01*
X84570D02*
G03X84570I-8J0D01*
G01X85028D02*
G03X85028I-9J0D01*
G01X82542D02*
X82694D01*
X82551D02*
G03X82551I-9J0D01*
G01X82703D02*
G03X82703I-8J0D01*
G01X91152Y177166D02*
X92028D01*
X91162D02*
G03X91162I-9J0D01*
G01X92038D02*
G03X92038I-9J0D01*
G01X88066D02*
X88676D01*
X88076D02*
G03X88076I-9J0D01*
G01X88685D02*
G03X88685I-8J0D01*
G01X87456D02*
X87609D01*
X87466D02*
G03X87466I-9J0D01*
G01X87618D02*
G03X87618I-8J0D01*
G01X86618D02*
X86771D01*
X86628D02*
G03X86628I-9J0D01*
G01X86780D02*
G03X86780I-8J0D01*
G01X85437D02*
X85590D01*
X85447D02*
G03X85447I-9J0D01*
G01X85599D02*
G03X85599I-9J0D01*
G01X84485D02*
X85094D01*
X84494D02*
G03X84494I-8J0D01*
G01X85104D02*
G03X85104I-9J0D01*
G01X83189D02*
X83837D01*
X83199D02*
G03X83199I-9J0D01*
G01X83846D02*
G03X83846I-8J0D01*
G01X82542D02*
X82732D01*
X82551D02*
G03X82551I-9J0D01*
G01X82742D02*
G03X82742I-9J0D01*
G01X91266Y177204D02*
X92067D01*
X91276D02*
G03X91276I-9J0D01*
G01X92076D02*
G03X92076I-9J0D01*
G01X88028D02*
X88714D01*
X88037D02*
G03X88037I-8J0D01*
G01X88723D02*
G03X88723I-8J0D01*
G01X87418D02*
X87647D01*
X87428D02*
G03X87428I-9J0D01*
G01X87656D02*
G03X87656I-8J0D01*
G01X86618D02*
X86771D01*
X86628D02*
G03X86628I-9J0D01*
G01X86780D02*
G03X86780I-8J0D01*
G01X86237D02*
X86390D01*
X86247D02*
G03X86247I-9J0D01*
G01X86399D02*
G03X86399I-8J0D01*
G01X85437D02*
X85590D01*
X85447D02*
G03X85447I-9J0D01*
G01X85599D02*
G03X85599I-9J0D01*
G01X84408D02*
X85170D01*
X84418D02*
G03X84418I-9J0D01*
G01X85180D02*
G03X85180I-9J0D01*
G01X83189D02*
X83989D01*
X83199D02*
G03X83199I-9J0D01*
G01X83999D02*
G03X83999I-9J0D01*
G01X82542D02*
X82732D01*
X82551D02*
G03X82551I-9J0D01*
G01X82742D02*
G03X82742I-9J0D01*
G01X91343Y177242D02*
X92067D01*
X91352D02*
G03X91352I-8J0D01*
G01X92076D02*
G03X92076I-9J0D01*
G01X87952D02*
X88752D01*
X87961D02*
G03X87961I-8J0D01*
G01X88761D02*
G03X88761I-8J0D01*
G01X87380D02*
X87647D01*
X87390D02*
G03X87390I-9J0D01*
G01X87656D02*
G03X87656I-8J0D01*
G01X86618D02*
X86771D01*
X86628D02*
G03X86628I-9J0D01*
G01X86780D02*
G03X86780I-8J0D01*
G01X86237D02*
X86390D01*
X86247D02*
G03X86247I-9J0D01*
G01X86399D02*
G03X86399I-8J0D01*
G01X85437D02*
X85590D01*
X85447D02*
G03X85447I-9J0D01*
G01X85599D02*
G03X85599I-9J0D01*
G01X84370D02*
X85209D01*
X84380D02*
G03X84380I-9J0D01*
G01X85218D02*
G03X85218I-9J0D01*
G01X83189D02*
X84066D01*
X83199D02*
G03X83199I-9J0D01*
G01X84075D02*
G03X84075I-9J0D01*
G01X82542D02*
X82732D01*
X82551D02*
G03X82551I-9J0D01*
G01X82742D02*
G03X82742I-9J0D01*
G01X92714Y177281D02*
X92829D01*
X92724D02*
G03X92724I-9J0D01*
G01X92838D02*
G03X92838I-9J0D01*
G01X91495D02*
X92105D01*
X91505D02*
G03X91505I-9J0D01*
G01X92114D02*
G03X92114I-8J0D01*
G01X88447D02*
X88790D01*
X88457D02*
G03X88457I-9J0D01*
G01X88799D02*
G03X88799I-8J0D01*
G01X87914D02*
X88295D01*
X87923D02*
G03X87923I-8J0D01*
G01X88304D02*
G03X88304I-8J0D01*
G01X87342D02*
X87647D01*
X87352D02*
G03X87352I-9J0D01*
G01X87656D02*
G03X87656I-8J0D01*
G01X86618D02*
X86771D01*
X86628D02*
G03X86628I-9J0D01*
G01X86780D02*
G03X86780I-8J0D01*
G01X86237D02*
X86390D01*
X86247D02*
G03X86247I-9J0D01*
G01X86399D02*
G03X86399I-8J0D01*
G01X85437D02*
X85590D01*
X85447D02*
G03X85447I-9J0D01*
G01X85599D02*
G03X85599I-9J0D01*
G01X84866D02*
X85247D01*
X84875D02*
G03X84875I-8J0D01*
G01X85256D02*
G03X85256I-8J0D01*
G01X84332D02*
X84713D01*
X84342D02*
G03X84342I-9J0D01*
G01X84723D02*
G03X84723I-9J0D01*
G01X83189D02*
X84104D01*
X83199D02*
G03X83199I-9J0D01*
G01X84113D02*
G03X84113I-8J0D01*
G01X82542D02*
X82732D01*
X82551D02*
G03X82551I-9J0D01*
G01X82742D02*
G03X82742I-9J0D01*
G01X93362Y177319D02*
X93629D01*
X93371D02*
G03X93371I-8J0D01*
G01X93638D02*
G03X93638I-8J0D01*
G01X92714D02*
X92829D01*
X92724D02*
G03X92724I-9J0D01*
G01X92838D02*
G03X92838I-9J0D01*
G01X91571D02*
X92105D01*
X91581D02*
G03X91581I-9J0D01*
G01X92114D02*
G03X92114I-8J0D01*
G01X88561D02*
X88828D01*
X88571D02*
G03X88571I-9J0D01*
G01X88838D02*
G03X88838I-9J0D01*
G01X87914D02*
X88180D01*
X87923D02*
G03X87923I-8J0D01*
G01X88190D02*
G03X88190I-9J0D01*
G01X87304D02*
X87647D01*
X87314D02*
G03X87314I-9J0D01*
G01X87656D02*
G03X87656I-8J0D01*
G01X86618D02*
X86771D01*
X86628D02*
G03X86628I-9J0D01*
G01X86780D02*
G03X86780I-8J0D01*
G01X86237D02*
X86390D01*
X86247D02*
G03X86247I-9J0D01*
G01X86399D02*
G03X86399I-8J0D01*
G01X85437D02*
X85590D01*
X85447D02*
G03X85447I-9J0D01*
G01X85599D02*
G03X85599I-9J0D01*
G01X85018D02*
X85285D01*
X85028D02*
G03X85028I-9J0D01*
G01X85294D02*
G03X85294I-8J0D01*
G01X84294D02*
X84561D01*
X84304D02*
G03X84304I-9J0D01*
G01X84570D02*
G03X84570I-8J0D01*
G01X83646D02*
X84142D01*
X83656D02*
G03X83656I-9J0D01*
G01X84151D02*
G03X84151I-8J0D01*
G01X83304D02*
X83494D01*
X83313D02*
G03X83313I-9J0D01*
G01X83504D02*
G03X83504I-9J0D01*
G01X82542D02*
X82732D01*
X82551D02*
G03X82551I-9J0D01*
G01X82742D02*
G03X82742I-9J0D01*
G01X93286Y177357D02*
X93667D01*
X93295D02*
G03X93295I-8J0D01*
G01X93676D02*
G03X93676I-8J0D01*
G01X92714D02*
X92867D01*
X92724D02*
G03X92724I-9J0D01*
G01X92876D02*
G03X92876I-8J0D01*
G01X91609D02*
X92105D01*
X91619D02*
G03X91619I-9J0D01*
G01X92114D02*
G03X92114I-8J0D01*
G01X88638D02*
X88866D01*
X88647D02*
G03X88647I-9J0D01*
G01X88876D02*
G03X88876I-9J0D01*
G01X87876D02*
X88142D01*
X87885D02*
G03X87885I-9J0D01*
G01X88152D02*
G03X88152I-9J0D01*
G01X87304D02*
X87609D01*
X87314D02*
G03X87314I-9J0D01*
G01X87618D02*
G03X87618I-8J0D01*
G01X86618D02*
X86771D01*
X86628D02*
G03X86628I-9J0D01*
G01X86780D02*
G03X86780I-8J0D01*
G01X86237D02*
X86390D01*
X86247D02*
G03X86247I-9J0D01*
G01X86399D02*
G03X86399I-8J0D01*
G01X85437D02*
X85590D01*
X85447D02*
G03X85447I-9J0D01*
G01X85599D02*
G03X85599I-9J0D01*
G01X85094D02*
X85285D01*
X85104D02*
G03X85104I-9J0D01*
G01X85294D02*
G03X85294I-8J0D01*
G01X84294D02*
X84523D01*
X84304D02*
G03X84304I-9J0D01*
G01X84532D02*
G03X84532I-8J0D01*
G01X83913D02*
X84142D01*
X83923D02*
G03X83923I-9J0D01*
G01X84151D02*
G03X84151I-8J0D01*
G01X83304D02*
X83494D01*
X83313D02*
G03X83313I-9J0D01*
G01X83504D02*
G03X83504I-9J0D01*
G01X82542D02*
X82732D01*
X82551D02*
G03X82551I-9J0D01*
G01X82742D02*
G03X82742I-9J0D01*
G01X93248Y177395D02*
X93667D01*
X93257D02*
G03X93257I-8J0D01*
G01X93676D02*
G03X93676I-8J0D01*
G01X92714D02*
X92867D01*
X92724D02*
G03X92724I-9J0D01*
G01X92876D02*
G03X92876I-8J0D01*
G01X91647D02*
X92105D01*
X91657D02*
G03X91657I-9J0D01*
G01X92114D02*
G03X92114I-8J0D01*
G01X88676D02*
X88904D01*
X88685D02*
G03X88685I-8J0D01*
G01X88914D02*
G03X88914I-9J0D01*
G01X87837D02*
X88066D01*
X87847D02*
G03X87847I-9J0D01*
G01X88076D02*
G03X88076I-9J0D01*
G01X87266D02*
X87609D01*
X87275D02*
G03X87275I-8J0D01*
G01X87618D02*
G03X87618I-8J0D01*
G01X86618D02*
X86771D01*
X86628D02*
G03X86628I-9J0D01*
G01X86780D02*
G03X86780I-8J0D01*
G01X86237D02*
X86390D01*
X86247D02*
G03X86247I-9J0D01*
G01X86399D02*
G03X86399I-8J0D01*
G01X85437D02*
X85590D01*
X85447D02*
G03X85447I-9J0D01*
G01X85599D02*
G03X85599I-9J0D01*
G01X85132D02*
X85285D01*
X85142D02*
G03X85142I-9J0D01*
G01X85294D02*
G03X85294I-8J0D01*
G01X84256D02*
X84485D01*
X84266D02*
G03X84266I-9J0D01*
G01X84494D02*
G03X84494I-8J0D01*
G01X83989D02*
X84142D01*
X83999D02*
G03X83999I-9J0D01*
G01X84151D02*
G03X84151I-8J0D01*
G01X83304D02*
X83494D01*
X83313D02*
G03X83313I-9J0D01*
G01X83504D02*
G03X83504I-9J0D01*
G01X82542D02*
X82732D01*
X82551D02*
G03X82551I-9J0D01*
G01X82742D02*
G03X82742I-9J0D01*
G01X93514Y177433D02*
X93667D01*
X93524D02*
G03X93524I-9J0D01*
G01X93676D02*
G03X93676I-8J0D01*
G01X93248D02*
X93476D01*
X93257D02*
G03X93257I-8J0D01*
G01X93486D02*
G03X93486I-9J0D01*
G01X92714D02*
X92867D01*
X92724D02*
G03X92724I-9J0D01*
G01X92876D02*
G03X92876I-8J0D01*
G01X91686D02*
X92105D01*
X91695D02*
G03X91695I-9J0D01*
G01X92114D02*
G03X92114I-8J0D01*
G01X88676D02*
X88904D01*
X88685D02*
G03X88685I-8J0D01*
G01X88914D02*
G03X88914I-9J0D01*
G01X87837D02*
X88066D01*
X87847D02*
G03X87847I-9J0D01*
G01X88076D02*
G03X88076I-9J0D01*
G01X87228D02*
X87609D01*
X87237D02*
G03X87237I-8J0D01*
G01X87618D02*
G03X87618I-8J0D01*
G01X86618D02*
X86771D01*
X86628D02*
G03X86628I-9J0D01*
G01X86780D02*
G03X86780I-8J0D01*
G01X86237D02*
X86390D01*
X86247D02*
G03X86247I-9J0D01*
G01X86399D02*
G03X86399I-8J0D01*
G01X85437D02*
X85590D01*
X85447D02*
G03X85447I-9J0D01*
G01X85599D02*
G03X85599I-9J0D01*
G01X85170D02*
X85285D01*
X85180D02*
G03X85180I-9J0D01*
G01X85294D02*
G03X85294I-8J0D01*
G01X84256D02*
X84447D01*
X84266D02*
G03X84266I-9J0D01*
G01X84456D02*
G03X84456I-9J0D01*
G01X83304D02*
X83494D01*
X83313D02*
G03X83313I-9J0D01*
G01X83504D02*
G03X83504I-9J0D01*
G01X82542D02*
X82732D01*
X82551D02*
G03X82551I-9J0D01*
G01X82742D02*
G03X82742I-9J0D01*
G01X93210Y177471D02*
X93438D01*
X93219D02*
G03X93219I-9J0D01*
G01X93448D02*
G03X93448I-9J0D01*
G01X92714D02*
X92867D01*
X92724D02*
G03X92724I-9J0D01*
G01X92876D02*
G03X92876I-8J0D01*
G01X91686D02*
X92105D01*
X91695D02*
G03X91695I-9J0D01*
G01X92114D02*
G03X92114I-8J0D01*
G01X88714D02*
X88904D01*
X88723D02*
G03X88723I-8J0D01*
G01X88914D02*
G03X88914I-9J0D01*
G01X87837D02*
X88028D01*
X87847D02*
G03X87847I-9J0D01*
G01X88037D02*
G03X88037I-8J0D01*
G01X87456D02*
X87609D01*
X87466D02*
G03X87466I-9J0D01*
G01X87618D02*
G03X87618I-8J0D01*
G01X87228D02*
X87418D01*
X87237D02*
G03X87237I-8J0D01*
G01X87428D02*
G03X87428I-9J0D01*
G01X86618D02*
X86771D01*
X86628D02*
G03X86628I-9J0D01*
G01X86780D02*
G03X86780I-8J0D01*
G01X86237D02*
X86390D01*
X86247D02*
G03X86247I-9J0D01*
G01X86399D02*
G03X86399I-8J0D01*
G01X85437D02*
X85590D01*
X85447D02*
G03X85447I-9J0D01*
G01X85599D02*
G03X85599I-9J0D01*
G01X84256D02*
X84447D01*
X84266D02*
G03X84266I-9J0D01*
G01X84456D02*
G03X84456I-9J0D01*
G01X83304D02*
X83494D01*
X83313D02*
G03X83313I-9J0D01*
G01X83504D02*
G03X83504I-9J0D01*
G01X82542D02*
X82732D01*
X82551D02*
G03X82551I-9J0D01*
G01X82742D02*
G03X82742I-9J0D01*
G01X93210Y177509D02*
X93400D01*
X93219D02*
G03X93219I-9J0D01*
G01X93410D02*
G03X93410I-9J0D01*
G01X92714D02*
X92867D01*
X92724D02*
G03X92724I-9J0D01*
G01X92876D02*
G03X92876I-8J0D01*
G01X91686D02*
X92105D01*
X91695D02*
G03X91695I-9J0D01*
G01X92114D02*
G03X92114I-8J0D01*
G01X88752D02*
X88904D01*
X88761D02*
G03X88761I-8J0D01*
G01X88914D02*
G03X88914I-9J0D01*
G01X87799D02*
X88028D01*
X87809D02*
G03X87809I-9J0D01*
G01X88037D02*
G03X88037I-8J0D01*
G01X87456D02*
X87609D01*
X87466D02*
G03X87466I-9J0D01*
G01X87618D02*
G03X87618I-8J0D01*
G01X87190D02*
X87380D01*
X87199D02*
G03X87199I-8J0D01*
G01X87390D02*
G03X87390I-9J0D01*
G01X86618D02*
X86771D01*
X86628D02*
G03X86628I-9J0D01*
G01X86780D02*
G03X86780I-8J0D01*
G01X86237D02*
X86390D01*
X86247D02*
G03X86247I-9J0D01*
G01X86399D02*
G03X86399I-8J0D01*
G01X85437D02*
X85590D01*
X85447D02*
G03X85447I-9J0D01*
G01X85599D02*
G03X85599I-9J0D01*
G01X84218D02*
X84408D01*
X84227D02*
G03X84227I-8J0D01*
G01X84418D02*
G03X84418I-9J0D01*
G01X83304D02*
X83494D01*
X83313D02*
G03X83313I-9J0D01*
G01X83504D02*
G03X83504I-9J0D01*
G01X82542D02*
X82732D01*
X82551D02*
G03X82551I-9J0D01*
G01X82742D02*
G03X82742I-9J0D01*
G01X93210Y177547D02*
X93400D01*
X93219D02*
G03X93219I-9J0D01*
G01X93410D02*
G03X93410I-9J0D01*
G01X92714D02*
X92867D01*
X92724D02*
G03X92724I-9J0D01*
G01X92876D02*
G03X92876I-8J0D01*
G01X91647D02*
X92067D01*
X91657D02*
G03X91657I-9J0D01*
G01X92076D02*
G03X92076I-9J0D01*
G01X90733D02*
X90885D01*
X90743D02*
G03X90743I-9J0D01*
G01X90895D02*
G03X90895I-9J0D01*
G01X88752D02*
X88904D01*
X88761D02*
G03X88761I-8J0D01*
G01X88914D02*
G03X88914I-9J0D01*
G01X87799D02*
X87990D01*
X87809D02*
G03X87809I-9J0D01*
G01X87999D02*
G03X87999I-8J0D01*
G01X87456D02*
X87609D01*
X87466D02*
G03X87466I-9J0D01*
G01X87618D02*
G03X87618I-8J0D01*
G01X87152D02*
X87342D01*
X87161D02*
G03X87161I-8J0D01*
G01X87352D02*
G03X87352I-9J0D01*
G01X86618D02*
X86809D01*
X86628D02*
G03X86628I-9J0D01*
G01X86818D02*
G03X86818I-8J0D01*
G01X86237D02*
X86390D01*
X86247D02*
G03X86247I-9J0D01*
G01X86399D02*
G03X86399I-8J0D01*
G01X85437D02*
X85590D01*
X85447D02*
G03X85447I-9J0D01*
G01X85599D02*
G03X85599I-9J0D01*
G01X84218D02*
X84408D01*
X84227D02*
G03X84227I-8J0D01*
G01X84418D02*
G03X84418I-9J0D01*
G01X83304D02*
X83494D01*
X83313D02*
G03X83313I-9J0D01*
G01X83504D02*
G03X83504I-9J0D01*
G01X82542D02*
X82732D01*
X82551D02*
G03X82551I-9J0D01*
G01X82742D02*
G03X82742I-9J0D01*
G01X93210Y177585D02*
X93400D01*
X93219D02*
G03X93219I-9J0D01*
G01X93410D02*
G03X93410I-9J0D01*
G01X92752D02*
X92867D01*
X92762D02*
G03X92762I-9J0D01*
G01X92876D02*
G03X92876I-8J0D01*
G01X91647D02*
X92067D01*
X91657D02*
G03X91657I-9J0D01*
G01X92076D02*
G03X92076I-9J0D01*
G01X90619D02*
X90885D01*
X90628D02*
G03X90628I-8J0D01*
G01X90895D02*
G03X90895I-9J0D01*
G01X88752D02*
X88904D01*
X88761D02*
G03X88761I-8J0D01*
G01X88914D02*
G03X88914I-9J0D01*
G01X87799D02*
X87990D01*
X87809D02*
G03X87809I-9J0D01*
G01X87999D02*
G03X87999I-8J0D01*
G01X87456D02*
X87609D01*
X87466D02*
G03X87466I-9J0D01*
G01X87618D02*
G03X87618I-8J0D01*
G01X87152D02*
X87342D01*
X87161D02*
G03X87161I-8J0D01*
G01X87352D02*
G03X87352I-9J0D01*
G01X86618D02*
X86809D01*
X86628D02*
G03X86628I-9J0D01*
G01X86818D02*
G03X86818I-8J0D01*
G01X86237D02*
X86390D01*
X86247D02*
G03X86247I-9J0D01*
G01X86399D02*
G03X86399I-8J0D01*
G01X85437D02*
X85590D01*
X85447D02*
G03X85447I-9J0D01*
G01X85599D02*
G03X85599I-9J0D01*
G01X84218D02*
X84408D01*
X84227D02*
G03X84227I-8J0D01*
G01X84418D02*
G03X84418I-9J0D01*
G01X83304D02*
X83494D01*
X83313D02*
G03X83313I-9J0D01*
G01X83504D02*
G03X83504I-9J0D01*
G01X82542D02*
X82732D01*
X82551D02*
G03X82551I-9J0D01*
G01X82742D02*
G03X82742I-9J0D01*
G01X93210Y177623D02*
X93362D01*
X93219D02*
G03X93219I-9J0D01*
G01X93371D02*
G03X93371I-8J0D01*
G01X92752D02*
X92867D01*
X92762D02*
G03X92762I-9J0D01*
G01X92876D02*
G03X92876I-8J0D01*
G01X91609D02*
X92028D01*
X91619D02*
G03X91619I-9J0D01*
G01X92038D02*
G03X92038I-9J0D01*
G01X90543D02*
X90885D01*
X90552D02*
G03X90552I-9J0D01*
G01X90895D02*
G03X90895I-9J0D01*
G01X88752D02*
X88904D01*
X88761D02*
G03X88761I-8J0D01*
G01X88914D02*
G03X88914I-9J0D01*
G01X87799D02*
X87990D01*
X87809D02*
G03X87809I-9J0D01*
G01X87999D02*
G03X87999I-8J0D01*
G01X87456D02*
X87609D01*
X87466D02*
G03X87466I-9J0D01*
G01X87618D02*
G03X87618I-8J0D01*
G01X87114D02*
X87304D01*
X87123D02*
G03X87123I-9J0D01*
G01X87314D02*
G03X87314I-9J0D01*
G01X86618D02*
X86809D01*
X86628D02*
G03X86628I-9J0D01*
G01X86818D02*
G03X86818I-8J0D01*
G01X86237D02*
X86390D01*
X86247D02*
G03X86247I-9J0D01*
G01X86399D02*
G03X86399I-8J0D01*
G01X85437D02*
X85590D01*
X85447D02*
G03X85447I-9J0D01*
G01X85599D02*
G03X85599I-9J0D01*
G01X84218D02*
X84408D01*
X84227D02*
G03X84227I-8J0D01*
G01X84418D02*
G03X84418I-9J0D01*
G01X83342D02*
X83494D01*
X83351D02*
G03X83351I-8J0D01*
G01X83504D02*
G03X83504I-9J0D01*
G01X82580D02*
X82732D01*
X82589D02*
G03X82589I-8J0D01*
G01X82742D02*
G03X82742I-9J0D01*
G01X93210Y177662D02*
X93362D01*
X93219D02*
G03X93219I-9J0D01*
G01X93371D02*
G03X93371I-8J0D01*
G01X92752D02*
X92867D01*
X92762D02*
G03X92762I-9J0D01*
G01X92876D02*
G03X92876I-8J0D01*
G01X91571D02*
X92028D01*
X91581D02*
G03X91581I-9J0D01*
G01X92038D02*
G03X92038I-9J0D01*
G01X90543D02*
X90885D01*
X90552D02*
G03X90552I-9J0D01*
G01X90895D02*
G03X90895I-9J0D01*
G01X88790D02*
X88904D01*
X88799D02*
G03X88799I-8J0D01*
G01X88914D02*
G03X88914I-9J0D01*
G01X87799D02*
X87990D01*
X87809D02*
G03X87809I-9J0D01*
G01X87999D02*
G03X87999I-8J0D01*
G01X87456D02*
X87647D01*
X87466D02*
G03X87466I-9J0D01*
G01X87656D02*
G03X87656I-8J0D01*
G01X87075D02*
X87266D01*
X87085D02*
G03X87085I-9J0D01*
G01X87275D02*
G03X87275I-8J0D01*
G01X86618D02*
X86809D01*
X86628D02*
G03X86628I-9J0D01*
G01X86818D02*
G03X86818I-8J0D01*
G01X86237D02*
X86390D01*
X86247D02*
G03X86247I-9J0D01*
G01X86399D02*
G03X86399I-8J0D01*
G01X85437D02*
X85590D01*
X85447D02*
G03X85447I-9J0D01*
G01X85599D02*
G03X85599I-9J0D01*
G01X84218D02*
X84370D01*
X84227D02*
G03X84227I-8J0D01*
G01X84380D02*
G03X84380I-9J0D01*
G01X83342D02*
X83494D01*
X83351D02*
G03X83351I-8J0D01*
G01X83504D02*
G03X83504I-9J0D01*
G01X82580D02*
X82732D01*
X82589D02*
G03X82589I-8J0D01*
G01X82742D02*
G03X82742I-9J0D01*
G01X93210Y177700D02*
X93362D01*
X93219D02*
G03X93219I-9J0D01*
G01X93371D02*
G03X93371I-8J0D01*
G01X92752D02*
X92867D01*
X92762D02*
G03X92762I-9J0D01*
G01X92876D02*
G03X92876I-8J0D01*
G01X91495D02*
X91952D01*
X91505D02*
G03X91505I-9J0D01*
G01X91962D02*
G03X91962I-9J0D01*
G01X90543D02*
X90885D01*
X90552D02*
G03X90552I-9J0D01*
G01X90895D02*
G03X90895I-9J0D01*
G01X89857D02*
X90123D01*
X89866D02*
G03X89866I-8J0D01*
G01X90133D02*
G03X90133I-9J0D01*
G01X88790D02*
X88904D01*
X88799D02*
G03X88799I-8J0D01*
G01X88914D02*
G03X88914I-9J0D01*
G01X87799D02*
X87952D01*
X87809D02*
G03X87809I-9J0D01*
G01X87961D02*
G03X87961I-8J0D01*
G01X87456D02*
X87647D01*
X87466D02*
G03X87466I-9J0D01*
G01X87656D02*
G03X87656I-8J0D01*
G01X87075D02*
X87266D01*
X87085D02*
G03X87085I-9J0D01*
G01X87275D02*
G03X87275I-8J0D01*
G01X86618D02*
X86809D01*
X86628D02*
G03X86628I-9J0D01*
G01X86818D02*
G03X86818I-8J0D01*
G01X86237D02*
X86390D01*
X86247D02*
G03X86247I-9J0D01*
G01X86399D02*
G03X86399I-8J0D01*
G01X85437D02*
X85590D01*
X85447D02*
G03X85447I-9J0D01*
G01X85599D02*
G03X85599I-9J0D01*
G01X84218D02*
X84370D01*
X84227D02*
G03X84227I-8J0D01*
G01X84380D02*
G03X84380I-9J0D01*
G01X83342D02*
X83494D01*
X83351D02*
G03X83351I-8J0D01*
G01X83504D02*
G03X83504I-9J0D01*
G01X82580D02*
X82732D01*
X82589D02*
G03X82589I-8J0D01*
G01X82742D02*
G03X82742I-9J0D01*
G01X93210Y177738D02*
X93362D01*
X93219D02*
G03X93219I-9J0D01*
G01X93371D02*
G03X93371I-8J0D01*
G01X92752D02*
X92867D01*
X92762D02*
G03X92762I-9J0D01*
G01X92876D02*
G03X92876I-8J0D01*
G01X91495D02*
X91952D01*
X91505D02*
G03X91505I-9J0D01*
G01X91962D02*
G03X91962I-9J0D01*
G01X90543D02*
X90924D01*
X90552D02*
G03X90552I-9J0D01*
G01X90933D02*
G03X90933I-9J0D01*
G01X89857D02*
X90123D01*
X89866D02*
G03X89866I-8J0D01*
G01X90133D02*
G03X90133I-9J0D01*
G01X88790D02*
X88904D01*
X88799D02*
G03X88799I-8J0D01*
G01X88914D02*
G03X88914I-9J0D01*
G01X87799D02*
X87952D01*
X87809D02*
G03X87809I-9J0D01*
G01X87961D02*
G03X87961I-8J0D01*
G01X87456D02*
X87647D01*
X87466D02*
G03X87466I-9J0D01*
G01X87656D02*
G03X87656I-8J0D01*
G01X87037D02*
X87228D01*
X87047D02*
G03X87047I-9J0D01*
G01X87237D02*
G03X87237I-8J0D01*
G01X86618D02*
X86809D01*
X86628D02*
G03X86628I-9J0D01*
G01X86818D02*
G03X86818I-8J0D01*
G01X85437D02*
X86390D01*
X85447D02*
G03X85447I-9J0D01*
G01X86399D02*
G03X86399I-8J0D01*
G01X84218D02*
X84370D01*
X84227D02*
G03X84227I-8J0D01*
G01X84380D02*
G03X84380I-9J0D01*
G01X83342D02*
X83494D01*
X83351D02*
G03X83351I-8J0D01*
G01X83504D02*
G03X83504I-9J0D01*
G01X82580D02*
X82732D01*
X82589D02*
G03X82589I-8J0D01*
G01X82742D02*
G03X82742I-9J0D01*
G01X93210Y177776D02*
X93400D01*
X93219D02*
G03X93219I-9J0D01*
G01X93410D02*
G03X93410I-9J0D01*
G01X92752D02*
X92867D01*
X92762D02*
G03X92762I-9J0D01*
G01X92876D02*
G03X92876I-8J0D01*
G01X91419D02*
X91914D01*
X91428D02*
G03X91428I-8J0D01*
G01X91924D02*
G03X91924I-9J0D01*
G01X90581D02*
X90924D01*
X90590D02*
G03X90590I-8J0D01*
G01X90933D02*
G03X90933I-9J0D01*
G01X89857D02*
X90123D01*
X89866D02*
G03X89866I-8J0D01*
G01X90133D02*
G03X90133I-9J0D01*
G01X88790D02*
X88904D01*
X88799D02*
G03X88799I-8J0D01*
G01X88914D02*
G03X88914I-9J0D01*
G01X87799D02*
X87952D01*
X87809D02*
G03X87809I-9J0D01*
G01X87961D02*
G03X87961I-8J0D01*
G01X87456D02*
X87647D01*
X87466D02*
G03X87466I-9J0D01*
G01X87656D02*
G03X87656I-8J0D01*
G01X87037D02*
X87228D01*
X87047D02*
G03X87047I-9J0D01*
G01X87237D02*
G03X87237I-8J0D01*
G01X86618D02*
X86809D01*
X86628D02*
G03X86628I-9J0D01*
G01X86818D02*
G03X86818I-8J0D01*
G01X85399D02*
X86390D01*
X85409D02*
G03X85409I-9J0D01*
G01X86399D02*
G03X86399I-8J0D01*
G01X84218D02*
X84370D01*
X84227D02*
G03X84227I-8J0D01*
G01X84380D02*
G03X84380I-9J0D01*
G01X83342D02*
X83913D01*
X83351D02*
G03X83351I-8J0D01*
G01X83923D02*
G03X83923I-9J0D01*
G01X82580D02*
X82732D01*
X82589D02*
G03X82589I-8J0D01*
G01X82742D02*
G03X82742I-9J0D01*
G01X93210Y177814D02*
X93400D01*
X93219D02*
G03X93219I-9J0D01*
G01X93410D02*
G03X93410I-9J0D01*
G01X92752D02*
X92867D01*
X92762D02*
G03X92762I-9J0D01*
G01X92876D02*
G03X92876I-8J0D01*
G01X91305D02*
X91876D01*
X91314D02*
G03X91314I-9J0D01*
G01X91886D02*
G03X91886I-9J0D01*
G01X90581D02*
X90924D01*
X90590D02*
G03X90590I-8J0D01*
G01X90933D02*
G03X90933I-9J0D01*
G01X89857D02*
X90162D01*
X89866D02*
G03X89866I-8J0D01*
G01X90171D02*
G03X90171I-9J0D01*
G01X88790D02*
X88904D01*
X88799D02*
G03X88799I-8J0D01*
G01X88914D02*
G03X88914I-9J0D01*
G01X87799D02*
X87952D01*
X87809D02*
G03X87809I-9J0D01*
G01X87961D02*
G03X87961I-8J0D01*
G01X87456D02*
X87647D01*
X87466D02*
G03X87466I-9J0D01*
G01X87656D02*
G03X87656I-8J0D01*
G01X86999D02*
X87190D01*
X87009D02*
G03X87009I-9J0D01*
G01X87199D02*
G03X87199I-8J0D01*
G01X86656D02*
X86809D01*
X86666D02*
G03X86666I-9J0D01*
G01X86818D02*
G03X86818I-8J0D01*
G01X85399D02*
X86390D01*
X85409D02*
G03X85409I-9J0D01*
G01X86399D02*
G03X86399I-8J0D01*
G01X84218D02*
X84370D01*
X84227D02*
G03X84227I-8J0D01*
G01X84380D02*
G03X84380I-9J0D01*
G01X83342D02*
X83913D01*
X83351D02*
G03X83351I-8J0D01*
G01X83923D02*
G03X83923I-9J0D01*
G01X82580D02*
X82732D01*
X82589D02*
G03X82589I-8J0D01*
G01X82742D02*
G03X82742I-9J0D01*
G01X93476Y177852D02*
X93667D01*
X93486D02*
G03X93486I-9J0D01*
G01X93676D02*
G03X93676I-8J0D01*
G01X93019D02*
X93400D01*
X93029D02*
G03X93029I-9J0D01*
G01X93410D02*
G03X93410I-9J0D01*
G01X92752D02*
X92867D01*
X92762D02*
G03X92762I-9J0D01*
G01X92876D02*
G03X92876I-8J0D01*
G01X91228D02*
X91838D01*
X91238D02*
G03X91238I-9J0D01*
G01X91847D02*
G03X91847I-8J0D01*
G01X90581D02*
X90924D01*
X90590D02*
G03X90590I-8J0D01*
G01X90933D02*
G03X90933I-9J0D01*
G01X89857D02*
X90162D01*
X89866D02*
G03X89866I-8J0D01*
G01X90171D02*
G03X90171I-9J0D01*
G01X88752D02*
X88904D01*
X88761D02*
G03X88761I-8J0D01*
G01X88914D02*
G03X88914I-9J0D01*
G01X87799D02*
X87990D01*
X87809D02*
G03X87809I-9J0D01*
G01X87999D02*
G03X87999I-8J0D01*
G01X87456D02*
X87647D01*
X87466D02*
G03X87466I-9J0D01*
G01X87656D02*
G03X87656I-8J0D01*
G01X86999D02*
X87190D01*
X87009D02*
G03X87009I-9J0D01*
G01X87199D02*
G03X87199I-8J0D01*
G01X86656D02*
X86809D01*
X86666D02*
G03X86666I-9J0D01*
G01X86818D02*
G03X86818I-8J0D01*
G01X85399D02*
X86390D01*
X85409D02*
G03X85409I-9J0D01*
G01X86399D02*
G03X86399I-8J0D01*
G01X84218D02*
X84408D01*
X84227D02*
G03X84227I-8J0D01*
G01X84418D02*
G03X84418I-9J0D01*
G01X83342D02*
X83913D01*
X83351D02*
G03X83351I-8J0D01*
G01X83923D02*
G03X83923I-9J0D01*
G01X82580D02*
X82732D01*
X82589D02*
G03X82589I-8J0D01*
G01X82742D02*
G03X82742I-9J0D01*
G01X93019Y177890D02*
X93667D01*
X93029D02*
G03X93029I-9J0D01*
G01X93676D02*
G03X93676I-8J0D01*
G01X92752D02*
X92867D01*
X92762D02*
G03X92762I-9J0D01*
G01X92876D02*
G03X92876I-8J0D01*
G01X91190D02*
X91800D01*
X91200D02*
G03X91200I-9J0D01*
G01X91809D02*
G03X91809I-8J0D01*
G01X90581D02*
X90924D01*
X90590D02*
G03X90590I-8J0D01*
G01X90933D02*
G03X90933I-9J0D01*
G01X89857D02*
X90162D01*
X89866D02*
G03X89866I-8J0D01*
G01X90171D02*
G03X90171I-9J0D01*
G01X88752D02*
X88904D01*
X88761D02*
G03X88761I-8J0D01*
G01X88914D02*
G03X88914I-9J0D01*
G01X87799D02*
X87990D01*
X87809D02*
G03X87809I-9J0D01*
G01X87999D02*
G03X87999I-8J0D01*
G01X87456D02*
X87647D01*
X87466D02*
G03X87466I-9J0D01*
G01X87656D02*
G03X87656I-8J0D01*
G01X86961D02*
X87152D01*
X86971D02*
G03X86971I-9J0D01*
G01X87161D02*
G03X87161I-8J0D01*
G01X86656D02*
X86809D01*
X86666D02*
G03X86666I-9J0D01*
G01X86818D02*
G03X86818I-8J0D01*
G01X86085D02*
X86390D01*
X86094D02*
G03X86094I-8J0D01*
G01X86399D02*
G03X86399I-8J0D01*
G01X85437D02*
X85628D01*
X85447D02*
G03X85447I-9J0D01*
G01X85637D02*
G03X85637I-8J0D01*
G01X84218D02*
X84408D01*
X84227D02*
G03X84227I-8J0D01*
G01X84418D02*
G03X84418I-9J0D01*
G01X83761D02*
X83875D01*
X83770D02*
G03X83770I-8J0D01*
G01X83885D02*
G03X83885I-9J0D01*
G01X83342D02*
X83494D01*
X83351D02*
G03X83351I-8J0D01*
G01X83504D02*
G03X83504I-9J0D01*
G01X82580D02*
X82732D01*
X82589D02*
G03X82589I-8J0D01*
G01X82742D02*
G03X82742I-9J0D01*
G01X93019Y177928D02*
X93667D01*
X93029D02*
G03X93029I-9J0D01*
G01X93676D02*
G03X93676I-8J0D01*
G01X92752D02*
X92867D01*
X92762D02*
G03X92762I-9J0D01*
G01X92876D02*
G03X92876I-8J0D01*
G01X91114D02*
X91762D01*
X91124D02*
G03X91124I-9J0D01*
G01X91771D02*
G03X91771I-8J0D01*
G01X90581D02*
X90924D01*
X90590D02*
G03X90590I-8J0D01*
G01X90933D02*
G03X90933I-9J0D01*
G01X89857D02*
X90162D01*
X89866D02*
G03X89866I-8J0D01*
G01X90171D02*
G03X90171I-9J0D01*
G01X88752D02*
X88904D01*
X88761D02*
G03X88761I-8J0D01*
G01X88914D02*
G03X88914I-9J0D01*
G01X87799D02*
X87990D01*
X87809D02*
G03X87809I-9J0D01*
G01X87999D02*
G03X87999I-8J0D01*
G01X87456D02*
X87647D01*
X87466D02*
G03X87466I-9J0D01*
G01X87656D02*
G03X87656I-8J0D01*
G01X86923D02*
X87114D01*
X86933D02*
G03X86933I-9J0D01*
G01X87123D02*
G03X87123I-9J0D01*
G01X86656D02*
X86847D01*
X86666D02*
G03X86666I-9J0D01*
G01X86856D02*
G03X86856I-8J0D01*
G01X86237D02*
X86390D01*
X86247D02*
G03X86247I-9J0D01*
G01X86399D02*
G03X86399I-8J0D01*
G01X85437D02*
X85628D01*
X85447D02*
G03X85447I-9J0D01*
G01X85637D02*
G03X85637I-8J0D01*
G01X84218D02*
X84408D01*
X84227D02*
G03X84227I-8J0D01*
G01X84418D02*
G03X84418I-9J0D01*
G01X83342D02*
X83494D01*
X83351D02*
G03X83351I-8J0D01*
G01X83504D02*
G03X83504I-9J0D01*
G01X82580D02*
X82732D01*
X82589D02*
G03X82589I-8J0D01*
G01X82742D02*
G03X82742I-9J0D01*
G01X93095Y177966D02*
X93629D01*
X93105D02*
G03X93105I-9J0D01*
G01X93638D02*
G03X93638I-8J0D01*
G01X92752D02*
X92867D01*
X92762D02*
G03X92762I-9J0D01*
G01X92876D02*
G03X92876I-8J0D01*
G01X90962D02*
X91686D01*
X90971D02*
G03X90971I-8J0D01*
G01X91695D02*
G03X91695I-9J0D01*
G01X90619D02*
X90924D01*
X90628D02*
G03X90628I-8J0D01*
G01X90933D02*
G03X90933I-9J0D01*
G01X89857D02*
X90162D01*
X89866D02*
G03X89866I-8J0D01*
G01X90171D02*
G03X90171I-9J0D01*
G01X88752D02*
X88904D01*
X88761D02*
G03X88761I-8J0D01*
G01X88914D02*
G03X88914I-9J0D01*
G01X87799D02*
X87990D01*
X87809D02*
G03X87809I-9J0D01*
G01X87999D02*
G03X87999I-8J0D01*
G01X87456D02*
X87647D01*
X87466D02*
G03X87466I-9J0D01*
G01X87656D02*
G03X87656I-8J0D01*
G01X86923D02*
X87114D01*
X86933D02*
G03X86933I-9J0D01*
G01X87123D02*
G03X87123I-9J0D01*
G01X86656D02*
X86847D01*
X86666D02*
G03X86666I-9J0D01*
G01X86856D02*
G03X86856I-8J0D01*
G01X86237D02*
X86390D01*
X86247D02*
G03X86247I-9J0D01*
G01X86399D02*
G03X86399I-8J0D01*
G01X85437D02*
X85628D01*
X85447D02*
G03X85447I-9J0D01*
G01X85637D02*
G03X85637I-8J0D01*
G01X84218D02*
X84408D01*
X84227D02*
G03X84227I-8J0D01*
G01X84418D02*
G03X84418I-9J0D01*
G01X83342D02*
X83494D01*
X83351D02*
G03X83351I-8J0D01*
G01X83504D02*
G03X83504I-9J0D01*
G01X82580D02*
X82732D01*
X82589D02*
G03X82589I-8J0D01*
G01X82742D02*
G03X82742I-9J0D01*
G01X93248Y178004D02*
X93476D01*
X93257D02*
G03X93257I-8J0D01*
G01X93486D02*
G03X93486I-9J0D01*
G01X92752D02*
X92867D01*
X92762D02*
G03X92762I-9J0D01*
G01X92876D02*
G03X92876I-8J0D01*
G01X90619D02*
X91686D01*
X90628D02*
G03X90628I-8J0D01*
G01X91695D02*
G03X91695I-9J0D01*
G01X89857D02*
X90162D01*
X89866D02*
G03X89866I-8J0D01*
G01X90171D02*
G03X90171I-9J0D01*
G01X88714D02*
X88904D01*
X88723D02*
G03X88723I-8J0D01*
G01X88914D02*
G03X88914I-9J0D01*
G01X87837D02*
X87990D01*
X87847D02*
G03X87847I-9J0D01*
G01X87999D02*
G03X87999I-8J0D01*
G01X87495D02*
X87647D01*
X87504D02*
G03X87504I-9J0D01*
G01X87656D02*
G03X87656I-8J0D01*
G01X86885D02*
X87075D01*
X86894D02*
G03X86894I-8J0D01*
G01X87085D02*
G03X87085I-9J0D01*
G01X86656D02*
X86847D01*
X86666D02*
G03X86666I-9J0D01*
G01X86856D02*
G03X86856I-8J0D01*
G01X86237D02*
X86390D01*
X86247D02*
G03X86247I-9J0D01*
G01X86399D02*
G03X86399I-8J0D01*
G01X85437D02*
X85628D01*
X85447D02*
G03X85447I-9J0D01*
G01X85637D02*
G03X85637I-8J0D01*
G01X84256D02*
X84447D01*
X84266D02*
G03X84266I-9J0D01*
G01X84456D02*
G03X84456I-9J0D01*
G01X83342D02*
X83494D01*
X83351D02*
G03X83351I-8J0D01*
G01X83504D02*
G03X83504I-9J0D01*
G01X82580D02*
X82732D01*
X82589D02*
G03X82589I-8J0D01*
G01X82742D02*
G03X82742I-9J0D01*
G01X93286Y178043D02*
X93476D01*
X93295D02*
G03X93295I-8J0D01*
G01X93486D02*
G03X93486I-9J0D01*
G01X92752D02*
X92867D01*
X92762D02*
G03X92762I-9J0D01*
G01X92876D02*
G03X92876I-8J0D01*
G01X90619D02*
X91647D01*
X90628D02*
G03X90628I-8J0D01*
G01X91657D02*
G03X91657I-9J0D01*
G01X89857D02*
X90162D01*
X89866D02*
G03X89866I-8J0D01*
G01X90171D02*
G03X90171I-9J0D01*
G01X88714D02*
X88904D01*
X88723D02*
G03X88723I-8J0D01*
G01X88914D02*
G03X88914I-9J0D01*
G01X87837D02*
X88028D01*
X87847D02*
G03X87847I-9J0D01*
G01X88037D02*
G03X88037I-8J0D01*
G01X87495D02*
X87647D01*
X87504D02*
G03X87504I-9J0D01*
G01X87656D02*
G03X87656I-8J0D01*
G01X86885D02*
X87075D01*
X86894D02*
G03X86894I-8J0D01*
G01X87085D02*
G03X87085I-9J0D01*
G01X86694D02*
X86847D01*
X86704D02*
G03X86704I-9J0D01*
G01X86856D02*
G03X86856I-8J0D01*
G01X86237D02*
X86428D01*
X86247D02*
G03X86247I-9J0D01*
G01X86437D02*
G03X86437I-8J0D01*
G01X85437D02*
X85628D01*
X85447D02*
G03X85447I-9J0D01*
G01X85637D02*
G03X85637I-8J0D01*
G01X84256D02*
X84447D01*
X84266D02*
G03X84266I-9J0D01*
G01X84456D02*
G03X84456I-9J0D01*
G01X83342D02*
X83494D01*
X83351D02*
G03X83351I-8J0D01*
G01X83504D02*
G03X83504I-9J0D01*
G01X82580D02*
X82732D01*
X82589D02*
G03X82589I-8J0D01*
G01X82742D02*
G03X82742I-9J0D01*
G01X93286Y178081D02*
X93476D01*
X93295D02*
G03X93295I-8J0D01*
G01X93486D02*
G03X93486I-9J0D01*
G01X90466D02*
X91571D01*
X90476D02*
G03X90476I-9J0D01*
G01X91581D02*
G03X91581I-9J0D01*
G01X89857D02*
X90162D01*
X89866D02*
G03X89866I-8J0D01*
G01X90171D02*
G03X90171I-9J0D01*
G01X88676D02*
X88904D01*
X88685D02*
G03X88685I-8J0D01*
G01X88914D02*
G03X88914I-9J0D01*
G01X87837D02*
X88028D01*
X87847D02*
G03X87847I-9J0D01*
G01X88037D02*
G03X88037I-8J0D01*
G01X87495D02*
X87685D01*
X87504D02*
G03X87504I-9J0D01*
G01X87695D02*
G03X87695I-9J0D01*
G01X86694D02*
X87075D01*
X86704D02*
G03X86704I-9J0D01*
G01X87085D02*
G03X87085I-9J0D01*
G01X86237D02*
X86428D01*
X86247D02*
G03X86247I-9J0D01*
G01X86437D02*
G03X86437I-8J0D01*
G01X85437D02*
X85628D01*
X85447D02*
G03X85447I-9J0D01*
G01X85637D02*
G03X85637I-8J0D01*
G01X84256D02*
X84485D01*
X84266D02*
G03X84266I-9J0D01*
G01X84494D02*
G03X84494I-8J0D01*
G01X83342D02*
X83494D01*
X83351D02*
G03X83351I-8J0D01*
G01X83504D02*
G03X83504I-9J0D01*
G01X82580D02*
X82732D01*
X82589D02*
G03X82589I-8J0D01*
G01X82742D02*
G03X82742I-9J0D01*
G01X82084D02*
X82199D01*
X82094D02*
G03X82094I-9J0D01*
G01X82208D02*
G03X82208I-8J0D01*
G01X93324Y178119D02*
X93476D01*
X93333D02*
G03X93333I-8J0D01*
G01X93486D02*
G03X93486I-9J0D01*
G01X90390D02*
X91533D01*
X90400D02*
G03X90400I-9J0D01*
G01X91543D02*
G03X91543I-9J0D01*
G01X89857D02*
X90162D01*
X89866D02*
G03X89866I-8J0D01*
G01X90171D02*
G03X90171I-9J0D01*
G01X88676D02*
X88866D01*
X88685D02*
G03X88685I-8J0D01*
G01X88876D02*
G03X88876I-9J0D01*
G01X87876D02*
X88066D01*
X87885D02*
G03X87885I-9J0D01*
G01X88076D02*
G03X88076I-9J0D01*
G01X87495D02*
X87685D01*
X87504D02*
G03X87504I-9J0D01*
G01X87695D02*
G03X87695I-9J0D01*
G01X86694D02*
X87037D01*
X86704D02*
G03X86704I-9J0D01*
G01X87047D02*
G03X87047I-9J0D01*
G01X86237D02*
X86428D01*
X86247D02*
G03X86247I-9J0D01*
G01X86437D02*
G03X86437I-8J0D01*
G01X85437D02*
X85628D01*
X85447D02*
G03X85447I-9J0D01*
G01X85637D02*
G03X85637I-8J0D01*
G01X84294D02*
X84523D01*
X84304D02*
G03X84304I-9J0D01*
G01X84532D02*
G03X84532I-8J0D01*
G01X83342D02*
X83494D01*
X83351D02*
G03X83351I-8J0D01*
G01X83504D02*
G03X83504I-9J0D01*
G01X82580D02*
X82732D01*
X82589D02*
G03X82589I-8J0D01*
G01X82742D02*
G03X82742I-9J0D01*
G01X82084D02*
X82199D01*
X82094D02*
G03X82094I-9J0D01*
G01X82208D02*
G03X82208I-8J0D01*
G01X92714Y178157D02*
X92905D01*
X92724D02*
G03X92724I-9J0D01*
G01X92914D02*
G03X92914I-8J0D01*
G01X90200D02*
X91495D01*
X90209D02*
G03X90209I-8J0D01*
G01X91505D02*
G03X91505I-9J0D01*
G01X89857D02*
X90162D01*
X89866D02*
G03X89866I-8J0D01*
G01X90171D02*
G03X90171I-9J0D01*
G01X88599D02*
X88866D01*
X88609D02*
G03X88609I-9J0D01*
G01X88876D02*
G03X88876I-9J0D01*
G01X87876D02*
X88104D01*
X87885D02*
G03X87885I-9J0D01*
G01X88114D02*
G03X88114I-9J0D01*
G01X87495D02*
X87685D01*
X87504D02*
G03X87504I-9J0D01*
G01X87695D02*
G03X87695I-9J0D01*
G01X86694D02*
X87037D01*
X86704D02*
G03X86704I-9J0D01*
G01X87047D02*
G03X87047I-9J0D01*
G01X86237D02*
X86428D01*
X86247D02*
G03X86247I-9J0D01*
G01X86437D02*
G03X86437I-8J0D01*
G01X85437D02*
X85628D01*
X85447D02*
G03X85447I-9J0D01*
G01X85637D02*
G03X85637I-8J0D01*
G01X85056D02*
X85209D01*
X85066D02*
G03X85066I-9J0D01*
G01X85218D02*
G03X85218I-9J0D01*
G01X84294D02*
X84561D01*
X84304D02*
G03X84304I-9J0D01*
G01X84570D02*
G03X84570I-8J0D01*
G01X83342D02*
X83494D01*
X83351D02*
G03X83351I-8J0D01*
G01X83504D02*
G03X83504I-9J0D01*
G01X82580D02*
X82732D01*
X82589D02*
G03X82589I-8J0D01*
G01X82742D02*
G03X82742I-9J0D01*
G01X82084D02*
X82199D01*
X82094D02*
G03X82094I-9J0D01*
G01X82208D02*
G03X82208I-8J0D01*
G01X92714Y178195D02*
X92905D01*
X92724D02*
G03X92724I-9J0D01*
G01X92914D02*
G03X92914I-8J0D01*
G01X89857D02*
X91457D01*
X89866D02*
G03X89866I-8J0D01*
G01X91466D02*
G03X91466I-8J0D01*
G01X88561D02*
X88828D01*
X88571D02*
G03X88571I-9J0D01*
G01X88838D02*
G03X88838I-9J0D01*
G01X87914D02*
X88180D01*
X87923D02*
G03X87923I-8J0D01*
G01X88190D02*
G03X88190I-9J0D01*
G01X87495D02*
X87685D01*
X87504D02*
G03X87504I-9J0D01*
G01X87695D02*
G03X87695I-9J0D01*
G01X86694D02*
X86999D01*
X86704D02*
G03X86704I-9J0D01*
G01X87009D02*
G03X87009I-9J0D01*
G01X86237D02*
X86428D01*
X86247D02*
G03X86247I-9J0D01*
G01X86437D02*
G03X86437I-8J0D01*
G01X85437D02*
X85628D01*
X85447D02*
G03X85447I-9J0D01*
G01X85637D02*
G03X85637I-8J0D01*
G01X84980D02*
X85209D01*
X84989D02*
G03X84989I-8J0D01*
G01X85218D02*
G03X85218I-9J0D01*
G01X84332D02*
X84599D01*
X84342D02*
G03X84342I-9J0D01*
G01X84608D02*
G03X84608I-8J0D01*
G01X83913D02*
X84066D01*
X83923D02*
G03X83923I-9J0D01*
G01X84075D02*
G03X84075I-9J0D01*
G01X83342D02*
X83494D01*
X83351D02*
G03X83351I-8J0D01*
G01X83504D02*
G03X83504I-9J0D01*
G01X83075D02*
X83227D01*
X83084D02*
G03X83084I-8J0D01*
G01X83237D02*
G03X83237I-9J0D01*
G01X82580D02*
X82732D01*
X82589D02*
G03X82589I-8J0D01*
G01X82742D02*
G03X82742I-9J0D01*
G01X82084D02*
X82237D01*
X82094D02*
G03X82094I-9J0D01*
G01X82246D02*
G03X82246I-8J0D01*
G01X92714Y178233D02*
X92905D01*
X92724D02*
G03X92724I-9J0D01*
G01X92914D02*
G03X92914I-8J0D01*
G01X89552D02*
X91419D01*
X89561D02*
G03X89561I-8J0D01*
G01X91428D02*
G03X91428I-8J0D01*
G01X88409D02*
X88790D01*
X88418D02*
G03X88418I-8J0D01*
G01X88799D02*
G03X88799I-8J0D01*
G01X87952D02*
X88295D01*
X87961D02*
G03X87961I-8J0D01*
G01X88304D02*
G03X88304I-8J0D01*
G01X87533D02*
X87685D01*
X87542D02*
G03X87542I-8J0D01*
G01X87695D02*
G03X87695I-9J0D01*
G01X86733D02*
X86999D01*
X86742D02*
G03X86742I-9J0D01*
G01X87009D02*
G03X87009I-9J0D01*
G01X86237D02*
X86428D01*
X86247D02*
G03X86247I-9J0D01*
G01X86437D02*
G03X86437I-8J0D01*
G01X85475D02*
X85628D01*
X85485D02*
G03X85485I-9J0D01*
G01X85637D02*
G03X85637I-8J0D01*
G01X84866D02*
X85209D01*
X84875D02*
G03X84875I-8J0D01*
G01X85218D02*
G03X85218I-9J0D01*
G01X84370D02*
X84713D01*
X84380D02*
G03X84380I-9J0D01*
G01X84723D02*
G03X84723I-9J0D01*
G01X83570D02*
X84066D01*
X83580D02*
G03X83580I-9J0D01*
G01X84075D02*
G03X84075I-9J0D01*
G01X83342D02*
X83494D01*
X83351D02*
G03X83351I-8J0D01*
G01X83504D02*
G03X83504I-9J0D01*
G01X82808D02*
X83227D01*
X82818D02*
G03X82818I-9J0D01*
G01X83237D02*
G03X83237I-9J0D01*
G01X82580D02*
X82732D01*
X82589D02*
G03X82589I-8J0D01*
G01X82742D02*
G03X82742I-9J0D01*
G01X82084D02*
X82465D01*
X82094D02*
G03X82094I-9J0D01*
G01X82475D02*
G03X82475I-9J0D01*
G01X92714Y178271D02*
X92905D01*
X92724D02*
G03X92724I-9J0D01*
G01X92914D02*
G03X92914I-8J0D01*
G01X89552D02*
X91495D01*
X89561D02*
G03X89561I-8J0D01*
G01X91505D02*
G03X91505I-9J0D01*
G01X87952D02*
X88752D01*
X87961D02*
G03X87961I-8J0D01*
G01X88761D02*
G03X88761I-8J0D01*
G01X87533D02*
X87685D01*
X87542D02*
G03X87542I-8J0D01*
G01X87695D02*
G03X87695I-9J0D01*
G01X86733D02*
X86961D01*
X86742D02*
G03X86742I-9J0D01*
G01X86971D02*
G03X86971I-9J0D01*
G01X86237D02*
X86428D01*
X86247D02*
G03X86247I-9J0D01*
G01X86437D02*
G03X86437I-8J0D01*
G01X85475D02*
X85628D01*
X85485D02*
G03X85485I-9J0D01*
G01X85637D02*
G03X85637I-8J0D01*
G01X84408D02*
X85209D01*
X84418D02*
G03X84418I-9J0D01*
G01X85218D02*
G03X85218I-9J0D01*
G01X82084D02*
X84066D01*
X82094D02*
G03X82094I-9J0D01*
G01X84075D02*
G03X84075I-9J0D01*
G01X92752Y178309D02*
X92905D01*
X92762D02*
G03X92762I-9J0D01*
G01X92914D02*
G03X92914I-8J0D01*
G01X89552D02*
X91571D01*
X89561D02*
G03X89561I-8J0D01*
G01X91581D02*
G03X91581I-9J0D01*
G01X88028D02*
X88714D01*
X88037D02*
G03X88037I-8J0D01*
G01X88723D02*
G03X88723I-8J0D01*
G01X87533D02*
X87685D01*
X87542D02*
G03X87542I-8J0D01*
G01X87695D02*
G03X87695I-9J0D01*
G01X86733D02*
X86961D01*
X86742D02*
G03X86742I-9J0D01*
G01X86971D02*
G03X86971I-9J0D01*
G01X86237D02*
X86428D01*
X86247D02*
G03X86247I-9J0D01*
G01X86437D02*
G03X86437I-8J0D01*
G01X85475D02*
X85628D01*
X85485D02*
G03X85485I-9J0D01*
G01X85637D02*
G03X85637I-8J0D01*
G01X84447D02*
X85132D01*
X84456D02*
G03X84456I-9J0D01*
G01X85142D02*
G03X85142I-9J0D01*
G01X82122D02*
X84027D01*
X82132D02*
G03X82132I-9J0D01*
G01X84037D02*
G03X84037I-9J0D01*
G01X89552Y178347D02*
X91686D01*
X89561D02*
G03X89561I-8J0D01*
G01X91695D02*
G03X91695I-9J0D01*
G01X88066D02*
X88676D01*
X88076D02*
G03X88076I-9J0D01*
G01X88685D02*
G03X88685I-8J0D01*
G01X87533D02*
X87685D01*
X87542D02*
G03X87542I-8J0D01*
G01X87695D02*
G03X87695I-9J0D01*
G01X86771D02*
X86923D01*
X86780D02*
G03X86780I-8J0D01*
G01X86933D02*
G03X86933I-9J0D01*
G01X86237D02*
X86428D01*
X86247D02*
G03X86247I-9J0D01*
G01X86437D02*
G03X86437I-8J0D01*
G01X85475D02*
X85628D01*
X85485D02*
G03X85485I-9J0D01*
G01X85637D02*
G03X85637I-8J0D01*
G01X84485D02*
X85094D01*
X84494D02*
G03X84494I-8J0D01*
G01X85104D02*
G03X85104I-9J0D01*
G01X82161D02*
X83951D01*
X82170D02*
G03X82170I-9J0D01*
G01X83961D02*
G03X83961I-9J0D01*
G01X89552Y178385D02*
X91762D01*
X89561D02*
G03X89561I-8J0D01*
G01X91771D02*
G03X91771I-8J0D01*
G01X88142D02*
X88561D01*
X88152D02*
G03X88152I-9J0D01*
G01X88571D02*
G03X88571I-9J0D01*
G01X87571D02*
X87685D01*
X87580D02*
G03X87580I-8J0D01*
G01X87695D02*
G03X87695I-9J0D01*
G01X86771D02*
X86923D01*
X86780D02*
G03X86780I-8J0D01*
G01X86933D02*
G03X86933I-9J0D01*
G01X86275D02*
X86390D01*
X86285D02*
G03X86285I-9J0D01*
G01X86399D02*
G03X86399I-8J0D01*
G01X84599D02*
X85018D01*
X84608D02*
G03X84608I-8J0D01*
G01X85028D02*
G03X85028I-9J0D01*
G01X83227D02*
X83799D01*
X83237D02*
G03X83237I-9J0D01*
G01X83808D02*
G03X83808I-8J0D01*
G01X82275D02*
X83075D01*
X82284D02*
G03X82284I-8J0D01*
G01X83084D02*
G03X83084I-8J0D01*
G01X89552Y178424D02*
X91800D01*
X89561D02*
G03X89561I-8J0D01*
G01X91809D02*
G03X91809I-8J0D01*
G01X89552Y178462D02*
X91876D01*
X89561D02*
G03X89561I-8J0D01*
G01X91886D02*
G03X91886I-9J0D01*
G01X89552Y178500D02*
X91914D01*
X89561D02*
G03X89561I-8J0D01*
G01X91924D02*
G03X91924I-9J0D01*
G01X89552Y178538D02*
X91952D01*
X89561D02*
G03X89561I-8J0D01*
G01X91962D02*
G03X91962I-9J0D01*
G01X89552Y178576D02*
X91990D01*
X89561D02*
G03X89561I-8J0D01*
G01X92000D02*
G03X92000I-9J0D01*
G01X91114Y178614D02*
X92028D01*
X91124D02*
G03X91124I-9J0D01*
G01X92038D02*
G03X92038I-9J0D01*
G01X90657D02*
X91000D01*
X90666D02*
G03X90666I-8J0D01*
G01X91009D02*
G03X91009I-8J0D01*
G01X89857D02*
X90200D01*
X89866D02*
G03X89866I-8J0D01*
G01X90209D02*
G03X90209I-8J0D01*
G01X89552D02*
X89628D01*
X89561D02*
G03X89561I-8J0D01*
G01X89638D02*
G03X89638I-9J0D01*
G01X91228Y178652D02*
X92067D01*
X91238D02*
G03X91238I-9J0D01*
G01X92076D02*
G03X92076I-9J0D01*
G01X90657D02*
X91000D01*
X90666D02*
G03X90666I-8J0D01*
G01X91009D02*
G03X91009I-8J0D01*
G01X89857D02*
X90200D01*
X89866D02*
G03X89866I-8J0D01*
G01X90209D02*
G03X90209I-8J0D01*
G01X91343Y178690D02*
X92105D01*
X91352D02*
G03X91352I-8J0D01*
G01X92114D02*
G03X92114I-8J0D01*
G01X90657D02*
X91000D01*
X90666D02*
G03X90666I-8J0D01*
G01X91009D02*
G03X91009I-8J0D01*
G01X89857D02*
X90238D01*
X89866D02*
G03X89866I-8J0D01*
G01X90247D02*
G03X90247I-8J0D01*
G01X91381Y178728D02*
X92105D01*
X91390D02*
G03X91390I-8J0D01*
G01X92114D02*
G03X92114I-8J0D01*
G01X90657D02*
X91000D01*
X90666D02*
G03X90666I-8J0D01*
G01X91009D02*
G03X91009I-8J0D01*
G01X89857D02*
X90238D01*
X89866D02*
G03X89866I-8J0D01*
G01X90247D02*
G03X90247I-8J0D01*
G01X91495Y178766D02*
X92105D01*
X91505D02*
G03X91505I-9J0D01*
G01X92114D02*
G03X92114I-8J0D01*
G01X90657D02*
X91038D01*
X90666D02*
G03X90666I-8J0D01*
G01X91047D02*
G03X91047I-8J0D01*
G01X89857D02*
X90238D01*
X89866D02*
G03X89866I-8J0D01*
G01X90247D02*
G03X90247I-8J0D01*
G01X91533Y178805D02*
X92105D01*
X91543D02*
G03X91543I-9J0D01*
G01X92114D02*
G03X92114I-8J0D01*
G01X90695D02*
X91038D01*
X90704D02*
G03X90704I-8J0D01*
G01X91047D02*
G03X91047I-8J0D01*
G01X89857D02*
X90238D01*
X89866D02*
G03X89866I-8J0D01*
G01X90247D02*
G03X90247I-8J0D01*
G01X91571Y178843D02*
X92105D01*
X91581D02*
G03X91581I-9J0D01*
G01X92114D02*
G03X92114I-8J0D01*
G01X90695D02*
X91038D01*
X90704D02*
G03X90704I-8J0D01*
G01X91047D02*
G03X91047I-8J0D01*
G01X89857D02*
X90238D01*
X89866D02*
G03X89866I-8J0D01*
G01X90247D02*
G03X90247I-8J0D01*
G01X91647Y178881D02*
X92105D01*
X91657D02*
G03X91657I-9J0D01*
G01X92114D02*
G03X92114I-8J0D01*
G01X90695D02*
X91038D01*
X90704D02*
G03X90704I-8J0D01*
G01X91047D02*
G03X91047I-8J0D01*
G01X89857D02*
X90238D01*
X89866D02*
G03X89866I-8J0D01*
G01X90247D02*
G03X90247I-8J0D01*
G01X91647Y178919D02*
X92105D01*
X91657D02*
G03X91657I-9J0D01*
G01X92114D02*
G03X92114I-8J0D01*
G01X90695D02*
X91038D01*
X90704D02*
G03X90704I-8J0D01*
G01X91047D02*
G03X91047I-8J0D01*
G01X89857D02*
X90238D01*
X89866D02*
G03X89866I-8J0D01*
G01X90247D02*
G03X90247I-8J0D01*
G01X91647Y178957D02*
X92105D01*
X91657D02*
G03X91657I-9J0D01*
G01X92114D02*
G03X92114I-8J0D01*
G01X90695D02*
X91038D01*
X90704D02*
G03X90704I-8J0D01*
G01X91047D02*
G03X91047I-8J0D01*
G01X89857D02*
X90238D01*
X89866D02*
G03X89866I-8J0D01*
G01X90247D02*
G03X90247I-8J0D01*
G01X91647Y178995D02*
X92105D01*
X91657D02*
G03X91657I-9J0D01*
G01X92114D02*
G03X92114I-8J0D01*
G01X90695D02*
X91038D01*
X90704D02*
G03X90704I-8J0D01*
G01X91047D02*
G03X91047I-8J0D01*
G01X89857D02*
X90238D01*
X89866D02*
G03X89866I-8J0D01*
G01X90247D02*
G03X90247I-8J0D01*
G01X91647Y179033D02*
X92105D01*
X91657D02*
G03X91657I-9J0D01*
G01X92114D02*
G03X92114I-8J0D01*
G01X90695D02*
X91038D01*
X90704D02*
G03X90704I-8J0D01*
G01X91047D02*
G03X91047I-8J0D01*
G01X89857D02*
X90238D01*
X89866D02*
G03X89866I-8J0D01*
G01X90247D02*
G03X90247I-8J0D01*
G01X91609Y179071D02*
X92105D01*
X91619D02*
G03X91619I-9J0D01*
G01X92114D02*
G03X92114I-8J0D01*
G01X90695D02*
X91038D01*
X90704D02*
G03X90704I-8J0D01*
G01X91047D02*
G03X91047I-8J0D01*
G01X89857D02*
X90238D01*
X89866D02*
G03X89866I-8J0D01*
G01X90247D02*
G03X90247I-8J0D01*
G01X91571Y179109D02*
X92105D01*
X91581D02*
G03X91581I-9J0D01*
G01X92114D02*
G03X92114I-8J0D01*
G01X90695D02*
X91038D01*
X90704D02*
G03X90704I-8J0D01*
G01X91047D02*
G03X91047I-8J0D01*
G01X89857D02*
X90238D01*
X89866D02*
G03X89866I-8J0D01*
G01X90247D02*
G03X90247I-8J0D01*
G01X91533Y179147D02*
X92067D01*
X91543D02*
G03X91543I-9J0D01*
G01X92076D02*
G03X92076I-9J0D01*
G01X90695D02*
X91038D01*
X90704D02*
G03X90704I-8J0D01*
G01X91047D02*
G03X91047I-8J0D01*
G01X89895D02*
X90238D01*
X89904D02*
G03X89904I-8J0D01*
G01X90247D02*
G03X90247I-8J0D01*
G01X91495Y179186D02*
X92028D01*
X91505D02*
G03X91505I-9J0D01*
G01X92038D02*
G03X92038I-9J0D01*
G01X90695D02*
X91038D01*
X90704D02*
G03X90704I-8J0D01*
G01X91047D02*
G03X91047I-8J0D01*
G01X89895D02*
X90238D01*
X89904D02*
G03X89904I-8J0D01*
G01X90247D02*
G03X90247I-8J0D01*
G01X91457Y179224D02*
X92028D01*
X91466D02*
G03X91466I-8J0D01*
G01X92038D02*
G03X92038I-9J0D01*
G01X90733D02*
X91038D01*
X90743D02*
G03X90743I-9J0D01*
G01X91047D02*
G03X91047I-8J0D01*
G01X89895D02*
X90238D01*
X89904D02*
G03X89904I-8J0D01*
G01X90247D02*
G03X90247I-8J0D01*
G01X91419Y179262D02*
X91990D01*
X91428D02*
G03X91428I-8J0D01*
G01X92000D02*
G03X92000I-9J0D01*
G01X90733D02*
X91076D01*
X90743D02*
G03X90743I-9J0D01*
G01X91085D02*
G03X91085I-8J0D01*
G01X89895D02*
X90238D01*
X89904D02*
G03X89904I-8J0D01*
G01X90247D02*
G03X90247I-8J0D01*
G01X91305Y179300D02*
X91914D01*
X91314D02*
G03X91314I-9J0D01*
G01X91924D02*
G03X91924I-9J0D01*
G01X90733D02*
X91076D01*
X90743D02*
G03X90743I-9J0D01*
G01X91085D02*
G03X91085I-8J0D01*
G01X89895D02*
X90238D01*
X89904D02*
G03X89904I-8J0D01*
G01X90247D02*
G03X90247I-8J0D01*
G01X91266Y179338D02*
X91876D01*
X91276D02*
G03X91276I-9J0D01*
G01X91886D02*
G03X91886I-9J0D01*
G01X90733D02*
X91076D01*
X90743D02*
G03X90743I-9J0D01*
G01X91085D02*
G03X91085I-8J0D01*
G01X89895D02*
X90238D01*
X89904D02*
G03X89904I-8J0D01*
G01X90247D02*
G03X90247I-8J0D01*
G01X91190Y179376D02*
X91876D01*
X91200D02*
G03X91200I-9J0D01*
G01X91886D02*
G03X91886I-9J0D01*
G01X90733D02*
X91076D01*
X90743D02*
G03X90743I-9J0D01*
G01X91085D02*
G03X91085I-8J0D01*
G01X89895D02*
X90238D01*
X89904D02*
G03X89904I-8J0D01*
G01X90247D02*
G03X90247I-8J0D01*
G01X90771Y179414D02*
X91800D01*
X90781D02*
G03X90781I-9J0D01*
G01X91809D02*
G03X91809I-8J0D01*
G01X89895D02*
X90238D01*
X89904D02*
G03X89904I-8J0D01*
G01X90247D02*
G03X90247I-8J0D01*
G01X90771Y179452D02*
X91762D01*
X90781D02*
G03X90781I-9J0D01*
G01X91771D02*
G03X91771I-8J0D01*
G01X89895D02*
X90238D01*
X89904D02*
G03X89904I-8J0D01*
G01X90247D02*
G03X90247I-8J0D01*
G01X90771Y179490D02*
X91724D01*
X90781D02*
G03X90781I-9J0D01*
G01X91733D02*
G03X91733I-8J0D01*
G01X89895D02*
X90238D01*
X89904D02*
G03X89904I-8J0D01*
G01X90247D02*
G03X90247I-8J0D01*
G01X90733Y179528D02*
X91686D01*
X90743D02*
G03X90743I-9J0D01*
G01X91695D02*
G03X91695I-9J0D01*
G01X89895D02*
X90238D01*
X89904D02*
G03X89904I-8J0D01*
G01X90247D02*
G03X90247I-8J0D01*
G01X90466Y179567D02*
X91609D01*
X90476D02*
G03X90476I-9J0D01*
G01X91619D02*
G03X91619I-9J0D01*
G01X89895D02*
X90238D01*
X89904D02*
G03X89904I-8J0D01*
G01X90247D02*
G03X90247I-8J0D01*
G01X90352Y179605D02*
X91571D01*
X90362D02*
G03X90362I-9J0D01*
G01X91581D02*
G03X91581I-9J0D01*
G01X89895D02*
X90238D01*
X89904D02*
G03X89904I-8J0D01*
G01X90247D02*
G03X90247I-8J0D01*
G01X89895Y179643D02*
X91495D01*
X89904D02*
G03X89904I-8J0D01*
G01X91505D02*
G03X91505I-9J0D01*
G01X89781Y179681D02*
X91419D01*
X89790D02*
G03X89790I-9J0D01*
G01X91428D02*
G03X91428I-8J0D01*
G01X89590Y179719D02*
X91343D01*
X89600D02*
G03X89600I-9J0D01*
G01X91352D02*
G03X91352I-8J0D01*
G01X89552Y179757D02*
X91266D01*
X89561D02*
G03X89561I-8J0D01*
G01X91276D02*
G03X91276I-9J0D01*
G01X89552Y179795D02*
X91228D01*
X89561D02*
G03X89561I-8J0D01*
G01X91238D02*
G03X91238I-9J0D01*
G01X89514Y179833D02*
X91114D01*
X89523D02*
G03X89523I-8J0D01*
G01X91124D02*
G03X91124I-9J0D01*
G01X89476Y179871D02*
X91114D01*
X89485D02*
G03X89485I-8J0D01*
G01X91124D02*
G03X91124I-9J0D01*
G01X89476Y179909D02*
X91114D01*
X89485D02*
G03X89485I-8J0D01*
G01X91124D02*
G03X91124I-9J0D01*
G01X90809Y179948D02*
X91114D01*
X90819D02*
G03X90819I-9J0D01*
G01X91124D02*
G03X91124I-9J0D01*
G01X89438D02*
X90657D01*
X89447D02*
G03X89447I-8J0D01*
G01X90666D02*
G03X90666I-8J0D01*
G01X90809Y179986D02*
X91114D01*
X90819D02*
G03X90819I-9J0D01*
G01X91124D02*
G03X91124I-9J0D01*
G01X89438D02*
X90581D01*
X89447D02*
G03X89447I-8J0D01*
G01X90590D02*
G03X90590I-8J0D01*
G01X90809Y180024D02*
X91114D01*
X90819D02*
G03X90819I-9J0D01*
G01X91124D02*
G03X91124I-9J0D01*
G01X89438D02*
X90504D01*
X89447D02*
G03X89447I-8J0D01*
G01X90514D02*
G03X90514I-9J0D01*
G01X90847Y180062D02*
X91114D01*
X90857D02*
G03X90857I-9J0D01*
G01X91124D02*
G03X91124I-9J0D01*
G01X89400D02*
X90276D01*
X89409D02*
G03X89409I-9J0D01*
G01X90285D02*
G03X90285I-8J0D01*
G01X90847Y180100D02*
X91114D01*
X90857D02*
G03X90857I-9J0D01*
G01X91124D02*
G03X91124I-9J0D01*
G01X89895D02*
X90276D01*
X89904D02*
G03X89904I-8J0D01*
G01X90285D02*
G03X90285I-8J0D01*
G01X89400D02*
X89819D01*
X89409D02*
G03X89409I-9J0D01*
G01X89828D02*
G03X89828I-8J0D01*
G01X90847Y180138D02*
X91114D01*
X90857D02*
G03X90857I-9J0D01*
G01X91124D02*
G03X91124I-9J0D01*
G01X89895D02*
X90276D01*
X89904D02*
G03X89904I-8J0D01*
G01X90285D02*
G03X90285I-8J0D01*
G01X90847Y180176D02*
X91114D01*
X90857D02*
G03X90857I-9J0D01*
G01X91124D02*
G03X91124I-9J0D01*
G01X89895D02*
X90276D01*
X89904D02*
G03X89904I-8J0D01*
G01X90285D02*
G03X90285I-8J0D01*
G01X90847Y180214D02*
X91114D01*
X90857D02*
G03X90857I-9J0D01*
G01X91124D02*
G03X91124I-9J0D01*
G01X89895D02*
X90276D01*
X89904D02*
G03X89904I-8J0D01*
G01X90285D02*
G03X90285I-8J0D01*
G01X90847Y180252D02*
X91114D01*
X90857D02*
G03X90857I-9J0D01*
G01X91124D02*
G03X91124I-9J0D01*
G01X89895D02*
X90276D01*
X89904D02*
G03X89904I-8J0D01*
G01X90285D02*
G03X90285I-8J0D01*
G01X90847Y180290D02*
X91114D01*
X90857D02*
G03X90857I-9J0D01*
G01X91124D02*
G03X91124I-9J0D01*
G01X89895D02*
X90276D01*
X89904D02*
G03X89904I-8J0D01*
G01X90285D02*
G03X90285I-8J0D01*
G01X90847Y180329D02*
X91152D01*
X90857D02*
G03X90857I-9J0D01*
G01X91162D02*
G03X91162I-9J0D01*
G01X89895D02*
X90276D01*
X89904D02*
G03X89904I-8J0D01*
G01X90285D02*
G03X90285I-8J0D01*
G01X90847Y180367D02*
X91152D01*
X90857D02*
G03X90857I-9J0D01*
G01X91162D02*
G03X91162I-9J0D01*
G01X89895D02*
X90276D01*
X89904D02*
G03X89904I-8J0D01*
G01X90285D02*
G03X90285I-8J0D01*
G01X90847Y180405D02*
X91152D01*
X90857D02*
G03X90857I-9J0D01*
G01X91162D02*
G03X91162I-9J0D01*
G01X89895D02*
X90276D01*
X89904D02*
G03X89904I-8J0D01*
G01X90285D02*
G03X90285I-8J0D01*
G01X90847Y180443D02*
X91152D01*
X90857D02*
G03X90857I-9J0D01*
G01X91162D02*
G03X91162I-9J0D01*
G01X89895D02*
X90276D01*
X89904D02*
G03X89904I-8J0D01*
G01X90285D02*
G03X90285I-8J0D01*
G01X90847Y180481D02*
X91152D01*
X90857D02*
G03X90857I-9J0D01*
G01X91162D02*
G03X91162I-9J0D01*
G01X89895D02*
X90276D01*
X89904D02*
G03X89904I-8J0D01*
G01X90285D02*
G03X90285I-8J0D01*
G01X90847Y180519D02*
X91152D01*
X90857D02*
G03X90857I-9J0D01*
G01X91162D02*
G03X91162I-9J0D01*
G01X89895D02*
X90276D01*
X89904D02*
G03X89904I-8J0D01*
G01X90285D02*
G03X90285I-8J0D01*
G01X90847Y180557D02*
X91152D01*
X90857D02*
G03X90857I-9J0D01*
G01X91162D02*
G03X91162I-9J0D01*
G01X89895D02*
X90276D01*
X89904D02*
G03X89904I-8J0D01*
G01X90285D02*
G03X90285I-8J0D01*
G01X90847Y180595D02*
X91190D01*
X90857D02*
G03X90857I-9J0D01*
G01X91200D02*
G03X91200I-9J0D01*
G01X89895D02*
X90276D01*
X89904D02*
G03X89904I-8J0D01*
G01X90285D02*
G03X90285I-8J0D01*
G01X90885Y180633D02*
X91190D01*
X90895D02*
G03X90895I-9J0D01*
G01X91200D02*
G03X91200I-9J0D01*
G01X90885Y180671D02*
X91190D01*
X90895D02*
G03X90895I-9J0D01*
G01X91200D02*
G03X91200I-9J0D01*
G01X90885Y180710D02*
X91190D01*
X90895D02*
G03X90895I-9J0D01*
G01X91200D02*
G03X91200I-9J0D01*
G01X90885Y180748D02*
X91190D01*
X90895D02*
G03X90895I-9J0D01*
G01X91200D02*
G03X91200I-9J0D01*
G54D42*
G01X100Y250D02*
Y100D01*
X250*
G54D62*
X59525Y171600D02*
G03X59525I-125J0D01*
G01X103213Y188633D02*
G03X103213I-124J0D01*
G01X64275Y150000D02*
G03X64275I-125J0D01*
G01X77686Y211289D02*
G03X77686I-124J0D01*
G01X96286D02*
G03X96286I-124J0D01*
G01X40486D02*
G03X40486I-124J0D01*
G01X59086D02*
G03X59086I-124J0D01*
G74*
G01X0Y0D02*
M02*
