%
T1C.2F0S0
X47000Y102700
X45400Y102700
X43800Y102700
X47800Y102700
X46200Y102700
X44600Y102700
X43000Y102700
X46200Y103500
X44600Y103500
X47800Y103500
X43000Y103500
X47000Y103500
X45400Y103500
X43800Y103500
X42200Y103500
X43800Y104300
X45400Y104300
X42200Y104300
X47800Y104300
X46200Y104300
X47000Y104300
X44600Y104300
X43000Y104300
X47000Y105100
X47800Y105100
X43000Y105100
X45400Y105100
X43800Y105100
X44600Y105100
X42200Y105100
X46200Y105100
X43800Y105900
X44600Y105900
X42200Y105900
X47800Y105900
X43000Y105900
X45400Y105900
X46200Y105900
X47000Y105900
X44600Y106700
X43000Y106700
X45400Y106700
X47000Y106700
X46200Y106700
X42200Y106700
X47800Y106700
X43800Y106700
X47000Y107500
X45400Y107500
X43800Y107500
X42200Y107500
X47800Y107500
X46200Y107500
X44600Y107500
X43000Y107500
X46200Y108300
X44600Y108300
X43000Y108300
X47800Y108300
X47000Y108300
X45400Y108300
X43800Y108300
X42200Y108300
X45400Y109100
X47000Y109100
X43800Y109100
X42200Y109100
X47800Y109100
X46200Y109100
X44600Y109100
X43000Y109100
X44600Y109900
X43000Y109900
X47800Y109900
X47000Y109900
X45400Y109900
X43800Y109900
X46200Y109900
X42200Y109900
X42200Y110700
X45400Y110700
X47800Y110700
X46200Y110700
X44600Y110700
X43800Y110700
X43000Y110700
X47000Y110700
X47800Y112300
X47000Y112300
X43000Y112300
X45400Y112300
X46200Y112300
X44600Y112300
X43800Y112300
X42200Y112300
X42200Y113100
X46200Y113100
X44600Y113100
X47800Y113100
X43800Y113100
X43000Y113100
X47000Y113100
X45400Y113100
X47800Y113900
X45400Y113900
X43800Y113900
X47000Y113900
X44600Y113900
X46200Y113900
X42200Y113900
X43000Y113900
X43800Y114700
X44600Y114700
X47800Y114700
X47000Y114700
X46200Y114700
X43000Y114700
X45400Y114700
X42200Y114700
X43800Y115500
X43000Y115500
X47000Y115500
X47800Y115500
X45400Y115500
X42200Y115500
X46200Y115500
X44600Y115500
X42200Y116300
X47000Y116300
X45400Y116300
X43000Y116300
X44600Y116300
X43800Y116300
X46200Y116300
X47800Y116300
X47800Y117100
X46200Y117100
X44600Y117100
X43000Y117100
X47000Y117100
X45400Y117100
X43800Y117100
X42200Y117100
X45400Y117900
X43800Y117900
X42200Y117900
X47800Y117900
X46200Y117900
X47000Y117900
X44600Y117900
X43000Y117900
X47800Y118700
X47000Y118700
X45400Y118700
X43000Y118700
X43800Y118700
X46200Y118700
X44600Y118700
X42200Y118700
X47000Y119500
X44600Y119500
X46200Y119500
X43000Y119500
X45400Y119500
X47800Y119500
X43800Y119500
X47000Y120300
X46200Y120300
X44600Y120300
X43000Y120300
X43800Y152700
X45400Y152700
X47000Y152700
X44600Y153500
X46200Y153500
X47800Y153500
X43800Y153500
X45400Y153500
X47000Y153500
X45400Y154300
X47000Y154300
X43800Y154300
X44600Y154300
X46200Y154300
X47800Y154300
X47800Y155100
X43800Y155100
X44600Y155100
X45400Y155100
X46200Y155100
X47000Y155100
X43000Y155900
X42200Y155900
X47000Y155900
X43800Y155900
X44600Y155900
X45400Y155900
X46200Y155900
X47800Y155900
X45400Y156700
X43800Y156700
X43000Y156700
X44600Y156700
X47800Y156700
X47000Y156700
X46200Y156700
X42200Y156700
X46200Y157500
X42200Y157500
X47000Y157500
X43800Y157500
X45400Y157500
X43000Y157500
X44600Y157500
X47800Y157500
X43000Y158300
X44600Y158300
X46200Y158300
X47800Y158300
X42200Y158300
X43800Y158300
X45400Y158300
X47000Y158300
X43800Y159100
X45400Y159100
X47000Y159100
X43000Y159100
X42200Y159100
X44600Y159100
X46200Y159100
X47800Y159100
X44600Y159900
X46200Y159900
X47800Y159900
X42200Y159900
X43800Y159900
X43000Y159900
X45400Y159900
X47000Y159900
X42200Y160700
X47000Y160700
X43000Y160700
X43800Y160700
X44600Y160700
X46200Y160700
X45400Y160700
X47800Y160700
X44600Y162300
X47800Y162300
X42200Y162300
X43800Y162300
X45400Y162300
X46200Y162300
X43000Y162300
X47000Y162300
X43000Y163100
X42200Y163100
X47000Y163100
X43800Y163100
X45400Y163100
X44600Y163100
X46200Y163100
X47800Y163100
X43000Y163900
X47800Y163900
X43800Y163900
X44600Y163900
X45400Y163900
X46200Y163900
X47000Y163900
X42200Y163900
X44600Y164700
X47000Y164700
X43800Y164700
X45400Y164700
X46200Y164700
X42200Y164700
X43000Y164700
X47800Y164700
X44600Y165500
X43000Y165500
X47800Y165500
X45400Y165500
X42200Y165500
X43800Y165500
X47000Y165500
X46200Y165500
X47000Y166300
X46200Y166300
X42200Y166300
X43000Y166300
X44600Y166300
X43800Y166300
X45400Y166300
X47800Y166300
X43800Y167100
X44600Y167100
X47000Y167100
X47800Y167100
X45400Y167100
X42200Y167100
X43000Y167100
X46200Y167100
X42200Y167900
X43800Y167900
X45400Y167900
X47000Y167900
X43000Y167900
X44600Y167900
X46200Y167900
X47800Y167900
X43000Y168700
X46200Y168700
X47800Y168700
X42200Y168700
X43800Y168700
X45400Y168700
X44600Y168700
X47000Y168700
X42200Y169500
X43000Y169500
X43800Y169500
X44600Y169500
X47000Y169500
X45400Y169500
X46200Y169500
X47800Y169500
X45400Y170300
X46200Y170300
X43000Y170300
X47800Y170300
X47000Y170300
X44600Y170300
X43800Y170300
X49400Y170300
X48600Y170300
X50200Y170300
X51800Y170300
X53400Y170300
X52600Y170300
X54200Y170300
X48600Y169500
X50200Y169500
X49400Y169500
X52600Y169500
X54200Y169500
X51800Y169500
X53400Y169500
X49400Y168700
X48600Y168700
X50200Y168700
X51800Y168700
X53400Y168700
X52600Y168700
X54200Y168700
X48600Y167900
X50200Y167900
X49400Y167900
X52600Y167900
X54200Y167900
X51800Y167900
X53400Y167900
X49400Y167100
X48600Y167100
X50200Y167100
X51800Y167100
X53400Y167100
X52600Y167100
X54200Y167100
X48600Y166300
X50200Y166300
X49400Y166300
X52600Y166300
X54200Y166300
X51800Y166300
X53400Y166300
X49400Y165500
X48600Y165500
X50200Y165500
X51800Y165500
X53400Y165500
X52600Y165500
X54200Y165500
X48600Y164700
X50200Y164700
X49400Y164700
X52600Y164700
X54200Y164700
X51800Y164700
X53400Y164700
X49400Y163900
X48600Y163900
X50200Y163900
X51800Y163900
X53400Y163900
X52600Y163900
X54200Y163900
X48600Y163100
X50200Y163100
X49400Y163100
X52600Y163100
X54200Y163100
X51800Y163100
X53400Y163100
X49400Y162300
X48600Y162300
X50200Y162300
X51800Y162300
X53400Y162300
X52600Y162300
X54200Y162300
X48600Y160700
X50200Y160700
X49400Y160700
X52600Y160700
X54200Y160700
X51800Y160700
X53400Y160700
X49400Y159900
X48600Y159900
X50200Y159900
X51800Y159900
X53400Y159900
X52600Y159900
X54200Y159900
X48600Y159100
X50200Y159100
X49400Y159100
X52600Y159100
X54200Y159100
X51800Y159100
X53400Y159100
X49400Y158300
X48600Y158300
X50200Y158300
X51800Y158300
X53400Y158300
X52600Y158300
X54200Y158300
X50200Y157500
X49400Y157500
X52600Y157500
X54200Y157500
X51800Y157500
X53400Y157500
X48600Y157500
X50200Y156700
X51800Y156700
X53400Y156700
X48600Y156700
X52600Y156700
X54200Y156700
X49400Y156700
X52600Y155900
X54200Y155900
X51800Y155900
X53400Y155900
X49400Y155900
X48600Y155900
X50200Y155900
X48600Y155100
X52600Y155100
X51800Y155100
X53400Y155100
X54200Y155100
X50200Y155100
X49400Y155100
X53400Y154300
X48600Y154300
X54200Y154300
X51800Y154300
X52600Y154300
X49400Y154300
X52600Y153500
X53400Y153500
X51800Y153500
X49400Y153500
X50200Y153500
X54200Y153500
X48600Y153500
X48600Y152700
X50200Y152700
X52600Y152700
X51800Y120300
X49400Y120300
X53400Y120300
X52600Y119500
X51800Y119500
X50200Y119500
X54200Y119500
X48600Y119500
X49400Y119500
X53400Y119500
X48600Y118700
X52600Y118700
X50200Y118700
X54200Y118700
X49400Y118700
X53400Y118700
X48600Y117900
X52600Y117900
X51800Y117900
X50200Y117900
X54200Y117900
X53400Y117900
X49400Y117900
X48600Y117100
X52600Y117100
X53400Y117100
X51800Y117100
X50200Y117100
X54200Y117100
X49400Y117100
X53400Y116300
X51800Y116300
X48600Y116300
X50200Y116300
X52600Y116300
X54200Y116300
X49400Y116300
X54200Y115500
X49400Y115500
X53400Y115500
X51800Y115500
X52600Y115500
X50200Y115500
X48600Y115500
X53400Y114700
X48600Y114700
X50200Y114700
X51800Y114700
X52600Y114700
X49400Y114700
X54200Y114700
X54200Y113900
X49400Y113900
X51800Y113900
X53400Y113900
X52600Y113900
X50200Y113900
X48600Y113900
X53400Y113100
X48600Y113100
X52600Y113100
X50200Y113100
X51800Y113100
X49400Y113100
X54200Y113100
X54200Y112300
X52600Y112300
X49400Y112300
X51800Y112300
X48600Y112300
X50200Y112300
X53400Y112300
X52600Y110700
X51800Y110700
X53400Y110700
X48600Y110700
X50200Y110700
X49400Y110700
X54200Y110700
X54200Y109900
X49400Y109900
X52600Y109900
X50200Y109900
X48600Y109900
X53400Y109900
X51800Y109900
X53400Y109100
X51800Y109100
X48600Y109100
X50200Y109100
X49400Y109100
X52600Y109100
X54200Y109100
X53400Y108300
X51800Y108300
X52600Y108300
X54200Y108300
X50200Y108300
X49400Y108300
X48600Y108300
X52600Y107500
X49400Y107500
X48600Y107500
X51800Y107500
X53400Y107500
X50200Y107500
X54200Y107500
X51800Y106700
X53400Y106700
X48600Y106700
X50200Y106700
X52600Y106700
X54200Y106700
X49400Y106700
X49400Y105900
X50200Y105900
X48600Y105900
X54200Y105900
X52600Y105900
X51800Y105900
X53400Y105900
X49400Y105100
X50200Y105100
X48600Y105100
X51800Y105100
X52600Y105100
X53400Y105100
X54200Y105100
X48600Y104300
X49400Y104300
X54200Y104300
X53400Y104300
X52600Y104300
X50200Y104300
X51800Y104300
X51800Y103500
X52600Y103500
X48600Y103500
X54200Y103500
X49400Y103500
X50200Y103500
X53400Y103500
X48600Y102700
X49400Y102700
X53400Y102700
X51800Y102700
X50200Y102700
X54200Y102700
X52600Y102700
X56600Y102700
X55000Y102700
X58200Y102700
X59000Y102700
X57400Y102700
X55800Y102700
X55800Y103500
X59000Y103500
X57400Y103500
X59800Y103500
X58200Y103500
X56600Y103500
X55000Y103500
X56600Y104300
X55000Y104300
X59800Y104300
X58200Y104300
X59000Y104300
X57400Y104300
X55800Y104300
X55800Y105100
X59000Y105100
X57400Y105100
X59800Y105100
X58200Y105100
X56600Y105100
X55000Y105100
X55000Y105900
X59800Y105900
X58200Y105900
X56600Y105900
X59000Y105900
X57400Y105900
X55800Y105900
X59000Y106700
X57400Y106700
X59800Y106700
X58200Y106700
X56600Y106700
X55800Y106700
X55000Y106700
X57400Y107500
X59800Y107500
X58200Y107500
X56600Y107500
X55000Y107500
X59000Y107500
X55800Y107500
X56600Y108300
X55000Y108300
X59000Y108300
X57400Y108300
X55800Y108300
X59800Y108300
X58200Y108300
X59800Y109100
X58200Y109100
X56600Y109100
X57400Y109100
X55000Y109100
X59000Y109100
X55800Y109100
X56600Y109900
X59000Y109900
X57400Y109900
X55800Y109900
X55000Y109900
X59800Y109900
X58200Y109900
X58200Y110700
X56600Y110700
X55000Y110700
X59000Y110700
X59800Y110700
X57400Y110700
X55800Y110700
X57400Y112300
X55800Y112300
X59800Y112300
X55000Y112300
X58200Y112300
X59000Y112300
X56600Y112300
X56600Y113100
X55000Y113100
X59800Y113100
X59000Y113100
X58200Y113100
X57400Y113100
X55800Y113100
X55800Y113900
X55000Y113900
X59800Y113900
X57400Y113900
X59000Y113900
X58200Y113900
X56600Y113900
X56600Y114700
X59800Y114700
X55000Y114700
X58200Y114700
X59000Y114700
X57400Y114700
X55800Y114700
X55000Y115500
X55800Y115500
X57400Y115500
X59000Y115500
X59800Y115500
X58200Y115500
X56600Y115500
X59800Y116300
X55000Y116300
X56600Y116300
X58200Y116300
X59000Y116300
X55800Y116300
X57400Y116300
X56600Y117100
X59800Y117100
X55800Y117100
X58200Y117100
X59000Y117100
X57400Y117100
X55000Y117100
X57400Y117900
X56600Y117900
X55000Y117900
X58200Y117900
X55800Y117900
X58200Y118700
X55800Y118700
X57400Y118700
X55000Y118700
X56600Y118700
X56600Y119500
X55000Y119500
X58200Y119500
X55800Y119500
X57400Y119500
X55000Y120300
X59000Y120300
X56600Y120300
X58200Y120300
X59000Y152700
X55000Y152700
X57400Y152700
X55800Y152700
X56600Y153500
X55000Y153500
X59000Y153500
X57400Y153500
X58200Y153500
X55800Y153500
X55800Y154300
X59000Y154300
X56600Y154300
X59800Y154300
X57400Y154300
X58200Y154300
X55000Y154300
X55000Y155100
X59000Y155100
X57400Y155100
X59800Y155100
X56600Y155100
X58200Y155100
X55800Y155100
X55000Y155900
X56600Y155900
X59800Y155900
X55800Y155900
X59000Y155900
X57400Y155900
X58200Y155900
X55000Y156700
X57400Y156700
X59800Y156700
X58200Y156700
X59000Y156700
X56600Y156700
X55800Y156700
X59000Y157500
X55800Y157500
X55000Y157500
X58200Y157500
X57400Y157500
X56600Y157500
X59800Y157500
X58200Y158300
X59800Y158300
X55800Y158300
X57400Y158300
X59000Y158300
X55000Y158300
X56600Y158300
X59000Y159100
X55000Y159100
X56600Y159100
X58200Y159100
X57400Y159100
X59800Y159100
X55800Y159100
X59800Y159900
X55800Y159900
X57400Y159900
X58200Y159900
X59000Y159900
X55000Y159900
X56600Y159900
X55000Y160700
X56600Y160700
X59000Y160700
X58200Y160700
X59800Y160700
X55800Y160700
X57400Y160700
X55800Y162300
X56600Y162300
X59800Y162300
X57400Y162300
X58200Y162300
X59000Y162300
X55000Y162300
X56600Y163100
X59000Y163100
X58200Y163100
X55000Y163100
X59800Y163100
X55800Y163100
X57400Y163100
X59800Y163900
X57400Y163900
X59000Y163900
X58200Y163900
X55800Y163900
X55000Y163900
X56600Y163900
X55000Y164700
X58200Y164700
X57400Y164700
X59000Y164700
X59800Y164700
X56600Y164700
X55800Y164700
X56600Y165500
X59000Y165500
X55800Y165500
X59800Y165500
X58200Y165500
X57400Y165500
X55000Y165500
X59800Y166300
X57400Y166300
X58200Y166300
X55000Y166300
X59000Y166300
X55800Y166300
X56600Y166300
X58200Y167100
X59000Y167100
X57400Y167100
X59800Y167100
X55800Y167100
X56600Y167100
X55000Y167100
X55800Y167900
X57400Y167900
X59000Y167900
X55000Y167900
X56600Y167900
X58200Y167900
X59800Y167900
X58200Y168700
X55000Y168700
X59800Y168700
X55800Y168700
X56600Y168700
X57400Y168700
X59000Y168700
X55000Y169500
X57400Y169500
X59000Y169500
X56600Y169500
X58200Y169500
X55800Y169500
X59800Y169500
X56600Y170300
X55800Y170300
X58200Y170300
X59000Y170300
X55000Y170300
X57400Y170300
X92200Y169500
X92200Y168700
X92200Y167900
X92200Y167100
X92200Y166300
X92200Y165500
X92200Y164700
X92200Y163900
X92200Y163100
X92200Y162300
X92200Y160700
X92200Y159900
X92200Y159100
X92200Y158300
X92200Y157500
X92200Y156700
X92200Y155900
X92200Y119500
X92200Y118700
X92200Y117900
X92200Y117100
X92200Y116300
X92200Y115500
X92200Y114700
X92200Y113900
X92200Y113100
X92200Y112300
X92200Y110700
X92200Y109900
X92200Y109100
X92200Y108300
X92200Y107500
X92200Y106700
X92200Y105900
X92200Y105100
X92200Y104300
X92200Y103500
X93000Y102700
X98600Y102700
X97000Y102700
X95400Y102700
X93800Y102700
X97800Y102700
X96200Y102700
X94600Y102700
X97800Y103500
X96200Y103500
X94600Y103500
X93000Y103500
X98600Y103500
X97000Y103500
X95400Y103500
X93800Y103500
X95400Y104300
X97000Y104300
X93800Y104300
X98600Y104300
X97800Y104300
X93000Y104300
X96200Y104300
X94600Y104300
X94600Y105100
X93000Y105100
X98600Y105100
X97000Y105100
X96200Y105100
X95400Y105100
X97800Y105100
X93800Y105100
X98600Y105900
X93800Y105900
X93000Y105900
X97800Y105900
X96200Y105900
X97000Y105900
X94600Y105900
X95400Y105900
X94600Y106700
X93000Y106700
X98600Y106700
X96200Y106700
X97000Y106700
X97800Y106700
X95400Y106700
X93800Y106700
X98600Y107500
X97000Y107500
X95400Y107500
X93800Y107500
X97800Y107500
X96200Y107500
X94600Y107500
X93000Y107500
X97800Y108300
X96200Y108300
X94600Y108300
X93000Y108300
X98600Y108300
X97000Y108300
X95400Y108300
X93800Y108300
X98600Y109100
X97000Y109100
X95400Y109100
X93800Y109100
X97800Y109100
X96200Y109100
X94600Y109100
X93000Y109100
X97800Y109900
X96200Y109900
X94600Y109900
X93000Y109900
X98600Y109900
X97000Y109900
X95400Y109900
X93800Y109900
X98600Y110700
X97000Y110700
X95400Y110700
X93800Y110700
X97800Y110700
X96200Y110700
X94600Y110700
X93000Y110700
X96200Y112300
X94600Y112300
X93000Y112300
X98600Y112300
X97000Y112300
X95400Y112300
X93800Y112300
X97800Y112300
X95400Y113100
X93800Y113100
X97800Y113100
X97000Y113100
X96200Y113100
X98600Y113100
X94600Y113100
X93000Y113100
X94600Y113900
X96200Y113900
X93000Y113900
X98600Y113900
X97000Y113900
X95400Y113900
X97800Y113900
X93800Y113900
X93800Y114700
X97000Y114700
X97800Y114700
X98600Y114700
X96200Y114700
X94600Y114700
X95400Y114700
X93000Y114700
X98600Y115500
X94600Y115500
X97000Y115500
X97800Y115500
X95400Y115500
X93000Y115500
X93800Y115500
X96200Y115500
X97000Y116300
X93800Y116300
X97800Y116300
X96200Y116300
X95400Y116300
X94600Y116300
X98600Y116300
X93000Y116300
X97800Y117100
X96200Y117100
X94600Y117100
X93000Y117100
X98600Y117100
X97000Y117100
X95400Y117100
X93800Y117100
X97000Y117900
X93800Y117900
X97800Y117900
X96200Y117900
X95400Y117900
X94600Y117900
X93000Y117900
X98600Y117900
X93000Y118700
X97000Y118700
X96200Y118700
X95400Y118700
X98600Y118700
X93800Y118700
X94600Y118700
X97800Y118700
X94600Y119500
X96200Y119500
X95400Y119500
X93000Y119500
X97000Y119500
X97800Y119500
X98600Y119500
X93800Y119500
X96200Y120300
X93000Y120300
X97000Y120300
X94600Y120300
X93800Y152700
X97000Y152700
X93000Y152700
X98600Y152700
X95400Y152700
X97800Y153500
X98600Y153500
X97000Y153500
X93800Y153500
X96200Y153500
X95400Y153500
X94600Y153500
X95400Y154300
X94600Y154300
X97800Y154300
X93800Y154300
X96200Y154300
X98600Y154300
X97000Y154300
X94600Y155100
X97800Y155100
X93800Y155100
X95400Y155100
X96200Y155100
X97000Y155100
X98600Y155100
X98600Y155900
X93000Y155900
X97800Y155900
X97000Y155900
X95400Y155900
X93800Y155900
X96200Y155900
X94600Y155900
X93800Y156700
X97800Y156700
X98600Y156700
X93000Y156700
X95400Y156700
X97000Y156700
X94600Y156700
X96200Y156700
X94600Y157500
X93800Y157500
X97800Y157500
X95400Y157500
X93000Y157500
X97000Y157500
X96200Y157500
X98600Y157500
X93800Y158300
X95400Y158300
X97000Y158300
X98600Y158300
X93000Y158300
X96200Y158300
X94600Y158300
X97800Y158300
X96200Y159100
X97800Y159100
X98600Y159100
X93800Y159100
X97000Y159100
X93000Y159100
X95400Y159100
X94600Y159100
X93800Y159900
X97000Y159900
X98600Y159900
X97800Y159900
X94600Y159900
X93000Y159900
X95400Y159900
X96200Y159900
X97800Y160700
X94600Y160700
X96200Y160700
X97000Y160700
X93800Y160700
X98600Y160700
X93000Y160700
X95400Y160700
X93800Y162300
X97000Y162300
X98600Y162300
X94600Y162300
X97800Y162300
X93000Y162300
X96200Y162300
X95400Y162300
X96200Y163100
X93800Y163100
X94600Y163100
X97000Y163100
X95400Y163100
X93000Y163100
X98600Y163100
X97800Y163100
X93800Y163900
X97000Y163900
X94600Y163900
X98600Y163900
X96200Y163900
X93000Y163900
X97800Y163900
X95400Y163900
X95400Y164700
X96200Y164700
X97000Y164700
X94600Y164700
X93800Y164700
X97800Y164700
X98600Y164700
X93000Y164700
X96200Y165500
X93800Y165500
X95400Y165500
X98600Y165500
X94600Y165500
X93000Y165500
X97800Y165500
X97000Y165500
X97000Y166300
X95400Y166300
X94600Y166300
X97800Y166300
X93800Y166300
X98600Y166300
X93000Y166300
X96200Y166300
X93800Y167100
X97000Y167100
X95400Y167100
X94600Y167100
X93000Y167100
X98600Y167100
X97800Y167100
X96200Y167100
X93800Y167900
X95400Y167900
X97000Y167900
X98600Y167900
X93000Y167900
X94600Y167900
X96200Y167900
X97800Y167900
X97800Y168700
X94600Y168700
X93000Y168700
X93800Y168700
X95400Y168700
X97000Y168700
X96200Y168700
X98600Y168700
X93000Y169500
X94600Y169500
X95400Y169500
X96200Y169500
X93800Y169500
X98600Y169500
X97800Y169500
X97000Y169500
X96200Y170300
X93800Y170300
X93000Y170300
X97000Y170300
X94600Y170300
X97800Y170300
X95400Y170300
X98600Y170300
X99400Y170300
X101800Y170300
X100200Y170300
X103400Y170300
X105000Y170300
X102600Y170300
X104200Y170300
X100200Y169500
X99400Y169500
X101800Y169500
X102600Y169500
X104200Y169500
X103400Y169500
X105000Y169500
X99400Y168700
X101800Y168700
X100200Y168700
X103400Y168700
X105000Y168700
X102600Y168700
X104200Y168700
X100200Y167900
X99400Y167900
X101800Y167900
X102600Y167900
X104200Y167900
X103400Y167900
X105000Y167900
X99400Y167100
X101800Y167100
X100200Y167100
X103400Y167100
X105000Y167100
X102600Y167100
X104200Y167100
X100200Y166300
X99400Y166300
X101800Y166300
X102600Y166300
X104200Y166300
X103400Y166300
X105000Y166300
X99400Y165500
X101800Y165500
X100200Y165500
X103400Y165500
X105000Y165500
X102600Y165500
X104200Y165500
X100200Y164700
X99400Y164700
X101800Y164700
X102600Y164700
X104200Y164700
X103400Y164700
X105000Y164700
X99400Y163900
X101800Y163900
X100200Y163900
X103400Y163900
X105000Y163900
X102600Y163900
X104200Y163900
X100200Y163100
X99400Y163100
X101800Y163100
X102600Y163100
X104200Y163100
X103400Y163100
X105000Y163100
X99400Y162300
X101800Y162300
X100200Y162300
X103400Y162300
X105000Y162300
X102600Y162300
X104200Y162300
X100200Y160700
X99400Y160700
X101800Y160700
X102600Y160700
X104200Y160700
X103400Y160700
X105000Y160700
X99400Y159900
X101800Y159900
X100200Y159900
X103400Y159900
X105000Y159900
X102600Y159900
X104200Y159900
X100200Y159100
X99400Y159100
X101800Y159100
X102600Y159100
X104200Y159100
X103400Y159100
X105000Y159100
X99400Y158300
X101800Y158300
X100200Y158300
X103400Y158300
X105000Y158300
X102600Y158300
X104200Y158300
X103400Y157500
X105000Y157500
X100200Y157500
X101800Y157500
X99400Y157500
X104200Y157500
X102600Y157500
X104200Y156700
X105000Y156700
X103400Y156700
X101800Y156700
X102600Y156700
X100200Y156700
X99400Y156700
X100200Y155900
X101800Y155900
X99400Y155900
X104200Y155900
X103400Y155900
X102600Y155900
X105000Y155900
X105000Y155100
X103400Y155100
X101800Y155100
X102600Y155100
X104200Y155100
X100200Y155100
X99400Y155100
X104200Y154300
X102600Y154300
X101800Y154300
X105000Y154300
X103400Y154300
X99400Y154300
X103400Y153500
X104200Y153500
X102600Y153500
X101800Y153500
X100200Y153500
X105000Y153500
X99400Y153500
X102600Y152700
X105000Y152700
X100200Y152700
X99400Y120300
X105000Y120300
X103400Y120300
X101800Y120300
X100200Y119500
X101800Y119500
X99400Y119500
X104200Y119500
X102600Y119500
X105000Y119500
X103400Y119500
X99400Y118700
X100200Y118700
X102600Y118700
X105000Y118700
X103400Y118700
X104200Y118700
X100200Y117900
X101800Y117900
X103400Y117900
X99400Y117900
X104200Y117900
X102600Y117900
X105000Y117900
X99400Y117100
X101800Y117100
X100200Y117100
X105000Y117100
X103400Y117100
X104200Y117100
X102600Y117100
X103400Y116300
X101800Y116300
X99400Y116300
X105000Y116300
X100200Y116300
X102600Y116300
X104200Y116300
X100200Y115500
X102600Y115500
X104200Y115500
X101800Y115500
X99400Y115500
X103400Y115500
X105000Y115500
X103400Y114700
X100200Y114700
X99400Y114700
X102600Y114700
X105000Y114700
X104200Y114700
X101800Y114700
X100200Y113900
X102600Y113900
X104200Y113900
X101800Y113900
X99400Y113900
X103400Y113900
X105000Y113900
X103400Y113100
X105000Y113100
X100200Y113100
X99400Y113100
X102600Y113100
X101800Y113100
X104200Y113100
X102600Y112300
X100200Y112300
X104200Y112300
X101800Y112300
X99400Y112300
X105000Y112300
X103400Y112300
X101800Y110700
X105000Y110700
X103400Y110700
X100200Y110700
X102600Y110700
X99400Y110700
X104200Y110700
X104200Y109900
X101800Y109900
X102600Y109900
X99400Y109900
X105000Y109900
X103400Y109900
X100200Y109900
X100200Y109100
X99400Y109100
X105000Y109100
X104200Y109100
X103400Y109100
X102600Y109100
X101800Y109100
X104200Y108300
X101800Y108300
X100200Y108300
X99400Y108300
X105000Y108300
X102600Y108300
X103400Y108300
X100200Y107500
X99400Y107500
X105000Y107500
X101800Y107500
X104200Y107500
X102600Y107500
X103400Y107500
X101800Y106700
X102600Y106700
X99400Y106700
X105000Y106700
X103400Y106700
X104200Y106700
X100200Y106700
X103400Y105900
X101800Y105900
X102600Y105900
X105000Y105900
X99400Y105900
X100200Y105900
X104200Y105900
X102600Y105100
X105000Y105100
X103400Y105100
X101800Y105100
X100200Y105100
X104200Y105100
X99400Y105100
X101800Y104300
X105000Y104300
X104200Y104300
X99400Y104300
X103400Y104300
X102600Y104300
X100200Y104300
X104200Y103500
X101800Y103500
X102600Y103500
X100200Y103500
X99400Y103500
X105000Y103500
X103400Y103500
X105000Y102700
X100200Y102700
X103400Y102700
X102600Y102700
X104200Y102700
X101800Y102700
X99400Y102700
X107400Y102700
X106600Y102700
X105800Y102700
X108200Y102700
X109000Y102700
X108200Y103500
X105800Y103500
X106600Y103500
X109000Y103500
X107400Y103500
X109800Y103500
X107400Y104300
X106600Y104300
X105800Y104300
X109800Y104300
X108200Y104300
X109000Y104300
X106600Y105100
X105800Y105100
X109000Y105100
X107400Y105100
X109800Y105100
X108200Y105100
X107400Y105900
X106600Y105900
X105800Y105900
X109800Y105900
X108200Y105900
X109000Y105900
X106600Y106700
X105800Y106700
X109000Y106700
X107400Y106700
X109800Y106700
X108200Y106700
X109800Y107500
X106600Y107500
X109000Y107500
X105800Y107500
X108200Y107500
X107400Y107500
X109800Y108300
X109000Y108300
X105800Y108300
X108200Y108300
X106600Y108300
X107400Y108300
X109000Y109100
X109800Y109100
X108200Y109100
X106600Y109100
X107400Y109100
X105800Y109100
X109800Y109900
X109000Y109900
X105800Y109900
X108200Y109900
X107400Y109900
X106600Y109900
X109000Y110700
X109800Y110700
X108200Y110700
X107400Y110700
X106600Y110700
X105800Y110700
X109800Y112300
X109000Y112300
X105800Y112300
X108200Y112300
X107400Y112300
X106600Y112300
X109000Y113100
X108200Y113100
X107400Y113100
X109800Y113100
X106600Y113100
X105800Y113100
X109800Y113900
X105800Y113900
X108200Y113900
X109000Y113900
X107400Y113900
X106600Y113900
X107400Y114700
X108200Y114700
X109800Y114700
X109000Y114700
X106600Y114700
X105800Y114700
X109800Y115500
X105800Y115500
X108200Y115500
X109000Y115500
X107400Y115500
X106600Y115500
X109800Y116300
X108200Y116300
X107400Y116300
X109000Y116300
X106600Y116300
X105800Y116300
X106600Y117100
X109000Y117100
X109800Y117100
X107400Y117100
X105800Y117100
X108200Y117100
X105800Y117900
X108200Y117900
X106600Y117900
X107400Y117900
X107400Y118700
X105800Y118700
X108200Y118700
X106600Y118700
X105800Y119500
X108200Y119500
X106600Y119500
X107400Y119500
X108200Y120300
X106600Y120300
X109000Y120300
X107400Y152700
X109000Y152700
X105800Y152700
X108200Y153500
X107400Y153500
X109000Y153500
X109800Y153500
X106600Y153500
X105800Y153500
X106600Y154300
X105800Y154300
X109800Y154300
X107400Y154300
X109000Y154300
X108200Y154300
X109000Y155100
X107400Y155100
X105800Y155100
X106600Y155100
X108200Y155100
X109800Y155100
X106600Y155900
X108200Y155900
X105800Y155900
X107400Y155900
X109800Y155900
X109000Y155900
X106600Y156700
X108200Y156700
X105800Y156700
X109800Y156700
X109000Y156700
X107400Y156700
X108200Y157500
X105800Y157500
X107400Y157500
X109000Y157500
X106600Y157500
X109800Y157500
X109000Y158300
X109800Y158300
X107400Y158300
X105800Y158300
X108200Y158300
X106600Y158300
X107400Y159100
X109000Y159100
X108200Y159100
X106600Y159100
X109800Y159100
X105800Y159100
X108200Y159900
X109000Y159900
X107400Y159900
X109800Y159900
X105800Y159900
X106600Y159900
X109800Y160700
X107400Y160700
X108200Y160700
X109000Y160700
X106600Y160700
X105800Y160700
X109000Y162300
X108200Y162300
X107400Y162300
X105800Y162300
X109800Y162300
X106600Y162300
X107400Y163100
X109000Y163100
X109800Y163100
X106600Y163100
X108200Y163100
X105800Y163100
X109000Y163900
X109800Y163900
X107400Y163900
X105800Y163900
X108200Y163900
X106600Y163900
X106600Y164700
X109000Y164700
X109800Y164700
X108200Y164700
X105800Y164700
X107400Y164700
X108200Y165500
X109000Y165500
X107400Y165500
X105800Y165500
X109800Y165500
X106600Y165500
X108200Y166300
X107400Y166300
X109800Y166300
X105800Y166300
X106600Y166300
X109000Y166300
X109800Y167100
X107400Y167100
X105800Y167100
X109000Y167100
X106600Y167100
X108200Y167100
X109000Y167900
X107400Y167900
X105800Y167900
X106600Y167900
X108200Y167900
X109800Y167900
X108200Y168700
X109800Y168700
X105800Y168700
X106600Y168700
X107400Y168700
X109000Y168700
X105800Y169500
X106600Y169500
X108200Y169500
X107400Y169500
X109000Y169500
X109800Y169500
X105800Y170300
X108200Y170300
X109000Y170300
X107400Y170300
X106600Y170300
T2C.3F95S300
X26500Y37000
X27300Y37000
X28100Y37000
X27300Y37800
X28100Y37800
X26500Y37800
X23200Y47800
X22900Y49700
X23300Y50500
X27300Y55000
X26500Y55000
X27300Y55800
X26500Y55800
X27300Y56600
X26500Y56600
X27300Y57400
X26500Y57400
X27300Y58200
X26500Y58200
X27300Y59000
X26500Y59000
X27300Y59800
X26500Y59800
X27300Y60600
X26500Y60600
X25200Y71800
X25200Y72600
X25200Y73400
X25200Y74200
X25200Y75000
X25200Y75825
X28805Y94000
X28805Y94800
X28805Y95600
X28805Y96400
X23205Y99300
X23205Y100100
X23205Y100900
X23205Y101700
X28805Y104100
X28805Y104900
X28805Y105700
X28805Y106500
X23205Y109300
X23205Y110100
X23205Y110900
X23205Y111700
X28805Y114100
X28805Y114900
X28805Y115700
X28805Y116500
X23205Y119400
X23205Y120200
X23205Y121000
X23205Y121800
X28805Y124200
X28805Y125000
X28805Y125800
X28805Y126600
X23205Y129400
X23205Y130200
X23205Y131000
X23205Y131800
X28805Y144100
X28805Y144900
X28805Y145700
X28805Y146500
X23205Y149300
X23205Y150100
X23205Y150900
X23205Y151700
X28805Y154100
X28805Y154900
X28805Y155700
X28805Y156500
X23205Y159300
X23205Y160100
X23205Y160900
X23205Y161700
X28805Y164200
X28805Y165000
X28805Y165800
X28805Y166600
X23205Y169300
X23205Y170100
X23205Y170900
X23205Y171700
X28805Y174200
X28805Y175000
X28805Y175800
X28805Y176600
X23305Y179300
X23305Y180100
X23305Y180900
X23305Y181700
X25200Y198100
X25200Y198900
X25200Y199700
X25200Y200500
X25200Y201300
X25200Y202100
X23700Y213200
X25300Y213200
X23700Y214000
X25300Y214000
X23700Y214800
X25300Y214800
X23700Y215600
X25300Y215600
X23700Y216400
X25300Y216400
X23700Y217200
X25300Y217200
X23700Y218600
X25300Y218600
X23700Y219400
X25300Y219400
X25300Y220200
X23700Y220200
X25300Y221000
X23700Y221000
X25300Y221800
X23700Y221800
X22505Y227300
X26305Y227300
X25205Y227300
X23705Y227300
X26305Y228900
X24405Y228900
X23505Y228900
X25405Y228900
X22505Y228900
X27700Y235700
X28500Y235700
X28500Y236500
X27700Y236500
X29300Y236500
X30100Y236500
X29300Y235700
X30100Y235700
X33400Y225700
X33700Y223800
X33300Y223000
X30100Y218500
X29300Y218500
X29300Y217700
X30100Y217700
X30100Y216900
X29300Y216900
X30100Y216100
X29300Y216100
X30100Y215300
X29300Y215300
X29300Y214500
X30100Y214500
X30100Y213700
X29300Y213700
X30100Y212900
X29300Y212900
X31400Y201700
X31400Y200900
X31400Y200100
X31400Y199300
X31400Y198500
X31400Y197675
X31400Y75800
X31400Y75000
X31400Y74200
X31400Y73400
X31400Y72600
X31400Y71800
X32900Y60300
X31400Y60300
X31400Y59500
X32900Y59500
X32900Y58700
X31400Y58700
X31400Y57900
X32900Y57900
X32900Y57100
X31400Y57100
X31400Y56300
X32900Y56300
X31400Y55500
X32900Y55500
X33000Y46200
X31500Y46200
X30300Y46200
X34100Y46200
X30300Y44600
X34100Y44600
X31300Y44600
X32200Y44600
X33200Y44600
X28900Y37800
X28900Y37000
X40900Y37000
X40100Y37000
X40900Y37800
X40100Y37800
X36800Y47800
X36500Y49700
X36900Y50500
X40100Y54900
X40900Y54900
X40100Y55700
X40900Y55700
X40100Y56500
X40900Y56500
X40100Y57300
X40900Y57300
X40100Y58100
X40900Y58100
X40100Y58900
X40900Y58900
X40900Y59700
X40100Y59700
X40100Y60500
X40900Y60500
X38800Y71800
X38800Y72600
X38800Y73400
X38800Y74200
X38800Y75000
X38800Y75825
X36000Y86500
X36000Y96500
X36000Y106500
X36000Y116500
X35700Y121500
X38930Y122500
X39100Y136500
X36400Y142800
X36000Y156500
X36000Y166500
X36000Y176500
X36000Y186500
X38800Y197700
X38800Y198500
X38800Y199300
X38800Y200100
X38800Y200900
X38800Y201700
X37300Y213200
X38900Y213200
X38900Y214000
X37300Y214000
X38900Y214800
X37300Y214800
X38900Y215600
X37300Y215600
X38900Y216400
X37300Y216400
X38900Y217200
X37300Y217200
X38900Y218600
X37300Y218600
X38900Y219400
X37300Y219400
X38900Y220200
X37300Y220200
X38900Y221000
X37300Y221000
X38900Y221800
X37300Y221800
X37305Y227300
X38805Y227300
X39905Y227300
X36105Y227300
X36105Y228900
X39005Y228900
X37105Y228900
X38005Y228900
X39905Y228900
X41300Y235700
X41300Y236500
X42900Y236500
X43700Y236500
X42100Y236500
X42900Y235700
X42100Y235700
X43700Y235700
X47000Y225700
X47300Y223800
X46900Y223000
X42900Y218600
X43700Y218600
X43700Y217800
X42900Y217800
X43700Y217000
X42900Y217000
X43700Y216200
X42900Y216200
X43700Y215400
X42900Y215400
X42900Y214600
X43700Y214600
X43700Y213800
X42900Y213800
X43700Y213000
X42900Y213000
X45000Y201700
X45000Y200900
X45000Y200100
X45000Y199300
X45000Y198500
X45000Y197675
X46000Y186500
X46000Y176500
X42400Y152700
X42300Y150600
X44405Y149400
X46505Y149400
X43705Y148600
X47205Y148600
X45905Y147800
X44400Y126700
X46000Y96500
X46000Y86500
X45000Y75800
X45000Y75000
X45000Y74200
X45000Y73400
X45000Y72600
X45000Y71800
X46500Y60300
X44900Y60300
X44900Y59500
X46500Y59500
X46500Y58700
X44900Y58700
X44900Y57900
X46500Y57900
X44900Y57100
X46500Y57100
X44900Y56300
X46500Y56300
X44900Y55500
X46500Y55500
X47705Y46200
X43905Y46200
X45105Y46200
X46605Y46200
X46805Y44600
X45805Y44600
X43905Y44600
X44905Y44600
X47705Y44600
X41700Y37800
X42500Y37800
X41700Y37000
X42500Y37000
X49400Y25800
X53800Y25800
X49400Y26600
X53800Y26600
X49400Y27400
X53800Y27400
X49400Y28200
X53800Y28200
X53700Y37000
X53700Y37800
X50400Y47800
X50100Y49700
X50500Y50500
X53700Y54900
X53700Y55700
X53700Y56500
X53700Y57300
X53700Y58100
X53700Y58900
X53700Y59700
X53700Y60500
X52400Y71800
X52400Y72600
X52400Y73400
X52400Y74200
X52400Y75000
X52400Y75825
X52400Y197700
X52400Y198500
X52400Y199300
X52400Y200100
X52400Y200900
X52400Y201700
X50900Y213200
X52500Y213200
X50900Y214000
X52500Y214000
X52500Y214800
X50900Y214800
X52500Y215600
X50900Y215600
X52500Y216400
X50900Y216400
X52500Y217200
X50900Y217200
X50900Y218600
X52500Y218600
X50900Y219400
X52500Y219400
X50900Y220200
X52500Y220200
X50900Y221000
X52500Y221000
X50900Y221800
X52500Y221800
X49705Y227300
X50905Y227300
X52405Y227300
X53505Y227300
X49705Y228900
X50705Y228900
X52605Y228900
X51605Y228900
X53505Y228900
X49400Y244800
X53800Y244800
X53800Y245600
X49400Y245600
X49400Y246400
X53800Y246400
X53800Y247200
X49400Y247200
X54900Y236500
X57300Y236500
X56500Y236500
X55700Y236500
X56500Y235700
X55700Y235700
X54900Y235700
X57300Y235700
X60600Y225700
X60500Y223000
X56500Y218600
X57300Y218600
X56500Y217800
X57300Y217800
X56500Y217000
X57300Y217000
X56500Y216200
X57300Y216200
X57300Y215400
X56500Y215400
X56500Y214600
X57300Y214600
X57300Y213800
X56500Y213800
X56500Y213000
X57300Y213000
X58600Y201700
X58600Y200900
X58600Y200100
X58600Y199300
X58600Y198500
X58600Y197675
X56000Y186500
X56000Y176500
X56900Y123400
X56000Y96500
X56000Y86500
X58600Y75800
X58600Y75000
X58600Y74200
X58600Y73400
X58600Y72600
X58600Y71800
X54500Y60500
X60100Y60300
X58600Y60300
X54500Y59700
X58600Y59500
X60100Y59500
X54500Y58900
X60100Y58700
X58600Y58700
X54500Y58100
X58600Y57900
X60100Y57900
X54500Y57300
X58600Y57100
X60100Y57100
X54500Y56500
X58600Y56300
X60100Y56300
X54500Y55700
X60100Y55500
X58600Y55500
X54500Y54900
X58705Y46200
X60205Y46200
X57505Y46200
X58505Y44600
X59405Y44600
X57505Y44600
X60405Y44600
X54500Y37800
X55300Y37800
X56100Y37800
X55300Y37000
X56100Y37000
X54500Y37000
X61305Y44600
X61305Y46200
X64000Y47800
X63700Y49700
X64100Y50500
X66000Y71800
X66000Y72600
X66000Y73400
X66000Y74200
X66000Y75000
X66000Y75825
X66000Y86500
X66000Y96500
X66000Y106500
X66000Y116500
X66000Y126500
X65300Y142800
X63305Y150600
X66300Y151500
X66000Y166500
X66000Y176500
X66000Y186500
X66000Y197700
X66000Y198500
X66000Y199300
X66000Y200100
X66000Y200900
X66000Y201700
X64500Y213200
X66100Y213200
X64500Y214000
X66100Y214000
X64500Y214800
X66100Y214800
X64500Y215600
X66100Y215600
X64500Y216400
X66100Y216400
X64500Y217200
X66100Y217200
X64500Y218500
X66100Y218500
X64500Y219300
X66100Y219300
X64500Y220100
X66100Y220100
X64500Y220900
X66100Y220900
X64500Y221700
X66100Y221700
X60900Y223800
X64505Y227300
X66005Y227300
X63305Y227300
X63305Y228900
X66205Y228900
X64305Y228900
X65205Y228900
X69300Y236500
X70900Y236500
X70100Y236500
X68500Y236500
X69300Y235700
X70100Y235700
X68500Y235700
X70900Y235700
X67105Y228900
X67105Y227300
X70900Y218700
X70100Y218700
X70100Y217900
X70900Y217900
X70900Y217100
X70100Y217100
X70100Y216300
X70900Y216300
X70900Y215500
X70100Y215500
X70900Y214700
X70100Y214700
X70900Y213900
X70100Y213900
X70900Y213100
X70100Y213100
X72200Y201700
X72200Y200900
X72200Y200100
X72200Y199300
X72200Y198500
X72200Y197675
X72200Y75800
X72200Y75000
X72200Y74200
X72200Y73400
X72200Y72600
X72200Y71800
X68100Y60400
X67300Y60400
X72100Y60300
X67300Y59600
X68100Y59600
X72100Y59500
X68100Y58800
X67300Y58800
X72100Y58700
X68100Y58000
X67300Y58000
X72100Y57900
X67300Y57200
X68100Y57200
X72100Y57100
X67300Y56400
X68100Y56400
X72100Y56300
X68100Y55600
X67300Y55600
X72100Y55500
X68100Y54800
X67300Y54800
X71105Y46200
X72305Y46200
X73005Y44600
X71105Y44600
X72105Y44600
X68100Y37800
X69700Y37800
X68900Y37800
X67300Y37800
X68100Y37000
X68900Y37000
X69700Y37000
X67300Y37000
X76600Y25900
X76600Y26700
X76600Y27500
X76600Y28300
X74005Y44600
X74905Y44600
X73805Y46200
X74905Y46200
X77600Y47800
X77300Y49700
X77700Y50500
X73700Y55500
X73700Y56300
X73700Y57100
X73700Y57900
X73700Y58700
X73700Y59500
X73700Y60300
X79600Y71800
X79600Y72600
X79600Y73400
X79600Y74200
X79600Y75000
X79600Y75825
X76000Y96500
X76000Y106500
X76000Y116500
X76000Y126500
X76000Y146500
X76000Y156500
X76000Y166500
X76000Y176500
X79600Y197700
X79600Y198500
X79600Y199300
X79600Y200100
X79600Y200900
X79600Y201700
X78100Y213200
X78100Y214000
X78100Y214800
X78100Y215600
X78100Y216400
X78100Y217200
X78100Y218600
X78100Y219400
X78100Y220200
X78100Y221000
X78100Y221800
X74100Y223000
X74500Y223800
X74200Y225700
X79605Y227300
X76905Y227300
X78105Y227300
X76905Y228900
X77905Y228900
X78805Y228900
X76600Y244800
X76600Y245600
X76600Y246400
X76600Y247200
X81000Y247200
X81000Y246400
X81000Y245600
X81000Y244800
X84500Y236500
X83700Y236500
X82900Y236500
X82100Y236500
X83700Y235700
X82100Y235700
X82900Y235700
X84500Y235700
X79805Y228900
X80705Y228900
X80705Y227300
X79700Y221800
X79700Y221000
X79700Y220200
X79700Y219400
X83700Y218700
X84500Y218700
X79700Y218600
X84500Y217900
X83700Y217900
X79700Y217200
X84500Y217100
X83700Y217100
X79700Y216400
X84500Y216300
X83700Y216300
X79700Y215600
X84500Y215500
X83700Y215500
X79700Y214800
X83700Y214700
X84500Y214700
X79700Y214000
X84500Y213900
X83700Y213900
X79700Y213200
X83700Y213100
X84500Y213100
X85800Y201700
X85800Y200900
X85800Y200100
X85800Y199300
X85800Y198500
X85800Y197675
X86000Y186500
X86000Y176500
X86000Y166500
X86000Y156500
X86000Y146500
X86000Y136500
X85700Y121500
X86000Y116500
X86000Y106500
X86000Y96500
X86000Y86500
X85800Y75800
X85800Y75000
X85800Y74200
X85800Y73400
X85800Y72600
X85800Y71800
X80900Y60400
X81700Y60400
X85700Y60300
X81700Y59600
X80900Y59600
X85700Y59500
X81700Y58800
X80900Y58800
X85700Y58700
X80900Y58000
X81700Y58000
X85700Y57900
X81700Y57200
X80900Y57200
X85700Y57100
X80900Y56400
X81700Y56400
X85700Y56300
X81700Y55600
X80900Y55600
X85700Y55500
X80900Y54800
X81700Y54800
X84705Y46200
X85905Y46200
X85705Y44600
X84705Y44600
X82500Y37800
X81700Y37800
X83300Y37800
X80900Y37800
X81700Y37000
X83300Y37000
X80900Y37000
X82500Y37000
X81000Y28300
X81000Y27500
X81000Y26700
X81000Y25900
X88505Y44600
X86605Y44600
X87605Y44600
X87405Y46200
X88505Y46200
X91200Y47800
X90900Y49700
X91300Y50500
X87300Y55500
X87300Y56300
X87300Y57100
X87300Y57900
X87300Y58700
X87300Y59500
X87300Y60300
X88695Y122500
X86800Y130200
X89000Y136500
X91700Y213200
X91700Y214000
X91700Y214800
X91700Y215600
X91700Y216400
X91700Y217200
X91700Y218600
X91700Y219400
X91700Y220200
X91700Y221000
X91700Y221800
X87700Y223000
X88100Y223800
X87800Y225700
X91705Y227300
X90505Y227300
X91505Y228900
X90505Y228900
X98100Y236500
X97300Y236500
X96500Y236500
X95700Y236500
X97300Y235700
X96500Y235700
X95700Y235700
X98100Y235700
X93405Y228900
X92405Y228900
X94305Y228900
X93205Y227300
X94305Y227300
X93300Y221800
X93300Y221000
X93300Y220200
X93300Y219400
X93300Y218600
X97300Y218600
X98100Y218600
X98100Y217800
X97300Y217800
X93300Y217200
X98100Y217000
X97300Y217000
X93300Y216400
X98100Y216200
X97300Y216200
X93300Y215600
X97300Y215400
X98100Y215400
X93300Y214800
X97300Y214600
X98100Y214600
X93300Y214000
X98100Y213800
X97300Y213800
X93300Y213200
X97300Y213000
X98100Y213000
X93200Y201700
X93200Y200900
X93200Y200100
X93200Y199300
X93200Y198500
X93200Y197700
X96000Y186500
X96000Y176500
X96500Y149400
X94405Y149400
X93705Y148600
X97205Y148600
X96000Y96500
X96000Y86500
X93200Y75825
X93200Y75000
X93200Y74200
X93200Y73400
X93200Y72600
X93200Y71800
X95300Y60500
X94500Y60500
X94500Y59700
X95300Y59700
X95300Y58900
X94500Y58900
X95300Y58100
X94500Y58100
X94500Y57300
X95300Y57300
X94500Y56500
X95300Y56500
X95300Y55700
X94500Y55700
X94500Y54900
X95300Y54900
X98305Y46200
X98305Y44600
X94500Y37800
X95300Y37800
X96100Y37800
X96900Y37800
X95300Y37000
X96900Y37000
X96100Y37000
X94500Y37000
X103800Y25900
X103800Y26700
X103800Y27500
X103800Y28300
X102105Y44600
X100205Y44600
X99305Y44600
X101205Y44600
X99505Y46200
X101005Y46200
X102105Y46200
X104800Y47800
X104500Y49700
X104900Y50500
X99300Y55500
X100900Y55500
X99300Y56300
X100900Y56300
X99300Y57100
X100900Y57100
X100900Y57900
X99300Y57900
X100900Y58700
X99300Y58700
X99300Y59500
X100900Y59500
X100900Y60300
X99300Y60300
X99400Y71800
X99400Y72600
X99400Y73400
X99400Y74200
X99400Y75000
X99400Y75800
X104700Y128400
X99400Y197675
X99400Y198500
X99400Y199300
X99400Y200100
X99400Y200900
X99400Y201700
X101300Y223000
X101700Y223800
X101400Y225700
X104105Y227300
X104105Y228900
X103800Y244800
X103800Y245600
X103800Y246400
X103800Y247200
X108200Y247200
X108200Y246400
X108200Y245600
X108200Y244800
X110100Y236500
X110900Y236500
X109300Y236500
X110100Y235700
X110900Y235700
X109300Y235700
X107005Y228900
X105105Y228900
X106005Y228900
X107905Y228900
X105305Y227300
X106805Y227300
X107905Y227300
X105300Y221800
X106900Y221800
X106900Y221000
X105300Y221000
X106900Y220200
X105300Y220200
X106900Y219400
X105300Y219400
X106900Y218600
X105300Y218600
X110900Y218600
X110900Y217800
X106900Y217200
X105300Y217200
X110900Y217000
X106900Y216400
X105300Y216400
X110900Y216200
X106900Y215600
X105300Y215600
X110900Y215400
X106900Y214800
X105300Y214800
X110900Y214600
X106900Y214000
X105300Y214000
X110900Y213800
X105300Y213200
X106900Y213200
X110900Y213000
X106800Y201700
X106800Y200900
X106800Y200100
X106800Y199300
X106800Y198500
X106800Y197700
X106000Y186500
X106000Y176500
X107100Y147800
X107600Y125200
X106200Y125200
X105500Y124400
X106200Y123400
X106000Y96500
X106000Y86500
X106800Y75825
X106800Y75000
X106800Y74200
X106800Y73400
X106800Y72600
X106800Y71800
X108900Y60500
X108100Y60500
X108100Y59700
X108900Y59700
X108100Y58900
X108900Y58900
X108900Y58100
X108100Y58100
X108100Y57300
X108900Y57300
X108100Y56500
X108900Y56500
X108900Y55700
X108100Y55700
X108900Y54900
X108100Y54900
X108100Y37800
X108900Y37800
X110500Y37800
X109700Y37800
X110500Y37000
X108900Y37000
X109700Y37000
X108100Y37000
X108200Y28300
X108200Y27500
X108200Y26700
X108200Y25900
X115705Y44600
X113805Y44600
X112905Y44600
X114805Y44600
X111905Y44600
X114605Y46200
X111905Y46200
X113105Y46200
X115705Y46200
X114500Y55500
X112900Y55500
X112900Y56300
X114500Y56300
X112900Y57100
X114500Y57100
X112900Y57900
X114500Y57900
X112900Y58700
X114500Y58700
X112900Y59500
X114500Y59500
X114500Y60300
X112900Y60300
X113000Y71800
X113000Y72600
X113000Y73400
X113000Y74200
X113000Y75000
X113000Y75800
X116000Y86500
X116000Y96500
X116000Y106500
X113800Y119300
X113800Y120900
X114900Y125300
X114900Y126800
X114900Y128400
X116300Y130200
X113000Y136500
X112905Y150600
X116300Y151500
X116000Y166500
X116000Y176500
X116000Y186500
X113000Y197675
X113000Y198500
X113000Y199300
X113000Y200100
X113000Y200900
X113000Y201700
X111700Y213000
X111700Y213800
X111700Y214600
X111700Y215400
X111700Y216200
X111700Y217000
X111700Y217800
X111700Y218600
X114900Y223000
X115300Y223800
X115000Y225700
X117705Y227300
X117705Y228900
X111700Y235700
X111700Y236500
X123700Y236500
X122900Y236500
X122900Y235700
X123700Y235700
X120605Y228900
X118705Y228900
X119605Y228900
X121505Y228900
X118905Y227300
X120405Y227300
X121505Y227300
X120500Y221800
X118900Y221800
X120500Y221000
X118900Y221000
X120500Y220200
X118900Y220200
X120500Y219400
X118900Y219400
X120500Y218600
X118900Y218600
X118900Y217200
X120500Y217200
X118900Y216400
X120500Y216400
X118900Y215600
X120500Y215600
X118900Y214800
X120500Y214800
X120500Y214000
X118900Y214000
X120500Y213200
X118900Y213200
X120400Y201700
X120400Y200900
X120400Y200100
X120400Y199300
X120400Y198500
X120400Y197700
X123205Y176800
X123205Y176000
X123205Y175200
X123205Y174400
X123205Y166800
X123205Y166000
X123205Y165200
X123205Y164400
X123205Y156700
X123205Y155900
X123205Y155100
X123205Y154300
X123205Y146700
X123205Y145900
X123205Y145100
X123205Y144300
X122600Y132600
X120800Y130600
X119800Y130600
X118800Y130000
X121600Y129800
X123205Y128800
X121600Y128700
X123205Y128000
X120100Y127700
X123205Y127200
X123200Y126400
X120100Y124400
X121000Y124400
X121700Y123500
X121700Y122600
X120900Y121700
X123205Y116700
X123205Y115900
X123205Y115100
X123205Y114300
X123205Y106700
X123205Y105900
X123205Y105100
X123205Y104300
X123205Y96600
X123205Y95800
X123205Y95000
X123205Y94200
X120400Y75825
X120400Y75000
X120400Y74200
X120400Y73400
X120400Y72600
X120400Y71800
X122500Y60600
X121700Y60600
X121700Y59800
X122500Y59800
X121700Y59000
X122500Y59000
X122500Y58200
X121700Y58200
X122500Y57400
X121700Y57400
X121700Y56600
X122500Y56600
X121700Y55800
X122500Y55800
X122500Y55000
X121700Y55000
X118500Y50500
X118100Y49700
X118400Y47800
X122500Y37800
X121700Y37800
X123300Y37800
X124100Y37800
X122500Y37000
X121700Y37000
X123300Y37000
X124100Y37000
X126505Y44600
X128405Y44600
X125505Y44600
X129305Y44600
X127405Y44600
X126705Y46200
X129305Y46200
X125505Y46200
X128205Y46200
X126500Y55500
X128100Y55500
X126500Y56300
X128100Y56300
X126500Y57100
X128100Y57100
X126500Y57900
X128100Y57900
X126500Y58700
X128100Y58700
X126500Y59500
X128100Y59500
X128100Y60300
X126500Y60300
X126600Y71400
X126600Y72200
X126600Y73000
X126600Y73800
X126600Y74600
X126600Y75400
X128805Y99200
X128805Y100000
X128805Y100800
X128805Y101600
X128805Y109200
X128805Y110000
X128805Y110800
X128805Y111600
X128800Y118400
X128805Y119200
X128805Y120000
X128805Y120800
X128805Y129200
X128805Y130000
X128805Y130800
X128805Y131600
X128805Y149200
X128805Y150000
X128805Y150800
X128805Y151600
X128805Y159200
X128805Y160000
X128805Y160800
X128805Y161600
X128805Y169200
X128805Y170000
X128805Y170800
X128805Y171600
X128805Y179200
X128805Y180000
X128805Y180800
X128805Y181600
X126600Y197675
X126600Y198500
X126600Y199300
X126600Y200100
X126600Y200900
X126600Y201700
X125300Y212900
X124500Y212900
X124500Y213700
X125300Y213700
X124500Y214500
X125300Y214500
X124500Y215300
X125300Y215300
X125300Y216100
X124500Y216100
X124500Y216900
X125300Y216900
X124500Y217700
X125300Y217700
X125300Y218500
X124500Y218500
X128500Y223000
X128900Y223800
X128600Y225700
X124500Y235700
X125300Y235700
X124500Y236500
X125300Y236500
X131000Y247200
X135400Y247200
X131000Y246400
X135400Y246400
X131000Y245600
X135400Y245600
X131000Y244800
X135400Y244800
X142305Y184200
X132905Y182200
X133705Y182200
X133705Y181400
X132905Y181400
X141700Y173500
X137500Y168700
X135700Y163200
X131500Y163000
X140000Y152500
X137300Y152500
X142200Y151100
X143100Y150300
X140000Y147500
X142100Y130000
X142100Y129100
X137600Y128000
X140400Y126900
X133500Y125000
X140405Y123800
X138700Y123500
X140705Y123000
X138700Y122600
X138705Y121700
X142400Y116000
X140400Y108800
X139600Y108800
X138800Y108800
X141900Y108700
X133200Y108100
X142500Y108000
X143100Y107400
X141200Y107200
X132400Y49900
X135400Y28300
X131000Y28300
X131000Y27500
X135400Y27500
X131000Y26700
X135400Y26700
X131000Y25900
X135400Y25900
X143700Y105900
X149100Y120700
X150400Y120700
X143300Y122000
X151200Y122800
X143300Y123000
X143300Y125500
X148700Y137700
X148700Y148500
X151205Y163000
T3C.9F197S550
X151500Y148900
X151500Y153300
T4C1.15F139S550
X154850Y112970
X154850Y115510
X154850Y118050
X154850Y120590
X154850Y123130
T5C1.2F139S550
X150700Y192600
X150700Y196100
X150700Y199600
T6C1.8F81S550
X33800Y28750
X38000Y28750
X42200Y28750
X38000Y34250
X33800Y34250
X42200Y34250
X38000Y239250
X33800Y239250
X42200Y239250
X42200Y244750
X38000Y244750
X33800Y244750
X61000Y244750
X65200Y244750
X69400Y244750
X61000Y239250
X65200Y239250
X69400Y239250
X61000Y34250
X69400Y34250
X65200Y34250
X69400Y28750
X65200Y28750
X61000Y28750
X88200Y28750
X96600Y28750
X92400Y28750
X88200Y34250
X96600Y34250
X92400Y34250
X92400Y239250
X96600Y239250
X88200Y239250
X96600Y244750
X92400Y244750
X88200Y244750
X115400Y244750
X123800Y244750
X119600Y244750
X119600Y239250
X123800Y239250
X115400Y239250
X115400Y34250
X119600Y34250
X123800Y34250
X123800Y28750
X115400Y28750
X119600Y28750
T7C4.F35S900
X26000Y29500
X26000Y86500
X26000Y136500
X26000Y186500
X26000Y243500
X76000Y186500
X126000Y186500
X76000Y136500
X126000Y136500
X126000Y86500
X76000Y86500
X152000Y29500
X152000Y243500
M30
